%FSLAX45Y45*%
G04 Gerber Fmt 4.5, Leading zero omitted, Abs format (unit mm)*
G04 Created by KiCad (PCBNEW 4.0.6+dfsg1-1) date Tue Dec 26 18:46:28 2017*
%MOMM*%
%LPD*%
G01*
G04 APERTURE LIST*
%ADD10C,0.127000*%
%ADD11C,0.010000*%
%ADD12C,0.200000*%
%ADD13C,0.300000*%
G04 APERTURE END LIST*
D10*
D11*
X2770000Y-18340000D02*
X2770000Y-13760000D01*
X8820000Y-18340000D02*
X2770000Y-18340000D01*
X8820000Y-13760000D02*
X8820000Y-18340000D01*
X2770000Y-13760000D02*
X8820000Y-13760000D01*
D12*
X5120000Y-17837500D02*
X5200000Y-17917500D01*
X5200000Y-17837500D02*
X5120000Y-17917500D01*
X5620000Y-17837500D02*
X5700000Y-17917500D01*
X5700000Y-17837500D02*
X5620000Y-17917500D01*
X6530430Y-14519000D02*
G75*
G03X6530430Y-14519000I-49530J0D01*
G01*
X6575430Y-17608500D02*
G75*
G03X6575430Y-17608500I-49530J0D01*
G01*
X6632030Y-14011000D02*
G75*
G03X6632030Y-14011000I-49530J0D01*
G01*
X6677030Y-18116500D02*
G75*
G03X6677030Y-18116500I-49530J0D01*
G01*
X6733630Y-14519000D02*
G75*
G03X6733630Y-14519000I-49530J0D01*
G01*
X6778630Y-17608500D02*
G75*
G03X6778630Y-17608500I-49530J0D01*
G01*
X6328500Y-13892255D02*
X6328500Y-14129745D01*
X6209755Y-14011000D02*
X6447245Y-14011000D01*
X6328500Y-14209755D02*
X6328500Y-14447245D01*
X6209755Y-14328500D02*
X6447245Y-14328500D01*
X6373500Y-17680255D02*
X6373500Y-17917745D01*
X6254755Y-17799000D02*
X6492245Y-17799000D01*
X6373500Y-17997755D02*
X6373500Y-18235245D01*
X6254755Y-18116500D02*
X6492245Y-18116500D01*
X6836500Y-13892255D02*
X6836500Y-14129745D01*
X6717755Y-14011000D02*
X6955245Y-14011000D01*
X6836500Y-14209755D02*
X6836500Y-14447245D01*
X6717755Y-14328500D02*
X6955245Y-14328500D01*
X6881500Y-17680255D02*
X6881500Y-17917745D01*
X6762755Y-17799000D02*
X7000245Y-17799000D01*
X6881500Y-17997755D02*
X6881500Y-18235245D01*
X6762755Y-18116500D02*
X7000245Y-18116500D01*
D13*
X3040928Y-18806214D02*
X3040928Y-18506214D01*
X3112357Y-18506214D01*
X3155214Y-18520500D01*
X3183786Y-18549072D01*
X3198071Y-18577643D01*
X3212357Y-18634786D01*
X3212357Y-18677643D01*
X3198071Y-18734786D01*
X3183786Y-18763357D01*
X3155214Y-18791929D01*
X3112357Y-18806214D01*
X3040928Y-18806214D01*
X3340928Y-18806214D02*
X3340928Y-18606214D01*
X3340928Y-18663357D02*
X3355214Y-18634786D01*
X3369500Y-18620500D01*
X3398071Y-18606214D01*
X3426643Y-18606214D01*
X3526643Y-18806214D02*
X3526643Y-18606214D01*
X3526643Y-18506214D02*
X3512357Y-18520500D01*
X3526643Y-18534786D01*
X3540928Y-18520500D01*
X3526643Y-18506214D01*
X3526643Y-18534786D01*
X3712357Y-18806214D02*
X3683786Y-18791929D01*
X3669500Y-18763357D01*
X3669500Y-18506214D01*
X3869500Y-18806214D02*
X3840928Y-18791929D01*
X3826643Y-18763357D01*
X3826643Y-18506214D01*
X4212357Y-18806214D02*
X4212357Y-18506214D01*
X4312357Y-18720500D01*
X4412357Y-18506214D01*
X4412357Y-18806214D01*
X4683786Y-18806214D02*
X4683786Y-18649072D01*
X4669500Y-18620500D01*
X4640929Y-18606214D01*
X4583786Y-18606214D01*
X4555214Y-18620500D01*
X4683786Y-18791929D02*
X4655214Y-18806214D01*
X4583786Y-18806214D01*
X4555214Y-18791929D01*
X4540929Y-18763357D01*
X4540929Y-18734786D01*
X4555214Y-18706214D01*
X4583786Y-18691929D01*
X4655214Y-18691929D01*
X4683786Y-18677643D01*
X4826643Y-18606214D02*
X4826643Y-18906214D01*
X4826643Y-18620500D02*
X4855214Y-18606214D01*
X4912357Y-18606214D01*
X4940929Y-18620500D01*
X4955214Y-18634786D01*
X4969500Y-18663357D01*
X4969500Y-18749072D01*
X4955214Y-18777643D01*
X4940929Y-18791929D01*
X4912357Y-18806214D01*
X4855214Y-18806214D01*
X4826643Y-18791929D01*
X5098071Y-18777643D02*
X5112357Y-18791929D01*
X5098071Y-18806214D01*
X5083786Y-18791929D01*
X5098071Y-18777643D01*
X5098071Y-18806214D01*
X5098071Y-18620500D02*
X5112357Y-18634786D01*
X5098071Y-18649072D01*
X5083786Y-18634786D01*
X5098071Y-18620500D01*
X5098071Y-18649072D01*
X2689500Y-19260500D02*
X2769500Y-19340500D01*
X2769500Y-19260500D02*
X2689500Y-19340500D01*
X3098071Y-19136214D02*
X3126643Y-19136214D01*
X3155214Y-19150500D01*
X3169500Y-19164786D01*
X3183786Y-19193357D01*
X3198071Y-19250500D01*
X3198071Y-19321929D01*
X3183786Y-19379072D01*
X3169500Y-19407643D01*
X3155214Y-19421929D01*
X3126643Y-19436214D01*
X3098071Y-19436214D01*
X3069500Y-19421929D01*
X3055214Y-19407643D01*
X3040928Y-19379072D01*
X3026643Y-19321929D01*
X3026643Y-19250500D01*
X3040928Y-19193357D01*
X3055214Y-19164786D01*
X3069500Y-19150500D01*
X3098071Y-19136214D01*
X3326643Y-19407643D02*
X3340928Y-19421929D01*
X3326643Y-19436214D01*
X3312357Y-19421929D01*
X3326643Y-19407643D01*
X3326643Y-19436214D01*
X3512357Y-19264786D02*
X3483786Y-19250500D01*
X3469500Y-19236214D01*
X3455214Y-19207643D01*
X3455214Y-19193357D01*
X3469500Y-19164786D01*
X3483786Y-19150500D01*
X3512357Y-19136214D01*
X3569500Y-19136214D01*
X3598071Y-19150500D01*
X3612357Y-19164786D01*
X3626643Y-19193357D01*
X3626643Y-19207643D01*
X3612357Y-19236214D01*
X3598071Y-19250500D01*
X3569500Y-19264786D01*
X3512357Y-19264786D01*
X3483786Y-19279072D01*
X3469500Y-19293357D01*
X3455214Y-19321929D01*
X3455214Y-19379072D01*
X3469500Y-19407643D01*
X3483786Y-19421929D01*
X3512357Y-19436214D01*
X3569500Y-19436214D01*
X3598071Y-19421929D01*
X3612357Y-19407643D01*
X3626643Y-19379072D01*
X3626643Y-19321929D01*
X3612357Y-19293357D01*
X3598071Y-19279072D01*
X3569500Y-19264786D01*
X3812357Y-19136214D02*
X3840928Y-19136214D01*
X3869500Y-19150500D01*
X3883786Y-19164786D01*
X3898071Y-19193357D01*
X3912357Y-19250500D01*
X3912357Y-19321929D01*
X3898071Y-19379072D01*
X3883786Y-19407643D01*
X3869500Y-19421929D01*
X3840928Y-19436214D01*
X3812357Y-19436214D01*
X3783786Y-19421929D01*
X3769500Y-19407643D01*
X3755214Y-19379072D01*
X3740928Y-19321929D01*
X3740928Y-19250500D01*
X3755214Y-19193357D01*
X3769500Y-19164786D01*
X3783786Y-19150500D01*
X3812357Y-19136214D01*
X4040928Y-19436214D02*
X4040928Y-19236214D01*
X4040928Y-19264786D02*
X4055214Y-19250500D01*
X4083786Y-19236214D01*
X4126643Y-19236214D01*
X4155214Y-19250500D01*
X4169500Y-19279072D01*
X4169500Y-19436214D01*
X4169500Y-19279072D02*
X4183786Y-19250500D01*
X4212357Y-19236214D01*
X4255214Y-19236214D01*
X4283786Y-19250500D01*
X4298071Y-19279072D01*
X4298071Y-19436214D01*
X4440929Y-19436214D02*
X4440929Y-19236214D01*
X4440929Y-19264786D02*
X4455214Y-19250500D01*
X4483786Y-19236214D01*
X4526643Y-19236214D01*
X4555214Y-19250500D01*
X4569500Y-19279072D01*
X4569500Y-19436214D01*
X4569500Y-19279072D02*
X4583786Y-19250500D01*
X4612357Y-19236214D01*
X4655214Y-19236214D01*
X4683786Y-19250500D01*
X4698071Y-19279072D01*
X4698071Y-19436214D01*
X5283786Y-19121929D02*
X5026643Y-19507643D01*
X5669500Y-19136214D02*
X5698071Y-19136214D01*
X5726643Y-19150500D01*
X5740928Y-19164786D01*
X5755214Y-19193357D01*
X5769500Y-19250500D01*
X5769500Y-19321929D01*
X5755214Y-19379072D01*
X5740928Y-19407643D01*
X5726643Y-19421929D01*
X5698071Y-19436214D01*
X5669500Y-19436214D01*
X5640928Y-19421929D01*
X5626643Y-19407643D01*
X5612357Y-19379072D01*
X5598071Y-19321929D01*
X5598071Y-19250500D01*
X5612357Y-19193357D01*
X5626643Y-19164786D01*
X5640928Y-19150500D01*
X5669500Y-19136214D01*
X5898071Y-19407643D02*
X5912357Y-19421929D01*
X5898071Y-19436214D01*
X5883786Y-19421929D01*
X5898071Y-19407643D01*
X5898071Y-19436214D01*
X6098071Y-19136214D02*
X6126643Y-19136214D01*
X6155214Y-19150500D01*
X6169500Y-19164786D01*
X6183785Y-19193357D01*
X6198071Y-19250500D01*
X6198071Y-19321929D01*
X6183785Y-19379072D01*
X6169500Y-19407643D01*
X6155214Y-19421929D01*
X6126643Y-19436214D01*
X6098071Y-19436214D01*
X6069500Y-19421929D01*
X6055214Y-19407643D01*
X6040928Y-19379072D01*
X6026643Y-19321929D01*
X6026643Y-19250500D01*
X6040928Y-19193357D01*
X6055214Y-19164786D01*
X6069500Y-19150500D01*
X6098071Y-19136214D01*
X6298071Y-19136214D02*
X6483785Y-19136214D01*
X6383785Y-19250500D01*
X6426643Y-19250500D01*
X6455214Y-19264786D01*
X6469500Y-19279072D01*
X6483785Y-19307643D01*
X6483785Y-19379072D01*
X6469500Y-19407643D01*
X6455214Y-19421929D01*
X6426643Y-19436214D01*
X6340928Y-19436214D01*
X6312357Y-19421929D01*
X6298071Y-19407643D01*
X6769500Y-19436214D02*
X6598071Y-19436214D01*
X6683785Y-19436214D02*
X6683785Y-19136214D01*
X6655214Y-19179072D01*
X6626643Y-19207643D01*
X6598071Y-19221929D01*
X6883786Y-19136214D02*
X6883786Y-19193357D01*
X6998071Y-19136214D02*
X6998071Y-19193357D01*
X7440928Y-19550500D02*
X7426643Y-19536214D01*
X7398071Y-19493357D01*
X7383785Y-19464786D01*
X7369500Y-19421929D01*
X7355214Y-19350500D01*
X7355214Y-19293357D01*
X7369500Y-19221929D01*
X7383785Y-19179072D01*
X7398071Y-19150500D01*
X7426643Y-19107643D01*
X7440928Y-19093357D01*
X7540928Y-19164786D02*
X7555214Y-19150500D01*
X7583785Y-19136214D01*
X7655214Y-19136214D01*
X7683785Y-19150500D01*
X7698071Y-19164786D01*
X7712357Y-19193357D01*
X7712357Y-19221929D01*
X7698071Y-19264786D01*
X7526643Y-19436214D01*
X7712357Y-19436214D01*
X8069500Y-19436214D02*
X8069500Y-19136214D01*
X8198071Y-19436214D02*
X8198071Y-19279072D01*
X8183785Y-19250500D01*
X8155214Y-19236214D01*
X8112357Y-19236214D01*
X8083785Y-19250500D01*
X8069500Y-19264786D01*
X8383785Y-19436214D02*
X8355214Y-19421929D01*
X8340928Y-19407643D01*
X8326643Y-19379072D01*
X8326643Y-19293357D01*
X8340928Y-19264786D01*
X8355214Y-19250500D01*
X8383785Y-19236214D01*
X8426643Y-19236214D01*
X8455214Y-19250500D01*
X8469500Y-19264786D01*
X8483786Y-19293357D01*
X8483786Y-19379072D01*
X8469500Y-19407643D01*
X8455214Y-19421929D01*
X8426643Y-19436214D01*
X8383785Y-19436214D01*
X8655214Y-19436214D02*
X8626643Y-19421929D01*
X8612357Y-19393357D01*
X8612357Y-19136214D01*
X8883786Y-19421929D02*
X8855214Y-19436214D01*
X8798071Y-19436214D01*
X8769500Y-19421929D01*
X8755214Y-19393357D01*
X8755214Y-19279072D01*
X8769500Y-19250500D01*
X8798071Y-19236214D01*
X8855214Y-19236214D01*
X8883786Y-19250500D01*
X8898071Y-19279072D01*
X8898071Y-19307643D01*
X8755214Y-19336214D01*
X9012357Y-19421929D02*
X9040929Y-19436214D01*
X9098071Y-19436214D01*
X9126643Y-19421929D01*
X9140929Y-19393357D01*
X9140929Y-19379072D01*
X9126643Y-19350500D01*
X9098071Y-19336214D01*
X9055214Y-19336214D01*
X9026643Y-19321929D01*
X9012357Y-19293357D01*
X9012357Y-19279072D01*
X9026643Y-19250500D01*
X9055214Y-19236214D01*
X9098071Y-19236214D01*
X9126643Y-19250500D01*
X9240928Y-19550500D02*
X9255214Y-19536214D01*
X9283786Y-19493357D01*
X9298071Y-19464786D01*
X9312357Y-19421929D01*
X9326643Y-19350500D01*
X9326643Y-19293357D01*
X9312357Y-19221929D01*
X9298071Y-19179072D01*
X9283786Y-19150500D01*
X9255214Y-19107643D01*
X9240928Y-19093357D01*
X9783786Y-19550500D02*
X9769500Y-19536214D01*
X9740928Y-19493357D01*
X9726643Y-19464786D01*
X9712357Y-19421929D01*
X9698071Y-19350500D01*
X9698071Y-19293357D01*
X9712357Y-19221929D01*
X9726643Y-19179072D01*
X9740928Y-19150500D01*
X9769500Y-19107643D01*
X9783786Y-19093357D01*
X9898071Y-19236214D02*
X9898071Y-19436214D01*
X9898071Y-19264786D02*
X9912357Y-19250500D01*
X9940928Y-19236214D01*
X9983786Y-19236214D01*
X10012357Y-19250500D01*
X10026643Y-19279072D01*
X10026643Y-19436214D01*
X10212357Y-19436214D02*
X10183786Y-19421929D01*
X10169500Y-19407643D01*
X10155214Y-19379072D01*
X10155214Y-19293357D01*
X10169500Y-19264786D01*
X10183786Y-19250500D01*
X10212357Y-19236214D01*
X10255214Y-19236214D01*
X10283786Y-19250500D01*
X10298071Y-19264786D01*
X10312357Y-19293357D01*
X10312357Y-19379072D01*
X10298071Y-19407643D01*
X10283786Y-19421929D01*
X10255214Y-19436214D01*
X10212357Y-19436214D01*
X10398071Y-19236214D02*
X10512357Y-19236214D01*
X10440929Y-19136214D02*
X10440929Y-19393357D01*
X10455214Y-19421929D01*
X10483786Y-19436214D01*
X10512357Y-19436214D01*
X10840929Y-19236214D02*
X10840929Y-19536214D01*
X10840929Y-19250500D02*
X10869500Y-19236214D01*
X10926643Y-19236214D01*
X10955214Y-19250500D01*
X10969500Y-19264786D01*
X10983786Y-19293357D01*
X10983786Y-19379072D01*
X10969500Y-19407643D01*
X10955214Y-19421929D01*
X10926643Y-19436214D01*
X10869500Y-19436214D01*
X10840929Y-19421929D01*
X11155214Y-19436214D02*
X11126643Y-19421929D01*
X11112357Y-19393357D01*
X11112357Y-19136214D01*
X11398071Y-19436214D02*
X11398071Y-19279072D01*
X11383786Y-19250500D01*
X11355214Y-19236214D01*
X11298071Y-19236214D01*
X11269500Y-19250500D01*
X11398071Y-19421929D02*
X11369500Y-19436214D01*
X11298071Y-19436214D01*
X11269500Y-19421929D01*
X11255214Y-19393357D01*
X11255214Y-19364786D01*
X11269500Y-19336214D01*
X11298071Y-19321929D01*
X11369500Y-19321929D01*
X11398071Y-19307643D01*
X11498071Y-19236214D02*
X11612357Y-19236214D01*
X11540929Y-19136214D02*
X11540929Y-19393357D01*
X11555214Y-19421929D01*
X11583786Y-19436214D01*
X11612357Y-19436214D01*
X11826643Y-19421929D02*
X11798071Y-19436214D01*
X11740929Y-19436214D01*
X11712357Y-19421929D01*
X11698071Y-19393357D01*
X11698071Y-19279072D01*
X11712357Y-19250500D01*
X11740929Y-19236214D01*
X11798071Y-19236214D01*
X11826643Y-19250500D01*
X11840929Y-19279072D01*
X11840929Y-19307643D01*
X11698071Y-19336214D01*
X12098071Y-19436214D02*
X12098071Y-19136214D01*
X12098071Y-19421929D02*
X12069500Y-19436214D01*
X12012357Y-19436214D01*
X11983786Y-19421929D01*
X11969500Y-19407643D01*
X11955214Y-19379072D01*
X11955214Y-19293357D01*
X11969500Y-19264786D01*
X11983786Y-19250500D01*
X12012357Y-19236214D01*
X12069500Y-19236214D01*
X12098071Y-19250500D01*
X12212357Y-19550500D02*
X12226643Y-19536214D01*
X12255214Y-19493357D01*
X12269500Y-19464786D01*
X12283786Y-19421929D01*
X12298071Y-19350500D01*
X12298071Y-19293357D01*
X12283786Y-19221929D01*
X12269500Y-19179072D01*
X12255214Y-19150500D01*
X12226643Y-19107643D01*
X12212357Y-19093357D01*
X2769500Y-19696500D02*
G75*
G03X2769500Y-19696500I-49530J0D01*
G01*
X3098071Y-19532214D02*
X3126643Y-19532214D01*
X3155214Y-19546500D01*
X3169500Y-19560786D01*
X3183786Y-19589357D01*
X3198071Y-19646500D01*
X3198071Y-19717929D01*
X3183786Y-19775072D01*
X3169500Y-19803643D01*
X3155214Y-19817929D01*
X3126643Y-19832214D01*
X3098071Y-19832214D01*
X3069500Y-19817929D01*
X3055214Y-19803643D01*
X3040928Y-19775072D01*
X3026643Y-19717929D01*
X3026643Y-19646500D01*
X3040928Y-19589357D01*
X3055214Y-19560786D01*
X3069500Y-19546500D01*
X3098071Y-19532214D01*
X3326643Y-19803643D02*
X3340928Y-19817929D01*
X3326643Y-19832214D01*
X3312357Y-19817929D01*
X3326643Y-19803643D01*
X3326643Y-19832214D01*
X3483786Y-19832214D02*
X3540928Y-19832214D01*
X3569500Y-19817929D01*
X3583786Y-19803643D01*
X3612357Y-19760786D01*
X3626643Y-19703643D01*
X3626643Y-19589357D01*
X3612357Y-19560786D01*
X3598071Y-19546500D01*
X3569500Y-19532214D01*
X3512357Y-19532214D01*
X3483786Y-19546500D01*
X3469500Y-19560786D01*
X3455214Y-19589357D01*
X3455214Y-19660786D01*
X3469500Y-19689357D01*
X3483786Y-19703643D01*
X3512357Y-19717929D01*
X3569500Y-19717929D01*
X3598071Y-19703643D01*
X3612357Y-19689357D01*
X3626643Y-19660786D01*
X3769500Y-19832214D02*
X3826643Y-19832214D01*
X3855214Y-19817929D01*
X3869500Y-19803643D01*
X3898071Y-19760786D01*
X3912357Y-19703643D01*
X3912357Y-19589357D01*
X3898071Y-19560786D01*
X3883786Y-19546500D01*
X3855214Y-19532214D01*
X3798071Y-19532214D01*
X3769500Y-19546500D01*
X3755214Y-19560786D01*
X3740928Y-19589357D01*
X3740928Y-19660786D01*
X3755214Y-19689357D01*
X3769500Y-19703643D01*
X3798071Y-19717929D01*
X3855214Y-19717929D01*
X3883786Y-19703643D01*
X3898071Y-19689357D01*
X3912357Y-19660786D01*
X4040928Y-19832214D02*
X4040928Y-19632214D01*
X4040928Y-19660786D02*
X4055214Y-19646500D01*
X4083786Y-19632214D01*
X4126643Y-19632214D01*
X4155214Y-19646500D01*
X4169500Y-19675072D01*
X4169500Y-19832214D01*
X4169500Y-19675072D02*
X4183786Y-19646500D01*
X4212357Y-19632214D01*
X4255214Y-19632214D01*
X4283786Y-19646500D01*
X4298071Y-19675072D01*
X4298071Y-19832214D01*
X4440929Y-19832214D02*
X4440929Y-19632214D01*
X4440929Y-19660786D02*
X4455214Y-19646500D01*
X4483786Y-19632214D01*
X4526643Y-19632214D01*
X4555214Y-19646500D01*
X4569500Y-19675072D01*
X4569500Y-19832214D01*
X4569500Y-19675072D02*
X4583786Y-19646500D01*
X4612357Y-19632214D01*
X4655214Y-19632214D01*
X4683786Y-19646500D01*
X4698071Y-19675072D01*
X4698071Y-19832214D01*
X5283786Y-19517929D02*
X5026643Y-19903643D01*
X5669500Y-19532214D02*
X5698071Y-19532214D01*
X5726643Y-19546500D01*
X5740928Y-19560786D01*
X5755214Y-19589357D01*
X5769500Y-19646500D01*
X5769500Y-19717929D01*
X5755214Y-19775072D01*
X5740928Y-19803643D01*
X5726643Y-19817929D01*
X5698071Y-19832214D01*
X5669500Y-19832214D01*
X5640928Y-19817929D01*
X5626643Y-19803643D01*
X5612357Y-19775072D01*
X5598071Y-19717929D01*
X5598071Y-19646500D01*
X5612357Y-19589357D01*
X5626643Y-19560786D01*
X5640928Y-19546500D01*
X5669500Y-19532214D01*
X5898071Y-19803643D02*
X5912357Y-19817929D01*
X5898071Y-19832214D01*
X5883786Y-19817929D01*
X5898071Y-19803643D01*
X5898071Y-19832214D01*
X6098071Y-19532214D02*
X6126643Y-19532214D01*
X6155214Y-19546500D01*
X6169500Y-19560786D01*
X6183785Y-19589357D01*
X6198071Y-19646500D01*
X6198071Y-19717929D01*
X6183785Y-19775072D01*
X6169500Y-19803643D01*
X6155214Y-19817929D01*
X6126643Y-19832214D01*
X6098071Y-19832214D01*
X6069500Y-19817929D01*
X6055214Y-19803643D01*
X6040928Y-19775072D01*
X6026643Y-19717929D01*
X6026643Y-19646500D01*
X6040928Y-19589357D01*
X6055214Y-19560786D01*
X6069500Y-19546500D01*
X6098071Y-19532214D01*
X6298071Y-19532214D02*
X6483785Y-19532214D01*
X6383785Y-19646500D01*
X6426643Y-19646500D01*
X6455214Y-19660786D01*
X6469500Y-19675072D01*
X6483785Y-19703643D01*
X6483785Y-19775072D01*
X6469500Y-19803643D01*
X6455214Y-19817929D01*
X6426643Y-19832214D01*
X6340928Y-19832214D01*
X6312357Y-19817929D01*
X6298071Y-19803643D01*
X6626643Y-19832214D02*
X6683785Y-19832214D01*
X6712357Y-19817929D01*
X6726643Y-19803643D01*
X6755214Y-19760786D01*
X6769500Y-19703643D01*
X6769500Y-19589357D01*
X6755214Y-19560786D01*
X6740928Y-19546500D01*
X6712357Y-19532214D01*
X6655214Y-19532214D01*
X6626643Y-19546500D01*
X6612357Y-19560786D01*
X6598071Y-19589357D01*
X6598071Y-19660786D01*
X6612357Y-19689357D01*
X6626643Y-19703643D01*
X6655214Y-19717929D01*
X6712357Y-19717929D01*
X6740928Y-19703643D01*
X6755214Y-19689357D01*
X6769500Y-19660786D01*
X6883786Y-19532214D02*
X6883786Y-19589357D01*
X6998071Y-19532214D02*
X6998071Y-19589357D01*
X7440928Y-19946500D02*
X7426643Y-19932214D01*
X7398071Y-19889357D01*
X7383785Y-19860786D01*
X7369500Y-19817929D01*
X7355214Y-19746500D01*
X7355214Y-19689357D01*
X7369500Y-19617929D01*
X7383785Y-19575072D01*
X7398071Y-19546500D01*
X7426643Y-19503643D01*
X7440928Y-19489357D01*
X7683785Y-19532214D02*
X7626643Y-19532214D01*
X7598071Y-19546500D01*
X7583785Y-19560786D01*
X7555214Y-19603643D01*
X7540928Y-19660786D01*
X7540928Y-19775072D01*
X7555214Y-19803643D01*
X7569500Y-19817929D01*
X7598071Y-19832214D01*
X7655214Y-19832214D01*
X7683785Y-19817929D01*
X7698071Y-19803643D01*
X7712357Y-19775072D01*
X7712357Y-19703643D01*
X7698071Y-19675072D01*
X7683785Y-19660786D01*
X7655214Y-19646500D01*
X7598071Y-19646500D01*
X7569500Y-19660786D01*
X7555214Y-19675072D01*
X7540928Y-19703643D01*
X8069500Y-19832214D02*
X8069500Y-19532214D01*
X8198071Y-19832214D02*
X8198071Y-19675072D01*
X8183785Y-19646500D01*
X8155214Y-19632214D01*
X8112357Y-19632214D01*
X8083785Y-19646500D01*
X8069500Y-19660786D01*
X8383785Y-19832214D02*
X8355214Y-19817929D01*
X8340928Y-19803643D01*
X8326643Y-19775072D01*
X8326643Y-19689357D01*
X8340928Y-19660786D01*
X8355214Y-19646500D01*
X8383785Y-19632214D01*
X8426643Y-19632214D01*
X8455214Y-19646500D01*
X8469500Y-19660786D01*
X8483786Y-19689357D01*
X8483786Y-19775072D01*
X8469500Y-19803643D01*
X8455214Y-19817929D01*
X8426643Y-19832214D01*
X8383785Y-19832214D01*
X8655214Y-19832214D02*
X8626643Y-19817929D01*
X8612357Y-19789357D01*
X8612357Y-19532214D01*
X8883786Y-19817929D02*
X8855214Y-19832214D01*
X8798071Y-19832214D01*
X8769500Y-19817929D01*
X8755214Y-19789357D01*
X8755214Y-19675072D01*
X8769500Y-19646500D01*
X8798071Y-19632214D01*
X8855214Y-19632214D01*
X8883786Y-19646500D01*
X8898071Y-19675072D01*
X8898071Y-19703643D01*
X8755214Y-19732214D01*
X9012357Y-19817929D02*
X9040929Y-19832214D01*
X9098071Y-19832214D01*
X9126643Y-19817929D01*
X9140929Y-19789357D01*
X9140929Y-19775072D01*
X9126643Y-19746500D01*
X9098071Y-19732214D01*
X9055214Y-19732214D01*
X9026643Y-19717929D01*
X9012357Y-19689357D01*
X9012357Y-19675072D01*
X9026643Y-19646500D01*
X9055214Y-19632214D01*
X9098071Y-19632214D01*
X9126643Y-19646500D01*
X9240928Y-19946500D02*
X9255214Y-19932214D01*
X9283786Y-19889357D01*
X9298071Y-19860786D01*
X9312357Y-19817929D01*
X9326643Y-19746500D01*
X9326643Y-19689357D01*
X9312357Y-19617929D01*
X9298071Y-19575072D01*
X9283786Y-19546500D01*
X9255214Y-19503643D01*
X9240928Y-19489357D01*
X9783786Y-19946500D02*
X9769500Y-19932214D01*
X9740928Y-19889357D01*
X9726643Y-19860786D01*
X9712357Y-19817929D01*
X9698071Y-19746500D01*
X9698071Y-19689357D01*
X9712357Y-19617929D01*
X9726643Y-19575072D01*
X9740928Y-19546500D01*
X9769500Y-19503643D01*
X9783786Y-19489357D01*
X9898071Y-19632214D02*
X9898071Y-19832214D01*
X9898071Y-19660786D02*
X9912357Y-19646500D01*
X9940928Y-19632214D01*
X9983786Y-19632214D01*
X10012357Y-19646500D01*
X10026643Y-19675072D01*
X10026643Y-19832214D01*
X10212357Y-19832214D02*
X10183786Y-19817929D01*
X10169500Y-19803643D01*
X10155214Y-19775072D01*
X10155214Y-19689357D01*
X10169500Y-19660786D01*
X10183786Y-19646500D01*
X10212357Y-19632214D01*
X10255214Y-19632214D01*
X10283786Y-19646500D01*
X10298071Y-19660786D01*
X10312357Y-19689357D01*
X10312357Y-19775072D01*
X10298071Y-19803643D01*
X10283786Y-19817929D01*
X10255214Y-19832214D01*
X10212357Y-19832214D01*
X10398071Y-19632214D02*
X10512357Y-19632214D01*
X10440929Y-19532214D02*
X10440929Y-19789357D01*
X10455214Y-19817929D01*
X10483786Y-19832214D01*
X10512357Y-19832214D01*
X10840929Y-19632214D02*
X10840929Y-19932214D01*
X10840929Y-19646500D02*
X10869500Y-19632214D01*
X10926643Y-19632214D01*
X10955214Y-19646500D01*
X10969500Y-19660786D01*
X10983786Y-19689357D01*
X10983786Y-19775072D01*
X10969500Y-19803643D01*
X10955214Y-19817929D01*
X10926643Y-19832214D01*
X10869500Y-19832214D01*
X10840929Y-19817929D01*
X11155214Y-19832214D02*
X11126643Y-19817929D01*
X11112357Y-19789357D01*
X11112357Y-19532214D01*
X11398071Y-19832214D02*
X11398071Y-19675072D01*
X11383786Y-19646500D01*
X11355214Y-19632214D01*
X11298071Y-19632214D01*
X11269500Y-19646500D01*
X11398071Y-19817929D02*
X11369500Y-19832214D01*
X11298071Y-19832214D01*
X11269500Y-19817929D01*
X11255214Y-19789357D01*
X11255214Y-19760786D01*
X11269500Y-19732214D01*
X11298071Y-19717929D01*
X11369500Y-19717929D01*
X11398071Y-19703643D01*
X11498071Y-19632214D02*
X11612357Y-19632214D01*
X11540929Y-19532214D02*
X11540929Y-19789357D01*
X11555214Y-19817929D01*
X11583786Y-19832214D01*
X11612357Y-19832214D01*
X11826643Y-19817929D02*
X11798071Y-19832214D01*
X11740929Y-19832214D01*
X11712357Y-19817929D01*
X11698071Y-19789357D01*
X11698071Y-19675072D01*
X11712357Y-19646500D01*
X11740929Y-19632214D01*
X11798071Y-19632214D01*
X11826643Y-19646500D01*
X11840929Y-19675072D01*
X11840929Y-19703643D01*
X11698071Y-19732214D01*
X12098071Y-19832214D02*
X12098071Y-19532214D01*
X12098071Y-19817929D02*
X12069500Y-19832214D01*
X12012357Y-19832214D01*
X11983786Y-19817929D01*
X11969500Y-19803643D01*
X11955214Y-19775072D01*
X11955214Y-19689357D01*
X11969500Y-19660786D01*
X11983786Y-19646500D01*
X12012357Y-19632214D01*
X12069500Y-19632214D01*
X12098071Y-19646500D01*
X12212357Y-19946500D02*
X12226643Y-19932214D01*
X12255214Y-19889357D01*
X12269500Y-19860786D01*
X12283786Y-19817929D01*
X12298071Y-19746500D01*
X12298071Y-19689357D01*
X12283786Y-19617929D01*
X12269500Y-19575072D01*
X12255214Y-19546500D01*
X12226643Y-19503643D01*
X12212357Y-19489357D01*
X2650755Y-19973755D02*
X2650755Y-20211245D01*
X2532010Y-20092500D02*
X2769500Y-20092500D01*
X3026643Y-19956786D02*
X3040928Y-19942500D01*
X3069500Y-19928214D01*
X3140928Y-19928214D01*
X3169500Y-19942500D01*
X3183786Y-19956786D01*
X3198071Y-19985357D01*
X3198071Y-20013929D01*
X3183786Y-20056786D01*
X3012357Y-20228214D01*
X3198071Y-20228214D01*
X3326643Y-20199643D02*
X3340928Y-20213929D01*
X3326643Y-20228214D01*
X3312357Y-20213929D01*
X3326643Y-20199643D01*
X3326643Y-20228214D01*
X3440928Y-19928214D02*
X3626643Y-19928214D01*
X3526643Y-20042500D01*
X3569500Y-20042500D01*
X3598071Y-20056786D01*
X3612357Y-20071072D01*
X3626643Y-20099643D01*
X3626643Y-20171072D01*
X3612357Y-20199643D01*
X3598071Y-20213929D01*
X3569500Y-20228214D01*
X3483786Y-20228214D01*
X3455214Y-20213929D01*
X3440928Y-20199643D01*
X3726643Y-19928214D02*
X3926643Y-19928214D01*
X3798071Y-20228214D01*
X4040928Y-20228214D02*
X4040928Y-20028214D01*
X4040928Y-20056786D02*
X4055214Y-20042500D01*
X4083786Y-20028214D01*
X4126643Y-20028214D01*
X4155214Y-20042500D01*
X4169500Y-20071072D01*
X4169500Y-20228214D01*
X4169500Y-20071072D02*
X4183786Y-20042500D01*
X4212357Y-20028214D01*
X4255214Y-20028214D01*
X4283786Y-20042500D01*
X4298071Y-20071072D01*
X4298071Y-20228214D01*
X4440929Y-20228214D02*
X4440929Y-20028214D01*
X4440929Y-20056786D02*
X4455214Y-20042500D01*
X4483786Y-20028214D01*
X4526643Y-20028214D01*
X4555214Y-20042500D01*
X4569500Y-20071072D01*
X4569500Y-20228214D01*
X4569500Y-20071072D02*
X4583786Y-20042500D01*
X4612357Y-20028214D01*
X4655214Y-20028214D01*
X4683786Y-20042500D01*
X4698071Y-20071072D01*
X4698071Y-20228214D01*
X5283786Y-19913929D02*
X5026643Y-20299643D01*
X5669500Y-19928214D02*
X5698071Y-19928214D01*
X5726643Y-19942500D01*
X5740928Y-19956786D01*
X5755214Y-19985357D01*
X5769500Y-20042500D01*
X5769500Y-20113929D01*
X5755214Y-20171072D01*
X5740928Y-20199643D01*
X5726643Y-20213929D01*
X5698071Y-20228214D01*
X5669500Y-20228214D01*
X5640928Y-20213929D01*
X5626643Y-20199643D01*
X5612357Y-20171072D01*
X5598071Y-20113929D01*
X5598071Y-20042500D01*
X5612357Y-19985357D01*
X5626643Y-19956786D01*
X5640928Y-19942500D01*
X5669500Y-19928214D01*
X5898071Y-20199643D02*
X5912357Y-20213929D01*
X5898071Y-20228214D01*
X5883786Y-20213929D01*
X5898071Y-20199643D01*
X5898071Y-20228214D01*
X6098071Y-19928214D02*
X6126643Y-19928214D01*
X6155214Y-19942500D01*
X6169500Y-19956786D01*
X6183785Y-19985357D01*
X6198071Y-20042500D01*
X6198071Y-20113929D01*
X6183785Y-20171072D01*
X6169500Y-20199643D01*
X6155214Y-20213929D01*
X6126643Y-20228214D01*
X6098071Y-20228214D01*
X6069500Y-20213929D01*
X6055214Y-20199643D01*
X6040928Y-20171072D01*
X6026643Y-20113929D01*
X6026643Y-20042500D01*
X6040928Y-19985357D01*
X6055214Y-19956786D01*
X6069500Y-19942500D01*
X6098071Y-19928214D01*
X6340928Y-20228214D02*
X6398071Y-20228214D01*
X6426643Y-20213929D01*
X6440928Y-20199643D01*
X6469500Y-20156786D01*
X6483785Y-20099643D01*
X6483785Y-19985357D01*
X6469500Y-19956786D01*
X6455214Y-19942500D01*
X6426643Y-19928214D01*
X6369500Y-19928214D01*
X6340928Y-19942500D01*
X6326643Y-19956786D01*
X6312357Y-19985357D01*
X6312357Y-20056786D01*
X6326643Y-20085357D01*
X6340928Y-20099643D01*
X6369500Y-20113929D01*
X6426643Y-20113929D01*
X6455214Y-20099643D01*
X6469500Y-20085357D01*
X6483785Y-20056786D01*
X6583785Y-19928214D02*
X6769500Y-19928214D01*
X6669500Y-20042500D01*
X6712357Y-20042500D01*
X6740928Y-20056786D01*
X6755214Y-20071072D01*
X6769500Y-20099643D01*
X6769500Y-20171072D01*
X6755214Y-20199643D01*
X6740928Y-20213929D01*
X6712357Y-20228214D01*
X6626643Y-20228214D01*
X6598071Y-20213929D01*
X6583785Y-20199643D01*
X6883786Y-19928214D02*
X6883786Y-19985357D01*
X6998071Y-19928214D02*
X6998071Y-19985357D01*
X7440928Y-20342500D02*
X7426643Y-20328214D01*
X7398071Y-20285357D01*
X7383785Y-20256786D01*
X7369500Y-20213929D01*
X7355214Y-20142500D01*
X7355214Y-20085357D01*
X7369500Y-20013929D01*
X7383785Y-19971072D01*
X7398071Y-19942500D01*
X7426643Y-19899643D01*
X7440928Y-19885357D01*
X7598071Y-20056786D02*
X7569500Y-20042500D01*
X7555214Y-20028214D01*
X7540928Y-19999643D01*
X7540928Y-19985357D01*
X7555214Y-19956786D01*
X7569500Y-19942500D01*
X7598071Y-19928214D01*
X7655214Y-19928214D01*
X7683785Y-19942500D01*
X7698071Y-19956786D01*
X7712357Y-19985357D01*
X7712357Y-19999643D01*
X7698071Y-20028214D01*
X7683785Y-20042500D01*
X7655214Y-20056786D01*
X7598071Y-20056786D01*
X7569500Y-20071072D01*
X7555214Y-20085357D01*
X7540928Y-20113929D01*
X7540928Y-20171072D01*
X7555214Y-20199643D01*
X7569500Y-20213929D01*
X7598071Y-20228214D01*
X7655214Y-20228214D01*
X7683785Y-20213929D01*
X7698071Y-20199643D01*
X7712357Y-20171072D01*
X7712357Y-20113929D01*
X7698071Y-20085357D01*
X7683785Y-20071072D01*
X7655214Y-20056786D01*
X8069500Y-20228214D02*
X8069500Y-19928214D01*
X8198071Y-20228214D02*
X8198071Y-20071072D01*
X8183785Y-20042500D01*
X8155214Y-20028214D01*
X8112357Y-20028214D01*
X8083785Y-20042500D01*
X8069500Y-20056786D01*
X8383785Y-20228214D02*
X8355214Y-20213929D01*
X8340928Y-20199643D01*
X8326643Y-20171072D01*
X8326643Y-20085357D01*
X8340928Y-20056786D01*
X8355214Y-20042500D01*
X8383785Y-20028214D01*
X8426643Y-20028214D01*
X8455214Y-20042500D01*
X8469500Y-20056786D01*
X8483786Y-20085357D01*
X8483786Y-20171072D01*
X8469500Y-20199643D01*
X8455214Y-20213929D01*
X8426643Y-20228214D01*
X8383785Y-20228214D01*
X8655214Y-20228214D02*
X8626643Y-20213929D01*
X8612357Y-20185357D01*
X8612357Y-19928214D01*
X8883786Y-20213929D02*
X8855214Y-20228214D01*
X8798071Y-20228214D01*
X8769500Y-20213929D01*
X8755214Y-20185357D01*
X8755214Y-20071072D01*
X8769500Y-20042500D01*
X8798071Y-20028214D01*
X8855214Y-20028214D01*
X8883786Y-20042500D01*
X8898071Y-20071072D01*
X8898071Y-20099643D01*
X8755214Y-20128214D01*
X9012357Y-20213929D02*
X9040929Y-20228214D01*
X9098071Y-20228214D01*
X9126643Y-20213929D01*
X9140929Y-20185357D01*
X9140929Y-20171072D01*
X9126643Y-20142500D01*
X9098071Y-20128214D01*
X9055214Y-20128214D01*
X9026643Y-20113929D01*
X9012357Y-20085357D01*
X9012357Y-20071072D01*
X9026643Y-20042500D01*
X9055214Y-20028214D01*
X9098071Y-20028214D01*
X9126643Y-20042500D01*
X9240928Y-20342500D02*
X9255214Y-20328214D01*
X9283786Y-20285357D01*
X9298071Y-20256786D01*
X9312357Y-20213929D01*
X9326643Y-20142500D01*
X9326643Y-20085357D01*
X9312357Y-20013929D01*
X9298071Y-19971072D01*
X9283786Y-19942500D01*
X9255214Y-19899643D01*
X9240928Y-19885357D01*
X9783786Y-20342500D02*
X9769500Y-20328214D01*
X9740928Y-20285357D01*
X9726643Y-20256786D01*
X9712357Y-20213929D01*
X9698071Y-20142500D01*
X9698071Y-20085357D01*
X9712357Y-20013929D01*
X9726643Y-19971072D01*
X9740928Y-19942500D01*
X9769500Y-19899643D01*
X9783786Y-19885357D01*
X9898071Y-20028214D02*
X9898071Y-20228214D01*
X9898071Y-20056786D02*
X9912357Y-20042500D01*
X9940928Y-20028214D01*
X9983786Y-20028214D01*
X10012357Y-20042500D01*
X10026643Y-20071072D01*
X10026643Y-20228214D01*
X10212357Y-20228214D02*
X10183786Y-20213929D01*
X10169500Y-20199643D01*
X10155214Y-20171072D01*
X10155214Y-20085357D01*
X10169500Y-20056786D01*
X10183786Y-20042500D01*
X10212357Y-20028214D01*
X10255214Y-20028214D01*
X10283786Y-20042500D01*
X10298071Y-20056786D01*
X10312357Y-20085357D01*
X10312357Y-20171072D01*
X10298071Y-20199643D01*
X10283786Y-20213929D01*
X10255214Y-20228214D01*
X10212357Y-20228214D01*
X10398071Y-20028214D02*
X10512357Y-20028214D01*
X10440929Y-19928214D02*
X10440929Y-20185357D01*
X10455214Y-20213929D01*
X10483786Y-20228214D01*
X10512357Y-20228214D01*
X10840929Y-20028214D02*
X10840929Y-20328214D01*
X10840929Y-20042500D02*
X10869500Y-20028214D01*
X10926643Y-20028214D01*
X10955214Y-20042500D01*
X10969500Y-20056786D01*
X10983786Y-20085357D01*
X10983786Y-20171072D01*
X10969500Y-20199643D01*
X10955214Y-20213929D01*
X10926643Y-20228214D01*
X10869500Y-20228214D01*
X10840929Y-20213929D01*
X11155214Y-20228214D02*
X11126643Y-20213929D01*
X11112357Y-20185357D01*
X11112357Y-19928214D01*
X11398071Y-20228214D02*
X11398071Y-20071072D01*
X11383786Y-20042500D01*
X11355214Y-20028214D01*
X11298071Y-20028214D01*
X11269500Y-20042500D01*
X11398071Y-20213929D02*
X11369500Y-20228214D01*
X11298071Y-20228214D01*
X11269500Y-20213929D01*
X11255214Y-20185357D01*
X11255214Y-20156786D01*
X11269500Y-20128214D01*
X11298071Y-20113929D01*
X11369500Y-20113929D01*
X11398071Y-20099643D01*
X11498071Y-20028214D02*
X11612357Y-20028214D01*
X11540929Y-19928214D02*
X11540929Y-20185357D01*
X11555214Y-20213929D01*
X11583786Y-20228214D01*
X11612357Y-20228214D01*
X11826643Y-20213929D02*
X11798071Y-20228214D01*
X11740929Y-20228214D01*
X11712357Y-20213929D01*
X11698071Y-20185357D01*
X11698071Y-20071072D01*
X11712357Y-20042500D01*
X11740929Y-20028214D01*
X11798071Y-20028214D01*
X11826643Y-20042500D01*
X11840929Y-20071072D01*
X11840929Y-20099643D01*
X11698071Y-20128214D01*
X12098071Y-20228214D02*
X12098071Y-19928214D01*
X12098071Y-20213929D02*
X12069500Y-20228214D01*
X12012357Y-20228214D01*
X11983786Y-20213929D01*
X11969500Y-20199643D01*
X11955214Y-20171072D01*
X11955214Y-20085357D01*
X11969500Y-20056786D01*
X11983786Y-20042500D01*
X12012357Y-20028214D01*
X12069500Y-20028214D01*
X12098071Y-20042500D01*
X12212357Y-20342500D02*
X12226643Y-20328214D01*
X12255214Y-20285357D01*
X12269500Y-20256786D01*
X12283786Y-20213929D01*
X12298071Y-20142500D01*
X12298071Y-20085357D01*
X12283786Y-20013929D01*
X12269500Y-19971072D01*
X12255214Y-19942500D01*
X12226643Y-19899643D01*
X12212357Y-19885357D01*
M02*
