G04 #@! TF.FileFunction,Paste,Top*
%FSLAX46Y46*%
G04 Gerber Fmt 4.6, Leading zero omitted, Abs format (unit mm)*
G04 Created by KiCad (PCBNEW 4.0.6+dfsg1-1) date Tue Dec 26 18:50:37 2017*
%MOMM*%
%LPD*%
G01*
G04 APERTURE LIST*
%ADD10C,0.100000*%
%ADD11R,1.000000X1.600000*%
%ADD12R,1.600000X1.000000*%
%ADD13R,1.000000X1.250000*%
%ADD14R,1.250000X1.000000*%
%ADD15R,0.450000X1.300000*%
%ADD16R,0.900000X1.700000*%
%ADD17R,0.650000X1.060000*%
%ADD18R,0.450000X1.450000*%
%ADD19R,0.250000X1.000000*%
%ADD20R,1.000000X0.250000*%
%ADD21R,0.250000X0.700000*%
%ADD22R,0.714000X0.498000*%
%ADD23R,0.700000X0.250000*%
%ADD24R,0.366000X0.426000*%
%ADD25R,1.200000X1.800000*%
%ADD26R,0.900000X0.800000*%
%ADD27R,0.700000X1.300000*%
%ADD28R,1.300000X0.700000*%
%ADD29C,0.300000*%
%ADD30R,1.200000X1.000000*%
%ADD31R,1.000000X1.100000*%
%ADD32R,1.130000X0.710000*%
%ADD33R,2.150000X3.550000*%
%ADD34R,0.300000X0.700000*%
%ADD35R,0.300000X1.250000*%
%ADD36R,0.300000X1.300000*%
%ADD37R,2.000000X1.800000*%
G04 APERTURE END LIST*
D10*
D11*
X86090000Y-164950000D03*
X84820000Y-164950000D03*
X83550000Y-164950000D03*
X82280000Y-164950000D03*
X81010000Y-164950000D03*
D12*
X80000000Y-168950000D03*
D11*
X81010000Y-178450000D03*
X82280000Y-178450000D03*
X83550000Y-178450000D03*
X84820000Y-178450000D03*
X86090000Y-178450000D03*
D13*
X53030000Y-154430000D03*
X55030000Y-154430000D03*
D14*
X54250000Y-158075000D03*
X54250000Y-160075000D03*
X36600000Y-174575000D03*
X36600000Y-176575000D03*
X43400000Y-178475000D03*
X43400000Y-180475000D03*
D15*
X52800000Y-177675000D03*
X53450000Y-177675000D03*
X54100000Y-177675000D03*
X54750000Y-177675000D03*
X55400000Y-177675000D03*
D16*
X40500000Y-179275000D03*
X37600000Y-179275000D03*
D17*
X50080000Y-154435000D03*
X49130000Y-154435000D03*
X48180000Y-154435000D03*
X48180000Y-156635000D03*
X50080000Y-156635000D03*
D18*
X46885000Y-171185000D03*
X47535000Y-171185000D03*
X48185000Y-171185000D03*
X48835000Y-171185000D03*
X48835000Y-165285000D03*
X48185000Y-165285000D03*
X47535000Y-165285000D03*
X46885000Y-165285000D03*
D19*
X69390000Y-159995000D03*
X68890000Y-159995000D03*
X68390000Y-159995000D03*
X67890000Y-159995000D03*
X67390000Y-159995000D03*
X66890000Y-159995000D03*
X66390000Y-159995000D03*
X65890000Y-159995000D03*
X65390000Y-159995000D03*
X64890000Y-159995000D03*
X64390000Y-159995000D03*
X63890000Y-159995000D03*
X63390000Y-159995000D03*
X62890000Y-159995000D03*
X62390000Y-159995000D03*
X61890000Y-159995000D03*
D20*
X59940000Y-161945000D03*
X59940000Y-162445000D03*
X59940000Y-162945000D03*
X59940000Y-163445000D03*
X59940000Y-163945000D03*
X59940000Y-164445000D03*
X59940000Y-164945000D03*
X59940000Y-165445000D03*
X59940000Y-165945000D03*
X59940000Y-166445000D03*
X59940000Y-166945000D03*
X59940000Y-167445000D03*
X59940000Y-167945000D03*
X59940000Y-168445000D03*
X59940000Y-168945000D03*
X59940000Y-169445000D03*
D19*
X61890000Y-171395000D03*
X62390000Y-171395000D03*
X62890000Y-171395000D03*
X63390000Y-171395000D03*
X63890000Y-171395000D03*
X64390000Y-171395000D03*
X64890000Y-171395000D03*
X65390000Y-171395000D03*
X65890000Y-171395000D03*
X66390000Y-171395000D03*
X66890000Y-171395000D03*
X67390000Y-171395000D03*
X67890000Y-171395000D03*
X68390000Y-171395000D03*
X68890000Y-171395000D03*
X69390000Y-171395000D03*
D20*
X71340000Y-169445000D03*
X71340000Y-168945000D03*
X71340000Y-168445000D03*
X71340000Y-167945000D03*
X71340000Y-167445000D03*
X71340000Y-166945000D03*
X71340000Y-166445000D03*
X71340000Y-165945000D03*
X71340000Y-165445000D03*
X71340000Y-164945000D03*
X71340000Y-164445000D03*
X71340000Y-163945000D03*
X71340000Y-163445000D03*
X71340000Y-162945000D03*
X71340000Y-162445000D03*
X71340000Y-161945000D03*
D21*
X37555000Y-165565000D03*
X37105000Y-165565000D03*
X36655000Y-165565000D03*
X36205000Y-165565000D03*
X35755000Y-165565000D03*
X35305000Y-165565000D03*
X35305000Y-168365000D03*
X35755000Y-168365000D03*
X36205000Y-168365000D03*
X36655000Y-168365000D03*
X37105000Y-168365000D03*
X37555000Y-168365000D03*
D22*
X35835000Y-167380000D03*
X37025000Y-167380000D03*
X35835000Y-166550000D03*
X37025000Y-166550000D03*
D23*
X40500000Y-175550000D03*
X40500000Y-176050000D03*
X40500000Y-176550000D03*
X42350000Y-176550000D03*
X42350000Y-176050000D03*
X42350000Y-175550000D03*
D24*
X41425000Y-176405000D03*
X41425000Y-175695000D03*
D25*
X77025000Y-154325000D03*
X77025000Y-158325000D03*
X79425000Y-158325000D03*
X79425000Y-154325000D03*
D13*
X58575000Y-154425000D03*
X56575000Y-154425000D03*
D14*
X57000000Y-171225000D03*
X57000000Y-169225000D03*
D13*
X71975000Y-173150000D03*
X69975000Y-173150000D03*
X73400000Y-160925000D03*
X75400000Y-160925000D03*
X79425000Y-160925000D03*
X77425000Y-160925000D03*
D14*
X74850000Y-154325000D03*
X74850000Y-152325000D03*
X50075000Y-150025000D03*
X50075000Y-152025000D03*
X53100000Y-150025000D03*
X53100000Y-152025000D03*
D13*
X39325000Y-165575000D03*
X41325000Y-165575000D03*
D14*
X38100000Y-163200000D03*
X38100000Y-161200000D03*
X56675000Y-150025000D03*
X56675000Y-152025000D03*
X43375000Y-166350000D03*
X43375000Y-168350000D03*
D13*
X44140000Y-143700000D03*
X46140000Y-143700000D03*
X41775000Y-143700000D03*
X39775000Y-143700000D03*
D14*
X44275000Y-141150000D03*
X44275000Y-139150000D03*
D13*
X41775000Y-146625000D03*
X39775000Y-146625000D03*
X41775000Y-141150000D03*
X39775000Y-141150000D03*
D14*
X35350000Y-161200000D03*
X35350000Y-163200000D03*
X37725000Y-143400000D03*
X37725000Y-141400000D03*
D26*
X43925000Y-152000000D03*
X43925000Y-149900000D03*
D27*
X36750000Y-149875000D03*
X38650000Y-149875000D03*
D28*
X40650000Y-149875000D03*
X40650000Y-151775000D03*
X39900000Y-172725000D03*
X39900000Y-170825000D03*
D27*
X55650000Y-161875000D03*
X53750000Y-161875000D03*
D28*
X43425000Y-172725000D03*
X43425000Y-170825000D03*
D27*
X53750000Y-163925000D03*
X55650000Y-163925000D03*
D28*
X45925000Y-156350000D03*
X45925000Y-154450000D03*
X47125000Y-151775000D03*
X47125000Y-149875000D03*
X34100000Y-156450000D03*
X34100000Y-158350000D03*
D27*
X70075000Y-174975000D03*
X71975000Y-174975000D03*
X48180000Y-147010000D03*
X50080000Y-147010000D03*
D28*
X47960000Y-141140000D03*
X47960000Y-139240000D03*
X50350000Y-141140000D03*
X50350000Y-139240000D03*
X33350000Y-170825000D03*
X33350000Y-172725000D03*
X36625000Y-170825000D03*
X36625000Y-172725000D03*
X35575000Y-143700000D03*
X35575000Y-145600000D03*
X35575000Y-141150000D03*
X35575000Y-139250000D03*
X46475000Y-178325000D03*
X46475000Y-180225000D03*
D29*
X45920000Y-147430000D03*
X45920000Y-147030000D03*
X45920000Y-146630000D03*
X45920000Y-146230000D03*
X45920000Y-145830000D03*
X45520000Y-147430000D03*
X45120000Y-147430000D03*
X44720000Y-147430000D03*
X45120000Y-147030000D03*
X45520000Y-147030000D03*
X45520000Y-146630000D03*
X45520000Y-146230000D03*
X45520000Y-145830000D03*
X44720000Y-147030000D03*
X44720000Y-146630000D03*
X45120000Y-146630000D03*
X45120000Y-146230000D03*
X44720000Y-146230000D03*
X44720000Y-145830000D03*
X45120000Y-145830000D03*
D30*
X29062500Y-149887500D03*
X29062500Y-151587500D03*
X34662500Y-149887500D03*
X34662500Y-151587500D03*
D31*
X28950000Y-160050000D03*
X28950000Y-154750000D03*
X31900000Y-160050000D03*
X31900000Y-154750000D03*
D32*
X52625000Y-145875000D03*
X52625000Y-144875000D03*
X52625000Y-143875000D03*
X52625000Y-142875000D03*
X56655000Y-145875000D03*
X56655000Y-144875000D03*
X56655000Y-143875000D03*
X56655000Y-142875000D03*
D33*
X54629400Y-144361200D03*
D34*
X85325000Y-148750000D03*
X84725000Y-148750000D03*
X84125000Y-148750000D03*
X83525000Y-148750000D03*
X82925000Y-148750000D03*
X82325000Y-148750000D03*
X81725000Y-148750000D03*
X81125000Y-148750000D03*
X80525000Y-148750000D03*
X79925000Y-148750000D03*
X79325000Y-148750000D03*
X78725000Y-148750000D03*
X78125000Y-148750000D03*
X77525000Y-148750000D03*
X76925000Y-148750000D03*
X76325000Y-148750000D03*
X75725000Y-148750000D03*
X75125000Y-148750000D03*
X74525000Y-148750000D03*
D35*
X85625000Y-144325000D03*
X85025000Y-144325000D03*
X84425000Y-144325000D03*
X83825000Y-144325000D03*
X83225000Y-144325000D03*
X82625000Y-144325000D03*
X82025000Y-144325000D03*
X81425000Y-144325000D03*
X80825000Y-144325000D03*
X80225000Y-144325000D03*
X79625000Y-144325000D03*
X79025000Y-144325000D03*
X78425000Y-144325000D03*
X77825000Y-144325000D03*
X77225000Y-144325000D03*
X76625000Y-144325000D03*
X76025000Y-144325000D03*
X75425000Y-144325000D03*
X74825000Y-144325000D03*
X74225000Y-144325000D03*
D36*
X63120000Y-153290000D03*
D37*
X61320000Y-150540000D03*
D36*
X63620000Y-153290000D03*
X64120000Y-153290000D03*
X64620000Y-153290000D03*
X65120000Y-153290000D03*
X65620000Y-153290000D03*
X66120000Y-153290000D03*
X66620000Y-153290000D03*
X67120000Y-153290000D03*
X67620000Y-153290000D03*
X68120000Y-153290000D03*
X68620000Y-153290000D03*
D37*
X70420000Y-150540000D03*
M02*
