M48
;DRILL file {KiCad 4.0.6+dfsg1-1} date Tue Dec 26 18:46:35 2017
;FORMAT={-:-/ absolute / metric / decimal}
FMAT,2
METRIC,TZ
T1C0.100
T2C0.400
T3C0.550
T4C0.850
T5C1.000
%
G90
G05
M71
T1
X44.28Y-142.33
X45.12Y-146.23
X45.12Y-146.63
X45.12Y-147.03
X45.52Y-147.03
X45.52Y-147.43
X47.27Y-147.43
X48.86Y-146.63
X49.32Y-147.03
X53.1Y-147.15
X58.89Y-148.16
X60.72Y-148.16
X65.19Y-143.92
T2
X32.225Y-157.4
X35.91Y-154.43
X37.04Y-139.25
X37.04Y-145.6
X39.9Y-166.975
X41.66Y-173.6
X42.95Y-144.46
X42.95Y-145.6
X45.1Y-170.825
X45.17Y-165.28
X45.48Y-148.31
X47.525Y-159.675
X47.525Y-166.95
X49.1Y-163.3
X51.6Y-154.43
X51.65Y-175.34
X51.66Y-174.24
X52.8Y-168.5
X52.8Y-173.525
X53.1Y-148.05
X53.85Y-176.25
X54.425Y-167.65
X56.325Y-176.225
X58.25Y-144.875
X58.25Y-147.45
X60.02Y-171.96
X60.75Y-156.325
X61.575Y-163.675
X61.71Y-174.57
X62.525Y-163.675
X62.75Y-161.27
X63.12Y-154.61
X63.13Y-157.13
X63.4Y-163.675
X64.425Y-156.425
X65.Y-172.73
X65.4Y-158.8
X65.64Y-178.625
X65.64Y-179.895
X65.875Y-165.475
X66.27Y-175.47
X66.46Y-142.65
X66.675Y-166.45
X67.94Y-151.08
X68.71Y-174.57
X69.48Y-153.3
X70.05Y-167.45
X70.06Y-168.94
X71.05Y-157.25
X71.55Y-156.425
X72.15Y-155.85
X72.75Y-155.275
X73.16Y-168.94
X73.325Y-154.725
X73.72Y-174.27
X73.97Y-168.46
X77.35Y-163.725
X77.875Y-145.65
X78.02Y-165.86
X78.02Y-167.62
X78.225Y-162.95
X78.475Y-147.25
X79.55Y-146.3
X82.625Y-145.675
X86.29Y-146.29
T5
X31.175Y-141.16
X31.175Y-143.7
X38.125Y-156.4
X40.665Y-156.4
T3
X50.225Y-181.2G85X50.225Y-181.85
G05
X57.975Y-181.2G85X57.975Y-181.85
G05
T4
X50.375Y-177.45G85X50.375Y-178.
G05
X57.825Y-177.45G85X57.825Y-178.
G05
T0
M30
