G04 #@! TF.FileFunction,Copper,L2,Bot,Signal*
%FSLAX46Y46*%
G04 Gerber Fmt 4.6, Leading zero omitted, Abs format (unit mm)*
G04 Created by KiCad (PCBNEW 4.0.6+dfsg1-1) date Tue Dec 26 18:50:37 2017*
%MOMM*%
%LPD*%
G01*
G04 APERTURE LIST*
%ADD10C,0.100000*%
%ADD11O,1.450000X2.000000*%
%ADD12O,1.150000X1.800000*%
%ADD13O,1.510000X3.010000*%
%ADD14O,3.010000X1.510000*%
%ADD15C,0.600000*%
%ADD16C,0.300000*%
%ADD17C,0.250000*%
%ADD18C,0.400000*%
%ADD19C,0.150000*%
G04 APERTURE END LIST*
D10*
D11*
X50375000Y-177725000D03*
X57825000Y-177725000D03*
D12*
X50225000Y-181525000D03*
X57975000Y-181525000D03*
D13*
X38125000Y-156400000D03*
X40665000Y-156400000D03*
D14*
X31175000Y-143700000D03*
X31175000Y-141160000D03*
D15*
X69480000Y-153300000D03*
X67940000Y-151080000D03*
X68710000Y-174570000D03*
X61710000Y-174570000D03*
X62750000Y-161270000D03*
X63130000Y-157130000D03*
X63120000Y-154610000D03*
D16*
X45520000Y-147030000D03*
X49320000Y-147030000D03*
D15*
X47525000Y-159675000D03*
X47525000Y-166950000D03*
X51600000Y-154430000D03*
X35910000Y-154430000D03*
X39900000Y-166975000D03*
X32225000Y-157400000D03*
X52800000Y-168500000D03*
X52800000Y-173525000D03*
D16*
X45120000Y-146230000D03*
X44280000Y-142330000D03*
D15*
X45170000Y-165280000D03*
X41660000Y-173600000D03*
X60750000Y-156325000D03*
X49100000Y-163300000D03*
X56325000Y-176225000D03*
X53850000Y-176250000D03*
X54425000Y-167650000D03*
X45100000Y-170825000D03*
D16*
X65190000Y-143920000D03*
X45120000Y-146630000D03*
X48860000Y-146630000D03*
X45520000Y-147430000D03*
X47270000Y-147430000D03*
D15*
X37040000Y-145600000D03*
X42950000Y-145600000D03*
X37040000Y-139250000D03*
X42950000Y-144460000D03*
X86290000Y-146290000D03*
X51650000Y-175340000D03*
X65000000Y-172730000D03*
X60020000Y-171960000D03*
X77875000Y-145650000D03*
X65400000Y-158800000D03*
X79550000Y-146300000D03*
X61575000Y-163675000D03*
X78475000Y-147250000D03*
X62525000Y-163675000D03*
X82625000Y-145675000D03*
X63400000Y-163675000D03*
X58250000Y-147450000D03*
X65875000Y-165475000D03*
X53100000Y-148050000D03*
X66675000Y-166450000D03*
X65640000Y-178625000D03*
X66270000Y-175470000D03*
X65640000Y-179895000D03*
X73720000Y-174270000D03*
X70060000Y-168940000D03*
X51660000Y-174240000D03*
X71550000Y-156425000D03*
X73160000Y-168940000D03*
X72150000Y-155850000D03*
X73970000Y-168460000D03*
X58250000Y-144875000D03*
X64425000Y-156425000D03*
X71050000Y-157250000D03*
X70050000Y-167450000D03*
X78020000Y-167620000D03*
X78020000Y-165860000D03*
X72750000Y-155275000D03*
X77350000Y-163725000D03*
X73325000Y-154725000D03*
X78225000Y-162950000D03*
D16*
X45120000Y-147030000D03*
X60720000Y-148160000D03*
X58890000Y-148160000D03*
X53100000Y-147150000D03*
D15*
X66460000Y-142650000D03*
X45480000Y-148310000D03*
D17*
X69480000Y-152620000D02*
X69480000Y-153300000D01*
X67940000Y-151080000D02*
X69480000Y-152620000D01*
X61710000Y-174570000D02*
X68710000Y-174570000D01*
X63130000Y-160890000D02*
X63130000Y-157130000D01*
X62750000Y-161270000D02*
X63130000Y-160890000D01*
X63130000Y-157130000D02*
X63120000Y-157120000D01*
X63120000Y-157120000D02*
X63120000Y-154610000D01*
X46880000Y-147030000D02*
X49320000Y-147030000D01*
X45520000Y-147030000D02*
X46880000Y-147030000D01*
D18*
X47525000Y-166950000D02*
X47525000Y-159675000D01*
X35910000Y-154430000D02*
X51600000Y-154430000D01*
X32225000Y-157400000D02*
X32225000Y-165675000D01*
X33525000Y-166975000D02*
X39900000Y-166975000D01*
X32225000Y-165675000D02*
X33525000Y-166975000D01*
X52800000Y-173525000D02*
X52800000Y-168500000D01*
D17*
X44280000Y-145390000D02*
X44280000Y-142330000D01*
X44280000Y-145390000D02*
X45120000Y-146230000D01*
D18*
X45170000Y-167610000D02*
X45170000Y-165280000D01*
X41660000Y-171120000D02*
X45170000Y-167610000D01*
X41660000Y-173600000D02*
X41660000Y-171120000D01*
X54300000Y-156325000D02*
X60750000Y-156325000D01*
X49100000Y-161525000D02*
X54300000Y-156325000D01*
X49100000Y-163300000D02*
X49100000Y-161525000D01*
D17*
X53875000Y-176225000D02*
X56325000Y-176225000D01*
X53850000Y-176250000D02*
X53875000Y-176225000D01*
X54425000Y-167650000D02*
X48275000Y-167650000D01*
X48275000Y-167650000D02*
X45100000Y-170825000D01*
X48860000Y-146630000D02*
X51060000Y-146630000D01*
X65190000Y-142630000D02*
X65190000Y-143920000D01*
X64260000Y-141700000D02*
X65190000Y-142630000D01*
X55990000Y-141700000D02*
X64260000Y-141700000D01*
X51060000Y-146630000D02*
X55990000Y-141700000D01*
X47110000Y-146630000D02*
X48860000Y-146630000D01*
X45920000Y-146630000D02*
X47110000Y-146630000D01*
X45920000Y-146630000D02*
X45120000Y-146630000D01*
X47270000Y-147430000D02*
X45520000Y-147430000D01*
X42950000Y-145600000D02*
X37040000Y-145600000D01*
X37740000Y-139250000D02*
X37040000Y-139250000D01*
X42950000Y-144460000D02*
X37740000Y-139250000D01*
X86290000Y-166180000D02*
X86290000Y-146290000D01*
X79190000Y-173280000D02*
X86290000Y-166180000D01*
X60270000Y-173280000D02*
X79190000Y-173280000D01*
X58210000Y-175340000D02*
X60270000Y-173280000D01*
X51650000Y-175340000D02*
X58210000Y-175340000D01*
X60790000Y-172730000D02*
X65000000Y-172730000D01*
X60020000Y-171960000D02*
X60790000Y-172730000D01*
X73875000Y-149650000D02*
X77875000Y-145650000D01*
X73875000Y-150325000D02*
X73875000Y-149650000D01*
X68075000Y-156125000D02*
X73875000Y-150325000D01*
X65400000Y-158800000D02*
X68075000Y-156125000D01*
X78475000Y-146300000D02*
X79550000Y-146300000D01*
X74525000Y-150250000D02*
X78475000Y-146300000D01*
X74525000Y-150725000D02*
X74525000Y-150250000D01*
X74050000Y-151200000D02*
X74525000Y-150725000D01*
X69575000Y-155675000D02*
X74050000Y-151200000D01*
X65225000Y-160025000D02*
X69575000Y-155675000D01*
X61575000Y-163675000D02*
X65225000Y-160025000D01*
X75200000Y-150525000D02*
X78475000Y-147250000D01*
X75200000Y-151000000D02*
X75200000Y-150525000D01*
X74925000Y-151275000D02*
X75200000Y-151000000D01*
X71650000Y-154550000D02*
X74925000Y-151275000D01*
X67525000Y-158675000D02*
X71650000Y-154550000D01*
X64575000Y-161625000D02*
X67525000Y-158675000D01*
X62525000Y-163675000D02*
X64575000Y-161625000D01*
X81500000Y-146800000D02*
X82625000Y-145675000D01*
X80275000Y-146800000D02*
X81500000Y-146800000D01*
X78650000Y-148425000D02*
X80275000Y-146800000D01*
X75775000Y-151300000D02*
X78650000Y-148425000D01*
X73250000Y-153825000D02*
X75775000Y-151300000D01*
X70350000Y-156725000D02*
X73250000Y-153825000D01*
X66525000Y-160550000D02*
X70350000Y-156725000D01*
X64525000Y-162550000D02*
X66525000Y-160550000D01*
X63400000Y-163675000D02*
X64525000Y-162550000D01*
X61387500Y-164762500D02*
X61425000Y-164800000D01*
X65200000Y-164800000D02*
X65875000Y-165475000D01*
X61425000Y-164800000D02*
X65200000Y-164800000D01*
X61387500Y-164762500D02*
X60800000Y-164175000D01*
X60800000Y-164175000D02*
X60800000Y-164050000D01*
X60800000Y-163400000D02*
X60800000Y-164050000D01*
X62050000Y-155325000D02*
X62200000Y-155475000D01*
X58250000Y-147450000D02*
X58250000Y-150525000D01*
X58250000Y-150525000D02*
X58250000Y-151525000D01*
X58250000Y-151525000D02*
X62050000Y-155325000D01*
X62200000Y-162000000D02*
X60800000Y-163400000D01*
X62200000Y-161975000D02*
X62200000Y-162000000D01*
X62200000Y-155475000D02*
X62200000Y-161975000D01*
X53765000Y-148140000D02*
X61437500Y-155812500D01*
X53190000Y-148140000D02*
X53765000Y-148140000D01*
X53100000Y-148050000D02*
X53190000Y-148140000D01*
X61437500Y-155812500D02*
X61500000Y-155875000D01*
X61500000Y-155875000D02*
X61500000Y-161675000D01*
X61925000Y-166450000D02*
X66675000Y-166450000D01*
X61500000Y-161675000D02*
X60075000Y-163100000D01*
X60075000Y-164600000D02*
X61150000Y-165675000D01*
X60075000Y-164550000D02*
X60075000Y-164600000D01*
X60075000Y-163100000D02*
X60075000Y-164550000D01*
X61150000Y-165675000D02*
X61925000Y-166450000D01*
X61500000Y-161675000D02*
X61500000Y-161700000D01*
X61437500Y-155812500D02*
X61475000Y-155850000D01*
X66270000Y-177995000D02*
X66270000Y-175470000D01*
X66270000Y-177995000D02*
X65640000Y-178625000D01*
X73720000Y-175480000D02*
X73720000Y-174270000D01*
X69620000Y-179580000D02*
X73720000Y-175480000D01*
X65955000Y-179580000D02*
X69620000Y-179580000D01*
X65955000Y-179580000D02*
X65640000Y-179895000D01*
X59470000Y-168940000D02*
X70060000Y-168940000D01*
X54170000Y-174240000D02*
X59470000Y-168940000D01*
X51660000Y-174240000D02*
X54170000Y-174240000D01*
X73160000Y-158035000D02*
X73160000Y-168940000D01*
X73160000Y-158035000D02*
X71550000Y-156425000D01*
X73970000Y-157670000D02*
X73970000Y-168460000D01*
X73970000Y-157670000D02*
X72150000Y-155850000D01*
X64425000Y-151050000D02*
X58250000Y-144875000D01*
X64425000Y-156425000D02*
X64425000Y-151050000D01*
X70050000Y-158250000D02*
X71050000Y-157250000D01*
X70050000Y-167450000D02*
X70050000Y-158250000D01*
X78020000Y-165860000D02*
X78020000Y-167620000D01*
X77350000Y-159875000D02*
X72750000Y-155275000D01*
X77350000Y-163725000D02*
X77350000Y-159875000D01*
X78225000Y-159625000D02*
X73325000Y-154725000D01*
X78225000Y-162950000D02*
X78225000Y-159625000D01*
X58890000Y-148160000D02*
X60720000Y-148160000D01*
X51440000Y-148810000D02*
X53100000Y-147150000D01*
X45240000Y-148810000D02*
X51440000Y-148810000D01*
X44720000Y-148290000D02*
X45240000Y-148810000D01*
X44720000Y-147830000D02*
X44720000Y-148290000D01*
X45120000Y-147430000D02*
X44720000Y-147830000D01*
X45120000Y-147430000D02*
X45120000Y-147030000D01*
X66460000Y-143920000D02*
X66460000Y-142650000D01*
X65870000Y-144510000D02*
X66460000Y-143920000D01*
X65870000Y-145590000D02*
X65870000Y-144510000D01*
X65420000Y-146040000D02*
X65870000Y-145590000D01*
X63330000Y-146040000D02*
X65420000Y-146040000D01*
X61180000Y-143890000D02*
X63330000Y-146040000D01*
X54640000Y-143890000D02*
X61180000Y-143890000D01*
X50220000Y-148310000D02*
X54640000Y-143890000D01*
X48960000Y-148310000D02*
X50220000Y-148310000D01*
X45480000Y-148310000D02*
X48960000Y-148310000D01*
D19*
G36*
X87820000Y-183020000D02*
X28080000Y-183020000D01*
X28080000Y-181600000D01*
X49275000Y-181600000D01*
X49275000Y-181925000D01*
X49376016Y-182282840D01*
X49606282Y-182574784D01*
X49930742Y-182756386D01*
X50002774Y-182773643D01*
X50150000Y-182702959D01*
X50150000Y-181600000D01*
X50300000Y-181600000D01*
X50300000Y-182702959D01*
X50447226Y-182773643D01*
X50519258Y-182756386D01*
X50843718Y-182574784D01*
X51073984Y-182282840D01*
X51175000Y-181925000D01*
X51175000Y-181600000D01*
X57025000Y-181600000D01*
X57025000Y-181925000D01*
X57126016Y-182282840D01*
X57356282Y-182574784D01*
X57680742Y-182756386D01*
X57752774Y-182773643D01*
X57900000Y-182702959D01*
X57900000Y-181600000D01*
X58050000Y-181600000D01*
X58050000Y-182702959D01*
X58197226Y-182773643D01*
X58269258Y-182756386D01*
X58593718Y-182574784D01*
X58823984Y-182282840D01*
X58925000Y-181925000D01*
X58925000Y-181600000D01*
X58050000Y-181600000D01*
X57900000Y-181600000D01*
X57025000Y-181600000D01*
X51175000Y-181600000D01*
X50300000Y-181600000D01*
X50150000Y-181600000D01*
X49275000Y-181600000D01*
X28080000Y-181600000D01*
X28080000Y-181474427D01*
X62172280Y-181474427D01*
X62409647Y-182048900D01*
X62848788Y-182488808D01*
X63422846Y-182727178D01*
X64044427Y-182727720D01*
X64618900Y-182490353D01*
X65058808Y-182051212D01*
X65297178Y-181477154D01*
X65297720Y-180855573D01*
X65060353Y-180281100D01*
X64621212Y-179841192D01*
X64047154Y-179602822D01*
X63425573Y-179602280D01*
X62851100Y-179839647D01*
X62411192Y-180278788D01*
X62172822Y-180852846D01*
X62172280Y-181474427D01*
X28080000Y-181474427D01*
X28080000Y-181125000D01*
X49275000Y-181125000D01*
X49275000Y-181450000D01*
X50150000Y-181450000D01*
X50150000Y-180347041D01*
X50300000Y-180347041D01*
X50300000Y-181450000D01*
X51175000Y-181450000D01*
X51175000Y-181125000D01*
X57025000Y-181125000D01*
X57025000Y-181450000D01*
X57900000Y-181450000D01*
X57900000Y-180347041D01*
X58050000Y-180347041D01*
X58050000Y-181450000D01*
X58925000Y-181450000D01*
X58925000Y-181125000D01*
X58823984Y-180767160D01*
X58593718Y-180475216D01*
X58269258Y-180293614D01*
X58197226Y-180276357D01*
X58050000Y-180347041D01*
X57900000Y-180347041D01*
X57752774Y-180276357D01*
X57680742Y-180293614D01*
X57356282Y-180475216D01*
X57126016Y-180767160D01*
X57025000Y-181125000D01*
X51175000Y-181125000D01*
X51073984Y-180767160D01*
X50843718Y-180475216D01*
X50519258Y-180293614D01*
X50447226Y-180276357D01*
X50300000Y-180347041D01*
X50150000Y-180347041D01*
X50002774Y-180276357D01*
X49930742Y-180293614D01*
X49606282Y-180475216D01*
X49376016Y-180767160D01*
X49275000Y-181125000D01*
X28080000Y-181125000D01*
X28080000Y-177800000D01*
X49275000Y-177800000D01*
X49275000Y-178075000D01*
X49387434Y-178490243D01*
X49650216Y-178830851D01*
X50023340Y-179044969D01*
X50129246Y-179072196D01*
X50300000Y-179003451D01*
X50300000Y-177800000D01*
X50450000Y-177800000D01*
X50450000Y-179003451D01*
X50620754Y-179072196D01*
X50726660Y-179044969D01*
X50849496Y-178974480D01*
X50868810Y-179071580D01*
X51036809Y-179323008D01*
X51288237Y-179491007D01*
X51584817Y-179550000D01*
X51615183Y-179550000D01*
X51911763Y-179491007D01*
X52163191Y-179323008D01*
X52331190Y-179071580D01*
X52390183Y-178775000D01*
X55809817Y-178775000D01*
X55868810Y-179071580D01*
X56036809Y-179323008D01*
X56288237Y-179491007D01*
X56584817Y-179550000D01*
X56615183Y-179550000D01*
X56911763Y-179491007D01*
X57163191Y-179323008D01*
X57331190Y-179071580D01*
X57350504Y-178974480D01*
X57473340Y-179044969D01*
X57579246Y-179072196D01*
X57750000Y-179003451D01*
X57750000Y-177800000D01*
X57900000Y-177800000D01*
X57900000Y-179003451D01*
X58070754Y-179072196D01*
X58176660Y-179044969D01*
X58549784Y-178830851D01*
X58812566Y-178490243D01*
X58925000Y-178075000D01*
X58925000Y-177800000D01*
X57900000Y-177800000D01*
X57750000Y-177800000D01*
X56725000Y-177800000D01*
X56725000Y-178021844D01*
X56615183Y-178000000D01*
X56584817Y-178000000D01*
X56288237Y-178058993D01*
X56036809Y-178226992D01*
X55868810Y-178478420D01*
X55809817Y-178775000D01*
X52390183Y-178775000D01*
X52331190Y-178478420D01*
X52163191Y-178226992D01*
X51911763Y-178058993D01*
X51615183Y-178000000D01*
X51584817Y-178000000D01*
X51475000Y-178021844D01*
X51475000Y-177800000D01*
X50450000Y-177800000D01*
X50300000Y-177800000D01*
X49275000Y-177800000D01*
X28080000Y-177800000D01*
X28080000Y-177375000D01*
X49275000Y-177375000D01*
X49275000Y-177650000D01*
X50300000Y-177650000D01*
X50300000Y-176446549D01*
X50450000Y-176446549D01*
X50450000Y-177650000D01*
X51475000Y-177650000D01*
X51475000Y-177375000D01*
X56725000Y-177375000D01*
X56725000Y-177650000D01*
X57750000Y-177650000D01*
X57750000Y-176446549D01*
X57900000Y-176446549D01*
X57900000Y-177650000D01*
X58925000Y-177650000D01*
X58925000Y-177375000D01*
X58812566Y-176959757D01*
X58549784Y-176619149D01*
X58176660Y-176405031D01*
X58070754Y-176377804D01*
X57900000Y-176446549D01*
X57750000Y-176446549D01*
X57579246Y-176377804D01*
X57473340Y-176405031D01*
X57100216Y-176619149D01*
X56837434Y-176959757D01*
X56725000Y-177375000D01*
X51475000Y-177375000D01*
X51362566Y-176959757D01*
X51099784Y-176619149D01*
X50726660Y-176405031D01*
X50620754Y-176377804D01*
X50450000Y-176446549D01*
X50300000Y-176446549D01*
X50129246Y-176377804D01*
X50023340Y-176405031D01*
X49650216Y-176619149D01*
X49387434Y-176959757D01*
X49275000Y-177375000D01*
X28080000Y-177375000D01*
X28080000Y-173733677D01*
X40984883Y-173733677D01*
X41087429Y-173981857D01*
X41277144Y-174171903D01*
X41525145Y-174274883D01*
X41793677Y-174275117D01*
X42041857Y-174172571D01*
X42231903Y-173982856D01*
X42334883Y-173734855D01*
X42335117Y-173466323D01*
X42235000Y-173224022D01*
X42235000Y-171358172D01*
X42634495Y-170958677D01*
X44424883Y-170958677D01*
X44527429Y-171206857D01*
X44717144Y-171396903D01*
X44965145Y-171499883D01*
X45233677Y-171500117D01*
X45481857Y-171397571D01*
X45671903Y-171207856D01*
X45774883Y-170959855D01*
X45774973Y-170857133D01*
X48482106Y-168150000D01*
X52214454Y-168150000D01*
X52125117Y-168365145D01*
X52124883Y-168633677D01*
X52225000Y-168875978D01*
X52225000Y-173149602D01*
X52125117Y-173390145D01*
X52124883Y-173658677D01*
X52158485Y-173740000D01*
X52114634Y-173740000D01*
X52042856Y-173668097D01*
X51794855Y-173565117D01*
X51526323Y-173564883D01*
X51278143Y-173667429D01*
X51088097Y-173857144D01*
X50985117Y-174105145D01*
X50984883Y-174373677D01*
X51087429Y-174621857D01*
X51250414Y-174785127D01*
X51078097Y-174957144D01*
X50975117Y-175205145D01*
X50974883Y-175473677D01*
X51077429Y-175721857D01*
X51267144Y-175911903D01*
X51515145Y-176014883D01*
X51783677Y-176015117D01*
X52031857Y-175912571D01*
X52104555Y-175840000D01*
X53305288Y-175840000D01*
X53278097Y-175867144D01*
X53175117Y-176115145D01*
X53174883Y-176383677D01*
X53277429Y-176631857D01*
X53467144Y-176821903D01*
X53715145Y-176924883D01*
X53983677Y-176925117D01*
X54231857Y-176822571D01*
X54329598Y-176725000D01*
X55870366Y-176725000D01*
X55942144Y-176796903D01*
X56190145Y-176899883D01*
X56458677Y-176900117D01*
X56706857Y-176797571D01*
X56896903Y-176607856D01*
X56999883Y-176359855D01*
X57000117Y-176091323D01*
X56897571Y-175843143D01*
X56894433Y-175840000D01*
X58210000Y-175840000D01*
X58401342Y-175801940D01*
X58563553Y-175693553D01*
X60477106Y-173780000D01*
X73255428Y-173780000D01*
X73148097Y-173887144D01*
X73045117Y-174135145D01*
X73044883Y-174403677D01*
X73147429Y-174651857D01*
X73220000Y-174724555D01*
X73220000Y-175272893D01*
X70377341Y-178115553D01*
X70377720Y-177680573D01*
X70140353Y-177106100D01*
X69701212Y-176666192D01*
X69127154Y-176427822D01*
X68505573Y-176427280D01*
X67950049Y-176656818D01*
X68028374Y-176578629D01*
X68161148Y-176258873D01*
X68161451Y-175912646D01*
X68029234Y-175592659D01*
X67784629Y-175347626D01*
X67464873Y-175214852D01*
X67118646Y-175214549D01*
X66927445Y-175293552D01*
X66842571Y-175088143D01*
X66652856Y-174898097D01*
X66404855Y-174795117D01*
X66136323Y-174794883D01*
X65888143Y-174897429D01*
X65698097Y-175087144D01*
X65613861Y-175290005D01*
X65432873Y-175214852D01*
X65086646Y-175214549D01*
X64766659Y-175346766D01*
X64521626Y-175591371D01*
X64388852Y-175911127D01*
X64388549Y-176257354D01*
X64520766Y-176577341D01*
X64601143Y-176657859D01*
X64047154Y-176427822D01*
X63425573Y-176427280D01*
X62851100Y-176664647D01*
X62411192Y-177103788D01*
X62172822Y-177677846D01*
X62172280Y-178299427D01*
X62409647Y-178873900D01*
X62848788Y-179313808D01*
X63422846Y-179552178D01*
X64044427Y-179552720D01*
X64618900Y-179315353D01*
X65026694Y-178908270D01*
X65067429Y-179006857D01*
X65257144Y-179196903D01*
X65409165Y-179260028D01*
X65258143Y-179322429D01*
X65068097Y-179512144D01*
X64965117Y-179760145D01*
X64964883Y-180028677D01*
X65067429Y-180276857D01*
X65257144Y-180466903D01*
X65505145Y-180569883D01*
X65639175Y-180570000D01*
X65537626Y-180671371D01*
X65404852Y-180991127D01*
X65404549Y-181337354D01*
X65536766Y-181657341D01*
X65781371Y-181902374D01*
X66101127Y-182035148D01*
X66447354Y-182035451D01*
X66767341Y-181903234D01*
X67012374Y-181658629D01*
X67145148Y-181338873D01*
X67145451Y-180992646D01*
X67013234Y-180672659D01*
X66768629Y-180427626D01*
X66448873Y-180294852D01*
X66195100Y-180294630D01*
X66211903Y-180277856D01*
X66294061Y-180080000D01*
X67690327Y-180080000D01*
X67491192Y-180278788D01*
X67252822Y-180852846D01*
X67252280Y-181474427D01*
X67489647Y-182048900D01*
X67928788Y-182488808D01*
X68502846Y-182727178D01*
X69124427Y-182727720D01*
X69698900Y-182490353D01*
X70138808Y-182051212D01*
X70377178Y-181477154D01*
X70377720Y-180855573D01*
X70140353Y-180281100D01*
X69865491Y-180005758D01*
X69973553Y-179933553D01*
X74073554Y-175833553D01*
X74146086Y-175725001D01*
X74181940Y-175671342D01*
X74220000Y-175480000D01*
X74220000Y-174724634D01*
X74291903Y-174652856D01*
X74394883Y-174404855D01*
X74395117Y-174136323D01*
X74292571Y-173888143D01*
X74184616Y-173780000D01*
X79190000Y-173780000D01*
X79381342Y-173741940D01*
X79543553Y-173633553D01*
X86643553Y-166533554D01*
X86751940Y-166371342D01*
X86771080Y-166275117D01*
X86790000Y-166180000D01*
X86790000Y-146744634D01*
X86861903Y-146672856D01*
X86964883Y-146424855D01*
X86965117Y-146156323D01*
X86862571Y-145908143D01*
X86672856Y-145718097D01*
X86424855Y-145615117D01*
X86156323Y-145614883D01*
X85908143Y-145717429D01*
X85718097Y-145907144D01*
X85615117Y-146155145D01*
X85614883Y-146423677D01*
X85717429Y-146671857D01*
X85790000Y-146744555D01*
X85790000Y-165972893D01*
X78982894Y-172780000D01*
X65674957Y-172780000D01*
X65675117Y-172596323D01*
X65572571Y-172348143D01*
X65382856Y-172158097D01*
X65134855Y-172055117D01*
X64866323Y-172054883D01*
X64618143Y-172157429D01*
X64545445Y-172230000D01*
X60997107Y-172230000D01*
X60695028Y-171927922D01*
X60695117Y-171826323D01*
X60592571Y-171578143D01*
X60402856Y-171388097D01*
X60154855Y-171285117D01*
X59886323Y-171284883D01*
X59638143Y-171387429D01*
X59448097Y-171577144D01*
X59345117Y-171825145D01*
X59344883Y-172093677D01*
X59447429Y-172341857D01*
X59637144Y-172531903D01*
X59885145Y-172634883D01*
X59987866Y-172634973D01*
X60155641Y-172802747D01*
X60078658Y-172818060D01*
X59916447Y-172926447D01*
X58002894Y-174840000D01*
X52104634Y-174840000D01*
X52059586Y-174794873D01*
X52114555Y-174740000D01*
X54170000Y-174740000D01*
X54361342Y-174701940D01*
X54523553Y-174593553D01*
X59677106Y-169440000D01*
X69605366Y-169440000D01*
X69677144Y-169511903D01*
X69925145Y-169614883D01*
X70193677Y-169615117D01*
X70441857Y-169512571D01*
X70631903Y-169322856D01*
X70734883Y-169074855D01*
X70735117Y-168806323D01*
X70632571Y-168558143D01*
X70442856Y-168368097D01*
X70194855Y-168265117D01*
X69926323Y-168264883D01*
X69678143Y-168367429D01*
X69605445Y-168440000D01*
X59470000Y-168440000D01*
X59278658Y-168478060D01*
X59116447Y-168586447D01*
X53962894Y-173740000D01*
X53441604Y-173740000D01*
X53474883Y-173659855D01*
X53475117Y-173391323D01*
X53375000Y-173149022D01*
X53375000Y-168875398D01*
X53474883Y-168634855D01*
X53475117Y-168366323D01*
X53385734Y-168150000D01*
X53970366Y-168150000D01*
X54042144Y-168221903D01*
X54290145Y-168324883D01*
X54558677Y-168325117D01*
X54806857Y-168222571D01*
X54996903Y-168032856D01*
X55099883Y-167784855D01*
X55100117Y-167516323D01*
X54997571Y-167268143D01*
X54807856Y-167078097D01*
X54559855Y-166975117D01*
X54291323Y-166974883D01*
X54043143Y-167077429D01*
X53970445Y-167150000D01*
X48275000Y-167150000D01*
X48163634Y-167172152D01*
X48199883Y-167084855D01*
X48200117Y-166816323D01*
X48100000Y-166574022D01*
X48100000Y-160050398D01*
X48199883Y-159809855D01*
X48200117Y-159541323D01*
X48097571Y-159293143D01*
X47907856Y-159103097D01*
X47659855Y-159000117D01*
X47391323Y-158999883D01*
X47143143Y-159102429D01*
X46953097Y-159292144D01*
X46850117Y-159540145D01*
X46849883Y-159808677D01*
X46950000Y-160050978D01*
X46950000Y-166574602D01*
X46850117Y-166815145D01*
X46849883Y-167083677D01*
X46952429Y-167331857D01*
X47142144Y-167521903D01*
X47390145Y-167624883D01*
X47592834Y-167625060D01*
X45067922Y-170149972D01*
X44966323Y-170149883D01*
X44718143Y-170252429D01*
X44528097Y-170442144D01*
X44425117Y-170690145D01*
X44424883Y-170958677D01*
X42634495Y-170958677D01*
X45576587Y-168016586D01*
X45701231Y-167830043D01*
X45745000Y-167610000D01*
X45745000Y-165655398D01*
X45844883Y-165414855D01*
X45845117Y-165146323D01*
X45742571Y-164898143D01*
X45552856Y-164708097D01*
X45304855Y-164605117D01*
X45036323Y-164604883D01*
X44788143Y-164707429D01*
X44598097Y-164897144D01*
X44495117Y-165145145D01*
X44494883Y-165413677D01*
X44595000Y-165655978D01*
X44595000Y-167371827D01*
X41253414Y-170713414D01*
X41128769Y-170899957D01*
X41085000Y-171120000D01*
X41085000Y-173224602D01*
X40985117Y-173465145D01*
X40984883Y-173733677D01*
X28080000Y-173733677D01*
X28080000Y-157533677D01*
X31549883Y-157533677D01*
X31650000Y-157775978D01*
X31650000Y-165675000D01*
X31686372Y-165857856D01*
X31693769Y-165895043D01*
X31818414Y-166081586D01*
X33118414Y-167381587D01*
X33267542Y-167481231D01*
X33304957Y-167506231D01*
X33525000Y-167550000D01*
X39524602Y-167550000D01*
X39765145Y-167649883D01*
X40033677Y-167650117D01*
X40281857Y-167547571D01*
X40471903Y-167357856D01*
X40574883Y-167109855D01*
X40575117Y-166841323D01*
X40472571Y-166593143D01*
X40282856Y-166403097D01*
X40034855Y-166300117D01*
X39766323Y-166299883D01*
X39524022Y-166400000D01*
X33763173Y-166400000D01*
X32800000Y-165436828D01*
X32800000Y-157775398D01*
X32899883Y-157534855D01*
X32900117Y-157266323D01*
X32797571Y-157018143D01*
X32607856Y-156828097D01*
X32359855Y-156725117D01*
X32091323Y-156724883D01*
X31843143Y-156827429D01*
X31653097Y-157017144D01*
X31550117Y-157265145D01*
X31549883Y-157533677D01*
X28080000Y-157533677D01*
X28080000Y-154563677D01*
X35234883Y-154563677D01*
X35337429Y-154811857D01*
X35527144Y-155001903D01*
X35775145Y-155104883D01*
X36043677Y-155105117D01*
X36285978Y-155005000D01*
X37198439Y-155005000D01*
X37081016Y-155180737D01*
X36995000Y-155613169D01*
X36995000Y-157186831D01*
X37081016Y-157619263D01*
X37325969Y-157985862D01*
X37692568Y-158230815D01*
X38125000Y-158316831D01*
X38557432Y-158230815D01*
X38924031Y-157985862D01*
X39168984Y-157619263D01*
X39255000Y-157186831D01*
X39255000Y-156475000D01*
X39535000Y-156475000D01*
X39535000Y-157225000D01*
X39649717Y-157651723D01*
X39919002Y-158002064D01*
X40301858Y-158222686D01*
X40414542Y-158251894D01*
X40590000Y-158183532D01*
X40590000Y-156475000D01*
X40740000Y-156475000D01*
X40740000Y-158183532D01*
X40915458Y-158251894D01*
X41028142Y-158222686D01*
X41410998Y-158002064D01*
X41680283Y-157651723D01*
X41795000Y-157225000D01*
X41795000Y-156475000D01*
X40740000Y-156475000D01*
X40590000Y-156475000D01*
X39535000Y-156475000D01*
X39255000Y-156475000D01*
X39255000Y-155613169D01*
X39168984Y-155180737D01*
X39051561Y-155005000D01*
X39759845Y-155005000D01*
X39649717Y-155148277D01*
X39535000Y-155575000D01*
X39535000Y-156325000D01*
X40590000Y-156325000D01*
X40590000Y-156305000D01*
X40740000Y-156305000D01*
X40740000Y-156325000D01*
X41795000Y-156325000D01*
X41795000Y-155575000D01*
X41680283Y-155148277D01*
X41570155Y-155005000D01*
X51224602Y-155005000D01*
X51465145Y-155104883D01*
X51733677Y-155105117D01*
X51981857Y-155002571D01*
X52171903Y-154812856D01*
X52274883Y-154564855D01*
X52275117Y-154296323D01*
X52172571Y-154048143D01*
X51982856Y-153858097D01*
X51734855Y-153755117D01*
X51466323Y-153754883D01*
X51224022Y-153855000D01*
X36285398Y-153855000D01*
X36044855Y-153755117D01*
X35776323Y-153754883D01*
X35528143Y-153857429D01*
X35338097Y-154047144D01*
X35235117Y-154295145D01*
X35234883Y-154563677D01*
X28080000Y-154563677D01*
X28080000Y-143700000D01*
X29258169Y-143700000D01*
X29344185Y-144132432D01*
X29589138Y-144499031D01*
X29955737Y-144743984D01*
X30388169Y-144830000D01*
X31961831Y-144830000D01*
X32394263Y-144743984D01*
X32760862Y-144499031D01*
X33005815Y-144132432D01*
X33091831Y-143700000D01*
X33005815Y-143267568D01*
X32760862Y-142900969D01*
X32394263Y-142656016D01*
X31961831Y-142570000D01*
X30388169Y-142570000D01*
X29955737Y-142656016D01*
X29589138Y-142900969D01*
X29344185Y-143267568D01*
X29258169Y-143700000D01*
X28080000Y-143700000D01*
X28080000Y-141160000D01*
X29258169Y-141160000D01*
X29344185Y-141592432D01*
X29589138Y-141959031D01*
X29955737Y-142203984D01*
X30388169Y-142290000D01*
X31961831Y-142290000D01*
X32394263Y-142203984D01*
X32760862Y-141959031D01*
X33005815Y-141592432D01*
X33091831Y-141160000D01*
X33005815Y-140727568D01*
X32760862Y-140360969D01*
X32394263Y-140116016D01*
X31961831Y-140030000D01*
X30388169Y-140030000D01*
X29955737Y-140116016D01*
X29589138Y-140360969D01*
X29344185Y-140727568D01*
X29258169Y-141160000D01*
X28080000Y-141160000D01*
X28080000Y-139383677D01*
X36364883Y-139383677D01*
X36467429Y-139631857D01*
X36657144Y-139821903D01*
X36905145Y-139924883D01*
X37173677Y-139925117D01*
X37421857Y-139822571D01*
X37494555Y-139750000D01*
X37532894Y-139750000D01*
X42274972Y-144492078D01*
X42274883Y-144593677D01*
X42377429Y-144841857D01*
X42565406Y-145030162D01*
X42495445Y-145100000D01*
X37494634Y-145100000D01*
X37422856Y-145028097D01*
X37174855Y-144925117D01*
X36906323Y-144924883D01*
X36658143Y-145027429D01*
X36468097Y-145217144D01*
X36365117Y-145465145D01*
X36364883Y-145733677D01*
X36467429Y-145981857D01*
X36657144Y-146171903D01*
X36905145Y-146274883D01*
X37173677Y-146275117D01*
X37421857Y-146172571D01*
X37494555Y-146100000D01*
X42495366Y-146100000D01*
X42567144Y-146171903D01*
X42815145Y-146274883D01*
X43083677Y-146275117D01*
X43331857Y-146172571D01*
X43521903Y-145982856D01*
X43624883Y-145734855D01*
X43625117Y-145466323D01*
X43522571Y-145218143D01*
X43334594Y-145029838D01*
X43521903Y-144842856D01*
X43624883Y-144594855D01*
X43625117Y-144326323D01*
X43522571Y-144078143D01*
X43332856Y-143888097D01*
X43084855Y-143785117D01*
X42982134Y-143785027D01*
X41631078Y-142433971D01*
X43754909Y-142433971D01*
X43780000Y-142494696D01*
X43780000Y-145390000D01*
X43811849Y-145550117D01*
X43818060Y-145581342D01*
X43926447Y-145743553D01*
X44628221Y-146445328D01*
X44595092Y-146525113D01*
X44594909Y-146733971D01*
X44634587Y-146829998D01*
X44595092Y-146925113D01*
X44594909Y-147133971D01*
X44620000Y-147194696D01*
X44620000Y-147222893D01*
X44366447Y-147476447D01*
X44258060Y-147638658D01*
X44220000Y-147830000D01*
X44220000Y-148290000D01*
X44253108Y-148456447D01*
X44258060Y-148481342D01*
X44366447Y-148643553D01*
X44886447Y-149163553D01*
X45048658Y-149271940D01*
X45240000Y-149310000D01*
X51440000Y-149310000D01*
X51631342Y-149271940D01*
X51793553Y-149163553D01*
X52526792Y-148430315D01*
X52527429Y-148431857D01*
X52717144Y-148621903D01*
X52965145Y-148724883D01*
X53233677Y-148725117D01*
X53439676Y-148640000D01*
X53557894Y-148640000D01*
X60581970Y-155664077D01*
X60374022Y-155750000D01*
X54300000Y-155750000D01*
X54079957Y-155793769D01*
X53893414Y-155918413D01*
X48693414Y-161118414D01*
X48568769Y-161304957D01*
X48525000Y-161525000D01*
X48525000Y-162924602D01*
X48425117Y-163165145D01*
X48424883Y-163433677D01*
X48527429Y-163681857D01*
X48717144Y-163871903D01*
X48965145Y-163974883D01*
X49233677Y-163975117D01*
X49481857Y-163872571D01*
X49671903Y-163682856D01*
X49774883Y-163434855D01*
X49775117Y-163166323D01*
X49675000Y-162924022D01*
X49675000Y-161763172D01*
X54538173Y-156900000D01*
X60374602Y-156900000D01*
X60615145Y-156999883D01*
X60883677Y-157000117D01*
X61000000Y-156952053D01*
X61000000Y-161467893D01*
X59721447Y-162746447D01*
X59613060Y-162908658D01*
X59575000Y-163100000D01*
X59575000Y-164600000D01*
X59604592Y-164748769D01*
X59613060Y-164791342D01*
X59721447Y-164953553D01*
X60796447Y-166028554D01*
X60796450Y-166028556D01*
X61571447Y-166803554D01*
X61626210Y-166840145D01*
X61733658Y-166911940D01*
X61925000Y-166950000D01*
X66220366Y-166950000D01*
X66292144Y-167021903D01*
X66540145Y-167124883D01*
X66808677Y-167125117D01*
X67056857Y-167022571D01*
X67246903Y-166832856D01*
X67349883Y-166584855D01*
X67350117Y-166316323D01*
X67247571Y-166068143D01*
X67057856Y-165878097D01*
X66809855Y-165775117D01*
X66541323Y-165774883D01*
X66468937Y-165804792D01*
X66549883Y-165609855D01*
X66550117Y-165341323D01*
X66447571Y-165093143D01*
X66257856Y-164903097D01*
X66009855Y-164800117D01*
X65907133Y-164800027D01*
X65553553Y-164446447D01*
X65391342Y-164338060D01*
X65200000Y-164300000D01*
X63654969Y-164300000D01*
X63781857Y-164247571D01*
X63971903Y-164057856D01*
X64074883Y-163809855D01*
X64074973Y-163707134D01*
X64878553Y-162903554D01*
X64878555Y-162903551D01*
X69554443Y-158227663D01*
X69550000Y-158250000D01*
X69550000Y-166995366D01*
X69478097Y-167067144D01*
X69375117Y-167315145D01*
X69374883Y-167583677D01*
X69477429Y-167831857D01*
X69667144Y-168021903D01*
X69915145Y-168124883D01*
X70183677Y-168125117D01*
X70431857Y-168022571D01*
X70621903Y-167832856D01*
X70724883Y-167584855D01*
X70725117Y-167316323D01*
X70622571Y-167068143D01*
X70550000Y-166995445D01*
X70550000Y-158457106D01*
X71082078Y-157925028D01*
X71183677Y-157925117D01*
X71431857Y-157822571D01*
X71621903Y-157632856D01*
X71724883Y-157384855D01*
X71724951Y-157307057D01*
X72660000Y-158242107D01*
X72660000Y-168485366D01*
X72588097Y-168557144D01*
X72485117Y-168805145D01*
X72484883Y-169073677D01*
X72587429Y-169321857D01*
X72777144Y-169511903D01*
X73025145Y-169614883D01*
X73293677Y-169615117D01*
X73541857Y-169512571D01*
X73731903Y-169322856D01*
X73813661Y-169125962D01*
X73835145Y-169134883D01*
X74103677Y-169135117D01*
X74351857Y-169032571D01*
X74541903Y-168842856D01*
X74644883Y-168594855D01*
X74645117Y-168326323D01*
X74542571Y-168078143D01*
X74470000Y-168005445D01*
X74470000Y-165993677D01*
X77344883Y-165993677D01*
X77447429Y-166241857D01*
X77520000Y-166314555D01*
X77520000Y-167165366D01*
X77448097Y-167237144D01*
X77345117Y-167485145D01*
X77344883Y-167753677D01*
X77447429Y-168001857D01*
X77637144Y-168191903D01*
X77885145Y-168294883D01*
X78153677Y-168295117D01*
X78401857Y-168192571D01*
X78591903Y-168002856D01*
X78694883Y-167754855D01*
X78695117Y-167486323D01*
X78592571Y-167238143D01*
X78520000Y-167165445D01*
X78520000Y-166314634D01*
X78591903Y-166242856D01*
X78694883Y-165994855D01*
X78695117Y-165726323D01*
X78592571Y-165478143D01*
X78402856Y-165288097D01*
X78154855Y-165185117D01*
X77886323Y-165184883D01*
X77638143Y-165287429D01*
X77448097Y-165477144D01*
X77345117Y-165725145D01*
X77344883Y-165993677D01*
X74470000Y-165993677D01*
X74470000Y-157702106D01*
X76850000Y-160082107D01*
X76850000Y-163270366D01*
X76778097Y-163342144D01*
X76675117Y-163590145D01*
X76674883Y-163858677D01*
X76777429Y-164106857D01*
X76967144Y-164296903D01*
X77215145Y-164399883D01*
X77483677Y-164400117D01*
X77731857Y-164297571D01*
X77921903Y-164107856D01*
X78024883Y-163859855D01*
X78025111Y-163597878D01*
X78090145Y-163624883D01*
X78358677Y-163625117D01*
X78606857Y-163522571D01*
X78796903Y-163332856D01*
X78899883Y-163084855D01*
X78900117Y-162816323D01*
X78797571Y-162568143D01*
X78725000Y-162495445D01*
X78725000Y-159625000D01*
X78686940Y-159433658D01*
X78645676Y-159371903D01*
X78578553Y-159271446D01*
X74000028Y-154692922D01*
X74000117Y-154591323D01*
X73897571Y-154343143D01*
X73707856Y-154153097D01*
X73652143Y-154129963D01*
X76128553Y-151653554D01*
X76128555Y-151653551D01*
X80482106Y-147300000D01*
X81500000Y-147300000D01*
X81691342Y-147261940D01*
X81853553Y-147153553D01*
X82657078Y-146350028D01*
X82758677Y-146350117D01*
X83006857Y-146247571D01*
X83196903Y-146057856D01*
X83299883Y-145809855D01*
X83300117Y-145541323D01*
X83197571Y-145293143D01*
X83007856Y-145103097D01*
X82759855Y-145000117D01*
X82491323Y-144999883D01*
X82243143Y-145102429D01*
X82053097Y-145292144D01*
X81950117Y-145540145D01*
X81950027Y-145642866D01*
X81292894Y-146300000D01*
X80275000Y-146300000D01*
X80224992Y-146309947D01*
X80225117Y-146166323D01*
X80122571Y-145918143D01*
X79932856Y-145728097D01*
X79684855Y-145625117D01*
X79416323Y-145624883D01*
X79168143Y-145727429D01*
X79095445Y-145800000D01*
X78543594Y-145800000D01*
X78549883Y-145784855D01*
X78550117Y-145516323D01*
X78447571Y-145268143D01*
X78257856Y-145078097D01*
X78009855Y-144975117D01*
X77741323Y-144974883D01*
X77493143Y-145077429D01*
X77303097Y-145267144D01*
X77200117Y-145515145D01*
X77200027Y-145617866D01*
X73521447Y-149296447D01*
X73413060Y-149458658D01*
X73375000Y-149650000D01*
X73375000Y-150117893D01*
X67721449Y-155771445D01*
X67721446Y-155771447D01*
X65367922Y-158124972D01*
X65266323Y-158124883D01*
X65018143Y-158227429D01*
X64828097Y-158417144D01*
X64725117Y-158665145D01*
X64724883Y-158933677D01*
X64827429Y-159181857D01*
X65017144Y-159371903D01*
X65125851Y-159417043D01*
X64871450Y-159671444D01*
X64871447Y-159671446D01*
X62700000Y-161842894D01*
X62700000Y-155475000D01*
X62661940Y-155283658D01*
X62553553Y-155121447D01*
X62403556Y-154971450D01*
X62403554Y-154971447D01*
X58750000Y-151317894D01*
X58750000Y-148670328D01*
X58785113Y-148684908D01*
X58993971Y-148685091D01*
X59054696Y-148660000D01*
X60555127Y-148660000D01*
X60615113Y-148684908D01*
X60823971Y-148685091D01*
X61017000Y-148605333D01*
X61145225Y-148477332D01*
X63925000Y-151257107D01*
X63925000Y-155970366D01*
X63853097Y-156042144D01*
X63750117Y-156290145D01*
X63749883Y-156558677D01*
X63852429Y-156806857D01*
X64042144Y-156996903D01*
X64290145Y-157099883D01*
X64558677Y-157100117D01*
X64806857Y-156997571D01*
X64996903Y-156807856D01*
X65099883Y-156559855D01*
X65100117Y-156291323D01*
X64997571Y-156043143D01*
X64925000Y-155970445D01*
X64925000Y-151050000D01*
X64886940Y-150858658D01*
X64853531Y-150808658D01*
X64778554Y-150696447D01*
X58925028Y-144842922D01*
X58925117Y-144741323D01*
X58822571Y-144493143D01*
X58719608Y-144390000D01*
X60972894Y-144390000D01*
X62976446Y-146393553D01*
X63122796Y-146491341D01*
X63138658Y-146501940D01*
X63330000Y-146540000D01*
X65420000Y-146540000D01*
X65611342Y-146501940D01*
X65773553Y-146393553D01*
X66223553Y-145943553D01*
X66279676Y-145859560D01*
X66347371Y-145927374D01*
X66667127Y-146060148D01*
X67013354Y-146060451D01*
X67333341Y-145928234D01*
X67578374Y-145683629D01*
X67711148Y-145363873D01*
X67711451Y-145017646D01*
X67579234Y-144697659D01*
X67498857Y-144617141D01*
X68052846Y-144847178D01*
X68674427Y-144847720D01*
X69248900Y-144610353D01*
X69688808Y-144171212D01*
X69927178Y-143597154D01*
X69927720Y-142975573D01*
X69690353Y-142401100D01*
X69251212Y-141961192D01*
X68677154Y-141722822D01*
X68055573Y-141722280D01*
X67481100Y-141959647D01*
X67073306Y-142366730D01*
X67032571Y-142268143D01*
X66842856Y-142078097D01*
X66594855Y-141975117D01*
X66326323Y-141974883D01*
X66078143Y-142077429D01*
X65888097Y-142267144D01*
X65785117Y-142515145D01*
X65784883Y-142783677D01*
X65887429Y-143031857D01*
X65960000Y-143104555D01*
X65960000Y-143712894D01*
X65714967Y-143957927D01*
X65715091Y-143816029D01*
X65690000Y-143755304D01*
X65690000Y-142630000D01*
X65651940Y-142438658D01*
X65608526Y-142373686D01*
X65543554Y-142276447D01*
X64613553Y-141346447D01*
X64451342Y-141238060D01*
X64380628Y-141223994D01*
X64608808Y-140996212D01*
X64847178Y-140422154D01*
X64847299Y-140282354D01*
X64954549Y-140282354D01*
X65086766Y-140602341D01*
X65331371Y-140847374D01*
X65651127Y-140980148D01*
X65997354Y-140980451D01*
X66317341Y-140848234D01*
X66562374Y-140603629D01*
X66638861Y-140419427D01*
X66802280Y-140419427D01*
X67039647Y-140993900D01*
X67478788Y-141433808D01*
X68052846Y-141672178D01*
X68674427Y-141672720D01*
X69248900Y-141435353D01*
X69688808Y-140996212D01*
X69927178Y-140422154D01*
X69927720Y-139800573D01*
X69690353Y-139226100D01*
X69251212Y-138786192D01*
X68677154Y-138547822D01*
X68055573Y-138547280D01*
X67481100Y-138784647D01*
X67041192Y-139223788D01*
X66802822Y-139797846D01*
X66802280Y-140419427D01*
X66638861Y-140419427D01*
X66695148Y-140283873D01*
X66695451Y-139937646D01*
X66563234Y-139617659D01*
X66318629Y-139372626D01*
X65998873Y-139239852D01*
X65652646Y-139239549D01*
X65332659Y-139371766D01*
X65087626Y-139616371D01*
X64954852Y-139936127D01*
X64954549Y-140282354D01*
X64847299Y-140282354D01*
X64847720Y-139800573D01*
X64610353Y-139226100D01*
X64171212Y-138786192D01*
X63597154Y-138547822D01*
X62975573Y-138547280D01*
X62401100Y-138784647D01*
X61961192Y-139223788D01*
X61722822Y-139797846D01*
X61722280Y-140419427D01*
X61959647Y-140993900D01*
X62165388Y-141200000D01*
X55990000Y-141200000D01*
X55798658Y-141238060D01*
X55636447Y-141346447D01*
X50852894Y-146130000D01*
X49024873Y-146130000D01*
X48964887Y-146105092D01*
X48756029Y-146104909D01*
X48695304Y-146130000D01*
X45645088Y-146130000D01*
X45645091Y-146126029D01*
X45565333Y-145933000D01*
X45417777Y-145785186D01*
X45357096Y-145759989D01*
X44780000Y-145182894D01*
X44780000Y-142494873D01*
X44804908Y-142434887D01*
X44805091Y-142226029D01*
X44725333Y-142033000D01*
X44577777Y-141885186D01*
X44384887Y-141805092D01*
X44176029Y-141804909D01*
X43983000Y-141884667D01*
X43835186Y-142032223D01*
X43755092Y-142225113D01*
X43754909Y-142433971D01*
X41631078Y-142433971D01*
X38093553Y-138896447D01*
X37931342Y-138788060D01*
X37921951Y-138786192D01*
X37740000Y-138750000D01*
X37494634Y-138750000D01*
X37422856Y-138678097D01*
X37174855Y-138575117D01*
X36906323Y-138574883D01*
X36658143Y-138677429D01*
X36468097Y-138867144D01*
X36365117Y-139115145D01*
X36364883Y-139383677D01*
X28080000Y-139383677D01*
X28080000Y-137980000D01*
X87820000Y-137980000D01*
X87820000Y-183020000D01*
X87820000Y-183020000D01*
G37*
X87820000Y-183020000D02*
X28080000Y-183020000D01*
X28080000Y-181600000D01*
X49275000Y-181600000D01*
X49275000Y-181925000D01*
X49376016Y-182282840D01*
X49606282Y-182574784D01*
X49930742Y-182756386D01*
X50002774Y-182773643D01*
X50150000Y-182702959D01*
X50150000Y-181600000D01*
X50300000Y-181600000D01*
X50300000Y-182702959D01*
X50447226Y-182773643D01*
X50519258Y-182756386D01*
X50843718Y-182574784D01*
X51073984Y-182282840D01*
X51175000Y-181925000D01*
X51175000Y-181600000D01*
X57025000Y-181600000D01*
X57025000Y-181925000D01*
X57126016Y-182282840D01*
X57356282Y-182574784D01*
X57680742Y-182756386D01*
X57752774Y-182773643D01*
X57900000Y-182702959D01*
X57900000Y-181600000D01*
X58050000Y-181600000D01*
X58050000Y-182702959D01*
X58197226Y-182773643D01*
X58269258Y-182756386D01*
X58593718Y-182574784D01*
X58823984Y-182282840D01*
X58925000Y-181925000D01*
X58925000Y-181600000D01*
X58050000Y-181600000D01*
X57900000Y-181600000D01*
X57025000Y-181600000D01*
X51175000Y-181600000D01*
X50300000Y-181600000D01*
X50150000Y-181600000D01*
X49275000Y-181600000D01*
X28080000Y-181600000D01*
X28080000Y-181474427D01*
X62172280Y-181474427D01*
X62409647Y-182048900D01*
X62848788Y-182488808D01*
X63422846Y-182727178D01*
X64044427Y-182727720D01*
X64618900Y-182490353D01*
X65058808Y-182051212D01*
X65297178Y-181477154D01*
X65297720Y-180855573D01*
X65060353Y-180281100D01*
X64621212Y-179841192D01*
X64047154Y-179602822D01*
X63425573Y-179602280D01*
X62851100Y-179839647D01*
X62411192Y-180278788D01*
X62172822Y-180852846D01*
X62172280Y-181474427D01*
X28080000Y-181474427D01*
X28080000Y-181125000D01*
X49275000Y-181125000D01*
X49275000Y-181450000D01*
X50150000Y-181450000D01*
X50150000Y-180347041D01*
X50300000Y-180347041D01*
X50300000Y-181450000D01*
X51175000Y-181450000D01*
X51175000Y-181125000D01*
X57025000Y-181125000D01*
X57025000Y-181450000D01*
X57900000Y-181450000D01*
X57900000Y-180347041D01*
X58050000Y-180347041D01*
X58050000Y-181450000D01*
X58925000Y-181450000D01*
X58925000Y-181125000D01*
X58823984Y-180767160D01*
X58593718Y-180475216D01*
X58269258Y-180293614D01*
X58197226Y-180276357D01*
X58050000Y-180347041D01*
X57900000Y-180347041D01*
X57752774Y-180276357D01*
X57680742Y-180293614D01*
X57356282Y-180475216D01*
X57126016Y-180767160D01*
X57025000Y-181125000D01*
X51175000Y-181125000D01*
X51073984Y-180767160D01*
X50843718Y-180475216D01*
X50519258Y-180293614D01*
X50447226Y-180276357D01*
X50300000Y-180347041D01*
X50150000Y-180347041D01*
X50002774Y-180276357D01*
X49930742Y-180293614D01*
X49606282Y-180475216D01*
X49376016Y-180767160D01*
X49275000Y-181125000D01*
X28080000Y-181125000D01*
X28080000Y-177800000D01*
X49275000Y-177800000D01*
X49275000Y-178075000D01*
X49387434Y-178490243D01*
X49650216Y-178830851D01*
X50023340Y-179044969D01*
X50129246Y-179072196D01*
X50300000Y-179003451D01*
X50300000Y-177800000D01*
X50450000Y-177800000D01*
X50450000Y-179003451D01*
X50620754Y-179072196D01*
X50726660Y-179044969D01*
X50849496Y-178974480D01*
X50868810Y-179071580D01*
X51036809Y-179323008D01*
X51288237Y-179491007D01*
X51584817Y-179550000D01*
X51615183Y-179550000D01*
X51911763Y-179491007D01*
X52163191Y-179323008D01*
X52331190Y-179071580D01*
X52390183Y-178775000D01*
X55809817Y-178775000D01*
X55868810Y-179071580D01*
X56036809Y-179323008D01*
X56288237Y-179491007D01*
X56584817Y-179550000D01*
X56615183Y-179550000D01*
X56911763Y-179491007D01*
X57163191Y-179323008D01*
X57331190Y-179071580D01*
X57350504Y-178974480D01*
X57473340Y-179044969D01*
X57579246Y-179072196D01*
X57750000Y-179003451D01*
X57750000Y-177800000D01*
X57900000Y-177800000D01*
X57900000Y-179003451D01*
X58070754Y-179072196D01*
X58176660Y-179044969D01*
X58549784Y-178830851D01*
X58812566Y-178490243D01*
X58925000Y-178075000D01*
X58925000Y-177800000D01*
X57900000Y-177800000D01*
X57750000Y-177800000D01*
X56725000Y-177800000D01*
X56725000Y-178021844D01*
X56615183Y-178000000D01*
X56584817Y-178000000D01*
X56288237Y-178058993D01*
X56036809Y-178226992D01*
X55868810Y-178478420D01*
X55809817Y-178775000D01*
X52390183Y-178775000D01*
X52331190Y-178478420D01*
X52163191Y-178226992D01*
X51911763Y-178058993D01*
X51615183Y-178000000D01*
X51584817Y-178000000D01*
X51475000Y-178021844D01*
X51475000Y-177800000D01*
X50450000Y-177800000D01*
X50300000Y-177800000D01*
X49275000Y-177800000D01*
X28080000Y-177800000D01*
X28080000Y-177375000D01*
X49275000Y-177375000D01*
X49275000Y-177650000D01*
X50300000Y-177650000D01*
X50300000Y-176446549D01*
X50450000Y-176446549D01*
X50450000Y-177650000D01*
X51475000Y-177650000D01*
X51475000Y-177375000D01*
X56725000Y-177375000D01*
X56725000Y-177650000D01*
X57750000Y-177650000D01*
X57750000Y-176446549D01*
X57900000Y-176446549D01*
X57900000Y-177650000D01*
X58925000Y-177650000D01*
X58925000Y-177375000D01*
X58812566Y-176959757D01*
X58549784Y-176619149D01*
X58176660Y-176405031D01*
X58070754Y-176377804D01*
X57900000Y-176446549D01*
X57750000Y-176446549D01*
X57579246Y-176377804D01*
X57473340Y-176405031D01*
X57100216Y-176619149D01*
X56837434Y-176959757D01*
X56725000Y-177375000D01*
X51475000Y-177375000D01*
X51362566Y-176959757D01*
X51099784Y-176619149D01*
X50726660Y-176405031D01*
X50620754Y-176377804D01*
X50450000Y-176446549D01*
X50300000Y-176446549D01*
X50129246Y-176377804D01*
X50023340Y-176405031D01*
X49650216Y-176619149D01*
X49387434Y-176959757D01*
X49275000Y-177375000D01*
X28080000Y-177375000D01*
X28080000Y-173733677D01*
X40984883Y-173733677D01*
X41087429Y-173981857D01*
X41277144Y-174171903D01*
X41525145Y-174274883D01*
X41793677Y-174275117D01*
X42041857Y-174172571D01*
X42231903Y-173982856D01*
X42334883Y-173734855D01*
X42335117Y-173466323D01*
X42235000Y-173224022D01*
X42235000Y-171358172D01*
X42634495Y-170958677D01*
X44424883Y-170958677D01*
X44527429Y-171206857D01*
X44717144Y-171396903D01*
X44965145Y-171499883D01*
X45233677Y-171500117D01*
X45481857Y-171397571D01*
X45671903Y-171207856D01*
X45774883Y-170959855D01*
X45774973Y-170857133D01*
X48482106Y-168150000D01*
X52214454Y-168150000D01*
X52125117Y-168365145D01*
X52124883Y-168633677D01*
X52225000Y-168875978D01*
X52225000Y-173149602D01*
X52125117Y-173390145D01*
X52124883Y-173658677D01*
X52158485Y-173740000D01*
X52114634Y-173740000D01*
X52042856Y-173668097D01*
X51794855Y-173565117D01*
X51526323Y-173564883D01*
X51278143Y-173667429D01*
X51088097Y-173857144D01*
X50985117Y-174105145D01*
X50984883Y-174373677D01*
X51087429Y-174621857D01*
X51250414Y-174785127D01*
X51078097Y-174957144D01*
X50975117Y-175205145D01*
X50974883Y-175473677D01*
X51077429Y-175721857D01*
X51267144Y-175911903D01*
X51515145Y-176014883D01*
X51783677Y-176015117D01*
X52031857Y-175912571D01*
X52104555Y-175840000D01*
X53305288Y-175840000D01*
X53278097Y-175867144D01*
X53175117Y-176115145D01*
X53174883Y-176383677D01*
X53277429Y-176631857D01*
X53467144Y-176821903D01*
X53715145Y-176924883D01*
X53983677Y-176925117D01*
X54231857Y-176822571D01*
X54329598Y-176725000D01*
X55870366Y-176725000D01*
X55942144Y-176796903D01*
X56190145Y-176899883D01*
X56458677Y-176900117D01*
X56706857Y-176797571D01*
X56896903Y-176607856D01*
X56999883Y-176359855D01*
X57000117Y-176091323D01*
X56897571Y-175843143D01*
X56894433Y-175840000D01*
X58210000Y-175840000D01*
X58401342Y-175801940D01*
X58563553Y-175693553D01*
X60477106Y-173780000D01*
X73255428Y-173780000D01*
X73148097Y-173887144D01*
X73045117Y-174135145D01*
X73044883Y-174403677D01*
X73147429Y-174651857D01*
X73220000Y-174724555D01*
X73220000Y-175272893D01*
X70377341Y-178115553D01*
X70377720Y-177680573D01*
X70140353Y-177106100D01*
X69701212Y-176666192D01*
X69127154Y-176427822D01*
X68505573Y-176427280D01*
X67950049Y-176656818D01*
X68028374Y-176578629D01*
X68161148Y-176258873D01*
X68161451Y-175912646D01*
X68029234Y-175592659D01*
X67784629Y-175347626D01*
X67464873Y-175214852D01*
X67118646Y-175214549D01*
X66927445Y-175293552D01*
X66842571Y-175088143D01*
X66652856Y-174898097D01*
X66404855Y-174795117D01*
X66136323Y-174794883D01*
X65888143Y-174897429D01*
X65698097Y-175087144D01*
X65613861Y-175290005D01*
X65432873Y-175214852D01*
X65086646Y-175214549D01*
X64766659Y-175346766D01*
X64521626Y-175591371D01*
X64388852Y-175911127D01*
X64388549Y-176257354D01*
X64520766Y-176577341D01*
X64601143Y-176657859D01*
X64047154Y-176427822D01*
X63425573Y-176427280D01*
X62851100Y-176664647D01*
X62411192Y-177103788D01*
X62172822Y-177677846D01*
X62172280Y-178299427D01*
X62409647Y-178873900D01*
X62848788Y-179313808D01*
X63422846Y-179552178D01*
X64044427Y-179552720D01*
X64618900Y-179315353D01*
X65026694Y-178908270D01*
X65067429Y-179006857D01*
X65257144Y-179196903D01*
X65409165Y-179260028D01*
X65258143Y-179322429D01*
X65068097Y-179512144D01*
X64965117Y-179760145D01*
X64964883Y-180028677D01*
X65067429Y-180276857D01*
X65257144Y-180466903D01*
X65505145Y-180569883D01*
X65639175Y-180570000D01*
X65537626Y-180671371D01*
X65404852Y-180991127D01*
X65404549Y-181337354D01*
X65536766Y-181657341D01*
X65781371Y-181902374D01*
X66101127Y-182035148D01*
X66447354Y-182035451D01*
X66767341Y-181903234D01*
X67012374Y-181658629D01*
X67145148Y-181338873D01*
X67145451Y-180992646D01*
X67013234Y-180672659D01*
X66768629Y-180427626D01*
X66448873Y-180294852D01*
X66195100Y-180294630D01*
X66211903Y-180277856D01*
X66294061Y-180080000D01*
X67690327Y-180080000D01*
X67491192Y-180278788D01*
X67252822Y-180852846D01*
X67252280Y-181474427D01*
X67489647Y-182048900D01*
X67928788Y-182488808D01*
X68502846Y-182727178D01*
X69124427Y-182727720D01*
X69698900Y-182490353D01*
X70138808Y-182051212D01*
X70377178Y-181477154D01*
X70377720Y-180855573D01*
X70140353Y-180281100D01*
X69865491Y-180005758D01*
X69973553Y-179933553D01*
X74073554Y-175833553D01*
X74146086Y-175725001D01*
X74181940Y-175671342D01*
X74220000Y-175480000D01*
X74220000Y-174724634D01*
X74291903Y-174652856D01*
X74394883Y-174404855D01*
X74395117Y-174136323D01*
X74292571Y-173888143D01*
X74184616Y-173780000D01*
X79190000Y-173780000D01*
X79381342Y-173741940D01*
X79543553Y-173633553D01*
X86643553Y-166533554D01*
X86751940Y-166371342D01*
X86771080Y-166275117D01*
X86790000Y-166180000D01*
X86790000Y-146744634D01*
X86861903Y-146672856D01*
X86964883Y-146424855D01*
X86965117Y-146156323D01*
X86862571Y-145908143D01*
X86672856Y-145718097D01*
X86424855Y-145615117D01*
X86156323Y-145614883D01*
X85908143Y-145717429D01*
X85718097Y-145907144D01*
X85615117Y-146155145D01*
X85614883Y-146423677D01*
X85717429Y-146671857D01*
X85790000Y-146744555D01*
X85790000Y-165972893D01*
X78982894Y-172780000D01*
X65674957Y-172780000D01*
X65675117Y-172596323D01*
X65572571Y-172348143D01*
X65382856Y-172158097D01*
X65134855Y-172055117D01*
X64866323Y-172054883D01*
X64618143Y-172157429D01*
X64545445Y-172230000D01*
X60997107Y-172230000D01*
X60695028Y-171927922D01*
X60695117Y-171826323D01*
X60592571Y-171578143D01*
X60402856Y-171388097D01*
X60154855Y-171285117D01*
X59886323Y-171284883D01*
X59638143Y-171387429D01*
X59448097Y-171577144D01*
X59345117Y-171825145D01*
X59344883Y-172093677D01*
X59447429Y-172341857D01*
X59637144Y-172531903D01*
X59885145Y-172634883D01*
X59987866Y-172634973D01*
X60155641Y-172802747D01*
X60078658Y-172818060D01*
X59916447Y-172926447D01*
X58002894Y-174840000D01*
X52104634Y-174840000D01*
X52059586Y-174794873D01*
X52114555Y-174740000D01*
X54170000Y-174740000D01*
X54361342Y-174701940D01*
X54523553Y-174593553D01*
X59677106Y-169440000D01*
X69605366Y-169440000D01*
X69677144Y-169511903D01*
X69925145Y-169614883D01*
X70193677Y-169615117D01*
X70441857Y-169512571D01*
X70631903Y-169322856D01*
X70734883Y-169074855D01*
X70735117Y-168806323D01*
X70632571Y-168558143D01*
X70442856Y-168368097D01*
X70194855Y-168265117D01*
X69926323Y-168264883D01*
X69678143Y-168367429D01*
X69605445Y-168440000D01*
X59470000Y-168440000D01*
X59278658Y-168478060D01*
X59116447Y-168586447D01*
X53962894Y-173740000D01*
X53441604Y-173740000D01*
X53474883Y-173659855D01*
X53475117Y-173391323D01*
X53375000Y-173149022D01*
X53375000Y-168875398D01*
X53474883Y-168634855D01*
X53475117Y-168366323D01*
X53385734Y-168150000D01*
X53970366Y-168150000D01*
X54042144Y-168221903D01*
X54290145Y-168324883D01*
X54558677Y-168325117D01*
X54806857Y-168222571D01*
X54996903Y-168032856D01*
X55099883Y-167784855D01*
X55100117Y-167516323D01*
X54997571Y-167268143D01*
X54807856Y-167078097D01*
X54559855Y-166975117D01*
X54291323Y-166974883D01*
X54043143Y-167077429D01*
X53970445Y-167150000D01*
X48275000Y-167150000D01*
X48163634Y-167172152D01*
X48199883Y-167084855D01*
X48200117Y-166816323D01*
X48100000Y-166574022D01*
X48100000Y-160050398D01*
X48199883Y-159809855D01*
X48200117Y-159541323D01*
X48097571Y-159293143D01*
X47907856Y-159103097D01*
X47659855Y-159000117D01*
X47391323Y-158999883D01*
X47143143Y-159102429D01*
X46953097Y-159292144D01*
X46850117Y-159540145D01*
X46849883Y-159808677D01*
X46950000Y-160050978D01*
X46950000Y-166574602D01*
X46850117Y-166815145D01*
X46849883Y-167083677D01*
X46952429Y-167331857D01*
X47142144Y-167521903D01*
X47390145Y-167624883D01*
X47592834Y-167625060D01*
X45067922Y-170149972D01*
X44966323Y-170149883D01*
X44718143Y-170252429D01*
X44528097Y-170442144D01*
X44425117Y-170690145D01*
X44424883Y-170958677D01*
X42634495Y-170958677D01*
X45576587Y-168016586D01*
X45701231Y-167830043D01*
X45745000Y-167610000D01*
X45745000Y-165655398D01*
X45844883Y-165414855D01*
X45845117Y-165146323D01*
X45742571Y-164898143D01*
X45552856Y-164708097D01*
X45304855Y-164605117D01*
X45036323Y-164604883D01*
X44788143Y-164707429D01*
X44598097Y-164897144D01*
X44495117Y-165145145D01*
X44494883Y-165413677D01*
X44595000Y-165655978D01*
X44595000Y-167371827D01*
X41253414Y-170713414D01*
X41128769Y-170899957D01*
X41085000Y-171120000D01*
X41085000Y-173224602D01*
X40985117Y-173465145D01*
X40984883Y-173733677D01*
X28080000Y-173733677D01*
X28080000Y-157533677D01*
X31549883Y-157533677D01*
X31650000Y-157775978D01*
X31650000Y-165675000D01*
X31686372Y-165857856D01*
X31693769Y-165895043D01*
X31818414Y-166081586D01*
X33118414Y-167381587D01*
X33267542Y-167481231D01*
X33304957Y-167506231D01*
X33525000Y-167550000D01*
X39524602Y-167550000D01*
X39765145Y-167649883D01*
X40033677Y-167650117D01*
X40281857Y-167547571D01*
X40471903Y-167357856D01*
X40574883Y-167109855D01*
X40575117Y-166841323D01*
X40472571Y-166593143D01*
X40282856Y-166403097D01*
X40034855Y-166300117D01*
X39766323Y-166299883D01*
X39524022Y-166400000D01*
X33763173Y-166400000D01*
X32800000Y-165436828D01*
X32800000Y-157775398D01*
X32899883Y-157534855D01*
X32900117Y-157266323D01*
X32797571Y-157018143D01*
X32607856Y-156828097D01*
X32359855Y-156725117D01*
X32091323Y-156724883D01*
X31843143Y-156827429D01*
X31653097Y-157017144D01*
X31550117Y-157265145D01*
X31549883Y-157533677D01*
X28080000Y-157533677D01*
X28080000Y-154563677D01*
X35234883Y-154563677D01*
X35337429Y-154811857D01*
X35527144Y-155001903D01*
X35775145Y-155104883D01*
X36043677Y-155105117D01*
X36285978Y-155005000D01*
X37198439Y-155005000D01*
X37081016Y-155180737D01*
X36995000Y-155613169D01*
X36995000Y-157186831D01*
X37081016Y-157619263D01*
X37325969Y-157985862D01*
X37692568Y-158230815D01*
X38125000Y-158316831D01*
X38557432Y-158230815D01*
X38924031Y-157985862D01*
X39168984Y-157619263D01*
X39255000Y-157186831D01*
X39255000Y-156475000D01*
X39535000Y-156475000D01*
X39535000Y-157225000D01*
X39649717Y-157651723D01*
X39919002Y-158002064D01*
X40301858Y-158222686D01*
X40414542Y-158251894D01*
X40590000Y-158183532D01*
X40590000Y-156475000D01*
X40740000Y-156475000D01*
X40740000Y-158183532D01*
X40915458Y-158251894D01*
X41028142Y-158222686D01*
X41410998Y-158002064D01*
X41680283Y-157651723D01*
X41795000Y-157225000D01*
X41795000Y-156475000D01*
X40740000Y-156475000D01*
X40590000Y-156475000D01*
X39535000Y-156475000D01*
X39255000Y-156475000D01*
X39255000Y-155613169D01*
X39168984Y-155180737D01*
X39051561Y-155005000D01*
X39759845Y-155005000D01*
X39649717Y-155148277D01*
X39535000Y-155575000D01*
X39535000Y-156325000D01*
X40590000Y-156325000D01*
X40590000Y-156305000D01*
X40740000Y-156305000D01*
X40740000Y-156325000D01*
X41795000Y-156325000D01*
X41795000Y-155575000D01*
X41680283Y-155148277D01*
X41570155Y-155005000D01*
X51224602Y-155005000D01*
X51465145Y-155104883D01*
X51733677Y-155105117D01*
X51981857Y-155002571D01*
X52171903Y-154812856D01*
X52274883Y-154564855D01*
X52275117Y-154296323D01*
X52172571Y-154048143D01*
X51982856Y-153858097D01*
X51734855Y-153755117D01*
X51466323Y-153754883D01*
X51224022Y-153855000D01*
X36285398Y-153855000D01*
X36044855Y-153755117D01*
X35776323Y-153754883D01*
X35528143Y-153857429D01*
X35338097Y-154047144D01*
X35235117Y-154295145D01*
X35234883Y-154563677D01*
X28080000Y-154563677D01*
X28080000Y-143700000D01*
X29258169Y-143700000D01*
X29344185Y-144132432D01*
X29589138Y-144499031D01*
X29955737Y-144743984D01*
X30388169Y-144830000D01*
X31961831Y-144830000D01*
X32394263Y-144743984D01*
X32760862Y-144499031D01*
X33005815Y-144132432D01*
X33091831Y-143700000D01*
X33005815Y-143267568D01*
X32760862Y-142900969D01*
X32394263Y-142656016D01*
X31961831Y-142570000D01*
X30388169Y-142570000D01*
X29955737Y-142656016D01*
X29589138Y-142900969D01*
X29344185Y-143267568D01*
X29258169Y-143700000D01*
X28080000Y-143700000D01*
X28080000Y-141160000D01*
X29258169Y-141160000D01*
X29344185Y-141592432D01*
X29589138Y-141959031D01*
X29955737Y-142203984D01*
X30388169Y-142290000D01*
X31961831Y-142290000D01*
X32394263Y-142203984D01*
X32760862Y-141959031D01*
X33005815Y-141592432D01*
X33091831Y-141160000D01*
X33005815Y-140727568D01*
X32760862Y-140360969D01*
X32394263Y-140116016D01*
X31961831Y-140030000D01*
X30388169Y-140030000D01*
X29955737Y-140116016D01*
X29589138Y-140360969D01*
X29344185Y-140727568D01*
X29258169Y-141160000D01*
X28080000Y-141160000D01*
X28080000Y-139383677D01*
X36364883Y-139383677D01*
X36467429Y-139631857D01*
X36657144Y-139821903D01*
X36905145Y-139924883D01*
X37173677Y-139925117D01*
X37421857Y-139822571D01*
X37494555Y-139750000D01*
X37532894Y-139750000D01*
X42274972Y-144492078D01*
X42274883Y-144593677D01*
X42377429Y-144841857D01*
X42565406Y-145030162D01*
X42495445Y-145100000D01*
X37494634Y-145100000D01*
X37422856Y-145028097D01*
X37174855Y-144925117D01*
X36906323Y-144924883D01*
X36658143Y-145027429D01*
X36468097Y-145217144D01*
X36365117Y-145465145D01*
X36364883Y-145733677D01*
X36467429Y-145981857D01*
X36657144Y-146171903D01*
X36905145Y-146274883D01*
X37173677Y-146275117D01*
X37421857Y-146172571D01*
X37494555Y-146100000D01*
X42495366Y-146100000D01*
X42567144Y-146171903D01*
X42815145Y-146274883D01*
X43083677Y-146275117D01*
X43331857Y-146172571D01*
X43521903Y-145982856D01*
X43624883Y-145734855D01*
X43625117Y-145466323D01*
X43522571Y-145218143D01*
X43334594Y-145029838D01*
X43521903Y-144842856D01*
X43624883Y-144594855D01*
X43625117Y-144326323D01*
X43522571Y-144078143D01*
X43332856Y-143888097D01*
X43084855Y-143785117D01*
X42982134Y-143785027D01*
X41631078Y-142433971D01*
X43754909Y-142433971D01*
X43780000Y-142494696D01*
X43780000Y-145390000D01*
X43811849Y-145550117D01*
X43818060Y-145581342D01*
X43926447Y-145743553D01*
X44628221Y-146445328D01*
X44595092Y-146525113D01*
X44594909Y-146733971D01*
X44634587Y-146829998D01*
X44595092Y-146925113D01*
X44594909Y-147133971D01*
X44620000Y-147194696D01*
X44620000Y-147222893D01*
X44366447Y-147476447D01*
X44258060Y-147638658D01*
X44220000Y-147830000D01*
X44220000Y-148290000D01*
X44253108Y-148456447D01*
X44258060Y-148481342D01*
X44366447Y-148643553D01*
X44886447Y-149163553D01*
X45048658Y-149271940D01*
X45240000Y-149310000D01*
X51440000Y-149310000D01*
X51631342Y-149271940D01*
X51793553Y-149163553D01*
X52526792Y-148430315D01*
X52527429Y-148431857D01*
X52717144Y-148621903D01*
X52965145Y-148724883D01*
X53233677Y-148725117D01*
X53439676Y-148640000D01*
X53557894Y-148640000D01*
X60581970Y-155664077D01*
X60374022Y-155750000D01*
X54300000Y-155750000D01*
X54079957Y-155793769D01*
X53893414Y-155918413D01*
X48693414Y-161118414D01*
X48568769Y-161304957D01*
X48525000Y-161525000D01*
X48525000Y-162924602D01*
X48425117Y-163165145D01*
X48424883Y-163433677D01*
X48527429Y-163681857D01*
X48717144Y-163871903D01*
X48965145Y-163974883D01*
X49233677Y-163975117D01*
X49481857Y-163872571D01*
X49671903Y-163682856D01*
X49774883Y-163434855D01*
X49775117Y-163166323D01*
X49675000Y-162924022D01*
X49675000Y-161763172D01*
X54538173Y-156900000D01*
X60374602Y-156900000D01*
X60615145Y-156999883D01*
X60883677Y-157000117D01*
X61000000Y-156952053D01*
X61000000Y-161467893D01*
X59721447Y-162746447D01*
X59613060Y-162908658D01*
X59575000Y-163100000D01*
X59575000Y-164600000D01*
X59604592Y-164748769D01*
X59613060Y-164791342D01*
X59721447Y-164953553D01*
X60796447Y-166028554D01*
X60796450Y-166028556D01*
X61571447Y-166803554D01*
X61626210Y-166840145D01*
X61733658Y-166911940D01*
X61925000Y-166950000D01*
X66220366Y-166950000D01*
X66292144Y-167021903D01*
X66540145Y-167124883D01*
X66808677Y-167125117D01*
X67056857Y-167022571D01*
X67246903Y-166832856D01*
X67349883Y-166584855D01*
X67350117Y-166316323D01*
X67247571Y-166068143D01*
X67057856Y-165878097D01*
X66809855Y-165775117D01*
X66541323Y-165774883D01*
X66468937Y-165804792D01*
X66549883Y-165609855D01*
X66550117Y-165341323D01*
X66447571Y-165093143D01*
X66257856Y-164903097D01*
X66009855Y-164800117D01*
X65907133Y-164800027D01*
X65553553Y-164446447D01*
X65391342Y-164338060D01*
X65200000Y-164300000D01*
X63654969Y-164300000D01*
X63781857Y-164247571D01*
X63971903Y-164057856D01*
X64074883Y-163809855D01*
X64074973Y-163707134D01*
X64878553Y-162903554D01*
X64878555Y-162903551D01*
X69554443Y-158227663D01*
X69550000Y-158250000D01*
X69550000Y-166995366D01*
X69478097Y-167067144D01*
X69375117Y-167315145D01*
X69374883Y-167583677D01*
X69477429Y-167831857D01*
X69667144Y-168021903D01*
X69915145Y-168124883D01*
X70183677Y-168125117D01*
X70431857Y-168022571D01*
X70621903Y-167832856D01*
X70724883Y-167584855D01*
X70725117Y-167316323D01*
X70622571Y-167068143D01*
X70550000Y-166995445D01*
X70550000Y-158457106D01*
X71082078Y-157925028D01*
X71183677Y-157925117D01*
X71431857Y-157822571D01*
X71621903Y-157632856D01*
X71724883Y-157384855D01*
X71724951Y-157307057D01*
X72660000Y-158242107D01*
X72660000Y-168485366D01*
X72588097Y-168557144D01*
X72485117Y-168805145D01*
X72484883Y-169073677D01*
X72587429Y-169321857D01*
X72777144Y-169511903D01*
X73025145Y-169614883D01*
X73293677Y-169615117D01*
X73541857Y-169512571D01*
X73731903Y-169322856D01*
X73813661Y-169125962D01*
X73835145Y-169134883D01*
X74103677Y-169135117D01*
X74351857Y-169032571D01*
X74541903Y-168842856D01*
X74644883Y-168594855D01*
X74645117Y-168326323D01*
X74542571Y-168078143D01*
X74470000Y-168005445D01*
X74470000Y-165993677D01*
X77344883Y-165993677D01*
X77447429Y-166241857D01*
X77520000Y-166314555D01*
X77520000Y-167165366D01*
X77448097Y-167237144D01*
X77345117Y-167485145D01*
X77344883Y-167753677D01*
X77447429Y-168001857D01*
X77637144Y-168191903D01*
X77885145Y-168294883D01*
X78153677Y-168295117D01*
X78401857Y-168192571D01*
X78591903Y-168002856D01*
X78694883Y-167754855D01*
X78695117Y-167486323D01*
X78592571Y-167238143D01*
X78520000Y-167165445D01*
X78520000Y-166314634D01*
X78591903Y-166242856D01*
X78694883Y-165994855D01*
X78695117Y-165726323D01*
X78592571Y-165478143D01*
X78402856Y-165288097D01*
X78154855Y-165185117D01*
X77886323Y-165184883D01*
X77638143Y-165287429D01*
X77448097Y-165477144D01*
X77345117Y-165725145D01*
X77344883Y-165993677D01*
X74470000Y-165993677D01*
X74470000Y-157702106D01*
X76850000Y-160082107D01*
X76850000Y-163270366D01*
X76778097Y-163342144D01*
X76675117Y-163590145D01*
X76674883Y-163858677D01*
X76777429Y-164106857D01*
X76967144Y-164296903D01*
X77215145Y-164399883D01*
X77483677Y-164400117D01*
X77731857Y-164297571D01*
X77921903Y-164107856D01*
X78024883Y-163859855D01*
X78025111Y-163597878D01*
X78090145Y-163624883D01*
X78358677Y-163625117D01*
X78606857Y-163522571D01*
X78796903Y-163332856D01*
X78899883Y-163084855D01*
X78900117Y-162816323D01*
X78797571Y-162568143D01*
X78725000Y-162495445D01*
X78725000Y-159625000D01*
X78686940Y-159433658D01*
X78645676Y-159371903D01*
X78578553Y-159271446D01*
X74000028Y-154692922D01*
X74000117Y-154591323D01*
X73897571Y-154343143D01*
X73707856Y-154153097D01*
X73652143Y-154129963D01*
X76128553Y-151653554D01*
X76128555Y-151653551D01*
X80482106Y-147300000D01*
X81500000Y-147300000D01*
X81691342Y-147261940D01*
X81853553Y-147153553D01*
X82657078Y-146350028D01*
X82758677Y-146350117D01*
X83006857Y-146247571D01*
X83196903Y-146057856D01*
X83299883Y-145809855D01*
X83300117Y-145541323D01*
X83197571Y-145293143D01*
X83007856Y-145103097D01*
X82759855Y-145000117D01*
X82491323Y-144999883D01*
X82243143Y-145102429D01*
X82053097Y-145292144D01*
X81950117Y-145540145D01*
X81950027Y-145642866D01*
X81292894Y-146300000D01*
X80275000Y-146300000D01*
X80224992Y-146309947D01*
X80225117Y-146166323D01*
X80122571Y-145918143D01*
X79932856Y-145728097D01*
X79684855Y-145625117D01*
X79416323Y-145624883D01*
X79168143Y-145727429D01*
X79095445Y-145800000D01*
X78543594Y-145800000D01*
X78549883Y-145784855D01*
X78550117Y-145516323D01*
X78447571Y-145268143D01*
X78257856Y-145078097D01*
X78009855Y-144975117D01*
X77741323Y-144974883D01*
X77493143Y-145077429D01*
X77303097Y-145267144D01*
X77200117Y-145515145D01*
X77200027Y-145617866D01*
X73521447Y-149296447D01*
X73413060Y-149458658D01*
X73375000Y-149650000D01*
X73375000Y-150117893D01*
X67721449Y-155771445D01*
X67721446Y-155771447D01*
X65367922Y-158124972D01*
X65266323Y-158124883D01*
X65018143Y-158227429D01*
X64828097Y-158417144D01*
X64725117Y-158665145D01*
X64724883Y-158933677D01*
X64827429Y-159181857D01*
X65017144Y-159371903D01*
X65125851Y-159417043D01*
X64871450Y-159671444D01*
X64871447Y-159671446D01*
X62700000Y-161842894D01*
X62700000Y-155475000D01*
X62661940Y-155283658D01*
X62553553Y-155121447D01*
X62403556Y-154971450D01*
X62403554Y-154971447D01*
X58750000Y-151317894D01*
X58750000Y-148670328D01*
X58785113Y-148684908D01*
X58993971Y-148685091D01*
X59054696Y-148660000D01*
X60555127Y-148660000D01*
X60615113Y-148684908D01*
X60823971Y-148685091D01*
X61017000Y-148605333D01*
X61145225Y-148477332D01*
X63925000Y-151257107D01*
X63925000Y-155970366D01*
X63853097Y-156042144D01*
X63750117Y-156290145D01*
X63749883Y-156558677D01*
X63852429Y-156806857D01*
X64042144Y-156996903D01*
X64290145Y-157099883D01*
X64558677Y-157100117D01*
X64806857Y-156997571D01*
X64996903Y-156807856D01*
X65099883Y-156559855D01*
X65100117Y-156291323D01*
X64997571Y-156043143D01*
X64925000Y-155970445D01*
X64925000Y-151050000D01*
X64886940Y-150858658D01*
X64853531Y-150808658D01*
X64778554Y-150696447D01*
X58925028Y-144842922D01*
X58925117Y-144741323D01*
X58822571Y-144493143D01*
X58719608Y-144390000D01*
X60972894Y-144390000D01*
X62976446Y-146393553D01*
X63122796Y-146491341D01*
X63138658Y-146501940D01*
X63330000Y-146540000D01*
X65420000Y-146540000D01*
X65611342Y-146501940D01*
X65773553Y-146393553D01*
X66223553Y-145943553D01*
X66279676Y-145859560D01*
X66347371Y-145927374D01*
X66667127Y-146060148D01*
X67013354Y-146060451D01*
X67333341Y-145928234D01*
X67578374Y-145683629D01*
X67711148Y-145363873D01*
X67711451Y-145017646D01*
X67579234Y-144697659D01*
X67498857Y-144617141D01*
X68052846Y-144847178D01*
X68674427Y-144847720D01*
X69248900Y-144610353D01*
X69688808Y-144171212D01*
X69927178Y-143597154D01*
X69927720Y-142975573D01*
X69690353Y-142401100D01*
X69251212Y-141961192D01*
X68677154Y-141722822D01*
X68055573Y-141722280D01*
X67481100Y-141959647D01*
X67073306Y-142366730D01*
X67032571Y-142268143D01*
X66842856Y-142078097D01*
X66594855Y-141975117D01*
X66326323Y-141974883D01*
X66078143Y-142077429D01*
X65888097Y-142267144D01*
X65785117Y-142515145D01*
X65784883Y-142783677D01*
X65887429Y-143031857D01*
X65960000Y-143104555D01*
X65960000Y-143712894D01*
X65714967Y-143957927D01*
X65715091Y-143816029D01*
X65690000Y-143755304D01*
X65690000Y-142630000D01*
X65651940Y-142438658D01*
X65608526Y-142373686D01*
X65543554Y-142276447D01*
X64613553Y-141346447D01*
X64451342Y-141238060D01*
X64380628Y-141223994D01*
X64608808Y-140996212D01*
X64847178Y-140422154D01*
X64847299Y-140282354D01*
X64954549Y-140282354D01*
X65086766Y-140602341D01*
X65331371Y-140847374D01*
X65651127Y-140980148D01*
X65997354Y-140980451D01*
X66317341Y-140848234D01*
X66562374Y-140603629D01*
X66638861Y-140419427D01*
X66802280Y-140419427D01*
X67039647Y-140993900D01*
X67478788Y-141433808D01*
X68052846Y-141672178D01*
X68674427Y-141672720D01*
X69248900Y-141435353D01*
X69688808Y-140996212D01*
X69927178Y-140422154D01*
X69927720Y-139800573D01*
X69690353Y-139226100D01*
X69251212Y-138786192D01*
X68677154Y-138547822D01*
X68055573Y-138547280D01*
X67481100Y-138784647D01*
X67041192Y-139223788D01*
X66802822Y-139797846D01*
X66802280Y-140419427D01*
X66638861Y-140419427D01*
X66695148Y-140283873D01*
X66695451Y-139937646D01*
X66563234Y-139617659D01*
X66318629Y-139372626D01*
X65998873Y-139239852D01*
X65652646Y-139239549D01*
X65332659Y-139371766D01*
X65087626Y-139616371D01*
X64954852Y-139936127D01*
X64954549Y-140282354D01*
X64847299Y-140282354D01*
X64847720Y-139800573D01*
X64610353Y-139226100D01*
X64171212Y-138786192D01*
X63597154Y-138547822D01*
X62975573Y-138547280D01*
X62401100Y-138784647D01*
X61961192Y-139223788D01*
X61722822Y-139797846D01*
X61722280Y-140419427D01*
X61959647Y-140993900D01*
X62165388Y-141200000D01*
X55990000Y-141200000D01*
X55798658Y-141238060D01*
X55636447Y-141346447D01*
X50852894Y-146130000D01*
X49024873Y-146130000D01*
X48964887Y-146105092D01*
X48756029Y-146104909D01*
X48695304Y-146130000D01*
X45645088Y-146130000D01*
X45645091Y-146126029D01*
X45565333Y-145933000D01*
X45417777Y-145785186D01*
X45357096Y-145759989D01*
X44780000Y-145182894D01*
X44780000Y-142494873D01*
X44804908Y-142434887D01*
X44805091Y-142226029D01*
X44725333Y-142033000D01*
X44577777Y-141885186D01*
X44384887Y-141805092D01*
X44176029Y-141804909D01*
X43983000Y-141884667D01*
X43835186Y-142032223D01*
X43755092Y-142225113D01*
X43754909Y-142433971D01*
X41631078Y-142433971D01*
X38093553Y-138896447D01*
X37931342Y-138788060D01*
X37921951Y-138786192D01*
X37740000Y-138750000D01*
X37494634Y-138750000D01*
X37422856Y-138678097D01*
X37174855Y-138575117D01*
X36906323Y-138574883D01*
X36658143Y-138677429D01*
X36468097Y-138867144D01*
X36365117Y-139115145D01*
X36364883Y-139383677D01*
X28080000Y-139383677D01*
X28080000Y-137980000D01*
X87820000Y-137980000D01*
X87820000Y-183020000D01*
M02*
