G04 #@! TF.FileFunction,Legend,Top*
%FSLAX46Y46*%
G04 Gerber Fmt 4.6, Leading zero omitted, Abs format (unit mm)*
G04 Created by KiCad (PCBNEW 4.0.6+dfsg1-1) date Tue Dec 26 18:50:37 2017*
%MOMM*%
%LPD*%
G01*
G04 APERTURE LIST*
%ADD10C,0.100000*%
%ADD11C,0.300000*%
%ADD12C,0.120000*%
%ADD13C,0.150000*%
G04 APERTURE END LIST*
D10*
D11*
X30113095Y-181310714D02*
X30113095Y-181929761D01*
X28813095Y-181929761D01*
X29432143Y-180877380D02*
X29432143Y-180444047D01*
X30113095Y-180258333D02*
X30113095Y-180877380D01*
X28813095Y-180877380D01*
X28813095Y-180258333D01*
X30113095Y-179701190D02*
X28813095Y-179701190D01*
X28813095Y-179391666D01*
X28875000Y-179205952D01*
X28998810Y-179082143D01*
X29122619Y-179020238D01*
X29370238Y-178958333D01*
X29555952Y-178958333D01*
X29803571Y-179020238D01*
X29927381Y-179082143D01*
X30051190Y-179205952D01*
X30113095Y-179391666D01*
X30113095Y-179701190D01*
X28875000Y-177720238D02*
X28813095Y-177844047D01*
X28813095Y-178029762D01*
X28875000Y-178215476D01*
X28998810Y-178339285D01*
X29122619Y-178401190D01*
X29370238Y-178463095D01*
X29555952Y-178463095D01*
X29803571Y-178401190D01*
X29927381Y-178339285D01*
X30051190Y-178215476D01*
X30113095Y-178029762D01*
X30113095Y-177905952D01*
X30051190Y-177720238D01*
X29989286Y-177658333D01*
X29555952Y-177658333D01*
X29555952Y-177905952D01*
X29432143Y-177101190D02*
X29432143Y-176667857D01*
X30113095Y-176482143D02*
X30113095Y-177101190D01*
X28813095Y-177101190D01*
X28813095Y-176482143D01*
X30113095Y-175182143D02*
X29494048Y-175615476D01*
X30113095Y-175925000D02*
X28813095Y-175925000D01*
X28813095Y-175429762D01*
X28875000Y-175305953D01*
X28936905Y-175244048D01*
X29060714Y-175182143D01*
X29246429Y-175182143D01*
X29370238Y-175244048D01*
X29432143Y-175305953D01*
X29494048Y-175429762D01*
X29494048Y-175925000D01*
X29432143Y-173201191D02*
X29494048Y-173015477D01*
X29555952Y-172953572D01*
X29679762Y-172891667D01*
X29865476Y-172891667D01*
X29989286Y-172953572D01*
X30051190Y-173015477D01*
X30113095Y-173139286D01*
X30113095Y-173634524D01*
X28813095Y-173634524D01*
X28813095Y-173201191D01*
X28875000Y-173077381D01*
X28936905Y-173015477D01*
X29060714Y-172953572D01*
X29184524Y-172953572D01*
X29308333Y-173015477D01*
X29370238Y-173077381D01*
X29432143Y-173201191D01*
X29432143Y-173634524D01*
X30113095Y-171715477D02*
X30113095Y-172334524D01*
X28813095Y-172334524D01*
X28813095Y-171282143D02*
X29865476Y-171282143D01*
X29989286Y-171220238D01*
X30051190Y-171158334D01*
X30113095Y-171034524D01*
X30113095Y-170786905D01*
X30051190Y-170663096D01*
X29989286Y-170601191D01*
X29865476Y-170539286D01*
X28813095Y-170539286D01*
X29432143Y-169920238D02*
X29432143Y-169486905D01*
X30113095Y-169301191D02*
X30113095Y-169920238D01*
X28813095Y-169920238D01*
X28813095Y-169301191D01*
X30113095Y-167753572D02*
X28813095Y-167753572D01*
X28813095Y-167258334D01*
X28875000Y-167134525D01*
X28936905Y-167072620D01*
X29060714Y-167010715D01*
X29246429Y-167010715D01*
X29370238Y-167072620D01*
X29432143Y-167134525D01*
X29494048Y-167258334D01*
X29494048Y-167753572D01*
X28813095Y-166205953D02*
X28813095Y-165958334D01*
X28875000Y-165834525D01*
X28998810Y-165710715D01*
X29246429Y-165648810D01*
X29679762Y-165648810D01*
X29927381Y-165710715D01*
X30051190Y-165834525D01*
X30113095Y-165958334D01*
X30113095Y-166205953D01*
X30051190Y-166329763D01*
X29927381Y-166453572D01*
X29679762Y-166515477D01*
X29246429Y-166515477D01*
X28998810Y-166453572D01*
X28875000Y-166329763D01*
X28813095Y-166205953D01*
X30113095Y-164348810D02*
X29494048Y-164782143D01*
X30113095Y-165091667D02*
X28813095Y-165091667D01*
X28813095Y-164596429D01*
X28875000Y-164472620D01*
X28936905Y-164410715D01*
X29060714Y-164348810D01*
X29246429Y-164348810D01*
X29370238Y-164410715D01*
X29432143Y-164472620D01*
X29494048Y-164596429D01*
X29494048Y-165091667D01*
X28813095Y-163977381D02*
X28813095Y-163234524D01*
X30113095Y-163605953D02*
X28813095Y-163605953D01*
D12*
X54530000Y-153580000D02*
X53530000Y-153580000D01*
X53530000Y-155280000D02*
X54530000Y-155280000D01*
X55100000Y-159575000D02*
X55100000Y-158575000D01*
X53400000Y-158575000D02*
X53400000Y-159575000D01*
X37450000Y-176075000D02*
X37450000Y-175075000D01*
X35750000Y-175075000D02*
X35750000Y-176075000D01*
X44250000Y-179975000D02*
X44250000Y-178975000D01*
X42550000Y-178975000D02*
X42550000Y-179975000D01*
D13*
X49950000Y-178925000D02*
X49950000Y-180325000D01*
X49950000Y-182725000D02*
X49950000Y-182875000D01*
X49950000Y-182875000D02*
X50250000Y-182875000D01*
X50250000Y-182875000D02*
X50250000Y-183325000D01*
X57950000Y-183325000D02*
X57950000Y-182875000D01*
X57950000Y-182875000D02*
X58250000Y-182875000D01*
X58250000Y-182875000D02*
X58250000Y-182725000D01*
X58250000Y-180325000D02*
X58250000Y-178925000D01*
X53025000Y-176750000D02*
X52300000Y-176750000D01*
X52300000Y-176750000D02*
X52300000Y-177175000D01*
X52300000Y-177175000D02*
X51300000Y-177175000D01*
X55900000Y-177175000D02*
X56900000Y-177175000D01*
D12*
X38050000Y-178205000D02*
X40050000Y-178205000D01*
X40050000Y-180345000D02*
X38050000Y-180345000D01*
X47520000Y-154635000D02*
X47520000Y-156435000D01*
X50740000Y-156435000D02*
X50740000Y-153985000D01*
D13*
X46235000Y-170560000D02*
X46335000Y-170560000D01*
X46235000Y-165910000D02*
X46435000Y-165910000D01*
X49485000Y-165910000D02*
X49285000Y-165910000D01*
X49485000Y-170560000D02*
X49285000Y-170560000D01*
X46235000Y-170560000D02*
X46235000Y-165910000D01*
X49485000Y-170560000D02*
X49485000Y-165910000D01*
X46335000Y-170560000D02*
X46335000Y-171910000D01*
X70815000Y-160520000D02*
X69815000Y-160520000D01*
X70815000Y-170870000D02*
X69740000Y-170870000D01*
X60465000Y-170870000D02*
X61540000Y-170870000D01*
X60465000Y-160520000D02*
X61540000Y-160520000D01*
X70815000Y-160520000D02*
X70815000Y-161595000D01*
X60465000Y-160520000D02*
X60465000Y-161595000D01*
X60465000Y-170870000D02*
X60465000Y-169795000D01*
X70815000Y-170870000D02*
X70815000Y-169795000D01*
X69815000Y-160520000D02*
X69815000Y-159495000D01*
X34805000Y-165915000D02*
X34805000Y-168015000D01*
X38055000Y-165140000D02*
X38055000Y-168015000D01*
X40850000Y-177175000D02*
X42000000Y-177175000D01*
X40075000Y-174925000D02*
X42000000Y-174925000D01*
D12*
X77825000Y-153225000D02*
X77825000Y-153625000D01*
X77825000Y-153625000D02*
X78625000Y-153625000D01*
X78625000Y-159025000D02*
X77825000Y-159025000D01*
X80025000Y-155425000D02*
X80025000Y-157225000D01*
X76425000Y-157225000D02*
X76425000Y-155425000D01*
X76425000Y-155425000D02*
X76185000Y-155425000D01*
X64555000Y-140745000D02*
X65190000Y-140745000D01*
X64555000Y-141380000D02*
X64555000Y-140745000D01*
X67545000Y-180530000D02*
X66910000Y-180530000D01*
X67545000Y-179895000D02*
X67545000Y-180530000D01*
X57075000Y-155275000D02*
X58075000Y-155275000D01*
X58075000Y-153575000D02*
X57075000Y-153575000D01*
X56150000Y-169725000D02*
X56150000Y-170725000D01*
X57850000Y-170725000D02*
X57850000Y-169725000D01*
X70475000Y-174000000D02*
X71475000Y-174000000D01*
X71475000Y-172300000D02*
X70475000Y-172300000D01*
X74900000Y-160075000D02*
X73900000Y-160075000D01*
X73900000Y-161775000D02*
X74900000Y-161775000D01*
X77925000Y-161775000D02*
X78925000Y-161775000D01*
X78925000Y-160075000D02*
X77925000Y-160075000D01*
X74000000Y-152825000D02*
X74000000Y-153825000D01*
X75700000Y-153825000D02*
X75700000Y-152825000D01*
X50925000Y-151525000D02*
X50925000Y-150525000D01*
X49225000Y-150525000D02*
X49225000Y-151525000D01*
X53950000Y-151525000D02*
X53950000Y-150525000D01*
X52250000Y-150525000D02*
X52250000Y-151525000D01*
X40825000Y-164725000D02*
X39825000Y-164725000D01*
X39825000Y-166425000D02*
X40825000Y-166425000D01*
X37250000Y-161700000D02*
X37250000Y-162700000D01*
X38950000Y-162700000D02*
X38950000Y-161700000D01*
X57525000Y-151525000D02*
X57525000Y-150525000D01*
X55825000Y-150525000D02*
X55825000Y-151525000D01*
X44225000Y-167850000D02*
X44225000Y-166850000D01*
X42525000Y-166850000D02*
X42525000Y-167850000D01*
X45640000Y-142850000D02*
X44640000Y-142850000D01*
X44640000Y-144550000D02*
X45640000Y-144550000D01*
X40275000Y-144550000D02*
X41275000Y-144550000D01*
X41275000Y-142850000D02*
X40275000Y-142850000D01*
X43425000Y-139650000D02*
X43425000Y-140650000D01*
X45125000Y-140650000D02*
X45125000Y-139650000D01*
X40275000Y-147475000D02*
X41275000Y-147475000D01*
X41275000Y-145775000D02*
X40275000Y-145775000D01*
X40275000Y-142000000D02*
X41275000Y-142000000D01*
X41275000Y-140300000D02*
X40275000Y-140300000D01*
X36200000Y-162700000D02*
X36200000Y-161700000D01*
X34500000Y-161700000D02*
X34500000Y-162700000D01*
X36875000Y-141900000D02*
X36875000Y-142900000D01*
X38575000Y-142900000D02*
X38575000Y-141900000D01*
X43125000Y-152550000D02*
X44725000Y-152550000D01*
X44725000Y-152550000D02*
X44725000Y-149950000D01*
X43125000Y-152550000D02*
X43125000Y-149950000D01*
X38300000Y-150755000D02*
X37100000Y-150755000D01*
X37100000Y-148995000D02*
X38300000Y-148995000D01*
X39770000Y-151425000D02*
X39770000Y-150225000D01*
X41530000Y-150225000D02*
X41530000Y-151425000D01*
X40780000Y-171175000D02*
X40780000Y-172375000D01*
X39020000Y-172375000D02*
X39020000Y-171175000D01*
X54100000Y-160995000D02*
X55300000Y-160995000D01*
X55300000Y-162755000D02*
X54100000Y-162755000D01*
X44305000Y-171175000D02*
X44305000Y-172375000D01*
X42545000Y-172375000D02*
X42545000Y-171175000D01*
X55300000Y-164805000D02*
X54100000Y-164805000D01*
X54100000Y-163045000D02*
X55300000Y-163045000D01*
X46805000Y-154800000D02*
X46805000Y-156000000D01*
X45045000Y-156000000D02*
X45045000Y-154800000D01*
X48005000Y-150225000D02*
X48005000Y-151425000D01*
X46245000Y-151425000D02*
X46245000Y-150225000D01*
X33220000Y-158000000D02*
X33220000Y-156800000D01*
X34980000Y-156800000D02*
X34980000Y-158000000D01*
X71625000Y-175855000D02*
X70425000Y-175855000D01*
X70425000Y-174095000D02*
X71625000Y-174095000D01*
X49730000Y-147890000D02*
X48530000Y-147890000D01*
X48530000Y-146130000D02*
X49730000Y-146130000D01*
X48840000Y-139590000D02*
X48840000Y-140790000D01*
X47080000Y-140790000D02*
X47080000Y-139590000D01*
X51230000Y-139590000D02*
X51230000Y-140790000D01*
X49470000Y-140790000D02*
X49470000Y-139590000D01*
X32470000Y-172375000D02*
X32470000Y-171175000D01*
X34230000Y-171175000D02*
X34230000Y-172375000D01*
X35745000Y-172375000D02*
X35745000Y-171175000D01*
X37505000Y-171175000D02*
X37505000Y-172375000D01*
X34695000Y-145250000D02*
X34695000Y-144050000D01*
X36455000Y-144050000D02*
X36455000Y-145250000D01*
X36455000Y-139600000D02*
X36455000Y-140800000D01*
X34695000Y-140800000D02*
X34695000Y-139600000D01*
X45595000Y-179875000D02*
X45595000Y-178675000D01*
X47355000Y-178675000D02*
X47355000Y-179875000D01*
X41935000Y-155130000D02*
X36855000Y-155130000D01*
X41935000Y-159570000D02*
X36855000Y-159570000D01*
X36855000Y-153230000D02*
X41935000Y-153230000D01*
X36855000Y-153230000D02*
X36855000Y-159570000D01*
X41935000Y-153230000D02*
X41935000Y-159570000D01*
D13*
X87025000Y-148500000D02*
X72825000Y-148500000D01*
X72825000Y-148500000D02*
X72825000Y-144300000D01*
X72825000Y-144300000D02*
X87025000Y-144300000D01*
X87025000Y-144300000D02*
X87025000Y-148500000D01*
X60820000Y-152640000D02*
X60820000Y-146840000D01*
X60820000Y-146840000D02*
X70820000Y-146840000D01*
X70820000Y-146840000D02*
X70820000Y-152640000D01*
X70820000Y-152640000D02*
X60820000Y-152640000D01*
D12*
X29905000Y-139890000D02*
X29905000Y-144970000D01*
X34345000Y-139890000D02*
X34345000Y-144970000D01*
X28005000Y-144970000D02*
X28005000Y-139890000D01*
X28005000Y-144970000D02*
X34345000Y-144970000D01*
X28005000Y-139890000D02*
X34345000Y-139890000D01*
D13*
X83114095Y-179971581D02*
X83114095Y-180781105D01*
X83161714Y-180876343D01*
X83209333Y-180923962D01*
X83304571Y-180971581D01*
X83495048Y-180971581D01*
X83590286Y-180923962D01*
X83637905Y-180876343D01*
X83685524Y-180781105D01*
X83685524Y-179971581D01*
X84066476Y-179971581D02*
X84733143Y-179971581D01*
X84304571Y-180971581D01*
X53763334Y-156387143D02*
X53715715Y-156434762D01*
X53572858Y-156482381D01*
X53477620Y-156482381D01*
X53334762Y-156434762D01*
X53239524Y-156339524D01*
X53191905Y-156244286D01*
X53144286Y-156053810D01*
X53144286Y-155910952D01*
X53191905Y-155720476D01*
X53239524Y-155625238D01*
X53334762Y-155530000D01*
X53477620Y-155482381D01*
X53572858Y-155482381D01*
X53715715Y-155530000D01*
X53763334Y-155577619D01*
X54668096Y-155482381D02*
X54191905Y-155482381D01*
X54144286Y-155958571D01*
X54191905Y-155910952D01*
X54287143Y-155863333D01*
X54525239Y-155863333D01*
X54620477Y-155910952D01*
X54668096Y-155958571D01*
X54715715Y-156053810D01*
X54715715Y-156291905D01*
X54668096Y-156387143D01*
X54620477Y-156434762D01*
X54525239Y-156482381D01*
X54287143Y-156482381D01*
X54191905Y-156434762D01*
X54144286Y-156387143D01*
X56107143Y-159241666D02*
X56154762Y-159289285D01*
X56202381Y-159432142D01*
X56202381Y-159527380D01*
X56154762Y-159670238D01*
X56059524Y-159765476D01*
X55964286Y-159813095D01*
X55773810Y-159860714D01*
X55630952Y-159860714D01*
X55440476Y-159813095D01*
X55345238Y-159765476D01*
X55250000Y-159670238D01*
X55202381Y-159527380D01*
X55202381Y-159432142D01*
X55250000Y-159289285D01*
X55297619Y-159241666D01*
X55202381Y-158384523D02*
X55202381Y-158575000D01*
X55250000Y-158670238D01*
X55297619Y-158717857D01*
X55440476Y-158813095D01*
X55630952Y-158860714D01*
X56011905Y-158860714D01*
X56107143Y-158813095D01*
X56154762Y-158765476D01*
X56202381Y-158670238D01*
X56202381Y-158479761D01*
X56154762Y-158384523D01*
X56107143Y-158336904D01*
X56011905Y-158289285D01*
X55773810Y-158289285D01*
X55678571Y-158336904D01*
X55630952Y-158384523D01*
X55583333Y-158479761D01*
X55583333Y-158670238D01*
X55630952Y-158765476D01*
X55678571Y-158813095D01*
X55773810Y-158860714D01*
X35397143Y-176267857D02*
X35444762Y-176315476D01*
X35492381Y-176458333D01*
X35492381Y-176553571D01*
X35444762Y-176696429D01*
X35349524Y-176791667D01*
X35254286Y-176839286D01*
X35063810Y-176886905D01*
X34920952Y-176886905D01*
X34730476Y-176839286D01*
X34635238Y-176791667D01*
X34540000Y-176696429D01*
X34492381Y-176553571D01*
X34492381Y-176458333D01*
X34540000Y-176315476D01*
X34587619Y-176267857D01*
X34587619Y-175886905D02*
X34540000Y-175839286D01*
X34492381Y-175744048D01*
X34492381Y-175505952D01*
X34540000Y-175410714D01*
X34587619Y-175363095D01*
X34682857Y-175315476D01*
X34778095Y-175315476D01*
X34920952Y-175363095D01*
X35492381Y-175934524D01*
X35492381Y-175315476D01*
X34587619Y-174934524D02*
X34540000Y-174886905D01*
X34492381Y-174791667D01*
X34492381Y-174553571D01*
X34540000Y-174458333D01*
X34587619Y-174410714D01*
X34682857Y-174363095D01*
X34778095Y-174363095D01*
X34920952Y-174410714D01*
X35492381Y-174982143D01*
X35492381Y-174363095D01*
X42332143Y-180367857D02*
X42379762Y-180415476D01*
X42427381Y-180558333D01*
X42427381Y-180653571D01*
X42379762Y-180796429D01*
X42284524Y-180891667D01*
X42189286Y-180939286D01*
X41998810Y-180986905D01*
X41855952Y-180986905D01*
X41665476Y-180939286D01*
X41570238Y-180891667D01*
X41475000Y-180796429D01*
X41427381Y-180653571D01*
X41427381Y-180558333D01*
X41475000Y-180415476D01*
X41522619Y-180367857D01*
X41522619Y-179986905D02*
X41475000Y-179939286D01*
X41427381Y-179844048D01*
X41427381Y-179605952D01*
X41475000Y-179510714D01*
X41522619Y-179463095D01*
X41617857Y-179415476D01*
X41713095Y-179415476D01*
X41855952Y-179463095D01*
X42427381Y-180034524D01*
X42427381Y-179415476D01*
X41427381Y-179082143D02*
X41427381Y-178463095D01*
X41808333Y-178796429D01*
X41808333Y-178653571D01*
X41855952Y-178558333D01*
X41903571Y-178510714D01*
X41998810Y-178463095D01*
X42236905Y-178463095D01*
X42332143Y-178510714D01*
X42379762Y-178558333D01*
X42427381Y-178653571D01*
X42427381Y-178939286D01*
X42379762Y-179034524D01*
X42332143Y-179082143D01*
X59026667Y-175052381D02*
X59026667Y-175766667D01*
X58979047Y-175909524D01*
X58883809Y-176004762D01*
X58740952Y-176052381D01*
X58645714Y-176052381D01*
X60026667Y-176052381D02*
X59455238Y-176052381D01*
X59740952Y-176052381D02*
X59740952Y-175052381D01*
X59645714Y-175195238D01*
X59550476Y-175290476D01*
X59455238Y-175338095D01*
X36652381Y-179366666D02*
X36652381Y-179842857D01*
X35652381Y-179842857D01*
X35747619Y-179080952D02*
X35700000Y-179033333D01*
X35652381Y-178938095D01*
X35652381Y-178699999D01*
X35700000Y-178604761D01*
X35747619Y-178557142D01*
X35842857Y-178509523D01*
X35938095Y-178509523D01*
X36080952Y-178557142D01*
X36652381Y-179128571D01*
X36652381Y-178509523D01*
X48388095Y-157622381D02*
X48388095Y-158431905D01*
X48435714Y-158527143D01*
X48483333Y-158574762D01*
X48578571Y-158622381D01*
X48769048Y-158622381D01*
X48864286Y-158574762D01*
X48911905Y-158527143D01*
X48959524Y-158431905D01*
X48959524Y-157622381D01*
X49959524Y-158622381D02*
X49388095Y-158622381D01*
X49673809Y-158622381D02*
X49673809Y-157622381D01*
X49578571Y-157765238D01*
X49483333Y-157860476D01*
X49388095Y-157908095D01*
X50012381Y-169071905D02*
X50821905Y-169071905D01*
X50917143Y-169024286D01*
X50964762Y-168976667D01*
X51012381Y-168881429D01*
X51012381Y-168690952D01*
X50964762Y-168595714D01*
X50917143Y-168548095D01*
X50821905Y-168500476D01*
X50012381Y-168500476D01*
X50107619Y-168071905D02*
X50060000Y-168024286D01*
X50012381Y-167929048D01*
X50012381Y-167690952D01*
X50060000Y-167595714D01*
X50107619Y-167548095D01*
X50202857Y-167500476D01*
X50298095Y-167500476D01*
X50440952Y-167548095D01*
X51012381Y-168119524D01*
X51012381Y-167500476D01*
X59328095Y-159192381D02*
X59328095Y-160001905D01*
X59375714Y-160097143D01*
X59423333Y-160144762D01*
X59518571Y-160192381D01*
X59709048Y-160192381D01*
X59804286Y-160144762D01*
X59851905Y-160097143D01*
X59899524Y-160001905D01*
X59899524Y-159192381D01*
X60804286Y-159525714D02*
X60804286Y-160192381D01*
X60566190Y-159144762D02*
X60328095Y-159859048D01*
X60947143Y-159859048D01*
X33312381Y-167741905D02*
X34121905Y-167741905D01*
X34217143Y-167694286D01*
X34264762Y-167646667D01*
X34312381Y-167551429D01*
X34312381Y-167360952D01*
X34264762Y-167265714D01*
X34217143Y-167218095D01*
X34121905Y-167170476D01*
X33312381Y-167170476D01*
X33312381Y-166265714D02*
X33312381Y-166456191D01*
X33360000Y-166551429D01*
X33407619Y-166599048D01*
X33550476Y-166694286D01*
X33740952Y-166741905D01*
X34121905Y-166741905D01*
X34217143Y-166694286D01*
X34264762Y-166646667D01*
X34312381Y-166551429D01*
X34312381Y-166360952D01*
X34264762Y-166265714D01*
X34217143Y-166218095D01*
X34121905Y-166170476D01*
X33883810Y-166170476D01*
X33788571Y-166218095D01*
X33740952Y-166265714D01*
X33693333Y-166360952D01*
X33693333Y-166551429D01*
X33740952Y-166646667D01*
X33788571Y-166694286D01*
X33883810Y-166741905D01*
X40663095Y-173452381D02*
X40663095Y-174261905D01*
X40710714Y-174357143D01*
X40758333Y-174404762D01*
X40853571Y-174452381D01*
X41044048Y-174452381D01*
X41139286Y-174404762D01*
X41186905Y-174357143D01*
X41234524Y-174261905D01*
X41234524Y-173452381D01*
X41853571Y-173880952D02*
X41758333Y-173833333D01*
X41710714Y-173785714D01*
X41663095Y-173690476D01*
X41663095Y-173642857D01*
X41710714Y-173547619D01*
X41758333Y-173500000D01*
X41853571Y-173452381D01*
X42044048Y-173452381D01*
X42139286Y-173500000D01*
X42186905Y-173547619D01*
X42234524Y-173642857D01*
X42234524Y-173690476D01*
X42186905Y-173785714D01*
X42139286Y-173833333D01*
X42044048Y-173880952D01*
X41853571Y-173880952D01*
X41758333Y-173928571D01*
X41710714Y-173976190D01*
X41663095Y-174071429D01*
X41663095Y-174261905D01*
X41710714Y-174357143D01*
X41758333Y-174404762D01*
X41853571Y-174452381D01*
X42044048Y-174452381D01*
X42139286Y-174404762D01*
X42186905Y-174357143D01*
X42234524Y-174261905D01*
X42234524Y-174071429D01*
X42186905Y-173976190D01*
X42139286Y-173928571D01*
X42044048Y-173880952D01*
X79093809Y-152356190D02*
X79093809Y-152832381D01*
X78760476Y-151832381D02*
X79093809Y-152356190D01*
X79427143Y-151832381D01*
X80284286Y-152832381D02*
X79712857Y-152832381D01*
X79998571Y-152832381D02*
X79998571Y-151832381D01*
X79903333Y-151975238D01*
X79808095Y-152070476D01*
X79712857Y-152118095D01*
X59921905Y-140702381D02*
X59921905Y-139702381D01*
X60302858Y-139702381D01*
X60398096Y-139750000D01*
X60445715Y-139797619D01*
X60493334Y-139892857D01*
X60493334Y-140035714D01*
X60445715Y-140130952D01*
X60398096Y-140178571D01*
X60302858Y-140226190D01*
X59921905Y-140226190D01*
X61445715Y-140702381D02*
X60874286Y-140702381D01*
X61160000Y-140702381D02*
X61160000Y-139702381D01*
X61064762Y-139845238D01*
X60969524Y-139940476D01*
X60874286Y-139988095D01*
X70981905Y-181062381D02*
X70981905Y-180062381D01*
X71362858Y-180062381D01*
X71458096Y-180110000D01*
X71505715Y-180157619D01*
X71553334Y-180252857D01*
X71553334Y-180395714D01*
X71505715Y-180490952D01*
X71458096Y-180538571D01*
X71362858Y-180586190D01*
X70981905Y-180586190D01*
X71934286Y-180157619D02*
X71981905Y-180110000D01*
X72077143Y-180062381D01*
X72315239Y-180062381D01*
X72410477Y-180110000D01*
X72458096Y-180157619D01*
X72505715Y-180252857D01*
X72505715Y-180348095D01*
X72458096Y-180490952D01*
X71886667Y-181062381D01*
X72505715Y-181062381D01*
X57408334Y-156282143D02*
X57360715Y-156329762D01*
X57217858Y-156377381D01*
X57122620Y-156377381D01*
X56979762Y-156329762D01*
X56884524Y-156234524D01*
X56836905Y-156139286D01*
X56789286Y-155948810D01*
X56789286Y-155805952D01*
X56836905Y-155615476D01*
X56884524Y-155520238D01*
X56979762Y-155425000D01*
X57122620Y-155377381D01*
X57217858Y-155377381D01*
X57360715Y-155425000D01*
X57408334Y-155472619D01*
X58360715Y-156377381D02*
X57789286Y-156377381D01*
X58075000Y-156377381D02*
X58075000Y-155377381D01*
X57979762Y-155520238D01*
X57884524Y-155615476D01*
X57789286Y-155663095D01*
X55857143Y-170391666D02*
X55904762Y-170439285D01*
X55952381Y-170582142D01*
X55952381Y-170677380D01*
X55904762Y-170820238D01*
X55809524Y-170915476D01*
X55714286Y-170963095D01*
X55523810Y-171010714D01*
X55380952Y-171010714D01*
X55190476Y-170963095D01*
X55095238Y-170915476D01*
X55000000Y-170820238D01*
X54952381Y-170677380D01*
X54952381Y-170582142D01*
X55000000Y-170439285D01*
X55047619Y-170391666D01*
X55047619Y-170010714D02*
X55000000Y-169963095D01*
X54952381Y-169867857D01*
X54952381Y-169629761D01*
X55000000Y-169534523D01*
X55047619Y-169486904D01*
X55142857Y-169439285D01*
X55238095Y-169439285D01*
X55380952Y-169486904D01*
X55952381Y-170058333D01*
X55952381Y-169439285D01*
X73558334Y-173507143D02*
X73510715Y-173554762D01*
X73367858Y-173602381D01*
X73272620Y-173602381D01*
X73129762Y-173554762D01*
X73034524Y-173459524D01*
X72986905Y-173364286D01*
X72939286Y-173173810D01*
X72939286Y-173030952D01*
X72986905Y-172840476D01*
X73034524Y-172745238D01*
X73129762Y-172650000D01*
X73272620Y-172602381D01*
X73367858Y-172602381D01*
X73510715Y-172650000D01*
X73558334Y-172697619D01*
X73891667Y-172602381D02*
X74510715Y-172602381D01*
X74177381Y-172983333D01*
X74320239Y-172983333D01*
X74415477Y-173030952D01*
X74463096Y-173078571D01*
X74510715Y-173173810D01*
X74510715Y-173411905D01*
X74463096Y-173507143D01*
X74415477Y-173554762D01*
X74320239Y-173602381D01*
X74034524Y-173602381D01*
X73939286Y-173554762D01*
X73891667Y-173507143D01*
X74233334Y-159782143D02*
X74185715Y-159829762D01*
X74042858Y-159877381D01*
X73947620Y-159877381D01*
X73804762Y-159829762D01*
X73709524Y-159734524D01*
X73661905Y-159639286D01*
X73614286Y-159448810D01*
X73614286Y-159305952D01*
X73661905Y-159115476D01*
X73709524Y-159020238D01*
X73804762Y-158925000D01*
X73947620Y-158877381D01*
X74042858Y-158877381D01*
X74185715Y-158925000D01*
X74233334Y-158972619D01*
X75090477Y-159210714D02*
X75090477Y-159877381D01*
X74852381Y-158829762D02*
X74614286Y-159544048D01*
X75233334Y-159544048D01*
X78258334Y-162782143D02*
X78210715Y-162829762D01*
X78067858Y-162877381D01*
X77972620Y-162877381D01*
X77829762Y-162829762D01*
X77734524Y-162734524D01*
X77686905Y-162639286D01*
X77639286Y-162448810D01*
X77639286Y-162305952D01*
X77686905Y-162115476D01*
X77734524Y-162020238D01*
X77829762Y-161925000D01*
X77972620Y-161877381D01*
X78067858Y-161877381D01*
X78210715Y-161925000D01*
X78258334Y-161972619D01*
X78591667Y-161877381D02*
X79258334Y-161877381D01*
X78829762Y-162877381D01*
X73707143Y-153491666D02*
X73754762Y-153539285D01*
X73802381Y-153682142D01*
X73802381Y-153777380D01*
X73754762Y-153920238D01*
X73659524Y-154015476D01*
X73564286Y-154063095D01*
X73373810Y-154110714D01*
X73230952Y-154110714D01*
X73040476Y-154063095D01*
X72945238Y-154015476D01*
X72850000Y-153920238D01*
X72802381Y-153777380D01*
X72802381Y-153682142D01*
X72850000Y-153539285D01*
X72897619Y-153491666D01*
X73230952Y-152920238D02*
X73183333Y-153015476D01*
X73135714Y-153063095D01*
X73040476Y-153110714D01*
X72992857Y-153110714D01*
X72897619Y-153063095D01*
X72850000Y-153015476D01*
X72802381Y-152920238D01*
X72802381Y-152729761D01*
X72850000Y-152634523D01*
X72897619Y-152586904D01*
X72992857Y-152539285D01*
X73040476Y-152539285D01*
X73135714Y-152586904D01*
X73183333Y-152634523D01*
X73230952Y-152729761D01*
X73230952Y-152920238D01*
X73278571Y-153015476D01*
X73326190Y-153063095D01*
X73421429Y-153110714D01*
X73611905Y-153110714D01*
X73707143Y-153063095D01*
X73754762Y-153015476D01*
X73802381Y-152920238D01*
X73802381Y-152729761D01*
X73754762Y-152634523D01*
X73707143Y-152586904D01*
X73611905Y-152539285D01*
X73421429Y-152539285D01*
X73326190Y-152586904D01*
X73278571Y-152634523D01*
X73230952Y-152729761D01*
X49833334Y-149107143D02*
X49785715Y-149154762D01*
X49642858Y-149202381D01*
X49547620Y-149202381D01*
X49404762Y-149154762D01*
X49309524Y-149059524D01*
X49261905Y-148964286D01*
X49214286Y-148773810D01*
X49214286Y-148630952D01*
X49261905Y-148440476D01*
X49309524Y-148345238D01*
X49404762Y-148250000D01*
X49547620Y-148202381D01*
X49642858Y-148202381D01*
X49785715Y-148250000D01*
X49833334Y-148297619D01*
X50309524Y-149202381D02*
X50500000Y-149202381D01*
X50595239Y-149154762D01*
X50642858Y-149107143D01*
X50738096Y-148964286D01*
X50785715Y-148773810D01*
X50785715Y-148392857D01*
X50738096Y-148297619D01*
X50690477Y-148250000D01*
X50595239Y-148202381D01*
X50404762Y-148202381D01*
X50309524Y-148250000D01*
X50261905Y-148297619D01*
X50214286Y-148392857D01*
X50214286Y-148630952D01*
X50261905Y-148726190D01*
X50309524Y-148773810D01*
X50404762Y-148821429D01*
X50595239Y-148821429D01*
X50690477Y-148773810D01*
X50738096Y-148726190D01*
X50785715Y-148630952D01*
X54957143Y-151667857D02*
X55004762Y-151715476D01*
X55052381Y-151858333D01*
X55052381Y-151953571D01*
X55004762Y-152096429D01*
X54909524Y-152191667D01*
X54814286Y-152239286D01*
X54623810Y-152286905D01*
X54480952Y-152286905D01*
X54290476Y-152239286D01*
X54195238Y-152191667D01*
X54100000Y-152096429D01*
X54052381Y-151953571D01*
X54052381Y-151858333D01*
X54100000Y-151715476D01*
X54147619Y-151667857D01*
X55052381Y-150715476D02*
X55052381Y-151286905D01*
X55052381Y-151001191D02*
X54052381Y-151001191D01*
X54195238Y-151096429D01*
X54290476Y-151191667D01*
X54338095Y-151286905D01*
X54052381Y-150096429D02*
X54052381Y-150001190D01*
X54100000Y-149905952D01*
X54147619Y-149858333D01*
X54242857Y-149810714D01*
X54433333Y-149763095D01*
X54671429Y-149763095D01*
X54861905Y-149810714D01*
X54957143Y-149858333D01*
X55004762Y-149905952D01*
X55052381Y-150001190D01*
X55052381Y-150096429D01*
X55004762Y-150191667D01*
X54957143Y-150239286D01*
X54861905Y-150286905D01*
X54671429Y-150334524D01*
X54433333Y-150334524D01*
X54242857Y-150286905D01*
X54147619Y-150239286D01*
X54100000Y-150191667D01*
X54052381Y-150096429D01*
X39682143Y-164432143D02*
X39634524Y-164479762D01*
X39491667Y-164527381D01*
X39396429Y-164527381D01*
X39253571Y-164479762D01*
X39158333Y-164384524D01*
X39110714Y-164289286D01*
X39063095Y-164098810D01*
X39063095Y-163955952D01*
X39110714Y-163765476D01*
X39158333Y-163670238D01*
X39253571Y-163575000D01*
X39396429Y-163527381D01*
X39491667Y-163527381D01*
X39634524Y-163575000D01*
X39682143Y-163622619D01*
X40634524Y-164527381D02*
X40063095Y-164527381D01*
X40348809Y-164527381D02*
X40348809Y-163527381D01*
X40253571Y-163670238D01*
X40158333Y-163765476D01*
X40063095Y-163813095D01*
X41586905Y-164527381D02*
X41015476Y-164527381D01*
X41301190Y-164527381D02*
X41301190Y-163527381D01*
X41205952Y-163670238D01*
X41110714Y-163765476D01*
X41015476Y-163813095D01*
X34182143Y-162867857D02*
X34229762Y-162915476D01*
X34277381Y-163058333D01*
X34277381Y-163153571D01*
X34229762Y-163296429D01*
X34134524Y-163391667D01*
X34039286Y-163439286D01*
X33848810Y-163486905D01*
X33705952Y-163486905D01*
X33515476Y-163439286D01*
X33420238Y-163391667D01*
X33325000Y-163296429D01*
X33277381Y-163153571D01*
X33277381Y-163058333D01*
X33325000Y-162915476D01*
X33372619Y-162867857D01*
X34277381Y-161915476D02*
X34277381Y-162486905D01*
X34277381Y-162201191D02*
X33277381Y-162201191D01*
X33420238Y-162296429D01*
X33515476Y-162391667D01*
X33563095Y-162486905D01*
X33372619Y-161534524D02*
X33325000Y-161486905D01*
X33277381Y-161391667D01*
X33277381Y-161153571D01*
X33325000Y-161058333D01*
X33372619Y-161010714D01*
X33467857Y-160963095D01*
X33563095Y-160963095D01*
X33705952Y-161010714D01*
X34277381Y-161582143D01*
X34277381Y-160963095D01*
X58532143Y-151667857D02*
X58579762Y-151715476D01*
X58627381Y-151858333D01*
X58627381Y-151953571D01*
X58579762Y-152096429D01*
X58484524Y-152191667D01*
X58389286Y-152239286D01*
X58198810Y-152286905D01*
X58055952Y-152286905D01*
X57865476Y-152239286D01*
X57770238Y-152191667D01*
X57675000Y-152096429D01*
X57627381Y-151953571D01*
X57627381Y-151858333D01*
X57675000Y-151715476D01*
X57722619Y-151667857D01*
X58627381Y-150715476D02*
X58627381Y-151286905D01*
X58627381Y-151001191D02*
X57627381Y-151001191D01*
X57770238Y-151096429D01*
X57865476Y-151191667D01*
X57913095Y-151286905D01*
X57627381Y-150382143D02*
X57627381Y-149763095D01*
X58008333Y-150096429D01*
X58008333Y-149953571D01*
X58055952Y-149858333D01*
X58103571Y-149810714D01*
X58198810Y-149763095D01*
X58436905Y-149763095D01*
X58532143Y-149810714D01*
X58579762Y-149858333D01*
X58627381Y-149953571D01*
X58627381Y-150239286D01*
X58579762Y-150334524D01*
X58532143Y-150382143D01*
X42097143Y-168732857D02*
X42144762Y-168780476D01*
X42192381Y-168923333D01*
X42192381Y-169018571D01*
X42144762Y-169161429D01*
X42049524Y-169256667D01*
X41954286Y-169304286D01*
X41763810Y-169351905D01*
X41620952Y-169351905D01*
X41430476Y-169304286D01*
X41335238Y-169256667D01*
X41240000Y-169161429D01*
X41192381Y-169018571D01*
X41192381Y-168923333D01*
X41240000Y-168780476D01*
X41287619Y-168732857D01*
X42192381Y-167780476D02*
X42192381Y-168351905D01*
X42192381Y-168066191D02*
X41192381Y-168066191D01*
X41335238Y-168161429D01*
X41430476Y-168256667D01*
X41478095Y-168351905D01*
X41525714Y-166923333D02*
X42192381Y-166923333D01*
X41144762Y-167161429D02*
X41859048Y-167399524D01*
X41859048Y-166780476D01*
X47617143Y-143897143D02*
X47569524Y-143944762D01*
X47426667Y-143992381D01*
X47331429Y-143992381D01*
X47188571Y-143944762D01*
X47093333Y-143849524D01*
X47045714Y-143754286D01*
X46998095Y-143563810D01*
X46998095Y-143420952D01*
X47045714Y-143230476D01*
X47093333Y-143135238D01*
X47188571Y-143040000D01*
X47331429Y-142992381D01*
X47426667Y-142992381D01*
X47569524Y-143040000D01*
X47617143Y-143087619D01*
X48569524Y-143992381D02*
X47998095Y-143992381D01*
X48283809Y-143992381D02*
X48283809Y-142992381D01*
X48188571Y-143135238D01*
X48093333Y-143230476D01*
X47998095Y-143278095D01*
X49474286Y-142992381D02*
X48998095Y-142992381D01*
X48950476Y-143468571D01*
X48998095Y-143420952D01*
X49093333Y-143373333D01*
X49331429Y-143373333D01*
X49426667Y-143420952D01*
X49474286Y-143468571D01*
X49521905Y-143563810D01*
X49521905Y-143801905D01*
X49474286Y-143897143D01*
X49426667Y-143944762D01*
X49331429Y-143992381D01*
X49093333Y-143992381D01*
X48998095Y-143944762D01*
X48950476Y-143897143D01*
X40132143Y-145557143D02*
X40084524Y-145604762D01*
X39941667Y-145652381D01*
X39846429Y-145652381D01*
X39703571Y-145604762D01*
X39608333Y-145509524D01*
X39560714Y-145414286D01*
X39513095Y-145223810D01*
X39513095Y-145080952D01*
X39560714Y-144890476D01*
X39608333Y-144795238D01*
X39703571Y-144700000D01*
X39846429Y-144652381D01*
X39941667Y-144652381D01*
X40084524Y-144700000D01*
X40132143Y-144747619D01*
X41084524Y-145652381D02*
X40513095Y-145652381D01*
X40798809Y-145652381D02*
X40798809Y-144652381D01*
X40703571Y-144795238D01*
X40608333Y-144890476D01*
X40513095Y-144938095D01*
X41941667Y-144652381D02*
X41751190Y-144652381D01*
X41655952Y-144700000D01*
X41608333Y-144747619D01*
X41513095Y-144890476D01*
X41465476Y-145080952D01*
X41465476Y-145461905D01*
X41513095Y-145557143D01*
X41560714Y-145604762D01*
X41655952Y-145652381D01*
X41846429Y-145652381D01*
X41941667Y-145604762D01*
X41989286Y-145557143D01*
X42036905Y-145461905D01*
X42036905Y-145223810D01*
X41989286Y-145128571D01*
X41941667Y-145080952D01*
X41846429Y-145033333D01*
X41655952Y-145033333D01*
X41560714Y-145080952D01*
X41513095Y-145128571D01*
X41465476Y-145223810D01*
X43127143Y-139802857D02*
X43174762Y-139850476D01*
X43222381Y-139993333D01*
X43222381Y-140088571D01*
X43174762Y-140231429D01*
X43079524Y-140326667D01*
X42984286Y-140374286D01*
X42793810Y-140421905D01*
X42650952Y-140421905D01*
X42460476Y-140374286D01*
X42365238Y-140326667D01*
X42270000Y-140231429D01*
X42222381Y-140088571D01*
X42222381Y-139993333D01*
X42270000Y-139850476D01*
X42317619Y-139802857D01*
X43222381Y-138850476D02*
X43222381Y-139421905D01*
X43222381Y-139136191D02*
X42222381Y-139136191D01*
X42365238Y-139231429D01*
X42460476Y-139326667D01*
X42508095Y-139421905D01*
X42222381Y-138517143D02*
X42222381Y-137850476D01*
X43222381Y-138279048D01*
X40132143Y-148482143D02*
X40084524Y-148529762D01*
X39941667Y-148577381D01*
X39846429Y-148577381D01*
X39703571Y-148529762D01*
X39608333Y-148434524D01*
X39560714Y-148339286D01*
X39513095Y-148148810D01*
X39513095Y-148005952D01*
X39560714Y-147815476D01*
X39608333Y-147720238D01*
X39703571Y-147625000D01*
X39846429Y-147577381D01*
X39941667Y-147577381D01*
X40084524Y-147625000D01*
X40132143Y-147672619D01*
X41084524Y-148577381D02*
X40513095Y-148577381D01*
X40798809Y-148577381D02*
X40798809Y-147577381D01*
X40703571Y-147720238D01*
X40608333Y-147815476D01*
X40513095Y-147863095D01*
X41655952Y-148005952D02*
X41560714Y-147958333D01*
X41513095Y-147910714D01*
X41465476Y-147815476D01*
X41465476Y-147767857D01*
X41513095Y-147672619D01*
X41560714Y-147625000D01*
X41655952Y-147577381D01*
X41846429Y-147577381D01*
X41941667Y-147625000D01*
X41989286Y-147672619D01*
X42036905Y-147767857D01*
X42036905Y-147815476D01*
X41989286Y-147910714D01*
X41941667Y-147958333D01*
X41846429Y-148005952D01*
X41655952Y-148005952D01*
X41560714Y-148053571D01*
X41513095Y-148101190D01*
X41465476Y-148196429D01*
X41465476Y-148386905D01*
X41513095Y-148482143D01*
X41560714Y-148529762D01*
X41655952Y-148577381D01*
X41846429Y-148577381D01*
X41941667Y-148529762D01*
X41989286Y-148482143D01*
X42036905Y-148386905D01*
X42036905Y-148196429D01*
X41989286Y-148101190D01*
X41941667Y-148053571D01*
X41846429Y-148005952D01*
X40107143Y-139807143D02*
X40059524Y-139854762D01*
X39916667Y-139902381D01*
X39821429Y-139902381D01*
X39678571Y-139854762D01*
X39583333Y-139759524D01*
X39535714Y-139664286D01*
X39488095Y-139473810D01*
X39488095Y-139330952D01*
X39535714Y-139140476D01*
X39583333Y-139045238D01*
X39678571Y-138950000D01*
X39821429Y-138902381D01*
X39916667Y-138902381D01*
X40059524Y-138950000D01*
X40107143Y-138997619D01*
X41059524Y-139902381D02*
X40488095Y-139902381D01*
X40773809Y-139902381D02*
X40773809Y-138902381D01*
X40678571Y-139045238D01*
X40583333Y-139140476D01*
X40488095Y-139188095D01*
X41535714Y-139902381D02*
X41726190Y-139902381D01*
X41821429Y-139854762D01*
X41869048Y-139807143D01*
X41964286Y-139664286D01*
X42011905Y-139473810D01*
X42011905Y-139092857D01*
X41964286Y-138997619D01*
X41916667Y-138950000D01*
X41821429Y-138902381D01*
X41630952Y-138902381D01*
X41535714Y-138950000D01*
X41488095Y-138997619D01*
X41440476Y-139092857D01*
X41440476Y-139330952D01*
X41488095Y-139426190D01*
X41535714Y-139473810D01*
X41630952Y-139521429D01*
X41821429Y-139521429D01*
X41916667Y-139473810D01*
X41964286Y-139426190D01*
X42011905Y-139330952D01*
X37207143Y-162842857D02*
X37254762Y-162890476D01*
X37302381Y-163033333D01*
X37302381Y-163128571D01*
X37254762Y-163271429D01*
X37159524Y-163366667D01*
X37064286Y-163414286D01*
X36873810Y-163461905D01*
X36730952Y-163461905D01*
X36540476Y-163414286D01*
X36445238Y-163366667D01*
X36350000Y-163271429D01*
X36302381Y-163128571D01*
X36302381Y-163033333D01*
X36350000Y-162890476D01*
X36397619Y-162842857D01*
X36397619Y-162461905D02*
X36350000Y-162414286D01*
X36302381Y-162319048D01*
X36302381Y-162080952D01*
X36350000Y-161985714D01*
X36397619Y-161938095D01*
X36492857Y-161890476D01*
X36588095Y-161890476D01*
X36730952Y-161938095D01*
X37302381Y-162509524D01*
X37302381Y-161890476D01*
X36302381Y-161271429D02*
X36302381Y-161176190D01*
X36350000Y-161080952D01*
X36397619Y-161033333D01*
X36492857Y-160985714D01*
X36683333Y-160938095D01*
X36921429Y-160938095D01*
X37111905Y-160985714D01*
X37207143Y-161033333D01*
X37254762Y-161080952D01*
X37302381Y-161176190D01*
X37302381Y-161271429D01*
X37254762Y-161366667D01*
X37207143Y-161414286D01*
X37111905Y-161461905D01*
X36921429Y-161509524D01*
X36683333Y-161509524D01*
X36492857Y-161461905D01*
X36397619Y-161414286D01*
X36350000Y-161366667D01*
X36302381Y-161271429D01*
X38057143Y-146067857D02*
X38104762Y-146115476D01*
X38152381Y-146258333D01*
X38152381Y-146353571D01*
X38104762Y-146496429D01*
X38009524Y-146591667D01*
X37914286Y-146639286D01*
X37723810Y-146686905D01*
X37580952Y-146686905D01*
X37390476Y-146639286D01*
X37295238Y-146591667D01*
X37200000Y-146496429D01*
X37152381Y-146353571D01*
X37152381Y-146258333D01*
X37200000Y-146115476D01*
X37247619Y-146067857D01*
X37247619Y-145686905D02*
X37200000Y-145639286D01*
X37152381Y-145544048D01*
X37152381Y-145305952D01*
X37200000Y-145210714D01*
X37247619Y-145163095D01*
X37342857Y-145115476D01*
X37438095Y-145115476D01*
X37580952Y-145163095D01*
X38152381Y-145734524D01*
X38152381Y-145115476D01*
X38152381Y-144163095D02*
X38152381Y-144734524D01*
X38152381Y-144448810D02*
X37152381Y-144448810D01*
X37295238Y-144544048D01*
X37390476Y-144639286D01*
X37438095Y-144734524D01*
X42892381Y-151818095D02*
X41892381Y-151818095D01*
X41892381Y-151580000D01*
X41940000Y-151437142D01*
X42035238Y-151341904D01*
X42130476Y-151294285D01*
X42320952Y-151246666D01*
X42463810Y-151246666D01*
X42654286Y-151294285D01*
X42749524Y-151341904D01*
X42844762Y-151437142D01*
X42892381Y-151580000D01*
X42892381Y-151818095D01*
X42892381Y-150294285D02*
X42892381Y-150865714D01*
X42892381Y-150580000D02*
X41892381Y-150580000D01*
X42035238Y-150675238D01*
X42130476Y-150770476D01*
X42178095Y-150865714D01*
X37533334Y-148677381D02*
X37200000Y-148201190D01*
X36961905Y-148677381D02*
X36961905Y-147677381D01*
X37342858Y-147677381D01*
X37438096Y-147725000D01*
X37485715Y-147772619D01*
X37533334Y-147867857D01*
X37533334Y-148010714D01*
X37485715Y-148105952D01*
X37438096Y-148153571D01*
X37342858Y-148201190D01*
X36961905Y-148201190D01*
X38485715Y-148677381D02*
X37914286Y-148677381D01*
X38200000Y-148677381D02*
X38200000Y-147677381D01*
X38104762Y-147820238D01*
X38009524Y-147915476D01*
X37914286Y-147963095D01*
X39392381Y-151916666D02*
X38916190Y-152250000D01*
X39392381Y-152488095D02*
X38392381Y-152488095D01*
X38392381Y-152107142D01*
X38440000Y-152011904D01*
X38487619Y-151964285D01*
X38582857Y-151916666D01*
X38725714Y-151916666D01*
X38820952Y-151964285D01*
X38868571Y-152011904D01*
X38916190Y-152107142D01*
X38916190Y-152488095D01*
X38487619Y-151535714D02*
X38440000Y-151488095D01*
X38392381Y-151392857D01*
X38392381Y-151154761D01*
X38440000Y-151059523D01*
X38487619Y-151011904D01*
X38582857Y-150964285D01*
X38678095Y-150964285D01*
X38820952Y-151011904D01*
X39392381Y-151583333D01*
X39392381Y-150964285D01*
X38702381Y-171941666D02*
X38226190Y-172275000D01*
X38702381Y-172513095D02*
X37702381Y-172513095D01*
X37702381Y-172132142D01*
X37750000Y-172036904D01*
X37797619Y-171989285D01*
X37892857Y-171941666D01*
X38035714Y-171941666D01*
X38130952Y-171989285D01*
X38178571Y-172036904D01*
X38226190Y-172132142D01*
X38226190Y-172513095D01*
X37702381Y-171608333D02*
X37702381Y-170989285D01*
X38083333Y-171322619D01*
X38083333Y-171179761D01*
X38130952Y-171084523D01*
X38178571Y-171036904D01*
X38273810Y-170989285D01*
X38511905Y-170989285D01*
X38607143Y-171036904D01*
X38654762Y-171084523D01*
X38702381Y-171179761D01*
X38702381Y-171465476D01*
X38654762Y-171560714D01*
X38607143Y-171608333D01*
X54533334Y-163977381D02*
X54200000Y-163501190D01*
X53961905Y-163977381D02*
X53961905Y-162977381D01*
X54342858Y-162977381D01*
X54438096Y-163025000D01*
X54485715Y-163072619D01*
X54533334Y-163167857D01*
X54533334Y-163310714D01*
X54485715Y-163405952D01*
X54438096Y-163453571D01*
X54342858Y-163501190D01*
X53961905Y-163501190D01*
X55390477Y-163310714D02*
X55390477Y-163977381D01*
X55152381Y-162929762D02*
X54914286Y-163644048D01*
X55533334Y-163644048D01*
X42227381Y-171941666D02*
X41751190Y-172275000D01*
X42227381Y-172513095D02*
X41227381Y-172513095D01*
X41227381Y-172132142D01*
X41275000Y-172036904D01*
X41322619Y-171989285D01*
X41417857Y-171941666D01*
X41560714Y-171941666D01*
X41655952Y-171989285D01*
X41703571Y-172036904D01*
X41751190Y-172132142D01*
X41751190Y-172513095D01*
X41227381Y-171036904D02*
X41227381Y-171513095D01*
X41703571Y-171560714D01*
X41655952Y-171513095D01*
X41608333Y-171417857D01*
X41608333Y-171179761D01*
X41655952Y-171084523D01*
X41703571Y-171036904D01*
X41798810Y-170989285D01*
X42036905Y-170989285D01*
X42132143Y-171036904D01*
X42179762Y-171084523D01*
X42227381Y-171179761D01*
X42227381Y-171417857D01*
X42179762Y-171513095D01*
X42132143Y-171560714D01*
X54533334Y-162727381D02*
X54200000Y-162251190D01*
X53961905Y-162727381D02*
X53961905Y-161727381D01*
X54342858Y-161727381D01*
X54438096Y-161775000D01*
X54485715Y-161822619D01*
X54533334Y-161917857D01*
X54533334Y-162060714D01*
X54485715Y-162155952D01*
X54438096Y-162203571D01*
X54342858Y-162251190D01*
X53961905Y-162251190D01*
X55390477Y-161727381D02*
X55200000Y-161727381D01*
X55104762Y-161775000D01*
X55057143Y-161822619D01*
X54961905Y-161965476D01*
X54914286Y-162155952D01*
X54914286Y-162536905D01*
X54961905Y-162632143D01*
X55009524Y-162679762D01*
X55104762Y-162727381D01*
X55295239Y-162727381D01*
X55390477Y-162679762D01*
X55438096Y-162632143D01*
X55485715Y-162536905D01*
X55485715Y-162298810D01*
X55438096Y-162203571D01*
X55390477Y-162155952D01*
X55295239Y-162108333D01*
X55104762Y-162108333D01*
X55009524Y-162155952D01*
X54961905Y-162203571D01*
X54914286Y-162298810D01*
X44727381Y-155566666D02*
X44251190Y-155900000D01*
X44727381Y-156138095D02*
X43727381Y-156138095D01*
X43727381Y-155757142D01*
X43775000Y-155661904D01*
X43822619Y-155614285D01*
X43917857Y-155566666D01*
X44060714Y-155566666D01*
X44155952Y-155614285D01*
X44203571Y-155661904D01*
X44251190Y-155757142D01*
X44251190Y-156138095D01*
X43727381Y-155233333D02*
X43727381Y-154566666D01*
X44727381Y-154995238D01*
X45927381Y-150991666D02*
X45451190Y-151325000D01*
X45927381Y-151563095D02*
X44927381Y-151563095D01*
X44927381Y-151182142D01*
X44975000Y-151086904D01*
X45022619Y-151039285D01*
X45117857Y-150991666D01*
X45260714Y-150991666D01*
X45355952Y-151039285D01*
X45403571Y-151086904D01*
X45451190Y-151182142D01*
X45451190Y-151563095D01*
X45355952Y-150420238D02*
X45308333Y-150515476D01*
X45260714Y-150563095D01*
X45165476Y-150610714D01*
X45117857Y-150610714D01*
X45022619Y-150563095D01*
X44975000Y-150515476D01*
X44927381Y-150420238D01*
X44927381Y-150229761D01*
X44975000Y-150134523D01*
X45022619Y-150086904D01*
X45117857Y-150039285D01*
X45165476Y-150039285D01*
X45260714Y-150086904D01*
X45308333Y-150134523D01*
X45355952Y-150229761D01*
X45355952Y-150420238D01*
X45403571Y-150515476D01*
X45451190Y-150563095D01*
X45546429Y-150610714D01*
X45736905Y-150610714D01*
X45832143Y-150563095D01*
X45879762Y-150515476D01*
X45927381Y-150420238D01*
X45927381Y-150229761D01*
X45879762Y-150134523D01*
X45832143Y-150086904D01*
X45736905Y-150039285D01*
X45546429Y-150039285D01*
X45451190Y-150086904D01*
X45403571Y-150134523D01*
X45355952Y-150229761D01*
X36252381Y-157476666D02*
X35776190Y-157810000D01*
X36252381Y-158048095D02*
X35252381Y-158048095D01*
X35252381Y-157667142D01*
X35300000Y-157571904D01*
X35347619Y-157524285D01*
X35442857Y-157476666D01*
X35585714Y-157476666D01*
X35680952Y-157524285D01*
X35728571Y-157571904D01*
X35776190Y-157667142D01*
X35776190Y-158048095D01*
X36252381Y-157000476D02*
X36252381Y-156810000D01*
X36204762Y-156714761D01*
X36157143Y-156667142D01*
X36014286Y-156571904D01*
X35823810Y-156524285D01*
X35442857Y-156524285D01*
X35347619Y-156571904D01*
X35300000Y-156619523D01*
X35252381Y-156714761D01*
X35252381Y-156905238D01*
X35300000Y-157000476D01*
X35347619Y-157048095D01*
X35442857Y-157095714D01*
X35680952Y-157095714D01*
X35776190Y-157048095D01*
X35823810Y-157000476D01*
X35871429Y-156905238D01*
X35871429Y-156714761D01*
X35823810Y-156619523D01*
X35776190Y-156571904D01*
X35680952Y-156524285D01*
X73407143Y-175452381D02*
X73073809Y-174976190D01*
X72835714Y-175452381D02*
X72835714Y-174452381D01*
X73216667Y-174452381D01*
X73311905Y-174500000D01*
X73359524Y-174547619D01*
X73407143Y-174642857D01*
X73407143Y-174785714D01*
X73359524Y-174880952D01*
X73311905Y-174928571D01*
X73216667Y-174976190D01*
X72835714Y-174976190D01*
X74359524Y-175452381D02*
X73788095Y-175452381D01*
X74073809Y-175452381D02*
X74073809Y-174452381D01*
X73978571Y-174595238D01*
X73883333Y-174690476D01*
X73788095Y-174738095D01*
X74978571Y-174452381D02*
X75073810Y-174452381D01*
X75169048Y-174500000D01*
X75216667Y-174547619D01*
X75264286Y-174642857D01*
X75311905Y-174833333D01*
X75311905Y-175071429D01*
X75264286Y-175261905D01*
X75216667Y-175357143D01*
X75169048Y-175404762D01*
X75073810Y-175452381D01*
X74978571Y-175452381D01*
X74883333Y-175404762D01*
X74835714Y-175357143D01*
X74788095Y-175261905D01*
X74740476Y-175071429D01*
X74740476Y-174833333D01*
X74788095Y-174642857D01*
X74835714Y-174547619D01*
X74883333Y-174500000D01*
X74978571Y-174452381D01*
X48487143Y-145812381D02*
X48153809Y-145336190D01*
X47915714Y-145812381D02*
X47915714Y-144812381D01*
X48296667Y-144812381D01*
X48391905Y-144860000D01*
X48439524Y-144907619D01*
X48487143Y-145002857D01*
X48487143Y-145145714D01*
X48439524Y-145240952D01*
X48391905Y-145288571D01*
X48296667Y-145336190D01*
X47915714Y-145336190D01*
X49439524Y-145812381D02*
X48868095Y-145812381D01*
X49153809Y-145812381D02*
X49153809Y-144812381D01*
X49058571Y-144955238D01*
X48963333Y-145050476D01*
X48868095Y-145098095D01*
X50391905Y-145812381D02*
X49820476Y-145812381D01*
X50106190Y-145812381D02*
X50106190Y-144812381D01*
X50010952Y-144955238D01*
X49915714Y-145050476D01*
X49820476Y-145098095D01*
X46762381Y-140832857D02*
X46286190Y-141166191D01*
X46762381Y-141404286D02*
X45762381Y-141404286D01*
X45762381Y-141023333D01*
X45810000Y-140928095D01*
X45857619Y-140880476D01*
X45952857Y-140832857D01*
X46095714Y-140832857D01*
X46190952Y-140880476D01*
X46238571Y-140928095D01*
X46286190Y-141023333D01*
X46286190Y-141404286D01*
X46762381Y-139880476D02*
X46762381Y-140451905D01*
X46762381Y-140166191D02*
X45762381Y-140166191D01*
X45905238Y-140261429D01*
X46000476Y-140356667D01*
X46048095Y-140451905D01*
X45857619Y-139499524D02*
X45810000Y-139451905D01*
X45762381Y-139356667D01*
X45762381Y-139118571D01*
X45810000Y-139023333D01*
X45857619Y-138975714D01*
X45952857Y-138928095D01*
X46048095Y-138928095D01*
X46190952Y-138975714D01*
X46762381Y-139547143D01*
X46762381Y-138928095D01*
X52652381Y-140782857D02*
X52176190Y-141116191D01*
X52652381Y-141354286D02*
X51652381Y-141354286D01*
X51652381Y-140973333D01*
X51700000Y-140878095D01*
X51747619Y-140830476D01*
X51842857Y-140782857D01*
X51985714Y-140782857D01*
X52080952Y-140830476D01*
X52128571Y-140878095D01*
X52176190Y-140973333D01*
X52176190Y-141354286D01*
X52652381Y-139830476D02*
X52652381Y-140401905D01*
X52652381Y-140116191D02*
X51652381Y-140116191D01*
X51795238Y-140211429D01*
X51890476Y-140306667D01*
X51938095Y-140401905D01*
X51652381Y-139497143D02*
X51652381Y-138878095D01*
X52033333Y-139211429D01*
X52033333Y-139068571D01*
X52080952Y-138973333D01*
X52128571Y-138925714D01*
X52223810Y-138878095D01*
X52461905Y-138878095D01*
X52557143Y-138925714D01*
X52604762Y-138973333D01*
X52652381Y-139068571D01*
X52652381Y-139354286D01*
X52604762Y-139449524D01*
X52557143Y-139497143D01*
X32027381Y-172392857D02*
X31551190Y-172726191D01*
X32027381Y-172964286D02*
X31027381Y-172964286D01*
X31027381Y-172583333D01*
X31075000Y-172488095D01*
X31122619Y-172440476D01*
X31217857Y-172392857D01*
X31360714Y-172392857D01*
X31455952Y-172440476D01*
X31503571Y-172488095D01*
X31551190Y-172583333D01*
X31551190Y-172964286D01*
X32027381Y-171440476D02*
X32027381Y-172011905D01*
X32027381Y-171726191D02*
X31027381Y-171726191D01*
X31170238Y-171821429D01*
X31265476Y-171916667D01*
X31313095Y-172011905D01*
X31360714Y-170583333D02*
X32027381Y-170583333D01*
X30979762Y-170821429D02*
X31694048Y-171059524D01*
X31694048Y-170440476D01*
X35452381Y-172392857D02*
X34976190Y-172726191D01*
X35452381Y-172964286D02*
X34452381Y-172964286D01*
X34452381Y-172583333D01*
X34500000Y-172488095D01*
X34547619Y-172440476D01*
X34642857Y-172392857D01*
X34785714Y-172392857D01*
X34880952Y-172440476D01*
X34928571Y-172488095D01*
X34976190Y-172583333D01*
X34976190Y-172964286D01*
X35452381Y-171440476D02*
X35452381Y-172011905D01*
X35452381Y-171726191D02*
X34452381Y-171726191D01*
X34595238Y-171821429D01*
X34690476Y-171916667D01*
X34738095Y-172011905D01*
X34452381Y-170535714D02*
X34452381Y-171011905D01*
X34928571Y-171059524D01*
X34880952Y-171011905D01*
X34833333Y-170916667D01*
X34833333Y-170678571D01*
X34880952Y-170583333D01*
X34928571Y-170535714D01*
X35023810Y-170488095D01*
X35261905Y-170488095D01*
X35357143Y-170535714D01*
X35404762Y-170583333D01*
X35452381Y-170678571D01*
X35452381Y-170916667D01*
X35404762Y-171011905D01*
X35357143Y-171059524D01*
X34727143Y-147302381D02*
X34393809Y-146826190D01*
X34155714Y-147302381D02*
X34155714Y-146302381D01*
X34536667Y-146302381D01*
X34631905Y-146350000D01*
X34679524Y-146397619D01*
X34727143Y-146492857D01*
X34727143Y-146635714D01*
X34679524Y-146730952D01*
X34631905Y-146778571D01*
X34536667Y-146826190D01*
X34155714Y-146826190D01*
X35679524Y-147302381D02*
X35108095Y-147302381D01*
X35393809Y-147302381D02*
X35393809Y-146302381D01*
X35298571Y-146445238D01*
X35203333Y-146540476D01*
X35108095Y-146588095D01*
X36536667Y-146302381D02*
X36346190Y-146302381D01*
X36250952Y-146350000D01*
X36203333Y-146397619D01*
X36108095Y-146540476D01*
X36060476Y-146730952D01*
X36060476Y-147111905D01*
X36108095Y-147207143D01*
X36155714Y-147254762D01*
X36250952Y-147302381D01*
X36441429Y-147302381D01*
X36536667Y-147254762D01*
X36584286Y-147207143D01*
X36631905Y-147111905D01*
X36631905Y-146873810D01*
X36584286Y-146778571D01*
X36536667Y-146730952D01*
X36441429Y-146683333D01*
X36250952Y-146683333D01*
X36155714Y-146730952D01*
X36108095Y-146778571D01*
X36060476Y-146873810D01*
X37782381Y-139822857D02*
X37306190Y-140156191D01*
X37782381Y-140394286D02*
X36782381Y-140394286D01*
X36782381Y-140013333D01*
X36830000Y-139918095D01*
X36877619Y-139870476D01*
X36972857Y-139822857D01*
X37115714Y-139822857D01*
X37210952Y-139870476D01*
X37258571Y-139918095D01*
X37306190Y-140013333D01*
X37306190Y-140394286D01*
X37782381Y-138870476D02*
X37782381Y-139441905D01*
X37782381Y-139156191D02*
X36782381Y-139156191D01*
X36925238Y-139251429D01*
X37020476Y-139346667D01*
X37068095Y-139441905D01*
X36782381Y-138537143D02*
X36782381Y-137870476D01*
X37782381Y-138299048D01*
X48577381Y-179917857D02*
X48101190Y-180251191D01*
X48577381Y-180489286D02*
X47577381Y-180489286D01*
X47577381Y-180108333D01*
X47625000Y-180013095D01*
X47672619Y-179965476D01*
X47767857Y-179917857D01*
X47910714Y-179917857D01*
X48005952Y-179965476D01*
X48053571Y-180013095D01*
X48101190Y-180108333D01*
X48101190Y-180489286D01*
X48577381Y-178965476D02*
X48577381Y-179536905D01*
X48577381Y-179251191D02*
X47577381Y-179251191D01*
X47720238Y-179346429D01*
X47815476Y-179441667D01*
X47863095Y-179536905D01*
X48005952Y-178394048D02*
X47958333Y-178489286D01*
X47910714Y-178536905D01*
X47815476Y-178584524D01*
X47767857Y-178584524D01*
X47672619Y-178536905D01*
X47625000Y-178489286D01*
X47577381Y-178394048D01*
X47577381Y-178203571D01*
X47625000Y-178108333D01*
X47672619Y-178060714D01*
X47767857Y-178013095D01*
X47815476Y-178013095D01*
X47910714Y-178060714D01*
X47958333Y-178108333D01*
X48005952Y-178203571D01*
X48005952Y-178394048D01*
X48053571Y-178489286D01*
X48101190Y-178536905D01*
X48196429Y-178584524D01*
X48386905Y-178584524D01*
X48482143Y-178536905D01*
X48529762Y-178489286D01*
X48577381Y-178394048D01*
X48577381Y-178203571D01*
X48529762Y-178108333D01*
X48482143Y-178060714D01*
X48386905Y-178013095D01*
X48196429Y-178013095D01*
X48101190Y-178060714D01*
X48053571Y-178108333D01*
X48005952Y-178203571D01*
X42968095Y-147142381D02*
X42968095Y-147951905D01*
X43015714Y-148047143D01*
X43063333Y-148094762D01*
X43158571Y-148142381D01*
X43349048Y-148142381D01*
X43444286Y-148094762D01*
X43491905Y-148047143D01*
X43539524Y-147951905D01*
X43539524Y-147142381D01*
X44491905Y-147142381D02*
X44015714Y-147142381D01*
X43968095Y-147618571D01*
X44015714Y-147570952D01*
X44110952Y-147523333D01*
X44349048Y-147523333D01*
X44444286Y-147570952D01*
X44491905Y-147618571D01*
X44539524Y-147713810D01*
X44539524Y-147951905D01*
X44491905Y-148047143D01*
X44444286Y-148094762D01*
X44349048Y-148142381D01*
X44110952Y-148142381D01*
X44015714Y-148094762D01*
X43968095Y-148047143D01*
X29006667Y-148714762D02*
X29149524Y-148762381D01*
X29387620Y-148762381D01*
X29482858Y-148714762D01*
X29530477Y-148667143D01*
X29578096Y-148571905D01*
X29578096Y-148476667D01*
X29530477Y-148381429D01*
X29482858Y-148333810D01*
X29387620Y-148286190D01*
X29197143Y-148238571D01*
X29101905Y-148190952D01*
X29054286Y-148143333D01*
X29006667Y-148048095D01*
X29006667Y-147952857D01*
X29054286Y-147857619D01*
X29101905Y-147810000D01*
X29197143Y-147762381D01*
X29435239Y-147762381D01*
X29578096Y-147810000D01*
X29911429Y-147762381D02*
X30149524Y-148762381D01*
X30340001Y-148048095D01*
X30530477Y-148762381D01*
X30768572Y-147762381D01*
X31673334Y-148762381D02*
X31101905Y-148762381D01*
X31387619Y-148762381D02*
X31387619Y-147762381D01*
X31292381Y-147905238D01*
X31197143Y-148000476D01*
X31101905Y-148048095D01*
X29036667Y-162034762D02*
X29179524Y-162082381D01*
X29417620Y-162082381D01*
X29512858Y-162034762D01*
X29560477Y-161987143D01*
X29608096Y-161891905D01*
X29608096Y-161796667D01*
X29560477Y-161701429D01*
X29512858Y-161653810D01*
X29417620Y-161606190D01*
X29227143Y-161558571D01*
X29131905Y-161510952D01*
X29084286Y-161463333D01*
X29036667Y-161368095D01*
X29036667Y-161272857D01*
X29084286Y-161177619D01*
X29131905Y-161130000D01*
X29227143Y-161082381D01*
X29465239Y-161082381D01*
X29608096Y-161130000D01*
X29941429Y-161082381D02*
X30179524Y-162082381D01*
X30370001Y-161368095D01*
X30560477Y-162082381D01*
X30798572Y-161082381D01*
X31131905Y-161177619D02*
X31179524Y-161130000D01*
X31274762Y-161082381D01*
X31512858Y-161082381D01*
X31608096Y-161130000D01*
X31655715Y-161177619D01*
X31703334Y-161272857D01*
X31703334Y-161368095D01*
X31655715Y-161510952D01*
X31084286Y-162082381D01*
X31703334Y-162082381D01*
X53768095Y-140862381D02*
X53768095Y-141671905D01*
X53815714Y-141767143D01*
X53863333Y-141814762D01*
X53958571Y-141862381D01*
X54149048Y-141862381D01*
X54244286Y-141814762D01*
X54291905Y-141767143D01*
X54339524Y-141671905D01*
X54339524Y-140862381D01*
X54720476Y-140862381D02*
X55339524Y-140862381D01*
X55006190Y-141243333D01*
X55149048Y-141243333D01*
X55244286Y-141290952D01*
X55291905Y-141338571D01*
X55339524Y-141433810D01*
X55339524Y-141671905D01*
X55291905Y-141767143D01*
X55244286Y-141814762D01*
X55149048Y-141862381D01*
X54863333Y-141862381D01*
X54768095Y-141814762D01*
X54720476Y-141767143D01*
X42878571Y-158835714D02*
X42926190Y-158692857D01*
X42973810Y-158645238D01*
X43069048Y-158597619D01*
X43211905Y-158597619D01*
X43307143Y-158645238D01*
X43354762Y-158692857D01*
X43402381Y-158788095D01*
X43402381Y-159169048D01*
X42402381Y-159169048D01*
X42402381Y-158835714D01*
X42450000Y-158740476D01*
X42497619Y-158692857D01*
X42592857Y-158645238D01*
X42688095Y-158645238D01*
X42783333Y-158692857D01*
X42830952Y-158740476D01*
X42878571Y-158835714D01*
X42878571Y-159169048D01*
X42402381Y-158311905D02*
X42402381Y-157740476D01*
X43402381Y-158026191D02*
X42402381Y-158026191D01*
X43402381Y-156883333D02*
X43402381Y-157454762D01*
X43402381Y-157169048D02*
X42402381Y-157169048D01*
X42545238Y-157264286D01*
X42640476Y-157359524D01*
X42688095Y-157454762D01*
X72081905Y-150142381D02*
X72081905Y-149142381D01*
X72462858Y-149142381D01*
X72558096Y-149190000D01*
X72605715Y-149237619D01*
X72653334Y-149332857D01*
X72653334Y-149475714D01*
X72605715Y-149570952D01*
X72558096Y-149618571D01*
X72462858Y-149666190D01*
X72081905Y-149666190D01*
X72986667Y-149142381D02*
X73605715Y-149142381D01*
X73272381Y-149523333D01*
X73415239Y-149523333D01*
X73510477Y-149570952D01*
X73558096Y-149618571D01*
X73605715Y-149713810D01*
X73605715Y-149951905D01*
X73558096Y-150047143D01*
X73510477Y-150094762D01*
X73415239Y-150142381D01*
X73129524Y-150142381D01*
X73034286Y-150094762D01*
X72986667Y-150047143D01*
X60941905Y-153912381D02*
X60941905Y-152912381D01*
X61322858Y-152912381D01*
X61418096Y-152960000D01*
X61465715Y-153007619D01*
X61513334Y-153102857D01*
X61513334Y-153245714D01*
X61465715Y-153340952D01*
X61418096Y-153388571D01*
X61322858Y-153436190D01*
X60941905Y-153436190D01*
X62370477Y-153245714D02*
X62370477Y-153912381D01*
X62132381Y-152864762D02*
X61894286Y-153579048D01*
X62513334Y-153579048D01*
X31183334Y-139427381D02*
X30707143Y-139427381D01*
X30707143Y-138427381D01*
X32040477Y-139427381D02*
X31469048Y-139427381D01*
X31754762Y-139427381D02*
X31754762Y-138427381D01*
X31659524Y-138570238D01*
X31564286Y-138665476D01*
X31469048Y-138713095D01*
M02*
