%FSLAX45Y45*%
G04 Gerber Fmt 4.5, Leading zero omitted, Abs format (unit mm)*
G04 Created by KiCad (PCBNEW 4.0.6+dfsg1-1) date Tue Dec 26 18:46:28 2017*
%MOMM*%
%LPD*%
G01*
G04 APERTURE LIST*
%ADD10C,0.127000*%
%ADD11C,0.010000*%
%ADD12C,0.200000*%
%ADD13C,0.300000*%
G04 APERTURE END LIST*
D10*
D11*
X2770000Y-18340000D02*
X2770000Y-13760000D01*
X8820000Y-18340000D02*
X2770000Y-18340000D01*
X8820000Y-13760000D02*
X8820000Y-18340000D01*
X2770000Y-13760000D02*
X8820000Y-13760000D01*
D12*
X4423000Y-14228000D02*
X4433000Y-14238000D01*
X4433000Y-14228000D02*
X4423000Y-14238000D01*
X4507000Y-14618000D02*
X4517000Y-14628000D01*
X4517000Y-14618000D02*
X4507000Y-14628000D01*
X4507000Y-14658000D02*
X4517000Y-14668000D01*
X4517000Y-14658000D02*
X4507000Y-14668000D01*
X4507000Y-14698000D02*
X4517000Y-14708000D01*
X4517000Y-14698000D02*
X4507000Y-14708000D01*
X4547000Y-14698000D02*
X4557000Y-14708000D01*
X4557000Y-14698000D02*
X4547000Y-14708000D01*
X4547000Y-14738000D02*
X4557000Y-14748000D01*
X4557000Y-14738000D02*
X4547000Y-14748000D01*
X4722000Y-14738000D02*
X4732000Y-14748000D01*
X4732000Y-14738000D02*
X4722000Y-14748000D01*
X4881000Y-14658000D02*
X4891000Y-14668000D01*
X4891000Y-14658000D02*
X4881000Y-14668000D01*
X4927000Y-14698000D02*
X4937000Y-14708000D01*
X4937000Y-14698000D02*
X4927000Y-14708000D01*
X5305000Y-14710000D02*
X5315000Y-14720000D01*
X5315000Y-14710000D02*
X5305000Y-14720000D01*
X5884000Y-14811000D02*
X5894000Y-14821000D01*
X5894000Y-14811000D02*
X5884000Y-14821000D01*
X6067000Y-14811000D02*
X6077000Y-14821000D01*
X6077000Y-14811000D02*
X6067000Y-14821000D01*
X6514000Y-14387000D02*
X6524000Y-14397000D01*
X6524000Y-14387000D02*
X6514000Y-14397000D01*
X3242500Y-15740000D02*
G75*
G03X3242500Y-15740000I-20000J0D01*
G01*
X3611000Y-15443000D02*
G75*
G03X3611000Y-15443000I-20000J0D01*
G01*
X3724000Y-13925000D02*
G75*
G03X3724000Y-13925000I-20000J0D01*
G01*
X3724000Y-14560000D02*
G75*
G03X3724000Y-14560000I-20000J0D01*
G01*
X4010000Y-16697500D02*
G75*
G03X4010000Y-16697500I-20000J0D01*
G01*
X4186000Y-17360000D02*
G75*
G03X4186000Y-17360000I-20000J0D01*
G01*
X4315000Y-14446000D02*
G75*
G03X4315000Y-14446000I-20000J0D01*
G01*
X4315000Y-14560000D02*
G75*
G03X4315000Y-14560000I-20000J0D01*
G01*
X4530000Y-17082500D02*
G75*
G03X4530000Y-17082500I-20000J0D01*
G01*
X4537000Y-16528000D02*
G75*
G03X4537000Y-16528000I-20000J0D01*
G01*
X4568000Y-14831000D02*
G75*
G03X4568000Y-14831000I-20000J0D01*
G01*
X4772500Y-15967500D02*
G75*
G03X4772500Y-15967500I-20000J0D01*
G01*
X4772500Y-16695000D02*
G75*
G03X4772500Y-16695000I-20000J0D01*
G01*
X4930000Y-16330000D02*
G75*
G03X4930000Y-16330000I-20000J0D01*
G01*
X5180000Y-15443000D02*
G75*
G03X5180000Y-15443000I-20000J0D01*
G01*
X5185000Y-17534000D02*
G75*
G03X5185000Y-17534000I-20000J0D01*
G01*
X5186000Y-17424000D02*
G75*
G03X5186000Y-17424000I-20000J0D01*
G01*
X5300000Y-16850000D02*
G75*
G03X5300000Y-16850000I-20000J0D01*
G01*
X5300000Y-17352500D02*
G75*
G03X5300000Y-17352500I-20000J0D01*
G01*
X5330000Y-14805000D02*
G75*
G03X5330000Y-14805000I-20000J0D01*
G01*
X5405000Y-17625000D02*
G75*
G03X5405000Y-17625000I-20000J0D01*
G01*
X5462500Y-16765000D02*
G75*
G03X5462500Y-16765000I-20000J0D01*
G01*
X5652500Y-17622500D02*
G75*
G03X5652500Y-17622500I-20000J0D01*
G01*
X5845000Y-14487500D02*
G75*
G03X5845000Y-14487500I-20000J0D01*
G01*
X5845000Y-14745000D02*
G75*
G03X5845000Y-14745000I-20000J0D01*
G01*
X6022000Y-17196000D02*
G75*
G03X6022000Y-17196000I-20000J0D01*
G01*
X6095000Y-15632500D02*
G75*
G03X6095000Y-15632500I-20000J0D01*
G01*
X6177500Y-16367500D02*
G75*
G03X6177500Y-16367500I-20000J0D01*
G01*
X6191000Y-17457000D02*
G75*
G03X6191000Y-17457000I-20000J0D01*
G01*
X6272500Y-16367500D02*
G75*
G03X6272500Y-16367500I-20000J0D01*
G01*
X6295000Y-16127000D02*
G75*
G03X6295000Y-16127000I-20000J0D01*
G01*
X6332000Y-15461000D02*
G75*
G03X6332000Y-15461000I-20000J0D01*
G01*
X6333000Y-15713000D02*
G75*
G03X6333000Y-15713000I-20000J0D01*
G01*
X6360000Y-16367500D02*
G75*
G03X6360000Y-16367500I-20000J0D01*
G01*
X6462500Y-15642500D02*
G75*
G03X6462500Y-15642500I-20000J0D01*
G01*
X6520000Y-17273000D02*
G75*
G03X6520000Y-17273000I-20000J0D01*
G01*
X6560000Y-15880000D02*
G75*
G03X6560000Y-15880000I-20000J0D01*
G01*
X6584000Y-17862500D02*
G75*
G03X6584000Y-17862500I-20000J0D01*
G01*
X6584000Y-17989500D02*
G75*
G03X6584000Y-17989500I-20000J0D01*
G01*
X6607500Y-16547500D02*
G75*
G03X6607500Y-16547500I-20000J0D01*
G01*
X6647000Y-17547000D02*
G75*
G03X6647000Y-17547000I-20000J0D01*
G01*
X6666000Y-14265000D02*
G75*
G03X6666000Y-14265000I-20000J0D01*
G01*
X6687500Y-16645000D02*
G75*
G03X6687500Y-16645000I-20000J0D01*
G01*
X6814000Y-15108000D02*
G75*
G03X6814000Y-15108000I-20000J0D01*
G01*
X6891000Y-17457000D02*
G75*
G03X6891000Y-17457000I-20000J0D01*
G01*
X6968000Y-15330000D02*
G75*
G03X6968000Y-15330000I-20000J0D01*
G01*
X7025000Y-16745000D02*
G75*
G03X7025000Y-16745000I-20000J0D01*
G01*
X7026000Y-16894000D02*
G75*
G03X7026000Y-16894000I-20000J0D01*
G01*
X7125000Y-15725000D02*
G75*
G03X7125000Y-15725000I-20000J0D01*
G01*
X7175000Y-15642500D02*
G75*
G03X7175000Y-15642500I-20000J0D01*
G01*
X7235000Y-15585000D02*
G75*
G03X7235000Y-15585000I-20000J0D01*
G01*
X7295000Y-15527500D02*
G75*
G03X7295000Y-15527500I-20000J0D01*
G01*
X7336000Y-16894000D02*
G75*
G03X7336000Y-16894000I-20000J0D01*
G01*
X7352500Y-15472500D02*
G75*
G03X7352500Y-15472500I-20000J0D01*
G01*
X7392000Y-17427000D02*
G75*
G03X7392000Y-17427000I-20000J0D01*
G01*
X7417000Y-16846000D02*
G75*
G03X7417000Y-16846000I-20000J0D01*
G01*
X7755000Y-16372500D02*
G75*
G03X7755000Y-16372500I-20000J0D01*
G01*
X7807500Y-14565000D02*
G75*
G03X7807500Y-14565000I-20000J0D01*
G01*
X7822000Y-16586000D02*
G75*
G03X7822000Y-16586000I-20000J0D01*
G01*
X7822000Y-16762000D02*
G75*
G03X7822000Y-16762000I-20000J0D01*
G01*
X7842500Y-16295000D02*
G75*
G03X7842500Y-16295000I-20000J0D01*
G01*
X7867500Y-14725000D02*
G75*
G03X7867500Y-14725000I-20000J0D01*
G01*
X7975000Y-14630000D02*
G75*
G03X7975000Y-14630000I-20000J0D01*
G01*
X8282500Y-14567500D02*
G75*
G03X8282500Y-14567500I-20000J0D01*
G01*
X8649000Y-14629000D02*
G75*
G03X8649000Y-14629000I-20000J0D01*
G01*
X5022500Y-18125000D02*
X5022500Y-18180000D01*
X4995000Y-18152500D02*
X5050000Y-18152500D01*
X5005000Y-18120000D02*
X5005000Y-18185000D01*
X5040000Y-18120000D02*
X5040000Y-18185000D01*
X5005000Y-18185000D02*
G75*
G03X5040000Y-18185000I17500J0D01*
G01*
X5040000Y-18120000D02*
G75*
G03X5005000Y-18120000I-17500J0D01*
G01*
X5797500Y-18125000D02*
X5797500Y-18180000D01*
X5770000Y-18152500D02*
X5825000Y-18152500D01*
X5780000Y-18120000D02*
X5780000Y-18185000D01*
X5815000Y-18120000D02*
X5815000Y-18185000D01*
X5780000Y-18185000D02*
G75*
G03X5815000Y-18185000I17500J0D01*
G01*
X5815000Y-18120000D02*
G75*
G03X5780000Y-18120000I-17500J0D01*
G01*
X5067552Y-17802552D02*
X5067552Y-17742448D01*
X5007448Y-17742448D01*
X5007448Y-17802552D01*
X5067552Y-17802552D01*
X5005000Y-17745000D02*
X5005000Y-17800000D01*
X5070000Y-17745000D02*
X5070000Y-17800000D01*
X5005000Y-17800000D02*
G75*
G03X5070000Y-17800000I32500J0D01*
G01*
X5070000Y-17745000D02*
G75*
G03X5005000Y-17745000I-32500J0D01*
G01*
X5812552Y-17802552D02*
X5812552Y-17742448D01*
X5752448Y-17742448D01*
X5752448Y-17802552D01*
X5812552Y-17802552D01*
X5750000Y-17745000D02*
X5750000Y-17800000D01*
X5815000Y-17745000D02*
X5815000Y-17800000D01*
X5750000Y-17800000D02*
G75*
G03X5815000Y-17800000I32500J0D01*
G01*
X5815000Y-17745000D02*
G75*
G03X5750000Y-17745000I-32500J0D01*
G01*
X3117500Y-14166000D02*
X3167500Y-14116000D01*
X3117500Y-14066000D01*
X3067500Y-14116000D01*
X3117500Y-14166000D01*
X3117500Y-14420000D02*
X3167500Y-14370000D01*
X3117500Y-14320000D01*
X3067500Y-14370000D01*
X3117500Y-14420000D01*
X3812500Y-15690000D02*
X3862500Y-15640000D01*
X3812500Y-15590000D01*
X3762500Y-15640000D01*
X3812500Y-15690000D01*
X4066500Y-15690000D02*
X4116500Y-15640000D01*
X4066500Y-15590000D01*
X4016500Y-15640000D01*
X4066500Y-15690000D01*
D13*
X3040928Y-18806214D02*
X3040928Y-18506214D01*
X3112357Y-18506214D01*
X3155214Y-18520500D01*
X3183786Y-18549072D01*
X3198071Y-18577643D01*
X3212357Y-18634786D01*
X3212357Y-18677643D01*
X3198071Y-18734786D01*
X3183786Y-18763357D01*
X3155214Y-18791929D01*
X3112357Y-18806214D01*
X3040928Y-18806214D01*
X3340928Y-18806214D02*
X3340928Y-18606214D01*
X3340928Y-18663357D02*
X3355214Y-18634786D01*
X3369500Y-18620500D01*
X3398071Y-18606214D01*
X3426643Y-18606214D01*
X3526643Y-18806214D02*
X3526643Y-18606214D01*
X3526643Y-18506214D02*
X3512357Y-18520500D01*
X3526643Y-18534786D01*
X3540928Y-18520500D01*
X3526643Y-18506214D01*
X3526643Y-18534786D01*
X3712357Y-18806214D02*
X3683786Y-18791929D01*
X3669500Y-18763357D01*
X3669500Y-18506214D01*
X3869500Y-18806214D02*
X3840928Y-18791929D01*
X3826643Y-18763357D01*
X3826643Y-18506214D01*
X4212357Y-18806214D02*
X4212357Y-18506214D01*
X4312357Y-18720500D01*
X4412357Y-18506214D01*
X4412357Y-18806214D01*
X4683786Y-18806214D02*
X4683786Y-18649072D01*
X4669500Y-18620500D01*
X4640929Y-18606214D01*
X4583786Y-18606214D01*
X4555214Y-18620500D01*
X4683786Y-18791929D02*
X4655214Y-18806214D01*
X4583786Y-18806214D01*
X4555214Y-18791929D01*
X4540929Y-18763357D01*
X4540929Y-18734786D01*
X4555214Y-18706214D01*
X4583786Y-18691929D01*
X4655214Y-18691929D01*
X4683786Y-18677643D01*
X4826643Y-18606214D02*
X4826643Y-18906214D01*
X4826643Y-18620500D02*
X4855214Y-18606214D01*
X4912357Y-18606214D01*
X4940929Y-18620500D01*
X4955214Y-18634786D01*
X4969500Y-18663357D01*
X4969500Y-18749072D01*
X4955214Y-18777643D01*
X4940929Y-18791929D01*
X4912357Y-18806214D01*
X4855214Y-18806214D01*
X4826643Y-18791929D01*
X5098071Y-18777643D02*
X5112357Y-18791929D01*
X5098071Y-18806214D01*
X5083786Y-18791929D01*
X5098071Y-18777643D01*
X5098071Y-18806214D01*
X5098071Y-18620500D02*
X5112357Y-18634786D01*
X5098071Y-18649072D01*
X5083786Y-18634786D01*
X5098071Y-18620500D01*
X5098071Y-18649072D01*
X2759500Y-19295500D02*
X2769500Y-19305500D01*
X2769500Y-19295500D02*
X2759500Y-19305500D01*
X3098071Y-19136214D02*
X3126643Y-19136214D01*
X3155214Y-19150500D01*
X3169500Y-19164786D01*
X3183786Y-19193357D01*
X3198071Y-19250500D01*
X3198071Y-19321929D01*
X3183786Y-19379072D01*
X3169500Y-19407643D01*
X3155214Y-19421929D01*
X3126643Y-19436214D01*
X3098071Y-19436214D01*
X3069500Y-19421929D01*
X3055214Y-19407643D01*
X3040928Y-19379072D01*
X3026643Y-19321929D01*
X3026643Y-19250500D01*
X3040928Y-19193357D01*
X3055214Y-19164786D01*
X3069500Y-19150500D01*
X3098071Y-19136214D01*
X3326643Y-19407643D02*
X3340928Y-19421929D01*
X3326643Y-19436214D01*
X3312357Y-19421929D01*
X3326643Y-19407643D01*
X3326643Y-19436214D01*
X3626643Y-19436214D02*
X3455214Y-19436214D01*
X3540928Y-19436214D02*
X3540928Y-19136214D01*
X3512357Y-19179072D01*
X3483786Y-19207643D01*
X3455214Y-19221929D01*
X3812357Y-19136214D02*
X3840928Y-19136214D01*
X3869500Y-19150500D01*
X3883786Y-19164786D01*
X3898071Y-19193357D01*
X3912357Y-19250500D01*
X3912357Y-19321929D01*
X3898071Y-19379072D01*
X3883786Y-19407643D01*
X3869500Y-19421929D01*
X3840928Y-19436214D01*
X3812357Y-19436214D01*
X3783786Y-19421929D01*
X3769500Y-19407643D01*
X3755214Y-19379072D01*
X3740928Y-19321929D01*
X3740928Y-19250500D01*
X3755214Y-19193357D01*
X3769500Y-19164786D01*
X3783786Y-19150500D01*
X3812357Y-19136214D01*
X4040928Y-19436214D02*
X4040928Y-19236214D01*
X4040928Y-19264786D02*
X4055214Y-19250500D01*
X4083786Y-19236214D01*
X4126643Y-19236214D01*
X4155214Y-19250500D01*
X4169500Y-19279072D01*
X4169500Y-19436214D01*
X4169500Y-19279072D02*
X4183786Y-19250500D01*
X4212357Y-19236214D01*
X4255214Y-19236214D01*
X4283786Y-19250500D01*
X4298071Y-19279072D01*
X4298071Y-19436214D01*
X4440929Y-19436214D02*
X4440929Y-19236214D01*
X4440929Y-19264786D02*
X4455214Y-19250500D01*
X4483786Y-19236214D01*
X4526643Y-19236214D01*
X4555214Y-19250500D01*
X4569500Y-19279072D01*
X4569500Y-19436214D01*
X4569500Y-19279072D02*
X4583786Y-19250500D01*
X4612357Y-19236214D01*
X4655214Y-19236214D01*
X4683786Y-19250500D01*
X4698071Y-19279072D01*
X4698071Y-19436214D01*
X5283786Y-19121929D02*
X5026643Y-19507643D01*
X5669500Y-19136214D02*
X5698071Y-19136214D01*
X5726643Y-19150500D01*
X5740928Y-19164786D01*
X5755214Y-19193357D01*
X5769500Y-19250500D01*
X5769500Y-19321929D01*
X5755214Y-19379072D01*
X5740928Y-19407643D01*
X5726643Y-19421929D01*
X5698071Y-19436214D01*
X5669500Y-19436214D01*
X5640928Y-19421929D01*
X5626643Y-19407643D01*
X5612357Y-19379072D01*
X5598071Y-19321929D01*
X5598071Y-19250500D01*
X5612357Y-19193357D01*
X5626643Y-19164786D01*
X5640928Y-19150500D01*
X5669500Y-19136214D01*
X5898071Y-19407643D02*
X5912357Y-19421929D01*
X5898071Y-19436214D01*
X5883786Y-19421929D01*
X5898071Y-19407643D01*
X5898071Y-19436214D01*
X6098071Y-19136214D02*
X6126643Y-19136214D01*
X6155214Y-19150500D01*
X6169500Y-19164786D01*
X6183785Y-19193357D01*
X6198071Y-19250500D01*
X6198071Y-19321929D01*
X6183785Y-19379072D01*
X6169500Y-19407643D01*
X6155214Y-19421929D01*
X6126643Y-19436214D01*
X6098071Y-19436214D01*
X6069500Y-19421929D01*
X6055214Y-19407643D01*
X6040928Y-19379072D01*
X6026643Y-19321929D01*
X6026643Y-19250500D01*
X6040928Y-19193357D01*
X6055214Y-19164786D01*
X6069500Y-19150500D01*
X6098071Y-19136214D01*
X6383785Y-19136214D02*
X6412357Y-19136214D01*
X6440928Y-19150500D01*
X6455214Y-19164786D01*
X6469500Y-19193357D01*
X6483785Y-19250500D01*
X6483785Y-19321929D01*
X6469500Y-19379072D01*
X6455214Y-19407643D01*
X6440928Y-19421929D01*
X6412357Y-19436214D01*
X6383785Y-19436214D01*
X6355214Y-19421929D01*
X6340928Y-19407643D01*
X6326643Y-19379072D01*
X6312357Y-19321929D01*
X6312357Y-19250500D01*
X6326643Y-19193357D01*
X6340928Y-19164786D01*
X6355214Y-19150500D01*
X6383785Y-19136214D01*
X6740928Y-19236214D02*
X6740928Y-19436214D01*
X6669500Y-19121929D02*
X6598071Y-19336214D01*
X6783785Y-19336214D01*
X6883786Y-19136214D02*
X6883786Y-19193357D01*
X6998071Y-19136214D02*
X6998071Y-19193357D01*
X7440928Y-19550500D02*
X7426643Y-19536214D01*
X7398071Y-19493357D01*
X7383785Y-19464786D01*
X7369500Y-19421929D01*
X7355214Y-19350500D01*
X7355214Y-19293357D01*
X7369500Y-19221929D01*
X7383785Y-19179072D01*
X7398071Y-19150500D01*
X7426643Y-19107643D01*
X7440928Y-19093357D01*
X7712357Y-19436214D02*
X7540928Y-19436214D01*
X7626643Y-19436214D02*
X7626643Y-19136214D01*
X7598071Y-19179072D01*
X7569500Y-19207643D01*
X7540928Y-19221929D01*
X7812357Y-19136214D02*
X7998071Y-19136214D01*
X7898071Y-19250500D01*
X7940928Y-19250500D01*
X7969500Y-19264786D01*
X7983785Y-19279072D01*
X7998071Y-19307643D01*
X7998071Y-19379072D01*
X7983785Y-19407643D01*
X7969500Y-19421929D01*
X7940928Y-19436214D01*
X7855214Y-19436214D01*
X7826643Y-19421929D01*
X7812357Y-19407643D01*
X8355214Y-19436214D02*
X8355214Y-19136214D01*
X8483786Y-19436214D02*
X8483786Y-19279072D01*
X8469500Y-19250500D01*
X8440928Y-19236214D01*
X8398071Y-19236214D01*
X8369500Y-19250500D01*
X8355214Y-19264786D01*
X8669500Y-19436214D02*
X8640928Y-19421929D01*
X8626643Y-19407643D01*
X8612357Y-19379072D01*
X8612357Y-19293357D01*
X8626643Y-19264786D01*
X8640928Y-19250500D01*
X8669500Y-19236214D01*
X8712357Y-19236214D01*
X8740928Y-19250500D01*
X8755214Y-19264786D01*
X8769500Y-19293357D01*
X8769500Y-19379072D01*
X8755214Y-19407643D01*
X8740928Y-19421929D01*
X8712357Y-19436214D01*
X8669500Y-19436214D01*
X8940928Y-19436214D02*
X8912357Y-19421929D01*
X8898071Y-19393357D01*
X8898071Y-19136214D01*
X9169500Y-19421929D02*
X9140929Y-19436214D01*
X9083786Y-19436214D01*
X9055214Y-19421929D01*
X9040929Y-19393357D01*
X9040929Y-19279072D01*
X9055214Y-19250500D01*
X9083786Y-19236214D01*
X9140929Y-19236214D01*
X9169500Y-19250500D01*
X9183786Y-19279072D01*
X9183786Y-19307643D01*
X9040929Y-19336214D01*
X9298071Y-19421929D02*
X9326643Y-19436214D01*
X9383786Y-19436214D01*
X9412357Y-19421929D01*
X9426643Y-19393357D01*
X9426643Y-19379072D01*
X9412357Y-19350500D01*
X9383786Y-19336214D01*
X9340929Y-19336214D01*
X9312357Y-19321929D01*
X9298071Y-19293357D01*
X9298071Y-19279072D01*
X9312357Y-19250500D01*
X9340929Y-19236214D01*
X9383786Y-19236214D01*
X9412357Y-19250500D01*
X9526643Y-19550500D02*
X9540929Y-19536214D01*
X9569500Y-19493357D01*
X9583786Y-19464786D01*
X9598071Y-19421929D01*
X9612357Y-19350500D01*
X9612357Y-19293357D01*
X9598071Y-19221929D01*
X9583786Y-19179072D01*
X9569500Y-19150500D01*
X9540929Y-19107643D01*
X9526643Y-19093357D01*
X2769500Y-19696500D02*
G75*
G03X2769500Y-19696500I-20000J0D01*
G01*
X3098071Y-19532214D02*
X3126643Y-19532214D01*
X3155214Y-19546500D01*
X3169500Y-19560786D01*
X3183786Y-19589357D01*
X3198071Y-19646500D01*
X3198071Y-19717929D01*
X3183786Y-19775072D01*
X3169500Y-19803643D01*
X3155214Y-19817929D01*
X3126643Y-19832214D01*
X3098071Y-19832214D01*
X3069500Y-19817929D01*
X3055214Y-19803643D01*
X3040928Y-19775072D01*
X3026643Y-19717929D01*
X3026643Y-19646500D01*
X3040928Y-19589357D01*
X3055214Y-19560786D01*
X3069500Y-19546500D01*
X3098071Y-19532214D01*
X3326643Y-19803643D02*
X3340928Y-19817929D01*
X3326643Y-19832214D01*
X3312357Y-19817929D01*
X3326643Y-19803643D01*
X3326643Y-19832214D01*
X3598071Y-19632214D02*
X3598071Y-19832214D01*
X3526643Y-19517929D02*
X3455214Y-19732214D01*
X3640928Y-19732214D01*
X3812357Y-19532214D02*
X3840928Y-19532214D01*
X3869500Y-19546500D01*
X3883786Y-19560786D01*
X3898071Y-19589357D01*
X3912357Y-19646500D01*
X3912357Y-19717929D01*
X3898071Y-19775072D01*
X3883786Y-19803643D01*
X3869500Y-19817929D01*
X3840928Y-19832214D01*
X3812357Y-19832214D01*
X3783786Y-19817929D01*
X3769500Y-19803643D01*
X3755214Y-19775072D01*
X3740928Y-19717929D01*
X3740928Y-19646500D01*
X3755214Y-19589357D01*
X3769500Y-19560786D01*
X3783786Y-19546500D01*
X3812357Y-19532214D01*
X4040928Y-19832214D02*
X4040928Y-19632214D01*
X4040928Y-19660786D02*
X4055214Y-19646500D01*
X4083786Y-19632214D01*
X4126643Y-19632214D01*
X4155214Y-19646500D01*
X4169500Y-19675072D01*
X4169500Y-19832214D01*
X4169500Y-19675072D02*
X4183786Y-19646500D01*
X4212357Y-19632214D01*
X4255214Y-19632214D01*
X4283786Y-19646500D01*
X4298071Y-19675072D01*
X4298071Y-19832214D01*
X4440929Y-19832214D02*
X4440929Y-19632214D01*
X4440929Y-19660786D02*
X4455214Y-19646500D01*
X4483786Y-19632214D01*
X4526643Y-19632214D01*
X4555214Y-19646500D01*
X4569500Y-19675072D01*
X4569500Y-19832214D01*
X4569500Y-19675072D02*
X4583786Y-19646500D01*
X4612357Y-19632214D01*
X4655214Y-19632214D01*
X4683786Y-19646500D01*
X4698071Y-19675072D01*
X4698071Y-19832214D01*
X5283786Y-19517929D02*
X5026643Y-19903643D01*
X5669500Y-19532214D02*
X5698071Y-19532214D01*
X5726643Y-19546500D01*
X5740928Y-19560786D01*
X5755214Y-19589357D01*
X5769500Y-19646500D01*
X5769500Y-19717929D01*
X5755214Y-19775072D01*
X5740928Y-19803643D01*
X5726643Y-19817929D01*
X5698071Y-19832214D01*
X5669500Y-19832214D01*
X5640928Y-19817929D01*
X5626643Y-19803643D01*
X5612357Y-19775072D01*
X5598071Y-19717929D01*
X5598071Y-19646500D01*
X5612357Y-19589357D01*
X5626643Y-19560786D01*
X5640928Y-19546500D01*
X5669500Y-19532214D01*
X5898071Y-19803643D02*
X5912357Y-19817929D01*
X5898071Y-19832214D01*
X5883786Y-19817929D01*
X5898071Y-19803643D01*
X5898071Y-19832214D01*
X6098071Y-19532214D02*
X6126643Y-19532214D01*
X6155214Y-19546500D01*
X6169500Y-19560786D01*
X6183785Y-19589357D01*
X6198071Y-19646500D01*
X6198071Y-19717929D01*
X6183785Y-19775072D01*
X6169500Y-19803643D01*
X6155214Y-19817929D01*
X6126643Y-19832214D01*
X6098071Y-19832214D01*
X6069500Y-19817929D01*
X6055214Y-19803643D01*
X6040928Y-19775072D01*
X6026643Y-19717929D01*
X6026643Y-19646500D01*
X6040928Y-19589357D01*
X6055214Y-19560786D01*
X6069500Y-19546500D01*
X6098071Y-19532214D01*
X6483785Y-19832214D02*
X6312357Y-19832214D01*
X6398071Y-19832214D02*
X6398071Y-19532214D01*
X6369500Y-19575072D01*
X6340928Y-19603643D01*
X6312357Y-19617929D01*
X6740928Y-19532214D02*
X6683785Y-19532214D01*
X6655214Y-19546500D01*
X6640928Y-19560786D01*
X6612357Y-19603643D01*
X6598071Y-19660786D01*
X6598071Y-19775072D01*
X6612357Y-19803643D01*
X6626643Y-19817929D01*
X6655214Y-19832214D01*
X6712357Y-19832214D01*
X6740928Y-19817929D01*
X6755214Y-19803643D01*
X6769500Y-19775072D01*
X6769500Y-19703643D01*
X6755214Y-19675072D01*
X6740928Y-19660786D01*
X6712357Y-19646500D01*
X6655214Y-19646500D01*
X6626643Y-19660786D01*
X6612357Y-19675072D01*
X6598071Y-19703643D01*
X6883786Y-19532214D02*
X6883786Y-19589357D01*
X6998071Y-19532214D02*
X6998071Y-19589357D01*
X7440928Y-19946500D02*
X7426643Y-19932214D01*
X7398071Y-19889357D01*
X7383785Y-19860786D01*
X7369500Y-19817929D01*
X7355214Y-19746500D01*
X7355214Y-19689357D01*
X7369500Y-19617929D01*
X7383785Y-19575072D01*
X7398071Y-19546500D01*
X7426643Y-19503643D01*
X7440928Y-19489357D01*
X7683785Y-19532214D02*
X7626643Y-19532214D01*
X7598071Y-19546500D01*
X7583785Y-19560786D01*
X7555214Y-19603643D01*
X7540928Y-19660786D01*
X7540928Y-19775072D01*
X7555214Y-19803643D01*
X7569500Y-19817929D01*
X7598071Y-19832214D01*
X7655214Y-19832214D01*
X7683785Y-19817929D01*
X7698071Y-19803643D01*
X7712357Y-19775072D01*
X7712357Y-19703643D01*
X7698071Y-19675072D01*
X7683785Y-19660786D01*
X7655214Y-19646500D01*
X7598071Y-19646500D01*
X7569500Y-19660786D01*
X7555214Y-19675072D01*
X7540928Y-19703643D01*
X7983785Y-19532214D02*
X7840928Y-19532214D01*
X7826643Y-19675072D01*
X7840928Y-19660786D01*
X7869500Y-19646500D01*
X7940928Y-19646500D01*
X7969500Y-19660786D01*
X7983785Y-19675072D01*
X7998071Y-19703643D01*
X7998071Y-19775072D01*
X7983785Y-19803643D01*
X7969500Y-19817929D01*
X7940928Y-19832214D01*
X7869500Y-19832214D01*
X7840928Y-19817929D01*
X7826643Y-19803643D01*
X8355214Y-19832214D02*
X8355214Y-19532214D01*
X8483786Y-19832214D02*
X8483786Y-19675072D01*
X8469500Y-19646500D01*
X8440928Y-19632214D01*
X8398071Y-19632214D01*
X8369500Y-19646500D01*
X8355214Y-19660786D01*
X8669500Y-19832214D02*
X8640928Y-19817929D01*
X8626643Y-19803643D01*
X8612357Y-19775072D01*
X8612357Y-19689357D01*
X8626643Y-19660786D01*
X8640928Y-19646500D01*
X8669500Y-19632214D01*
X8712357Y-19632214D01*
X8740928Y-19646500D01*
X8755214Y-19660786D01*
X8769500Y-19689357D01*
X8769500Y-19775072D01*
X8755214Y-19803643D01*
X8740928Y-19817929D01*
X8712357Y-19832214D01*
X8669500Y-19832214D01*
X8940928Y-19832214D02*
X8912357Y-19817929D01*
X8898071Y-19789357D01*
X8898071Y-19532214D01*
X9169500Y-19817929D02*
X9140929Y-19832214D01*
X9083786Y-19832214D01*
X9055214Y-19817929D01*
X9040929Y-19789357D01*
X9040929Y-19675072D01*
X9055214Y-19646500D01*
X9083786Y-19632214D01*
X9140929Y-19632214D01*
X9169500Y-19646500D01*
X9183786Y-19675072D01*
X9183786Y-19703643D01*
X9040929Y-19732214D01*
X9298071Y-19817929D02*
X9326643Y-19832214D01*
X9383786Y-19832214D01*
X9412357Y-19817929D01*
X9426643Y-19789357D01*
X9426643Y-19775072D01*
X9412357Y-19746500D01*
X9383786Y-19732214D01*
X9340929Y-19732214D01*
X9312357Y-19717929D01*
X9298071Y-19689357D01*
X9298071Y-19675072D01*
X9312357Y-19646500D01*
X9340929Y-19632214D01*
X9383786Y-19632214D01*
X9412357Y-19646500D01*
X9526643Y-19946500D02*
X9540929Y-19932214D01*
X9569500Y-19889357D01*
X9583786Y-19860786D01*
X9598071Y-19817929D01*
X9612357Y-19746500D01*
X9612357Y-19689357D01*
X9598071Y-19617929D01*
X9583786Y-19575072D01*
X9569500Y-19546500D01*
X9540929Y-19503643D01*
X9526643Y-19489357D01*
X2742000Y-20065000D02*
X2742000Y-20120000D01*
X2714500Y-20092500D02*
X2769500Y-20092500D01*
X3098071Y-19928214D02*
X3126643Y-19928214D01*
X3155214Y-19942500D01*
X3169500Y-19956786D01*
X3183786Y-19985357D01*
X3198071Y-20042500D01*
X3198071Y-20113929D01*
X3183786Y-20171072D01*
X3169500Y-20199643D01*
X3155214Y-20213929D01*
X3126643Y-20228214D01*
X3098071Y-20228214D01*
X3069500Y-20213929D01*
X3055214Y-20199643D01*
X3040928Y-20171072D01*
X3026643Y-20113929D01*
X3026643Y-20042500D01*
X3040928Y-19985357D01*
X3055214Y-19956786D01*
X3069500Y-19942500D01*
X3098071Y-19928214D01*
X3326643Y-20199643D02*
X3340928Y-20213929D01*
X3326643Y-20228214D01*
X3312357Y-20213929D01*
X3326643Y-20199643D01*
X3326643Y-20228214D01*
X3612357Y-19928214D02*
X3469500Y-19928214D01*
X3455214Y-20071072D01*
X3469500Y-20056786D01*
X3498071Y-20042500D01*
X3569500Y-20042500D01*
X3598071Y-20056786D01*
X3612357Y-20071072D01*
X3626643Y-20099643D01*
X3626643Y-20171072D01*
X3612357Y-20199643D01*
X3598071Y-20213929D01*
X3569500Y-20228214D01*
X3498071Y-20228214D01*
X3469500Y-20213929D01*
X3455214Y-20199643D01*
X3898071Y-19928214D02*
X3755214Y-19928214D01*
X3740928Y-20071072D01*
X3755214Y-20056786D01*
X3783786Y-20042500D01*
X3855214Y-20042500D01*
X3883786Y-20056786D01*
X3898071Y-20071072D01*
X3912357Y-20099643D01*
X3912357Y-20171072D01*
X3898071Y-20199643D01*
X3883786Y-20213929D01*
X3855214Y-20228214D01*
X3783786Y-20228214D01*
X3755214Y-20213929D01*
X3740928Y-20199643D01*
X4040928Y-20228214D02*
X4040928Y-20028214D01*
X4040928Y-20056786D02*
X4055214Y-20042500D01*
X4083786Y-20028214D01*
X4126643Y-20028214D01*
X4155214Y-20042500D01*
X4169500Y-20071072D01*
X4169500Y-20228214D01*
X4169500Y-20071072D02*
X4183786Y-20042500D01*
X4212357Y-20028214D01*
X4255214Y-20028214D01*
X4283786Y-20042500D01*
X4298071Y-20071072D01*
X4298071Y-20228214D01*
X4440929Y-20228214D02*
X4440929Y-20028214D01*
X4440929Y-20056786D02*
X4455214Y-20042500D01*
X4483786Y-20028214D01*
X4526643Y-20028214D01*
X4555214Y-20042500D01*
X4569500Y-20071072D01*
X4569500Y-20228214D01*
X4569500Y-20071072D02*
X4583786Y-20042500D01*
X4612357Y-20028214D01*
X4655214Y-20028214D01*
X4683786Y-20042500D01*
X4698071Y-20071072D01*
X4698071Y-20228214D01*
X5283786Y-19913929D02*
X5026643Y-20299643D01*
X5669500Y-19928214D02*
X5698071Y-19928214D01*
X5726643Y-19942500D01*
X5740928Y-19956786D01*
X5755214Y-19985357D01*
X5769500Y-20042500D01*
X5769500Y-20113929D01*
X5755214Y-20171072D01*
X5740928Y-20199643D01*
X5726643Y-20213929D01*
X5698071Y-20228214D01*
X5669500Y-20228214D01*
X5640928Y-20213929D01*
X5626643Y-20199643D01*
X5612357Y-20171072D01*
X5598071Y-20113929D01*
X5598071Y-20042500D01*
X5612357Y-19985357D01*
X5626643Y-19956786D01*
X5640928Y-19942500D01*
X5669500Y-19928214D01*
X5898071Y-20199643D02*
X5912357Y-20213929D01*
X5898071Y-20228214D01*
X5883786Y-20213929D01*
X5898071Y-20199643D01*
X5898071Y-20228214D01*
X6098071Y-19928214D02*
X6126643Y-19928214D01*
X6155214Y-19942500D01*
X6169500Y-19956786D01*
X6183785Y-19985357D01*
X6198071Y-20042500D01*
X6198071Y-20113929D01*
X6183785Y-20171072D01*
X6169500Y-20199643D01*
X6155214Y-20213929D01*
X6126643Y-20228214D01*
X6098071Y-20228214D01*
X6069500Y-20213929D01*
X6055214Y-20199643D01*
X6040928Y-20171072D01*
X6026643Y-20113929D01*
X6026643Y-20042500D01*
X6040928Y-19985357D01*
X6055214Y-19956786D01*
X6069500Y-19942500D01*
X6098071Y-19928214D01*
X6312357Y-19956786D02*
X6326643Y-19942500D01*
X6355214Y-19928214D01*
X6426643Y-19928214D01*
X6455214Y-19942500D01*
X6469500Y-19956786D01*
X6483785Y-19985357D01*
X6483785Y-20013929D01*
X6469500Y-20056786D01*
X6298071Y-20228214D01*
X6483785Y-20228214D01*
X6598071Y-19956786D02*
X6612357Y-19942500D01*
X6640928Y-19928214D01*
X6712357Y-19928214D01*
X6740928Y-19942500D01*
X6755214Y-19956786D01*
X6769500Y-19985357D01*
X6769500Y-20013929D01*
X6755214Y-20056786D01*
X6583785Y-20228214D01*
X6769500Y-20228214D01*
X6883786Y-19928214D02*
X6883786Y-19985357D01*
X6998071Y-19928214D02*
X6998071Y-19985357D01*
X7440928Y-20342500D02*
X7426643Y-20328214D01*
X7398071Y-20285357D01*
X7383785Y-20256786D01*
X7369500Y-20213929D01*
X7355214Y-20142500D01*
X7355214Y-20085357D01*
X7369500Y-20013929D01*
X7383785Y-19971072D01*
X7398071Y-19942500D01*
X7426643Y-19899643D01*
X7440928Y-19885357D01*
X7612357Y-19928214D02*
X7640928Y-19928214D01*
X7669500Y-19942500D01*
X7683785Y-19956786D01*
X7698071Y-19985357D01*
X7712357Y-20042500D01*
X7712357Y-20113929D01*
X7698071Y-20171072D01*
X7683785Y-20199643D01*
X7669500Y-20213929D01*
X7640928Y-20228214D01*
X7612357Y-20228214D01*
X7583785Y-20213929D01*
X7569500Y-20199643D01*
X7555214Y-20171072D01*
X7540928Y-20113929D01*
X7540928Y-20042500D01*
X7555214Y-19985357D01*
X7569500Y-19956786D01*
X7583785Y-19942500D01*
X7612357Y-19928214D01*
X8069500Y-20228214D02*
X8069500Y-19928214D01*
X8198071Y-20228214D02*
X8198071Y-20071072D01*
X8183785Y-20042500D01*
X8155214Y-20028214D01*
X8112357Y-20028214D01*
X8083785Y-20042500D01*
X8069500Y-20056786D01*
X8383785Y-20228214D02*
X8355214Y-20213929D01*
X8340928Y-20199643D01*
X8326643Y-20171072D01*
X8326643Y-20085357D01*
X8340928Y-20056786D01*
X8355214Y-20042500D01*
X8383785Y-20028214D01*
X8426643Y-20028214D01*
X8455214Y-20042500D01*
X8469500Y-20056786D01*
X8483786Y-20085357D01*
X8483786Y-20171072D01*
X8469500Y-20199643D01*
X8455214Y-20213929D01*
X8426643Y-20228214D01*
X8383785Y-20228214D01*
X8655214Y-20228214D02*
X8626643Y-20213929D01*
X8612357Y-20185357D01*
X8612357Y-19928214D01*
X8883786Y-20213929D02*
X8855214Y-20228214D01*
X8798071Y-20228214D01*
X8769500Y-20213929D01*
X8755214Y-20185357D01*
X8755214Y-20071072D01*
X8769500Y-20042500D01*
X8798071Y-20028214D01*
X8855214Y-20028214D01*
X8883786Y-20042500D01*
X8898071Y-20071072D01*
X8898071Y-20099643D01*
X8755214Y-20128214D01*
X9012357Y-20213929D02*
X9040929Y-20228214D01*
X9098071Y-20228214D01*
X9126643Y-20213929D01*
X9140929Y-20185357D01*
X9140929Y-20171072D01*
X9126643Y-20142500D01*
X9098071Y-20128214D01*
X9055214Y-20128214D01*
X9026643Y-20113929D01*
X9012357Y-20085357D01*
X9012357Y-20071072D01*
X9026643Y-20042500D01*
X9055214Y-20028214D01*
X9098071Y-20028214D01*
X9126643Y-20042500D01*
X9498071Y-20113929D02*
X9726643Y-20113929D01*
X9612357Y-20228214D02*
X9612357Y-19999643D01*
X10083786Y-19956786D02*
X10098071Y-19942500D01*
X10126643Y-19928214D01*
X10198071Y-19928214D01*
X10226643Y-19942500D01*
X10240928Y-19956786D01*
X10255214Y-19985357D01*
X10255214Y-20013929D01*
X10240928Y-20056786D01*
X10069500Y-20228214D01*
X10255214Y-20228214D01*
X10598071Y-20213929D02*
X10626643Y-20228214D01*
X10683786Y-20228214D01*
X10712357Y-20213929D01*
X10726643Y-20185357D01*
X10726643Y-20171072D01*
X10712357Y-20142500D01*
X10683786Y-20128214D01*
X10640928Y-20128214D01*
X10612357Y-20113929D01*
X10598071Y-20085357D01*
X10598071Y-20071072D01*
X10612357Y-20042500D01*
X10640928Y-20028214D01*
X10683786Y-20028214D01*
X10712357Y-20042500D01*
X10898071Y-20228214D02*
X10869500Y-20213929D01*
X10855214Y-20185357D01*
X10855214Y-19928214D01*
X11055214Y-20228214D02*
X11026643Y-20213929D01*
X11012357Y-20199643D01*
X10998071Y-20171072D01*
X10998071Y-20085357D01*
X11012357Y-20056786D01*
X11026643Y-20042500D01*
X11055214Y-20028214D01*
X11098071Y-20028214D01*
X11126643Y-20042500D01*
X11140928Y-20056786D01*
X11155214Y-20085357D01*
X11155214Y-20171072D01*
X11140928Y-20199643D01*
X11126643Y-20213929D01*
X11098071Y-20228214D01*
X11055214Y-20228214D01*
X11240928Y-20028214D02*
X11355214Y-20028214D01*
X11283786Y-19928214D02*
X11283786Y-20185357D01*
X11298071Y-20213929D01*
X11326643Y-20228214D01*
X11355214Y-20228214D01*
X11440928Y-20213929D02*
X11469500Y-20228214D01*
X11526643Y-20228214D01*
X11555214Y-20213929D01*
X11569500Y-20185357D01*
X11569500Y-20171072D01*
X11555214Y-20142500D01*
X11526643Y-20128214D01*
X11483786Y-20128214D01*
X11455214Y-20113929D01*
X11440928Y-20085357D01*
X11440928Y-20071072D01*
X11455214Y-20042500D01*
X11483786Y-20028214D01*
X11526643Y-20028214D01*
X11555214Y-20042500D01*
X11669500Y-20342500D02*
X11683786Y-20328214D01*
X11712357Y-20285357D01*
X11726643Y-20256786D01*
X11740928Y-20213929D01*
X11755214Y-20142500D01*
X11755214Y-20085357D01*
X11740928Y-20013929D01*
X11726643Y-19971072D01*
X11712357Y-19942500D01*
X11683786Y-19899643D01*
X11669500Y-19885357D01*
X2757052Y-20518552D02*
X2757052Y-20458448D01*
X2696948Y-20458448D01*
X2696948Y-20518552D01*
X2757052Y-20518552D01*
X3098071Y-20324214D02*
X3126643Y-20324214D01*
X3155214Y-20338500D01*
X3169500Y-20352786D01*
X3183786Y-20381357D01*
X3198071Y-20438500D01*
X3198071Y-20509929D01*
X3183786Y-20567072D01*
X3169500Y-20595643D01*
X3155214Y-20609929D01*
X3126643Y-20624214D01*
X3098071Y-20624214D01*
X3069500Y-20609929D01*
X3055214Y-20595643D01*
X3040928Y-20567072D01*
X3026643Y-20509929D01*
X3026643Y-20438500D01*
X3040928Y-20381357D01*
X3055214Y-20352786D01*
X3069500Y-20338500D01*
X3098071Y-20324214D01*
X3326643Y-20595643D02*
X3340928Y-20609929D01*
X3326643Y-20624214D01*
X3312357Y-20609929D01*
X3326643Y-20595643D01*
X3326643Y-20624214D01*
X3512357Y-20452786D02*
X3483786Y-20438500D01*
X3469500Y-20424214D01*
X3455214Y-20395643D01*
X3455214Y-20381357D01*
X3469500Y-20352786D01*
X3483786Y-20338500D01*
X3512357Y-20324214D01*
X3569500Y-20324214D01*
X3598071Y-20338500D01*
X3612357Y-20352786D01*
X3626643Y-20381357D01*
X3626643Y-20395643D01*
X3612357Y-20424214D01*
X3598071Y-20438500D01*
X3569500Y-20452786D01*
X3512357Y-20452786D01*
X3483786Y-20467072D01*
X3469500Y-20481357D01*
X3455214Y-20509929D01*
X3455214Y-20567072D01*
X3469500Y-20595643D01*
X3483786Y-20609929D01*
X3512357Y-20624214D01*
X3569500Y-20624214D01*
X3598071Y-20609929D01*
X3612357Y-20595643D01*
X3626643Y-20567072D01*
X3626643Y-20509929D01*
X3612357Y-20481357D01*
X3598071Y-20467072D01*
X3569500Y-20452786D01*
X3898071Y-20324214D02*
X3755214Y-20324214D01*
X3740928Y-20467072D01*
X3755214Y-20452786D01*
X3783786Y-20438500D01*
X3855214Y-20438500D01*
X3883786Y-20452786D01*
X3898071Y-20467072D01*
X3912357Y-20495643D01*
X3912357Y-20567072D01*
X3898071Y-20595643D01*
X3883786Y-20609929D01*
X3855214Y-20624214D01*
X3783786Y-20624214D01*
X3755214Y-20609929D01*
X3740928Y-20595643D01*
X4040928Y-20624214D02*
X4040928Y-20424214D01*
X4040928Y-20452786D02*
X4055214Y-20438500D01*
X4083786Y-20424214D01*
X4126643Y-20424214D01*
X4155214Y-20438500D01*
X4169500Y-20467072D01*
X4169500Y-20624214D01*
X4169500Y-20467072D02*
X4183786Y-20438500D01*
X4212357Y-20424214D01*
X4255214Y-20424214D01*
X4283786Y-20438500D01*
X4298071Y-20467072D01*
X4298071Y-20624214D01*
X4440929Y-20624214D02*
X4440929Y-20424214D01*
X4440929Y-20452786D02*
X4455214Y-20438500D01*
X4483786Y-20424214D01*
X4526643Y-20424214D01*
X4555214Y-20438500D01*
X4569500Y-20467072D01*
X4569500Y-20624214D01*
X4569500Y-20467072D02*
X4583786Y-20438500D01*
X4612357Y-20424214D01*
X4655214Y-20424214D01*
X4683786Y-20438500D01*
X4698071Y-20467072D01*
X4698071Y-20624214D01*
X5283786Y-20309929D02*
X5026643Y-20695643D01*
X5669500Y-20324214D02*
X5698071Y-20324214D01*
X5726643Y-20338500D01*
X5740928Y-20352786D01*
X5755214Y-20381357D01*
X5769500Y-20438500D01*
X5769500Y-20509929D01*
X5755214Y-20567072D01*
X5740928Y-20595643D01*
X5726643Y-20609929D01*
X5698071Y-20624214D01*
X5669500Y-20624214D01*
X5640928Y-20609929D01*
X5626643Y-20595643D01*
X5612357Y-20567072D01*
X5598071Y-20509929D01*
X5598071Y-20438500D01*
X5612357Y-20381357D01*
X5626643Y-20352786D01*
X5640928Y-20338500D01*
X5669500Y-20324214D01*
X5898071Y-20595643D02*
X5912357Y-20609929D01*
X5898071Y-20624214D01*
X5883786Y-20609929D01*
X5898071Y-20595643D01*
X5898071Y-20624214D01*
X6098071Y-20324214D02*
X6126643Y-20324214D01*
X6155214Y-20338500D01*
X6169500Y-20352786D01*
X6183785Y-20381357D01*
X6198071Y-20438500D01*
X6198071Y-20509929D01*
X6183785Y-20567072D01*
X6169500Y-20595643D01*
X6155214Y-20609929D01*
X6126643Y-20624214D01*
X6098071Y-20624214D01*
X6069500Y-20609929D01*
X6055214Y-20595643D01*
X6040928Y-20567072D01*
X6026643Y-20509929D01*
X6026643Y-20438500D01*
X6040928Y-20381357D01*
X6055214Y-20352786D01*
X6069500Y-20338500D01*
X6098071Y-20324214D01*
X6298071Y-20324214D02*
X6483785Y-20324214D01*
X6383785Y-20438500D01*
X6426643Y-20438500D01*
X6455214Y-20452786D01*
X6469500Y-20467072D01*
X6483785Y-20495643D01*
X6483785Y-20567072D01*
X6469500Y-20595643D01*
X6455214Y-20609929D01*
X6426643Y-20624214D01*
X6340928Y-20624214D01*
X6312357Y-20609929D01*
X6298071Y-20595643D01*
X6583785Y-20324214D02*
X6769500Y-20324214D01*
X6669500Y-20438500D01*
X6712357Y-20438500D01*
X6740928Y-20452786D01*
X6755214Y-20467072D01*
X6769500Y-20495643D01*
X6769500Y-20567072D01*
X6755214Y-20595643D01*
X6740928Y-20609929D01*
X6712357Y-20624214D01*
X6626643Y-20624214D01*
X6598071Y-20609929D01*
X6583785Y-20595643D01*
X6883786Y-20324214D02*
X6883786Y-20381357D01*
X6998071Y-20324214D02*
X6998071Y-20381357D01*
X7440928Y-20738500D02*
X7426643Y-20724214D01*
X7398071Y-20681357D01*
X7383785Y-20652786D01*
X7369500Y-20609929D01*
X7355214Y-20538500D01*
X7355214Y-20481357D01*
X7369500Y-20409929D01*
X7383785Y-20367072D01*
X7398071Y-20338500D01*
X7426643Y-20295643D01*
X7440928Y-20281357D01*
X7612357Y-20324214D02*
X7640928Y-20324214D01*
X7669500Y-20338500D01*
X7683785Y-20352786D01*
X7698071Y-20381357D01*
X7712357Y-20438500D01*
X7712357Y-20509929D01*
X7698071Y-20567072D01*
X7683785Y-20595643D01*
X7669500Y-20609929D01*
X7640928Y-20624214D01*
X7612357Y-20624214D01*
X7583785Y-20609929D01*
X7569500Y-20595643D01*
X7555214Y-20567072D01*
X7540928Y-20509929D01*
X7540928Y-20438500D01*
X7555214Y-20381357D01*
X7569500Y-20352786D01*
X7583785Y-20338500D01*
X7612357Y-20324214D01*
X8069500Y-20624214D02*
X8069500Y-20324214D01*
X8198071Y-20624214D02*
X8198071Y-20467072D01*
X8183785Y-20438500D01*
X8155214Y-20424214D01*
X8112357Y-20424214D01*
X8083785Y-20438500D01*
X8069500Y-20452786D01*
X8383785Y-20624214D02*
X8355214Y-20609929D01*
X8340928Y-20595643D01*
X8326643Y-20567072D01*
X8326643Y-20481357D01*
X8340928Y-20452786D01*
X8355214Y-20438500D01*
X8383785Y-20424214D01*
X8426643Y-20424214D01*
X8455214Y-20438500D01*
X8469500Y-20452786D01*
X8483786Y-20481357D01*
X8483786Y-20567072D01*
X8469500Y-20595643D01*
X8455214Y-20609929D01*
X8426643Y-20624214D01*
X8383785Y-20624214D01*
X8655214Y-20624214D02*
X8626643Y-20609929D01*
X8612357Y-20581357D01*
X8612357Y-20324214D01*
X8883786Y-20609929D02*
X8855214Y-20624214D01*
X8798071Y-20624214D01*
X8769500Y-20609929D01*
X8755214Y-20581357D01*
X8755214Y-20467072D01*
X8769500Y-20438500D01*
X8798071Y-20424214D01*
X8855214Y-20424214D01*
X8883786Y-20438500D01*
X8898071Y-20467072D01*
X8898071Y-20495643D01*
X8755214Y-20524214D01*
X9012357Y-20609929D02*
X9040929Y-20624214D01*
X9098071Y-20624214D01*
X9126643Y-20609929D01*
X9140929Y-20581357D01*
X9140929Y-20567072D01*
X9126643Y-20538500D01*
X9098071Y-20524214D01*
X9055214Y-20524214D01*
X9026643Y-20509929D01*
X9012357Y-20481357D01*
X9012357Y-20467072D01*
X9026643Y-20438500D01*
X9055214Y-20424214D01*
X9098071Y-20424214D01*
X9126643Y-20438500D01*
X9498071Y-20509929D02*
X9726643Y-20509929D01*
X9612357Y-20624214D02*
X9612357Y-20395643D01*
X10083786Y-20352786D02*
X10098071Y-20338500D01*
X10126643Y-20324214D01*
X10198071Y-20324214D01*
X10226643Y-20338500D01*
X10240928Y-20352786D01*
X10255214Y-20381357D01*
X10255214Y-20409929D01*
X10240928Y-20452786D01*
X10069500Y-20624214D01*
X10255214Y-20624214D01*
X10598071Y-20609929D02*
X10626643Y-20624214D01*
X10683786Y-20624214D01*
X10712357Y-20609929D01*
X10726643Y-20581357D01*
X10726643Y-20567072D01*
X10712357Y-20538500D01*
X10683786Y-20524214D01*
X10640928Y-20524214D01*
X10612357Y-20509929D01*
X10598071Y-20481357D01*
X10598071Y-20467072D01*
X10612357Y-20438500D01*
X10640928Y-20424214D01*
X10683786Y-20424214D01*
X10712357Y-20438500D01*
X10898071Y-20624214D02*
X10869500Y-20609929D01*
X10855214Y-20581357D01*
X10855214Y-20324214D01*
X11055214Y-20624214D02*
X11026643Y-20609929D01*
X11012357Y-20595643D01*
X10998071Y-20567072D01*
X10998071Y-20481357D01*
X11012357Y-20452786D01*
X11026643Y-20438500D01*
X11055214Y-20424214D01*
X11098071Y-20424214D01*
X11126643Y-20438500D01*
X11140928Y-20452786D01*
X11155214Y-20481357D01*
X11155214Y-20567072D01*
X11140928Y-20595643D01*
X11126643Y-20609929D01*
X11098071Y-20624214D01*
X11055214Y-20624214D01*
X11240928Y-20424214D02*
X11355214Y-20424214D01*
X11283786Y-20324214D02*
X11283786Y-20581357D01*
X11298071Y-20609929D01*
X11326643Y-20624214D01*
X11355214Y-20624214D01*
X11440928Y-20609929D02*
X11469500Y-20624214D01*
X11526643Y-20624214D01*
X11555214Y-20609929D01*
X11569500Y-20581357D01*
X11569500Y-20567072D01*
X11555214Y-20538500D01*
X11526643Y-20524214D01*
X11483786Y-20524214D01*
X11455214Y-20509929D01*
X11440928Y-20481357D01*
X11440928Y-20467072D01*
X11455214Y-20438500D01*
X11483786Y-20424214D01*
X11526643Y-20424214D01*
X11555214Y-20438500D01*
X11669500Y-20738500D02*
X11683786Y-20724214D01*
X11712357Y-20681357D01*
X11726643Y-20652786D01*
X11740928Y-20609929D01*
X11755214Y-20538500D01*
X11755214Y-20481357D01*
X11740928Y-20409929D01*
X11726643Y-20367072D01*
X11712357Y-20338500D01*
X11683786Y-20295643D01*
X11669500Y-20281357D01*
X2719500Y-20934500D02*
X2769500Y-20884500D01*
X2719500Y-20834500D01*
X2669500Y-20884500D01*
X2719500Y-20934500D01*
X3198071Y-21020214D02*
X3026643Y-21020214D01*
X3112357Y-21020214D02*
X3112357Y-20720214D01*
X3083786Y-20763072D01*
X3055214Y-20791643D01*
X3026643Y-20805929D01*
X3326643Y-20991643D02*
X3340928Y-21005929D01*
X3326643Y-21020214D01*
X3312357Y-21005929D01*
X3326643Y-20991643D01*
X3326643Y-21020214D01*
X3526643Y-20720214D02*
X3555214Y-20720214D01*
X3583786Y-20734500D01*
X3598071Y-20748786D01*
X3612357Y-20777357D01*
X3626643Y-20834500D01*
X3626643Y-20905929D01*
X3612357Y-20963072D01*
X3598071Y-20991643D01*
X3583786Y-21005929D01*
X3555214Y-21020214D01*
X3526643Y-21020214D01*
X3498071Y-21005929D01*
X3483786Y-20991643D01*
X3469500Y-20963072D01*
X3455214Y-20905929D01*
X3455214Y-20834500D01*
X3469500Y-20777357D01*
X3483786Y-20748786D01*
X3498071Y-20734500D01*
X3526643Y-20720214D01*
X3812357Y-20720214D02*
X3840928Y-20720214D01*
X3869500Y-20734500D01*
X3883786Y-20748786D01*
X3898071Y-20777357D01*
X3912357Y-20834500D01*
X3912357Y-20905929D01*
X3898071Y-20963072D01*
X3883786Y-20991643D01*
X3869500Y-21005929D01*
X3840928Y-21020214D01*
X3812357Y-21020214D01*
X3783786Y-21005929D01*
X3769500Y-20991643D01*
X3755214Y-20963072D01*
X3740928Y-20905929D01*
X3740928Y-20834500D01*
X3755214Y-20777357D01*
X3769500Y-20748786D01*
X3783786Y-20734500D01*
X3812357Y-20720214D01*
X4040928Y-21020214D02*
X4040928Y-20820214D01*
X4040928Y-20848786D02*
X4055214Y-20834500D01*
X4083786Y-20820214D01*
X4126643Y-20820214D01*
X4155214Y-20834500D01*
X4169500Y-20863072D01*
X4169500Y-21020214D01*
X4169500Y-20863072D02*
X4183786Y-20834500D01*
X4212357Y-20820214D01*
X4255214Y-20820214D01*
X4283786Y-20834500D01*
X4298071Y-20863072D01*
X4298071Y-21020214D01*
X4440929Y-21020214D02*
X4440929Y-20820214D01*
X4440929Y-20848786D02*
X4455214Y-20834500D01*
X4483786Y-20820214D01*
X4526643Y-20820214D01*
X4555214Y-20834500D01*
X4569500Y-20863072D01*
X4569500Y-21020214D01*
X4569500Y-20863072D02*
X4583786Y-20834500D01*
X4612357Y-20820214D01*
X4655214Y-20820214D01*
X4683786Y-20834500D01*
X4698071Y-20863072D01*
X4698071Y-21020214D01*
X5283786Y-20705929D02*
X5026643Y-21091643D01*
X5669500Y-20720214D02*
X5698071Y-20720214D01*
X5726643Y-20734500D01*
X5740928Y-20748786D01*
X5755214Y-20777357D01*
X5769500Y-20834500D01*
X5769500Y-20905929D01*
X5755214Y-20963072D01*
X5740928Y-20991643D01*
X5726643Y-21005929D01*
X5698071Y-21020214D01*
X5669500Y-21020214D01*
X5640928Y-21005929D01*
X5626643Y-20991643D01*
X5612357Y-20963072D01*
X5598071Y-20905929D01*
X5598071Y-20834500D01*
X5612357Y-20777357D01*
X5626643Y-20748786D01*
X5640928Y-20734500D01*
X5669500Y-20720214D01*
X5898071Y-20991643D02*
X5912357Y-21005929D01*
X5898071Y-21020214D01*
X5883786Y-21005929D01*
X5898071Y-20991643D01*
X5898071Y-21020214D01*
X6098071Y-20720214D02*
X6126643Y-20720214D01*
X6155214Y-20734500D01*
X6169500Y-20748786D01*
X6183785Y-20777357D01*
X6198071Y-20834500D01*
X6198071Y-20905929D01*
X6183785Y-20963072D01*
X6169500Y-20991643D01*
X6155214Y-21005929D01*
X6126643Y-21020214D01*
X6098071Y-21020214D01*
X6069500Y-21005929D01*
X6055214Y-20991643D01*
X6040928Y-20963072D01*
X6026643Y-20905929D01*
X6026643Y-20834500D01*
X6040928Y-20777357D01*
X6055214Y-20748786D01*
X6069500Y-20734500D01*
X6098071Y-20720214D01*
X6298071Y-20720214D02*
X6483785Y-20720214D01*
X6383785Y-20834500D01*
X6426643Y-20834500D01*
X6455214Y-20848786D01*
X6469500Y-20863072D01*
X6483785Y-20891643D01*
X6483785Y-20963072D01*
X6469500Y-20991643D01*
X6455214Y-21005929D01*
X6426643Y-21020214D01*
X6340928Y-21020214D01*
X6312357Y-21005929D01*
X6298071Y-20991643D01*
X6626643Y-21020214D02*
X6683785Y-21020214D01*
X6712357Y-21005929D01*
X6726643Y-20991643D01*
X6755214Y-20948786D01*
X6769500Y-20891643D01*
X6769500Y-20777357D01*
X6755214Y-20748786D01*
X6740928Y-20734500D01*
X6712357Y-20720214D01*
X6655214Y-20720214D01*
X6626643Y-20734500D01*
X6612357Y-20748786D01*
X6598071Y-20777357D01*
X6598071Y-20848786D01*
X6612357Y-20877357D01*
X6626643Y-20891643D01*
X6655214Y-20905929D01*
X6712357Y-20905929D01*
X6740928Y-20891643D01*
X6755214Y-20877357D01*
X6769500Y-20848786D01*
X6883786Y-20720214D02*
X6883786Y-20777357D01*
X6998071Y-20720214D02*
X6998071Y-20777357D01*
X7440928Y-21134500D02*
X7426643Y-21120214D01*
X7398071Y-21077357D01*
X7383785Y-21048786D01*
X7369500Y-21005929D01*
X7355214Y-20934500D01*
X7355214Y-20877357D01*
X7369500Y-20805929D01*
X7383785Y-20763072D01*
X7398071Y-20734500D01*
X7426643Y-20691643D01*
X7440928Y-20677357D01*
X7683785Y-20820214D02*
X7683785Y-21020214D01*
X7612357Y-20705929D02*
X7540928Y-20920214D01*
X7726643Y-20920214D01*
X8069500Y-21020214D02*
X8069500Y-20720214D01*
X8198071Y-21020214D02*
X8198071Y-20863072D01*
X8183785Y-20834500D01*
X8155214Y-20820214D01*
X8112357Y-20820214D01*
X8083785Y-20834500D01*
X8069500Y-20848786D01*
X8383785Y-21020214D02*
X8355214Y-21005929D01*
X8340928Y-20991643D01*
X8326643Y-20963072D01*
X8326643Y-20877357D01*
X8340928Y-20848786D01*
X8355214Y-20834500D01*
X8383785Y-20820214D01*
X8426643Y-20820214D01*
X8455214Y-20834500D01*
X8469500Y-20848786D01*
X8483786Y-20877357D01*
X8483786Y-20963072D01*
X8469500Y-20991643D01*
X8455214Y-21005929D01*
X8426643Y-21020214D01*
X8383785Y-21020214D01*
X8655214Y-21020214D02*
X8626643Y-21005929D01*
X8612357Y-20977357D01*
X8612357Y-20720214D01*
X8883786Y-21005929D02*
X8855214Y-21020214D01*
X8798071Y-21020214D01*
X8769500Y-21005929D01*
X8755214Y-20977357D01*
X8755214Y-20863072D01*
X8769500Y-20834500D01*
X8798071Y-20820214D01*
X8855214Y-20820214D01*
X8883786Y-20834500D01*
X8898071Y-20863072D01*
X8898071Y-20891643D01*
X8755214Y-20920214D01*
X9012357Y-21005929D02*
X9040929Y-21020214D01*
X9098071Y-21020214D01*
X9126643Y-21005929D01*
X9140929Y-20977357D01*
X9140929Y-20963072D01*
X9126643Y-20934500D01*
X9098071Y-20920214D01*
X9055214Y-20920214D01*
X9026643Y-20905929D01*
X9012357Y-20877357D01*
X9012357Y-20863072D01*
X9026643Y-20834500D01*
X9055214Y-20820214D01*
X9098071Y-20820214D01*
X9126643Y-20834500D01*
X9240928Y-21134500D02*
X9255214Y-21120214D01*
X9283786Y-21077357D01*
X9298071Y-21048786D01*
X9312357Y-21005929D01*
X9326643Y-20934500D01*
X9326643Y-20877357D01*
X9312357Y-20805929D01*
X9298071Y-20763072D01*
X9283786Y-20734500D01*
X9255214Y-20691643D01*
X9240928Y-20677357D01*
M02*
