G04 #@! TF.FileFunction,Soldermask,Top*
%FSLAX46Y46*%
G04 Gerber Fmt 4.6, Leading zero omitted, Abs format (unit mm)*
G04 Created by KiCad (PCBNEW 4.0.7-e2-6376~58~ubuntu16.04.1) date Tue Nov 14 14:50:52 2017*
%MOMM*%
%LPD*%
G01*
G04 APERTURE LIST*
%ADD10C,0.100000*%
%ADD11R,1.650000X1.400000*%
%ADD12R,1.400000X1.650000*%
%ADD13R,1.300000X1.200000*%
%ADD14R,1.200000X1.300000*%
%ADD15C,2.100000*%
%ADD16R,1.100000X1.700000*%
%ADD17R,1.700000X1.100000*%
%ADD18R,3.150000X1.400000*%
%ADD19R,2.100000X2.100000*%
%ADD20O,2.100000X2.100000*%
%ADD21R,1.250000X1.250000*%
%ADD22R,1.900000X0.700000*%
%ADD23R,0.700000X1.900000*%
%ADD24O,1.200000X1.800000*%
%ADD25R,0.700000X1.100000*%
%ADD26O,1.350000X1.050000*%
%ADD27C,1.050000*%
%ADD28C,1.900000*%
G04 APERTURE END LIST*
D10*
D11*
X226060000Y-93488000D03*
X226060000Y-95488000D03*
X226047300Y-89988900D03*
X226047300Y-87988900D03*
D12*
X221885000Y-97409000D03*
X223885000Y-97409000D03*
D11*
X219583000Y-99679000D03*
X219583000Y-97679000D03*
X217551000Y-83423000D03*
X217551000Y-81423000D03*
D12*
X210550000Y-83185000D03*
X208550000Y-83185000D03*
X204422500Y-84645500D03*
X206422500Y-84645500D03*
D11*
X205105000Y-95901000D03*
X205105000Y-97901000D03*
D12*
X205597000Y-93599000D03*
X203597000Y-93599000D03*
D11*
X208280000Y-107331000D03*
X208280000Y-109331000D03*
D12*
X212582000Y-105283000D03*
X210582000Y-105283000D03*
D13*
X206121000Y-107281000D03*
X206121000Y-109381000D03*
D14*
X206087000Y-105283000D03*
X208187000Y-105283000D03*
D10*
G36*
X222210924Y-108458000D02*
X220726000Y-109942924D01*
X219241076Y-108458000D01*
X220726000Y-106973076D01*
X222210924Y-108458000D01*
X222210924Y-108458000D01*
G37*
D15*
X222522051Y-106661949D02*
X222522051Y-106661949D01*
X224318102Y-104865898D02*
X224318102Y-104865898D01*
X226114154Y-103069846D02*
X226114154Y-103069846D01*
X227910205Y-101273795D02*
X227910205Y-101273795D01*
X229706256Y-99477744D02*
X229706256Y-99477744D01*
D16*
X205039000Y-88519000D03*
X203139000Y-88519000D03*
D17*
X202311000Y-86675000D03*
X202311000Y-84775000D03*
D16*
X209616000Y-99695000D03*
X211516000Y-99695000D03*
D17*
X214426800Y-102067400D03*
X214426800Y-100167400D03*
X216255600Y-100167400D03*
X216255600Y-102067400D03*
D18*
X207858000Y-112046000D03*
X202098000Y-112046000D03*
X202098000Y-116046000D03*
X207858000Y-116046000D03*
X229702000Y-112046000D03*
X223942000Y-112046000D03*
X223942000Y-116046000D03*
X229702000Y-116046000D03*
D13*
X212455000Y-109281000D03*
X212455000Y-107381000D03*
X210455000Y-108331000D03*
D19*
X223520000Y-76200000D03*
D20*
X220980000Y-76200000D03*
X218440000Y-76200000D03*
X215900000Y-76200000D03*
X213360000Y-76200000D03*
X210820000Y-76200000D03*
X208280000Y-76200000D03*
D21*
X203835000Y-107315000D03*
X212242400Y-101854000D03*
X218389200Y-101854000D03*
X201676000Y-109474000D03*
X230124000Y-109474000D03*
X214376000Y-107569000D03*
D22*
X219377500Y-94872500D03*
X219377500Y-94372500D03*
X219377500Y-93872500D03*
X219377500Y-93372500D03*
X219377500Y-92872500D03*
X219377500Y-92372500D03*
X219377500Y-91872500D03*
X219377500Y-91372500D03*
X219377500Y-90872500D03*
X219377500Y-90372500D03*
X219377500Y-89872500D03*
X219377500Y-89372500D03*
X219377500Y-88872500D03*
X219377500Y-88372500D03*
X219377500Y-87872500D03*
X219377500Y-87372500D03*
D23*
X217427500Y-85422500D03*
X216927500Y-85422500D03*
X216427500Y-85422500D03*
X215927500Y-85422500D03*
X215427500Y-85422500D03*
X214927500Y-85422500D03*
X214427500Y-85422500D03*
X213927500Y-85422500D03*
X213427500Y-85422500D03*
X212927500Y-85422500D03*
X212427500Y-85422500D03*
X211927500Y-85422500D03*
X211427500Y-85422500D03*
X210927500Y-85422500D03*
X210427500Y-85422500D03*
X209927500Y-85422500D03*
D22*
X207977500Y-87372500D03*
X207977500Y-87872500D03*
X207977500Y-88372500D03*
X207977500Y-88872500D03*
X207977500Y-89372500D03*
X207977500Y-89872500D03*
X207977500Y-90372500D03*
X207977500Y-90872500D03*
X207977500Y-91372500D03*
X207977500Y-91872500D03*
X207977500Y-92372500D03*
X207977500Y-92872500D03*
X207977500Y-93372500D03*
X207977500Y-93872500D03*
X207977500Y-94372500D03*
X207977500Y-94872500D03*
D23*
X209927500Y-96822500D03*
X210427500Y-96822500D03*
X210927500Y-96822500D03*
X211427500Y-96822500D03*
X211927500Y-96822500D03*
X212427500Y-96822500D03*
X212927500Y-96822500D03*
X213427500Y-96822500D03*
X213927500Y-96822500D03*
X214427500Y-96822500D03*
X214927500Y-96822500D03*
X215427500Y-96822500D03*
X215927500Y-96822500D03*
X216427500Y-96822500D03*
X216927500Y-96822500D03*
X217427500Y-96822500D03*
D16*
X207076000Y-102108000D03*
X208976000Y-102108000D03*
X205933000Y-100076000D03*
X207833000Y-100076000D03*
D24*
X211770000Y-113730000D03*
D25*
X213150000Y-111820000D03*
X213650000Y-111820000D03*
X214150000Y-111820000D03*
X214650000Y-111820000D03*
X215150000Y-111820000D03*
X215650000Y-111820000D03*
X216150000Y-111820000D03*
X218650000Y-111820000D03*
X217650000Y-111820000D03*
X217150000Y-111820000D03*
X216650000Y-111820000D03*
X218150000Y-111820000D03*
D24*
X220030000Y-113730000D03*
X220390000Y-119680000D03*
X211410000Y-119680000D03*
D26*
X219500000Y-112480000D03*
D27*
X212300000Y-112480000D03*
X218700000Y-113130000D03*
X217100000Y-113130000D03*
X216300000Y-113130000D03*
X215500000Y-113130000D03*
X214700000Y-113130000D03*
X213100000Y-113130000D03*
X218300000Y-113830000D03*
X217500000Y-113830000D03*
X216700000Y-113830000D03*
X215100000Y-113830000D03*
X214300000Y-113830000D03*
X213500000Y-113830000D03*
D28*
X223012000Y-93599000D03*
X223012000Y-89799000D03*
M02*
