G04 ===== Begin FILE IDENTIFICATION =====*
G04 File Format:  Gerber RS274X*
G04 ===== End FILE IDENTIFICATION =====*
%FSLAX24Y24*%
%MOMM*%
%SFA1.0000B1.0000*%
%OFA0.0B0.0*%
%ADD14R,2.601000X0.599400*%
%ADD15R,2.601000X0.599500*%
%ADD16R,0.800100X0.350500*%
%ADD17R,0.800100X0.350600*%
%LNcond*%
%IPPOS*%
%LPD*%
G75*
G36*
G01X0Y47395D02*
G01X31090D01*
G01X32004Y49046D01*
G01Y72668D01*
G01X31090Y74319D01*
G01X0D01*
G01Y47395D01*
G37*
D14*
X15545Y41858D03*
D15*
Y79857D03*
D16*
X38558Y50876D03*
G36*
G01X34557Y54126D02*
G01X67558D01*
G01X92558Y40539D01*
G01X168358D01*
G01Y71219D01*
G01X92558D01*
G01X67558Y57632D01*
G01X34557D01*
G01Y54126D01*
G37*
D16*
X38558Y60858D03*
G36*
G01X34557Y64109D02*
G01X42558D01*
G01Y64108D01*
G01X47558D01*
G01X57558Y63361D01*
G01X60058D01*
G01Y68361D01*
G01X57558D01*
G01X47558Y67614D01*
G01X34557D01*
G01Y64109D01*
G37*
D17*
X38558Y70865D03*
G36*
G01X103842Y99695D02*
G03X112918Y97409I4826J0D01*
G01X117558D01*
G01Y87630D01*
G01X168358D01*
G01Y111760D01*
G01X117558D01*
G01Y101981D01*
G01X112918D01*
G03X103842Y99695I-4250J-2286D01*
G01X103842Y99695D01*
G37*
G36*
G01X103849Y12065D02*
G03X112925Y9779I4826J0D01*
G01X117558D01*
G01Y0D01*
G01X168358D01*
G01Y24130D01*
G01X117558D01*
G01Y14351D01*
G01X112925D01*
G03X103849Y12065I-4250J-2286D01*
G01X103849Y12065D01*
G37*
M02*

