G04 ===== Begin FILE IDENTIFICATION =====*
G04 File Format:  Gerber RS274X*
G04 ===== End FILE IDENTIFICATION =====*
%FSLAX24Y24*%
%MOMM*%
%SFA1.0000B1.0000*%
%OFA0.0B0.0*%
%ADD10C,0.025000*%
%LNsilk_screen*%
%IPPOS*%
%LPD*%
G75*
G36*
G01X32547Y18083D02*
G01Y19387D01*
G01X36307Y24030D01*
G01X32972D01*
G01Y25241D01*
G01X38211D01*
G01Y24118D01*
G01X34291Y19289D01*
G01X38363D01*
G01Y18083D01*
G01X32547D01*
G37*
G36*
G01X38724Y18083D02*
G01Y25241D01*
G01X40169D01*
G01Y18083D01*
G01X38724D01*
G37*
G36*
G01X41577Y18083D02*
G01Y25241D01*
G01X46485D01*
G01Y24030D01*
G01X43023D01*
G01Y22336D01*
G01X46011D01*
G01Y21125D01*
G01X43023D01*
G01Y18083D01*
G01X41577D01*
G37*
G36*
G01X51899Y19357D02*
G01Y18083D01*
G01X47089D01*
G01X47558Y19453D01*
G01X49101Y21169D01*
G01X50238Y22341D01*
G01X50522Y23181D01*
G01X50275Y23886D01*
G01X49594Y24133D01*
G01X48910Y23874D01*
G01X48617Y23015D01*
G01X47250Y23151D01*
G01X48017Y24777D01*
G01X49628Y25271D01*
G01X51293Y24699D01*
G01X51899Y23278D01*
G01X51725Y22358D01*
G01X51176Y21442D01*
G01X50278Y20529D01*
G01X49455Y19738D01*
G01X49174Y19357D01*
G01X51899D01*
G37*
G36*
G01X52801Y20412D02*
G01X54208Y20549D01*
G01X54723Y19509D01*
G01X55770Y19177D01*
G01X56822Y19472D01*
G01X57176Y20163D01*
G01X57027Y20595D01*
G01X56507Y20905D01*
G01X55350Y21218D01*
G01X53719Y21926D01*
G01X53060Y23366D01*
G01X53370Y24389D01*
G01X54264Y25114D01*
G01X55672Y25363D01*
G01X57701Y24772D01*
G01X58417Y23195D01*
G01X56971Y23132D01*
G01X56573Y23925D01*
G01X55658Y24167D01*
G01X54671Y23908D01*
G01X54442Y23464D01*
G01X54657Y23029D01*
G01X55985Y22551D01*
G01X57545Y22036D01*
G01X58336Y21308D01*
G01X58622Y20168D01*
G01X58280Y19016D01*
G01X57313Y18217D01*
G01X55755Y17956D01*
G01X53670Y18583D01*
G01X52801Y20412D01*
G37*
G36*
G01X59948Y18083D02*
G01Y25241D01*
G01X62111D01*
G01X63410Y20358D01*
G01X64694Y25241D01*
G01X66862D01*
G01Y18083D01*
G01X65519D01*
G01Y23718D01*
G01X64098Y18083D01*
G01X62707D01*
G01X61291Y23718D01*
G01Y18083D01*
G01X59948D01*
G37*
G36*
G01X67640Y18083D02*
G01X69173D01*
G01X69764Y19709D01*
G01X72625D01*
G01X73250Y18083D01*
G01X74823D01*
G01X71956Y25241D01*
G01X71175D01*
G01Y23571D01*
G01X72161Y20915D01*
G01X70208D01*
G01X71175Y23571D01*
G01Y25241D01*
G01X70428D01*
G01X67640Y18083D01*
G37*
G36*
G01X77594Y18083D02*
G01X80314D01*
G01X81593Y18234D01*
G01X82609Y18806D01*
G01X83375Y20070D01*
G01X83595Y21594D01*
G01X83361Y23286D01*
G01X82677Y24445D01*
G01X81598Y25104D01*
G01X80236Y25241D01*
G01X79039D01*
G01Y24030D01*
G01X79689D01*
G01X80875Y23962D01*
G01X81544Y23625D01*
G01X81954Y22932D01*
G01X82101Y21657D01*
G01X81954Y20346D01*
G01X81576Y19655D01*
G01X80992Y19357D01*
G01X80118Y19289D01*
G01X79039D01*
G01Y24030D01*
G01Y25241D01*
G01X77594D01*
G01Y18083D01*
G37*
G36*
G01X89130Y19357D02*
G01Y18083D01*
G01X84320D01*
G01X84789Y19453D01*
G01X86332Y21169D01*
G01X87470Y22341D01*
G01X87753Y23181D01*
G01X87506Y23886D01*
G01X86825Y24133D01*
G01X86142Y23874D01*
G01X85849Y23015D01*
G01X84481Y23151D01*
G01X85248Y24777D01*
G01X86859Y25271D01*
G01X88524Y24699D01*
G01X89130Y23278D01*
G01X88957Y22358D01*
G01X88407Y21442D01*
G01X87509Y20529D01*
G01X86686Y19738D01*
G01X86405Y19357D01*
G01X89130D01*
G37*
M02*

