<?xml version="1.0" encoding="UTF-8" standalone="no"?>
<svg
   xmlns:dc="http://purl.org/dc/elements/1.1/"
   xmlns:cc="http://creativecommons.org/ns#"
   xmlns:rdf="http://www.w3.org/1999/02/22-rdf-syntax-ns#"
   xmlns:svg="http://www.w3.org/2000/svg"
   xmlns="http://www.w3.org/2000/svg"
   viewBox="0 0 1726.2992 861.7323"
   id="svg46"
   height="861.7323"
   width="1726.2992"
   version="1.1">
  <metadata
     id="metadata52">
    <rdf:RDF>
      <cc:Work
         rdf:about="">
        <dc:format>image/svg+xml</dc:format>
        <dc:type
           rdf:resource="http://purl.org/dc/dcmitype/StillImage" />
        <dc:title></dc:title>
      </cc:Work>
    </rdf:RDF>
  </metadata>
  <defs
     id="defs50" />
  <path
     id="path2"
     style="fill:none;stroke:#ff0000;stroke-width:0.21600001;stroke-linecap:butt;stroke-linejoin:miter;stroke-dasharray:none"
     d="m 28.3422,36.8466 v 173.023 q 0,8.5051 8.5052,8.5051 h 142.7163 q 8.5051,0 8.5051,-8.5051 V 36.8466 q 0,-8.5051 -8.5051,-8.5051 H 36.8474 q -8.5052,0 -8.5052,8.5051 z" />
  <g
     id="Layer1000">
    <path
       id="path4"
       style="fill:#0000ff;fill-rule:evenodd"
       d="m 43.0085,177.7975 v 25.1294 h 4.8299 v -11.165 l 7.7697,11.165 h 5.6697 l -9.6247,-13.9296 8.7847,-11.1998 H 54.663 l -6.8246,8.645 v -8.645 z m 37.4188,25.1294 h 4.9699 l -9.6946,-25.1294 h -4.8299 l -9.6947,25.1294 h 4.97 l 7.1746,-18.4794 z m 23.8043,-7.175 v -0.07 c -0.0233,-2.0999 -0.63,-3.6983 -1.8198,-4.7948 -1.1901,-1.0966 -3.0567,-2.0066 -5.5998,-2.7298 -2.0766,-0.5834 -3.4357,-1.0733 -4.0773,-1.4699 -0.6418,-0.3969 -0.9625,-1.0033 -0.9625,-1.82 v -0.07 c 0,-0.6532 0.2566,-1.1783 0.77,-1.5749 0.5367,-0.4201 1.2831,-0.6302 2.2399,-0.6302 1.8201,0 3.8379,0.8284 6.0546,2.4851 l 2.6949,-4.1648 c -2.4732,-2.1234 -5.3662,-3.1851 -8.6795,-3.1851 -2.4267,0 -4.3981,0.6883 -5.9148,2.065 -1.5167,1.3999 -2.2751,3.2316 -2.2751,5.4947 v 0.0701 c 0,1.1901 0.1752,2.2282 0.5251,3.115 0.3266,0.84 0.8632,1.5399 1.6099,2.0998 0.77,0.5834 1.5632,1.05 2.38,1.3999 0.8167,0.3501 1.89,0.7 3.2199,1.0501 1.8898,0.5134 3.15,0.9916 3.7799,1.435 0.6299,0.4431 0.9448,1.0266 0.9448,1.7498 v 0.07 c 0,0.7467 -0.3033,1.3301 -0.91,1.75 -0.6064,0.4199 -1.4347,0.63 -2.4848,0.63 -2.3567,0 -4.6782,-1.015 -6.9647,-3.0451 l -3.045,3.8851 c 2.7998,2.6832 6.1131,4.0247 9.9397,4.0247 2.5668,0 4.6314,-0.6884 6.1949,-2.065 1.5864,-1.3766 2.3797,-3.278 2.3797,-5.7047 z m -0.1696,-17.9544 v 4.7251 h 4.4798 v 20.4043 h 4.83 v -20.4043 h 4.5846 v -4.7251 z m 14.4246,0 0.0352,25.1294 h 15.4342 v -4.6899 h -10.6747 v -5.81 h 10.6747 v -4.8647 h -10.6747 v -5.0749 h 10.6747 v -4.6899 z m 17.9945,0 v 25.1294 h 11.7597 v -4.5501 h -6.9646 v -20.5793 z" />
    <path
       id="path6"
       style="fill:#0000ff;fill-rule:evenodd"
       d="m 160.3827,177.1676 c -2.3566,0 -4.5498,0.5892 -6.5798,1.7675 -2.0298,1.1782 -3.6223,2.7765 -4.7773,4.7948 -1.1549,2.0183 -1.7324,4.229 -1.7324,6.6323 0,3.5698 1.2425,6.6614 3.7274,9.2746 2.4849,2.6133 5.6172,3.9199 9.3971,3.9199 3.6166,0 6.6848,-1.2717 9.2047,-3.8149 2.5199,-2.5432 3.7798,-5.6465 3.7798,-9.3097 0,-3.7098 -1.2833,-6.848 -3.8498,-9.4146 -2.5666,-2.5666 -5.6231,-3.8499 -9.1697,-3.8499 z m -0.035,4.6549 c 2.31,0 4.2641,0.8283 5.8623,2.4849 1.5983,1.6565 2.3974,3.6865 2.3974,6.0898 0,2.4032 -0.7991,4.4273 -2.3974,6.0723 -1.5982,1.6448 -3.5291,2.4673 -5.7923,2.4673 -2.0066,0 -3.7799,-0.63 -5.3198,-1.8899 -1.9833,-1.6333 -2.9749,-3.8382 -2.9749,-6.6148 0,-2.4965 0.7875,-4.5556 2.3625,-6.1772 1.5749,-1.6217 3.529,-2.4324 5.8622,-2.4324 z" />
  </g>
  <g
     id="Layer1001">
    <path
       id="path9"
       style="fill:#0000ff;fill-rule:evenodd"
       d="m 42.516,138.7202 v 20.4094 q 0,6.8032 6.8031,6.8032 h 20.4095 q 6.8031,0 6.8031,-6.8032 v -20.4094 q 0,-6.8032 -6.8031,-6.8032 H 49.3191 q -6.8031,0 -6.8031,6.8032 z" />
    <path
       id="path11"
       style="fill:none;stroke:#ff0000;stroke-width:0.21600001;stroke-linecap:butt;stroke-linejoin:miter;stroke-dasharray:none"
       d="m 48.1852,140.421 v 17.0078 q 0,2.8347 2.8346,2.8347 h 17.0079 q 2.8346,0 2.8346,-2.8347 V 140.421 q 0,-2.8347 -2.8346,-2.8347 H 51.0198 q -2.8346,0 -2.8346,2.8347 z" />
  </g>
  <g
     id="Layer1002">
    <path
       id="path14"
       style="fill:#0000ff;fill-rule:evenodd"
       d="m 139.879,138.7202 v 20.4094 q 0,6.8032 6.8031,6.8032 h 20.4095 q 6.8031,0 6.8031,-6.8032 v -20.4094 q 0,-6.8032 -6.8031,-6.8032 h -20.4095 q -6.8031,0 -6.8031,6.8032 z" />
    <path
       id="path16"
       style="fill:none;stroke:#ff0000;stroke-width:0.21600001;stroke-linecap:butt;stroke-linejoin:miter;stroke-dasharray:none"
       d="m 145.5482,140.421 v 17.0078 q 0,2.8347 2.8346,2.8347 h 17.0079 q 2.8346,0 2.8346,-2.8347 V 140.421 q 0,-2.8347 -2.8346,-2.8347 h -17.0079 q -2.8346,0 -2.8346,2.8347 z" />
  </g>
  <path
     id="path19"
     style="fill:none;stroke:#ff0000;stroke-width:0.21600001;stroke-linecap:butt;stroke-linejoin:miter;stroke-dasharray:none"
     d="m 179.5648,63.7795 v 9.9212 h 8.504 v -9.9212 z" />
  <path
     id="path21"
     style="fill:none;stroke:#ff0000;stroke-width:0.21600001;stroke-linecap:butt;stroke-linejoin:miter;stroke-dasharray:none"
     d="m 198.421,36.8466 v 173.023 q 0,8.5051 8.5051,8.5051 h 142.7163 q 8.5051,0 8.5051,-8.5051 V 36.8466 q 0,-8.5051 -8.5051,-8.5051 H 206.9261 q -8.5051,0 -8.5051,8.5051 z" />
  <g
     id="Layer1003">
    <g
       id="Layer1004">
      <path
         id="path23"
         style="fill:#0000ff;fill-rule:evenodd"
         d="m 210.7606,168.5368 6.3673,28.0474 h 5.0782 l 5.0782,-18.1253 5.1564,18.1253 h 5.1173 l 6.3283,-28.0474 h -5.2736 l -3.9844,17.891 -5.0783,-17.891 h -4.4532 l -5.0001,17.891 -4.0626,-17.891 z" />
      <path
         id="path25"
         style="fill:#0000ff;fill-rule:evenodd"
         d="m 264.5732,196.5842 h 5.547 l -10.8206,-28.0474 h -5.3907 l -10.8205,28.0474 h 5.547 l 8.0079,-20.6254 z" />
      <path
         id="path27"
         style="fill:#0000ff;fill-rule:evenodd"
         d="m 274.5388,168.5368 v 28.0474 h 13.1253 v -5.0782 h -7.7736 v -22.9692 z m 18.4567,0 v 28.0474 h 13.1252 v -5.0782 h -7.7736 v -22.9692 z m 17.0504,0 0.039,28.0474 h 17.227 v -5.2344 h -11.9144 v -6.4846 h 11.9144 v -5.4298 h -11.9144 v -5.6642 h 11.9144 v -5.2344 z m 20.2535,0 v 5.2735 h 5.0002 v 22.7739 h 5.3907 v -22.7739 h 5.1173 v -5.2735 z" />
    </g>
    <g
       id="Layer1005">
      <path
         id="path30"
         style="fill:#0000ff;fill-rule:evenodd"
         d="m 209.9259,135.8319 v 26.3478 h 5.0641 v -11.7063 l 8.1465,11.7063 h 5.9445 l -10.0913,-14.605 9.2106,-11.7428 h -6.0548 l -7.1555,9.0642 v -9.0642 z m 39.2333,26.3478 h 5.2108 l -10.1647,-26.3478 h -5.0641 l -10.1648,26.3478 h 5.211 l 7.5225,-19.3754 z m 24.9584,-7.5228 v -0.0734 c -0.0244,-2.2017 -0.6605,-3.8776 -1.908,-5.0273 -1.2478,-1.1497 -3.2049,-2.1039 -5.8714,-2.8622 -2.1773,-0.6117 -3.6022,-1.1253 -4.2749,-1.5412 -0.673,-0.416 -1.0092,-1.0519 -1.0092,-1.9082 v -0.0734 c 0,-0.6849 0.269,-1.2354 0.8073,-1.6512 0.5628,-0.4405 1.3453,-0.6608 2.3485,-0.6608 1.9084,0 4.0241,0.8685 6.3482,2.6056 l 2.8256,-4.3667 c -2.5931,-2.2264 -5.6264,-3.3396 -9.1004,-3.3396 -2.5443,0 -4.6113,0.7217 -6.2015,2.1652 -1.5903,1.4677 -2.3854,3.3882 -2.3854,5.7611 v 0.0734 c 0,1.2478 0.1837,2.3364 0.5505,3.2661 0.3424,0.8807 0.9051,1.6146 1.688,2.2017 0.8073,0.6117 1.639,1.1009 2.4954,1.4677 0.8563,0.3671 1.9816,0.7339 3.376,1.101 1.9814,0.5383 3.3027,1.0397 3.9631,1.5046 0.6605,0.4646 0.9907,1.0764 0.9907,1.8346 v 0.0734 c 0,0.7829 -0.318,1.3946 -0.9541,1.8349 -0.6359,0.4402 -1.5043,0.6605 -2.6054,0.6605 -2.4709,0 -4.905,-1.0642 -7.3023,-3.1927 l -3.1926,4.0734 c 2.9355,2.8133 6.4094,4.22 10.4215,4.22 2.6913,0 4.8561,-0.7218 6.4954,-2.1652 1.6633,-1.4434 2.495,-3.437 2.495,-5.9813 z m -0.1777,-18.825 v 4.9542 h 4.697 v 21.3936 h 5.0641 v -21.3936 h 4.807 v -4.9542 z m 15.1239,0 0.0369,26.3478 h 16.1827 v -4.9172 h -11.1923 v -6.0917 h 11.1923 v -5.1007 h -11.1923 v -5.3209 h 11.1923 v -4.9173 z m 18.8671,0 v 26.3478 h 12.33 v -4.7707 h -7.3024 v -21.5771 z" />
      <path
         id="path32"
         style="fill:#0000ff;fill-rule:evenodd"
         d="m 332.9915,135.1715 c -2.4709,0 -4.7705,0.6177 -6.8988,1.8531 -2.1283,1.2354 -3.798,2.9112 -5.009,5.0274 -1.2109,2.1161 -1.8164,4.4341 -1.8164,6.9538 0,3.743 1.3027,6.9844 3.9081,9.7244 2.6054,2.7399 5.8896,4.1099 9.8528,4.1099 3.7919,0 7.0089,-1.3333 9.651,-3.9998 2.6421,-2.6666 3.9631,-5.9203 3.9631,-9.7611 0,-3.8898 -1.3455,-7.1802 -4.0365,-9.8712 -2.691,-2.691 -5.8958,-4.0365 -9.6143,-4.0365 z m -0.0367,4.8805 c 2.4219,0 4.4708,0.8685 6.1465,2.6055 1.6758,1.7368 2.5137,3.8652 2.5137,6.385 0,2.5198 -0.8379,4.642 -2.5137,6.3667 -1.6757,1.7247 -3.7001,2.587 -6.0731,2.587 -2.1039,0 -3.9632,-0.6605 -5.5777,-1.9815 -2.0795,-1.7125 -3.1192,-4.0243 -3.1192,-6.9355 0,-2.6176 0.8257,-4.7766 2.477,-6.4768 1.6513,-1.7003 3.7002,-2.5504 6.1465,-2.5504 z" />
    </g>
  </g>
  <path
     id="path36"
     style="fill:#0000ff;fill-rule:evenodd"
     d="m 225.3614,96.188 v 20.4095 q 0,6.8031 6.8032,6.8031 h 20.4094 q 6.8032,0 6.8032,-6.8031 V 96.188 q 0,-6.8031 -6.8032,-6.8031 h -20.4094 q -6.8032,0 -6.8032,6.8031 z" />
  <path
     id="path38"
     style="fill:none;stroke:#ff0000;stroke-width:0.21600001;stroke-linecap:butt;stroke-linejoin:miter;stroke-dasharray:none"
     d="m 231.0306,97.8888 v 17.0079 q 0,2.8346 2.8346,2.8346 h 17.0079 q 2.8347,0 2.8347,-2.8346 V 97.8888 q 0,-2.8346 -2.8347,-2.8346 h -17.0079 q -2.8346,0 -2.8346,2.8346 z" />
  <path
     id="path40"
     style="fill:#0000ff;fill-rule:evenodd"
     d="m 297.1913,96.188 v 20.4095 q 0,6.8031 6.8032,6.8031 h 20.4094 q 6.8032,0 6.8032,-6.8031 V 96.188 q 0,-6.8031 -6.8032,-6.8031 h -20.4094 q -6.8032,0 -6.8032,6.8031 z" />
  <path
     id="path42"
     style="fill:none;stroke:#ff0000;stroke-width:0.21600001;stroke-linecap:butt;stroke-linejoin:miter;stroke-dasharray:none"
     d="m 302.8605,97.8888 v 17.0079 q 0,2.8346 2.8347,2.8346 h 17.0078 q 2.8347,0 2.8347,-2.8346 V 97.8888 q 0,-2.8346 -2.8347,-2.8346 h -17.0078 q -2.8347,0 -2.8347,2.8346 z" />
  <path
     id="path44"
     style="fill:none;stroke:#ff0000;stroke-width:0.21600001;stroke-linecap:butt;stroke-linejoin:miter;stroke-dasharray:none"
     d="m 349.6436,63.7795 v 9.9212 h 8.5039 v -9.9212 z" />
</svg>
