<svg id="Layer_1" data-name="Layer 1" xmlns="http://www.w3.org/2000/svg" viewBox="0 0 1084.87 1410.42"><defs><style>.cls-1{fill:#f26822;}</style></defs><title>hw_logo_thumb_orange</title><path class="cls-1" d="M1242.85,194.56H558c-110,0-200,90-200,200v684.87c0,103,78.94,188.49,179.32,198.93V1605h726.23V1278.36c100.38-10.43,179.32-95.91,179.32-198.93V394.56C1442.85,284.56,1352.85,194.56,1242.85,194.56ZM719.4,1524.21H635V1279.43H719.4v244.78Zm151.61,0H786.56V1279.43H871v244.78Zm151.61,0H938.17V1279.43h84.45v244.78Zm151.61,0h-84.45V1279.43h84.45v244.78Zm92.13-498.15h-123V727.27l-243.23,244-243.77-244v298.78h-121v-589L900.64,802.91l365.72-366.27v589.41Z" transform="translate(-357.98 -194.56)"/></svg>