<?xml version="1.0" encoding="UTF-8" standalone="no"?>
<!-- Created with Inkscape (http://www.inkscape.org/) -->

<svg
   xmlns:dc="http://purl.org/dc/elements/1.1/"
   xmlns:cc="http://creativecommons.org/ns#"
   xmlns:rdf="http://www.w3.org/1999/02/22-rdf-syntax-ns#"
   xmlns:svg="http://www.w3.org/2000/svg"
   xmlns="http://www.w3.org/2000/svg"
   xmlns:sodipodi="http://sodipodi.sourceforge.net/DTD/sodipodi-0.dtd"
   xmlns:inkscape="http://www.inkscape.org/namespaces/inkscape"
   version="1.1"
   id="svg2"
   xml:space="preserve"
   width="2993.4268"
   height="2000"
   viewBox="0 0 2993.4268 2000"
   sodipodi:docname="Kastelo Logos.svg"
   inkscape:version="0.92.2 5c3e80d, 2017-08-06"><metadata
     id="metadata8"><rdf:RDF><cc:Work
         rdf:about=""><dc:format>image/svg+xml</dc:format><dc:type
           rdf:resource="http://purl.org/dc/dcmitype/StillImage" /><dc:title></dc:title></cc:Work></rdf:RDF></metadata><defs
     id="defs6"><clipPath
       clipPathUnits="userSpaceOnUse"
       id="clipPath32"><path
         d="M 0,1500 H 2245.066 V 0 H 0 Z"
         id="path30"
         inkscape:connector-curvature="0" /></clipPath></defs><sodipodi:namedview
     pagecolor="#ffffff"
     bordercolor="#666666"
     borderopacity="1"
     objecttolerance="10"
     gridtolerance="10"
     guidetolerance="10"
     inkscape:pageopacity="0"
     inkscape:pageshadow="2"
     inkscape:window-width="1747"
     inkscape:window-height="1068"
     id="namedview4"
     showgrid="false"
     inkscape:zoom="0.10723496"
     inkscape:cx="1496.7134"
     inkscape:cy="1000"
     inkscape:window-x="0"
     inkscape:window-y="0"
     inkscape:window-maximized="0"
     inkscape:current-layer="g10" /><g
     id="g10"
     inkscape:groupmode="layer"
     inkscape:label="Kastelo Logo"
     transform="matrix(1.3333333,0,0,-1.3333333,0,2000)"><path
       inkscape:connector-curvature="0"
       id="path14"
       style="fill:#48505e;fill-opacity:1;fill-rule:nonzero;stroke:none"
       d="m 490.8906,976.3926 h -234.975 l 29.338,233.367 h 176.26 z" /><path
       d="M 432.016,888.262 H 314.791 V 964.7 h 117.225 z"
       style="fill:#48505e;fill-opacity:1;fill-rule:nonzero;stroke:none"
       id="path16"
       inkscape:connector-curvature="0" /><g
       id="g18"
       transform="translate(431.6777,1320.9829)"><path
         d="M 0,0 V -46.082 H -29.379 V 0 h -58.756 v -46.082 h -29.379 V 0 h -58.248 l 14.589,-99.29 H 44.475 L 59.213,0 Z"
         style="fill:#48505e;fill-opacity:1;fill-rule:nonzero;stroke:none"
         id="path20"
         inkscape:connector-curvature="0" /></g><path
       d="m 409.719,917.966 h -17.031 v 17.029 h 17.031 z"
       style="fill:#ffffff;fill-opacity:1;fill-rule:nonzero;stroke:none"
       id="path22"
       inkscape:connector-curvature="0" /><path
       d="m 354.119,917.966 h -17.03 v 17.029 h 17.03 z"
       style="fill:#ffffff;fill-opacity:1;fill-rule:nonzero;stroke:none"
       id="path24"
       inkscape:connector-curvature="0" /><g
       id="g34"
       transform="translate(399.1709,1107.4346)"><path
         d="m 0,0 c 0,14.231 -11.536,25.768 -25.768,25.768 -14.231,0 -25.767,-11.537 -25.767,-25.768 0,-0.499 0.017,-0.993 0.046,-1.485 h -0.046 v -53 H 0 v 53 H -0.046 C -0.018,-0.993 0,-0.499 0,0"
         style="fill:#ffffff;fill-opacity:1;fill-rule:nonzero;stroke:none"
         id="path36"
         inkscape:connector-curvature="0" /></g><path
       d="m 447.621,1159.067 h -36.314 v 17.029 h 36.314 z"
       style="fill:#687387;fill-opacity:1;fill-rule:nonzero;stroke:none"
       id="path38"
       inkscape:connector-curvature="0" /><path
       d="m 319.705,1010.055 h -36.314 v 17.03 h 36.314 z"
       style="fill:#687387;fill-opacity:1;fill-rule:nonzero;stroke:none"
       id="path40"
       inkscape:connector-curvature="0" /><g
       id="g42"
       transform="translate(676.0566,1090.3311)"><path
         d="m 0,0 -24.325,-29.494 v -56.557 h -52.3 v 200.685 h 52.3 V 25.542 l 71.761,89.092 h 58.075 L 37.4,33.144 109.16,-86.051 H 49.867 Z"
         style="fill:#181818;fill-opacity:1;fill-rule:nonzero;stroke:none"
         id="path44"
         inkscape:connector-curvature="0" /></g><g
       id="g46"
       transform="translate(930.459,1085.1621)"><path
         d="m 0,0 -14.595,48.043 -8.817,31.623 h -0.609 L -32.23,48.347 -47.434,0 Z m 10.947,-35.576 h -69.328 l -13.986,-45.306 h -52.604 l 70.543,200.685 H 8.211 L 78.45,-80.882 H 24.63 Z"
         style="fill:#181818;fill-opacity:1;fill-rule:nonzero;stroke:none"
         id="path48"
         inkscape:connector-curvature="0" /></g><g
       id="g50"
       transform="translate(1207.667,1171.8203)"><path
         d="m 0,0 -29.495,-34.055 c -13.379,20.069 -30.406,29.494 -55.947,29.494 -21.59,0 -32.84,-8.513 -32.84,-20.068 0,-10.338 9.426,-16.42 40.136,-21.892 55.037,-9.426 76.625,-27.061 76.625,-62.334 0,-39.225 -36.487,-61.725 -84.834,-61.725 -47.434,0 -72.369,12.162 -92.132,34.055 l 27.062,36.793 c 16.115,-23.111 35.576,-30.408 62.333,-30.408 22.501,0 33.447,6.994 33.447,18.548 0,9.122 -9.426,14.291 -39.223,20.069 -56.253,10.337 -77.842,27.974 -77.842,62.334 0,37.704 31.318,65.374 86.355,65.374 C -48.65,36.185 -23.109,25.846 0,0"
         style="fill:#181818;fill-opacity:1;fill-rule:nonzero;stroke:none"
         id="path52"
         inkscape:connector-curvature="0" /></g><g
       id="g54"
       transform="translate(1412.1719,1164.5234)"><path
         d="m 0,0 h -65.375 v -160.243 h -52.299 V 0 h -65.68 V 40.441 H 0 Z"
         style="fill:#181818;fill-opacity:1;fill-rule:nonzero;stroke:none"
         id="path56"
         inkscape:connector-curvature="0" /></g><g
       id="g58"
       transform="translate(1600.6865,1044.7217)"><path
         d="M 0,0 V -40.441 H -160.243 V 160.243 H -3.952 V 119.802 H -107.944 V 79.057 h 82.707 V 41.048 h -82.707 V 0 Z"
         style="fill:#181818;fill-opacity:1;fill-rule:nonzero;stroke:none"
         id="path60"
         inkscape:connector-curvature="0" /></g><g
       id="g62"
       transform="translate(1783.7119,1044.7217)"><path
         d="m 0,0 v -40.441 h -152.945 v 200.684 h 52.299 V 0 Z"
         style="fill:#181818;fill-opacity:1;fill-rule:nonzero;stroke:none"
         id="path64"
         inkscape:connector-curvature="0" /></g><g
       id="g66"
       transform="translate(1857.6992,1104.6211)"><path
         d="M 0,0 C 0,-41.048 15.811,-62.332 45.002,-62.332 73.888,-62.332 89.7,-41.048 89.7,0 89.7,41.05 73.888,62.335 45.002,62.335 15.811,62.335 0,41.05 0,0 m 143.216,0 c 0,-64.766 -37.096,-103.381 -98.214,-103.381 -61.117,0 -98.519,38.615 -98.519,103.381 0,64.768 37.402,103.384 98.519,103.384 61.118,0 98.214,-38.616 98.214,-103.384"
         style="fill:#181818;fill-opacity:1;fill-rule:nonzero;stroke:none"
         id="path68"
         inkscape:connector-curvature="0" /></g><g
       id="g70"
       transform="translate(676.0566,403.0264)"><path
         d="m 0,0 -24.325,-29.494 v -56.557 h -52.3 v 200.685 h 52.3 V 25.542 l 71.761,89.092 h 58.075 L 37.4,33.144 109.16,-86.051 H 49.867 Z"
         style="fill:#181818;fill-opacity:1;fill-rule:nonzero;stroke:none"
         id="path72"
         inkscape:connector-curvature="0" /></g><g
       id="g74"
       transform="translate(930.459,397.8574)"><path
         d="m 0,0 -14.595,48.043 -8.817,31.623 h -0.609 L -32.23,48.347 -47.434,0 Z m 10.947,-35.576 h -69.328 l -13.986,-45.306 h -52.604 l 70.543,200.685 H 8.211 L 78.45,-80.882 H 24.63 Z"
         style="fill:#181818;fill-opacity:1;fill-rule:nonzero;stroke:none"
         id="path76"
         inkscape:connector-curvature="0" /></g><g
       id="g78"
       transform="translate(1207.667,484.5156)"><path
         d="m 0,0 -29.495,-34.055 c -13.379,20.069 -30.406,29.494 -55.947,29.494 -21.59,0 -32.84,-8.513 -32.84,-20.068 0,-10.338 9.426,-16.42 40.136,-21.892 55.037,-9.426 76.625,-27.061 76.625,-62.334 0,-39.225 -36.487,-61.725 -84.834,-61.725 -47.434,0 -72.369,12.162 -92.132,34.055 l 27.062,36.793 c 16.115,-23.111 35.576,-30.408 62.333,-30.408 22.501,0 33.447,6.994 33.447,18.548 0,9.122 -9.426,14.291 -39.223,20.069 -56.253,10.337 -77.842,27.974 -77.842,62.334 0,37.704 31.318,65.375 86.355,65.375 C -48.65,36.186 -23.109,25.846 0,0"
         style="fill:#181818;fill-opacity:1;fill-rule:nonzero;stroke:none"
         id="path80"
         inkscape:connector-curvature="0" /></g><g
       id="g82"
       transform="translate(1412.1719,477.2187)"><path
         d="m 0,0 h -65.375 v -160.243 h -52.299 V 0 h -65.68 V 40.441 H 0 Z"
         style="fill:#181818;fill-opacity:1;fill-rule:nonzero;stroke:none"
         id="path84"
         inkscape:connector-curvature="0" /></g><g
       id="g86"
       transform="translate(1600.6865,357.417)"><path
         d="M 0,0 V -40.441 H -160.243 V 160.243 H -3.952 V 119.802 H -107.944 V 79.057 h 82.707 V 41.048 h -82.707 V 0 Z"
         style="fill:#181818;fill-opacity:1;fill-rule:nonzero;stroke:none"
         id="path88"
         inkscape:connector-curvature="0" /></g><g
       id="g90"
       transform="translate(1783.7119,357.417)"><path
         d="m 0,0 v -40.441 h -152.945 v 200.684 h 52.299 V 0 Z"
         style="fill:#181818;fill-opacity:1;fill-rule:nonzero;stroke:none"
         id="path92"
         inkscape:connector-curvature="0" /></g><g
       id="g94"
       transform="translate(1857.6992,417.3164)"><path
         d="M 0,0 C 0,-41.048 15.811,-62.332 45.002,-62.332 73.888,-62.332 89.7,-41.048 89.7,0 89.7,41.05 73.888,62.335 45.002,62.335 15.811,62.335 0,41.05 0,0 m 143.216,0 c 0,-64.766 -37.096,-103.381 -98.214,-103.381 -61.117,0 -98.519,38.615 -98.519,103.381 0,64.768 37.402,103.385 98.519,103.385 61.118,0 98.214,-38.617 98.214,-103.385"
         style="fill:#181818;fill-opacity:1;fill-rule:nonzero;stroke:none"
         id="path96"
         inkscape:connector-curvature="0" /></g><g
       id="g98"
       transform="translate(490.8896,289.0879)"><path
         d="m 0,0 h -234.974 l 29.337,233.367 h 176.261 z"
         style="fill:#687387;fill-opacity:1;fill-rule:nonzero;stroke:none"
         id="path100"
         inkscape:connector-curvature="0" /></g><path
       d="M 432.016,200.958 H 314.79 v 76.437 h 117.226 z"
       style="fill:#687387;fill-opacity:1;fill-rule:nonzero;stroke:none"
       id="path102"
       inkscape:connector-curvature="0" /><g
       id="g104"
       transform="translate(431.6768,633.6777)"><path
         d="M 0,0 V -46.08 H -29.378 V 0 h -58.757 v -46.08 h -29.378 V 0 h -58.248 l 14.589,-99.289 H 44.476 L 59.213,0 Z"
         style="fill:#687387;fill-opacity:1;fill-rule:nonzero;stroke:none"
         id="path106"
         inkscape:connector-curvature="0" /></g><path
       d="m 409.718,230.661 h -17.03 v 17.03 h 17.03 z"
       style="fill:#ffffff;fill-opacity:1;fill-rule:nonzero;stroke:none"
       id="path108"
       inkscape:connector-curvature="0" /><path
       d="m 354.118,230.661 h -17.029 v 17.03 h 17.029 z"
       style="fill:#ffffff;fill-opacity:1;fill-rule:nonzero;stroke:none"
       id="path110"
       inkscape:connector-curvature="0" /><g
       id="g112"
       transform="translate(415.5654,443.8193)"><path
         d="m 0,0 h -19.945 c -0.692,0 -1.338,0.141 -1.338,-0.548 v -19.943 c 0,-0.69 0.646,-1.057 1.338,-1.057 h 4.999 V -37.58 L -37.762,-59.95 V 6.338 h 8.976 0.018 c 0.697,0 1.254,0.884 1.254,1.572 0,0.251 -0.074,0.65 -0.201,0.847 l -13.522,33.479 c -0.191,0.47 -0.65,0.82 -1.156,0.82 -0.507,0 -0.965,-0.287 -1.154,-0.758 L -57.154,8.694 C -57.311,8.31 -57.266,7.55 -57.033,7.208 -56.802,6.864 -56.415,6.336 -56,6.336 h 8.098 v -89.983 l -21.548,22.446 v 23.179 c 3.804,1.885 6.085,5.743 6.085,10.047 0,6.189 -5.109,11.222 -11.295,11.222 -6.19,0 -11.194,-5.032 -11.194,-11.222 0,-4.304 2.461,-8.162 6.264,-10.047 v -25.244 c 0,-0.319 -0.037,-0.646 0.027,-0.984 0.028,-0.125 0.033,-0.244 0.072,-0.362 l 0.026,-0.141 c 0.038,-0.14 0.071,-0.279 0.127,-0.419 0.063,-0.145 0.131,-0.283 0.209,-0.421 l 0.07,-0.126 c 0.053,-0.107 0.106,-0.214 0.176,-0.314 0.188,-0.284 0.4,-0.54 0.622,-0.762 l 27.665,-27.664 c -3.404,-2.58 -5.465,-6.647 -5.465,-10.95 0,-7.578 6.164,-13.742 13.743,-13.742 7.576,0 13.523,6.164 13.523,13.742 0,5.725 -3.898,10.763 -8.968,12.805 v 18.55 l 31.089,30.874 c 0.227,0.227 0.551,0.486 0.737,0.768 0.072,0.099 0.179,0.206 0.235,0.313 l 0.095,0.128 c 0.078,0.14 0.169,0.282 0.226,0.423 0.057,0.136 0.104,0.276 0.144,0.416 l 0.043,0.14 c 0.04,0.12 0.171,0.238 0.198,0.375 0.062,0.325 0.187,0.653 0.187,0.971 v 18.098 h 4.807 c 0.689,0 1.53,0.367 1.53,1.057 V -0.548 C 1.529,0.141 0.689,0 0,0"
         style="fill:#becbd6;fill-opacity:1;fill-rule:nonzero;stroke:none"
         id="path114"
         inkscape:connector-curvature="0" /></g></g></svg>