<?xml version="1.0" encoding="UTF-8" standalone="no"?>
<!DOCTYPE svg PUBLIC "-//W3C//DTD SVG 1.1//EN" "http://www.w3.org/Graphics/SVG/1.1/DTD/svg11.dtd">
<!-- Generated by Microsoft Visio, SVG Export monero_hw_original.svg Page-1 -->
<svg xmlns="http://www.w3.org/2000/svg" xmlns:xlink="http://www.w3.org/1999/xlink" xmlns:ev="http://www.w3.org/2001/xml-events"
		xmlns:v="http://schemas.microsoft.com/visio/2003/SVGExtensions/" width="24.7877in" height="24.7777in"
		viewBox="0 0 1784.71 1783.99" xml:space="preserve" color-interpolation-filters="sRGB" class="st5">
	<v:documentProperties v:langID="1053" v:metric="true" v:viewMarkup="false">
		<v:userDefs>
			<v:ud v:nameU="msvNoAutoConnect" v:val="VT0(1):26"/>
		</v:userDefs>
	</v:documentProperties>

	<style type="text/css">
	<![CDATA[
		.st1 {fill:#ffede1;stroke:#ff6c0b;stroke-linecap:round;stroke-linejoin:round;stroke-width:25}
		.st2 {fill:#ffffff;stroke:#ff6c0b;stroke-linecap:round;stroke-linejoin:round;stroke-width:20}
		.st3 {fill:#fe6500;stroke:none;stroke-linecap:butt;stroke-width:0.548387}
		.st4 {fill:#4c4c4c;stroke:none;stroke-linecap:butt;stroke-width:0.548387}
		.st5 {fill:none;fill-rule:evenodd;font-size:12px;overflow:visible;stroke-linecap:square;stroke-miterlimit:3}
	]]>
	</style>

	<g v:mID="0" v:index="1" v:groupContext="foregroundPage">
		<title>Page-1</title>
		<v:pageProperties v:drawingScale="0.0393701" v:pageScale="0.0393701" v:drawingUnits="24" v:shadowOffsetX="8.50394"
				v:shadowOffsetY="-8.50394"/>
		<g id="shape13-1" v:mID="13" v:groupContext="shape" transform="translate(375.1,-1540.89)">
			<title>Sheet.13</title>
			<rect x="0" y="1571.39" width="127.559" height="212.598" rx="34.0157" ry="34.0157" class="st1"/>
		</g>
		<g id="shape15-3" v:mID="15" v:groupContext="shape" transform="translate(601.872,-1540.89)">
			<title>Sheet.15</title>
			<rect x="0" y="1571.39" width="127.559" height="212.598" rx="34.0157" ry="34.0157" class="st1"/>
		</g>
		<g id="shape16-5" v:mID="16" v:groupContext="shape" transform="translate(828.643,-1540.89)">
			<title>Sheet.16</title>
			<rect x="0" y="1571.39" width="127.559" height="212.598" rx="34.0157" ry="34.0157" class="st1"/>
		</g>
		<g id="shape17-7" v:mID="17" v:groupContext="shape" transform="translate(1055.41,-1540.89)">
			<title>Sheet.17</title>
			<rect x="0" y="1571.39" width="127.559" height="212.598" rx="34.0157" ry="34.0157" class="st1"/>
		</g>
		<g id="shape20-9" v:mID="20" v:groupContext="shape" transform="translate(1282.19,-1540.89)">
			<title>Sheet.20</title>
			<rect x="0" y="1571.39" width="127.559" height="212.598" rx="34.0157" ry="34.0157" class="st1"/>
		</g>
		<g id="group21-11" transform="translate(297.518,-296.485)" v:mID="21" v:groupContext="group">
			<title>Sheet.21</title>
			<g id="shape3-12" v:mID="3" v:groupContext="shape" transform="translate(0,-1.1811)">
				<title>Sheet.3</title>
				<rect x="0" y="593.678" width="1190.31" height="1190.31" rx="34.0157" ry="34.0157" class="st1"/>
			</g>
			<g id="shape12-14" v:mID="12" v:groupContext="shape" transform="translate(62.5748,-1013.15)">
				<title>Sheet.12</title>
				<ellipse cx="56.6929" cy="1727.3" rx="56.6929" ry="56.6929" class="st2"/>
			</g>
		</g>
		<g id="shape22-16" v:mID="22" v:groupContext="shape" transform="translate(-1540.89,1409.79) rotate(-90)">
			<title>Sheet.22</title>
			<rect x="0" y="1571.39" width="127.559" height="212.598" rx="34.0157" ry="34.0157" class="st1"/>
		</g>
		<g id="shape23-18" v:mID="23" v:groupContext="shape" transform="translate(-1540.89,1183.02) rotate(-90)">
			<title>Sheet.23</title>
			<rect x="0" y="1571.39" width="127.559" height="212.598" rx="34.0157" ry="34.0157" class="st1"/>
		</g>
		<g id="shape24-20" v:mID="24" v:groupContext="shape" transform="translate(-1540.89,956.248) rotate(-90)">
			<title>Sheet.24</title>
			<rect x="0" y="1571.39" width="127.559" height="212.598" rx="34.0157" ry="34.0157" class="st1"/>
		</g>
		<g id="shape25-22" v:mID="25" v:groupContext="shape" transform="translate(-1540.89,729.476) rotate(-90)">
			<title>Sheet.25</title>
			<rect x="0" y="1571.39" width="127.559" height="212.598" rx="34.0157" ry="34.0157" class="st1"/>
		</g>
		<g id="shape26-24" v:mID="26" v:groupContext="shape" transform="translate(-1540.89,502.705) rotate(-90)">
			<title>Sheet.26</title>
			<rect x="0" y="1571.39" width="127.559" height="212.598" rx="34.0157" ry="34.0157" class="st1"/>
		</g>
		<g id="shape38-26" v:mID="38" v:groupContext="shape" transform="translate(-29.778,1409.61) rotate(-90)">
			<title>Sheet.38</title>
			<rect x="0" y="1571.39" width="127.559" height="212.598" rx="34.0157" ry="34.0157" class="st1"/>
		</g>
		<g id="shape39-28" v:mID="39" v:groupContext="shape" transform="translate(-29.778,1182.84) rotate(-90)">
			<title>Sheet.39</title>
			<rect x="0" y="1571.39" width="127.559" height="212.598" rx="34.0157" ry="34.0157" class="st1"/>
		</g>
		<g id="shape40-30" v:mID="40" v:groupContext="shape" transform="translate(-29.778,956.071) rotate(-90)">
			<title>Sheet.40</title>
			<rect x="0" y="1571.39" width="127.559" height="212.598" rx="34.0157" ry="34.0157" class="st1"/>
		</g>
		<g id="shape41-32" v:mID="41" v:groupContext="shape" transform="translate(-29.778,729.299) rotate(-90)">
			<title>Sheet.41</title>
			<rect x="0" y="1571.39" width="127.559" height="212.598" rx="34.0157" ry="34.0157" class="st1"/>
		</g>
		<g id="shape42-34" v:mID="42" v:groupContext="shape" transform="translate(-29.778,502.528) rotate(-90)">
			<title>Sheet.42</title>
			<rect x="0" y="1571.39" width="127.559" height="212.598" rx="34.0157" ry="34.0157" class="st1"/>
		</g>
		<g id="shape43-36" v:mID="43" v:groupContext="shape" transform="translate(375.421,-30.5)">
			<title>Sheet.43</title>
			<rect x="0" y="1571.39" width="127.559" height="212.598" rx="34.0157" ry="34.0157" class="st1"/>
		</g>
		<g id="shape44-38" v:mID="44" v:groupContext="shape" transform="translate(602.192,-30.5)">
			<title>Sheet.44</title>
			<rect x="0" y="1571.39" width="127.559" height="212.598" rx="34.0157" ry="34.0157" class="st1"/>
		</g>
		<g id="shape45-40" v:mID="45" v:groupContext="shape" transform="translate(828.964,-30.5)">
			<title>Sheet.45</title>
			<rect x="0" y="1571.39" width="127.559" height="212.598" rx="34.0157" ry="34.0157" class="st1"/>
		</g>
		<g id="shape46-42" v:mID="46" v:groupContext="shape" transform="translate(1055.74,-30.5)">
			<title>Sheet.46</title>
			<rect x="0" y="1571.39" width="127.559" height="212.598" rx="34.0157" ry="34.0157" class="st1"/>
		</g>
		<g id="shape47-44" v:mID="47" v:groupContext="shape" transform="translate(1282.51,-30.5)">
			<title>Sheet.47</title>
			<rect x="0" y="1571.39" width="127.559" height="212.598" rx="34.0157" ry="34.0157" class="st1"/>
		</g>
		<g id="group52-46" transform="translate(358.193,-356.051)" v:mID="52" v:groupContext="group">
			<title>Sheet.52</title>
			<g id="shape53-47" v:mID="53" v:groupContext="shape" transform="translate(-8.31335E-13,-372.662)">
				<title>Sheet.53</title>
				<path d="M878.62 1335.9 C877.43 1337.5 876.53 1339.29 875.13 1340.69 C763.18 1452.74 651.04 1564.79 539.09 1676.93
							 C535.7 1680.33 534 1680.72 530.41 1677.03 C418.46 1564.88 306.31 1452.94 194.36 1340.79 C192.97 1339.39
							 191.87 1337.7 190.17 1335.6 C188.58 1338.69 189.07 1340.89 189.07 1342.88 C189.07 1487.26 189.07 1631.63
							 189.07 1775.91 C189.07 1783.99 190.07 1782.89 181.79 1782.89 C132.7 1782.89 83.71 1782.89 34.62 1782.99
							 C30.53 1782.99 28.93 1781.7 27.74 1777.91 C12.57 1730.11 4.19 1681.22 2.69 1631.14 C0 1541.94 18.06
							 1457.13 58.07 1377.41 C109.05 1275.93 184.88 1198.31 284.96 1144.53 C343.03 1113.3 404.99 1093.45 470.54
							 1086.26 C619.91 1069.9 754.2 1107.81 871.14 1202.5 C963.43 1277.23 1023.3 1373.42 1052.03 1488.76 C1061.01
							 1524.78 1065.6 1561.49 1066.7 1598.61 C1068.5 1659.77 1060.12 1719.44 1041.66 1777.81 C1040.36 1781.9
							 1038.46 1782.99 1034.37 1782.99 C984.98 1782.89 935.6 1782.79 886.21 1782.99 C881.32 1782.99 880.22
							 1781.7 880.22 1776.91 C880.32 1632.23 880.32 1487.56 880.32 1342.88 C880.32 1340.89 880.32 1338.89 880.32
							 1336.9 C879.82 1336.7 879.22 1336.3 878.62 1335.9 Z" class="st3"/>
			</g>
			<g id="shape54-49" v:mID="54" v:groupContext="shape" transform="translate(80.02,-2.72848E-12)">
				<title>Sheet.54</title>
				<path d="M0 1518.49 C5.19 1518.49 9.88 1518.49 14.47 1518.49 C82.31 1518.49 150.16 1518.39 218.01 1518.59 C223.3
							 1518.59 224.1 1517.09 224.1 1512.3 C224 1422.7 224 1333.11 224 1243.41 C224 1241.61 224 1239.72 224
							 1237.62 C226.29 1238.12 227.29 1239.92 228.59 1241.21 C302.52 1315.15 376.55 1389.08 450.39 1463.11
							 C453.68 1466.41 455.28 1466.81 458.77 1463.31 C532.6 1389.28 606.54 1315.35 680.47 1241.31 C681.77 1240.02
							 682.86 1238.62 685.26 1237.62 C685.26 1239.52 685.26 1241.41 685.26 1243.21 C685.26 1333.01 685.26 1422.8
							 685.16 1512.6 C685.16 1517.29 686.16 1518.59 691.05 1518.59 C761.89 1518.39 832.73 1518.49 903.57 1518.49
							 C905.36 1518.49 907.16 1518.49 909.16 1518.49 C833.53 1647.9 677.58 1765.13 479.92 1773.91 C253.33 1783.99
							 81.42 1655.98 0 1518.49 Z" class="st4"/>
			</g>
		</g>
	</g>
</svg>
