<?xml version="1.0" encoding="UTF-8" standalone="no"?>
<!DOCTYPE svg PUBLIC "-//W3C//DTD SVG 1.1//EN" "http://www.w3.org/Graphics/SVG/1.1/DTD/svg11.dtd">
<!-- Generated by Microsoft Visio, SVG Export monerohwwalletgreen-vect.svg Page-1 -->
<svg xmlns="http://www.w3.org/2000/svg" xmlns:xlink="http://www.w3.org/1999/xlink" xmlns:ev="http://www.w3.org/2001/xml-events"
		xmlns:v="http://schemas.microsoft.com/visio/2003/SVGExtensions/" width="30.8769in" height="33.5016in"
		viewBox="0 0 2223.14 2412.11" xml:space="preserve" color-interpolation-filters="sRGB" class="st9">
	<v:documentProperties v:langID="1053" v:metric="true" v:viewMarkup="false">
		<v:userDefs>
			<v:ud v:nameU="msvNoAutoConnect" v:val="VT0(1):26"/>
		</v:userDefs>
	</v:documentProperties>

	<style type="text/css">
	<![CDATA[
		.st1 {fill:#7f7f7f;stroke:none;stroke-linecap:butt;stroke-width:1}
		.st2 {fill:#edf8d8;stroke:#557518;stroke-linecap:round;stroke-linejoin:round;stroke-width:25}
		.st3 {fill:#fafdf2;stroke:#557518;stroke-linecap:round;stroke-linejoin:round;stroke-width:25}
		.st4 {fill:#ffffff;stroke:#557518;stroke-linecap:round;stroke-linejoin:round;stroke-width:20}
		.st5 {fill:#7aae26;stroke:none;stroke-linecap:butt;stroke-width:0.534965}
		.st6 {fill:#3e5512;stroke:none;stroke-linecap:butt;stroke-width:0.534965}
		.st7 {fill:none;stroke:none;stroke-linecap:round;stroke-linejoin:round;stroke-width:0.75}
		.st8 {fill:#ffffff;font-family:Century Gothic;font-size:25em;font-weight:bold}
		.st9 {fill:none;fill-rule:evenodd;font-size:12px;overflow:visible;stroke-linecap:square;stroke-miterlimit:3}
	]]>
	</style>

	<g v:mID="0" v:index="1" v:groupContext="foregroundPage">
		<title>Page-1</title>
		<v:pageProperties v:drawingScale="0.0393701" v:pageScale="0.0393701" v:drawingUnits="24" v:shadowOffsetX="8.50394"
				v:shadowOffsetY="-8.50394"/>
		<g id="group55-1" transform="translate(25.0414,-1144.43)" v:mID="55" v:groupContext="group">
			<title>Sheet.55</title>
			<g id="shape56-2" v:mID="56" v:groupContext="shape">
				<title>Sheet.56</title>
				<path d="M0 2412.11 C0.51 2391.64 1.54 2371.16 1.54 2350.69 C3.07 2263.67 67.06 2199.17 154.08 2199.17 C546.18 2198.66
							 938.8 2199.17 1330.9 2199.17 C1547.43 2199.17 1763.96 2199.17 1980.49 2199.17 C2017.34 2199.17 2038.84
							 2220.67 2035.77 2253.43 C2033.72 2278 2015.81 2296.43 1990.73 2296.94 C1965.13 2297.96 1939.54 2297.45
							 1913.94 2297.45 C1411.78 2297.45 909.62 2297.45 406.95 2297.45 C326.58 2297.45 246.73 2297.45 166.36
							 2297.45 C131.04 2297.45 108.52 2313.83 101.35 2343.52 C94.7 2370.65 107.5 2394.71 137.7 2412.11 C92.14
							 2412.11 46.07 2412.11 0 2412.11 Z" class="st1"/>
			</g>
		</g>
		<g id="group59-4" transform="translate(68.5719,-427.937)" v:mID="59" v:groupContext="group">
			<title>Sheet.59</title>
			<g id="shape13-5" v:mID="13" v:groupContext="shape" transform="translate(-555.919,-1264.15) rotate(-20)">
				<title>Sheet.13</title>
				<rect x="0" y="2199.52" width="127.559" height="212.598" rx="34.0157" ry="34.0157" class="st2"/>
			</g>
			<g id="shape15-7" v:mID="15" v:groupContext="shape" transform="translate(-342.824,-1341.71) rotate(-20)">
				<title>Sheet.15</title>
				<rect x="0" y="2199.52" width="127.559" height="212.598" rx="34.0157" ry="34.0157" class="st2"/>
			</g>
			<g id="shape16-9" v:mID="16" v:groupContext="shape" transform="translate(-129.728,-1419.27) rotate(-20)">
				<title>Sheet.16</title>
				<rect x="0" y="2199.52" width="127.559" height="212.598" rx="34.0157" ry="34.0157" class="st2"/>
			</g>
			<g id="shape17-11" v:mID="17" v:groupContext="shape" transform="translate(83.3677,-1496.83) rotate(-20)">
				<title>Sheet.17</title>
				<rect x="0" y="2199.52" width="127.559" height="212.598" rx="34.0157" ry="34.0157" class="st2"/>
			</g>
			<g id="shape20-13" v:mID="20" v:groupContext="shape" transform="translate(296.463,-1574.39) rotate(-20)">
				<title>Sheet.20</title>
				<rect x="0" y="2199.52" width="127.559" height="212.598" rx="34.0157" ry="34.0157" class="st2"/>
			</g>
			<g id="group21-15" transform="translate(-203.209,-68.2495) rotate(-20)" v:mID="21" v:groupContext="group">
				<title>Sheet.21</title>
				<g id="shape3-16" v:mID="3" v:groupContext="shape" transform="translate(0,-1.1811)">
					<title>Sheet.3</title>
					<rect x="0" y="1221.8" width="1190.31" height="1190.31" rx="34.0157" ry="34.0157" class="st3"/>
				</g>
				<g id="shape12-18" v:mID="12" v:groupContext="shape" transform="translate(62.5748,-1013.15)">
					<title>Sheet.12</title>
					<ellipse cx="56.6929" cy="2355.42" rx="56.6929" ry="56.6929" class="st4"/>
				</g>
			</g>
			<g id="shape22-20" v:mID="22" v:groupContext="shape" transform="translate(-1722.58,2968.97) rotate(-110)">
				<title>Sheet.22</title>
				<rect x="0" y="2199.52" width="127.559" height="212.598" rx="34.0157" ry="34.0157" class="st2"/>
			</g>
			<g id="shape23-22" v:mID="23" v:groupContext="shape" transform="translate(-1800.14,2755.88) rotate(-110)">
				<title>Sheet.23</title>
				<rect x="0" y="2199.52" width="127.559" height="212.598" rx="34.0157" ry="34.0157" class="st2"/>
			</g>
			<g id="shape24-24" v:mID="24" v:groupContext="shape" transform="translate(-1877.7,2542.78) rotate(-110)">
				<title>Sheet.24</title>
				<rect x="0" y="2199.52" width="127.559" height="212.598" rx="34.0157" ry="34.0157" class="st2"/>
			</g>
			<g id="shape25-26" v:mID="25" v:groupContext="shape" transform="translate(-1955.26,2329.69) rotate(-110)">
				<title>Sheet.25</title>
				<rect x="0" y="2199.52" width="127.559" height="212.598" rx="34.0157" ry="34.0157" class="st2"/>
			</g>
			<g id="shape26-28" v:mID="26" v:groupContext="shape" transform="translate(-2032.82,2116.59) rotate(-110)">
				<title>Sheet.26</title>
				<rect x="0" y="2199.52" width="127.559" height="212.598" rx="34.0157" ry="34.0157" class="st2"/>
			</g>
			<g id="shape38-30" v:mID="38" v:groupContext="shape" transform="translate(-302.659,2451.97) rotate(-110)">
				<title>Sheet.38</title>
				<rect x="0" y="2199.52" width="127.559" height="212.598" rx="34.0157" ry="34.0157" class="st2"/>
			</g>
			<g id="shape39-32" v:mID="39" v:groupContext="shape" transform="translate(-380.219,2238.88) rotate(-110)">
				<title>Sheet.39</title>
				<rect x="0" y="2199.52" width="127.559" height="212.598" rx="34.0157" ry="34.0157" class="st2"/>
			</g>
			<g id="shape40-34" v:mID="40" v:groupContext="shape" transform="translate(-457.779,2025.78) rotate(-110)">
				<title>Sheet.40</title>
				<rect x="0" y="2199.52" width="127.559" height="212.598" rx="34.0157" ry="34.0157" class="st2"/>
			</g>
			<g id="shape41-36" v:mID="41" v:groupContext="shape" transform="translate(-535.34,1812.69) rotate(-110)">
				<title>Sheet.41</title>
				<rect x="0" y="2199.52" width="127.559" height="212.598" rx="34.0157" ry="34.0157" class="st2"/>
			</g>
			<g id="shape42-38" v:mID="42" v:groupContext="shape" transform="translate(-612.9,1599.59) rotate(-110)">
				<title>Sheet.42</title>
				<rect x="0" y="2199.52" width="127.559" height="212.598" rx="34.0157" ry="34.0157" class="st2"/>
			</g>
			<g id="shape43-40" v:mID="43" v:groupContext="shape" transform="translate(-39.0329,155.051) rotate(-20)">
				<title>Sheet.43</title>
				<rect x="0" y="2199.52" width="127.559" height="212.598" rx="34.0157" ry="34.0157" class="st2"/>
			</g>
			<g id="shape44-42" v:mID="44" v:groupContext="shape" transform="translate(174.063,77.4905) rotate(-20)">
				<title>Sheet.44</title>
				<rect x="0" y="2199.52" width="127.559" height="212.598" rx="34.0157" ry="34.0157" class="st2"/>
			</g>
			<g id="group51-44" transform="translate(-163.155,-144.331) rotate(-20)" v:mID="51" v:groupContext="group">
				<title>Sheet.51</title>
				<g id="shape49-45" v:mID="49" v:groupContext="shape" transform="translate(0,-375.08)">
					<title>Sheet.49</title>
					<path d="M187.64 1968.12 C187.64 1969.91 187.64 1971.7 187.64 1973.49 C187.64 2117.48 187.64 2261.47 187.74 2405.55
								 C187.74 2410.42 186.84 2412.11 181.47 2412.11 C131.76 2411.92 82.04 2411.92 32.32 2412.02 C28.84
								 2412.02 27.35 2411.12 26.25 2407.54 C18.79 2383.77 12.63 2359.61 8.55 2335.05 C5.87 2318.84 3.88
								 2302.53 2.49 2286.13 C0.8 2266.04 0 2245.95 0.89 2225.87 C1.49 2211.25 2.68 2196.53 4.38 2181.92
								 C7.36 2155.27 12.73 2129.11 19.49 2103.16 C25.46 2080.59 33.31 2058.71 42.26 2037.23 C48.72 2021.82
								 56.18 2006.81 64.04 1992.09 C77.26 1967.13 92.58 1943.46 109.98 1921.09 C120.52 1907.57 131.66 1894.54
								 143.19 1881.81 C157.21 1866.4 172.43 1852.58 188.14 1838.95 C205.54 1823.94 223.93 1810.42 243.23
								 1797.89 C268.68 1781.28 295.63 1767.46 323.47 1755.23 C352.31 1742.6 382.24 1733.25 412.77 1726.09
								 C428.68 1722.41 444.89 1719.53 461.19 1717.64 C476.31 1715.85 491.42 1714.56 506.64 1713.56 C520.56
								 1712.67 534.38 1712.47 548.2 1713.07 C563.32 1713.66 578.53 1714.86 593.64 1716.55 C620.49 1719.63
								 646.84 1724.8 672.8 1731.76 C695.17 1737.73 716.95 1745.48 738.23 1754.43 C753.84 1760.99 768.95
								 1768.45 783.87 1776.41 C808.63 1789.63 832.2 1804.85 854.37 1822.15 C867.89 1832.69 880.92 1843.83
								 893.65 1855.36 C915.43 1875.25 934.52 1897.32 952.72 1920.39 C977.57 1952.02 997.76 1986.32 1014.57
								 2022.62 C1030.28 2056.42 1042.11 2091.63 1049.77 2128.22 C1053.45 2145.92 1056.73 2163.52 1058.72
								 2181.52 C1060.01 2193.55 1060.8 2205.58 1061.8 2217.71 C1062.89 2231.73 1062.99 2245.75 1062.4 2259.78
								 C1061.8 2275.09 1060.61 2290.4 1058.92 2305.72 C1055.83 2332.56 1050.56 2358.82 1043.7 2384.87 C1041.61
								 2392.82 1038.93 2400.68 1036.84 2408.63 C1035.94 2411.82 1033.86 2411.82 1031.27 2411.82 C1000.74
								 2411.82 970.32 2411.82 939.79 2411.82 C920.2 2411.82 900.71 2411.62 881.12 2411.92 C876.25 2412.02
								 875.65 2410.23 875.65 2406.05 C875.75 2261.86 875.75 2117.68 875.75 1973.49 C875.75 1971.7 875.75
								 1969.81 875.75 1967.63 C873.56 1968.22 872.57 1970.01 871.28 1971.21 C759.51 2083.17 647.84 2194.74
								 536.27 2306.51 C532.79 2309.99 531 2310.49 527.22 2306.71 C415.65 2194.94 303.98 2083.27 192.31
								 1971.6 C191.02 1970.31 190.03 1968.82 188.83 1967.43 C188.43 1967.63 188.04 1967.93 187.64 1968.12
								 Z" class="st5"/>
				</g>
				<g id="shape50-47" v:mID="50" v:groupContext="shape" transform="translate(77.4622,0)">
					<title>Sheet.50</title>
					<path d="M0 2144.23 C2.98 2144.23 4.87 2144.23 6.66 2144.23 C77.06 2144.23 147.57 2144.23 217.97 2144.33 C222.34
								 2144.33 223.64 2143.43 223.64 2138.76 C223.44 2048.57 223.54 1958.48 223.54 1868.29 C223.54 1866.5
								 223.54 1864.81 223.54 1862.62 C226.22 1863.22 227.22 1865.01 228.51 1866.3 C302.49 1940.18 376.47
								 2014.16 450.26 2088.15 C453.54 2091.43 455.13 2091.13 458.21 2088.05 C531.79 2014.26 605.58 1940.58
								 679.26 1866.9 C679.76 1866.4 680.16 1865.9 680.65 1865.5 C681.75 1864.61 682.54 1862.52 684.03 1863.02
								 C685.92 1863.71 684.83 1865.9 684.83 1867.39 C684.93 1957.68 684.93 2048.07 684.73 2138.36 C684.73
								 2143.04 685.62 2144.33 690.5 2144.33 C760.9 2144.13 831.4 2144.23 901.8 2144.23 C903.59 2144.23
								 905.38 2144.23 908.17 2144.23 C883.61 2185.1 854.47 2221.39 820.36 2253.51 C741.21 2327.99 648.04
								 2375.32 540.54 2392.72 C420.13 2412.11 305.77 2392.92 198.68 2334.55 C115.94 2289.31 50.02 2225.77
								 0 2144.23 Z" class="st6"/>
				</g>
			</g>
		</g>
		<g id="group52-49" transform="translate(20.9423,-19)" v:mID="52" v:groupContext="group">
			<title>Sheet.52</title>
			<g id="shape53-50" v:mID="53" v:groupContext="shape">
				<title>Sheet.53</title>
				<path d="M1000.74 1270.61 C1320.67 1270.61 1640.6 1270.61 1960.52 1270.61 C2054.71 1270.61 2122.28 1336.64 2123.3
							 1430.32 C2123.82 1485.6 2122.28 1541.4 2123.82 1596.68 C2124.33 1617.67 2118.7 1623.81 2097.2 1623.81
							 C1969.23 1622.79 1841.25 1623.3 1713.28 1623.3 C1599.64 1623.3 1510.58 1702.64 1499.31 1812.7 C1488.05
							 1920.7 1561.76 2018.47 1672.33 2040.49 C1687.18 2043.56 1703.05 2043.56 1717.89 2043.56 C1844.84 2043.56
							 1972.3 2044.07 2099.25 2043.04 C2118.19 2043.04 2123.82 2047.65 2123.3 2067.1 C2122.28 2129.55 2123.3
							 2191.49 2122.79 2253.94 C2122.28 2341.47 2053.18 2410.58 1965.64 2412.11 C1960.52 2412.11 1955.41 2412.11
							 1950.29 2412.11 C1359.06 2412.11 767.83 2412.11 177.11 2412.11 C87.02 2412.11 31.23 2370.65 6.65 2284.14
							 C0 2261.11 4.1 2236.54 4.1 2212.99 C3.58 1990.32 4.1 1767.65 4.1 1544.98 C4.1 1462.05 5.12 1379.64 4.1
							 1296.71 C3.58 1275.22 10.24 1270.1 31.23 1270.1 C354.23 1270.61 677.23 1270.61 1000.74 1270.61 Z"
						class="st1"/>
			</g>
			<g id="shape54-52" v:mID="54" v:groupContext="shape" transform="translate(1549.48,-420.259)">
				<title>Sheet.54</title>
				<path d="M375.21 2095.26 C446.88 2095.26 518.54 2095.26 589.69 2095.26 C622.97 2095.26 633.72 2106.01 633.72 2139.79
							 C633.72 2215.55 633.72 2291.31 633.72 2367.07 C633.72 2400.34 622.45 2411.6 589.18 2411.6 C446.88 2411.6
							 304.57 2412.11 162.27 2411.6 C70.64 2411.09 0 2340.45 0.51 2251.89 C1.02 2164.87 72.18 2095.77 162.27
							 2095.26 C233.42 2095.26 304.57 2095.26 375.21 2095.26 ZM239.56 2253.43 C240.07 2211.46 202.71 2173.58
							 159.71 2173.06 C116.71 2172.55 80.88 2208.9 80.88 2252.92 C80.88 2297.96 114.66 2331.75 159.71 2331.75
							 C203.73 2332.26 239.05 2297.96 239.56 2253.43 Z" class="st1"/>
			</g>
		</g>
		<g id="shape60-54" v:mID="60" v:groupContext="shape" transform="translate(18.375,-491.727)">
			<title>Sheet.60</title>
			<desc>NAME</desc>
			<v:textBlock v:margins="rect(4,4,4,4)" v:tabSpace="42.5197"/>
			<v:textRect cx="758.858" cy="2305.39" width="1517.72" height="213.457"/>
			<rect x="0" y="2198.66" width="1517.72" height="213.457" class="st7"/>
			<text x="323.95" y="2395.39" class="st8" v:langID="1053"><v:paragraph v:horizAlign="1"/><v:tabList/>NAME</text>		</g>
	</g>
</svg>
