<?xml version="1.0" encoding="UTF-8" standalone="no"?>
<!DOCTYPE svg PUBLIC "-//W3C//DTD SVG 1.1//EN" "http://www.w3.org/Graphics/SVG/1.1/DTD/svg11.dtd">
<!-- Generated by Microsoft Visio, SVG Export monerohwwalletorange-vect.svg Page-1 -->
<svg xmlns="http://www.w3.org/2000/svg" xmlns:xlink="http://www.w3.org/1999/xlink" xmlns:ev="http://www.w3.org/2001/xml-events"
		xmlns:v="http://schemas.microsoft.com/visio/2003/SVGExtensions/" width="30.8769in" height="33.5016in"
		viewBox="0 0 2223.14 2412.11" xml:space="preserve" color-interpolation-filters="sRGB" class="st8">
	<v:documentProperties v:langID="1053" v:metric="true" v:viewMarkup="false">
		<v:userDefs>
			<v:ud v:nameU="msvNoAutoConnect" v:val="VT0(1):26"/>
		</v:userDefs>
	</v:documentProperties>

	<style type="text/css">
	<![CDATA[
		.st1 {fill:#7f7f7f;stroke:none;stroke-linecap:butt;stroke-width:1}
		.st2 {fill:#ffede1;stroke:#ff6c0b;stroke-linecap:round;stroke-linejoin:round;stroke-width:25}
		.st3 {fill:#ffffff;stroke:#ff6c0b;stroke-linecap:round;stroke-linejoin:round;stroke-width:20}
		.st4 {fill:#fe6500;stroke:none;stroke-linecap:butt;stroke-width:0.548387}
		.st5 {fill:#4c4c4c;stroke:none;stroke-linecap:butt;stroke-width:0.548387}
		.st6 {fill:none;stroke:none;stroke-linecap:round;stroke-linejoin:round;stroke-width:0.75}
		.st7 {fill:#ffffff;font-family:Century Gothic;font-size:25em;font-weight:bold}
		.st8 {fill:none;fill-rule:evenodd;font-size:12px;overflow:visible;stroke-linecap:square;stroke-miterlimit:3}
	]]>
	</style>

	<g v:mID="0" v:index="1" v:groupContext="foregroundPage">
		<title>Page-1</title>
		<v:pageProperties v:drawingScale="0.0393701" v:pageScale="0.0393701" v:drawingUnits="24" v:shadowOffsetX="8.50394"
				v:shadowOffsetY="-8.50394"/>
		<g id="group55-1" transform="translate(25.0414,-1144.43)" v:mID="55" v:groupContext="group">
			<title>Sheet.55</title>
			<g id="shape56-2" v:mID="56" v:groupContext="shape">
				<title>Sheet.56</title>
				<path d="M0 2412.11 C0.51 2391.64 1.54 2371.16 1.54 2350.69 C3.07 2263.67 67.06 2199.17 154.08 2199.17 C546.18 2198.66
							 938.8 2199.17 1330.9 2199.17 C1547.43 2199.17 1763.96 2199.17 1980.49 2199.17 C2017.34 2199.17 2038.84
							 2220.67 2035.77 2253.43 C2033.72 2278 2015.81 2296.43 1990.73 2296.94 C1965.13 2297.96 1939.54 2297.45
							 1913.94 2297.45 C1411.78 2297.45 909.62 2297.45 406.95 2297.45 C326.58 2297.45 246.73 2297.45 166.36
							 2297.45 C131.04 2297.45 108.52 2313.83 101.35 2343.52 C94.7 2370.65 107.5 2394.71 137.7 2412.11 C92.14
							 2412.11 46.07 2412.11 0 2412.11 Z" class="st1"/>
			</g>
		</g>
		<g id="group117-4" transform="translate(68.8819,-427.681)" v:mID="117" v:groupContext="group">
			<title>Sheet.117</title>
			<g id="shape90-5" v:mID="90" v:groupContext="shape" transform="translate(-555.919,-1264.15) rotate(-20)">
				<title>Sheet.90</title>
				<rect x="0" y="2199.52" width="127.559" height="212.598" rx="34.0157" ry="34.0157" class="st2"/>
			</g>
			<g id="shape91-7" v:mID="91" v:groupContext="shape" transform="translate(-342.824,-1341.71) rotate(-20)">
				<title>Sheet.91</title>
				<rect x="0" y="2199.52" width="127.559" height="212.598" rx="34.0157" ry="34.0157" class="st2"/>
			</g>
			<g id="shape92-9" v:mID="92" v:groupContext="shape" transform="translate(-129.728,-1419.27) rotate(-20)">
				<title>Sheet.92</title>
				<rect x="0" y="2199.52" width="127.559" height="212.598" rx="34.0157" ry="34.0157" class="st2"/>
			</g>
			<g id="shape93-11" v:mID="93" v:groupContext="shape" transform="translate(83.3677,-1496.83) rotate(-20)">
				<title>Sheet.93</title>
				<rect x="0" y="2199.52" width="127.559" height="212.598" rx="34.0157" ry="34.0157" class="st2"/>
			</g>
			<g id="shape94-13" v:mID="94" v:groupContext="shape" transform="translate(296.463,-1574.39) rotate(-20)">
				<title>Sheet.94</title>
				<rect x="0" y="2199.52" width="127.559" height="212.598" rx="34.0157" ry="34.0157" class="st2"/>
			</g>
			<g id="group95-15" transform="translate(-203.209,-68.2495) rotate(-20)" v:mID="95" v:groupContext="group">
				<title>Sheet.95</title>
				<g id="shape96-16" v:mID="96" v:groupContext="shape" transform="translate(0,-1.1811)">
					<title>Sheet.96</title>
					<rect x="0" y="1221.8" width="1190.31" height="1190.31" rx="34.0157" ry="34.0157" class="st2"/>
				</g>
				<g id="shape97-18" v:mID="97" v:groupContext="shape" transform="translate(62.5748,-1013.15)">
					<title>Sheet.97</title>
					<ellipse cx="56.6929" cy="2355.42" rx="56.6929" ry="56.6929" class="st3"/>
				</g>
			</g>
			<g id="shape98-20" v:mID="98" v:groupContext="shape" transform="translate(-1722.58,2968.97) rotate(-110)">
				<title>Sheet.98</title>
				<rect x="0" y="2199.52" width="127.559" height="212.598" rx="34.0157" ry="34.0157" class="st2"/>
			</g>
			<g id="shape99-22" v:mID="99" v:groupContext="shape" transform="translate(-1800.14,2755.88) rotate(-110)">
				<title>Sheet.99</title>
				<rect x="0" y="2199.52" width="127.559" height="212.598" rx="34.0157" ry="34.0157" class="st2"/>
			</g>
			<g id="shape100-24" v:mID="100" v:groupContext="shape" transform="translate(-1877.7,2542.78) rotate(-110)">
				<title>Sheet.100</title>
				<rect x="0" y="2199.52" width="127.559" height="212.598" rx="34.0157" ry="34.0157" class="st2"/>
			</g>
			<g id="shape101-26" v:mID="101" v:groupContext="shape" transform="translate(-1955.26,2329.69) rotate(-110)">
				<title>Sheet.101</title>
				<rect x="0" y="2199.52" width="127.559" height="212.598" rx="34.0157" ry="34.0157" class="st2"/>
			</g>
			<g id="shape102-28" v:mID="102" v:groupContext="shape" transform="translate(-2032.82,2116.59) rotate(-110)">
				<title>Sheet.102</title>
				<rect x="0" y="2199.52" width="127.559" height="212.598" rx="34.0157" ry="34.0157" class="st2"/>
			</g>
			<g id="shape103-30" v:mID="103" v:groupContext="shape" transform="translate(-302.659,2451.97) rotate(-110)">
				<title>Sheet.103</title>
				<rect x="0" y="2199.52" width="127.559" height="212.598" rx="34.0157" ry="34.0157" class="st2"/>
			</g>
			<g id="shape104-32" v:mID="104" v:groupContext="shape" transform="translate(-380.219,2238.88) rotate(-110)">
				<title>Sheet.104</title>
				<rect x="0" y="2199.52" width="127.559" height="212.598" rx="34.0157" ry="34.0157" class="st2"/>
			</g>
			<g id="shape105-34" v:mID="105" v:groupContext="shape" transform="translate(-457.779,2025.78) rotate(-110)">
				<title>Sheet.105</title>
				<rect x="0" y="2199.52" width="127.559" height="212.598" rx="34.0157" ry="34.0157" class="st2"/>
			</g>
			<g id="shape106-36" v:mID="106" v:groupContext="shape" transform="translate(-535.34,1812.69) rotate(-110)">
				<title>Sheet.106</title>
				<rect x="0" y="2199.52" width="127.559" height="212.598" rx="34.0157" ry="34.0157" class="st2"/>
			</g>
			<g id="shape107-38" v:mID="107" v:groupContext="shape" transform="translate(-612.9,1599.59) rotate(-110)">
				<title>Sheet.107</title>
				<rect x="0" y="2199.52" width="127.559" height="212.598" rx="34.0157" ry="34.0157" class="st2"/>
			</g>
			<g id="shape108-40" v:mID="108" v:groupContext="shape" transform="translate(-39.0329,155.051) rotate(-20)">
				<title>Sheet.108</title>
				<rect x="0" y="2199.52" width="127.559" height="212.598" rx="34.0157" ry="34.0157" class="st2"/>
			</g>
			<g id="shape109-42" v:mID="109" v:groupContext="shape" transform="translate(174.063,77.4905) rotate(-20)">
				<title>Sheet.109</title>
				<rect x="0" y="2199.52" width="127.559" height="212.598" rx="34.0157" ry="34.0157" class="st2"/>
			</g>
			<g id="group113-44" transform="translate(-166.567,-144.975) rotate(-20)" v:mID="113" v:groupContext="group">
				<title>Sheet.113</title>
				<g id="shape114-45" v:mID="114" v:groupContext="shape" transform="translate(-8.31335E-13,-372.662)">
					<title>Sheet.114</title>
					<path d="M878.62 1964.02 C877.43 1965.62 876.53 1967.41 875.13 1968.81 C763.18 2080.86 651.04 2192.91 539.09
								 2305.06 C535.7 2308.45 534 2308.85 530.41 2305.16 C418.46 2193.01 306.31 2081.06 194.36 1968.91
								 C192.97 1967.51 191.87 1965.82 190.17 1963.72 C188.58 1966.82 189.07 1969.01 189.07 1971.01 C189.07
								 2115.38 189.07 2259.76 189.07 2404.03 C189.07 2412.11 190.07 2411.02 181.79 2411.02 C132.7 2411.02
								 83.71 2411.02 34.62 2411.12 C30.53 2411.12 28.93 2409.82 27.74 2406.03 C12.57 2358.24 4.19 2309.35
								 2.69 2259.26 C0 2170.06 18.06 2085.25 58.07 2005.53 C109.05 1904.06 184.88 1826.43 284.96 1772.65
								 C343.03 1741.42 404.99 1721.57 470.54 1714.38 C619.91 1698.02 754.2 1735.94 871.14 1830.62 C963.43
								 1905.35 1023.3 2001.54 1052.03 2116.88 C1061.01 2152.9 1065.6 2189.62 1066.7 2226.73 C1068.5 2287.89
								 1060.12 2347.56 1041.66 2405.93 C1040.36 2410.02 1038.46 2411.12 1034.37 2411.12 C984.98 2411.02
								 935.6 2410.92 886.21 2411.12 C881.32 2411.12 880.22 2409.82 880.22 2405.03 C880.32 2260.36 880.32
								 2115.68 880.32 1971.01 C880.32 1969.01 880.32 1967.02 880.32 1965.02 C879.82 1964.82 879.22 1964.42
								 878.62 1964.02 Z" class="st4"/>
				</g>
				<g id="shape115-47" v:mID="115" v:groupContext="shape" transform="translate(80.02,-3.18323E-12)">
					<title>Sheet.115</title>
					<path d="M0 2146.61 C5.19 2146.61 9.88 2146.61 14.47 2146.61 C82.31 2146.61 150.16 2146.51 218.01 2146.71 C223.3
								 2146.71 224.1 2145.21 224.1 2140.43 C224 2050.83 224 1961.23 224 1871.53 C224 1869.73 224 1867.84
								 224 1865.74 C226.29 1866.24 227.29 1868.04 228.59 1869.34 C302.52 1943.27 376.55 2017.2 450.39 2091.24
								 C453.68 2094.53 455.28 2094.93 458.77 2091.44 C532.6 2017.4 606.54 1943.47 680.47 1869.44 C681.77
								 1868.14 682.86 1866.74 685.26 1865.74 C685.26 1867.64 685.26 1869.53 685.26 1871.33 C685.26 1961.13
								 685.26 2050.93 685.16 2140.72 C685.16 2145.41 686.16 2146.71 691.05 2146.71 C761.89 2146.51 832.73
								 2146.61 903.57 2146.61 C905.36 2146.61 907.16 2146.61 909.16 2146.61 C833.53 2276.02 677.58 2393.26
								 479.92 2402.04 C253.33 2412.11 81.42 2284.1 0 2146.61 Z" class="st5"/>
				</g>
			</g>
		</g>
		<g id="group52-49" transform="translate(20.9423,-19)" v:mID="52" v:groupContext="group">
			<title>Sheet.52</title>
			<g id="shape53-50" v:mID="53" v:groupContext="shape">
				<title>Sheet.53</title>
				<path d="M1000.74 1270.61 C1320.67 1270.61 1640.6 1270.61 1960.52 1270.61 C2054.71 1270.61 2122.28 1336.64 2123.3
							 1430.32 C2123.82 1485.6 2122.28 1541.4 2123.82 1596.68 C2124.33 1617.67 2118.7 1623.81 2097.2 1623.81
							 C1969.23 1622.79 1841.25 1623.3 1713.28 1623.3 C1599.64 1623.3 1510.58 1702.64 1499.31 1812.7 C1488.05
							 1920.7 1561.76 2018.47 1672.33 2040.49 C1687.18 2043.56 1703.05 2043.56 1717.89 2043.56 C1844.84 2043.56
							 1972.3 2044.07 2099.25 2043.04 C2118.19 2043.04 2123.82 2047.65 2123.3 2067.1 C2122.28 2129.55 2123.3
							 2191.49 2122.79 2253.94 C2122.28 2341.47 2053.18 2410.58 1965.64 2412.11 C1960.52 2412.11 1955.41 2412.11
							 1950.29 2412.11 C1359.06 2412.11 767.83 2412.11 177.11 2412.11 C87.02 2412.11 31.23 2370.65 6.65 2284.14
							 C0 2261.11 4.1 2236.54 4.1 2212.99 C3.58 1990.32 4.1 1767.65 4.1 1544.98 C4.1 1462.05 5.12 1379.64 4.1
							 1296.71 C3.58 1275.22 10.24 1270.1 31.23 1270.1 C354.23 1270.61 677.23 1270.61 1000.74 1270.61 Z"
						class="st1"/>
			</g>
			<g id="shape54-52" v:mID="54" v:groupContext="shape" transform="translate(1549.48,-420.259)">
				<title>Sheet.54</title>
				<path d="M375.21 2095.26 C446.88 2095.26 518.54 2095.26 589.69 2095.26 C622.97 2095.26 633.72 2106.01 633.72 2139.79
							 C633.72 2215.55 633.72 2291.31 633.72 2367.07 C633.72 2400.34 622.45 2411.6 589.18 2411.6 C446.88 2411.6
							 304.57 2412.11 162.27 2411.6 C70.64 2411.09 0 2340.45 0.51 2251.89 C1.02 2164.87 72.18 2095.77 162.27
							 2095.26 C233.42 2095.26 304.57 2095.26 375.21 2095.26 ZM239.56 2253.43 C240.07 2211.46 202.71 2173.58
							 159.71 2173.06 C116.71 2172.55 80.88 2208.9 80.88 2252.92 C80.88 2297.96 114.66 2331.75 159.71 2331.75
							 C203.73 2332.26 239.05 2297.96 239.56 2253.43 Z" class="st1"/>
			</g>
		</g>
		<g id="shape60-54" v:mID="60" v:groupContext="shape" transform="translate(18.375,-491.727)">
			<title>Sheet.60</title>
			<desc>NAME</desc>
			<v:textBlock v:margins="rect(4,4,4,4)" v:tabSpace="42.5197"/>
			<v:textRect cx="758.858" cy="2305.39" width="1517.72" height="213.457"/>
			<rect x="0" y="2198.66" width="1517.72" height="213.457" class="st6"/>
			<text x="323.95" y="2395.39" class="st7" v:langID="1053"><v:paragraph v:horizAlign="1"/><v:tabList/>NAME</text>		</g>
	</g>
</svg>
