G04 #@! TF.FileFunction,Profile,NP*
%FSLAX46Y46*%
G04 Gerber Fmt 4.6, Leading zero omitted, Abs format (unit mm)*
G04 Created by KiCad (PCBNEW 4.0.7-e2-6376~58~ubuntu16.04.1) date Thu Nov 16 15:54:30 2017*
%MOMM*%
%LPD*%
G01*
G04 APERTURE LIST*
%ADD10C,0.100000*%
%ADD11C,0.150000*%
G04 APERTURE END LIST*
D10*
D11*
X214503000Y-121361200D02*
X217297000Y-121361200D01*
X231775000Y-114681000D02*
X231394000Y-116840000D01*
X231394000Y-116840000D02*
X229641400Y-118364000D01*
X229641400Y-118364000D02*
X223062800Y-120599200D01*
X223062800Y-120599200D02*
X220599000Y-121208800D01*
X220599000Y-121208800D02*
X217297000Y-121361200D01*
X211201000Y-121208800D02*
X214503000Y-121361200D01*
X208737200Y-120599200D02*
X211201000Y-121208800D01*
X202158600Y-118364000D02*
X208737200Y-120599200D01*
X200406000Y-116840000D02*
X202158600Y-118364000D01*
X200025000Y-114681000D02*
X200406000Y-116840000D01*
X200025000Y-77724000D02*
X200025000Y-114681000D01*
X231775000Y-77724000D02*
X231775000Y-114681000D01*
X226314000Y-73660000D02*
X205486000Y-73660000D01*
X231775000Y-77724000D02*
X231648000Y-77216000D01*
X231648000Y-77216000D02*
X231394000Y-76835000D01*
X231394000Y-76835000D02*
X230759000Y-76200000D01*
X230759000Y-76200000D02*
X229616000Y-75311000D01*
X229616000Y-75311000D02*
X228092000Y-74168000D01*
X228092000Y-74168000D02*
X227203000Y-73787000D01*
X227203000Y-73787000D02*
X226314000Y-73660000D01*
X204597000Y-73787000D02*
X205486000Y-73660000D01*
X203708000Y-74168000D02*
X204597000Y-73787000D01*
X202184000Y-75311000D02*
X203708000Y-74168000D01*
X201041000Y-76200000D02*
X202184000Y-75311000D01*
X200406000Y-76835000D02*
X201041000Y-76200000D01*
X200152000Y-77216000D02*
X200406000Y-76835000D01*
X200025000Y-77724000D02*
X200152000Y-77216000D01*
M02*
