G04 #@! TF.FileFunction,Copper,L2,Bot,Signal*
%FSLAX46Y46*%
G04 Gerber Fmt 4.6, Leading zero omitted, Abs format (unit mm)*
G04 Created by KiCad (PCBNEW 4.0.7-e2-6376~58~ubuntu16.04.1) date Tue Nov 14 14:50:52 2017*
%MOMM*%
%LPD*%
G01*
G04 APERTURE LIST*
%ADD10C,0.100000*%
%ADD11C,1.700000*%
%ADD12R,1.700000X1.700000*%
%ADD13O,1.700000X1.700000*%
%ADD14R,0.850000X0.850000*%
%ADD15O,0.800000X1.400000*%
%ADD16C,0.650000*%
%ADD17R,1.300000X0.700000*%
%ADD18R,1.550000X0.600000*%
%ADD19R,1.000000X1.250000*%
%ADD20R,1.250000X1.000000*%
%ADD21R,0.400000X4.000000*%
%ADD22C,1.500000*%
%ADD23C,0.600000*%
%ADD24C,0.200000*%
%ADD25C,0.254000*%
G04 APERTURE END LIST*
D10*
G36*
X221928082Y-108458000D02*
X220726000Y-109660082D01*
X219523918Y-108458000D01*
X220726000Y-107255918D01*
X221928082Y-108458000D01*
X221928082Y-108458000D01*
G37*
D11*
X222522051Y-106661949D02*
X222522051Y-106661949D01*
X224318102Y-104865898D02*
X224318102Y-104865898D01*
X226114154Y-103069846D02*
X226114154Y-103069846D01*
X227910205Y-101273795D02*
X227910205Y-101273795D01*
X229706256Y-99477744D02*
X229706256Y-99477744D01*
D12*
X223520000Y-76200000D03*
D13*
X220980000Y-76200000D03*
X218440000Y-76200000D03*
X215900000Y-76200000D03*
X213360000Y-76200000D03*
X210820000Y-76200000D03*
X208280000Y-76200000D03*
D14*
X203835000Y-107315000D03*
X212242400Y-101854000D03*
X218389200Y-101854000D03*
X201676000Y-109474000D03*
X230124000Y-109474000D03*
X214376000Y-107569000D03*
D15*
X211770000Y-113730000D03*
X220030000Y-113730000D03*
X220390000Y-119680000D03*
X211410000Y-119680000D03*
D16*
X218700000Y-113130000D03*
X217100000Y-113130000D03*
X216300000Y-113130000D03*
X215500000Y-113130000D03*
X214700000Y-113130000D03*
X213100000Y-113130000D03*
X218300000Y-113830000D03*
X217500000Y-113830000D03*
X216700000Y-113830000D03*
X215100000Y-113830000D03*
X214300000Y-113830000D03*
X213500000Y-113830000D03*
D17*
X209550000Y-68133000D03*
X209550000Y-66233000D03*
D18*
X211640400Y-92659200D03*
X211640400Y-93929200D03*
X211640400Y-95199200D03*
X211640400Y-96469200D03*
X206240400Y-96469200D03*
X206240400Y-95199200D03*
X206240400Y-93929200D03*
X206240400Y-92659200D03*
X226956600Y-82499200D03*
X226956600Y-83769200D03*
X226956600Y-85039200D03*
X226956600Y-86309200D03*
X221556600Y-86309200D03*
X221556600Y-85039200D03*
X221556600Y-83769200D03*
X221556600Y-82499200D03*
X226474000Y-92684600D03*
X226474000Y-93954600D03*
X226474000Y-95224600D03*
X226474000Y-96494600D03*
X221074000Y-96494600D03*
X221074000Y-95224600D03*
X221074000Y-93954600D03*
X221074000Y-92684600D03*
X211742000Y-82575400D03*
X211742000Y-83845400D03*
X211742000Y-85115400D03*
X211742000Y-86385400D03*
X206342000Y-86385400D03*
X206342000Y-85115400D03*
X206342000Y-83845400D03*
X206342000Y-82575400D03*
D19*
X209508600Y-89738200D03*
X207508600Y-89738200D03*
X222615000Y-80010000D03*
X220615000Y-80010000D03*
X228838000Y-90170000D03*
X226838000Y-90170000D03*
X207375000Y-80010000D03*
X205375000Y-80010000D03*
D20*
X226441000Y-68310000D03*
X226441000Y-66310000D03*
X224218500Y-68310000D03*
X224218500Y-66310000D03*
X219900500Y-68310000D03*
X219900500Y-66310000D03*
X217741500Y-68310000D03*
X217741500Y-66310000D03*
X207264000Y-68246500D03*
X207264000Y-66246500D03*
X201930000Y-97218500D03*
X201930000Y-98361500D03*
X203835000Y-97218500D03*
X203835000Y-98361500D03*
X217170000Y-97218500D03*
X217170000Y-98361500D03*
X219075000Y-97218500D03*
X219075000Y-98361500D03*
X217170000Y-87058500D03*
X217170000Y-88201500D03*
X219075000Y-87058500D03*
X219075000Y-88201500D03*
X201930000Y-87058500D03*
X201930000Y-88201500D03*
X203835000Y-87058500D03*
X203835000Y-88201500D03*
D21*
X226123500Y-71818500D03*
X225425000Y-71818500D03*
X224726500Y-71818500D03*
X224028000Y-71818500D03*
X223329500Y-71818500D03*
X222631000Y-71818500D03*
X221932500Y-71818500D03*
X221234000Y-71818500D03*
X220535500Y-71818500D03*
X219837000Y-71818500D03*
X219138500Y-71818500D03*
X218440000Y-71818500D03*
X217741500Y-71818500D03*
X217043000Y-71818500D03*
X216344500Y-71818500D03*
X215646000Y-71818500D03*
X214947500Y-71818500D03*
X214249000Y-71818500D03*
X213550500Y-71818500D03*
X212852000Y-71818500D03*
X212153500Y-71818500D03*
X211455000Y-71818500D03*
X210756500Y-71818500D03*
X210058000Y-71818500D03*
X209359500Y-71818500D03*
X208661000Y-71818500D03*
X207962500Y-71818500D03*
X207264000Y-71818500D03*
X206565500Y-71818500D03*
X205867000Y-71818500D03*
D22*
X223012000Y-93599000D03*
X223012000Y-89799000D03*
D23*
X210312000Y-95377000D03*
X215011000Y-93726000D03*
X208661000Y-80518000D03*
X204520800Y-82550000D03*
X205181200Y-81178400D03*
X207975200Y-85267800D03*
X218998800Y-83007200D03*
X216662000Y-95377000D03*
X207518000Y-96393000D03*
X206248000Y-89535000D03*
X221107000Y-88900000D03*
X217805000Y-92837000D03*
X209232500Y-78422500D03*
X209169000Y-94361000D03*
X210439000Y-98298000D03*
X212852000Y-98298000D03*
X213868000Y-98475800D03*
X213004400Y-94513400D03*
X213487000Y-81788000D03*
X205867000Y-101854000D03*
X214884000Y-95377000D03*
X217170000Y-104648000D03*
X214757000Y-98425000D03*
X204851000Y-100330000D03*
X215074500Y-110871000D03*
D24*
X211005400Y-95834200D02*
X211640400Y-96469200D01*
X210769200Y-95834200D02*
X211005400Y-95834200D01*
X210312000Y-95377000D02*
X210769200Y-95834200D01*
X221234000Y-74168000D02*
X221234000Y-71818500D01*
X226123500Y-71818500D02*
X226123500Y-74041000D01*
X219837000Y-73914000D02*
X219837000Y-71818500D01*
X220091000Y-74168000D02*
X219837000Y-73914000D01*
X225996500Y-74168000D02*
X221234000Y-74168000D01*
X221234000Y-74168000D02*
X220091000Y-74168000D01*
X226123500Y-74041000D02*
X225996500Y-74168000D01*
X218440000Y-71818500D02*
X218440000Y-69405500D01*
X216773000Y-66310000D02*
X217741500Y-66310000D01*
X216408000Y-66675000D02*
X216773000Y-66310000D01*
X216408000Y-69024500D02*
X216408000Y-66675000D01*
X216725500Y-69342000D02*
X216408000Y-69024500D01*
X218376500Y-69342000D02*
X216725500Y-69342000D01*
X218440000Y-69405500D02*
X218376500Y-69342000D01*
X219837000Y-71818500D02*
X219138500Y-71818500D01*
X219138500Y-71818500D02*
X218440000Y-71818500D01*
X217741500Y-66310000D02*
X219900500Y-66310000D01*
X205867000Y-71818500D02*
X205867000Y-67643500D01*
X205867000Y-67643500D02*
X207277500Y-66233000D01*
X207277500Y-66233000D02*
X217664500Y-66233000D01*
X217664500Y-66233000D02*
X217741500Y-66310000D01*
X206565500Y-71818500D02*
X205867000Y-71818500D01*
X214757000Y-93980000D02*
X213250000Y-93980000D01*
X215011000Y-93726000D02*
X214757000Y-93980000D01*
X212090000Y-93980000D02*
X213250000Y-93980000D01*
X207375000Y-80010000D02*
X208153000Y-80010000D01*
X208153000Y-80010000D02*
X208661000Y-80518000D01*
X205375000Y-80010000D02*
X205375000Y-80984600D01*
X205181200Y-81178400D02*
X205375000Y-80984600D01*
X206342000Y-82575400D02*
X207492600Y-82575400D01*
X207975200Y-83058000D02*
X207975200Y-85267800D01*
X207492600Y-82575400D02*
X207975200Y-83058000D01*
X219278200Y-83286600D02*
X219481400Y-83286600D01*
X218998800Y-83007200D02*
X219278200Y-83286600D01*
X206248000Y-89535000D02*
X207305400Y-89535000D01*
X207305400Y-89535000D02*
X207508600Y-89738200D01*
X226838000Y-90170000D02*
X225171000Y-90170000D01*
X222631000Y-92710000D02*
X221107000Y-92710000D01*
X225171000Y-90170000D02*
X222631000Y-92710000D01*
X205867000Y-82550000D02*
X204520800Y-82550000D01*
X205867000Y-82550000D02*
X206883000Y-82550000D01*
X220615000Y-80010000D02*
X220615000Y-79422500D01*
X220615000Y-79422500D02*
X220980000Y-79057500D01*
X221059500Y-68310000D02*
X219900500Y-68310000D01*
X221742000Y-67627500D02*
X221059500Y-68310000D01*
X221742000Y-66548000D02*
X221742000Y-67627500D01*
X222885000Y-65405000D02*
X221742000Y-66548000D01*
X227266500Y-65405000D02*
X222885000Y-65405000D01*
X227774500Y-65913000D02*
X227266500Y-65405000D01*
X227774500Y-69151500D02*
X227774500Y-65913000D01*
X226822000Y-70104000D02*
X227774500Y-69151500D01*
X226822000Y-74422000D02*
X226822000Y-70104000D01*
X226060000Y-75184000D02*
X226822000Y-74422000D01*
X226060000Y-77533500D02*
X226060000Y-75184000D01*
X224536000Y-79057500D02*
X226060000Y-77533500D01*
X220980000Y-79057500D02*
X224536000Y-79057500D01*
X222631000Y-71818500D02*
X222631000Y-69469000D01*
X220805500Y-69215000D02*
X219900500Y-68310000D01*
X222377000Y-69215000D02*
X220805500Y-69215000D01*
X222631000Y-69469000D02*
X222377000Y-69215000D01*
X217741500Y-68310000D02*
X219900500Y-68310000D01*
X220535500Y-71818500D02*
X220535500Y-68945000D01*
X220535500Y-68945000D02*
X219900500Y-68310000D01*
X220218000Y-82550000D02*
X221107000Y-82550000D01*
X219481400Y-83286600D02*
X220218000Y-82550000D01*
X217805000Y-94234000D02*
X217805000Y-92837000D01*
X216662000Y-95377000D02*
X217805000Y-94234000D01*
X207010000Y-92710000D02*
X205867000Y-92710000D01*
X207645000Y-93345000D02*
X207010000Y-92710000D01*
X207645000Y-96266000D02*
X207645000Y-93345000D01*
X207518000Y-96393000D02*
X207645000Y-96266000D01*
X220583000Y-90805000D02*
X220583000Y-89424000D01*
X220583000Y-89424000D02*
X221107000Y-88900000D01*
X217932000Y-92710000D02*
X221107000Y-92710000D01*
X217805000Y-92837000D02*
X217932000Y-92710000D01*
X221107000Y-92710000D02*
X221107000Y-91329000D01*
X221107000Y-91329000D02*
X220583000Y-90805000D01*
X220615000Y-80010000D02*
X220615000Y-82058000D01*
X220615000Y-82058000D02*
X221107000Y-82550000D01*
X207280000Y-90170000D02*
X207280000Y-91297000D01*
X207280000Y-91297000D02*
X205867000Y-92710000D01*
X214376000Y-107569000D02*
X219837000Y-107569000D01*
X219837000Y-107569000D02*
X220726000Y-108458000D01*
X209232500Y-78422500D02*
X210820000Y-76835000D01*
X210820000Y-76200000D02*
X210820000Y-75438000D01*
X209169000Y-94361000D02*
X209359500Y-94551500D01*
X209359500Y-94551500D02*
X209359500Y-97980500D01*
X209359500Y-97980500D02*
X210693000Y-99314000D01*
X210693000Y-99314000D02*
X212852000Y-99314000D01*
X212852000Y-99314000D02*
X219138500Y-105600500D01*
X219138500Y-105600500D02*
X221460602Y-105600500D01*
X221460602Y-105600500D02*
X222522051Y-106661949D01*
X222957204Y-103505000D02*
X224318102Y-104865898D01*
X217551000Y-103505000D02*
X222957204Y-103505000D01*
X212979000Y-98933000D02*
X217551000Y-103505000D01*
X211074000Y-98933000D02*
X212979000Y-98933000D01*
X210439000Y-98298000D02*
X211074000Y-98933000D01*
X217678000Y-103124000D02*
X226060000Y-103124000D01*
X212852000Y-98298000D02*
X217678000Y-103124000D01*
X226060000Y-103124000D02*
X226114154Y-103069846D01*
X213715600Y-98323400D02*
X213868000Y-98475800D01*
X213715600Y-95224600D02*
X213715600Y-98323400D01*
X213004400Y-94513400D02*
X213715600Y-95224600D01*
X211391500Y-81788000D02*
X203454000Y-81788000D01*
X201676000Y-109474000D02*
X201676000Y-100711000D01*
X211391500Y-81788000D02*
X213487000Y-81788000D01*
X200533000Y-84709000D02*
X203454000Y-81788000D01*
X200533000Y-99568000D02*
X200533000Y-84709000D01*
X201676000Y-100711000D02*
X200533000Y-99568000D01*
X201930000Y-91186000D02*
X203454000Y-91186000D01*
X205994000Y-88646000D02*
X216725500Y-88646000D01*
X203454000Y-91186000D02*
X205994000Y-88646000D01*
X216725500Y-88646000D02*
X217170000Y-88201500D01*
X201930000Y-88630000D02*
X201406000Y-88630000D01*
X201930000Y-98790000D02*
X201533000Y-98790000D01*
X201533000Y-98790000D02*
X200914000Y-98171000D01*
X200914000Y-98171000D02*
X200914000Y-92202000D01*
X200914000Y-92202000D02*
X201930000Y-91186000D01*
X201930000Y-91186000D02*
X201930000Y-88630000D01*
X201930000Y-98790000D02*
X201930000Y-100330000D01*
X203454000Y-101854000D02*
X205867000Y-101854000D01*
X201930000Y-100330000D02*
X203454000Y-101854000D01*
X215519000Y-94996000D02*
X215265000Y-94996000D01*
X215265000Y-94996000D02*
X214884000Y-95377000D01*
X216154000Y-88630000D02*
X215916000Y-88630000D01*
X216154000Y-88630000D02*
X217170000Y-88630000D01*
X216138000Y-98790000D02*
X217170000Y-98790000D01*
X215519000Y-98171000D02*
X216138000Y-98790000D01*
X215519000Y-89027000D02*
X215519000Y-94996000D01*
X215519000Y-94996000D02*
X215519000Y-98171000D01*
X215916000Y-88630000D02*
X215519000Y-89027000D01*
X225488500Y-91821000D02*
X225107500Y-91821000D01*
X225107500Y-91821000D02*
X224155000Y-92773500D01*
X226822000Y-91821000D02*
X225488500Y-91821000D01*
X204851000Y-100330000D02*
X208407000Y-100330000D01*
X212725000Y-104648000D02*
X217170000Y-104648000D01*
X208407000Y-100330000D02*
X212725000Y-104648000D01*
X216916000Y-100584000D02*
X220472000Y-100584000D01*
X220472000Y-100584000D02*
X221488000Y-99568000D01*
X221488000Y-99568000D02*
X221488000Y-98790000D01*
X214757000Y-98425000D02*
X216916000Y-100584000D01*
X221488000Y-98790000D02*
X221504000Y-98790000D01*
X221504000Y-98790000D02*
X224155000Y-96139000D01*
X224155000Y-96139000D02*
X224155000Y-92773500D01*
X203835000Y-88201500D02*
X213525100Y-88201500D01*
X223393000Y-84988400D02*
X223393000Y-88265000D01*
X222859600Y-84455000D02*
X223393000Y-84988400D01*
X217271600Y-84455000D02*
X222859600Y-84455000D01*
X213525100Y-88201500D02*
X217271600Y-84455000D01*
X224155000Y-89027000D02*
X227393500Y-89027000D01*
X227838000Y-90805000D02*
X226822000Y-91821000D01*
X227838000Y-89471500D02*
X227838000Y-90805000D01*
X227393500Y-89027000D02*
X227838000Y-89471500D01*
X219075000Y-98790000D02*
X221488000Y-98790000D01*
X203835000Y-98790000D02*
X203835000Y-99314000D01*
X203835000Y-99314000D02*
X204851000Y-100330000D01*
X224155000Y-89027000D02*
X223393000Y-88265000D01*
X223393000Y-88265000D02*
X219440000Y-88265000D01*
X219440000Y-88265000D02*
X219075000Y-88630000D01*
X214700000Y-113130000D02*
X214700000Y-111512500D01*
X217100000Y-111880500D02*
X217100000Y-113130000D01*
X215455500Y-110236000D02*
X217100000Y-111880500D01*
X214757000Y-110236000D02*
X215455500Y-110236000D01*
X214439500Y-110553500D02*
X214757000Y-110236000D01*
X214439500Y-111252000D02*
X214439500Y-110553500D01*
X214700000Y-111512500D02*
X214439500Y-111252000D01*
X216300000Y-113130000D02*
X216300000Y-112096500D01*
X216300000Y-112096500D02*
X215074500Y-110871000D01*
X201930000Y-97218500D02*
X201930000Y-96418400D01*
X203149200Y-95199200D02*
X206240400Y-95199200D01*
X201930000Y-96418400D02*
X203149200Y-95199200D01*
X217932000Y-95250000D02*
X221090000Y-95250000D01*
X217170000Y-96012000D02*
X217932000Y-95250000D01*
X217170000Y-96790000D02*
X217170000Y-96012000D01*
X219075000Y-86630000D02*
X219694000Y-86630000D01*
X219694000Y-86630000D02*
X219964000Y-86360000D01*
X219964000Y-86360000D02*
X221090000Y-86360000D01*
X201930000Y-86630000D02*
X201930000Y-86233000D01*
X201930000Y-86233000D02*
X203073000Y-85090000D01*
X203073000Y-85090000D02*
X205850000Y-85090000D01*
X226441000Y-68310000D02*
X226441000Y-68770500D01*
X226441000Y-68770500D02*
X225425000Y-69786500D01*
X225425000Y-69786500D02*
X225425000Y-71818500D01*
X224726500Y-71818500D02*
X224726500Y-69723000D01*
X225726500Y-66310000D02*
X226441000Y-66310000D01*
X225298000Y-66738500D02*
X225726500Y-66310000D01*
X225298000Y-69151500D02*
X225298000Y-66738500D01*
X224726500Y-69723000D02*
X225298000Y-69151500D01*
X224218500Y-68310000D02*
X224218500Y-69024500D01*
X224028000Y-69215000D02*
X224028000Y-71818500D01*
X224218500Y-69024500D02*
X224028000Y-69215000D01*
X223329500Y-71818500D02*
X223329500Y-69469000D01*
X223440500Y-66310000D02*
X224218500Y-66310000D01*
X222885000Y-66865500D02*
X223440500Y-66310000D01*
X222885000Y-69024500D02*
X222885000Y-66865500D01*
X223329500Y-69469000D02*
X222885000Y-69024500D01*
X207264000Y-68246500D02*
X207264000Y-68580000D01*
X207264000Y-68580000D02*
X207962500Y-69278500D01*
X207962500Y-69278500D02*
X207962500Y-71818500D01*
X223520000Y-76200000D02*
X223329500Y-76200000D01*
X223329500Y-76200000D02*
X221742000Y-74612500D01*
X217741500Y-74104500D02*
X217741500Y-71818500D01*
X218249500Y-74612500D02*
X217741500Y-74104500D01*
X221742000Y-74612500D02*
X218249500Y-74612500D01*
X216344500Y-71818500D02*
X216344500Y-74739500D01*
X219646500Y-77533500D02*
X220980000Y-76200000D01*
X218059000Y-77533500D02*
X219646500Y-77533500D01*
X217106500Y-76581000D02*
X218059000Y-77533500D01*
X217106500Y-75501500D02*
X217106500Y-76581000D01*
X216344500Y-74739500D02*
X217106500Y-75501500D01*
X217043000Y-71818500D02*
X217043000Y-74803000D01*
X217043000Y-74803000D02*
X218440000Y-76200000D01*
X213550500Y-71818500D02*
X213550500Y-74168000D01*
X214630000Y-77470000D02*
X215900000Y-76200000D01*
X212788500Y-77470000D02*
X214630000Y-77470000D01*
X212090000Y-76771500D02*
X212788500Y-77470000D01*
X212090000Y-75628500D02*
X212090000Y-76771500D01*
X213550500Y-74168000D02*
X212090000Y-75628500D01*
X215900000Y-76200000D02*
X216027000Y-76200000D01*
X213360000Y-76200000D02*
X213360000Y-75120500D01*
X214249000Y-74231500D02*
X214249000Y-71818500D01*
X213360000Y-75120500D02*
X214249000Y-74231500D01*
X213360000Y-76200000D02*
X213677500Y-76200000D01*
X209550000Y-68133000D02*
X209550000Y-68643500D01*
X208661000Y-69532500D02*
X208661000Y-71818500D01*
X209550000Y-68643500D02*
X208661000Y-69532500D01*
X217170000Y-86630000D02*
X217170000Y-86106000D01*
X217170000Y-86106000D02*
X218186000Y-85090000D01*
X218186000Y-85090000D02*
X221090000Y-85090000D01*
X203835000Y-96790000D02*
X204454000Y-96790000D01*
X204454000Y-96790000D02*
X204724000Y-96520000D01*
X204724000Y-96520000D02*
X205850000Y-96520000D01*
X219075000Y-96790000D02*
X219694000Y-96790000D01*
X219694000Y-96790000D02*
X219964000Y-96520000D01*
X219964000Y-96520000D02*
X221090000Y-96520000D01*
X203835000Y-86630000D02*
X205580000Y-86630000D01*
X205580000Y-86630000D02*
X205850000Y-86360000D01*
D25*
G36*
X231273000Y-68203338D02*
X231273000Y-117781684D01*
X221509992Y-122053000D01*
X210290008Y-122053000D01*
X205156294Y-119807000D01*
X210375000Y-119807000D01*
X210375000Y-120107000D01*
X210502385Y-120493410D01*
X210767947Y-120801658D01*
X211123877Y-120974666D01*
X211283000Y-120846998D01*
X211283000Y-119807000D01*
X211537000Y-119807000D01*
X211537000Y-120846998D01*
X211696123Y-120974666D01*
X212052053Y-120801658D01*
X212317615Y-120493410D01*
X212445000Y-120107000D01*
X212445000Y-119807000D01*
X219355000Y-119807000D01*
X219355000Y-120107000D01*
X219482385Y-120493410D01*
X219747947Y-120801658D01*
X220103877Y-120974666D01*
X220263000Y-120846998D01*
X220263000Y-119807000D01*
X220517000Y-119807000D01*
X220517000Y-120846998D01*
X220676123Y-120974666D01*
X221032053Y-120801658D01*
X221297615Y-120493410D01*
X221425000Y-120107000D01*
X221425000Y-119807000D01*
X220517000Y-119807000D01*
X220263000Y-119807000D01*
X219355000Y-119807000D01*
X212445000Y-119807000D01*
X211537000Y-119807000D01*
X211283000Y-119807000D01*
X210375000Y-119807000D01*
X205156294Y-119807000D01*
X203890009Y-119253000D01*
X210375000Y-119253000D01*
X210375000Y-119553000D01*
X211283000Y-119553000D01*
X211283000Y-118513002D01*
X211537000Y-118513002D01*
X211537000Y-119553000D01*
X212445000Y-119553000D01*
X212445000Y-119253000D01*
X219355000Y-119253000D01*
X219355000Y-119553000D01*
X220263000Y-119553000D01*
X220263000Y-118513002D01*
X220517000Y-118513002D01*
X220517000Y-119553000D01*
X221425000Y-119553000D01*
X221425000Y-119253000D01*
X221297615Y-118866590D01*
X221032053Y-118558342D01*
X220676123Y-118385334D01*
X220517000Y-118513002D01*
X220263000Y-118513002D01*
X220103877Y-118385334D01*
X219747947Y-118558342D01*
X219482385Y-118866590D01*
X219355000Y-119253000D01*
X212445000Y-119253000D01*
X212317615Y-118866590D01*
X212052053Y-118558342D01*
X211696123Y-118385334D01*
X211537000Y-118513002D01*
X211283000Y-118513002D01*
X211123877Y-118385334D01*
X210767947Y-118558342D01*
X210502385Y-118866590D01*
X210375000Y-119253000D01*
X203890009Y-119253000D01*
X200527000Y-117781684D01*
X200527000Y-113857000D01*
X210735000Y-113857000D01*
X210735000Y-114157000D01*
X210862385Y-114543410D01*
X211127947Y-114851658D01*
X211483877Y-115024666D01*
X211643000Y-114896998D01*
X211643000Y-113857000D01*
X210735000Y-113857000D01*
X200527000Y-113857000D01*
X200527000Y-113303000D01*
X210735000Y-113303000D01*
X210735000Y-113603000D01*
X211643000Y-113603000D01*
X211643000Y-113583000D01*
X211897000Y-113583000D01*
X211897000Y-113603000D01*
X211917000Y-113603000D01*
X211917000Y-113857000D01*
X211897000Y-113857000D01*
X211897000Y-114896998D01*
X212056123Y-115024666D01*
X212412053Y-114851658D01*
X212677615Y-114543410D01*
X212805000Y-114157000D01*
X212805000Y-114117194D01*
X212862113Y-114255418D01*
X213073470Y-114467143D01*
X213349762Y-114581870D01*
X213648926Y-114582131D01*
X213900278Y-114478275D01*
X214149762Y-114581870D01*
X214448926Y-114582131D01*
X214700278Y-114478275D01*
X214949762Y-114581870D01*
X215248926Y-114582131D01*
X215525418Y-114467887D01*
X215737143Y-114256530D01*
X215851870Y-113980238D01*
X215852029Y-113798211D01*
X215900278Y-113778275D01*
X215948027Y-113798102D01*
X215947869Y-113978926D01*
X216062113Y-114255418D01*
X216273470Y-114467143D01*
X216549762Y-114581870D01*
X216848926Y-114582131D01*
X217100278Y-114478275D01*
X217349762Y-114581870D01*
X217648926Y-114582131D01*
X217900278Y-114478275D01*
X218149762Y-114581870D01*
X218448926Y-114582131D01*
X218725418Y-114467887D01*
X218937143Y-114256530D01*
X218995000Y-114117196D01*
X218995000Y-114157000D01*
X219122385Y-114543410D01*
X219387947Y-114851658D01*
X219743877Y-115024666D01*
X219903000Y-114896998D01*
X219903000Y-113857000D01*
X220157000Y-113857000D01*
X220157000Y-114896998D01*
X220316123Y-115024666D01*
X220672053Y-114851658D01*
X220937615Y-114543410D01*
X221065000Y-114157000D01*
X221065000Y-113857000D01*
X220157000Y-113857000D01*
X219903000Y-113857000D01*
X219883000Y-113857000D01*
X219883000Y-113603000D01*
X219903000Y-113603000D01*
X219903000Y-113583000D01*
X220157000Y-113583000D01*
X220157000Y-113603000D01*
X221065000Y-113603000D01*
X221065000Y-113303000D01*
X220937615Y-112916590D01*
X220672053Y-112608342D01*
X220418643Y-112485166D01*
X220419671Y-112480000D01*
X220362428Y-112192222D01*
X220199415Y-111948256D01*
X219955449Y-111785243D01*
X219667671Y-111728000D01*
X219332329Y-111728000D01*
X219044551Y-111785243D01*
X218800585Y-111948256D01*
X218652165Y-112170382D01*
X218422738Y-112191283D01*
X218232279Y-112270173D01*
X218216930Y-112467325D01*
X218700000Y-112950395D01*
X218714143Y-112936253D01*
X218893748Y-113115858D01*
X218879605Y-113130000D01*
X219009282Y-113259677D01*
X218995000Y-113303000D01*
X218995000Y-113542806D01*
X218937887Y-113404582D01*
X218726530Y-113192857D01*
X218481511Y-113091116D01*
X218037325Y-112646930D01*
X217840173Y-112662279D01*
X217788706Y-112827573D01*
X217737887Y-112704582D01*
X217627000Y-112593502D01*
X217627000Y-111880500D01*
X217586885Y-111678826D01*
X217586885Y-111678825D01*
X217472645Y-111507855D01*
X215828145Y-109863355D01*
X215657175Y-109749115D01*
X215455500Y-109709000D01*
X214757000Y-109709000D01*
X214555326Y-109749115D01*
X214384355Y-109863355D01*
X214066855Y-110180855D01*
X213952615Y-110351825D01*
X213952615Y-110351826D01*
X213912500Y-110553500D01*
X213912500Y-111252000D01*
X213952615Y-111453675D01*
X214066855Y-111624645D01*
X214173000Y-111730790D01*
X214173000Y-112593518D01*
X214062857Y-112703470D01*
X214019820Y-112807115D01*
X213959827Y-112662279D01*
X213762675Y-112646930D01*
X213318119Y-113091486D01*
X213074582Y-113192113D01*
X212862857Y-113403470D01*
X212805000Y-113542804D01*
X212805000Y-113303000D01*
X212790718Y-113259677D01*
X212920395Y-113130000D01*
X212906253Y-113115858D01*
X213085858Y-112936253D01*
X213100000Y-112950395D01*
X213583070Y-112467325D01*
X213567721Y-112270173D01*
X213203076Y-112156634D01*
X212988144Y-112176214D01*
X212937887Y-112054582D01*
X212726530Y-111842857D01*
X212450238Y-111728130D01*
X212151074Y-111727869D01*
X211874582Y-111842113D01*
X211662857Y-112053470D01*
X211548130Y-112329762D01*
X211547993Y-112486776D01*
X211483877Y-112435334D01*
X211127947Y-112608342D01*
X210862385Y-112916590D01*
X210735000Y-113303000D01*
X200527000Y-113303000D01*
X200527000Y-100307290D01*
X201149000Y-100929290D01*
X201149000Y-108632827D01*
X201092763Y-108643409D01*
X200947433Y-108736927D01*
X200849936Y-108879619D01*
X200815635Y-109049000D01*
X200815635Y-109899000D01*
X200845409Y-110057237D01*
X200938927Y-110202567D01*
X201081619Y-110300064D01*
X201251000Y-110334365D01*
X202101000Y-110334365D01*
X202259237Y-110304591D01*
X202404567Y-110211073D01*
X202502064Y-110068381D01*
X202536365Y-109899000D01*
X202536365Y-109049000D01*
X202506591Y-108890763D01*
X202413073Y-108745433D01*
X202270381Y-108647936D01*
X202203000Y-108634291D01*
X202203000Y-106890000D01*
X202974635Y-106890000D01*
X202974635Y-107740000D01*
X203004409Y-107898237D01*
X203097927Y-108043567D01*
X203240619Y-108141064D01*
X203410000Y-108175365D01*
X204260000Y-108175365D01*
X204418237Y-108145591D01*
X204563567Y-108052073D01*
X204661064Y-107909381D01*
X204695365Y-107740000D01*
X204695365Y-106890000D01*
X204665591Y-106731763D01*
X204572073Y-106586433D01*
X204429381Y-106488936D01*
X204260000Y-106454635D01*
X203410000Y-106454635D01*
X203251763Y-106484409D01*
X203106433Y-106577927D01*
X203008936Y-106720619D01*
X202974635Y-106890000D01*
X202203000Y-106890000D01*
X202203000Y-101348290D01*
X203081354Y-102226645D01*
X203139168Y-102265275D01*
X203252326Y-102340885D01*
X203454000Y-102381000D01*
X205365844Y-102381000D01*
X205454650Y-102469961D01*
X205721756Y-102580874D01*
X206010975Y-102581126D01*
X206278275Y-102470680D01*
X206482961Y-102266350D01*
X206593874Y-101999244D01*
X206594126Y-101710025D01*
X206483680Y-101442725D01*
X206279350Y-101238039D01*
X206012244Y-101127126D01*
X205723025Y-101126874D01*
X205455725Y-101237320D01*
X205365889Y-101327000D01*
X203672291Y-101327000D01*
X202457000Y-100111710D01*
X202457000Y-99296865D01*
X202555000Y-99296865D01*
X202713237Y-99267091D01*
X202858567Y-99173573D01*
X202881656Y-99139781D01*
X202897927Y-99165067D01*
X203040619Y-99262564D01*
X203210000Y-99296865D01*
X203308000Y-99296865D01*
X203308000Y-99314000D01*
X203348115Y-99515675D01*
X203462355Y-99686645D01*
X204123984Y-100348274D01*
X204123874Y-100473975D01*
X204234320Y-100741275D01*
X204438650Y-100945961D01*
X204705756Y-101056874D01*
X204994975Y-101057126D01*
X205262275Y-100946680D01*
X205352111Y-100857000D01*
X208188710Y-100857000D01*
X212352355Y-105020645D01*
X212523325Y-105134885D01*
X212556785Y-105141540D01*
X212725000Y-105175000D01*
X216668844Y-105175000D01*
X216757650Y-105263961D01*
X217024756Y-105374874D01*
X217313975Y-105375126D01*
X217581275Y-105264680D01*
X217785961Y-105060350D01*
X217805648Y-105012939D01*
X218765855Y-105973146D01*
X218900903Y-106063382D01*
X218936826Y-106087385D01*
X219138500Y-106127500D01*
X221242312Y-106127500D01*
X221315578Y-106200766D01*
X221227362Y-106644259D01*
X221324567Y-107132945D01*
X221537694Y-107451912D01*
X221033850Y-106948068D01*
X220900906Y-106857232D01*
X220732014Y-106820595D01*
X220562175Y-106852552D01*
X220418150Y-106948068D01*
X220185798Y-107180420D01*
X220038675Y-107082115D01*
X219837000Y-107042000D01*
X215217173Y-107042000D01*
X215206591Y-106985763D01*
X215113073Y-106840433D01*
X214970381Y-106742936D01*
X214801000Y-106708635D01*
X213951000Y-106708635D01*
X213792763Y-106738409D01*
X213647433Y-106831927D01*
X213549936Y-106974619D01*
X213515635Y-107144000D01*
X213515635Y-107994000D01*
X213545409Y-108152237D01*
X213638927Y-108297567D01*
X213781619Y-108395064D01*
X213951000Y-108429365D01*
X214801000Y-108429365D01*
X214959237Y-108399591D01*
X215104567Y-108306073D01*
X215202064Y-108163381D01*
X215215709Y-108096000D01*
X219270218Y-108096000D01*
X219216068Y-108150150D01*
X219125232Y-108283094D01*
X219088595Y-108451986D01*
X219120552Y-108621825D01*
X219216068Y-108765850D01*
X220418150Y-109967932D01*
X220551094Y-110058768D01*
X220719986Y-110095405D01*
X220889825Y-110063448D01*
X221033850Y-109967932D01*
X221952782Y-109049000D01*
X229263635Y-109049000D01*
X229263635Y-109899000D01*
X229293409Y-110057237D01*
X229386927Y-110202567D01*
X229529619Y-110300064D01*
X229699000Y-110334365D01*
X230549000Y-110334365D01*
X230707237Y-110304591D01*
X230852567Y-110211073D01*
X230950064Y-110068381D01*
X230984365Y-109899000D01*
X230984365Y-109049000D01*
X230954591Y-108890763D01*
X230861073Y-108745433D01*
X230718381Y-108647936D01*
X230549000Y-108613635D01*
X229699000Y-108613635D01*
X229540763Y-108643409D01*
X229395433Y-108736927D01*
X229297936Y-108879619D01*
X229263635Y-109049000D01*
X221952782Y-109049000D01*
X222235932Y-108765850D01*
X222326768Y-108632906D01*
X222363405Y-108464014D01*
X222331448Y-108294175D01*
X222235932Y-108150150D01*
X221732088Y-107646306D01*
X222051055Y-107859433D01*
X222539741Y-107956639D01*
X223028428Y-107859433D01*
X223442716Y-107582614D01*
X223719535Y-107168326D01*
X223816741Y-106679639D01*
X223719535Y-106190953D01*
X223462649Y-105806496D01*
X223847106Y-106063382D01*
X224335792Y-106160588D01*
X224824479Y-106063382D01*
X225238767Y-105786563D01*
X225515586Y-105372275D01*
X225612792Y-104883588D01*
X225515586Y-104394902D01*
X225258698Y-104010442D01*
X225643158Y-104267330D01*
X226131844Y-104364536D01*
X226620531Y-104267330D01*
X227034819Y-103990511D01*
X227311638Y-103576223D01*
X227408844Y-103087536D01*
X227313213Y-102606767D01*
X227688297Y-102742131D01*
X228267097Y-102715281D01*
X228677123Y-102545432D01*
X228753893Y-102297088D01*
X227910205Y-101453400D01*
X227896063Y-101467543D01*
X227716458Y-101287938D01*
X227730600Y-101273795D01*
X226886912Y-100430107D01*
X226638568Y-100506877D01*
X226468719Y-100916903D01*
X226441869Y-101495703D01*
X226577233Y-101870787D01*
X226096464Y-101775157D01*
X225607778Y-101872362D01*
X225193489Y-102149181D01*
X224916670Y-102563470D01*
X224910001Y-102597000D01*
X219108556Y-102597000D01*
X219117767Y-102591073D01*
X219215264Y-102448381D01*
X219249565Y-102279000D01*
X219249565Y-101429000D01*
X219219791Y-101270763D01*
X219126273Y-101125433D01*
X219105150Y-101111000D01*
X220472000Y-101111000D01*
X220673675Y-101070885D01*
X220844645Y-100956645D01*
X221550788Y-100250502D01*
X227066517Y-100250502D01*
X227910205Y-101094190D01*
X227924348Y-101080048D01*
X228103953Y-101259653D01*
X228089810Y-101273795D01*
X228933498Y-102117483D01*
X229181842Y-102040713D01*
X229351691Y-101630687D01*
X229378541Y-101051887D01*
X229243177Y-100676803D01*
X229723946Y-100772434D01*
X230212633Y-100675228D01*
X230626921Y-100398409D01*
X230903740Y-99984121D01*
X231000946Y-99495434D01*
X230903740Y-99006748D01*
X230626921Y-98592459D01*
X230591541Y-98557079D01*
X230177252Y-98280260D01*
X229688566Y-98183055D01*
X229199880Y-98280260D01*
X228785591Y-98557079D01*
X228508772Y-98971368D01*
X228411567Y-99460054D01*
X228507197Y-99940823D01*
X228132113Y-99805459D01*
X227553313Y-99832309D01*
X227143287Y-100002158D01*
X227066517Y-100250502D01*
X221550788Y-100250502D01*
X221860645Y-99940645D01*
X221974885Y-99769675D01*
X222015000Y-99568000D01*
X222015000Y-99024290D01*
X224258940Y-96780350D01*
X225064000Y-96780350D01*
X225064000Y-96920910D01*
X225160673Y-97154299D01*
X225339302Y-97332927D01*
X225572691Y-97429600D01*
X226188250Y-97429600D01*
X226347000Y-97270850D01*
X226347000Y-96621600D01*
X226601000Y-96621600D01*
X226601000Y-97270850D01*
X226759750Y-97429600D01*
X227375309Y-97429600D01*
X227608698Y-97332927D01*
X227787327Y-97154299D01*
X227884000Y-96920910D01*
X227884000Y-96780350D01*
X227725250Y-96621600D01*
X226601000Y-96621600D01*
X226347000Y-96621600D01*
X225222750Y-96621600D01*
X225064000Y-96780350D01*
X224258940Y-96780350D01*
X224527645Y-96511645D01*
X224641885Y-96340675D01*
X224682000Y-96139000D01*
X224682000Y-92991790D01*
X225263635Y-92410156D01*
X225263635Y-92984600D01*
X225293409Y-93142837D01*
X225386927Y-93288167D01*
X225432025Y-93318981D01*
X225395433Y-93342527D01*
X225297936Y-93485219D01*
X225263635Y-93654600D01*
X225263635Y-94254600D01*
X225293409Y-94412837D01*
X225386927Y-94558167D01*
X225432025Y-94588981D01*
X225395433Y-94612527D01*
X225297936Y-94755219D01*
X225263635Y-94924600D01*
X225263635Y-95524600D01*
X225293409Y-95682837D01*
X225300977Y-95694598D01*
X225160673Y-95834901D01*
X225064000Y-96068290D01*
X225064000Y-96208850D01*
X225222750Y-96367600D01*
X226347000Y-96367600D01*
X226347000Y-96347600D01*
X226601000Y-96347600D01*
X226601000Y-96367600D01*
X227725250Y-96367600D01*
X227884000Y-96208850D01*
X227884000Y-96068290D01*
X227787327Y-95834901D01*
X227648579Y-95696154D01*
X227650064Y-95693981D01*
X227684365Y-95524600D01*
X227684365Y-94924600D01*
X227654591Y-94766363D01*
X227561073Y-94621033D01*
X227515975Y-94590219D01*
X227552567Y-94566673D01*
X227650064Y-94423981D01*
X227684365Y-94254600D01*
X227684365Y-93654600D01*
X227654591Y-93496363D01*
X227561073Y-93351033D01*
X227515975Y-93320219D01*
X227552567Y-93296673D01*
X227650064Y-93153981D01*
X227684365Y-92984600D01*
X227684365Y-92384600D01*
X227654591Y-92226363D01*
X227561073Y-92081033D01*
X227418381Y-91983536D01*
X227407049Y-91981241D01*
X228032509Y-91355781D01*
X228211691Y-91430000D01*
X228552250Y-91430000D01*
X228711000Y-91271250D01*
X228711000Y-90297000D01*
X228965000Y-90297000D01*
X228965000Y-91271250D01*
X229123750Y-91430000D01*
X229464309Y-91430000D01*
X229697698Y-91333327D01*
X229876327Y-91154699D01*
X229973000Y-90921310D01*
X229973000Y-90455750D01*
X229814250Y-90297000D01*
X228965000Y-90297000D01*
X228711000Y-90297000D01*
X228691000Y-90297000D01*
X228691000Y-90043000D01*
X228711000Y-90043000D01*
X228711000Y-89068750D01*
X228965000Y-89068750D01*
X228965000Y-90043000D01*
X229814250Y-90043000D01*
X229973000Y-89884250D01*
X229973000Y-89418690D01*
X229876327Y-89185301D01*
X229697698Y-89006673D01*
X229464309Y-88910000D01*
X229123750Y-88910000D01*
X228965000Y-89068750D01*
X228711000Y-89068750D01*
X228552250Y-88910000D01*
X228211691Y-88910000D01*
X228077411Y-88965621D01*
X227766145Y-88654355D01*
X227595175Y-88540115D01*
X227393500Y-88500000D01*
X224373290Y-88500000D01*
X223920000Y-88046710D01*
X223920000Y-86594950D01*
X225546600Y-86594950D01*
X225546600Y-86735510D01*
X225643273Y-86968899D01*
X225821902Y-87147527D01*
X226055291Y-87244200D01*
X226670850Y-87244200D01*
X226829600Y-87085450D01*
X226829600Y-86436200D01*
X227083600Y-86436200D01*
X227083600Y-87085450D01*
X227242350Y-87244200D01*
X227857909Y-87244200D01*
X228091298Y-87147527D01*
X228269927Y-86968899D01*
X228366600Y-86735510D01*
X228366600Y-86594950D01*
X228207850Y-86436200D01*
X227083600Y-86436200D01*
X226829600Y-86436200D01*
X225705350Y-86436200D01*
X225546600Y-86594950D01*
X223920000Y-86594950D01*
X223920000Y-85882890D01*
X225546600Y-85882890D01*
X225546600Y-86023450D01*
X225705350Y-86182200D01*
X226829600Y-86182200D01*
X226829600Y-86162200D01*
X227083600Y-86162200D01*
X227083600Y-86182200D01*
X228207850Y-86182200D01*
X228366600Y-86023450D01*
X228366600Y-85882890D01*
X228269927Y-85649501D01*
X228131179Y-85510754D01*
X228132664Y-85508581D01*
X228166965Y-85339200D01*
X228166965Y-84739200D01*
X228137191Y-84580963D01*
X228043673Y-84435633D01*
X227998575Y-84404819D01*
X228035167Y-84381273D01*
X228132664Y-84238581D01*
X228166965Y-84069200D01*
X228166965Y-83469200D01*
X228137191Y-83310963D01*
X228043673Y-83165633D01*
X227998575Y-83134819D01*
X228035167Y-83111273D01*
X228132664Y-82968581D01*
X228166965Y-82799200D01*
X228166965Y-82199200D01*
X228137191Y-82040963D01*
X228043673Y-81895633D01*
X227900981Y-81798136D01*
X227731600Y-81763835D01*
X226181600Y-81763835D01*
X226023363Y-81793609D01*
X225878033Y-81887127D01*
X225780536Y-82029819D01*
X225746235Y-82199200D01*
X225746235Y-82799200D01*
X225776009Y-82957437D01*
X225869527Y-83102767D01*
X225914625Y-83133581D01*
X225878033Y-83157127D01*
X225780536Y-83299819D01*
X225746235Y-83469200D01*
X225746235Y-84069200D01*
X225776009Y-84227437D01*
X225869527Y-84372767D01*
X225914625Y-84403581D01*
X225878033Y-84427127D01*
X225780536Y-84569819D01*
X225746235Y-84739200D01*
X225746235Y-85339200D01*
X225776009Y-85497437D01*
X225783577Y-85509198D01*
X225643273Y-85649501D01*
X225546600Y-85882890D01*
X223920000Y-85882890D01*
X223920000Y-84988400D01*
X223879885Y-84786726D01*
X223848129Y-84739200D01*
X223765646Y-84615755D01*
X223232245Y-84082355D01*
X223061275Y-83968115D01*
X222859600Y-83928000D01*
X222766965Y-83928000D01*
X222766965Y-83469200D01*
X222737191Y-83310963D01*
X222643673Y-83165633D01*
X222598575Y-83134819D01*
X222635167Y-83111273D01*
X222732664Y-82968581D01*
X222766965Y-82799200D01*
X222766965Y-82199200D01*
X222737191Y-82040963D01*
X222643673Y-81895633D01*
X222500981Y-81798136D01*
X222331600Y-81763835D01*
X221142000Y-81763835D01*
X221142000Y-81065285D01*
X221273237Y-81040591D01*
X221418567Y-80947073D01*
X221504719Y-80820986D01*
X221576673Y-80994699D01*
X221755302Y-81173327D01*
X221988691Y-81270000D01*
X222329250Y-81270000D01*
X222488000Y-81111250D01*
X222488000Y-80137000D01*
X222742000Y-80137000D01*
X222742000Y-81111250D01*
X222900750Y-81270000D01*
X223241309Y-81270000D01*
X223474698Y-81173327D01*
X223653327Y-80994699D01*
X223750000Y-80761310D01*
X223750000Y-80295750D01*
X223591250Y-80137000D01*
X222742000Y-80137000D01*
X222488000Y-80137000D01*
X222468000Y-80137000D01*
X222468000Y-79883000D01*
X222488000Y-79883000D01*
X222488000Y-79863000D01*
X222742000Y-79863000D01*
X222742000Y-79883000D01*
X223591250Y-79883000D01*
X223750000Y-79724250D01*
X223750000Y-79584500D01*
X224536000Y-79584500D01*
X224737675Y-79544385D01*
X224908645Y-79430145D01*
X226432645Y-77906146D01*
X226546884Y-77735175D01*
X226546885Y-77735174D01*
X226587000Y-77533500D01*
X226587000Y-75402290D01*
X227194645Y-74794645D01*
X227308885Y-74623674D01*
X227349000Y-74422000D01*
X227349000Y-70322290D01*
X228147145Y-69524146D01*
X228232004Y-69397145D01*
X228261385Y-69353174D01*
X228301500Y-69151500D01*
X228301500Y-66080838D01*
X231273000Y-68203338D01*
X231273000Y-68203338D01*
G37*
X231273000Y-68203338D02*
X231273000Y-117781684D01*
X221509992Y-122053000D01*
X210290008Y-122053000D01*
X205156294Y-119807000D01*
X210375000Y-119807000D01*
X210375000Y-120107000D01*
X210502385Y-120493410D01*
X210767947Y-120801658D01*
X211123877Y-120974666D01*
X211283000Y-120846998D01*
X211283000Y-119807000D01*
X211537000Y-119807000D01*
X211537000Y-120846998D01*
X211696123Y-120974666D01*
X212052053Y-120801658D01*
X212317615Y-120493410D01*
X212445000Y-120107000D01*
X212445000Y-119807000D01*
X219355000Y-119807000D01*
X219355000Y-120107000D01*
X219482385Y-120493410D01*
X219747947Y-120801658D01*
X220103877Y-120974666D01*
X220263000Y-120846998D01*
X220263000Y-119807000D01*
X220517000Y-119807000D01*
X220517000Y-120846998D01*
X220676123Y-120974666D01*
X221032053Y-120801658D01*
X221297615Y-120493410D01*
X221425000Y-120107000D01*
X221425000Y-119807000D01*
X220517000Y-119807000D01*
X220263000Y-119807000D01*
X219355000Y-119807000D01*
X212445000Y-119807000D01*
X211537000Y-119807000D01*
X211283000Y-119807000D01*
X210375000Y-119807000D01*
X205156294Y-119807000D01*
X203890009Y-119253000D01*
X210375000Y-119253000D01*
X210375000Y-119553000D01*
X211283000Y-119553000D01*
X211283000Y-118513002D01*
X211537000Y-118513002D01*
X211537000Y-119553000D01*
X212445000Y-119553000D01*
X212445000Y-119253000D01*
X219355000Y-119253000D01*
X219355000Y-119553000D01*
X220263000Y-119553000D01*
X220263000Y-118513002D01*
X220517000Y-118513002D01*
X220517000Y-119553000D01*
X221425000Y-119553000D01*
X221425000Y-119253000D01*
X221297615Y-118866590D01*
X221032053Y-118558342D01*
X220676123Y-118385334D01*
X220517000Y-118513002D01*
X220263000Y-118513002D01*
X220103877Y-118385334D01*
X219747947Y-118558342D01*
X219482385Y-118866590D01*
X219355000Y-119253000D01*
X212445000Y-119253000D01*
X212317615Y-118866590D01*
X212052053Y-118558342D01*
X211696123Y-118385334D01*
X211537000Y-118513002D01*
X211283000Y-118513002D01*
X211123877Y-118385334D01*
X210767947Y-118558342D01*
X210502385Y-118866590D01*
X210375000Y-119253000D01*
X203890009Y-119253000D01*
X200527000Y-117781684D01*
X200527000Y-113857000D01*
X210735000Y-113857000D01*
X210735000Y-114157000D01*
X210862385Y-114543410D01*
X211127947Y-114851658D01*
X211483877Y-115024666D01*
X211643000Y-114896998D01*
X211643000Y-113857000D01*
X210735000Y-113857000D01*
X200527000Y-113857000D01*
X200527000Y-113303000D01*
X210735000Y-113303000D01*
X210735000Y-113603000D01*
X211643000Y-113603000D01*
X211643000Y-113583000D01*
X211897000Y-113583000D01*
X211897000Y-113603000D01*
X211917000Y-113603000D01*
X211917000Y-113857000D01*
X211897000Y-113857000D01*
X211897000Y-114896998D01*
X212056123Y-115024666D01*
X212412053Y-114851658D01*
X212677615Y-114543410D01*
X212805000Y-114157000D01*
X212805000Y-114117194D01*
X212862113Y-114255418D01*
X213073470Y-114467143D01*
X213349762Y-114581870D01*
X213648926Y-114582131D01*
X213900278Y-114478275D01*
X214149762Y-114581870D01*
X214448926Y-114582131D01*
X214700278Y-114478275D01*
X214949762Y-114581870D01*
X215248926Y-114582131D01*
X215525418Y-114467887D01*
X215737143Y-114256530D01*
X215851870Y-113980238D01*
X215852029Y-113798211D01*
X215900278Y-113778275D01*
X215948027Y-113798102D01*
X215947869Y-113978926D01*
X216062113Y-114255418D01*
X216273470Y-114467143D01*
X216549762Y-114581870D01*
X216848926Y-114582131D01*
X217100278Y-114478275D01*
X217349762Y-114581870D01*
X217648926Y-114582131D01*
X217900278Y-114478275D01*
X218149762Y-114581870D01*
X218448926Y-114582131D01*
X218725418Y-114467887D01*
X218937143Y-114256530D01*
X218995000Y-114117196D01*
X218995000Y-114157000D01*
X219122385Y-114543410D01*
X219387947Y-114851658D01*
X219743877Y-115024666D01*
X219903000Y-114896998D01*
X219903000Y-113857000D01*
X220157000Y-113857000D01*
X220157000Y-114896998D01*
X220316123Y-115024666D01*
X220672053Y-114851658D01*
X220937615Y-114543410D01*
X221065000Y-114157000D01*
X221065000Y-113857000D01*
X220157000Y-113857000D01*
X219903000Y-113857000D01*
X219883000Y-113857000D01*
X219883000Y-113603000D01*
X219903000Y-113603000D01*
X219903000Y-113583000D01*
X220157000Y-113583000D01*
X220157000Y-113603000D01*
X221065000Y-113603000D01*
X221065000Y-113303000D01*
X220937615Y-112916590D01*
X220672053Y-112608342D01*
X220418643Y-112485166D01*
X220419671Y-112480000D01*
X220362428Y-112192222D01*
X220199415Y-111948256D01*
X219955449Y-111785243D01*
X219667671Y-111728000D01*
X219332329Y-111728000D01*
X219044551Y-111785243D01*
X218800585Y-111948256D01*
X218652165Y-112170382D01*
X218422738Y-112191283D01*
X218232279Y-112270173D01*
X218216930Y-112467325D01*
X218700000Y-112950395D01*
X218714143Y-112936253D01*
X218893748Y-113115858D01*
X218879605Y-113130000D01*
X219009282Y-113259677D01*
X218995000Y-113303000D01*
X218995000Y-113542806D01*
X218937887Y-113404582D01*
X218726530Y-113192857D01*
X218481511Y-113091116D01*
X218037325Y-112646930D01*
X217840173Y-112662279D01*
X217788706Y-112827573D01*
X217737887Y-112704582D01*
X217627000Y-112593502D01*
X217627000Y-111880500D01*
X217586885Y-111678826D01*
X217586885Y-111678825D01*
X217472645Y-111507855D01*
X215828145Y-109863355D01*
X215657175Y-109749115D01*
X215455500Y-109709000D01*
X214757000Y-109709000D01*
X214555326Y-109749115D01*
X214384355Y-109863355D01*
X214066855Y-110180855D01*
X213952615Y-110351825D01*
X213952615Y-110351826D01*
X213912500Y-110553500D01*
X213912500Y-111252000D01*
X213952615Y-111453675D01*
X214066855Y-111624645D01*
X214173000Y-111730790D01*
X214173000Y-112593518D01*
X214062857Y-112703470D01*
X214019820Y-112807115D01*
X213959827Y-112662279D01*
X213762675Y-112646930D01*
X213318119Y-113091486D01*
X213074582Y-113192113D01*
X212862857Y-113403470D01*
X212805000Y-113542804D01*
X212805000Y-113303000D01*
X212790718Y-113259677D01*
X212920395Y-113130000D01*
X212906253Y-113115858D01*
X213085858Y-112936253D01*
X213100000Y-112950395D01*
X213583070Y-112467325D01*
X213567721Y-112270173D01*
X213203076Y-112156634D01*
X212988144Y-112176214D01*
X212937887Y-112054582D01*
X212726530Y-111842857D01*
X212450238Y-111728130D01*
X212151074Y-111727869D01*
X211874582Y-111842113D01*
X211662857Y-112053470D01*
X211548130Y-112329762D01*
X211547993Y-112486776D01*
X211483877Y-112435334D01*
X211127947Y-112608342D01*
X210862385Y-112916590D01*
X210735000Y-113303000D01*
X200527000Y-113303000D01*
X200527000Y-100307290D01*
X201149000Y-100929290D01*
X201149000Y-108632827D01*
X201092763Y-108643409D01*
X200947433Y-108736927D01*
X200849936Y-108879619D01*
X200815635Y-109049000D01*
X200815635Y-109899000D01*
X200845409Y-110057237D01*
X200938927Y-110202567D01*
X201081619Y-110300064D01*
X201251000Y-110334365D01*
X202101000Y-110334365D01*
X202259237Y-110304591D01*
X202404567Y-110211073D01*
X202502064Y-110068381D01*
X202536365Y-109899000D01*
X202536365Y-109049000D01*
X202506591Y-108890763D01*
X202413073Y-108745433D01*
X202270381Y-108647936D01*
X202203000Y-108634291D01*
X202203000Y-106890000D01*
X202974635Y-106890000D01*
X202974635Y-107740000D01*
X203004409Y-107898237D01*
X203097927Y-108043567D01*
X203240619Y-108141064D01*
X203410000Y-108175365D01*
X204260000Y-108175365D01*
X204418237Y-108145591D01*
X204563567Y-108052073D01*
X204661064Y-107909381D01*
X204695365Y-107740000D01*
X204695365Y-106890000D01*
X204665591Y-106731763D01*
X204572073Y-106586433D01*
X204429381Y-106488936D01*
X204260000Y-106454635D01*
X203410000Y-106454635D01*
X203251763Y-106484409D01*
X203106433Y-106577927D01*
X203008936Y-106720619D01*
X202974635Y-106890000D01*
X202203000Y-106890000D01*
X202203000Y-101348290D01*
X203081354Y-102226645D01*
X203139168Y-102265275D01*
X203252326Y-102340885D01*
X203454000Y-102381000D01*
X205365844Y-102381000D01*
X205454650Y-102469961D01*
X205721756Y-102580874D01*
X206010975Y-102581126D01*
X206278275Y-102470680D01*
X206482961Y-102266350D01*
X206593874Y-101999244D01*
X206594126Y-101710025D01*
X206483680Y-101442725D01*
X206279350Y-101238039D01*
X206012244Y-101127126D01*
X205723025Y-101126874D01*
X205455725Y-101237320D01*
X205365889Y-101327000D01*
X203672291Y-101327000D01*
X202457000Y-100111710D01*
X202457000Y-99296865D01*
X202555000Y-99296865D01*
X202713237Y-99267091D01*
X202858567Y-99173573D01*
X202881656Y-99139781D01*
X202897927Y-99165067D01*
X203040619Y-99262564D01*
X203210000Y-99296865D01*
X203308000Y-99296865D01*
X203308000Y-99314000D01*
X203348115Y-99515675D01*
X203462355Y-99686645D01*
X204123984Y-100348274D01*
X204123874Y-100473975D01*
X204234320Y-100741275D01*
X204438650Y-100945961D01*
X204705756Y-101056874D01*
X204994975Y-101057126D01*
X205262275Y-100946680D01*
X205352111Y-100857000D01*
X208188710Y-100857000D01*
X212352355Y-105020645D01*
X212523325Y-105134885D01*
X212556785Y-105141540D01*
X212725000Y-105175000D01*
X216668844Y-105175000D01*
X216757650Y-105263961D01*
X217024756Y-105374874D01*
X217313975Y-105375126D01*
X217581275Y-105264680D01*
X217785961Y-105060350D01*
X217805648Y-105012939D01*
X218765855Y-105973146D01*
X218900903Y-106063382D01*
X218936826Y-106087385D01*
X219138500Y-106127500D01*
X221242312Y-106127500D01*
X221315578Y-106200766D01*
X221227362Y-106644259D01*
X221324567Y-107132945D01*
X221537694Y-107451912D01*
X221033850Y-106948068D01*
X220900906Y-106857232D01*
X220732014Y-106820595D01*
X220562175Y-106852552D01*
X220418150Y-106948068D01*
X220185798Y-107180420D01*
X220038675Y-107082115D01*
X219837000Y-107042000D01*
X215217173Y-107042000D01*
X215206591Y-106985763D01*
X215113073Y-106840433D01*
X214970381Y-106742936D01*
X214801000Y-106708635D01*
X213951000Y-106708635D01*
X213792763Y-106738409D01*
X213647433Y-106831927D01*
X213549936Y-106974619D01*
X213515635Y-107144000D01*
X213515635Y-107994000D01*
X213545409Y-108152237D01*
X213638927Y-108297567D01*
X213781619Y-108395064D01*
X213951000Y-108429365D01*
X214801000Y-108429365D01*
X214959237Y-108399591D01*
X215104567Y-108306073D01*
X215202064Y-108163381D01*
X215215709Y-108096000D01*
X219270218Y-108096000D01*
X219216068Y-108150150D01*
X219125232Y-108283094D01*
X219088595Y-108451986D01*
X219120552Y-108621825D01*
X219216068Y-108765850D01*
X220418150Y-109967932D01*
X220551094Y-110058768D01*
X220719986Y-110095405D01*
X220889825Y-110063448D01*
X221033850Y-109967932D01*
X221952782Y-109049000D01*
X229263635Y-109049000D01*
X229263635Y-109899000D01*
X229293409Y-110057237D01*
X229386927Y-110202567D01*
X229529619Y-110300064D01*
X229699000Y-110334365D01*
X230549000Y-110334365D01*
X230707237Y-110304591D01*
X230852567Y-110211073D01*
X230950064Y-110068381D01*
X230984365Y-109899000D01*
X230984365Y-109049000D01*
X230954591Y-108890763D01*
X230861073Y-108745433D01*
X230718381Y-108647936D01*
X230549000Y-108613635D01*
X229699000Y-108613635D01*
X229540763Y-108643409D01*
X229395433Y-108736927D01*
X229297936Y-108879619D01*
X229263635Y-109049000D01*
X221952782Y-109049000D01*
X222235932Y-108765850D01*
X222326768Y-108632906D01*
X222363405Y-108464014D01*
X222331448Y-108294175D01*
X222235932Y-108150150D01*
X221732088Y-107646306D01*
X222051055Y-107859433D01*
X222539741Y-107956639D01*
X223028428Y-107859433D01*
X223442716Y-107582614D01*
X223719535Y-107168326D01*
X223816741Y-106679639D01*
X223719535Y-106190953D01*
X223462649Y-105806496D01*
X223847106Y-106063382D01*
X224335792Y-106160588D01*
X224824479Y-106063382D01*
X225238767Y-105786563D01*
X225515586Y-105372275D01*
X225612792Y-104883588D01*
X225515586Y-104394902D01*
X225258698Y-104010442D01*
X225643158Y-104267330D01*
X226131844Y-104364536D01*
X226620531Y-104267330D01*
X227034819Y-103990511D01*
X227311638Y-103576223D01*
X227408844Y-103087536D01*
X227313213Y-102606767D01*
X227688297Y-102742131D01*
X228267097Y-102715281D01*
X228677123Y-102545432D01*
X228753893Y-102297088D01*
X227910205Y-101453400D01*
X227896063Y-101467543D01*
X227716458Y-101287938D01*
X227730600Y-101273795D01*
X226886912Y-100430107D01*
X226638568Y-100506877D01*
X226468719Y-100916903D01*
X226441869Y-101495703D01*
X226577233Y-101870787D01*
X226096464Y-101775157D01*
X225607778Y-101872362D01*
X225193489Y-102149181D01*
X224916670Y-102563470D01*
X224910001Y-102597000D01*
X219108556Y-102597000D01*
X219117767Y-102591073D01*
X219215264Y-102448381D01*
X219249565Y-102279000D01*
X219249565Y-101429000D01*
X219219791Y-101270763D01*
X219126273Y-101125433D01*
X219105150Y-101111000D01*
X220472000Y-101111000D01*
X220673675Y-101070885D01*
X220844645Y-100956645D01*
X221550788Y-100250502D01*
X227066517Y-100250502D01*
X227910205Y-101094190D01*
X227924348Y-101080048D01*
X228103953Y-101259653D01*
X228089810Y-101273795D01*
X228933498Y-102117483D01*
X229181842Y-102040713D01*
X229351691Y-101630687D01*
X229378541Y-101051887D01*
X229243177Y-100676803D01*
X229723946Y-100772434D01*
X230212633Y-100675228D01*
X230626921Y-100398409D01*
X230903740Y-99984121D01*
X231000946Y-99495434D01*
X230903740Y-99006748D01*
X230626921Y-98592459D01*
X230591541Y-98557079D01*
X230177252Y-98280260D01*
X229688566Y-98183055D01*
X229199880Y-98280260D01*
X228785591Y-98557079D01*
X228508772Y-98971368D01*
X228411567Y-99460054D01*
X228507197Y-99940823D01*
X228132113Y-99805459D01*
X227553313Y-99832309D01*
X227143287Y-100002158D01*
X227066517Y-100250502D01*
X221550788Y-100250502D01*
X221860645Y-99940645D01*
X221974885Y-99769675D01*
X222015000Y-99568000D01*
X222015000Y-99024290D01*
X224258940Y-96780350D01*
X225064000Y-96780350D01*
X225064000Y-96920910D01*
X225160673Y-97154299D01*
X225339302Y-97332927D01*
X225572691Y-97429600D01*
X226188250Y-97429600D01*
X226347000Y-97270850D01*
X226347000Y-96621600D01*
X226601000Y-96621600D01*
X226601000Y-97270850D01*
X226759750Y-97429600D01*
X227375309Y-97429600D01*
X227608698Y-97332927D01*
X227787327Y-97154299D01*
X227884000Y-96920910D01*
X227884000Y-96780350D01*
X227725250Y-96621600D01*
X226601000Y-96621600D01*
X226347000Y-96621600D01*
X225222750Y-96621600D01*
X225064000Y-96780350D01*
X224258940Y-96780350D01*
X224527645Y-96511645D01*
X224641885Y-96340675D01*
X224682000Y-96139000D01*
X224682000Y-92991790D01*
X225263635Y-92410156D01*
X225263635Y-92984600D01*
X225293409Y-93142837D01*
X225386927Y-93288167D01*
X225432025Y-93318981D01*
X225395433Y-93342527D01*
X225297936Y-93485219D01*
X225263635Y-93654600D01*
X225263635Y-94254600D01*
X225293409Y-94412837D01*
X225386927Y-94558167D01*
X225432025Y-94588981D01*
X225395433Y-94612527D01*
X225297936Y-94755219D01*
X225263635Y-94924600D01*
X225263635Y-95524600D01*
X225293409Y-95682837D01*
X225300977Y-95694598D01*
X225160673Y-95834901D01*
X225064000Y-96068290D01*
X225064000Y-96208850D01*
X225222750Y-96367600D01*
X226347000Y-96367600D01*
X226347000Y-96347600D01*
X226601000Y-96347600D01*
X226601000Y-96367600D01*
X227725250Y-96367600D01*
X227884000Y-96208850D01*
X227884000Y-96068290D01*
X227787327Y-95834901D01*
X227648579Y-95696154D01*
X227650064Y-95693981D01*
X227684365Y-95524600D01*
X227684365Y-94924600D01*
X227654591Y-94766363D01*
X227561073Y-94621033D01*
X227515975Y-94590219D01*
X227552567Y-94566673D01*
X227650064Y-94423981D01*
X227684365Y-94254600D01*
X227684365Y-93654600D01*
X227654591Y-93496363D01*
X227561073Y-93351033D01*
X227515975Y-93320219D01*
X227552567Y-93296673D01*
X227650064Y-93153981D01*
X227684365Y-92984600D01*
X227684365Y-92384600D01*
X227654591Y-92226363D01*
X227561073Y-92081033D01*
X227418381Y-91983536D01*
X227407049Y-91981241D01*
X228032509Y-91355781D01*
X228211691Y-91430000D01*
X228552250Y-91430000D01*
X228711000Y-91271250D01*
X228711000Y-90297000D01*
X228965000Y-90297000D01*
X228965000Y-91271250D01*
X229123750Y-91430000D01*
X229464309Y-91430000D01*
X229697698Y-91333327D01*
X229876327Y-91154699D01*
X229973000Y-90921310D01*
X229973000Y-90455750D01*
X229814250Y-90297000D01*
X228965000Y-90297000D01*
X228711000Y-90297000D01*
X228691000Y-90297000D01*
X228691000Y-90043000D01*
X228711000Y-90043000D01*
X228711000Y-89068750D01*
X228965000Y-89068750D01*
X228965000Y-90043000D01*
X229814250Y-90043000D01*
X229973000Y-89884250D01*
X229973000Y-89418690D01*
X229876327Y-89185301D01*
X229697698Y-89006673D01*
X229464309Y-88910000D01*
X229123750Y-88910000D01*
X228965000Y-89068750D01*
X228711000Y-89068750D01*
X228552250Y-88910000D01*
X228211691Y-88910000D01*
X228077411Y-88965621D01*
X227766145Y-88654355D01*
X227595175Y-88540115D01*
X227393500Y-88500000D01*
X224373290Y-88500000D01*
X223920000Y-88046710D01*
X223920000Y-86594950D01*
X225546600Y-86594950D01*
X225546600Y-86735510D01*
X225643273Y-86968899D01*
X225821902Y-87147527D01*
X226055291Y-87244200D01*
X226670850Y-87244200D01*
X226829600Y-87085450D01*
X226829600Y-86436200D01*
X227083600Y-86436200D01*
X227083600Y-87085450D01*
X227242350Y-87244200D01*
X227857909Y-87244200D01*
X228091298Y-87147527D01*
X228269927Y-86968899D01*
X228366600Y-86735510D01*
X228366600Y-86594950D01*
X228207850Y-86436200D01*
X227083600Y-86436200D01*
X226829600Y-86436200D01*
X225705350Y-86436200D01*
X225546600Y-86594950D01*
X223920000Y-86594950D01*
X223920000Y-85882890D01*
X225546600Y-85882890D01*
X225546600Y-86023450D01*
X225705350Y-86182200D01*
X226829600Y-86182200D01*
X226829600Y-86162200D01*
X227083600Y-86162200D01*
X227083600Y-86182200D01*
X228207850Y-86182200D01*
X228366600Y-86023450D01*
X228366600Y-85882890D01*
X228269927Y-85649501D01*
X228131179Y-85510754D01*
X228132664Y-85508581D01*
X228166965Y-85339200D01*
X228166965Y-84739200D01*
X228137191Y-84580963D01*
X228043673Y-84435633D01*
X227998575Y-84404819D01*
X228035167Y-84381273D01*
X228132664Y-84238581D01*
X228166965Y-84069200D01*
X228166965Y-83469200D01*
X228137191Y-83310963D01*
X228043673Y-83165633D01*
X227998575Y-83134819D01*
X228035167Y-83111273D01*
X228132664Y-82968581D01*
X228166965Y-82799200D01*
X228166965Y-82199200D01*
X228137191Y-82040963D01*
X228043673Y-81895633D01*
X227900981Y-81798136D01*
X227731600Y-81763835D01*
X226181600Y-81763835D01*
X226023363Y-81793609D01*
X225878033Y-81887127D01*
X225780536Y-82029819D01*
X225746235Y-82199200D01*
X225746235Y-82799200D01*
X225776009Y-82957437D01*
X225869527Y-83102767D01*
X225914625Y-83133581D01*
X225878033Y-83157127D01*
X225780536Y-83299819D01*
X225746235Y-83469200D01*
X225746235Y-84069200D01*
X225776009Y-84227437D01*
X225869527Y-84372767D01*
X225914625Y-84403581D01*
X225878033Y-84427127D01*
X225780536Y-84569819D01*
X225746235Y-84739200D01*
X225746235Y-85339200D01*
X225776009Y-85497437D01*
X225783577Y-85509198D01*
X225643273Y-85649501D01*
X225546600Y-85882890D01*
X223920000Y-85882890D01*
X223920000Y-84988400D01*
X223879885Y-84786726D01*
X223848129Y-84739200D01*
X223765646Y-84615755D01*
X223232245Y-84082355D01*
X223061275Y-83968115D01*
X222859600Y-83928000D01*
X222766965Y-83928000D01*
X222766965Y-83469200D01*
X222737191Y-83310963D01*
X222643673Y-83165633D01*
X222598575Y-83134819D01*
X222635167Y-83111273D01*
X222732664Y-82968581D01*
X222766965Y-82799200D01*
X222766965Y-82199200D01*
X222737191Y-82040963D01*
X222643673Y-81895633D01*
X222500981Y-81798136D01*
X222331600Y-81763835D01*
X221142000Y-81763835D01*
X221142000Y-81065285D01*
X221273237Y-81040591D01*
X221418567Y-80947073D01*
X221504719Y-80820986D01*
X221576673Y-80994699D01*
X221755302Y-81173327D01*
X221988691Y-81270000D01*
X222329250Y-81270000D01*
X222488000Y-81111250D01*
X222488000Y-80137000D01*
X222742000Y-80137000D01*
X222742000Y-81111250D01*
X222900750Y-81270000D01*
X223241309Y-81270000D01*
X223474698Y-81173327D01*
X223653327Y-80994699D01*
X223750000Y-80761310D01*
X223750000Y-80295750D01*
X223591250Y-80137000D01*
X222742000Y-80137000D01*
X222488000Y-80137000D01*
X222468000Y-80137000D01*
X222468000Y-79883000D01*
X222488000Y-79883000D01*
X222488000Y-79863000D01*
X222742000Y-79863000D01*
X222742000Y-79883000D01*
X223591250Y-79883000D01*
X223750000Y-79724250D01*
X223750000Y-79584500D01*
X224536000Y-79584500D01*
X224737675Y-79544385D01*
X224908645Y-79430145D01*
X226432645Y-77906146D01*
X226546884Y-77735175D01*
X226546885Y-77735174D01*
X226587000Y-77533500D01*
X226587000Y-75402290D01*
X227194645Y-74794645D01*
X227308885Y-74623674D01*
X227349000Y-74422000D01*
X227349000Y-70322290D01*
X228147145Y-69524146D01*
X228232004Y-69397145D01*
X228261385Y-69353174D01*
X228301500Y-69151500D01*
X228301500Y-66080838D01*
X231273000Y-68203338D01*
G36*
X214992000Y-94556774D02*
X214892354Y-94623355D01*
X214865726Y-94649984D01*
X214740025Y-94649874D01*
X214472725Y-94760320D01*
X214268039Y-94964650D01*
X214215879Y-95090264D01*
X214202485Y-95022926D01*
X214088245Y-94851955D01*
X213731416Y-94495126D01*
X213731526Y-94369425D01*
X213621080Y-94102125D01*
X213416750Y-93897439D01*
X213149644Y-93786526D01*
X212907535Y-93786315D01*
X213050400Y-93643450D01*
X213050400Y-93502890D01*
X212963958Y-93294200D01*
X213050400Y-93085510D01*
X213050400Y-92944950D01*
X212891650Y-92786200D01*
X211767400Y-92786200D01*
X211767400Y-93802200D01*
X211787400Y-93802200D01*
X211787400Y-94056200D01*
X211767400Y-94056200D01*
X211767400Y-94076200D01*
X211513400Y-94076200D01*
X211513400Y-94056200D01*
X210389150Y-94056200D01*
X210230400Y-94214950D01*
X210230400Y-94355510D01*
X210327073Y-94588899D01*
X210465821Y-94727646D01*
X210464336Y-94729819D01*
X210430035Y-94899200D01*
X210430035Y-95499200D01*
X210459809Y-95657437D01*
X210467377Y-95669198D01*
X210327073Y-95809501D01*
X210230400Y-96042890D01*
X210230400Y-96183450D01*
X210389150Y-96342200D01*
X211513400Y-96342200D01*
X211513400Y-96322200D01*
X211767400Y-96322200D01*
X211767400Y-96342200D01*
X212891650Y-96342200D01*
X213050400Y-96183450D01*
X213050400Y-96042890D01*
X212953727Y-95809501D01*
X212814979Y-95670754D01*
X212816464Y-95668581D01*
X212850765Y-95499200D01*
X212850765Y-95236790D01*
X212859156Y-95240274D01*
X212986095Y-95240385D01*
X213188600Y-95442890D01*
X213188600Y-97650585D01*
X212997244Y-97571126D01*
X212708025Y-97570874D01*
X212440725Y-97681320D01*
X212236039Y-97885650D01*
X212125126Y-98152756D01*
X212124905Y-98406000D01*
X211292291Y-98406000D01*
X211166016Y-98279726D01*
X211166126Y-98154025D01*
X211055680Y-97886725D01*
X210851350Y-97682039D01*
X210584244Y-97571126D01*
X210295025Y-97570874D01*
X210027725Y-97681320D01*
X209916571Y-97792281D01*
X209886500Y-97762210D01*
X209886500Y-96754950D01*
X210230400Y-96754950D01*
X210230400Y-96895510D01*
X210327073Y-97128899D01*
X210505702Y-97307527D01*
X210739091Y-97404200D01*
X211354650Y-97404200D01*
X211513400Y-97245450D01*
X211513400Y-96596200D01*
X211767400Y-96596200D01*
X211767400Y-97245450D01*
X211926150Y-97404200D01*
X212541709Y-97404200D01*
X212775098Y-97307527D01*
X212953727Y-97128899D01*
X213050400Y-96895510D01*
X213050400Y-96754950D01*
X212891650Y-96596200D01*
X211767400Y-96596200D01*
X211513400Y-96596200D01*
X210389150Y-96596200D01*
X210230400Y-96754950D01*
X209886500Y-96754950D01*
X209886500Y-94551500D01*
X209883450Y-94536165D01*
X209895874Y-94506244D01*
X209896126Y-94217025D01*
X209785680Y-93949725D01*
X209581350Y-93745039D01*
X209314244Y-93634126D01*
X209025025Y-93633874D01*
X208757725Y-93744320D01*
X208553039Y-93948650D01*
X208442126Y-94215756D01*
X208441874Y-94504975D01*
X208552320Y-94772275D01*
X208756650Y-94976961D01*
X208832500Y-95008457D01*
X208832500Y-97980500D01*
X208872615Y-98182175D01*
X208986855Y-98353145D01*
X210320355Y-99686645D01*
X210491326Y-99800885D01*
X210693000Y-99841000D01*
X212633710Y-99841000D01*
X216804936Y-104012226D01*
X216758725Y-104031320D01*
X216668889Y-104121000D01*
X212943290Y-104121000D01*
X210251290Y-101429000D01*
X211382035Y-101429000D01*
X211382035Y-102279000D01*
X211411809Y-102437237D01*
X211505327Y-102582567D01*
X211648019Y-102680064D01*
X211817400Y-102714365D01*
X212667400Y-102714365D01*
X212825637Y-102684591D01*
X212970967Y-102591073D01*
X213068464Y-102448381D01*
X213102765Y-102279000D01*
X213102765Y-101429000D01*
X213072991Y-101270763D01*
X212979473Y-101125433D01*
X212836781Y-101027936D01*
X212667400Y-100993635D01*
X211817400Y-100993635D01*
X211659163Y-101023409D01*
X211513833Y-101116927D01*
X211416336Y-101259619D01*
X211382035Y-101429000D01*
X210251290Y-101429000D01*
X208779645Y-99957355D01*
X208608675Y-99843115D01*
X208407000Y-99803000D01*
X205352156Y-99803000D01*
X205263350Y-99714039D01*
X204996244Y-99603126D01*
X204869305Y-99603015D01*
X204546819Y-99280529D01*
X204618237Y-99267091D01*
X204763567Y-99173573D01*
X204861064Y-99030881D01*
X204895365Y-98861500D01*
X204895365Y-97861500D01*
X204881417Y-97787374D01*
X204895365Y-97718500D01*
X204895365Y-97093925D01*
X204942290Y-97047000D01*
X205136746Y-97047000D01*
X205153327Y-97072767D01*
X205296019Y-97170264D01*
X205465400Y-97204565D01*
X207015400Y-97204565D01*
X207173637Y-97174791D01*
X207303604Y-97091159D01*
X207372756Y-97119874D01*
X207661975Y-97120126D01*
X207929275Y-97009680D01*
X208133961Y-96805350D01*
X208244874Y-96538244D01*
X208245126Y-96249025D01*
X208172000Y-96072046D01*
X208172000Y-93345000D01*
X208131885Y-93143326D01*
X208122033Y-93128581D01*
X208017646Y-92972355D01*
X207990241Y-92944950D01*
X210230400Y-92944950D01*
X210230400Y-93085510D01*
X210316842Y-93294200D01*
X210230400Y-93502890D01*
X210230400Y-93643450D01*
X210389150Y-93802200D01*
X211513400Y-93802200D01*
X211513400Y-92786200D01*
X210389150Y-92786200D01*
X210230400Y-92944950D01*
X207990241Y-92944950D01*
X207450765Y-92405475D01*
X207450765Y-92359200D01*
X207426999Y-92232890D01*
X210230400Y-92232890D01*
X210230400Y-92373450D01*
X210389150Y-92532200D01*
X211513400Y-92532200D01*
X211513400Y-91882950D01*
X211767400Y-91882950D01*
X211767400Y-92532200D01*
X212891650Y-92532200D01*
X213050400Y-92373450D01*
X213050400Y-92232890D01*
X212953727Y-91999501D01*
X212775098Y-91820873D01*
X212541709Y-91724200D01*
X211926150Y-91724200D01*
X211767400Y-91882950D01*
X211513400Y-91882950D01*
X211354650Y-91724200D01*
X210739091Y-91724200D01*
X210505702Y-91820873D01*
X210327073Y-91999501D01*
X210230400Y-92232890D01*
X207426999Y-92232890D01*
X207420991Y-92200963D01*
X207327473Y-92055633D01*
X207291343Y-92030947D01*
X207652645Y-91669645D01*
X207766885Y-91498674D01*
X207807000Y-91297000D01*
X207807000Y-90798565D01*
X208008600Y-90798565D01*
X208166837Y-90768791D01*
X208312167Y-90675273D01*
X208398319Y-90549186D01*
X208470273Y-90722899D01*
X208648902Y-90901527D01*
X208882291Y-90998200D01*
X209222850Y-90998200D01*
X209381600Y-90839450D01*
X209381600Y-89865200D01*
X209635600Y-89865200D01*
X209635600Y-90839450D01*
X209794350Y-90998200D01*
X210134909Y-90998200D01*
X210368298Y-90901527D01*
X210546927Y-90722899D01*
X210643600Y-90489510D01*
X210643600Y-90023950D01*
X210484850Y-89865200D01*
X209635600Y-89865200D01*
X209381600Y-89865200D01*
X209361600Y-89865200D01*
X209361600Y-89611200D01*
X209381600Y-89611200D01*
X209381600Y-89591200D01*
X209635600Y-89591200D01*
X209635600Y-89611200D01*
X210484850Y-89611200D01*
X210643600Y-89452450D01*
X210643600Y-89173000D01*
X214992000Y-89173000D01*
X214992000Y-94556774D01*
X214992000Y-94556774D01*
G37*
X214992000Y-94556774D02*
X214892354Y-94623355D01*
X214865726Y-94649984D01*
X214740025Y-94649874D01*
X214472725Y-94760320D01*
X214268039Y-94964650D01*
X214215879Y-95090264D01*
X214202485Y-95022926D01*
X214088245Y-94851955D01*
X213731416Y-94495126D01*
X213731526Y-94369425D01*
X213621080Y-94102125D01*
X213416750Y-93897439D01*
X213149644Y-93786526D01*
X212907535Y-93786315D01*
X213050400Y-93643450D01*
X213050400Y-93502890D01*
X212963958Y-93294200D01*
X213050400Y-93085510D01*
X213050400Y-92944950D01*
X212891650Y-92786200D01*
X211767400Y-92786200D01*
X211767400Y-93802200D01*
X211787400Y-93802200D01*
X211787400Y-94056200D01*
X211767400Y-94056200D01*
X211767400Y-94076200D01*
X211513400Y-94076200D01*
X211513400Y-94056200D01*
X210389150Y-94056200D01*
X210230400Y-94214950D01*
X210230400Y-94355510D01*
X210327073Y-94588899D01*
X210465821Y-94727646D01*
X210464336Y-94729819D01*
X210430035Y-94899200D01*
X210430035Y-95499200D01*
X210459809Y-95657437D01*
X210467377Y-95669198D01*
X210327073Y-95809501D01*
X210230400Y-96042890D01*
X210230400Y-96183450D01*
X210389150Y-96342200D01*
X211513400Y-96342200D01*
X211513400Y-96322200D01*
X211767400Y-96322200D01*
X211767400Y-96342200D01*
X212891650Y-96342200D01*
X213050400Y-96183450D01*
X213050400Y-96042890D01*
X212953727Y-95809501D01*
X212814979Y-95670754D01*
X212816464Y-95668581D01*
X212850765Y-95499200D01*
X212850765Y-95236790D01*
X212859156Y-95240274D01*
X212986095Y-95240385D01*
X213188600Y-95442890D01*
X213188600Y-97650585D01*
X212997244Y-97571126D01*
X212708025Y-97570874D01*
X212440725Y-97681320D01*
X212236039Y-97885650D01*
X212125126Y-98152756D01*
X212124905Y-98406000D01*
X211292291Y-98406000D01*
X211166016Y-98279726D01*
X211166126Y-98154025D01*
X211055680Y-97886725D01*
X210851350Y-97682039D01*
X210584244Y-97571126D01*
X210295025Y-97570874D01*
X210027725Y-97681320D01*
X209916571Y-97792281D01*
X209886500Y-97762210D01*
X209886500Y-96754950D01*
X210230400Y-96754950D01*
X210230400Y-96895510D01*
X210327073Y-97128899D01*
X210505702Y-97307527D01*
X210739091Y-97404200D01*
X211354650Y-97404200D01*
X211513400Y-97245450D01*
X211513400Y-96596200D01*
X211767400Y-96596200D01*
X211767400Y-97245450D01*
X211926150Y-97404200D01*
X212541709Y-97404200D01*
X212775098Y-97307527D01*
X212953727Y-97128899D01*
X213050400Y-96895510D01*
X213050400Y-96754950D01*
X212891650Y-96596200D01*
X211767400Y-96596200D01*
X211513400Y-96596200D01*
X210389150Y-96596200D01*
X210230400Y-96754950D01*
X209886500Y-96754950D01*
X209886500Y-94551500D01*
X209883450Y-94536165D01*
X209895874Y-94506244D01*
X209896126Y-94217025D01*
X209785680Y-93949725D01*
X209581350Y-93745039D01*
X209314244Y-93634126D01*
X209025025Y-93633874D01*
X208757725Y-93744320D01*
X208553039Y-93948650D01*
X208442126Y-94215756D01*
X208441874Y-94504975D01*
X208552320Y-94772275D01*
X208756650Y-94976961D01*
X208832500Y-95008457D01*
X208832500Y-97980500D01*
X208872615Y-98182175D01*
X208986855Y-98353145D01*
X210320355Y-99686645D01*
X210491326Y-99800885D01*
X210693000Y-99841000D01*
X212633710Y-99841000D01*
X216804936Y-104012226D01*
X216758725Y-104031320D01*
X216668889Y-104121000D01*
X212943290Y-104121000D01*
X210251290Y-101429000D01*
X211382035Y-101429000D01*
X211382035Y-102279000D01*
X211411809Y-102437237D01*
X211505327Y-102582567D01*
X211648019Y-102680064D01*
X211817400Y-102714365D01*
X212667400Y-102714365D01*
X212825637Y-102684591D01*
X212970967Y-102591073D01*
X213068464Y-102448381D01*
X213102765Y-102279000D01*
X213102765Y-101429000D01*
X213072991Y-101270763D01*
X212979473Y-101125433D01*
X212836781Y-101027936D01*
X212667400Y-100993635D01*
X211817400Y-100993635D01*
X211659163Y-101023409D01*
X211513833Y-101116927D01*
X211416336Y-101259619D01*
X211382035Y-101429000D01*
X210251290Y-101429000D01*
X208779645Y-99957355D01*
X208608675Y-99843115D01*
X208407000Y-99803000D01*
X205352156Y-99803000D01*
X205263350Y-99714039D01*
X204996244Y-99603126D01*
X204869305Y-99603015D01*
X204546819Y-99280529D01*
X204618237Y-99267091D01*
X204763567Y-99173573D01*
X204861064Y-99030881D01*
X204895365Y-98861500D01*
X204895365Y-97861500D01*
X204881417Y-97787374D01*
X204895365Y-97718500D01*
X204895365Y-97093925D01*
X204942290Y-97047000D01*
X205136746Y-97047000D01*
X205153327Y-97072767D01*
X205296019Y-97170264D01*
X205465400Y-97204565D01*
X207015400Y-97204565D01*
X207173637Y-97174791D01*
X207303604Y-97091159D01*
X207372756Y-97119874D01*
X207661975Y-97120126D01*
X207929275Y-97009680D01*
X208133961Y-96805350D01*
X208244874Y-96538244D01*
X208245126Y-96249025D01*
X208172000Y-96072046D01*
X208172000Y-93345000D01*
X208131885Y-93143326D01*
X208122033Y-93128581D01*
X208017646Y-92972355D01*
X207990241Y-92944950D01*
X210230400Y-92944950D01*
X210230400Y-93085510D01*
X210316842Y-93294200D01*
X210230400Y-93502890D01*
X210230400Y-93643450D01*
X210389150Y-93802200D01*
X211513400Y-93802200D01*
X211513400Y-92786200D01*
X210389150Y-92786200D01*
X210230400Y-92944950D01*
X207990241Y-92944950D01*
X207450765Y-92405475D01*
X207450765Y-92359200D01*
X207426999Y-92232890D01*
X210230400Y-92232890D01*
X210230400Y-92373450D01*
X210389150Y-92532200D01*
X211513400Y-92532200D01*
X211513400Y-91882950D01*
X211767400Y-91882950D01*
X211767400Y-92532200D01*
X212891650Y-92532200D01*
X213050400Y-92373450D01*
X213050400Y-92232890D01*
X212953727Y-91999501D01*
X212775098Y-91820873D01*
X212541709Y-91724200D01*
X211926150Y-91724200D01*
X211767400Y-91882950D01*
X211513400Y-91882950D01*
X211354650Y-91724200D01*
X210739091Y-91724200D01*
X210505702Y-91820873D01*
X210327073Y-91999501D01*
X210230400Y-92232890D01*
X207426999Y-92232890D01*
X207420991Y-92200963D01*
X207327473Y-92055633D01*
X207291343Y-92030947D01*
X207652645Y-91669645D01*
X207766885Y-91498674D01*
X207807000Y-91297000D01*
X207807000Y-90798565D01*
X208008600Y-90798565D01*
X208166837Y-90768791D01*
X208312167Y-90675273D01*
X208398319Y-90549186D01*
X208470273Y-90722899D01*
X208648902Y-90901527D01*
X208882291Y-90998200D01*
X209222850Y-90998200D01*
X209381600Y-90839450D01*
X209381600Y-89865200D01*
X209635600Y-89865200D01*
X209635600Y-90839450D01*
X209794350Y-90998200D01*
X210134909Y-90998200D01*
X210368298Y-90901527D01*
X210546927Y-90722899D01*
X210643600Y-90489510D01*
X210643600Y-90023950D01*
X210484850Y-89865200D01*
X209635600Y-89865200D01*
X209381600Y-89865200D01*
X209361600Y-89865200D01*
X209361600Y-89611200D01*
X209381600Y-89611200D01*
X209381600Y-89591200D01*
X209635600Y-89591200D01*
X209635600Y-89611200D01*
X210484850Y-89611200D01*
X210643600Y-89452450D01*
X210643600Y-89173000D01*
X214992000Y-89173000D01*
X214992000Y-94556774D01*
G36*
X206100673Y-65386802D02*
X206004000Y-65620191D01*
X206004000Y-65960750D01*
X206162750Y-66119500D01*
X207137000Y-66119500D01*
X207137000Y-66099500D01*
X207391000Y-66099500D01*
X207391000Y-66119500D01*
X208365250Y-66119500D01*
X208401250Y-66083500D01*
X208423750Y-66106000D01*
X209423000Y-66106000D01*
X209423000Y-66086000D01*
X209677000Y-66086000D01*
X209677000Y-66106000D01*
X210676250Y-66106000D01*
X210835000Y-65947250D01*
X210835000Y-65756691D01*
X210738327Y-65523302D01*
X210559699Y-65344673D01*
X210384251Y-65272000D01*
X216756474Y-65272000D01*
X216578173Y-65450302D01*
X216481500Y-65683691D01*
X216481500Y-66024250D01*
X216640250Y-66183000D01*
X217614500Y-66183000D01*
X217614500Y-66163000D01*
X217868500Y-66163000D01*
X217868500Y-66183000D01*
X219773500Y-66183000D01*
X219773500Y-66163000D01*
X220027500Y-66163000D01*
X220027500Y-66183000D01*
X221001750Y-66183000D01*
X221160500Y-66024250D01*
X221160500Y-65683691D01*
X221063827Y-65450302D01*
X220885526Y-65272000D01*
X222272710Y-65272000D01*
X221369355Y-66175355D01*
X221255115Y-66346325D01*
X221255115Y-66346326D01*
X221215000Y-66548000D01*
X221215000Y-67409210D01*
X220937640Y-67686570D01*
X220931091Y-67651763D01*
X220837573Y-67506433D01*
X220711486Y-67420281D01*
X220885199Y-67348327D01*
X221063827Y-67169698D01*
X221160500Y-66936309D01*
X221160500Y-66595750D01*
X221001750Y-66437000D01*
X220027500Y-66437000D01*
X220027500Y-66457000D01*
X219773500Y-66457000D01*
X219773500Y-66437000D01*
X217868500Y-66437000D01*
X217868500Y-66457000D01*
X217614500Y-66457000D01*
X217614500Y-66437000D01*
X216640250Y-66437000D01*
X216481500Y-66595750D01*
X216481500Y-66936309D01*
X216578173Y-67169698D01*
X216756801Y-67348327D01*
X216932390Y-67421058D01*
X216812933Y-67497927D01*
X216715436Y-67640619D01*
X216681135Y-67810000D01*
X216681135Y-68810000D01*
X216710909Y-68968237D01*
X216804427Y-69113567D01*
X216947119Y-69211064D01*
X217116500Y-69245365D01*
X217964336Y-69245365D01*
X217880302Y-69280173D01*
X217777339Y-69383135D01*
X217541500Y-69383135D01*
X217386769Y-69412249D01*
X217243000Y-69383135D01*
X216843000Y-69383135D01*
X216688269Y-69412249D01*
X216544500Y-69383135D01*
X216144500Y-69383135D01*
X215989769Y-69412249D01*
X215846000Y-69383135D01*
X215446000Y-69383135D01*
X215291269Y-69412249D01*
X215147500Y-69383135D01*
X214747500Y-69383135D01*
X214592769Y-69412249D01*
X214449000Y-69383135D01*
X214049000Y-69383135D01*
X213894269Y-69412249D01*
X213750500Y-69383135D01*
X213350500Y-69383135D01*
X213195769Y-69412249D01*
X213052000Y-69383135D01*
X212652000Y-69383135D01*
X212497269Y-69412249D01*
X212353500Y-69383135D01*
X211953500Y-69383135D01*
X211798769Y-69412249D01*
X211655000Y-69383135D01*
X211255000Y-69383135D01*
X211100269Y-69412249D01*
X210956500Y-69383135D01*
X210556500Y-69383135D01*
X210401769Y-69412249D01*
X210258000Y-69383135D01*
X209858000Y-69383135D01*
X209703269Y-69412249D01*
X209559500Y-69383135D01*
X209555655Y-69383135D01*
X209922645Y-69016145D01*
X209987980Y-68918365D01*
X210200000Y-68918365D01*
X210358237Y-68888591D01*
X210503567Y-68795073D01*
X210601064Y-68652381D01*
X210635365Y-68483000D01*
X210635365Y-67783000D01*
X210605591Y-67624763D01*
X210512073Y-67479433D01*
X210369381Y-67381936D01*
X210200000Y-67347635D01*
X208900000Y-67347635D01*
X208741763Y-67377409D01*
X208596433Y-67470927D01*
X208498936Y-67613619D01*
X208464635Y-67783000D01*
X208464635Y-68483000D01*
X208494409Y-68641237D01*
X208587927Y-68786567D01*
X208631720Y-68816490D01*
X208418142Y-69030068D01*
X208335145Y-68905855D01*
X208299344Y-68870054D01*
X208324365Y-68746500D01*
X208324365Y-67746500D01*
X208294591Y-67588263D01*
X208201073Y-67442933D01*
X208074986Y-67356781D01*
X208248699Y-67284827D01*
X208427327Y-67106198D01*
X208455985Y-67037011D01*
X208540301Y-67121327D01*
X208773690Y-67218000D01*
X209264250Y-67218000D01*
X209423000Y-67059250D01*
X209423000Y-66360000D01*
X209677000Y-66360000D01*
X209677000Y-67059250D01*
X209835750Y-67218000D01*
X210326310Y-67218000D01*
X210559699Y-67121327D01*
X210738327Y-66942698D01*
X210835000Y-66709309D01*
X210835000Y-66518750D01*
X210676250Y-66360000D01*
X209677000Y-66360000D01*
X209423000Y-66360000D01*
X208423750Y-66360000D01*
X208387750Y-66396000D01*
X208365250Y-66373500D01*
X207391000Y-66373500D01*
X207391000Y-66393500D01*
X207137000Y-66393500D01*
X207137000Y-66373500D01*
X206162750Y-66373500D01*
X206004000Y-66532250D01*
X206004000Y-66872809D01*
X206100673Y-67106198D01*
X206279301Y-67284827D01*
X206454890Y-67357558D01*
X206335433Y-67434427D01*
X206237936Y-67577119D01*
X206203635Y-67746500D01*
X206203635Y-68746500D01*
X206233409Y-68904737D01*
X206326927Y-69050067D01*
X206469619Y-69147564D01*
X206639000Y-69181865D01*
X207120575Y-69181865D01*
X207321845Y-69383135D01*
X207228161Y-69383135D01*
X207125198Y-69280173D01*
X206891809Y-69183500D01*
X206824250Y-69183500D01*
X206665500Y-69342250D01*
X206665500Y-69604071D01*
X206605327Y-69458801D01*
X206426698Y-69280173D01*
X206386965Y-69263715D01*
X206306750Y-69183500D01*
X206239191Y-69183500D01*
X206216250Y-69193002D01*
X206193309Y-69183500D01*
X206125750Y-69183500D01*
X206045535Y-69263715D01*
X206005802Y-69280173D01*
X205827173Y-69458801D01*
X205767000Y-69604071D01*
X205767000Y-69342250D01*
X205608250Y-69183500D01*
X205540691Y-69183500D01*
X205307302Y-69280173D01*
X205128673Y-69458801D01*
X205032000Y-69692190D01*
X205032000Y-71532750D01*
X205190750Y-71691500D01*
X205767000Y-71691500D01*
X205767000Y-71569250D01*
X205889250Y-71691500D01*
X206014000Y-71691500D01*
X206014000Y-71945500D01*
X205889250Y-71945500D01*
X205767000Y-72067750D01*
X205767000Y-71945500D01*
X205190750Y-71945500D01*
X205032000Y-72104250D01*
X205032000Y-73944810D01*
X205128673Y-74178199D01*
X205307302Y-74356827D01*
X205540691Y-74453500D01*
X205608250Y-74453500D01*
X205767000Y-74294750D01*
X205767000Y-74032929D01*
X205827173Y-74178199D01*
X206005802Y-74356827D01*
X206045535Y-74373285D01*
X206125750Y-74453500D01*
X206193309Y-74453500D01*
X206216250Y-74443998D01*
X206239191Y-74453500D01*
X206306750Y-74453500D01*
X206386965Y-74373285D01*
X206426698Y-74356827D01*
X206605327Y-74178199D01*
X206665500Y-74032929D01*
X206665500Y-74294750D01*
X206824250Y-74453500D01*
X206891809Y-74453500D01*
X207125198Y-74356827D01*
X207228161Y-74253865D01*
X207464000Y-74253865D01*
X207618731Y-74224751D01*
X207762500Y-74253865D01*
X208162500Y-74253865D01*
X208317231Y-74224751D01*
X208461000Y-74253865D01*
X208861000Y-74253865D01*
X209015731Y-74224751D01*
X209159500Y-74253865D01*
X209559500Y-74253865D01*
X209714231Y-74224751D01*
X209858000Y-74253865D01*
X210258000Y-74253865D01*
X210412731Y-74224751D01*
X210556500Y-74253865D01*
X210956500Y-74253865D01*
X211111231Y-74224751D01*
X211255000Y-74253865D01*
X211655000Y-74253865D01*
X211809731Y-74224751D01*
X211953500Y-74253865D01*
X212353500Y-74253865D01*
X212508231Y-74224751D01*
X212652000Y-74253865D01*
X212719345Y-74253865D01*
X211717355Y-75255855D01*
X211711628Y-75264425D01*
X211308687Y-74995188D01*
X210820000Y-74897982D01*
X210331313Y-74995188D01*
X209917025Y-75272007D01*
X209644691Y-75679583D01*
X209475183Y-75318642D01*
X209046924Y-74928355D01*
X208636890Y-74758524D01*
X208407000Y-74879845D01*
X208407000Y-76073000D01*
X208427000Y-76073000D01*
X208427000Y-76327000D01*
X208407000Y-76327000D01*
X208407000Y-77520155D01*
X208636890Y-77641476D01*
X209046924Y-77471645D01*
X209475183Y-77081358D01*
X209644691Y-76720417D01*
X209862828Y-77046882D01*
X209214226Y-77695484D01*
X209088525Y-77695374D01*
X208821225Y-77805820D01*
X208616539Y-78010150D01*
X208505626Y-78277256D01*
X208505374Y-78566475D01*
X208615820Y-78833775D01*
X208820150Y-79038461D01*
X209087256Y-79149374D01*
X209376475Y-79149626D01*
X209643775Y-79039180D01*
X209848461Y-78834850D01*
X209959374Y-78567744D01*
X209959485Y-78440805D01*
X210917707Y-77482583D01*
X211308687Y-77404812D01*
X211711628Y-77135575D01*
X211717355Y-77144145D01*
X212415855Y-77842645D01*
X212586825Y-77956885D01*
X212620285Y-77963540D01*
X212788500Y-77997000D01*
X214630000Y-77997000D01*
X214831675Y-77956885D01*
X215002645Y-77842645D01*
X215435639Y-77409651D01*
X215900000Y-77502018D01*
X216388687Y-77404812D01*
X216802975Y-77127993D01*
X216845123Y-77064914D01*
X217686354Y-77906145D01*
X217762292Y-77956885D01*
X217857326Y-78020385D01*
X218059000Y-78060500D01*
X219646500Y-78060500D01*
X219848175Y-78020385D01*
X220019145Y-77906145D01*
X220515639Y-77409651D01*
X220980000Y-77502018D01*
X221468687Y-77404812D01*
X221882975Y-77127993D01*
X222159794Y-76713705D01*
X222234635Y-76337454D01*
X222234635Y-77050000D01*
X222264409Y-77208237D01*
X222357927Y-77353567D01*
X222500619Y-77451064D01*
X222670000Y-77485365D01*
X224370000Y-77485365D01*
X224528237Y-77455591D01*
X224673567Y-77362073D01*
X224771064Y-77219381D01*
X224805365Y-77050000D01*
X224805365Y-75350000D01*
X224775591Y-75191763D01*
X224682073Y-75046433D01*
X224539381Y-74948936D01*
X224370000Y-74914635D01*
X222789425Y-74914635D01*
X222128655Y-74253865D01*
X222132500Y-74253865D01*
X222287231Y-74224751D01*
X222431000Y-74253865D01*
X222831000Y-74253865D01*
X222985731Y-74224751D01*
X223129500Y-74253865D01*
X223529500Y-74253865D01*
X223684231Y-74224751D01*
X223828000Y-74253865D01*
X224228000Y-74253865D01*
X224382731Y-74224751D01*
X224526500Y-74253865D01*
X224926500Y-74253865D01*
X225081231Y-74224751D01*
X225225000Y-74253865D01*
X225460839Y-74253865D01*
X225563802Y-74356827D01*
X225797191Y-74453500D01*
X225864750Y-74453500D01*
X225996498Y-74321752D01*
X225996498Y-74453500D01*
X226045210Y-74453500D01*
X225687355Y-74811355D01*
X225573115Y-74982325D01*
X225541431Y-75141615D01*
X225533000Y-75184000D01*
X225533000Y-77315209D01*
X224317710Y-78530500D01*
X220980000Y-78530500D01*
X220778325Y-78570615D01*
X220607355Y-78684855D01*
X220342575Y-78949635D01*
X220115000Y-78949635D01*
X219956763Y-78979409D01*
X219811433Y-79072927D01*
X219713936Y-79215619D01*
X219679635Y-79385000D01*
X219679635Y-80635000D01*
X219709409Y-80793237D01*
X219802927Y-80938567D01*
X219945619Y-81036064D01*
X220088000Y-81064897D01*
X220088000Y-82048858D01*
X220016326Y-82063115D01*
X219845355Y-82177355D01*
X219521215Y-82501495D01*
X219411150Y-82391239D01*
X219144044Y-82280326D01*
X218854825Y-82280074D01*
X218587525Y-82390520D01*
X218382839Y-82594850D01*
X218271926Y-82861956D01*
X218271674Y-83151175D01*
X218382120Y-83418475D01*
X218586450Y-83623161D01*
X218853556Y-83734074D01*
X219017757Y-83734217D01*
X219076525Y-83773485D01*
X219109985Y-83780140D01*
X219278200Y-83813600D01*
X219481400Y-83813600D01*
X219683075Y-83773485D01*
X219854045Y-83659245D01*
X220436290Y-83077000D01*
X220452946Y-83077000D01*
X220469527Y-83102767D01*
X220514625Y-83133581D01*
X220478033Y-83157127D01*
X220380536Y-83299819D01*
X220346235Y-83469200D01*
X220346235Y-83928000D01*
X217271600Y-83928000D01*
X217069925Y-83968115D01*
X216898955Y-84082355D01*
X213306810Y-87674500D01*
X204890285Y-87674500D01*
X204881417Y-87627374D01*
X204895365Y-87558500D01*
X204895365Y-87157000D01*
X205580000Y-87157000D01*
X205762169Y-87120765D01*
X207117000Y-87120765D01*
X207275237Y-87090991D01*
X207420567Y-86997473D01*
X207518064Y-86854781D01*
X207552365Y-86685400D01*
X207552365Y-86671150D01*
X210332000Y-86671150D01*
X210332000Y-86811710D01*
X210428673Y-87045099D01*
X210607302Y-87223727D01*
X210840691Y-87320400D01*
X211456250Y-87320400D01*
X211615000Y-87161650D01*
X211615000Y-86512400D01*
X211869000Y-86512400D01*
X211869000Y-87161650D01*
X212027750Y-87320400D01*
X212643309Y-87320400D01*
X212876698Y-87223727D01*
X213055327Y-87045099D01*
X213152000Y-86811710D01*
X213152000Y-86671150D01*
X212993250Y-86512400D01*
X211869000Y-86512400D01*
X211615000Y-86512400D01*
X210490750Y-86512400D01*
X210332000Y-86671150D01*
X207552365Y-86671150D01*
X207552365Y-86085400D01*
X207522591Y-85927163D01*
X207429073Y-85781833D01*
X207383975Y-85751019D01*
X207412205Y-85732854D01*
X207562850Y-85883761D01*
X207829956Y-85994674D01*
X208119175Y-85994926D01*
X208386475Y-85884480D01*
X208591161Y-85680150D01*
X208702074Y-85413044D01*
X208702326Y-85123825D01*
X208591880Y-84856525D01*
X208502200Y-84766689D01*
X208502200Y-83058000D01*
X208462085Y-82856326D01*
X208409130Y-82777074D01*
X208347845Y-82685354D01*
X207977490Y-82315000D01*
X210531635Y-82315000D01*
X210531635Y-82875400D01*
X210561409Y-83033637D01*
X210654927Y-83178967D01*
X210700025Y-83209781D01*
X210663433Y-83233327D01*
X210565936Y-83376019D01*
X210531635Y-83545400D01*
X210531635Y-84145400D01*
X210561409Y-84303637D01*
X210654927Y-84448967D01*
X210700025Y-84479781D01*
X210663433Y-84503327D01*
X210565936Y-84646019D01*
X210531635Y-84815400D01*
X210531635Y-85415400D01*
X210561409Y-85573637D01*
X210568977Y-85585398D01*
X210428673Y-85725701D01*
X210332000Y-85959090D01*
X210332000Y-86099650D01*
X210490750Y-86258400D01*
X211615000Y-86258400D01*
X211615000Y-86238400D01*
X211869000Y-86238400D01*
X211869000Y-86258400D01*
X212993250Y-86258400D01*
X213152000Y-86099650D01*
X213152000Y-85959090D01*
X213055327Y-85725701D01*
X212916579Y-85586954D01*
X212918064Y-85584781D01*
X212952365Y-85415400D01*
X212952365Y-84815400D01*
X212922591Y-84657163D01*
X212829073Y-84511833D01*
X212783975Y-84481019D01*
X212820567Y-84457473D01*
X212918064Y-84314781D01*
X212952365Y-84145400D01*
X212952365Y-83545400D01*
X212922591Y-83387163D01*
X212829073Y-83241833D01*
X212783975Y-83211019D01*
X212820567Y-83187473D01*
X212918064Y-83044781D01*
X212952365Y-82875400D01*
X212952365Y-82315000D01*
X212985844Y-82315000D01*
X213074650Y-82403961D01*
X213341756Y-82514874D01*
X213630975Y-82515126D01*
X213898275Y-82404680D01*
X214102961Y-82200350D01*
X214213874Y-81933244D01*
X214214126Y-81644025D01*
X214103680Y-81376725D01*
X213899350Y-81172039D01*
X213632244Y-81061126D01*
X213343025Y-81060874D01*
X213075725Y-81171320D01*
X212985889Y-81261000D01*
X208023037Y-81261000D01*
X208234698Y-81173327D01*
X208413327Y-80994699D01*
X208510000Y-80761310D01*
X208510000Y-80295750D01*
X208351250Y-80137000D01*
X207502000Y-80137000D01*
X207502000Y-80157000D01*
X207248000Y-80157000D01*
X207248000Y-80137000D01*
X207228000Y-80137000D01*
X207228000Y-79883000D01*
X207248000Y-79883000D01*
X207248000Y-78908750D01*
X207502000Y-78908750D01*
X207502000Y-79883000D01*
X208351250Y-79883000D01*
X208510000Y-79724250D01*
X208510000Y-79258690D01*
X208413327Y-79025301D01*
X208234698Y-78846673D01*
X208001309Y-78750000D01*
X207660750Y-78750000D01*
X207502000Y-78908750D01*
X207248000Y-78908750D01*
X207089250Y-78750000D01*
X206748691Y-78750000D01*
X206515302Y-78846673D01*
X206336673Y-79025301D01*
X206263942Y-79200890D01*
X206187073Y-79081433D01*
X206044381Y-78983936D01*
X205875000Y-78949635D01*
X204875000Y-78949635D01*
X204716763Y-78979409D01*
X204571433Y-79072927D01*
X204473936Y-79215619D01*
X204439635Y-79385000D01*
X204439635Y-80635000D01*
X204469409Y-80793237D01*
X204520792Y-80873088D01*
X204454326Y-81033156D01*
X204454127Y-81261000D01*
X203454000Y-81261000D01*
X203252325Y-81301115D01*
X203081355Y-81415355D01*
X200527000Y-83969710D01*
X200527000Y-76556892D01*
X206838514Y-76556892D01*
X207084817Y-77081358D01*
X207513076Y-77471645D01*
X207923110Y-77641476D01*
X208153000Y-77520155D01*
X208153000Y-76327000D01*
X206959181Y-76327000D01*
X206838514Y-76556892D01*
X200527000Y-76556892D01*
X200527000Y-75843108D01*
X206838514Y-75843108D01*
X206959181Y-76073000D01*
X208153000Y-76073000D01*
X208153000Y-74879845D01*
X207923110Y-74758524D01*
X207513076Y-74928355D01*
X207084817Y-75318642D01*
X206838514Y-75843108D01*
X200527000Y-75843108D01*
X200527000Y-68203338D01*
X204630874Y-65272000D01*
X206215474Y-65272000D01*
X206100673Y-65386802D01*
X206100673Y-65386802D01*
G37*
X206100673Y-65386802D02*
X206004000Y-65620191D01*
X206004000Y-65960750D01*
X206162750Y-66119500D01*
X207137000Y-66119500D01*
X207137000Y-66099500D01*
X207391000Y-66099500D01*
X207391000Y-66119500D01*
X208365250Y-66119500D01*
X208401250Y-66083500D01*
X208423750Y-66106000D01*
X209423000Y-66106000D01*
X209423000Y-66086000D01*
X209677000Y-66086000D01*
X209677000Y-66106000D01*
X210676250Y-66106000D01*
X210835000Y-65947250D01*
X210835000Y-65756691D01*
X210738327Y-65523302D01*
X210559699Y-65344673D01*
X210384251Y-65272000D01*
X216756474Y-65272000D01*
X216578173Y-65450302D01*
X216481500Y-65683691D01*
X216481500Y-66024250D01*
X216640250Y-66183000D01*
X217614500Y-66183000D01*
X217614500Y-66163000D01*
X217868500Y-66163000D01*
X217868500Y-66183000D01*
X219773500Y-66183000D01*
X219773500Y-66163000D01*
X220027500Y-66163000D01*
X220027500Y-66183000D01*
X221001750Y-66183000D01*
X221160500Y-66024250D01*
X221160500Y-65683691D01*
X221063827Y-65450302D01*
X220885526Y-65272000D01*
X222272710Y-65272000D01*
X221369355Y-66175355D01*
X221255115Y-66346325D01*
X221255115Y-66346326D01*
X221215000Y-66548000D01*
X221215000Y-67409210D01*
X220937640Y-67686570D01*
X220931091Y-67651763D01*
X220837573Y-67506433D01*
X220711486Y-67420281D01*
X220885199Y-67348327D01*
X221063827Y-67169698D01*
X221160500Y-66936309D01*
X221160500Y-66595750D01*
X221001750Y-66437000D01*
X220027500Y-66437000D01*
X220027500Y-66457000D01*
X219773500Y-66457000D01*
X219773500Y-66437000D01*
X217868500Y-66437000D01*
X217868500Y-66457000D01*
X217614500Y-66457000D01*
X217614500Y-66437000D01*
X216640250Y-66437000D01*
X216481500Y-66595750D01*
X216481500Y-66936309D01*
X216578173Y-67169698D01*
X216756801Y-67348327D01*
X216932390Y-67421058D01*
X216812933Y-67497927D01*
X216715436Y-67640619D01*
X216681135Y-67810000D01*
X216681135Y-68810000D01*
X216710909Y-68968237D01*
X216804427Y-69113567D01*
X216947119Y-69211064D01*
X217116500Y-69245365D01*
X217964336Y-69245365D01*
X217880302Y-69280173D01*
X217777339Y-69383135D01*
X217541500Y-69383135D01*
X217386769Y-69412249D01*
X217243000Y-69383135D01*
X216843000Y-69383135D01*
X216688269Y-69412249D01*
X216544500Y-69383135D01*
X216144500Y-69383135D01*
X215989769Y-69412249D01*
X215846000Y-69383135D01*
X215446000Y-69383135D01*
X215291269Y-69412249D01*
X215147500Y-69383135D01*
X214747500Y-69383135D01*
X214592769Y-69412249D01*
X214449000Y-69383135D01*
X214049000Y-69383135D01*
X213894269Y-69412249D01*
X213750500Y-69383135D01*
X213350500Y-69383135D01*
X213195769Y-69412249D01*
X213052000Y-69383135D01*
X212652000Y-69383135D01*
X212497269Y-69412249D01*
X212353500Y-69383135D01*
X211953500Y-69383135D01*
X211798769Y-69412249D01*
X211655000Y-69383135D01*
X211255000Y-69383135D01*
X211100269Y-69412249D01*
X210956500Y-69383135D01*
X210556500Y-69383135D01*
X210401769Y-69412249D01*
X210258000Y-69383135D01*
X209858000Y-69383135D01*
X209703269Y-69412249D01*
X209559500Y-69383135D01*
X209555655Y-69383135D01*
X209922645Y-69016145D01*
X209987980Y-68918365D01*
X210200000Y-68918365D01*
X210358237Y-68888591D01*
X210503567Y-68795073D01*
X210601064Y-68652381D01*
X210635365Y-68483000D01*
X210635365Y-67783000D01*
X210605591Y-67624763D01*
X210512073Y-67479433D01*
X210369381Y-67381936D01*
X210200000Y-67347635D01*
X208900000Y-67347635D01*
X208741763Y-67377409D01*
X208596433Y-67470927D01*
X208498936Y-67613619D01*
X208464635Y-67783000D01*
X208464635Y-68483000D01*
X208494409Y-68641237D01*
X208587927Y-68786567D01*
X208631720Y-68816490D01*
X208418142Y-69030068D01*
X208335145Y-68905855D01*
X208299344Y-68870054D01*
X208324365Y-68746500D01*
X208324365Y-67746500D01*
X208294591Y-67588263D01*
X208201073Y-67442933D01*
X208074986Y-67356781D01*
X208248699Y-67284827D01*
X208427327Y-67106198D01*
X208455985Y-67037011D01*
X208540301Y-67121327D01*
X208773690Y-67218000D01*
X209264250Y-67218000D01*
X209423000Y-67059250D01*
X209423000Y-66360000D01*
X209677000Y-66360000D01*
X209677000Y-67059250D01*
X209835750Y-67218000D01*
X210326310Y-67218000D01*
X210559699Y-67121327D01*
X210738327Y-66942698D01*
X210835000Y-66709309D01*
X210835000Y-66518750D01*
X210676250Y-66360000D01*
X209677000Y-66360000D01*
X209423000Y-66360000D01*
X208423750Y-66360000D01*
X208387750Y-66396000D01*
X208365250Y-66373500D01*
X207391000Y-66373500D01*
X207391000Y-66393500D01*
X207137000Y-66393500D01*
X207137000Y-66373500D01*
X206162750Y-66373500D01*
X206004000Y-66532250D01*
X206004000Y-66872809D01*
X206100673Y-67106198D01*
X206279301Y-67284827D01*
X206454890Y-67357558D01*
X206335433Y-67434427D01*
X206237936Y-67577119D01*
X206203635Y-67746500D01*
X206203635Y-68746500D01*
X206233409Y-68904737D01*
X206326927Y-69050067D01*
X206469619Y-69147564D01*
X206639000Y-69181865D01*
X207120575Y-69181865D01*
X207321845Y-69383135D01*
X207228161Y-69383135D01*
X207125198Y-69280173D01*
X206891809Y-69183500D01*
X206824250Y-69183500D01*
X206665500Y-69342250D01*
X206665500Y-69604071D01*
X206605327Y-69458801D01*
X206426698Y-69280173D01*
X206386965Y-69263715D01*
X206306750Y-69183500D01*
X206239191Y-69183500D01*
X206216250Y-69193002D01*
X206193309Y-69183500D01*
X206125750Y-69183500D01*
X206045535Y-69263715D01*
X206005802Y-69280173D01*
X205827173Y-69458801D01*
X205767000Y-69604071D01*
X205767000Y-69342250D01*
X205608250Y-69183500D01*
X205540691Y-69183500D01*
X205307302Y-69280173D01*
X205128673Y-69458801D01*
X205032000Y-69692190D01*
X205032000Y-71532750D01*
X205190750Y-71691500D01*
X205767000Y-71691500D01*
X205767000Y-71569250D01*
X205889250Y-71691500D01*
X206014000Y-71691500D01*
X206014000Y-71945500D01*
X205889250Y-71945500D01*
X205767000Y-72067750D01*
X205767000Y-71945500D01*
X205190750Y-71945500D01*
X205032000Y-72104250D01*
X205032000Y-73944810D01*
X205128673Y-74178199D01*
X205307302Y-74356827D01*
X205540691Y-74453500D01*
X205608250Y-74453500D01*
X205767000Y-74294750D01*
X205767000Y-74032929D01*
X205827173Y-74178199D01*
X206005802Y-74356827D01*
X206045535Y-74373285D01*
X206125750Y-74453500D01*
X206193309Y-74453500D01*
X206216250Y-74443998D01*
X206239191Y-74453500D01*
X206306750Y-74453500D01*
X206386965Y-74373285D01*
X206426698Y-74356827D01*
X206605327Y-74178199D01*
X206665500Y-74032929D01*
X206665500Y-74294750D01*
X206824250Y-74453500D01*
X206891809Y-74453500D01*
X207125198Y-74356827D01*
X207228161Y-74253865D01*
X207464000Y-74253865D01*
X207618731Y-74224751D01*
X207762500Y-74253865D01*
X208162500Y-74253865D01*
X208317231Y-74224751D01*
X208461000Y-74253865D01*
X208861000Y-74253865D01*
X209015731Y-74224751D01*
X209159500Y-74253865D01*
X209559500Y-74253865D01*
X209714231Y-74224751D01*
X209858000Y-74253865D01*
X210258000Y-74253865D01*
X210412731Y-74224751D01*
X210556500Y-74253865D01*
X210956500Y-74253865D01*
X211111231Y-74224751D01*
X211255000Y-74253865D01*
X211655000Y-74253865D01*
X211809731Y-74224751D01*
X211953500Y-74253865D01*
X212353500Y-74253865D01*
X212508231Y-74224751D01*
X212652000Y-74253865D01*
X212719345Y-74253865D01*
X211717355Y-75255855D01*
X211711628Y-75264425D01*
X211308687Y-74995188D01*
X210820000Y-74897982D01*
X210331313Y-74995188D01*
X209917025Y-75272007D01*
X209644691Y-75679583D01*
X209475183Y-75318642D01*
X209046924Y-74928355D01*
X208636890Y-74758524D01*
X208407000Y-74879845D01*
X208407000Y-76073000D01*
X208427000Y-76073000D01*
X208427000Y-76327000D01*
X208407000Y-76327000D01*
X208407000Y-77520155D01*
X208636890Y-77641476D01*
X209046924Y-77471645D01*
X209475183Y-77081358D01*
X209644691Y-76720417D01*
X209862828Y-77046882D01*
X209214226Y-77695484D01*
X209088525Y-77695374D01*
X208821225Y-77805820D01*
X208616539Y-78010150D01*
X208505626Y-78277256D01*
X208505374Y-78566475D01*
X208615820Y-78833775D01*
X208820150Y-79038461D01*
X209087256Y-79149374D01*
X209376475Y-79149626D01*
X209643775Y-79039180D01*
X209848461Y-78834850D01*
X209959374Y-78567744D01*
X209959485Y-78440805D01*
X210917707Y-77482583D01*
X211308687Y-77404812D01*
X211711628Y-77135575D01*
X211717355Y-77144145D01*
X212415855Y-77842645D01*
X212586825Y-77956885D01*
X212620285Y-77963540D01*
X212788500Y-77997000D01*
X214630000Y-77997000D01*
X214831675Y-77956885D01*
X215002645Y-77842645D01*
X215435639Y-77409651D01*
X215900000Y-77502018D01*
X216388687Y-77404812D01*
X216802975Y-77127993D01*
X216845123Y-77064914D01*
X217686354Y-77906145D01*
X217762292Y-77956885D01*
X217857326Y-78020385D01*
X218059000Y-78060500D01*
X219646500Y-78060500D01*
X219848175Y-78020385D01*
X220019145Y-77906145D01*
X220515639Y-77409651D01*
X220980000Y-77502018D01*
X221468687Y-77404812D01*
X221882975Y-77127993D01*
X222159794Y-76713705D01*
X222234635Y-76337454D01*
X222234635Y-77050000D01*
X222264409Y-77208237D01*
X222357927Y-77353567D01*
X222500619Y-77451064D01*
X222670000Y-77485365D01*
X224370000Y-77485365D01*
X224528237Y-77455591D01*
X224673567Y-77362073D01*
X224771064Y-77219381D01*
X224805365Y-77050000D01*
X224805365Y-75350000D01*
X224775591Y-75191763D01*
X224682073Y-75046433D01*
X224539381Y-74948936D01*
X224370000Y-74914635D01*
X222789425Y-74914635D01*
X222128655Y-74253865D01*
X222132500Y-74253865D01*
X222287231Y-74224751D01*
X222431000Y-74253865D01*
X222831000Y-74253865D01*
X222985731Y-74224751D01*
X223129500Y-74253865D01*
X223529500Y-74253865D01*
X223684231Y-74224751D01*
X223828000Y-74253865D01*
X224228000Y-74253865D01*
X224382731Y-74224751D01*
X224526500Y-74253865D01*
X224926500Y-74253865D01*
X225081231Y-74224751D01*
X225225000Y-74253865D01*
X225460839Y-74253865D01*
X225563802Y-74356827D01*
X225797191Y-74453500D01*
X225864750Y-74453500D01*
X225996498Y-74321752D01*
X225996498Y-74453500D01*
X226045210Y-74453500D01*
X225687355Y-74811355D01*
X225573115Y-74982325D01*
X225541431Y-75141615D01*
X225533000Y-75184000D01*
X225533000Y-77315209D01*
X224317710Y-78530500D01*
X220980000Y-78530500D01*
X220778325Y-78570615D01*
X220607355Y-78684855D01*
X220342575Y-78949635D01*
X220115000Y-78949635D01*
X219956763Y-78979409D01*
X219811433Y-79072927D01*
X219713936Y-79215619D01*
X219679635Y-79385000D01*
X219679635Y-80635000D01*
X219709409Y-80793237D01*
X219802927Y-80938567D01*
X219945619Y-81036064D01*
X220088000Y-81064897D01*
X220088000Y-82048858D01*
X220016326Y-82063115D01*
X219845355Y-82177355D01*
X219521215Y-82501495D01*
X219411150Y-82391239D01*
X219144044Y-82280326D01*
X218854825Y-82280074D01*
X218587525Y-82390520D01*
X218382839Y-82594850D01*
X218271926Y-82861956D01*
X218271674Y-83151175D01*
X218382120Y-83418475D01*
X218586450Y-83623161D01*
X218853556Y-83734074D01*
X219017757Y-83734217D01*
X219076525Y-83773485D01*
X219109985Y-83780140D01*
X219278200Y-83813600D01*
X219481400Y-83813600D01*
X219683075Y-83773485D01*
X219854045Y-83659245D01*
X220436290Y-83077000D01*
X220452946Y-83077000D01*
X220469527Y-83102767D01*
X220514625Y-83133581D01*
X220478033Y-83157127D01*
X220380536Y-83299819D01*
X220346235Y-83469200D01*
X220346235Y-83928000D01*
X217271600Y-83928000D01*
X217069925Y-83968115D01*
X216898955Y-84082355D01*
X213306810Y-87674500D01*
X204890285Y-87674500D01*
X204881417Y-87627374D01*
X204895365Y-87558500D01*
X204895365Y-87157000D01*
X205580000Y-87157000D01*
X205762169Y-87120765D01*
X207117000Y-87120765D01*
X207275237Y-87090991D01*
X207420567Y-86997473D01*
X207518064Y-86854781D01*
X207552365Y-86685400D01*
X207552365Y-86671150D01*
X210332000Y-86671150D01*
X210332000Y-86811710D01*
X210428673Y-87045099D01*
X210607302Y-87223727D01*
X210840691Y-87320400D01*
X211456250Y-87320400D01*
X211615000Y-87161650D01*
X211615000Y-86512400D01*
X211869000Y-86512400D01*
X211869000Y-87161650D01*
X212027750Y-87320400D01*
X212643309Y-87320400D01*
X212876698Y-87223727D01*
X213055327Y-87045099D01*
X213152000Y-86811710D01*
X213152000Y-86671150D01*
X212993250Y-86512400D01*
X211869000Y-86512400D01*
X211615000Y-86512400D01*
X210490750Y-86512400D01*
X210332000Y-86671150D01*
X207552365Y-86671150D01*
X207552365Y-86085400D01*
X207522591Y-85927163D01*
X207429073Y-85781833D01*
X207383975Y-85751019D01*
X207412205Y-85732854D01*
X207562850Y-85883761D01*
X207829956Y-85994674D01*
X208119175Y-85994926D01*
X208386475Y-85884480D01*
X208591161Y-85680150D01*
X208702074Y-85413044D01*
X208702326Y-85123825D01*
X208591880Y-84856525D01*
X208502200Y-84766689D01*
X208502200Y-83058000D01*
X208462085Y-82856326D01*
X208409130Y-82777074D01*
X208347845Y-82685354D01*
X207977490Y-82315000D01*
X210531635Y-82315000D01*
X210531635Y-82875400D01*
X210561409Y-83033637D01*
X210654927Y-83178967D01*
X210700025Y-83209781D01*
X210663433Y-83233327D01*
X210565936Y-83376019D01*
X210531635Y-83545400D01*
X210531635Y-84145400D01*
X210561409Y-84303637D01*
X210654927Y-84448967D01*
X210700025Y-84479781D01*
X210663433Y-84503327D01*
X210565936Y-84646019D01*
X210531635Y-84815400D01*
X210531635Y-85415400D01*
X210561409Y-85573637D01*
X210568977Y-85585398D01*
X210428673Y-85725701D01*
X210332000Y-85959090D01*
X210332000Y-86099650D01*
X210490750Y-86258400D01*
X211615000Y-86258400D01*
X211615000Y-86238400D01*
X211869000Y-86238400D01*
X211869000Y-86258400D01*
X212993250Y-86258400D01*
X213152000Y-86099650D01*
X213152000Y-85959090D01*
X213055327Y-85725701D01*
X212916579Y-85586954D01*
X212918064Y-85584781D01*
X212952365Y-85415400D01*
X212952365Y-84815400D01*
X212922591Y-84657163D01*
X212829073Y-84511833D01*
X212783975Y-84481019D01*
X212820567Y-84457473D01*
X212918064Y-84314781D01*
X212952365Y-84145400D01*
X212952365Y-83545400D01*
X212922591Y-83387163D01*
X212829073Y-83241833D01*
X212783975Y-83211019D01*
X212820567Y-83187473D01*
X212918064Y-83044781D01*
X212952365Y-82875400D01*
X212952365Y-82315000D01*
X212985844Y-82315000D01*
X213074650Y-82403961D01*
X213341756Y-82514874D01*
X213630975Y-82515126D01*
X213898275Y-82404680D01*
X214102961Y-82200350D01*
X214213874Y-81933244D01*
X214214126Y-81644025D01*
X214103680Y-81376725D01*
X213899350Y-81172039D01*
X213632244Y-81061126D01*
X213343025Y-81060874D01*
X213075725Y-81171320D01*
X212985889Y-81261000D01*
X208023037Y-81261000D01*
X208234698Y-81173327D01*
X208413327Y-80994699D01*
X208510000Y-80761310D01*
X208510000Y-80295750D01*
X208351250Y-80137000D01*
X207502000Y-80137000D01*
X207502000Y-80157000D01*
X207248000Y-80157000D01*
X207248000Y-80137000D01*
X207228000Y-80137000D01*
X207228000Y-79883000D01*
X207248000Y-79883000D01*
X207248000Y-78908750D01*
X207502000Y-78908750D01*
X207502000Y-79883000D01*
X208351250Y-79883000D01*
X208510000Y-79724250D01*
X208510000Y-79258690D01*
X208413327Y-79025301D01*
X208234698Y-78846673D01*
X208001309Y-78750000D01*
X207660750Y-78750000D01*
X207502000Y-78908750D01*
X207248000Y-78908750D01*
X207089250Y-78750000D01*
X206748691Y-78750000D01*
X206515302Y-78846673D01*
X206336673Y-79025301D01*
X206263942Y-79200890D01*
X206187073Y-79081433D01*
X206044381Y-78983936D01*
X205875000Y-78949635D01*
X204875000Y-78949635D01*
X204716763Y-78979409D01*
X204571433Y-79072927D01*
X204473936Y-79215619D01*
X204439635Y-79385000D01*
X204439635Y-80635000D01*
X204469409Y-80793237D01*
X204520792Y-80873088D01*
X204454326Y-81033156D01*
X204454127Y-81261000D01*
X203454000Y-81261000D01*
X203252325Y-81301115D01*
X203081355Y-81415355D01*
X200527000Y-83969710D01*
X200527000Y-76556892D01*
X206838514Y-76556892D01*
X207084817Y-77081358D01*
X207513076Y-77471645D01*
X207923110Y-77641476D01*
X208153000Y-77520155D01*
X208153000Y-76327000D01*
X206959181Y-76327000D01*
X206838514Y-76556892D01*
X200527000Y-76556892D01*
X200527000Y-75843108D01*
X206838514Y-75843108D01*
X206959181Y-76073000D01*
X208153000Y-76073000D01*
X208153000Y-74879845D01*
X207923110Y-74758524D01*
X207513076Y-74928355D01*
X207084817Y-75318642D01*
X206838514Y-75843108D01*
X200527000Y-75843108D01*
X200527000Y-68203338D01*
X204630874Y-65272000D01*
X206215474Y-65272000D01*
X206100673Y-65386802D01*
G36*
X226223500Y-71691500D02*
X226270500Y-71691500D01*
X226270500Y-71945500D01*
X226223500Y-71945500D01*
X226223500Y-71965500D01*
X226060365Y-71965500D01*
X226060365Y-71671500D01*
X226223500Y-71671500D01*
X226223500Y-71691500D01*
X226223500Y-71691500D01*
G37*
X226223500Y-71691500D02*
X226270500Y-71691500D01*
X226270500Y-71945500D01*
X226223500Y-71945500D01*
X226223500Y-71965500D01*
X226060365Y-71965500D01*
X226060365Y-71671500D01*
X226223500Y-71671500D01*
X226223500Y-71691500D01*
G36*
X221297135Y-71965500D02*
X221170865Y-71965500D01*
X221170865Y-71671500D01*
X221297135Y-71671500D01*
X221297135Y-71965500D01*
X221297135Y-71965500D01*
G37*
X221297135Y-71965500D02*
X221170865Y-71965500D01*
X221170865Y-71671500D01*
X221297135Y-71671500D01*
X221297135Y-71965500D01*
G36*
X219160750Y-71691500D02*
X219285500Y-71691500D01*
X219285500Y-71945500D01*
X219160750Y-71945500D01*
X219140750Y-71965500D01*
X219136250Y-71965500D01*
X219116250Y-71945500D01*
X218991500Y-71945500D01*
X218991500Y-71691500D01*
X219116250Y-71691500D01*
X219136250Y-71671500D01*
X219140750Y-71671500D01*
X219160750Y-71691500D01*
X219160750Y-71691500D01*
G37*
X219160750Y-71691500D02*
X219285500Y-71691500D01*
X219285500Y-71945500D01*
X219160750Y-71945500D01*
X219140750Y-71965500D01*
X219136250Y-71965500D01*
X219116250Y-71945500D01*
X218991500Y-71945500D01*
X218991500Y-71691500D01*
X219116250Y-71691500D01*
X219136250Y-71671500D01*
X219140750Y-71671500D01*
X219160750Y-71691500D01*
M02*
