G04 #@! TF.FileFunction,Paste,Bot*
%FSLAX46Y46*%
G04 Gerber Fmt 4.6, Leading zero omitted, Abs format (unit mm)*
G04 Created by KiCad (PCBNEW 4.0.7-e2-6376~58~ubuntu16.04.1) date Tue Nov 14 14:50:52 2017*
%MOMM*%
%LPD*%
G01*
G04 APERTURE LIST*
%ADD10C,0.100000*%
%ADD11R,1.300000X0.700000*%
%ADD12R,1.550000X0.600000*%
%ADD13R,1.000000X1.250000*%
%ADD14R,1.250000X1.000000*%
%ADD15R,0.400000X4.000000*%
G04 APERTURE END LIST*
D10*
D11*
X209550000Y-68133000D03*
X209550000Y-66233000D03*
D12*
X211640400Y-92659200D03*
X211640400Y-93929200D03*
X211640400Y-95199200D03*
X211640400Y-96469200D03*
X206240400Y-96469200D03*
X206240400Y-95199200D03*
X206240400Y-93929200D03*
X206240400Y-92659200D03*
X226956600Y-82499200D03*
X226956600Y-83769200D03*
X226956600Y-85039200D03*
X226956600Y-86309200D03*
X221556600Y-86309200D03*
X221556600Y-85039200D03*
X221556600Y-83769200D03*
X221556600Y-82499200D03*
X226474000Y-92684600D03*
X226474000Y-93954600D03*
X226474000Y-95224600D03*
X226474000Y-96494600D03*
X221074000Y-96494600D03*
X221074000Y-95224600D03*
X221074000Y-93954600D03*
X221074000Y-92684600D03*
X211742000Y-82575400D03*
X211742000Y-83845400D03*
X211742000Y-85115400D03*
X211742000Y-86385400D03*
X206342000Y-86385400D03*
X206342000Y-85115400D03*
X206342000Y-83845400D03*
X206342000Y-82575400D03*
D13*
X209508600Y-89738200D03*
X207508600Y-89738200D03*
X222615000Y-80010000D03*
X220615000Y-80010000D03*
X228838000Y-90170000D03*
X226838000Y-90170000D03*
X207375000Y-80010000D03*
X205375000Y-80010000D03*
D14*
X226441000Y-68310000D03*
X226441000Y-66310000D03*
X224218500Y-68310000D03*
X224218500Y-66310000D03*
X219900500Y-68310000D03*
X219900500Y-66310000D03*
X217741500Y-68310000D03*
X217741500Y-66310000D03*
X207264000Y-68246500D03*
X207264000Y-66246500D03*
X201930000Y-97218500D03*
X201930000Y-98361500D03*
X203835000Y-97218500D03*
X203835000Y-98361500D03*
X217170000Y-97218500D03*
X217170000Y-98361500D03*
X219075000Y-97218500D03*
X219075000Y-98361500D03*
X217170000Y-87058500D03*
X217170000Y-88201500D03*
X219075000Y-87058500D03*
X219075000Y-88201500D03*
X201930000Y-87058500D03*
X201930000Y-88201500D03*
X203835000Y-87058500D03*
X203835000Y-88201500D03*
D15*
X226123500Y-71818500D03*
X225425000Y-71818500D03*
X224726500Y-71818500D03*
X224028000Y-71818500D03*
X223329500Y-71818500D03*
X222631000Y-71818500D03*
X221932500Y-71818500D03*
X221234000Y-71818500D03*
X220535500Y-71818500D03*
X219837000Y-71818500D03*
X219138500Y-71818500D03*
X218440000Y-71818500D03*
X217741500Y-71818500D03*
X217043000Y-71818500D03*
X216344500Y-71818500D03*
X215646000Y-71818500D03*
X214947500Y-71818500D03*
X214249000Y-71818500D03*
X213550500Y-71818500D03*
X212852000Y-71818500D03*
X212153500Y-71818500D03*
X211455000Y-71818500D03*
X210756500Y-71818500D03*
X210058000Y-71818500D03*
X209359500Y-71818500D03*
X208661000Y-71818500D03*
X207962500Y-71818500D03*
X207264000Y-71818500D03*
X206565500Y-71818500D03*
X205867000Y-71818500D03*
M02*
