M48
;DRILL file {KiCad 4.0.7-e2-6376~58~ubuntu16.04.1} date Tue Nov 14 14:50:48 2017
;FORMAT={-:-/ absolute / metric / decimal}
FMAT,2
METRIC,TZ
T1C0.400
T2C0.500
T3C0.800
T4C1.000
%
G90
G05
M71
T1
X204.521Y-82.55
X204.851Y-100.33
X205.181Y-81.178
X205.867Y-101.854
X206.248Y-89.535
X207.518Y-96.393
X207.975Y-85.268
X208.661Y-80.518
X209.169Y-94.361
X209.232Y-78.422
X210.312Y-95.377
X210.439Y-98.298
X212.852Y-98.298
X213.004Y-94.513
X213.1Y-113.13
X213.487Y-81.788
X213.5Y-113.83
X213.868Y-98.476
X214.3Y-113.83
X214.7Y-113.13
X214.757Y-98.425
X214.884Y-95.377
X215.011Y-93.726
X215.075Y-110.871
X215.1Y-113.83
X215.5Y-113.13
X216.3Y-113.13
X216.662Y-95.377
X216.7Y-113.83
X217.1Y-113.13
X217.17Y-104.648
X217.5Y-113.83
X217.805Y-92.837
X218.3Y-113.83
X218.7Y-113.13
X218.999Y-83.007
X221.107Y-88.9
T2
X201.676Y-109.474
X203.835Y-107.315
X212.242Y-101.854
X214.376Y-107.569
X218.389Y-101.854
X230.124Y-109.474
T3
X223.012Y-89.799
X223.012Y-93.599
T4
X208.28Y-76.2
X210.82Y-76.2
X213.36Y-76.2
X215.9Y-76.2
X218.44Y-76.2
X220.726Y-108.458
X220.98Y-76.2
X222.522Y-106.662
X223.52Y-76.2
X224.318Y-104.866
X226.114Y-103.07
X227.91Y-101.274
X229.706Y-99.478
T2
X211.41Y-119.38G85X211.41Y-119.98
G05
X211.77Y-113.43G85X211.77Y-114.03
G05
X220.03Y-113.43G85X220.03Y-114.03
G05
X220.39Y-119.38G85X220.39Y-119.98
G05
T0
M30
