G04 #@! TF.FileFunction,Soldermask,Bot*
%FSLAX46Y46*%
G04 Gerber Fmt 4.6, Leading zero omitted, Abs format (unit mm)*
G04 Created by KiCad (PCBNEW 4.0.7-e2-6376~58~ubuntu16.04.1) date Tue Nov 14 14:50:52 2017*
%MOMM*%
%LPD*%
G01*
G04 APERTURE LIST*
%ADD10C,0.100000*%
%ADD11C,2.100000*%
%ADD12R,2.100000X2.100000*%
%ADD13O,2.100000X2.100000*%
%ADD14R,1.250000X1.250000*%
%ADD15O,1.200000X1.800000*%
%ADD16O,1.350000X1.050000*%
%ADD17C,1.050000*%
%ADD18R,1.700000X1.100000*%
%ADD19R,1.950000X1.000000*%
%ADD20R,1.400000X1.650000*%
%ADD21R,1.650000X1.400000*%
%ADD22R,0.800000X4.400000*%
%ADD23C,1.900000*%
G04 APERTURE END LIST*
D10*
G36*
X222210924Y-108458000D02*
X220726000Y-109942924D01*
X219241076Y-108458000D01*
X220726000Y-106973076D01*
X222210924Y-108458000D01*
X222210924Y-108458000D01*
G37*
D11*
X222522051Y-106661949D02*
X222522051Y-106661949D01*
X224318102Y-104865898D02*
X224318102Y-104865898D01*
X226114154Y-103069846D02*
X226114154Y-103069846D01*
X227910205Y-101273795D02*
X227910205Y-101273795D01*
X229706256Y-99477744D02*
X229706256Y-99477744D01*
D12*
X223520000Y-76200000D03*
D13*
X220980000Y-76200000D03*
X218440000Y-76200000D03*
X215900000Y-76200000D03*
X213360000Y-76200000D03*
X210820000Y-76200000D03*
X208280000Y-76200000D03*
D14*
X203835000Y-107315000D03*
X212242400Y-101854000D03*
X218389200Y-101854000D03*
X201676000Y-109474000D03*
X230124000Y-109474000D03*
X214376000Y-107569000D03*
D15*
X211770000Y-113730000D03*
X220030000Y-113730000D03*
X220390000Y-119680000D03*
X211410000Y-119680000D03*
D16*
X219500000Y-112480000D03*
D17*
X212300000Y-112480000D03*
X218700000Y-113130000D03*
X217100000Y-113130000D03*
X216300000Y-113130000D03*
X215500000Y-113130000D03*
X214700000Y-113130000D03*
X213100000Y-113130000D03*
X218300000Y-113830000D03*
X217500000Y-113830000D03*
X216700000Y-113830000D03*
X215100000Y-113830000D03*
X214300000Y-113830000D03*
X213500000Y-113830000D03*
D18*
X209550000Y-68133000D03*
X209550000Y-66233000D03*
D19*
X211640400Y-92659200D03*
X211640400Y-93929200D03*
X211640400Y-95199200D03*
X211640400Y-96469200D03*
X206240400Y-96469200D03*
X206240400Y-95199200D03*
X206240400Y-93929200D03*
X206240400Y-92659200D03*
X226956600Y-82499200D03*
X226956600Y-83769200D03*
X226956600Y-85039200D03*
X226956600Y-86309200D03*
X221556600Y-86309200D03*
X221556600Y-85039200D03*
X221556600Y-83769200D03*
X221556600Y-82499200D03*
X226474000Y-92684600D03*
X226474000Y-93954600D03*
X226474000Y-95224600D03*
X226474000Y-96494600D03*
X221074000Y-96494600D03*
X221074000Y-95224600D03*
X221074000Y-93954600D03*
X221074000Y-92684600D03*
X211742000Y-82575400D03*
X211742000Y-83845400D03*
X211742000Y-85115400D03*
X211742000Y-86385400D03*
X206342000Y-86385400D03*
X206342000Y-85115400D03*
X206342000Y-83845400D03*
X206342000Y-82575400D03*
D20*
X209508600Y-89738200D03*
X207508600Y-89738200D03*
X222615000Y-80010000D03*
X220615000Y-80010000D03*
X228838000Y-90170000D03*
X226838000Y-90170000D03*
X207375000Y-80010000D03*
X205375000Y-80010000D03*
D21*
X226441000Y-68310000D03*
X226441000Y-66310000D03*
X224218500Y-68310000D03*
X224218500Y-66310000D03*
X219900500Y-68310000D03*
X219900500Y-66310000D03*
X217741500Y-68310000D03*
X217741500Y-66310000D03*
X207264000Y-68246500D03*
X207264000Y-66246500D03*
X201930000Y-97218500D03*
X201930000Y-98361500D03*
X203835000Y-97218500D03*
X203835000Y-98361500D03*
X217170000Y-97218500D03*
X217170000Y-98361500D03*
X219075000Y-97218500D03*
X219075000Y-98361500D03*
X217170000Y-87058500D03*
X217170000Y-88201500D03*
X219075000Y-87058500D03*
X219075000Y-88201500D03*
X201930000Y-87058500D03*
X201930000Y-88201500D03*
X203835000Y-87058500D03*
X203835000Y-88201500D03*
D22*
X226123500Y-71818500D03*
X225425000Y-71818500D03*
X224726500Y-71818500D03*
X224028000Y-71818500D03*
X223329500Y-71818500D03*
X222631000Y-71818500D03*
X221932500Y-71818500D03*
X221234000Y-71818500D03*
X220535500Y-71818500D03*
X219837000Y-71818500D03*
X219138500Y-71818500D03*
X218440000Y-71818500D03*
X217741500Y-71818500D03*
X217043000Y-71818500D03*
X216344500Y-71818500D03*
X215646000Y-71818500D03*
X214947500Y-71818500D03*
X214249000Y-71818500D03*
X213550500Y-71818500D03*
X212852000Y-71818500D03*
X212153500Y-71818500D03*
X211455000Y-71818500D03*
X210756500Y-71818500D03*
X210058000Y-71818500D03*
X209359500Y-71818500D03*
X208661000Y-71818500D03*
X207962500Y-71818500D03*
X207264000Y-71818500D03*
X206565500Y-71818500D03*
X205867000Y-71818500D03*
D23*
X223012000Y-93599000D03*
X223012000Y-89799000D03*
M02*
