G04 #@! TF.FileFunction,Paste,Top*
%FSLAX46Y46*%
G04 Gerber Fmt 4.6, Leading zero omitted, Abs format (unit mm)*
G04 Created by KiCad (PCBNEW 4.0.7-e2-6376~58~ubuntu16.04.1) date Tue Nov 14 14:50:52 2017*
%MOMM*%
%LPD*%
G01*
G04 APERTURE LIST*
%ADD10C,0.100000*%
%ADD11R,1.250000X1.000000*%
%ADD12R,1.000000X1.250000*%
%ADD13R,0.900000X0.800000*%
%ADD14R,0.800000X0.900000*%
%ADD15R,0.700000X1.300000*%
%ADD16R,1.300000X0.700000*%
%ADD17R,2.750000X1.000000*%
%ADD18R,1.500000X0.300000*%
%ADD19R,0.300000X1.500000*%
%ADD20R,0.300000X0.700000*%
G04 APERTURE END LIST*
D10*
D11*
X226060000Y-93488000D03*
X226060000Y-95488000D03*
X226047300Y-89988900D03*
X226047300Y-87988900D03*
D12*
X221885000Y-97409000D03*
X223885000Y-97409000D03*
D11*
X219583000Y-99679000D03*
X219583000Y-97679000D03*
X217551000Y-83423000D03*
X217551000Y-81423000D03*
D12*
X210550000Y-83185000D03*
X208550000Y-83185000D03*
X204422500Y-84645500D03*
X206422500Y-84645500D03*
D11*
X205105000Y-95901000D03*
X205105000Y-97901000D03*
D12*
X205597000Y-93599000D03*
X203597000Y-93599000D03*
D11*
X208280000Y-107331000D03*
X208280000Y-109331000D03*
D12*
X212582000Y-105283000D03*
X210582000Y-105283000D03*
D13*
X206121000Y-107281000D03*
X206121000Y-109381000D03*
D14*
X206087000Y-105283000D03*
X208187000Y-105283000D03*
D15*
X205039000Y-88519000D03*
X203139000Y-88519000D03*
D16*
X202311000Y-86675000D03*
X202311000Y-84775000D03*
D15*
X209616000Y-99695000D03*
X211516000Y-99695000D03*
D16*
X214426800Y-102067400D03*
X214426800Y-100167400D03*
X216255600Y-100167400D03*
X216255600Y-102067400D03*
D17*
X207858000Y-112046000D03*
X202098000Y-112046000D03*
X202098000Y-116046000D03*
X207858000Y-116046000D03*
X229702000Y-112046000D03*
X223942000Y-112046000D03*
X223942000Y-116046000D03*
X229702000Y-116046000D03*
D13*
X212455000Y-109281000D03*
X212455000Y-107381000D03*
X210455000Y-108331000D03*
D18*
X219377500Y-94872500D03*
X219377500Y-94372500D03*
X219377500Y-93872500D03*
X219377500Y-93372500D03*
X219377500Y-92872500D03*
X219377500Y-92372500D03*
X219377500Y-91872500D03*
X219377500Y-91372500D03*
X219377500Y-90872500D03*
X219377500Y-90372500D03*
X219377500Y-89872500D03*
X219377500Y-89372500D03*
X219377500Y-88872500D03*
X219377500Y-88372500D03*
X219377500Y-87872500D03*
X219377500Y-87372500D03*
D19*
X217427500Y-85422500D03*
X216927500Y-85422500D03*
X216427500Y-85422500D03*
X215927500Y-85422500D03*
X215427500Y-85422500D03*
X214927500Y-85422500D03*
X214427500Y-85422500D03*
X213927500Y-85422500D03*
X213427500Y-85422500D03*
X212927500Y-85422500D03*
X212427500Y-85422500D03*
X211927500Y-85422500D03*
X211427500Y-85422500D03*
X210927500Y-85422500D03*
X210427500Y-85422500D03*
X209927500Y-85422500D03*
D18*
X207977500Y-87372500D03*
X207977500Y-87872500D03*
X207977500Y-88372500D03*
X207977500Y-88872500D03*
X207977500Y-89372500D03*
X207977500Y-89872500D03*
X207977500Y-90372500D03*
X207977500Y-90872500D03*
X207977500Y-91372500D03*
X207977500Y-91872500D03*
X207977500Y-92372500D03*
X207977500Y-92872500D03*
X207977500Y-93372500D03*
X207977500Y-93872500D03*
X207977500Y-94372500D03*
X207977500Y-94872500D03*
D19*
X209927500Y-96822500D03*
X210427500Y-96822500D03*
X210927500Y-96822500D03*
X211427500Y-96822500D03*
X211927500Y-96822500D03*
X212427500Y-96822500D03*
X212927500Y-96822500D03*
X213427500Y-96822500D03*
X213927500Y-96822500D03*
X214427500Y-96822500D03*
X214927500Y-96822500D03*
X215427500Y-96822500D03*
X215927500Y-96822500D03*
X216427500Y-96822500D03*
X216927500Y-96822500D03*
X217427500Y-96822500D03*
D15*
X207076000Y-102108000D03*
X208976000Y-102108000D03*
X205933000Y-100076000D03*
X207833000Y-100076000D03*
D20*
X213150000Y-111820000D03*
X213650000Y-111820000D03*
X214150000Y-111820000D03*
X214650000Y-111820000D03*
X215150000Y-111820000D03*
X215650000Y-111820000D03*
X216150000Y-111820000D03*
X218650000Y-111820000D03*
X217650000Y-111820000D03*
X217150000Y-111820000D03*
X216650000Y-111820000D03*
X218150000Y-111820000D03*
M02*
