<svg id="Layer_1" data-name="Layer 1" xmlns="http://www.w3.org/2000/svg" viewBox="0 0 4253.01 899.68"><defs><style>.cls-1{fill:#f26822;}</style></defs><title>hw_logo_sekura_orange</title><polygon class="cls-1" points="1051.99 724.63 1230.65 545.63 1230 545.63 1230 546.17 1324.44 452.06 1230.48 358.11 1051.98 179.63 1385 179.63 1385 42.63 1256.89 42.63 727.16 42.63 1136.53 451.38 727.67 859.63 1385 859.63 1385 724.63 1051.99 724.63"/><polygon class="cls-1" points="1706.97 177.63 1528.31 356.63 1527 356.63 1527 355.81 1433.54 449.92 1527.99 543.94 1706.88 722.56 1706.88 722.56 1845.08 859.63 2031.8 859.63 2031.8 859.63 1622.43 450.88 2031.29 42.63 1845.08 42.63 1706.97 177.63 1706.97 177.63"/><polygon class="cls-1" points="407.55 454.63 596.68 454.63 598.83 452.27 504.68 358.21 325.98 179.63 659 179.63 659 42.63 530.89 42.63 1.16 42.63 410.53 451.52 407.55 454.63"/><polygon class="cls-1" points="253.41 451.63 64.28 451.63 62.13 453.85 156.28 547.98 334.98 726.63 0 726.63 0 863.63 130.06 863.63 659.8 863.63 250.43 454.74 253.41 451.63"/><polygon class="cls-1" points="3517.8 42.63 2988.06 42.63 2858 42.63 2858 179.63 3192.98 179.63 3014.19 358.11 2919.54 452.09 3013 546.17 3013 545.63 3014.31 545.63 3192.97 724.63 3191.77 724.63 3326.77 859.63 3517.29 859.63 3108.43 451.38 3517.8 42.63"/><polygon class="cls-1" points="3544.64 854.63 3686.14 854.63 3686.14 854.63 3795.42 586.39 3890.7 352.43 4105.03 861.08 4253.01 859.46 4096.52 488.15 3890.8 0 3672.98 535.82 3544.64 854.63"/><polygon class="cls-1" points="2790.76 44.63 2649.26 44.63 2649.26 44.63 2539.98 313.08 2444.7 547.15 2230.36 38.56 2082.39 40.2 2238.88 411.53 2444.6 899.68 2662.41 363.65 2790.76 44.63"/></svg>