<?xml version="1.0" encoding="UTF-8" standalone="no"?>
<!DOCTYPE svg PUBLIC "-//W3C//DTD SVG 1.1//EN" "http://www.w3.org/Graphics/SVG/1.1/DTD/svg11.dtd">
<!-- Generated by Microsoft Visio, SVG Export monero_hw.svg Page-1 -->
<svg xmlns="http://www.w3.org/2000/svg" xmlns:xlink="http://www.w3.org/1999/xlink" xmlns:ev="http://www.w3.org/2001/xml-events"
		xmlns:v="http://schemas.microsoft.com/visio/2003/SVGExtensions/" width="24.7877in" height="24.7777in"
		viewBox="0 0 1784.71 1783.99" xml:space="preserve" color-interpolation-filters="sRGB" class="st6">
	<v:documentProperties v:langID="1053" v:metric="true" v:viewMarkup="false">
		<v:userDefs>
			<v:ud v:nameU="msvNoAutoConnect" v:val="VT0(1):26"/>
		</v:userDefs>
	</v:documentProperties>

	<style type="text/css">
	<![CDATA[
		.st1 {fill:#edf8d8;stroke:#557518;stroke-linecap:round;stroke-linejoin:round;stroke-width:25}
		.st2 {fill:#fafdf2;stroke:#557518;stroke-linecap:round;stroke-linejoin:round;stroke-width:25}
		.st3 {fill:#ffffff;stroke:#557518;stroke-linecap:round;stroke-linejoin:round;stroke-width:20}
		.st4 {fill:#7aae26;stroke:none;stroke-linecap:butt;stroke-width:0.534965}
		.st5 {fill:#3e5512;stroke:none;stroke-linecap:butt;stroke-width:0.534965}
		.st6 {fill:none;fill-rule:evenodd;font-size:12px;overflow:visible;stroke-linecap:square;stroke-miterlimit:3}
	]]>
	</style>

	<g v:mID="0" v:index="1" v:groupContext="foregroundPage">
		<title>Page-1</title>
		<v:pageProperties v:drawingScale="0.0393701" v:pageScale="0.0393701" v:drawingUnits="24" v:shadowOffsetX="8.50394"
				v:shadowOffsetY="-8.50394"/>
		<g id="shape13-1" v:mID="13" v:groupContext="shape" transform="translate(375.1,-1540.89)">
			<title>Sheet.13</title>
			<rect x="0" y="1571.39" width="127.559" height="212.598" rx="34.0157" ry="34.0157" class="st1"/>
		</g>
		<g id="shape15-3" v:mID="15" v:groupContext="shape" transform="translate(601.872,-1540.89)">
			<title>Sheet.15</title>
			<rect x="0" y="1571.39" width="127.559" height="212.598" rx="34.0157" ry="34.0157" class="st1"/>
		</g>
		<g id="shape16-5" v:mID="16" v:groupContext="shape" transform="translate(828.643,-1540.89)">
			<title>Sheet.16</title>
			<rect x="0" y="1571.39" width="127.559" height="212.598" rx="34.0157" ry="34.0157" class="st1"/>
		</g>
		<g id="shape17-7" v:mID="17" v:groupContext="shape" transform="translate(1055.41,-1540.89)">
			<title>Sheet.17</title>
			<rect x="0" y="1571.39" width="127.559" height="212.598" rx="34.0157" ry="34.0157" class="st1"/>
		</g>
		<g id="shape20-9" v:mID="20" v:groupContext="shape" transform="translate(1282.19,-1540.89)">
			<title>Sheet.20</title>
			<rect x="0" y="1571.39" width="127.559" height="212.598" rx="34.0157" ry="34.0157" class="st1"/>
		</g>
		<g id="group21-11" transform="translate(297.518,-296.485)" v:mID="21" v:groupContext="group">
			<title>Sheet.21</title>
			<g id="shape3-12" v:mID="3" v:groupContext="shape" transform="translate(0,-1.1811)">
				<title>Sheet.3</title>
				<rect x="0" y="593.678" width="1190.31" height="1190.31" rx="34.0157" ry="34.0157" class="st2"/>
			</g>
			<g id="shape12-14" v:mID="12" v:groupContext="shape" transform="translate(62.5748,-1013.15)">
				<title>Sheet.12</title>
				<ellipse cx="56.6929" cy="1727.3" rx="56.6929" ry="56.6929" class="st3"/>
			</g>
		</g>
		<g id="shape22-16" v:mID="22" v:groupContext="shape" transform="translate(-1540.89,1409.79) rotate(-90)">
			<title>Sheet.22</title>
			<rect x="0" y="1571.39" width="127.559" height="212.598" rx="34.0157" ry="34.0157" class="st1"/>
		</g>
		<g id="shape23-18" v:mID="23" v:groupContext="shape" transform="translate(-1540.89,1183.02) rotate(-90)">
			<title>Sheet.23</title>
			<rect x="0" y="1571.39" width="127.559" height="212.598" rx="34.0157" ry="34.0157" class="st1"/>
		</g>
		<g id="shape24-20" v:mID="24" v:groupContext="shape" transform="translate(-1540.89,956.248) rotate(-90)">
			<title>Sheet.24</title>
			<rect x="0" y="1571.39" width="127.559" height="212.598" rx="34.0157" ry="34.0157" class="st1"/>
		</g>
		<g id="shape25-22" v:mID="25" v:groupContext="shape" transform="translate(-1540.89,729.476) rotate(-90)">
			<title>Sheet.25</title>
			<rect x="0" y="1571.39" width="127.559" height="212.598" rx="34.0157" ry="34.0157" class="st1"/>
		</g>
		<g id="shape26-24" v:mID="26" v:groupContext="shape" transform="translate(-1540.89,502.705) rotate(-90)">
			<title>Sheet.26</title>
			<rect x="0" y="1571.39" width="127.559" height="212.598" rx="34.0157" ry="34.0157" class="st1"/>
		</g>
		<g id="shape38-26" v:mID="38" v:groupContext="shape" transform="translate(-29.778,1409.61) rotate(-90)">
			<title>Sheet.38</title>
			<rect x="0" y="1571.39" width="127.559" height="212.598" rx="34.0157" ry="34.0157" class="st1"/>
		</g>
		<g id="shape39-28" v:mID="39" v:groupContext="shape" transform="translate(-29.778,1182.84) rotate(-90)">
			<title>Sheet.39</title>
			<rect x="0" y="1571.39" width="127.559" height="212.598" rx="34.0157" ry="34.0157" class="st1"/>
		</g>
		<g id="shape40-30" v:mID="40" v:groupContext="shape" transform="translate(-29.778,956.071) rotate(-90)">
			<title>Sheet.40</title>
			<rect x="0" y="1571.39" width="127.559" height="212.598" rx="34.0157" ry="34.0157" class="st1"/>
		</g>
		<g id="shape41-32" v:mID="41" v:groupContext="shape" transform="translate(-29.778,729.299) rotate(-90)">
			<title>Sheet.41</title>
			<rect x="0" y="1571.39" width="127.559" height="212.598" rx="34.0157" ry="34.0157" class="st1"/>
		</g>
		<g id="shape42-34" v:mID="42" v:groupContext="shape" transform="translate(-29.778,502.528) rotate(-90)">
			<title>Sheet.42</title>
			<rect x="0" y="1571.39" width="127.559" height="212.598" rx="34.0157" ry="34.0157" class="st1"/>
		</g>
		<g id="shape43-36" v:mID="43" v:groupContext="shape" transform="translate(375.421,-30.5)">
			<title>Sheet.43</title>
			<rect x="0" y="1571.39" width="127.559" height="212.598" rx="34.0157" ry="34.0157" class="st1"/>
		</g>
		<g id="shape44-38" v:mID="44" v:groupContext="shape" transform="translate(602.192,-30.5)">
			<title>Sheet.44</title>
			<rect x="0" y="1571.39" width="127.559" height="212.598" rx="34.0157" ry="34.0157" class="st1"/>
		</g>
		<g id="shape45-40" v:mID="45" v:groupContext="shape" transform="translate(828.964,-30.5)">
			<title>Sheet.45</title>
			<rect x="0" y="1571.39" width="127.559" height="212.598" rx="34.0157" ry="34.0157" class="st1"/>
		</g>
		<g id="shape46-42" v:mID="46" v:groupContext="shape" transform="translate(1055.74,-30.5)">
			<title>Sheet.46</title>
			<rect x="0" y="1571.39" width="127.559" height="212.598" rx="34.0157" ry="34.0157" class="st1"/>
		</g>
		<g id="shape47-44" v:mID="47" v:groupContext="shape" transform="translate(1282.51,-30.5)">
			<title>Sheet.47</title>
			<rect x="0" y="1571.39" width="127.559" height="212.598" rx="34.0157" ry="34.0157" class="st1"/>
		</g>
		<g id="group51-46" transform="translate(361.179,-354.279)" v:mID="51" v:groupContext="group">
			<title>Sheet.51</title>
			<g id="shape49-47" v:mID="49" v:groupContext="shape" transform="translate(0,-375.08)">
				<title>Sheet.49</title>
				<path d="M187.64 1340 C187.64 1341.79 187.64 1343.58 187.64 1345.37 C187.64 1489.36 187.64 1633.34 187.74 1777.43
							 C187.74 1782.3 186.84 1783.99 181.47 1783.99 C131.76 1783.79 82.04 1783.79 32.32 1783.89 C28.84 1783.89
							 27.35 1783 26.25 1779.42 C18.79 1755.65 12.63 1731.49 8.55 1706.93 C5.87 1690.72 3.88 1674.41 2.49 1658
							 C0.8 1637.92 0 1617.83 0.89 1597.74 C1.49 1583.13 2.68 1568.41 4.38 1553.79 C7.36 1527.14 12.73 1500.99
							 19.49 1475.04 C25.46 1452.47 33.31 1430.59 42.26 1409.11 C48.72 1393.7 56.18 1378.68 64.04 1363.97 C77.26
							 1339.01 92.58 1315.34 109.98 1292.97 C120.52 1279.44 131.66 1266.42 143.19 1253.69 C157.21 1238.28 172.43
							 1224.45 188.14 1210.83 C205.54 1195.82 223.93 1182.29 243.23 1169.76 C268.68 1153.16 295.63 1139.34
							 323.47 1127.1 C352.31 1114.48 382.24 1105.13 412.77 1097.97 C428.68 1094.29 444.89 1091.41 461.19 1089.52
							 C476.31 1087.73 491.42 1086.43 506.64 1085.44 C520.56 1084.55 534.38 1084.35 548.2 1084.94 C563.32 1085.54
							 578.53 1086.73 593.64 1088.42 C620.49 1091.51 646.84 1096.68 672.8 1103.64 C695.17 1109.6 716.95 1117.36
							 738.23 1126.31 C753.84 1132.87 768.95 1140.33 783.87 1148.29 C808.63 1161.51 832.2 1176.72 854.37 1194.03
							 C867.89 1204.57 880.92 1215.7 893.65 1227.24 C915.43 1247.13 934.52 1269.2 952.72 1292.27 C977.57 1323.89
							 997.76 1358.2 1014.57 1394.49 C1030.28 1428.3 1042.11 1463.5 1049.77 1500.1 C1053.45 1517.8 1056.73
							 1535.4 1058.72 1553.4 C1060.01 1565.43 1060.8 1577.46 1061.8 1589.59 C1062.89 1603.61 1062.99 1617.63
							 1062.4 1631.65 C1061.8 1646.97 1060.61 1662.28 1058.92 1677.59 C1055.83 1704.44 1050.56 1730.69 1043.7
							 1756.75 C1041.61 1764.7 1038.93 1772.56 1036.84 1780.51 C1035.94 1783.69 1033.86 1783.69 1031.27 1783.69
							 C1000.74 1783.69 970.32 1783.69 939.79 1783.69 C920.2 1783.69 900.71 1783.49 881.12 1783.79 C876.25
							 1783.89 875.65 1782.1 875.65 1777.93 C875.75 1633.74 875.75 1489.56 875.75 1345.37 C875.75 1343.58 875.75
							 1341.69 875.75 1339.5 C873.56 1340.1 872.57 1341.89 871.28 1343.08 C759.51 1455.05 647.84 1566.62 536.27
							 1678.39 C532.79 1681.87 531 1682.37 527.22 1678.59 C415.65 1566.82 303.98 1455.15 192.31 1343.48 C191.02
							 1342.19 190.03 1340.7 188.83 1339.31 C188.43 1339.5 188.04 1339.8 187.64 1340 Z" class="st4"/>
			</g>
			<g id="shape50-49" v:mID="50" v:groupContext="shape" transform="translate(77.4622,0)">
				<title>Sheet.50</title>
				<path d="M0 1516.11 C2.98 1516.11 4.87 1516.11 6.66 1516.11 C77.06 1516.11 147.57 1516.11 217.97 1516.21 C222.34
							 1516.21 223.64 1515.31 223.64 1510.64 C223.44 1420.45 223.54 1330.36 223.54 1240.17 C223.54 1238.38
							 223.54 1236.69 223.54 1234.5 C226.22 1235.09 227.22 1236.88 228.51 1238.18 C302.49 1312.06 376.47 1386.04
							 450.26 1460.02 C453.54 1463.3 455.13 1463.01 458.21 1459.92 C531.79 1386.14 605.58 1312.46 679.26 1238.77
							 C679.76 1238.28 680.16 1237.78 680.65 1237.38 C681.75 1236.49 682.54 1234.4 684.03 1234.9 C685.92 1235.59
							 684.83 1237.78 684.83 1239.27 C684.93 1329.56 684.93 1419.95 684.73 1510.24 C684.73 1514.91 685.62 1516.21
							 690.5 1516.21 C760.9 1516.01 831.4 1516.11 901.8 1516.11 C903.59 1516.11 905.38 1516.11 908.17 1516.11
							 C883.61 1556.98 854.47 1593.27 820.36 1625.39 C741.21 1699.87 648.04 1747.2 540.54 1764.6 C420.13 1783.99
							 305.77 1764.8 198.68 1706.43 C115.94 1661.19 50.02 1597.65 0 1516.11 Z" class="st5"/>
			</g>
		</g>
	</g>
</svg>
