G04 #@! TF.FileFunction,Paste,Top*
%FSLAX46Y46*%
G04 Gerber Fmt 4.6, Leading zero omitted, Abs format (unit mm)*
G04 Created by KiCad (PCBNEW 4.0.6) date Fri Nov 17 13:30:40 2017*
%MOMM*%
%LPD*%
G01*
G04 APERTURE LIST*
%ADD10C,0.100000*%
%ADD11R,1.000000X1.250000*%
%ADD12R,1.250000X1.000000*%
%ADD13R,0.700000X0.600000*%
%ADD14R,0.300000X0.700000*%
%ADD15R,2.750000X1.000000*%
%ADD16R,1.500000X0.300000*%
%ADD17R,0.300000X1.500000*%
%ADD18R,0.900000X0.800000*%
%ADD19R,2.000000X1.800000*%
%ADD20R,1.000000X1.524000*%
G04 APERTURE END LIST*
D10*
D11*
X87004400Y-54203600D03*
X85004400Y-54203600D03*
D12*
X82397600Y-66106800D03*
X82397600Y-68106800D03*
X79883000Y-66659000D03*
X79883000Y-64659000D03*
X77851000Y-50403000D03*
X77851000Y-48403000D03*
D11*
X70850000Y-50165000D03*
X68850000Y-50165000D03*
X64722500Y-51625500D03*
X66722500Y-51625500D03*
D12*
X65405000Y-62881000D03*
X65405000Y-64881000D03*
D11*
X65897000Y-60579000D03*
X63897000Y-60579000D03*
D12*
X68580000Y-74311000D03*
X68580000Y-76311000D03*
D11*
X72882000Y-72263000D03*
X70882000Y-72263000D03*
D13*
X66421000Y-76011000D03*
X66421000Y-74611000D03*
D11*
X66437000Y-72263000D03*
X68437000Y-72263000D03*
D14*
X73450000Y-78800000D03*
X73950000Y-78800000D03*
X74450000Y-78800000D03*
X74950000Y-78800000D03*
X75450000Y-78800000D03*
X75950000Y-78800000D03*
X76450000Y-78800000D03*
X78950000Y-78800000D03*
X77950000Y-78800000D03*
X77450000Y-78800000D03*
X76950000Y-78800000D03*
X78450000Y-78800000D03*
D11*
X67224400Y-69545200D03*
X69224400Y-69545200D03*
X65389000Y-55499000D03*
X63389000Y-55499000D03*
D12*
X62611000Y-53705000D03*
X62611000Y-51705000D03*
D11*
X70120000Y-67081400D03*
X72120000Y-67081400D03*
D12*
X74726800Y-69097400D03*
X74726800Y-67097400D03*
X76555600Y-67097400D03*
X76555600Y-69097400D03*
D11*
X66183000Y-67056000D03*
X68183000Y-67056000D03*
D12*
X63322200Y-47361600D03*
X63322200Y-49361600D03*
X87198200Y-45050200D03*
X87198200Y-47050200D03*
D15*
X68158000Y-79026000D03*
X62398000Y-79026000D03*
X62398000Y-83026000D03*
X68158000Y-83026000D03*
X90002000Y-79026000D03*
X84242000Y-79026000D03*
X84242000Y-83026000D03*
X90002000Y-83026000D03*
D16*
X79677500Y-61852500D03*
X79677500Y-61352500D03*
X79677500Y-60852500D03*
X79677500Y-60352500D03*
X79677500Y-59852500D03*
X79677500Y-59352500D03*
X79677500Y-58852500D03*
X79677500Y-58352500D03*
X79677500Y-57852500D03*
X79677500Y-57352500D03*
X79677500Y-56852500D03*
X79677500Y-56352500D03*
X79677500Y-55852500D03*
X79677500Y-55352500D03*
X79677500Y-54852500D03*
X79677500Y-54352500D03*
D17*
X77727500Y-52402500D03*
X77227500Y-52402500D03*
X76727500Y-52402500D03*
X76227500Y-52402500D03*
X75727500Y-52402500D03*
X75227500Y-52402500D03*
X74727500Y-52402500D03*
X74227500Y-52402500D03*
X73727500Y-52402500D03*
X73227500Y-52402500D03*
X72727500Y-52402500D03*
X72227500Y-52402500D03*
X71727500Y-52402500D03*
X71227500Y-52402500D03*
X70727500Y-52402500D03*
X70227500Y-52402500D03*
D16*
X68277500Y-54352500D03*
X68277500Y-54852500D03*
X68277500Y-55352500D03*
X68277500Y-55852500D03*
X68277500Y-56352500D03*
X68277500Y-56852500D03*
X68277500Y-57352500D03*
X68277500Y-57852500D03*
X68277500Y-58352500D03*
X68277500Y-58852500D03*
X68277500Y-59352500D03*
X68277500Y-59852500D03*
X68277500Y-60352500D03*
X68277500Y-60852500D03*
X68277500Y-61352500D03*
X68277500Y-61852500D03*
D17*
X70227500Y-63802500D03*
X70727500Y-63802500D03*
X71227500Y-63802500D03*
X71727500Y-63802500D03*
X72227500Y-63802500D03*
X72727500Y-63802500D03*
X73227500Y-63802500D03*
X73727500Y-63802500D03*
X74227500Y-63802500D03*
X74727500Y-63802500D03*
X75227500Y-63802500D03*
X75727500Y-63802500D03*
X76227500Y-63802500D03*
X76727500Y-63802500D03*
X77227500Y-63802500D03*
X77727500Y-63802500D03*
D18*
X72755000Y-76261000D03*
X72755000Y-74361000D03*
X70755000Y-75311000D03*
D11*
X84318600Y-65379600D03*
X86318600Y-65379600D03*
D19*
X88142500Y-62166500D03*
X88142500Y-57086500D03*
X83942500Y-57086500D03*
X83942500Y-62166500D03*
D20*
X90805000Y-71501000D03*
X90805000Y-69469000D03*
D11*
X123834400Y-54203600D03*
X121834400Y-54203600D03*
D12*
X119227600Y-66106800D03*
X119227600Y-68106800D03*
X116713000Y-66659000D03*
X116713000Y-64659000D03*
X114681000Y-50403000D03*
X114681000Y-48403000D03*
D11*
X107680000Y-50165000D03*
X105680000Y-50165000D03*
X101552500Y-51625500D03*
X103552500Y-51625500D03*
D12*
X102235000Y-62881000D03*
X102235000Y-64881000D03*
D11*
X102727000Y-60579000D03*
X100727000Y-60579000D03*
D12*
X105410000Y-74311000D03*
X105410000Y-76311000D03*
D11*
X109712000Y-72263000D03*
X107712000Y-72263000D03*
D13*
X103251000Y-76011000D03*
X103251000Y-74611000D03*
D11*
X103267000Y-72263000D03*
X105267000Y-72263000D03*
D14*
X110280000Y-78800000D03*
X110780000Y-78800000D03*
X111280000Y-78800000D03*
X111780000Y-78800000D03*
X112280000Y-78800000D03*
X112780000Y-78800000D03*
X113280000Y-78800000D03*
X115780000Y-78800000D03*
X114780000Y-78800000D03*
X114280000Y-78800000D03*
X113780000Y-78800000D03*
X115280000Y-78800000D03*
D11*
X104054400Y-69545200D03*
X106054400Y-69545200D03*
X102219000Y-55499000D03*
X100219000Y-55499000D03*
D12*
X99441000Y-53705000D03*
X99441000Y-51705000D03*
D11*
X106950000Y-67081400D03*
X108950000Y-67081400D03*
D12*
X111556800Y-69097400D03*
X111556800Y-67097400D03*
X113385600Y-67097400D03*
X113385600Y-69097400D03*
D11*
X103013000Y-67056000D03*
X105013000Y-67056000D03*
D12*
X100152200Y-47361600D03*
X100152200Y-49361600D03*
X124028200Y-45050200D03*
X124028200Y-47050200D03*
D15*
X104988000Y-79026000D03*
X99228000Y-79026000D03*
X99228000Y-83026000D03*
X104988000Y-83026000D03*
X126832000Y-79026000D03*
X121072000Y-79026000D03*
X121072000Y-83026000D03*
X126832000Y-83026000D03*
D16*
X116507500Y-61852500D03*
X116507500Y-61352500D03*
X116507500Y-60852500D03*
X116507500Y-60352500D03*
X116507500Y-59852500D03*
X116507500Y-59352500D03*
X116507500Y-58852500D03*
X116507500Y-58352500D03*
X116507500Y-57852500D03*
X116507500Y-57352500D03*
X116507500Y-56852500D03*
X116507500Y-56352500D03*
X116507500Y-55852500D03*
X116507500Y-55352500D03*
X116507500Y-54852500D03*
X116507500Y-54352500D03*
D17*
X114557500Y-52402500D03*
X114057500Y-52402500D03*
X113557500Y-52402500D03*
X113057500Y-52402500D03*
X112557500Y-52402500D03*
X112057500Y-52402500D03*
X111557500Y-52402500D03*
X111057500Y-52402500D03*
X110557500Y-52402500D03*
X110057500Y-52402500D03*
X109557500Y-52402500D03*
X109057500Y-52402500D03*
X108557500Y-52402500D03*
X108057500Y-52402500D03*
X107557500Y-52402500D03*
X107057500Y-52402500D03*
D16*
X105107500Y-54352500D03*
X105107500Y-54852500D03*
X105107500Y-55352500D03*
X105107500Y-55852500D03*
X105107500Y-56352500D03*
X105107500Y-56852500D03*
X105107500Y-57352500D03*
X105107500Y-57852500D03*
X105107500Y-58352500D03*
X105107500Y-58852500D03*
X105107500Y-59352500D03*
X105107500Y-59852500D03*
X105107500Y-60352500D03*
X105107500Y-60852500D03*
X105107500Y-61352500D03*
X105107500Y-61852500D03*
D17*
X107057500Y-63802500D03*
X107557500Y-63802500D03*
X108057500Y-63802500D03*
X108557500Y-63802500D03*
X109057500Y-63802500D03*
X109557500Y-63802500D03*
X110057500Y-63802500D03*
X110557500Y-63802500D03*
X111057500Y-63802500D03*
X111557500Y-63802500D03*
X112057500Y-63802500D03*
X112557500Y-63802500D03*
X113057500Y-63802500D03*
X113557500Y-63802500D03*
X114057500Y-63802500D03*
X114557500Y-63802500D03*
D18*
X109585000Y-76261000D03*
X109585000Y-74361000D03*
X107585000Y-75311000D03*
D11*
X121148600Y-65379600D03*
X123148600Y-65379600D03*
D19*
X124972500Y-62166500D03*
X124972500Y-57086500D03*
X120772500Y-57086500D03*
X120772500Y-62166500D03*
D20*
X127635000Y-71501000D03*
X127635000Y-69469000D03*
D11*
X160664400Y-54203600D03*
X158664400Y-54203600D03*
D12*
X156057600Y-66106800D03*
X156057600Y-68106800D03*
X153543000Y-66659000D03*
X153543000Y-64659000D03*
X151511000Y-50403000D03*
X151511000Y-48403000D03*
D11*
X144510000Y-50165000D03*
X142510000Y-50165000D03*
X138382500Y-51625500D03*
X140382500Y-51625500D03*
D12*
X139065000Y-62881000D03*
X139065000Y-64881000D03*
D11*
X139557000Y-60579000D03*
X137557000Y-60579000D03*
D12*
X142240000Y-74311000D03*
X142240000Y-76311000D03*
D11*
X146542000Y-72263000D03*
X144542000Y-72263000D03*
D13*
X140081000Y-76011000D03*
X140081000Y-74611000D03*
D11*
X140097000Y-72263000D03*
X142097000Y-72263000D03*
D14*
X147110000Y-78800000D03*
X147610000Y-78800000D03*
X148110000Y-78800000D03*
X148610000Y-78800000D03*
X149110000Y-78800000D03*
X149610000Y-78800000D03*
X150110000Y-78800000D03*
X152610000Y-78800000D03*
X151610000Y-78800000D03*
X151110000Y-78800000D03*
X150610000Y-78800000D03*
X152110000Y-78800000D03*
D11*
X140884400Y-69545200D03*
X142884400Y-69545200D03*
X139049000Y-55499000D03*
X137049000Y-55499000D03*
D12*
X136271000Y-53705000D03*
X136271000Y-51705000D03*
D11*
X143780000Y-67081400D03*
X145780000Y-67081400D03*
D12*
X148386800Y-69097400D03*
X148386800Y-67097400D03*
X150215600Y-67097400D03*
X150215600Y-69097400D03*
D11*
X139843000Y-67056000D03*
X141843000Y-67056000D03*
D12*
X136982200Y-47361600D03*
X136982200Y-49361600D03*
X160858200Y-45050200D03*
X160858200Y-47050200D03*
D15*
X141818000Y-79026000D03*
X136058000Y-79026000D03*
X136058000Y-83026000D03*
X141818000Y-83026000D03*
X163662000Y-79026000D03*
X157902000Y-79026000D03*
X157902000Y-83026000D03*
X163662000Y-83026000D03*
D16*
X153337500Y-61852500D03*
X153337500Y-61352500D03*
X153337500Y-60852500D03*
X153337500Y-60352500D03*
X153337500Y-59852500D03*
X153337500Y-59352500D03*
X153337500Y-58852500D03*
X153337500Y-58352500D03*
X153337500Y-57852500D03*
X153337500Y-57352500D03*
X153337500Y-56852500D03*
X153337500Y-56352500D03*
X153337500Y-55852500D03*
X153337500Y-55352500D03*
X153337500Y-54852500D03*
X153337500Y-54352500D03*
D17*
X151387500Y-52402500D03*
X150887500Y-52402500D03*
X150387500Y-52402500D03*
X149887500Y-52402500D03*
X149387500Y-52402500D03*
X148887500Y-52402500D03*
X148387500Y-52402500D03*
X147887500Y-52402500D03*
X147387500Y-52402500D03*
X146887500Y-52402500D03*
X146387500Y-52402500D03*
X145887500Y-52402500D03*
X145387500Y-52402500D03*
X144887500Y-52402500D03*
X144387500Y-52402500D03*
X143887500Y-52402500D03*
D16*
X141937500Y-54352500D03*
X141937500Y-54852500D03*
X141937500Y-55352500D03*
X141937500Y-55852500D03*
X141937500Y-56352500D03*
X141937500Y-56852500D03*
X141937500Y-57352500D03*
X141937500Y-57852500D03*
X141937500Y-58352500D03*
X141937500Y-58852500D03*
X141937500Y-59352500D03*
X141937500Y-59852500D03*
X141937500Y-60352500D03*
X141937500Y-60852500D03*
X141937500Y-61352500D03*
X141937500Y-61852500D03*
D17*
X143887500Y-63802500D03*
X144387500Y-63802500D03*
X144887500Y-63802500D03*
X145387500Y-63802500D03*
X145887500Y-63802500D03*
X146387500Y-63802500D03*
X146887500Y-63802500D03*
X147387500Y-63802500D03*
X147887500Y-63802500D03*
X148387500Y-63802500D03*
X148887500Y-63802500D03*
X149387500Y-63802500D03*
X149887500Y-63802500D03*
X150387500Y-63802500D03*
X150887500Y-63802500D03*
X151387500Y-63802500D03*
D18*
X146415000Y-76261000D03*
X146415000Y-74361000D03*
X144415000Y-75311000D03*
D11*
X157978600Y-65379600D03*
X159978600Y-65379600D03*
D19*
X161802500Y-62166500D03*
X161802500Y-57086500D03*
X157602500Y-57086500D03*
X157602500Y-62166500D03*
D20*
X164465000Y-71501000D03*
X164465000Y-69469000D03*
D11*
X197494400Y-54203600D03*
X195494400Y-54203600D03*
D12*
X192887600Y-66106800D03*
X192887600Y-68106800D03*
X190373000Y-66659000D03*
X190373000Y-64659000D03*
X188341000Y-50403000D03*
X188341000Y-48403000D03*
D11*
X181340000Y-50165000D03*
X179340000Y-50165000D03*
X175212500Y-51625500D03*
X177212500Y-51625500D03*
D12*
X175895000Y-62881000D03*
X175895000Y-64881000D03*
D11*
X176387000Y-60579000D03*
X174387000Y-60579000D03*
D12*
X179070000Y-74311000D03*
X179070000Y-76311000D03*
D11*
X183372000Y-72263000D03*
X181372000Y-72263000D03*
D13*
X176911000Y-76011000D03*
X176911000Y-74611000D03*
D11*
X176927000Y-72263000D03*
X178927000Y-72263000D03*
D14*
X183940000Y-78800000D03*
X184440000Y-78800000D03*
X184940000Y-78800000D03*
X185440000Y-78800000D03*
X185940000Y-78800000D03*
X186440000Y-78800000D03*
X186940000Y-78800000D03*
X189440000Y-78800000D03*
X188440000Y-78800000D03*
X187940000Y-78800000D03*
X187440000Y-78800000D03*
X188940000Y-78800000D03*
D11*
X177714400Y-69545200D03*
X179714400Y-69545200D03*
X175879000Y-55499000D03*
X173879000Y-55499000D03*
D12*
X173101000Y-53705000D03*
X173101000Y-51705000D03*
D11*
X180610000Y-67081400D03*
X182610000Y-67081400D03*
D12*
X185216800Y-69097400D03*
X185216800Y-67097400D03*
X187045600Y-67097400D03*
X187045600Y-69097400D03*
D11*
X176673000Y-67056000D03*
X178673000Y-67056000D03*
D12*
X173812200Y-47361600D03*
X173812200Y-49361600D03*
X197688200Y-45050200D03*
X197688200Y-47050200D03*
D15*
X178648000Y-79026000D03*
X172888000Y-79026000D03*
X172888000Y-83026000D03*
X178648000Y-83026000D03*
X200492000Y-79026000D03*
X194732000Y-79026000D03*
X194732000Y-83026000D03*
X200492000Y-83026000D03*
D16*
X190167500Y-61852500D03*
X190167500Y-61352500D03*
X190167500Y-60852500D03*
X190167500Y-60352500D03*
X190167500Y-59852500D03*
X190167500Y-59352500D03*
X190167500Y-58852500D03*
X190167500Y-58352500D03*
X190167500Y-57852500D03*
X190167500Y-57352500D03*
X190167500Y-56852500D03*
X190167500Y-56352500D03*
X190167500Y-55852500D03*
X190167500Y-55352500D03*
X190167500Y-54852500D03*
X190167500Y-54352500D03*
D17*
X188217500Y-52402500D03*
X187717500Y-52402500D03*
X187217500Y-52402500D03*
X186717500Y-52402500D03*
X186217500Y-52402500D03*
X185717500Y-52402500D03*
X185217500Y-52402500D03*
X184717500Y-52402500D03*
X184217500Y-52402500D03*
X183717500Y-52402500D03*
X183217500Y-52402500D03*
X182717500Y-52402500D03*
X182217500Y-52402500D03*
X181717500Y-52402500D03*
X181217500Y-52402500D03*
X180717500Y-52402500D03*
D16*
X178767500Y-54352500D03*
X178767500Y-54852500D03*
X178767500Y-55352500D03*
X178767500Y-55852500D03*
X178767500Y-56352500D03*
X178767500Y-56852500D03*
X178767500Y-57352500D03*
X178767500Y-57852500D03*
X178767500Y-58352500D03*
X178767500Y-58852500D03*
X178767500Y-59352500D03*
X178767500Y-59852500D03*
X178767500Y-60352500D03*
X178767500Y-60852500D03*
X178767500Y-61352500D03*
X178767500Y-61852500D03*
D17*
X180717500Y-63802500D03*
X181217500Y-63802500D03*
X181717500Y-63802500D03*
X182217500Y-63802500D03*
X182717500Y-63802500D03*
X183217500Y-63802500D03*
X183717500Y-63802500D03*
X184217500Y-63802500D03*
X184717500Y-63802500D03*
X185217500Y-63802500D03*
X185717500Y-63802500D03*
X186217500Y-63802500D03*
X186717500Y-63802500D03*
X187217500Y-63802500D03*
X187717500Y-63802500D03*
X188217500Y-63802500D03*
D18*
X183245000Y-76261000D03*
X183245000Y-74361000D03*
X181245000Y-75311000D03*
D11*
X194808600Y-65379600D03*
X196808600Y-65379600D03*
D19*
X198632500Y-62166500D03*
X198632500Y-57086500D03*
X194432500Y-57086500D03*
X194432500Y-62166500D03*
D20*
X201295000Y-71501000D03*
X201295000Y-69469000D03*
D11*
X234324400Y-54203600D03*
X232324400Y-54203600D03*
D12*
X229717600Y-66106800D03*
X229717600Y-68106800D03*
X227203000Y-66659000D03*
X227203000Y-64659000D03*
X225171000Y-50403000D03*
X225171000Y-48403000D03*
D11*
X218170000Y-50165000D03*
X216170000Y-50165000D03*
X212042500Y-51625500D03*
X214042500Y-51625500D03*
D12*
X212725000Y-62881000D03*
X212725000Y-64881000D03*
D11*
X213217000Y-60579000D03*
X211217000Y-60579000D03*
D12*
X215900000Y-74311000D03*
X215900000Y-76311000D03*
D11*
X220202000Y-72263000D03*
X218202000Y-72263000D03*
D13*
X213741000Y-76011000D03*
X213741000Y-74611000D03*
D11*
X213757000Y-72263000D03*
X215757000Y-72263000D03*
D14*
X220770000Y-78800000D03*
X221270000Y-78800000D03*
X221770000Y-78800000D03*
X222270000Y-78800000D03*
X222770000Y-78800000D03*
X223270000Y-78800000D03*
X223770000Y-78800000D03*
X226270000Y-78800000D03*
X225270000Y-78800000D03*
X224770000Y-78800000D03*
X224270000Y-78800000D03*
X225770000Y-78800000D03*
D11*
X214544400Y-69545200D03*
X216544400Y-69545200D03*
X212709000Y-55499000D03*
X210709000Y-55499000D03*
D12*
X209931000Y-53705000D03*
X209931000Y-51705000D03*
D11*
X217440000Y-67081400D03*
X219440000Y-67081400D03*
D12*
X222046800Y-69097400D03*
X222046800Y-67097400D03*
X223875600Y-67097400D03*
X223875600Y-69097400D03*
D11*
X213503000Y-67056000D03*
X215503000Y-67056000D03*
D12*
X210642200Y-47361600D03*
X210642200Y-49361600D03*
X234518200Y-45050200D03*
X234518200Y-47050200D03*
D15*
X215478000Y-79026000D03*
X209718000Y-79026000D03*
X209718000Y-83026000D03*
X215478000Y-83026000D03*
X237322000Y-79026000D03*
X231562000Y-79026000D03*
X231562000Y-83026000D03*
X237322000Y-83026000D03*
D16*
X226997500Y-61852500D03*
X226997500Y-61352500D03*
X226997500Y-60852500D03*
X226997500Y-60352500D03*
X226997500Y-59852500D03*
X226997500Y-59352500D03*
X226997500Y-58852500D03*
X226997500Y-58352500D03*
X226997500Y-57852500D03*
X226997500Y-57352500D03*
X226997500Y-56852500D03*
X226997500Y-56352500D03*
X226997500Y-55852500D03*
X226997500Y-55352500D03*
X226997500Y-54852500D03*
X226997500Y-54352500D03*
D17*
X225047500Y-52402500D03*
X224547500Y-52402500D03*
X224047500Y-52402500D03*
X223547500Y-52402500D03*
X223047500Y-52402500D03*
X222547500Y-52402500D03*
X222047500Y-52402500D03*
X221547500Y-52402500D03*
X221047500Y-52402500D03*
X220547500Y-52402500D03*
X220047500Y-52402500D03*
X219547500Y-52402500D03*
X219047500Y-52402500D03*
X218547500Y-52402500D03*
X218047500Y-52402500D03*
X217547500Y-52402500D03*
D16*
X215597500Y-54352500D03*
X215597500Y-54852500D03*
X215597500Y-55352500D03*
X215597500Y-55852500D03*
X215597500Y-56352500D03*
X215597500Y-56852500D03*
X215597500Y-57352500D03*
X215597500Y-57852500D03*
X215597500Y-58352500D03*
X215597500Y-58852500D03*
X215597500Y-59352500D03*
X215597500Y-59852500D03*
X215597500Y-60352500D03*
X215597500Y-60852500D03*
X215597500Y-61352500D03*
X215597500Y-61852500D03*
D17*
X217547500Y-63802500D03*
X218047500Y-63802500D03*
X218547500Y-63802500D03*
X219047500Y-63802500D03*
X219547500Y-63802500D03*
X220047500Y-63802500D03*
X220547500Y-63802500D03*
X221047500Y-63802500D03*
X221547500Y-63802500D03*
X222047500Y-63802500D03*
X222547500Y-63802500D03*
X223047500Y-63802500D03*
X223547500Y-63802500D03*
X224047500Y-63802500D03*
X224547500Y-63802500D03*
X225047500Y-63802500D03*
D18*
X220075000Y-76261000D03*
X220075000Y-74361000D03*
X218075000Y-75311000D03*
D11*
X231638600Y-65379600D03*
X233638600Y-65379600D03*
D19*
X235462500Y-62166500D03*
X235462500Y-57086500D03*
X231262500Y-57086500D03*
X231262500Y-62166500D03*
D20*
X238125000Y-71501000D03*
X238125000Y-69469000D03*
D11*
X87004400Y-107543600D03*
X85004400Y-107543600D03*
D12*
X82397600Y-119446800D03*
X82397600Y-121446800D03*
X79883000Y-119999000D03*
X79883000Y-117999000D03*
X77851000Y-103743000D03*
X77851000Y-101743000D03*
D11*
X70850000Y-103505000D03*
X68850000Y-103505000D03*
X64722500Y-104965500D03*
X66722500Y-104965500D03*
D12*
X65405000Y-116221000D03*
X65405000Y-118221000D03*
D11*
X65897000Y-113919000D03*
X63897000Y-113919000D03*
D12*
X68580000Y-127651000D03*
X68580000Y-129651000D03*
D11*
X72882000Y-125603000D03*
X70882000Y-125603000D03*
D13*
X66421000Y-129351000D03*
X66421000Y-127951000D03*
D11*
X66437000Y-125603000D03*
X68437000Y-125603000D03*
D14*
X73450000Y-132140000D03*
X73950000Y-132140000D03*
X74450000Y-132140000D03*
X74950000Y-132140000D03*
X75450000Y-132140000D03*
X75950000Y-132140000D03*
X76450000Y-132140000D03*
X78950000Y-132140000D03*
X77950000Y-132140000D03*
X77450000Y-132140000D03*
X76950000Y-132140000D03*
X78450000Y-132140000D03*
D11*
X67224400Y-122885200D03*
X69224400Y-122885200D03*
X65389000Y-108839000D03*
X63389000Y-108839000D03*
D12*
X62611000Y-107045000D03*
X62611000Y-105045000D03*
D11*
X70120000Y-120421400D03*
X72120000Y-120421400D03*
D12*
X74726800Y-122437400D03*
X74726800Y-120437400D03*
X76555600Y-120437400D03*
X76555600Y-122437400D03*
D11*
X66183000Y-120396000D03*
X68183000Y-120396000D03*
D12*
X63322200Y-100701600D03*
X63322200Y-102701600D03*
X87198200Y-98390200D03*
X87198200Y-100390200D03*
D15*
X68158000Y-132366000D03*
X62398000Y-132366000D03*
X62398000Y-136366000D03*
X68158000Y-136366000D03*
X90002000Y-132366000D03*
X84242000Y-132366000D03*
X84242000Y-136366000D03*
X90002000Y-136366000D03*
D16*
X79677500Y-115192500D03*
X79677500Y-114692500D03*
X79677500Y-114192500D03*
X79677500Y-113692500D03*
X79677500Y-113192500D03*
X79677500Y-112692500D03*
X79677500Y-112192500D03*
X79677500Y-111692500D03*
X79677500Y-111192500D03*
X79677500Y-110692500D03*
X79677500Y-110192500D03*
X79677500Y-109692500D03*
X79677500Y-109192500D03*
X79677500Y-108692500D03*
X79677500Y-108192500D03*
X79677500Y-107692500D03*
D17*
X77727500Y-105742500D03*
X77227500Y-105742500D03*
X76727500Y-105742500D03*
X76227500Y-105742500D03*
X75727500Y-105742500D03*
X75227500Y-105742500D03*
X74727500Y-105742500D03*
X74227500Y-105742500D03*
X73727500Y-105742500D03*
X73227500Y-105742500D03*
X72727500Y-105742500D03*
X72227500Y-105742500D03*
X71727500Y-105742500D03*
X71227500Y-105742500D03*
X70727500Y-105742500D03*
X70227500Y-105742500D03*
D16*
X68277500Y-107692500D03*
X68277500Y-108192500D03*
X68277500Y-108692500D03*
X68277500Y-109192500D03*
X68277500Y-109692500D03*
X68277500Y-110192500D03*
X68277500Y-110692500D03*
X68277500Y-111192500D03*
X68277500Y-111692500D03*
X68277500Y-112192500D03*
X68277500Y-112692500D03*
X68277500Y-113192500D03*
X68277500Y-113692500D03*
X68277500Y-114192500D03*
X68277500Y-114692500D03*
X68277500Y-115192500D03*
D17*
X70227500Y-117142500D03*
X70727500Y-117142500D03*
X71227500Y-117142500D03*
X71727500Y-117142500D03*
X72227500Y-117142500D03*
X72727500Y-117142500D03*
X73227500Y-117142500D03*
X73727500Y-117142500D03*
X74227500Y-117142500D03*
X74727500Y-117142500D03*
X75227500Y-117142500D03*
X75727500Y-117142500D03*
X76227500Y-117142500D03*
X76727500Y-117142500D03*
X77227500Y-117142500D03*
X77727500Y-117142500D03*
D18*
X72755000Y-129601000D03*
X72755000Y-127701000D03*
X70755000Y-128651000D03*
D11*
X84318600Y-118719600D03*
X86318600Y-118719600D03*
D19*
X88142500Y-115506500D03*
X88142500Y-110426500D03*
X83942500Y-110426500D03*
X83942500Y-115506500D03*
D20*
X90805000Y-124841000D03*
X90805000Y-122809000D03*
D11*
X123834400Y-107543600D03*
X121834400Y-107543600D03*
D12*
X119227600Y-119446800D03*
X119227600Y-121446800D03*
X116713000Y-119999000D03*
X116713000Y-117999000D03*
X114681000Y-103743000D03*
X114681000Y-101743000D03*
D11*
X107680000Y-103505000D03*
X105680000Y-103505000D03*
X101552500Y-104965500D03*
X103552500Y-104965500D03*
D12*
X102235000Y-116221000D03*
X102235000Y-118221000D03*
D11*
X102727000Y-113919000D03*
X100727000Y-113919000D03*
D12*
X105410000Y-127651000D03*
X105410000Y-129651000D03*
D11*
X109712000Y-125603000D03*
X107712000Y-125603000D03*
D13*
X103251000Y-129351000D03*
X103251000Y-127951000D03*
D11*
X103267000Y-125603000D03*
X105267000Y-125603000D03*
D14*
X110280000Y-132140000D03*
X110780000Y-132140000D03*
X111280000Y-132140000D03*
X111780000Y-132140000D03*
X112280000Y-132140000D03*
X112780000Y-132140000D03*
X113280000Y-132140000D03*
X115780000Y-132140000D03*
X114780000Y-132140000D03*
X114280000Y-132140000D03*
X113780000Y-132140000D03*
X115280000Y-132140000D03*
D11*
X104054400Y-122885200D03*
X106054400Y-122885200D03*
X102219000Y-108839000D03*
X100219000Y-108839000D03*
D12*
X99441000Y-107045000D03*
X99441000Y-105045000D03*
D11*
X106950000Y-120421400D03*
X108950000Y-120421400D03*
D12*
X111556800Y-122437400D03*
X111556800Y-120437400D03*
X113385600Y-120437400D03*
X113385600Y-122437400D03*
D11*
X103013000Y-120396000D03*
X105013000Y-120396000D03*
D12*
X100152200Y-100701600D03*
X100152200Y-102701600D03*
X124028200Y-98390200D03*
X124028200Y-100390200D03*
D15*
X104988000Y-132366000D03*
X99228000Y-132366000D03*
X99228000Y-136366000D03*
X104988000Y-136366000D03*
X126832000Y-132366000D03*
X121072000Y-132366000D03*
X121072000Y-136366000D03*
X126832000Y-136366000D03*
D16*
X116507500Y-115192500D03*
X116507500Y-114692500D03*
X116507500Y-114192500D03*
X116507500Y-113692500D03*
X116507500Y-113192500D03*
X116507500Y-112692500D03*
X116507500Y-112192500D03*
X116507500Y-111692500D03*
X116507500Y-111192500D03*
X116507500Y-110692500D03*
X116507500Y-110192500D03*
X116507500Y-109692500D03*
X116507500Y-109192500D03*
X116507500Y-108692500D03*
X116507500Y-108192500D03*
X116507500Y-107692500D03*
D17*
X114557500Y-105742500D03*
X114057500Y-105742500D03*
X113557500Y-105742500D03*
X113057500Y-105742500D03*
X112557500Y-105742500D03*
X112057500Y-105742500D03*
X111557500Y-105742500D03*
X111057500Y-105742500D03*
X110557500Y-105742500D03*
X110057500Y-105742500D03*
X109557500Y-105742500D03*
X109057500Y-105742500D03*
X108557500Y-105742500D03*
X108057500Y-105742500D03*
X107557500Y-105742500D03*
X107057500Y-105742500D03*
D16*
X105107500Y-107692500D03*
X105107500Y-108192500D03*
X105107500Y-108692500D03*
X105107500Y-109192500D03*
X105107500Y-109692500D03*
X105107500Y-110192500D03*
X105107500Y-110692500D03*
X105107500Y-111192500D03*
X105107500Y-111692500D03*
X105107500Y-112192500D03*
X105107500Y-112692500D03*
X105107500Y-113192500D03*
X105107500Y-113692500D03*
X105107500Y-114192500D03*
X105107500Y-114692500D03*
X105107500Y-115192500D03*
D17*
X107057500Y-117142500D03*
X107557500Y-117142500D03*
X108057500Y-117142500D03*
X108557500Y-117142500D03*
X109057500Y-117142500D03*
X109557500Y-117142500D03*
X110057500Y-117142500D03*
X110557500Y-117142500D03*
X111057500Y-117142500D03*
X111557500Y-117142500D03*
X112057500Y-117142500D03*
X112557500Y-117142500D03*
X113057500Y-117142500D03*
X113557500Y-117142500D03*
X114057500Y-117142500D03*
X114557500Y-117142500D03*
D18*
X109585000Y-129601000D03*
X109585000Y-127701000D03*
X107585000Y-128651000D03*
D11*
X121148600Y-118719600D03*
X123148600Y-118719600D03*
D19*
X124972500Y-115506500D03*
X124972500Y-110426500D03*
X120772500Y-110426500D03*
X120772500Y-115506500D03*
D20*
X127635000Y-124841000D03*
X127635000Y-122809000D03*
D11*
X160664400Y-107543600D03*
X158664400Y-107543600D03*
D12*
X156057600Y-119446800D03*
X156057600Y-121446800D03*
X153543000Y-119999000D03*
X153543000Y-117999000D03*
X151511000Y-103743000D03*
X151511000Y-101743000D03*
D11*
X144510000Y-103505000D03*
X142510000Y-103505000D03*
X138382500Y-104965500D03*
X140382500Y-104965500D03*
D12*
X139065000Y-116221000D03*
X139065000Y-118221000D03*
D11*
X139557000Y-113919000D03*
X137557000Y-113919000D03*
D12*
X142240000Y-127651000D03*
X142240000Y-129651000D03*
D11*
X146542000Y-125603000D03*
X144542000Y-125603000D03*
D13*
X140081000Y-129351000D03*
X140081000Y-127951000D03*
D11*
X140097000Y-125603000D03*
X142097000Y-125603000D03*
D14*
X147110000Y-132140000D03*
X147610000Y-132140000D03*
X148110000Y-132140000D03*
X148610000Y-132140000D03*
X149110000Y-132140000D03*
X149610000Y-132140000D03*
X150110000Y-132140000D03*
X152610000Y-132140000D03*
X151610000Y-132140000D03*
X151110000Y-132140000D03*
X150610000Y-132140000D03*
X152110000Y-132140000D03*
D11*
X140884400Y-122885200D03*
X142884400Y-122885200D03*
X139049000Y-108839000D03*
X137049000Y-108839000D03*
D12*
X136271000Y-107045000D03*
X136271000Y-105045000D03*
D11*
X143780000Y-120421400D03*
X145780000Y-120421400D03*
D12*
X148386800Y-122437400D03*
X148386800Y-120437400D03*
X150215600Y-120437400D03*
X150215600Y-122437400D03*
D11*
X139843000Y-120396000D03*
X141843000Y-120396000D03*
D12*
X136982200Y-100701600D03*
X136982200Y-102701600D03*
X160858200Y-98390200D03*
X160858200Y-100390200D03*
D15*
X141818000Y-132366000D03*
X136058000Y-132366000D03*
X136058000Y-136366000D03*
X141818000Y-136366000D03*
X163662000Y-132366000D03*
X157902000Y-132366000D03*
X157902000Y-136366000D03*
X163662000Y-136366000D03*
D16*
X153337500Y-115192500D03*
X153337500Y-114692500D03*
X153337500Y-114192500D03*
X153337500Y-113692500D03*
X153337500Y-113192500D03*
X153337500Y-112692500D03*
X153337500Y-112192500D03*
X153337500Y-111692500D03*
X153337500Y-111192500D03*
X153337500Y-110692500D03*
X153337500Y-110192500D03*
X153337500Y-109692500D03*
X153337500Y-109192500D03*
X153337500Y-108692500D03*
X153337500Y-108192500D03*
X153337500Y-107692500D03*
D17*
X151387500Y-105742500D03*
X150887500Y-105742500D03*
X150387500Y-105742500D03*
X149887500Y-105742500D03*
X149387500Y-105742500D03*
X148887500Y-105742500D03*
X148387500Y-105742500D03*
X147887500Y-105742500D03*
X147387500Y-105742500D03*
X146887500Y-105742500D03*
X146387500Y-105742500D03*
X145887500Y-105742500D03*
X145387500Y-105742500D03*
X144887500Y-105742500D03*
X144387500Y-105742500D03*
X143887500Y-105742500D03*
D16*
X141937500Y-107692500D03*
X141937500Y-108192500D03*
X141937500Y-108692500D03*
X141937500Y-109192500D03*
X141937500Y-109692500D03*
X141937500Y-110192500D03*
X141937500Y-110692500D03*
X141937500Y-111192500D03*
X141937500Y-111692500D03*
X141937500Y-112192500D03*
X141937500Y-112692500D03*
X141937500Y-113192500D03*
X141937500Y-113692500D03*
X141937500Y-114192500D03*
X141937500Y-114692500D03*
X141937500Y-115192500D03*
D17*
X143887500Y-117142500D03*
X144387500Y-117142500D03*
X144887500Y-117142500D03*
X145387500Y-117142500D03*
X145887500Y-117142500D03*
X146387500Y-117142500D03*
X146887500Y-117142500D03*
X147387500Y-117142500D03*
X147887500Y-117142500D03*
X148387500Y-117142500D03*
X148887500Y-117142500D03*
X149387500Y-117142500D03*
X149887500Y-117142500D03*
X150387500Y-117142500D03*
X150887500Y-117142500D03*
X151387500Y-117142500D03*
D18*
X146415000Y-129601000D03*
X146415000Y-127701000D03*
X144415000Y-128651000D03*
D11*
X157978600Y-118719600D03*
X159978600Y-118719600D03*
D19*
X161802500Y-115506500D03*
X161802500Y-110426500D03*
X157602500Y-110426500D03*
X157602500Y-115506500D03*
D20*
X164465000Y-124841000D03*
X164465000Y-122809000D03*
D11*
X197494400Y-107543600D03*
X195494400Y-107543600D03*
D12*
X192887600Y-119446800D03*
X192887600Y-121446800D03*
X190373000Y-119999000D03*
X190373000Y-117999000D03*
X188341000Y-103743000D03*
X188341000Y-101743000D03*
D11*
X181340000Y-103505000D03*
X179340000Y-103505000D03*
X175212500Y-104965500D03*
X177212500Y-104965500D03*
D12*
X175895000Y-116221000D03*
X175895000Y-118221000D03*
D11*
X176387000Y-113919000D03*
X174387000Y-113919000D03*
D12*
X179070000Y-127651000D03*
X179070000Y-129651000D03*
D11*
X183372000Y-125603000D03*
X181372000Y-125603000D03*
D13*
X176911000Y-129351000D03*
X176911000Y-127951000D03*
D11*
X176927000Y-125603000D03*
X178927000Y-125603000D03*
D14*
X183940000Y-132140000D03*
X184440000Y-132140000D03*
X184940000Y-132140000D03*
X185440000Y-132140000D03*
X185940000Y-132140000D03*
X186440000Y-132140000D03*
X186940000Y-132140000D03*
X189440000Y-132140000D03*
X188440000Y-132140000D03*
X187940000Y-132140000D03*
X187440000Y-132140000D03*
X188940000Y-132140000D03*
D11*
X177714400Y-122885200D03*
X179714400Y-122885200D03*
X175879000Y-108839000D03*
X173879000Y-108839000D03*
D12*
X173101000Y-107045000D03*
X173101000Y-105045000D03*
D11*
X180610000Y-120421400D03*
X182610000Y-120421400D03*
D12*
X185216800Y-122437400D03*
X185216800Y-120437400D03*
X187045600Y-120437400D03*
X187045600Y-122437400D03*
D11*
X176673000Y-120396000D03*
X178673000Y-120396000D03*
D12*
X173812200Y-100701600D03*
X173812200Y-102701600D03*
X197688200Y-98390200D03*
X197688200Y-100390200D03*
D15*
X178648000Y-132366000D03*
X172888000Y-132366000D03*
X172888000Y-136366000D03*
X178648000Y-136366000D03*
X200492000Y-132366000D03*
X194732000Y-132366000D03*
X194732000Y-136366000D03*
X200492000Y-136366000D03*
D16*
X190167500Y-115192500D03*
X190167500Y-114692500D03*
X190167500Y-114192500D03*
X190167500Y-113692500D03*
X190167500Y-113192500D03*
X190167500Y-112692500D03*
X190167500Y-112192500D03*
X190167500Y-111692500D03*
X190167500Y-111192500D03*
X190167500Y-110692500D03*
X190167500Y-110192500D03*
X190167500Y-109692500D03*
X190167500Y-109192500D03*
X190167500Y-108692500D03*
X190167500Y-108192500D03*
X190167500Y-107692500D03*
D17*
X188217500Y-105742500D03*
X187717500Y-105742500D03*
X187217500Y-105742500D03*
X186717500Y-105742500D03*
X186217500Y-105742500D03*
X185717500Y-105742500D03*
X185217500Y-105742500D03*
X184717500Y-105742500D03*
X184217500Y-105742500D03*
X183717500Y-105742500D03*
X183217500Y-105742500D03*
X182717500Y-105742500D03*
X182217500Y-105742500D03*
X181717500Y-105742500D03*
X181217500Y-105742500D03*
X180717500Y-105742500D03*
D16*
X178767500Y-107692500D03*
X178767500Y-108192500D03*
X178767500Y-108692500D03*
X178767500Y-109192500D03*
X178767500Y-109692500D03*
X178767500Y-110192500D03*
X178767500Y-110692500D03*
X178767500Y-111192500D03*
X178767500Y-111692500D03*
X178767500Y-112192500D03*
X178767500Y-112692500D03*
X178767500Y-113192500D03*
X178767500Y-113692500D03*
X178767500Y-114192500D03*
X178767500Y-114692500D03*
X178767500Y-115192500D03*
D17*
X180717500Y-117142500D03*
X181217500Y-117142500D03*
X181717500Y-117142500D03*
X182217500Y-117142500D03*
X182717500Y-117142500D03*
X183217500Y-117142500D03*
X183717500Y-117142500D03*
X184217500Y-117142500D03*
X184717500Y-117142500D03*
X185217500Y-117142500D03*
X185717500Y-117142500D03*
X186217500Y-117142500D03*
X186717500Y-117142500D03*
X187217500Y-117142500D03*
X187717500Y-117142500D03*
X188217500Y-117142500D03*
D18*
X183245000Y-129601000D03*
X183245000Y-127701000D03*
X181245000Y-128651000D03*
D11*
X194808600Y-118719600D03*
X196808600Y-118719600D03*
D19*
X198632500Y-115506500D03*
X198632500Y-110426500D03*
X194432500Y-110426500D03*
X194432500Y-115506500D03*
D20*
X201295000Y-124841000D03*
X201295000Y-122809000D03*
D11*
X234324400Y-107543600D03*
X232324400Y-107543600D03*
D12*
X229717600Y-119446800D03*
X229717600Y-121446800D03*
X227203000Y-119999000D03*
X227203000Y-117999000D03*
X225171000Y-103743000D03*
X225171000Y-101743000D03*
D11*
X218170000Y-103505000D03*
X216170000Y-103505000D03*
X212042500Y-104965500D03*
X214042500Y-104965500D03*
D12*
X212725000Y-116221000D03*
X212725000Y-118221000D03*
D11*
X213217000Y-113919000D03*
X211217000Y-113919000D03*
D12*
X215900000Y-127651000D03*
X215900000Y-129651000D03*
D11*
X220202000Y-125603000D03*
X218202000Y-125603000D03*
D13*
X213741000Y-129351000D03*
X213741000Y-127951000D03*
D11*
X213757000Y-125603000D03*
X215757000Y-125603000D03*
D14*
X220770000Y-132140000D03*
X221270000Y-132140000D03*
X221770000Y-132140000D03*
X222270000Y-132140000D03*
X222770000Y-132140000D03*
X223270000Y-132140000D03*
X223770000Y-132140000D03*
X226270000Y-132140000D03*
X225270000Y-132140000D03*
X224770000Y-132140000D03*
X224270000Y-132140000D03*
X225770000Y-132140000D03*
D11*
X214544400Y-122885200D03*
X216544400Y-122885200D03*
X212709000Y-108839000D03*
X210709000Y-108839000D03*
D12*
X209931000Y-107045000D03*
X209931000Y-105045000D03*
D11*
X217440000Y-120421400D03*
X219440000Y-120421400D03*
D12*
X222046800Y-122437400D03*
X222046800Y-120437400D03*
X223875600Y-120437400D03*
X223875600Y-122437400D03*
D11*
X213503000Y-120396000D03*
X215503000Y-120396000D03*
D12*
X210642200Y-100701600D03*
X210642200Y-102701600D03*
X234518200Y-98390200D03*
X234518200Y-100390200D03*
D15*
X215478000Y-132366000D03*
X209718000Y-132366000D03*
X209718000Y-136366000D03*
X215478000Y-136366000D03*
X237322000Y-132366000D03*
X231562000Y-132366000D03*
X231562000Y-136366000D03*
X237322000Y-136366000D03*
D16*
X226997500Y-115192500D03*
X226997500Y-114692500D03*
X226997500Y-114192500D03*
X226997500Y-113692500D03*
X226997500Y-113192500D03*
X226997500Y-112692500D03*
X226997500Y-112192500D03*
X226997500Y-111692500D03*
X226997500Y-111192500D03*
X226997500Y-110692500D03*
X226997500Y-110192500D03*
X226997500Y-109692500D03*
X226997500Y-109192500D03*
X226997500Y-108692500D03*
X226997500Y-108192500D03*
X226997500Y-107692500D03*
D17*
X225047500Y-105742500D03*
X224547500Y-105742500D03*
X224047500Y-105742500D03*
X223547500Y-105742500D03*
X223047500Y-105742500D03*
X222547500Y-105742500D03*
X222047500Y-105742500D03*
X221547500Y-105742500D03*
X221047500Y-105742500D03*
X220547500Y-105742500D03*
X220047500Y-105742500D03*
X219547500Y-105742500D03*
X219047500Y-105742500D03*
X218547500Y-105742500D03*
X218047500Y-105742500D03*
X217547500Y-105742500D03*
D16*
X215597500Y-107692500D03*
X215597500Y-108192500D03*
X215597500Y-108692500D03*
X215597500Y-109192500D03*
X215597500Y-109692500D03*
X215597500Y-110192500D03*
X215597500Y-110692500D03*
X215597500Y-111192500D03*
X215597500Y-111692500D03*
X215597500Y-112192500D03*
X215597500Y-112692500D03*
X215597500Y-113192500D03*
X215597500Y-113692500D03*
X215597500Y-114192500D03*
X215597500Y-114692500D03*
X215597500Y-115192500D03*
D17*
X217547500Y-117142500D03*
X218047500Y-117142500D03*
X218547500Y-117142500D03*
X219047500Y-117142500D03*
X219547500Y-117142500D03*
X220047500Y-117142500D03*
X220547500Y-117142500D03*
X221047500Y-117142500D03*
X221547500Y-117142500D03*
X222047500Y-117142500D03*
X222547500Y-117142500D03*
X223047500Y-117142500D03*
X223547500Y-117142500D03*
X224047500Y-117142500D03*
X224547500Y-117142500D03*
X225047500Y-117142500D03*
D18*
X220075000Y-129601000D03*
X220075000Y-127701000D03*
X218075000Y-128651000D03*
D11*
X231638600Y-118719600D03*
X233638600Y-118719600D03*
D19*
X235462500Y-115506500D03*
X235462500Y-110426500D03*
X231262500Y-110426500D03*
X231262500Y-115506500D03*
D20*
X238125000Y-124841000D03*
X238125000Y-122809000D03*
M02*
