G04 #@! TF.FileFunction,Paste,Top*
%FSLAX46Y46*%
G04 Gerber Fmt 4.6, Leading zero omitted, Abs format (unit mm)*
G04 Created by KiCad (PCBNEW 4.0.7-e2-6376~58~ubuntu16.04.1) date Mon Nov 20 20:39:29 2017*
%MOMM*%
%LPD*%
G01*
G04 APERTURE LIST*
%ADD10C,0.100000*%
%ADD11R,1.000000X1.524000*%
%ADD12R,2.000000X1.800000*%
%ADD13R,1.000000X1.250000*%
%ADD14R,0.900000X0.800000*%
%ADD15R,1.500000X0.300000*%
%ADD16R,0.300000X1.500000*%
%ADD17R,2.750000X1.000000*%
%ADD18R,1.250000X1.000000*%
%ADD19R,0.300000X0.700000*%
%ADD20R,0.700000X0.600000*%
G04 APERTURE END LIST*
D10*
D11*
X217805000Y-147853400D03*
X217805000Y-145821400D03*
D12*
X215142500Y-138518900D03*
X215142500Y-133438900D03*
X210942500Y-133438900D03*
X210942500Y-138518900D03*
D13*
X211318600Y-141732000D03*
X213318600Y-141732000D03*
D14*
X199755000Y-152613400D03*
X199755000Y-150713400D03*
X197755000Y-151663400D03*
D15*
X206677500Y-138204900D03*
X206677500Y-137704900D03*
X206677500Y-137204900D03*
X206677500Y-136704900D03*
X206677500Y-136204900D03*
X206677500Y-135704900D03*
X206677500Y-135204900D03*
X206677500Y-134704900D03*
X206677500Y-134204900D03*
X206677500Y-133704900D03*
X206677500Y-133204900D03*
X206677500Y-132704900D03*
X206677500Y-132204900D03*
X206677500Y-131704900D03*
X206677500Y-131204900D03*
X206677500Y-130704900D03*
D16*
X204727500Y-128754900D03*
X204227500Y-128754900D03*
X203727500Y-128754900D03*
X203227500Y-128754900D03*
X202727500Y-128754900D03*
X202227500Y-128754900D03*
X201727500Y-128754900D03*
X201227500Y-128754900D03*
X200727500Y-128754900D03*
X200227500Y-128754900D03*
X199727500Y-128754900D03*
X199227500Y-128754900D03*
X198727500Y-128754900D03*
X198227500Y-128754900D03*
X197727500Y-128754900D03*
X197227500Y-128754900D03*
D15*
X195277500Y-130704900D03*
X195277500Y-131204900D03*
X195277500Y-131704900D03*
X195277500Y-132204900D03*
X195277500Y-132704900D03*
X195277500Y-133204900D03*
X195277500Y-133704900D03*
X195277500Y-134204900D03*
X195277500Y-134704900D03*
X195277500Y-135204900D03*
X195277500Y-135704900D03*
X195277500Y-136204900D03*
X195277500Y-136704900D03*
X195277500Y-137204900D03*
X195277500Y-137704900D03*
X195277500Y-138204900D03*
D16*
X197227500Y-140154900D03*
X197727500Y-140154900D03*
X198227500Y-140154900D03*
X198727500Y-140154900D03*
X199227500Y-140154900D03*
X199727500Y-140154900D03*
X200227500Y-140154900D03*
X200727500Y-140154900D03*
X201227500Y-140154900D03*
X201727500Y-140154900D03*
X202227500Y-140154900D03*
X202727500Y-140154900D03*
X203227500Y-140154900D03*
X203727500Y-140154900D03*
X204227500Y-140154900D03*
X204727500Y-140154900D03*
D17*
X217002000Y-155378400D03*
X211242000Y-155378400D03*
X211242000Y-159378400D03*
X217002000Y-159378400D03*
X195158000Y-155378400D03*
X189398000Y-155378400D03*
X189398000Y-159378400D03*
X195158000Y-159378400D03*
D18*
X214198200Y-121402600D03*
X214198200Y-123402600D03*
X190322200Y-123714000D03*
X190322200Y-125714000D03*
D13*
X193183000Y-143408400D03*
X195183000Y-143408400D03*
D18*
X203555600Y-143449800D03*
X203555600Y-145449800D03*
X201726800Y-145449800D03*
X201726800Y-143449800D03*
D13*
X197120000Y-143433800D03*
X199120000Y-143433800D03*
D18*
X189611000Y-130057400D03*
X189611000Y-128057400D03*
D13*
X192389000Y-131851400D03*
X190389000Y-131851400D03*
X194224400Y-145897600D03*
X196224400Y-145897600D03*
D19*
X200450000Y-155152400D03*
X200950000Y-155152400D03*
X201450000Y-155152400D03*
X201950000Y-155152400D03*
X202450000Y-155152400D03*
X202950000Y-155152400D03*
X203450000Y-155152400D03*
X205950000Y-155152400D03*
X204950000Y-155152400D03*
X204450000Y-155152400D03*
X203950000Y-155152400D03*
X205450000Y-155152400D03*
D13*
X193437000Y-148615400D03*
X195437000Y-148615400D03*
D20*
X193421000Y-152363400D03*
X193421000Y-150963400D03*
D13*
X199882000Y-148615400D03*
X197882000Y-148615400D03*
D18*
X195580000Y-150663400D03*
X195580000Y-152663400D03*
D13*
X192897000Y-136931400D03*
X190897000Y-136931400D03*
D18*
X192405000Y-139233400D03*
X192405000Y-141233400D03*
D13*
X191722500Y-127977900D03*
X193722500Y-127977900D03*
X197850000Y-126517400D03*
X195850000Y-126517400D03*
D18*
X204851000Y-126755400D03*
X204851000Y-124755400D03*
X206883000Y-143011400D03*
X206883000Y-141011400D03*
X209397600Y-142459200D03*
X209397600Y-144459200D03*
D13*
X214004400Y-130556000D03*
X212004400Y-130556000D03*
D11*
X183515000Y-147853400D03*
X183515000Y-145821400D03*
D12*
X180852500Y-138518900D03*
X180852500Y-133438900D03*
X176652500Y-133438900D03*
X176652500Y-138518900D03*
D13*
X177028600Y-141732000D03*
X179028600Y-141732000D03*
D14*
X165465000Y-152613400D03*
X165465000Y-150713400D03*
X163465000Y-151663400D03*
D15*
X172387500Y-138204900D03*
X172387500Y-137704900D03*
X172387500Y-137204900D03*
X172387500Y-136704900D03*
X172387500Y-136204900D03*
X172387500Y-135704900D03*
X172387500Y-135204900D03*
X172387500Y-134704900D03*
X172387500Y-134204900D03*
X172387500Y-133704900D03*
X172387500Y-133204900D03*
X172387500Y-132704900D03*
X172387500Y-132204900D03*
X172387500Y-131704900D03*
X172387500Y-131204900D03*
X172387500Y-130704900D03*
D16*
X170437500Y-128754900D03*
X169937500Y-128754900D03*
X169437500Y-128754900D03*
X168937500Y-128754900D03*
X168437500Y-128754900D03*
X167937500Y-128754900D03*
X167437500Y-128754900D03*
X166937500Y-128754900D03*
X166437500Y-128754900D03*
X165937500Y-128754900D03*
X165437500Y-128754900D03*
X164937500Y-128754900D03*
X164437500Y-128754900D03*
X163937500Y-128754900D03*
X163437500Y-128754900D03*
X162937500Y-128754900D03*
D15*
X160987500Y-130704900D03*
X160987500Y-131204900D03*
X160987500Y-131704900D03*
X160987500Y-132204900D03*
X160987500Y-132704900D03*
X160987500Y-133204900D03*
X160987500Y-133704900D03*
X160987500Y-134204900D03*
X160987500Y-134704900D03*
X160987500Y-135204900D03*
X160987500Y-135704900D03*
X160987500Y-136204900D03*
X160987500Y-136704900D03*
X160987500Y-137204900D03*
X160987500Y-137704900D03*
X160987500Y-138204900D03*
D16*
X162937500Y-140154900D03*
X163437500Y-140154900D03*
X163937500Y-140154900D03*
X164437500Y-140154900D03*
X164937500Y-140154900D03*
X165437500Y-140154900D03*
X165937500Y-140154900D03*
X166437500Y-140154900D03*
X166937500Y-140154900D03*
X167437500Y-140154900D03*
X167937500Y-140154900D03*
X168437500Y-140154900D03*
X168937500Y-140154900D03*
X169437500Y-140154900D03*
X169937500Y-140154900D03*
X170437500Y-140154900D03*
D17*
X182712000Y-155378400D03*
X176952000Y-155378400D03*
X176952000Y-159378400D03*
X182712000Y-159378400D03*
X160868000Y-155378400D03*
X155108000Y-155378400D03*
X155108000Y-159378400D03*
X160868000Y-159378400D03*
D18*
X179908200Y-121402600D03*
X179908200Y-123402600D03*
X156032200Y-123714000D03*
X156032200Y-125714000D03*
D13*
X158893000Y-143408400D03*
X160893000Y-143408400D03*
D18*
X169265600Y-143449800D03*
X169265600Y-145449800D03*
X167436800Y-145449800D03*
X167436800Y-143449800D03*
D13*
X162830000Y-143433800D03*
X164830000Y-143433800D03*
D18*
X155321000Y-130057400D03*
X155321000Y-128057400D03*
D13*
X158099000Y-131851400D03*
X156099000Y-131851400D03*
X159934400Y-145897600D03*
X161934400Y-145897600D03*
D19*
X166160000Y-155152400D03*
X166660000Y-155152400D03*
X167160000Y-155152400D03*
X167660000Y-155152400D03*
X168160000Y-155152400D03*
X168660000Y-155152400D03*
X169160000Y-155152400D03*
X171660000Y-155152400D03*
X170660000Y-155152400D03*
X170160000Y-155152400D03*
X169660000Y-155152400D03*
X171160000Y-155152400D03*
D13*
X159147000Y-148615400D03*
X161147000Y-148615400D03*
D20*
X159131000Y-152363400D03*
X159131000Y-150963400D03*
D13*
X165592000Y-148615400D03*
X163592000Y-148615400D03*
D18*
X161290000Y-150663400D03*
X161290000Y-152663400D03*
D13*
X158607000Y-136931400D03*
X156607000Y-136931400D03*
D18*
X158115000Y-139233400D03*
X158115000Y-141233400D03*
D13*
X157432500Y-127977900D03*
X159432500Y-127977900D03*
X163560000Y-126517400D03*
X161560000Y-126517400D03*
D18*
X170561000Y-126755400D03*
X170561000Y-124755400D03*
X172593000Y-143011400D03*
X172593000Y-141011400D03*
X175107600Y-142459200D03*
X175107600Y-144459200D03*
D13*
X179714400Y-130556000D03*
X177714400Y-130556000D03*
X248294400Y-130556000D03*
X246294400Y-130556000D03*
D18*
X243687600Y-142459200D03*
X243687600Y-144459200D03*
X241173000Y-143011400D03*
X241173000Y-141011400D03*
X239141000Y-126755400D03*
X239141000Y-124755400D03*
D13*
X232140000Y-126517400D03*
X230140000Y-126517400D03*
X226012500Y-127977900D03*
X228012500Y-127977900D03*
D18*
X226695000Y-139233400D03*
X226695000Y-141233400D03*
D13*
X227187000Y-136931400D03*
X225187000Y-136931400D03*
D18*
X229870000Y-150663400D03*
X229870000Y-152663400D03*
D13*
X234172000Y-148615400D03*
X232172000Y-148615400D03*
D20*
X227711000Y-152363400D03*
X227711000Y-150963400D03*
D13*
X227727000Y-148615400D03*
X229727000Y-148615400D03*
D19*
X234740000Y-155152400D03*
X235240000Y-155152400D03*
X235740000Y-155152400D03*
X236240000Y-155152400D03*
X236740000Y-155152400D03*
X237240000Y-155152400D03*
X237740000Y-155152400D03*
X240240000Y-155152400D03*
X239240000Y-155152400D03*
X238740000Y-155152400D03*
X238240000Y-155152400D03*
X239740000Y-155152400D03*
D13*
X228514400Y-145897600D03*
X230514400Y-145897600D03*
X226679000Y-131851400D03*
X224679000Y-131851400D03*
D18*
X223901000Y-130057400D03*
X223901000Y-128057400D03*
D13*
X231410000Y-143433800D03*
X233410000Y-143433800D03*
D18*
X236016800Y-145449800D03*
X236016800Y-143449800D03*
X237845600Y-143449800D03*
X237845600Y-145449800D03*
D13*
X227473000Y-143408400D03*
X229473000Y-143408400D03*
D18*
X224612200Y-123714000D03*
X224612200Y-125714000D03*
X248488200Y-121402600D03*
X248488200Y-123402600D03*
D17*
X229448000Y-155378400D03*
X223688000Y-155378400D03*
X223688000Y-159378400D03*
X229448000Y-159378400D03*
X251292000Y-155378400D03*
X245532000Y-155378400D03*
X245532000Y-159378400D03*
X251292000Y-159378400D03*
D15*
X240967500Y-138204900D03*
X240967500Y-137704900D03*
X240967500Y-137204900D03*
X240967500Y-136704900D03*
X240967500Y-136204900D03*
X240967500Y-135704900D03*
X240967500Y-135204900D03*
X240967500Y-134704900D03*
X240967500Y-134204900D03*
X240967500Y-133704900D03*
X240967500Y-133204900D03*
X240967500Y-132704900D03*
X240967500Y-132204900D03*
X240967500Y-131704900D03*
X240967500Y-131204900D03*
X240967500Y-130704900D03*
D16*
X239017500Y-128754900D03*
X238517500Y-128754900D03*
X238017500Y-128754900D03*
X237517500Y-128754900D03*
X237017500Y-128754900D03*
X236517500Y-128754900D03*
X236017500Y-128754900D03*
X235517500Y-128754900D03*
X235017500Y-128754900D03*
X234517500Y-128754900D03*
X234017500Y-128754900D03*
X233517500Y-128754900D03*
X233017500Y-128754900D03*
X232517500Y-128754900D03*
X232017500Y-128754900D03*
X231517500Y-128754900D03*
D15*
X229567500Y-130704900D03*
X229567500Y-131204900D03*
X229567500Y-131704900D03*
X229567500Y-132204900D03*
X229567500Y-132704900D03*
X229567500Y-133204900D03*
X229567500Y-133704900D03*
X229567500Y-134204900D03*
X229567500Y-134704900D03*
X229567500Y-135204900D03*
X229567500Y-135704900D03*
X229567500Y-136204900D03*
X229567500Y-136704900D03*
X229567500Y-137204900D03*
X229567500Y-137704900D03*
X229567500Y-138204900D03*
D16*
X231517500Y-140154900D03*
X232017500Y-140154900D03*
X232517500Y-140154900D03*
X233017500Y-140154900D03*
X233517500Y-140154900D03*
X234017500Y-140154900D03*
X234517500Y-140154900D03*
X235017500Y-140154900D03*
X235517500Y-140154900D03*
X236017500Y-140154900D03*
X236517500Y-140154900D03*
X237017500Y-140154900D03*
X237517500Y-140154900D03*
X238017500Y-140154900D03*
X238517500Y-140154900D03*
X239017500Y-140154900D03*
D14*
X234045000Y-152613400D03*
X234045000Y-150713400D03*
X232045000Y-151663400D03*
D13*
X245608600Y-141732000D03*
X247608600Y-141732000D03*
D12*
X249432500Y-138518900D03*
X249432500Y-133438900D03*
X245232500Y-133438900D03*
X245232500Y-138518900D03*
D11*
X252095000Y-147853400D03*
X252095000Y-145821400D03*
D13*
X282584400Y-130556000D03*
X280584400Y-130556000D03*
D18*
X277977600Y-142459200D03*
X277977600Y-144459200D03*
X275463000Y-143011400D03*
X275463000Y-141011400D03*
X273431000Y-126755400D03*
X273431000Y-124755400D03*
D13*
X266430000Y-126517400D03*
X264430000Y-126517400D03*
X260302500Y-127977900D03*
X262302500Y-127977900D03*
D18*
X260985000Y-139233400D03*
X260985000Y-141233400D03*
D13*
X261477000Y-136931400D03*
X259477000Y-136931400D03*
D18*
X264160000Y-150663400D03*
X264160000Y-152663400D03*
D13*
X268462000Y-148615400D03*
X266462000Y-148615400D03*
D20*
X262001000Y-152363400D03*
X262001000Y-150963400D03*
D13*
X262017000Y-148615400D03*
X264017000Y-148615400D03*
D19*
X269030000Y-155152400D03*
X269530000Y-155152400D03*
X270030000Y-155152400D03*
X270530000Y-155152400D03*
X271030000Y-155152400D03*
X271530000Y-155152400D03*
X272030000Y-155152400D03*
X274530000Y-155152400D03*
X273530000Y-155152400D03*
X273030000Y-155152400D03*
X272530000Y-155152400D03*
X274030000Y-155152400D03*
D13*
X262804400Y-145897600D03*
X264804400Y-145897600D03*
X260969000Y-131851400D03*
X258969000Y-131851400D03*
D18*
X258191000Y-130057400D03*
X258191000Y-128057400D03*
D13*
X265700000Y-143433800D03*
X267700000Y-143433800D03*
D18*
X270306800Y-145449800D03*
X270306800Y-143449800D03*
X272135600Y-143449800D03*
X272135600Y-145449800D03*
D13*
X261763000Y-143408400D03*
X263763000Y-143408400D03*
D18*
X258902200Y-123714000D03*
X258902200Y-125714000D03*
X282778200Y-121402600D03*
X282778200Y-123402600D03*
D17*
X263738000Y-155378400D03*
X257978000Y-155378400D03*
X257978000Y-159378400D03*
X263738000Y-159378400D03*
X285582000Y-155378400D03*
X279822000Y-155378400D03*
X279822000Y-159378400D03*
X285582000Y-159378400D03*
D15*
X275257500Y-138204900D03*
X275257500Y-137704900D03*
X275257500Y-137204900D03*
X275257500Y-136704900D03*
X275257500Y-136204900D03*
X275257500Y-135704900D03*
X275257500Y-135204900D03*
X275257500Y-134704900D03*
X275257500Y-134204900D03*
X275257500Y-133704900D03*
X275257500Y-133204900D03*
X275257500Y-132704900D03*
X275257500Y-132204900D03*
X275257500Y-131704900D03*
X275257500Y-131204900D03*
X275257500Y-130704900D03*
D16*
X273307500Y-128754900D03*
X272807500Y-128754900D03*
X272307500Y-128754900D03*
X271807500Y-128754900D03*
X271307500Y-128754900D03*
X270807500Y-128754900D03*
X270307500Y-128754900D03*
X269807500Y-128754900D03*
X269307500Y-128754900D03*
X268807500Y-128754900D03*
X268307500Y-128754900D03*
X267807500Y-128754900D03*
X267307500Y-128754900D03*
X266807500Y-128754900D03*
X266307500Y-128754900D03*
X265807500Y-128754900D03*
D15*
X263857500Y-130704900D03*
X263857500Y-131204900D03*
X263857500Y-131704900D03*
X263857500Y-132204900D03*
X263857500Y-132704900D03*
X263857500Y-133204900D03*
X263857500Y-133704900D03*
X263857500Y-134204900D03*
X263857500Y-134704900D03*
X263857500Y-135204900D03*
X263857500Y-135704900D03*
X263857500Y-136204900D03*
X263857500Y-136704900D03*
X263857500Y-137204900D03*
X263857500Y-137704900D03*
X263857500Y-138204900D03*
D16*
X265807500Y-140154900D03*
X266307500Y-140154900D03*
X266807500Y-140154900D03*
X267307500Y-140154900D03*
X267807500Y-140154900D03*
X268307500Y-140154900D03*
X268807500Y-140154900D03*
X269307500Y-140154900D03*
X269807500Y-140154900D03*
X270307500Y-140154900D03*
X270807500Y-140154900D03*
X271307500Y-140154900D03*
X271807500Y-140154900D03*
X272307500Y-140154900D03*
X272807500Y-140154900D03*
X273307500Y-140154900D03*
D14*
X268335000Y-152613400D03*
X268335000Y-150713400D03*
X266335000Y-151663400D03*
D13*
X279898600Y-141732000D03*
X281898600Y-141732000D03*
D12*
X283722500Y-138518900D03*
X283722500Y-133438900D03*
X279522500Y-133438900D03*
X279522500Y-138518900D03*
D11*
X286385000Y-147853400D03*
X286385000Y-145821400D03*
X149225000Y-147853400D03*
X149225000Y-145821400D03*
D12*
X146562500Y-138518900D03*
X146562500Y-133438900D03*
X142362500Y-133438900D03*
X142362500Y-138518900D03*
D13*
X142738600Y-141732000D03*
X144738600Y-141732000D03*
D14*
X131175000Y-152613400D03*
X131175000Y-150713400D03*
X129175000Y-151663400D03*
D15*
X138097500Y-138204900D03*
X138097500Y-137704900D03*
X138097500Y-137204900D03*
X138097500Y-136704900D03*
X138097500Y-136204900D03*
X138097500Y-135704900D03*
X138097500Y-135204900D03*
X138097500Y-134704900D03*
X138097500Y-134204900D03*
X138097500Y-133704900D03*
X138097500Y-133204900D03*
X138097500Y-132704900D03*
X138097500Y-132204900D03*
X138097500Y-131704900D03*
X138097500Y-131204900D03*
X138097500Y-130704900D03*
D16*
X136147500Y-128754900D03*
X135647500Y-128754900D03*
X135147500Y-128754900D03*
X134647500Y-128754900D03*
X134147500Y-128754900D03*
X133647500Y-128754900D03*
X133147500Y-128754900D03*
X132647500Y-128754900D03*
X132147500Y-128754900D03*
X131647500Y-128754900D03*
X131147500Y-128754900D03*
X130647500Y-128754900D03*
X130147500Y-128754900D03*
X129647500Y-128754900D03*
X129147500Y-128754900D03*
X128647500Y-128754900D03*
D15*
X126697500Y-130704900D03*
X126697500Y-131204900D03*
X126697500Y-131704900D03*
X126697500Y-132204900D03*
X126697500Y-132704900D03*
X126697500Y-133204900D03*
X126697500Y-133704900D03*
X126697500Y-134204900D03*
X126697500Y-134704900D03*
X126697500Y-135204900D03*
X126697500Y-135704900D03*
X126697500Y-136204900D03*
X126697500Y-136704900D03*
X126697500Y-137204900D03*
X126697500Y-137704900D03*
X126697500Y-138204900D03*
D16*
X128647500Y-140154900D03*
X129147500Y-140154900D03*
X129647500Y-140154900D03*
X130147500Y-140154900D03*
X130647500Y-140154900D03*
X131147500Y-140154900D03*
X131647500Y-140154900D03*
X132147500Y-140154900D03*
X132647500Y-140154900D03*
X133147500Y-140154900D03*
X133647500Y-140154900D03*
X134147500Y-140154900D03*
X134647500Y-140154900D03*
X135147500Y-140154900D03*
X135647500Y-140154900D03*
X136147500Y-140154900D03*
D17*
X148422000Y-155378400D03*
X142662000Y-155378400D03*
X142662000Y-159378400D03*
X148422000Y-159378400D03*
X126578000Y-155378400D03*
X120818000Y-155378400D03*
X120818000Y-159378400D03*
X126578000Y-159378400D03*
D18*
X145618200Y-121402600D03*
X145618200Y-123402600D03*
X121742200Y-123714000D03*
X121742200Y-125714000D03*
D13*
X124603000Y-143408400D03*
X126603000Y-143408400D03*
D18*
X134975600Y-143449800D03*
X134975600Y-145449800D03*
X133146800Y-145449800D03*
X133146800Y-143449800D03*
D13*
X128540000Y-143433800D03*
X130540000Y-143433800D03*
D18*
X121031000Y-130057400D03*
X121031000Y-128057400D03*
D13*
X123809000Y-131851400D03*
X121809000Y-131851400D03*
X125644400Y-145897600D03*
X127644400Y-145897600D03*
D19*
X131870000Y-155152400D03*
X132370000Y-155152400D03*
X132870000Y-155152400D03*
X133370000Y-155152400D03*
X133870000Y-155152400D03*
X134370000Y-155152400D03*
X134870000Y-155152400D03*
X137370000Y-155152400D03*
X136370000Y-155152400D03*
X135870000Y-155152400D03*
X135370000Y-155152400D03*
X136870000Y-155152400D03*
D13*
X124857000Y-148615400D03*
X126857000Y-148615400D03*
D20*
X124841000Y-152363400D03*
X124841000Y-150963400D03*
D13*
X131302000Y-148615400D03*
X129302000Y-148615400D03*
D18*
X127000000Y-150663400D03*
X127000000Y-152663400D03*
D13*
X124317000Y-136931400D03*
X122317000Y-136931400D03*
D18*
X123825000Y-139233400D03*
X123825000Y-141233400D03*
D13*
X123142500Y-127977900D03*
X125142500Y-127977900D03*
X129270000Y-126517400D03*
X127270000Y-126517400D03*
D18*
X136271000Y-126755400D03*
X136271000Y-124755400D03*
X138303000Y-143011400D03*
X138303000Y-141011400D03*
X140817600Y-142459200D03*
X140817600Y-144459200D03*
D13*
X145424400Y-130556000D03*
X143424400Y-130556000D03*
D11*
X114935000Y-147853400D03*
X114935000Y-145821400D03*
D12*
X112272500Y-138518900D03*
X112272500Y-133438900D03*
X108072500Y-133438900D03*
X108072500Y-138518900D03*
D13*
X108448600Y-141732000D03*
X110448600Y-141732000D03*
D14*
X96885000Y-152613400D03*
X96885000Y-150713400D03*
X94885000Y-151663400D03*
D15*
X103807500Y-138204900D03*
X103807500Y-137704900D03*
X103807500Y-137204900D03*
X103807500Y-136704900D03*
X103807500Y-136204900D03*
X103807500Y-135704900D03*
X103807500Y-135204900D03*
X103807500Y-134704900D03*
X103807500Y-134204900D03*
X103807500Y-133704900D03*
X103807500Y-133204900D03*
X103807500Y-132704900D03*
X103807500Y-132204900D03*
X103807500Y-131704900D03*
X103807500Y-131204900D03*
X103807500Y-130704900D03*
D16*
X101857500Y-128754900D03*
X101357500Y-128754900D03*
X100857500Y-128754900D03*
X100357500Y-128754900D03*
X99857500Y-128754900D03*
X99357500Y-128754900D03*
X98857500Y-128754900D03*
X98357500Y-128754900D03*
X97857500Y-128754900D03*
X97357500Y-128754900D03*
X96857500Y-128754900D03*
X96357500Y-128754900D03*
X95857500Y-128754900D03*
X95357500Y-128754900D03*
X94857500Y-128754900D03*
X94357500Y-128754900D03*
D15*
X92407500Y-130704900D03*
X92407500Y-131204900D03*
X92407500Y-131704900D03*
X92407500Y-132204900D03*
X92407500Y-132704900D03*
X92407500Y-133204900D03*
X92407500Y-133704900D03*
X92407500Y-134204900D03*
X92407500Y-134704900D03*
X92407500Y-135204900D03*
X92407500Y-135704900D03*
X92407500Y-136204900D03*
X92407500Y-136704900D03*
X92407500Y-137204900D03*
X92407500Y-137704900D03*
X92407500Y-138204900D03*
D16*
X94357500Y-140154900D03*
X94857500Y-140154900D03*
X95357500Y-140154900D03*
X95857500Y-140154900D03*
X96357500Y-140154900D03*
X96857500Y-140154900D03*
X97357500Y-140154900D03*
X97857500Y-140154900D03*
X98357500Y-140154900D03*
X98857500Y-140154900D03*
X99357500Y-140154900D03*
X99857500Y-140154900D03*
X100357500Y-140154900D03*
X100857500Y-140154900D03*
X101357500Y-140154900D03*
X101857500Y-140154900D03*
D17*
X114132000Y-155378400D03*
X108372000Y-155378400D03*
X108372000Y-159378400D03*
X114132000Y-159378400D03*
X92288000Y-155378400D03*
X86528000Y-155378400D03*
X86528000Y-159378400D03*
X92288000Y-159378400D03*
D18*
X111328200Y-121402600D03*
X111328200Y-123402600D03*
X87452200Y-123714000D03*
X87452200Y-125714000D03*
D13*
X90313000Y-143408400D03*
X92313000Y-143408400D03*
D18*
X100685600Y-143449800D03*
X100685600Y-145449800D03*
X98856800Y-145449800D03*
X98856800Y-143449800D03*
D13*
X94250000Y-143433800D03*
X96250000Y-143433800D03*
D18*
X86741000Y-130057400D03*
X86741000Y-128057400D03*
D13*
X89519000Y-131851400D03*
X87519000Y-131851400D03*
X91354400Y-145897600D03*
X93354400Y-145897600D03*
D19*
X97580000Y-155152400D03*
X98080000Y-155152400D03*
X98580000Y-155152400D03*
X99080000Y-155152400D03*
X99580000Y-155152400D03*
X100080000Y-155152400D03*
X100580000Y-155152400D03*
X103080000Y-155152400D03*
X102080000Y-155152400D03*
X101580000Y-155152400D03*
X101080000Y-155152400D03*
X102580000Y-155152400D03*
D13*
X90567000Y-148615400D03*
X92567000Y-148615400D03*
D20*
X90551000Y-152363400D03*
X90551000Y-150963400D03*
D13*
X97012000Y-148615400D03*
X95012000Y-148615400D03*
D18*
X92710000Y-150663400D03*
X92710000Y-152663400D03*
D13*
X90027000Y-136931400D03*
X88027000Y-136931400D03*
D18*
X89535000Y-139233400D03*
X89535000Y-141233400D03*
D13*
X88852500Y-127977900D03*
X90852500Y-127977900D03*
X94980000Y-126517400D03*
X92980000Y-126517400D03*
D18*
X101981000Y-126755400D03*
X101981000Y-124755400D03*
X104013000Y-143011400D03*
X104013000Y-141011400D03*
X106527600Y-142459200D03*
X106527600Y-144459200D03*
D13*
X111134400Y-130556000D03*
X109134400Y-130556000D03*
X42554400Y-130556000D03*
X40554400Y-130556000D03*
D18*
X37947600Y-142459200D03*
X37947600Y-144459200D03*
X35433000Y-143011400D03*
X35433000Y-141011400D03*
X33401000Y-126755400D03*
X33401000Y-124755400D03*
D13*
X26400000Y-126517400D03*
X24400000Y-126517400D03*
X20272500Y-127977900D03*
X22272500Y-127977900D03*
D18*
X20955000Y-139233400D03*
X20955000Y-141233400D03*
D13*
X21447000Y-136931400D03*
X19447000Y-136931400D03*
D18*
X24130000Y-150663400D03*
X24130000Y-152663400D03*
D13*
X28432000Y-148615400D03*
X26432000Y-148615400D03*
D20*
X21971000Y-152363400D03*
X21971000Y-150963400D03*
D13*
X21987000Y-148615400D03*
X23987000Y-148615400D03*
D19*
X29000000Y-155152400D03*
X29500000Y-155152400D03*
X30000000Y-155152400D03*
X30500000Y-155152400D03*
X31000000Y-155152400D03*
X31500000Y-155152400D03*
X32000000Y-155152400D03*
X34500000Y-155152400D03*
X33500000Y-155152400D03*
X33000000Y-155152400D03*
X32500000Y-155152400D03*
X34000000Y-155152400D03*
D13*
X22774400Y-145897600D03*
X24774400Y-145897600D03*
X20939000Y-131851400D03*
X18939000Y-131851400D03*
D18*
X18161000Y-130057400D03*
X18161000Y-128057400D03*
D13*
X25670000Y-143433800D03*
X27670000Y-143433800D03*
D18*
X30276800Y-145449800D03*
X30276800Y-143449800D03*
X32105600Y-143449800D03*
X32105600Y-145449800D03*
D13*
X21733000Y-143408400D03*
X23733000Y-143408400D03*
D18*
X18872200Y-123714000D03*
X18872200Y-125714000D03*
X42748200Y-121402600D03*
X42748200Y-123402600D03*
D17*
X23708000Y-155378400D03*
X17948000Y-155378400D03*
X17948000Y-159378400D03*
X23708000Y-159378400D03*
X45552000Y-155378400D03*
X39792000Y-155378400D03*
X39792000Y-159378400D03*
X45552000Y-159378400D03*
D15*
X35227500Y-138204900D03*
X35227500Y-137704900D03*
X35227500Y-137204900D03*
X35227500Y-136704900D03*
X35227500Y-136204900D03*
X35227500Y-135704900D03*
X35227500Y-135204900D03*
X35227500Y-134704900D03*
X35227500Y-134204900D03*
X35227500Y-133704900D03*
X35227500Y-133204900D03*
X35227500Y-132704900D03*
X35227500Y-132204900D03*
X35227500Y-131704900D03*
X35227500Y-131204900D03*
X35227500Y-130704900D03*
D16*
X33277500Y-128754900D03*
X32777500Y-128754900D03*
X32277500Y-128754900D03*
X31777500Y-128754900D03*
X31277500Y-128754900D03*
X30777500Y-128754900D03*
X30277500Y-128754900D03*
X29777500Y-128754900D03*
X29277500Y-128754900D03*
X28777500Y-128754900D03*
X28277500Y-128754900D03*
X27777500Y-128754900D03*
X27277500Y-128754900D03*
X26777500Y-128754900D03*
X26277500Y-128754900D03*
X25777500Y-128754900D03*
D15*
X23827500Y-130704900D03*
X23827500Y-131204900D03*
X23827500Y-131704900D03*
X23827500Y-132204900D03*
X23827500Y-132704900D03*
X23827500Y-133204900D03*
X23827500Y-133704900D03*
X23827500Y-134204900D03*
X23827500Y-134704900D03*
X23827500Y-135204900D03*
X23827500Y-135704900D03*
X23827500Y-136204900D03*
X23827500Y-136704900D03*
X23827500Y-137204900D03*
X23827500Y-137704900D03*
X23827500Y-138204900D03*
D16*
X25777500Y-140154900D03*
X26277500Y-140154900D03*
X26777500Y-140154900D03*
X27277500Y-140154900D03*
X27777500Y-140154900D03*
X28277500Y-140154900D03*
X28777500Y-140154900D03*
X29277500Y-140154900D03*
X29777500Y-140154900D03*
X30277500Y-140154900D03*
X30777500Y-140154900D03*
X31277500Y-140154900D03*
X31777500Y-140154900D03*
X32277500Y-140154900D03*
X32777500Y-140154900D03*
X33277500Y-140154900D03*
D14*
X28305000Y-152613400D03*
X28305000Y-150713400D03*
X26305000Y-151663400D03*
D13*
X39868600Y-141732000D03*
X41868600Y-141732000D03*
D12*
X43692500Y-138518900D03*
X43692500Y-133438900D03*
X39492500Y-133438900D03*
X39492500Y-138518900D03*
D11*
X46355000Y-147853400D03*
X46355000Y-145821400D03*
D13*
X76844400Y-130556000D03*
X74844400Y-130556000D03*
D18*
X72237600Y-142459200D03*
X72237600Y-144459200D03*
X69723000Y-143011400D03*
X69723000Y-141011400D03*
X67691000Y-126755400D03*
X67691000Y-124755400D03*
D13*
X60690000Y-126517400D03*
X58690000Y-126517400D03*
X54562500Y-127977900D03*
X56562500Y-127977900D03*
D18*
X55245000Y-139233400D03*
X55245000Y-141233400D03*
D13*
X55737000Y-136931400D03*
X53737000Y-136931400D03*
D18*
X58420000Y-150663400D03*
X58420000Y-152663400D03*
D13*
X62722000Y-148615400D03*
X60722000Y-148615400D03*
D20*
X56261000Y-152363400D03*
X56261000Y-150963400D03*
D13*
X56277000Y-148615400D03*
X58277000Y-148615400D03*
D19*
X63290000Y-155152400D03*
X63790000Y-155152400D03*
X64290000Y-155152400D03*
X64790000Y-155152400D03*
X65290000Y-155152400D03*
X65790000Y-155152400D03*
X66290000Y-155152400D03*
X68790000Y-155152400D03*
X67790000Y-155152400D03*
X67290000Y-155152400D03*
X66790000Y-155152400D03*
X68290000Y-155152400D03*
D13*
X57064400Y-145897600D03*
X59064400Y-145897600D03*
X55229000Y-131851400D03*
X53229000Y-131851400D03*
D18*
X52451000Y-130057400D03*
X52451000Y-128057400D03*
D13*
X59960000Y-143433800D03*
X61960000Y-143433800D03*
D18*
X64566800Y-145449800D03*
X64566800Y-143449800D03*
X66395600Y-143449800D03*
X66395600Y-145449800D03*
D13*
X56023000Y-143408400D03*
X58023000Y-143408400D03*
D18*
X53162200Y-123714000D03*
X53162200Y-125714000D03*
X77038200Y-121402600D03*
X77038200Y-123402600D03*
D17*
X57998000Y-155378400D03*
X52238000Y-155378400D03*
X52238000Y-159378400D03*
X57998000Y-159378400D03*
X79842000Y-155378400D03*
X74082000Y-155378400D03*
X74082000Y-159378400D03*
X79842000Y-159378400D03*
D15*
X69517500Y-138204900D03*
X69517500Y-137704900D03*
X69517500Y-137204900D03*
X69517500Y-136704900D03*
X69517500Y-136204900D03*
X69517500Y-135704900D03*
X69517500Y-135204900D03*
X69517500Y-134704900D03*
X69517500Y-134204900D03*
X69517500Y-133704900D03*
X69517500Y-133204900D03*
X69517500Y-132704900D03*
X69517500Y-132204900D03*
X69517500Y-131704900D03*
X69517500Y-131204900D03*
X69517500Y-130704900D03*
D16*
X67567500Y-128754900D03*
X67067500Y-128754900D03*
X66567500Y-128754900D03*
X66067500Y-128754900D03*
X65567500Y-128754900D03*
X65067500Y-128754900D03*
X64567500Y-128754900D03*
X64067500Y-128754900D03*
X63567500Y-128754900D03*
X63067500Y-128754900D03*
X62567500Y-128754900D03*
X62067500Y-128754900D03*
X61567500Y-128754900D03*
X61067500Y-128754900D03*
X60567500Y-128754900D03*
X60067500Y-128754900D03*
D15*
X58117500Y-130704900D03*
X58117500Y-131204900D03*
X58117500Y-131704900D03*
X58117500Y-132204900D03*
X58117500Y-132704900D03*
X58117500Y-133204900D03*
X58117500Y-133704900D03*
X58117500Y-134204900D03*
X58117500Y-134704900D03*
X58117500Y-135204900D03*
X58117500Y-135704900D03*
X58117500Y-136204900D03*
X58117500Y-136704900D03*
X58117500Y-137204900D03*
X58117500Y-137704900D03*
X58117500Y-138204900D03*
D16*
X60067500Y-140154900D03*
X60567500Y-140154900D03*
X61067500Y-140154900D03*
X61567500Y-140154900D03*
X62067500Y-140154900D03*
X62567500Y-140154900D03*
X63067500Y-140154900D03*
X63567500Y-140154900D03*
X64067500Y-140154900D03*
X64567500Y-140154900D03*
X65067500Y-140154900D03*
X65567500Y-140154900D03*
X66067500Y-140154900D03*
X66567500Y-140154900D03*
X67067500Y-140154900D03*
X67567500Y-140154900D03*
D14*
X62595000Y-152613400D03*
X62595000Y-150713400D03*
X60595000Y-151663400D03*
D13*
X74158600Y-141732000D03*
X76158600Y-141732000D03*
D12*
X77982500Y-138518900D03*
X77982500Y-133438900D03*
X73782500Y-133438900D03*
X73782500Y-138518900D03*
D11*
X80645000Y-147853400D03*
X80645000Y-145821400D03*
X80645000Y-198094600D03*
X80645000Y-196062600D03*
D12*
X77982500Y-188760100D03*
X77982500Y-183680100D03*
X73782500Y-183680100D03*
X73782500Y-188760100D03*
D13*
X74158600Y-191973200D03*
X76158600Y-191973200D03*
D14*
X62595000Y-202854600D03*
X62595000Y-200954600D03*
X60595000Y-201904600D03*
D15*
X69517500Y-188446100D03*
X69517500Y-187946100D03*
X69517500Y-187446100D03*
X69517500Y-186946100D03*
X69517500Y-186446100D03*
X69517500Y-185946100D03*
X69517500Y-185446100D03*
X69517500Y-184946100D03*
X69517500Y-184446100D03*
X69517500Y-183946100D03*
X69517500Y-183446100D03*
X69517500Y-182946100D03*
X69517500Y-182446100D03*
X69517500Y-181946100D03*
X69517500Y-181446100D03*
X69517500Y-180946100D03*
D16*
X67567500Y-178996100D03*
X67067500Y-178996100D03*
X66567500Y-178996100D03*
X66067500Y-178996100D03*
X65567500Y-178996100D03*
X65067500Y-178996100D03*
X64567500Y-178996100D03*
X64067500Y-178996100D03*
X63567500Y-178996100D03*
X63067500Y-178996100D03*
X62567500Y-178996100D03*
X62067500Y-178996100D03*
X61567500Y-178996100D03*
X61067500Y-178996100D03*
X60567500Y-178996100D03*
X60067500Y-178996100D03*
D15*
X58117500Y-180946100D03*
X58117500Y-181446100D03*
X58117500Y-181946100D03*
X58117500Y-182446100D03*
X58117500Y-182946100D03*
X58117500Y-183446100D03*
X58117500Y-183946100D03*
X58117500Y-184446100D03*
X58117500Y-184946100D03*
X58117500Y-185446100D03*
X58117500Y-185946100D03*
X58117500Y-186446100D03*
X58117500Y-186946100D03*
X58117500Y-187446100D03*
X58117500Y-187946100D03*
X58117500Y-188446100D03*
D16*
X60067500Y-190396100D03*
X60567500Y-190396100D03*
X61067500Y-190396100D03*
X61567500Y-190396100D03*
X62067500Y-190396100D03*
X62567500Y-190396100D03*
X63067500Y-190396100D03*
X63567500Y-190396100D03*
X64067500Y-190396100D03*
X64567500Y-190396100D03*
X65067500Y-190396100D03*
X65567500Y-190396100D03*
X66067500Y-190396100D03*
X66567500Y-190396100D03*
X67067500Y-190396100D03*
X67567500Y-190396100D03*
D17*
X79842000Y-205619600D03*
X74082000Y-205619600D03*
X74082000Y-209619600D03*
X79842000Y-209619600D03*
X57998000Y-205619600D03*
X52238000Y-205619600D03*
X52238000Y-209619600D03*
X57998000Y-209619600D03*
D18*
X77038200Y-171643800D03*
X77038200Y-173643800D03*
X53162200Y-173955200D03*
X53162200Y-175955200D03*
D13*
X56023000Y-193649600D03*
X58023000Y-193649600D03*
D18*
X66395600Y-193691000D03*
X66395600Y-195691000D03*
X64566800Y-195691000D03*
X64566800Y-193691000D03*
D13*
X59960000Y-193675000D03*
X61960000Y-193675000D03*
D18*
X52451000Y-180298600D03*
X52451000Y-178298600D03*
D13*
X55229000Y-182092600D03*
X53229000Y-182092600D03*
X57064400Y-196138800D03*
X59064400Y-196138800D03*
D19*
X63290000Y-205393600D03*
X63790000Y-205393600D03*
X64290000Y-205393600D03*
X64790000Y-205393600D03*
X65290000Y-205393600D03*
X65790000Y-205393600D03*
X66290000Y-205393600D03*
X68790000Y-205393600D03*
X67790000Y-205393600D03*
X67290000Y-205393600D03*
X66790000Y-205393600D03*
X68290000Y-205393600D03*
D13*
X56277000Y-198856600D03*
X58277000Y-198856600D03*
D20*
X56261000Y-202604600D03*
X56261000Y-201204600D03*
D13*
X62722000Y-198856600D03*
X60722000Y-198856600D03*
D18*
X58420000Y-200904600D03*
X58420000Y-202904600D03*
D13*
X55737000Y-187172600D03*
X53737000Y-187172600D03*
D18*
X55245000Y-189474600D03*
X55245000Y-191474600D03*
D13*
X54562500Y-178219100D03*
X56562500Y-178219100D03*
X60690000Y-176758600D03*
X58690000Y-176758600D03*
D18*
X67691000Y-176996600D03*
X67691000Y-174996600D03*
X69723000Y-193252600D03*
X69723000Y-191252600D03*
X72237600Y-192700400D03*
X72237600Y-194700400D03*
D13*
X76844400Y-180797200D03*
X74844400Y-180797200D03*
D11*
X46355000Y-198094600D03*
X46355000Y-196062600D03*
D12*
X43692500Y-188760100D03*
X43692500Y-183680100D03*
X39492500Y-183680100D03*
X39492500Y-188760100D03*
D13*
X39868600Y-191973200D03*
X41868600Y-191973200D03*
D14*
X28305000Y-202854600D03*
X28305000Y-200954600D03*
X26305000Y-201904600D03*
D15*
X35227500Y-188446100D03*
X35227500Y-187946100D03*
X35227500Y-187446100D03*
X35227500Y-186946100D03*
X35227500Y-186446100D03*
X35227500Y-185946100D03*
X35227500Y-185446100D03*
X35227500Y-184946100D03*
X35227500Y-184446100D03*
X35227500Y-183946100D03*
X35227500Y-183446100D03*
X35227500Y-182946100D03*
X35227500Y-182446100D03*
X35227500Y-181946100D03*
X35227500Y-181446100D03*
X35227500Y-180946100D03*
D16*
X33277500Y-178996100D03*
X32777500Y-178996100D03*
X32277500Y-178996100D03*
X31777500Y-178996100D03*
X31277500Y-178996100D03*
X30777500Y-178996100D03*
X30277500Y-178996100D03*
X29777500Y-178996100D03*
X29277500Y-178996100D03*
X28777500Y-178996100D03*
X28277500Y-178996100D03*
X27777500Y-178996100D03*
X27277500Y-178996100D03*
X26777500Y-178996100D03*
X26277500Y-178996100D03*
X25777500Y-178996100D03*
D15*
X23827500Y-180946100D03*
X23827500Y-181446100D03*
X23827500Y-181946100D03*
X23827500Y-182446100D03*
X23827500Y-182946100D03*
X23827500Y-183446100D03*
X23827500Y-183946100D03*
X23827500Y-184446100D03*
X23827500Y-184946100D03*
X23827500Y-185446100D03*
X23827500Y-185946100D03*
X23827500Y-186446100D03*
X23827500Y-186946100D03*
X23827500Y-187446100D03*
X23827500Y-187946100D03*
X23827500Y-188446100D03*
D16*
X25777500Y-190396100D03*
X26277500Y-190396100D03*
X26777500Y-190396100D03*
X27277500Y-190396100D03*
X27777500Y-190396100D03*
X28277500Y-190396100D03*
X28777500Y-190396100D03*
X29277500Y-190396100D03*
X29777500Y-190396100D03*
X30277500Y-190396100D03*
X30777500Y-190396100D03*
X31277500Y-190396100D03*
X31777500Y-190396100D03*
X32277500Y-190396100D03*
X32777500Y-190396100D03*
X33277500Y-190396100D03*
D17*
X45552000Y-205619600D03*
X39792000Y-205619600D03*
X39792000Y-209619600D03*
X45552000Y-209619600D03*
X23708000Y-205619600D03*
X17948000Y-205619600D03*
X17948000Y-209619600D03*
X23708000Y-209619600D03*
D18*
X42748200Y-171643800D03*
X42748200Y-173643800D03*
X18872200Y-173955200D03*
X18872200Y-175955200D03*
D13*
X21733000Y-193649600D03*
X23733000Y-193649600D03*
D18*
X32105600Y-193691000D03*
X32105600Y-195691000D03*
X30276800Y-195691000D03*
X30276800Y-193691000D03*
D13*
X25670000Y-193675000D03*
X27670000Y-193675000D03*
D18*
X18161000Y-180298600D03*
X18161000Y-178298600D03*
D13*
X20939000Y-182092600D03*
X18939000Y-182092600D03*
X22774400Y-196138800D03*
X24774400Y-196138800D03*
D19*
X29000000Y-205393600D03*
X29500000Y-205393600D03*
X30000000Y-205393600D03*
X30500000Y-205393600D03*
X31000000Y-205393600D03*
X31500000Y-205393600D03*
X32000000Y-205393600D03*
X34500000Y-205393600D03*
X33500000Y-205393600D03*
X33000000Y-205393600D03*
X32500000Y-205393600D03*
X34000000Y-205393600D03*
D13*
X21987000Y-198856600D03*
X23987000Y-198856600D03*
D20*
X21971000Y-202604600D03*
X21971000Y-201204600D03*
D13*
X28432000Y-198856600D03*
X26432000Y-198856600D03*
D18*
X24130000Y-200904600D03*
X24130000Y-202904600D03*
D13*
X21447000Y-187172600D03*
X19447000Y-187172600D03*
D18*
X20955000Y-189474600D03*
X20955000Y-191474600D03*
D13*
X20272500Y-178219100D03*
X22272500Y-178219100D03*
X26400000Y-176758600D03*
X24400000Y-176758600D03*
D18*
X33401000Y-176996600D03*
X33401000Y-174996600D03*
X35433000Y-193252600D03*
X35433000Y-191252600D03*
X37947600Y-192700400D03*
X37947600Y-194700400D03*
D13*
X42554400Y-180797200D03*
X40554400Y-180797200D03*
X111134400Y-180797200D03*
X109134400Y-180797200D03*
D18*
X106527600Y-192700400D03*
X106527600Y-194700400D03*
X104013000Y-193252600D03*
X104013000Y-191252600D03*
X101981000Y-176996600D03*
X101981000Y-174996600D03*
D13*
X94980000Y-176758600D03*
X92980000Y-176758600D03*
X88852500Y-178219100D03*
X90852500Y-178219100D03*
D18*
X89535000Y-189474600D03*
X89535000Y-191474600D03*
D13*
X90027000Y-187172600D03*
X88027000Y-187172600D03*
D18*
X92710000Y-200904600D03*
X92710000Y-202904600D03*
D13*
X97012000Y-198856600D03*
X95012000Y-198856600D03*
D20*
X90551000Y-202604600D03*
X90551000Y-201204600D03*
D13*
X90567000Y-198856600D03*
X92567000Y-198856600D03*
D19*
X97580000Y-205393600D03*
X98080000Y-205393600D03*
X98580000Y-205393600D03*
X99080000Y-205393600D03*
X99580000Y-205393600D03*
X100080000Y-205393600D03*
X100580000Y-205393600D03*
X103080000Y-205393600D03*
X102080000Y-205393600D03*
X101580000Y-205393600D03*
X101080000Y-205393600D03*
X102580000Y-205393600D03*
D13*
X91354400Y-196138800D03*
X93354400Y-196138800D03*
X89519000Y-182092600D03*
X87519000Y-182092600D03*
D18*
X86741000Y-180298600D03*
X86741000Y-178298600D03*
D13*
X94250000Y-193675000D03*
X96250000Y-193675000D03*
D18*
X98856800Y-195691000D03*
X98856800Y-193691000D03*
X100685600Y-193691000D03*
X100685600Y-195691000D03*
D13*
X90313000Y-193649600D03*
X92313000Y-193649600D03*
D18*
X87452200Y-173955200D03*
X87452200Y-175955200D03*
X111328200Y-171643800D03*
X111328200Y-173643800D03*
D17*
X92288000Y-205619600D03*
X86528000Y-205619600D03*
X86528000Y-209619600D03*
X92288000Y-209619600D03*
X114132000Y-205619600D03*
X108372000Y-205619600D03*
X108372000Y-209619600D03*
X114132000Y-209619600D03*
D15*
X103807500Y-188446100D03*
X103807500Y-187946100D03*
X103807500Y-187446100D03*
X103807500Y-186946100D03*
X103807500Y-186446100D03*
X103807500Y-185946100D03*
X103807500Y-185446100D03*
X103807500Y-184946100D03*
X103807500Y-184446100D03*
X103807500Y-183946100D03*
X103807500Y-183446100D03*
X103807500Y-182946100D03*
X103807500Y-182446100D03*
X103807500Y-181946100D03*
X103807500Y-181446100D03*
X103807500Y-180946100D03*
D16*
X101857500Y-178996100D03*
X101357500Y-178996100D03*
X100857500Y-178996100D03*
X100357500Y-178996100D03*
X99857500Y-178996100D03*
X99357500Y-178996100D03*
X98857500Y-178996100D03*
X98357500Y-178996100D03*
X97857500Y-178996100D03*
X97357500Y-178996100D03*
X96857500Y-178996100D03*
X96357500Y-178996100D03*
X95857500Y-178996100D03*
X95357500Y-178996100D03*
X94857500Y-178996100D03*
X94357500Y-178996100D03*
D15*
X92407500Y-180946100D03*
X92407500Y-181446100D03*
X92407500Y-181946100D03*
X92407500Y-182446100D03*
X92407500Y-182946100D03*
X92407500Y-183446100D03*
X92407500Y-183946100D03*
X92407500Y-184446100D03*
X92407500Y-184946100D03*
X92407500Y-185446100D03*
X92407500Y-185946100D03*
X92407500Y-186446100D03*
X92407500Y-186946100D03*
X92407500Y-187446100D03*
X92407500Y-187946100D03*
X92407500Y-188446100D03*
D16*
X94357500Y-190396100D03*
X94857500Y-190396100D03*
X95357500Y-190396100D03*
X95857500Y-190396100D03*
X96357500Y-190396100D03*
X96857500Y-190396100D03*
X97357500Y-190396100D03*
X97857500Y-190396100D03*
X98357500Y-190396100D03*
X98857500Y-190396100D03*
X99357500Y-190396100D03*
X99857500Y-190396100D03*
X100357500Y-190396100D03*
X100857500Y-190396100D03*
X101357500Y-190396100D03*
X101857500Y-190396100D03*
D14*
X96885000Y-202854600D03*
X96885000Y-200954600D03*
X94885000Y-201904600D03*
D13*
X108448600Y-191973200D03*
X110448600Y-191973200D03*
D12*
X112272500Y-188760100D03*
X112272500Y-183680100D03*
X108072500Y-183680100D03*
X108072500Y-188760100D03*
D11*
X114935000Y-198094600D03*
X114935000Y-196062600D03*
D13*
X145424400Y-180797200D03*
X143424400Y-180797200D03*
D18*
X140817600Y-192700400D03*
X140817600Y-194700400D03*
X138303000Y-193252600D03*
X138303000Y-191252600D03*
X136271000Y-176996600D03*
X136271000Y-174996600D03*
D13*
X129270000Y-176758600D03*
X127270000Y-176758600D03*
X123142500Y-178219100D03*
X125142500Y-178219100D03*
D18*
X123825000Y-189474600D03*
X123825000Y-191474600D03*
D13*
X124317000Y-187172600D03*
X122317000Y-187172600D03*
D18*
X127000000Y-200904600D03*
X127000000Y-202904600D03*
D13*
X131302000Y-198856600D03*
X129302000Y-198856600D03*
D20*
X124841000Y-202604600D03*
X124841000Y-201204600D03*
D13*
X124857000Y-198856600D03*
X126857000Y-198856600D03*
D19*
X131870000Y-205393600D03*
X132370000Y-205393600D03*
X132870000Y-205393600D03*
X133370000Y-205393600D03*
X133870000Y-205393600D03*
X134370000Y-205393600D03*
X134870000Y-205393600D03*
X137370000Y-205393600D03*
X136370000Y-205393600D03*
X135870000Y-205393600D03*
X135370000Y-205393600D03*
X136870000Y-205393600D03*
D13*
X125644400Y-196138800D03*
X127644400Y-196138800D03*
X123809000Y-182092600D03*
X121809000Y-182092600D03*
D18*
X121031000Y-180298600D03*
X121031000Y-178298600D03*
D13*
X128540000Y-193675000D03*
X130540000Y-193675000D03*
D18*
X133146800Y-195691000D03*
X133146800Y-193691000D03*
X134975600Y-193691000D03*
X134975600Y-195691000D03*
D13*
X124603000Y-193649600D03*
X126603000Y-193649600D03*
D18*
X121742200Y-173955200D03*
X121742200Y-175955200D03*
X145618200Y-171643800D03*
X145618200Y-173643800D03*
D17*
X126578000Y-205619600D03*
X120818000Y-205619600D03*
X120818000Y-209619600D03*
X126578000Y-209619600D03*
X148422000Y-205619600D03*
X142662000Y-205619600D03*
X142662000Y-209619600D03*
X148422000Y-209619600D03*
D15*
X138097500Y-188446100D03*
X138097500Y-187946100D03*
X138097500Y-187446100D03*
X138097500Y-186946100D03*
X138097500Y-186446100D03*
X138097500Y-185946100D03*
X138097500Y-185446100D03*
X138097500Y-184946100D03*
X138097500Y-184446100D03*
X138097500Y-183946100D03*
X138097500Y-183446100D03*
X138097500Y-182946100D03*
X138097500Y-182446100D03*
X138097500Y-181946100D03*
X138097500Y-181446100D03*
X138097500Y-180946100D03*
D16*
X136147500Y-178996100D03*
X135647500Y-178996100D03*
X135147500Y-178996100D03*
X134647500Y-178996100D03*
X134147500Y-178996100D03*
X133647500Y-178996100D03*
X133147500Y-178996100D03*
X132647500Y-178996100D03*
X132147500Y-178996100D03*
X131647500Y-178996100D03*
X131147500Y-178996100D03*
X130647500Y-178996100D03*
X130147500Y-178996100D03*
X129647500Y-178996100D03*
X129147500Y-178996100D03*
X128647500Y-178996100D03*
D15*
X126697500Y-180946100D03*
X126697500Y-181446100D03*
X126697500Y-181946100D03*
X126697500Y-182446100D03*
X126697500Y-182946100D03*
X126697500Y-183446100D03*
X126697500Y-183946100D03*
X126697500Y-184446100D03*
X126697500Y-184946100D03*
X126697500Y-185446100D03*
X126697500Y-185946100D03*
X126697500Y-186446100D03*
X126697500Y-186946100D03*
X126697500Y-187446100D03*
X126697500Y-187946100D03*
X126697500Y-188446100D03*
D16*
X128647500Y-190396100D03*
X129147500Y-190396100D03*
X129647500Y-190396100D03*
X130147500Y-190396100D03*
X130647500Y-190396100D03*
X131147500Y-190396100D03*
X131647500Y-190396100D03*
X132147500Y-190396100D03*
X132647500Y-190396100D03*
X133147500Y-190396100D03*
X133647500Y-190396100D03*
X134147500Y-190396100D03*
X134647500Y-190396100D03*
X135147500Y-190396100D03*
X135647500Y-190396100D03*
X136147500Y-190396100D03*
D14*
X131175000Y-202854600D03*
X131175000Y-200954600D03*
X129175000Y-201904600D03*
D13*
X142738600Y-191973200D03*
X144738600Y-191973200D03*
D12*
X146562500Y-188760100D03*
X146562500Y-183680100D03*
X142362500Y-183680100D03*
X142362500Y-188760100D03*
D11*
X149225000Y-198094600D03*
X149225000Y-196062600D03*
X286385000Y-198094600D03*
X286385000Y-196062600D03*
D12*
X283722500Y-188760100D03*
X283722500Y-183680100D03*
X279522500Y-183680100D03*
X279522500Y-188760100D03*
D13*
X279898600Y-191973200D03*
X281898600Y-191973200D03*
D14*
X268335000Y-202854600D03*
X268335000Y-200954600D03*
X266335000Y-201904600D03*
D15*
X275257500Y-188446100D03*
X275257500Y-187946100D03*
X275257500Y-187446100D03*
X275257500Y-186946100D03*
X275257500Y-186446100D03*
X275257500Y-185946100D03*
X275257500Y-185446100D03*
X275257500Y-184946100D03*
X275257500Y-184446100D03*
X275257500Y-183946100D03*
X275257500Y-183446100D03*
X275257500Y-182946100D03*
X275257500Y-182446100D03*
X275257500Y-181946100D03*
X275257500Y-181446100D03*
X275257500Y-180946100D03*
D16*
X273307500Y-178996100D03*
X272807500Y-178996100D03*
X272307500Y-178996100D03*
X271807500Y-178996100D03*
X271307500Y-178996100D03*
X270807500Y-178996100D03*
X270307500Y-178996100D03*
X269807500Y-178996100D03*
X269307500Y-178996100D03*
X268807500Y-178996100D03*
X268307500Y-178996100D03*
X267807500Y-178996100D03*
X267307500Y-178996100D03*
X266807500Y-178996100D03*
X266307500Y-178996100D03*
X265807500Y-178996100D03*
D15*
X263857500Y-180946100D03*
X263857500Y-181446100D03*
X263857500Y-181946100D03*
X263857500Y-182446100D03*
X263857500Y-182946100D03*
X263857500Y-183446100D03*
X263857500Y-183946100D03*
X263857500Y-184446100D03*
X263857500Y-184946100D03*
X263857500Y-185446100D03*
X263857500Y-185946100D03*
X263857500Y-186446100D03*
X263857500Y-186946100D03*
X263857500Y-187446100D03*
X263857500Y-187946100D03*
X263857500Y-188446100D03*
D16*
X265807500Y-190396100D03*
X266307500Y-190396100D03*
X266807500Y-190396100D03*
X267307500Y-190396100D03*
X267807500Y-190396100D03*
X268307500Y-190396100D03*
X268807500Y-190396100D03*
X269307500Y-190396100D03*
X269807500Y-190396100D03*
X270307500Y-190396100D03*
X270807500Y-190396100D03*
X271307500Y-190396100D03*
X271807500Y-190396100D03*
X272307500Y-190396100D03*
X272807500Y-190396100D03*
X273307500Y-190396100D03*
D17*
X285582000Y-205619600D03*
X279822000Y-205619600D03*
X279822000Y-209619600D03*
X285582000Y-209619600D03*
X263738000Y-205619600D03*
X257978000Y-205619600D03*
X257978000Y-209619600D03*
X263738000Y-209619600D03*
D18*
X282778200Y-171643800D03*
X282778200Y-173643800D03*
X258902200Y-173955200D03*
X258902200Y-175955200D03*
D13*
X261763000Y-193649600D03*
X263763000Y-193649600D03*
D18*
X272135600Y-193691000D03*
X272135600Y-195691000D03*
X270306800Y-195691000D03*
X270306800Y-193691000D03*
D13*
X265700000Y-193675000D03*
X267700000Y-193675000D03*
D18*
X258191000Y-180298600D03*
X258191000Y-178298600D03*
D13*
X260969000Y-182092600D03*
X258969000Y-182092600D03*
X262804400Y-196138800D03*
X264804400Y-196138800D03*
D19*
X269030000Y-205393600D03*
X269530000Y-205393600D03*
X270030000Y-205393600D03*
X270530000Y-205393600D03*
X271030000Y-205393600D03*
X271530000Y-205393600D03*
X272030000Y-205393600D03*
X274530000Y-205393600D03*
X273530000Y-205393600D03*
X273030000Y-205393600D03*
X272530000Y-205393600D03*
X274030000Y-205393600D03*
D13*
X262017000Y-198856600D03*
X264017000Y-198856600D03*
D20*
X262001000Y-202604600D03*
X262001000Y-201204600D03*
D13*
X268462000Y-198856600D03*
X266462000Y-198856600D03*
D18*
X264160000Y-200904600D03*
X264160000Y-202904600D03*
D13*
X261477000Y-187172600D03*
X259477000Y-187172600D03*
D18*
X260985000Y-189474600D03*
X260985000Y-191474600D03*
D13*
X260302500Y-178219100D03*
X262302500Y-178219100D03*
X266430000Y-176758600D03*
X264430000Y-176758600D03*
D18*
X273431000Y-176996600D03*
X273431000Y-174996600D03*
X275463000Y-193252600D03*
X275463000Y-191252600D03*
X277977600Y-192700400D03*
X277977600Y-194700400D03*
D13*
X282584400Y-180797200D03*
X280584400Y-180797200D03*
D11*
X252095000Y-198094600D03*
X252095000Y-196062600D03*
D12*
X249432500Y-188760100D03*
X249432500Y-183680100D03*
X245232500Y-183680100D03*
X245232500Y-188760100D03*
D13*
X245608600Y-191973200D03*
X247608600Y-191973200D03*
D14*
X234045000Y-202854600D03*
X234045000Y-200954600D03*
X232045000Y-201904600D03*
D15*
X240967500Y-188446100D03*
X240967500Y-187946100D03*
X240967500Y-187446100D03*
X240967500Y-186946100D03*
X240967500Y-186446100D03*
X240967500Y-185946100D03*
X240967500Y-185446100D03*
X240967500Y-184946100D03*
X240967500Y-184446100D03*
X240967500Y-183946100D03*
X240967500Y-183446100D03*
X240967500Y-182946100D03*
X240967500Y-182446100D03*
X240967500Y-181946100D03*
X240967500Y-181446100D03*
X240967500Y-180946100D03*
D16*
X239017500Y-178996100D03*
X238517500Y-178996100D03*
X238017500Y-178996100D03*
X237517500Y-178996100D03*
X237017500Y-178996100D03*
X236517500Y-178996100D03*
X236017500Y-178996100D03*
X235517500Y-178996100D03*
X235017500Y-178996100D03*
X234517500Y-178996100D03*
X234017500Y-178996100D03*
X233517500Y-178996100D03*
X233017500Y-178996100D03*
X232517500Y-178996100D03*
X232017500Y-178996100D03*
X231517500Y-178996100D03*
D15*
X229567500Y-180946100D03*
X229567500Y-181446100D03*
X229567500Y-181946100D03*
X229567500Y-182446100D03*
X229567500Y-182946100D03*
X229567500Y-183446100D03*
X229567500Y-183946100D03*
X229567500Y-184446100D03*
X229567500Y-184946100D03*
X229567500Y-185446100D03*
X229567500Y-185946100D03*
X229567500Y-186446100D03*
X229567500Y-186946100D03*
X229567500Y-187446100D03*
X229567500Y-187946100D03*
X229567500Y-188446100D03*
D16*
X231517500Y-190396100D03*
X232017500Y-190396100D03*
X232517500Y-190396100D03*
X233017500Y-190396100D03*
X233517500Y-190396100D03*
X234017500Y-190396100D03*
X234517500Y-190396100D03*
X235017500Y-190396100D03*
X235517500Y-190396100D03*
X236017500Y-190396100D03*
X236517500Y-190396100D03*
X237017500Y-190396100D03*
X237517500Y-190396100D03*
X238017500Y-190396100D03*
X238517500Y-190396100D03*
X239017500Y-190396100D03*
D17*
X251292000Y-205619600D03*
X245532000Y-205619600D03*
X245532000Y-209619600D03*
X251292000Y-209619600D03*
X229448000Y-205619600D03*
X223688000Y-205619600D03*
X223688000Y-209619600D03*
X229448000Y-209619600D03*
D18*
X248488200Y-171643800D03*
X248488200Y-173643800D03*
X224612200Y-173955200D03*
X224612200Y-175955200D03*
D13*
X227473000Y-193649600D03*
X229473000Y-193649600D03*
D18*
X237845600Y-193691000D03*
X237845600Y-195691000D03*
X236016800Y-195691000D03*
X236016800Y-193691000D03*
D13*
X231410000Y-193675000D03*
X233410000Y-193675000D03*
D18*
X223901000Y-180298600D03*
X223901000Y-178298600D03*
D13*
X226679000Y-182092600D03*
X224679000Y-182092600D03*
X228514400Y-196138800D03*
X230514400Y-196138800D03*
D19*
X234740000Y-205393600D03*
X235240000Y-205393600D03*
X235740000Y-205393600D03*
X236240000Y-205393600D03*
X236740000Y-205393600D03*
X237240000Y-205393600D03*
X237740000Y-205393600D03*
X240240000Y-205393600D03*
X239240000Y-205393600D03*
X238740000Y-205393600D03*
X238240000Y-205393600D03*
X239740000Y-205393600D03*
D13*
X227727000Y-198856600D03*
X229727000Y-198856600D03*
D20*
X227711000Y-202604600D03*
X227711000Y-201204600D03*
D13*
X234172000Y-198856600D03*
X232172000Y-198856600D03*
D18*
X229870000Y-200904600D03*
X229870000Y-202904600D03*
D13*
X227187000Y-187172600D03*
X225187000Y-187172600D03*
D18*
X226695000Y-189474600D03*
X226695000Y-191474600D03*
D13*
X226012500Y-178219100D03*
X228012500Y-178219100D03*
X232140000Y-176758600D03*
X230140000Y-176758600D03*
D18*
X239141000Y-176996600D03*
X239141000Y-174996600D03*
X241173000Y-193252600D03*
X241173000Y-191252600D03*
X243687600Y-192700400D03*
X243687600Y-194700400D03*
D13*
X248294400Y-180797200D03*
X246294400Y-180797200D03*
X179714400Y-180797200D03*
X177714400Y-180797200D03*
D18*
X175107600Y-192700400D03*
X175107600Y-194700400D03*
X172593000Y-193252600D03*
X172593000Y-191252600D03*
X170561000Y-176996600D03*
X170561000Y-174996600D03*
D13*
X163560000Y-176758600D03*
X161560000Y-176758600D03*
X157432500Y-178219100D03*
X159432500Y-178219100D03*
D18*
X158115000Y-189474600D03*
X158115000Y-191474600D03*
D13*
X158607000Y-187172600D03*
X156607000Y-187172600D03*
D18*
X161290000Y-200904600D03*
X161290000Y-202904600D03*
D13*
X165592000Y-198856600D03*
X163592000Y-198856600D03*
D20*
X159131000Y-202604600D03*
X159131000Y-201204600D03*
D13*
X159147000Y-198856600D03*
X161147000Y-198856600D03*
D19*
X166160000Y-205393600D03*
X166660000Y-205393600D03*
X167160000Y-205393600D03*
X167660000Y-205393600D03*
X168160000Y-205393600D03*
X168660000Y-205393600D03*
X169160000Y-205393600D03*
X171660000Y-205393600D03*
X170660000Y-205393600D03*
X170160000Y-205393600D03*
X169660000Y-205393600D03*
X171160000Y-205393600D03*
D13*
X159934400Y-196138800D03*
X161934400Y-196138800D03*
X158099000Y-182092600D03*
X156099000Y-182092600D03*
D18*
X155321000Y-180298600D03*
X155321000Y-178298600D03*
D13*
X162830000Y-193675000D03*
X164830000Y-193675000D03*
D18*
X167436800Y-195691000D03*
X167436800Y-193691000D03*
X169265600Y-193691000D03*
X169265600Y-195691000D03*
D13*
X158893000Y-193649600D03*
X160893000Y-193649600D03*
D18*
X156032200Y-173955200D03*
X156032200Y-175955200D03*
X179908200Y-171643800D03*
X179908200Y-173643800D03*
D17*
X160868000Y-205619600D03*
X155108000Y-205619600D03*
X155108000Y-209619600D03*
X160868000Y-209619600D03*
X182712000Y-205619600D03*
X176952000Y-205619600D03*
X176952000Y-209619600D03*
X182712000Y-209619600D03*
D15*
X172387500Y-188446100D03*
X172387500Y-187946100D03*
X172387500Y-187446100D03*
X172387500Y-186946100D03*
X172387500Y-186446100D03*
X172387500Y-185946100D03*
X172387500Y-185446100D03*
X172387500Y-184946100D03*
X172387500Y-184446100D03*
X172387500Y-183946100D03*
X172387500Y-183446100D03*
X172387500Y-182946100D03*
X172387500Y-182446100D03*
X172387500Y-181946100D03*
X172387500Y-181446100D03*
X172387500Y-180946100D03*
D16*
X170437500Y-178996100D03*
X169937500Y-178996100D03*
X169437500Y-178996100D03*
X168937500Y-178996100D03*
X168437500Y-178996100D03*
X167937500Y-178996100D03*
X167437500Y-178996100D03*
X166937500Y-178996100D03*
X166437500Y-178996100D03*
X165937500Y-178996100D03*
X165437500Y-178996100D03*
X164937500Y-178996100D03*
X164437500Y-178996100D03*
X163937500Y-178996100D03*
X163437500Y-178996100D03*
X162937500Y-178996100D03*
D15*
X160987500Y-180946100D03*
X160987500Y-181446100D03*
X160987500Y-181946100D03*
X160987500Y-182446100D03*
X160987500Y-182946100D03*
X160987500Y-183446100D03*
X160987500Y-183946100D03*
X160987500Y-184446100D03*
X160987500Y-184946100D03*
X160987500Y-185446100D03*
X160987500Y-185946100D03*
X160987500Y-186446100D03*
X160987500Y-186946100D03*
X160987500Y-187446100D03*
X160987500Y-187946100D03*
X160987500Y-188446100D03*
D16*
X162937500Y-190396100D03*
X163437500Y-190396100D03*
X163937500Y-190396100D03*
X164437500Y-190396100D03*
X164937500Y-190396100D03*
X165437500Y-190396100D03*
X165937500Y-190396100D03*
X166437500Y-190396100D03*
X166937500Y-190396100D03*
X167437500Y-190396100D03*
X167937500Y-190396100D03*
X168437500Y-190396100D03*
X168937500Y-190396100D03*
X169437500Y-190396100D03*
X169937500Y-190396100D03*
X170437500Y-190396100D03*
D14*
X165465000Y-202854600D03*
X165465000Y-200954600D03*
X163465000Y-201904600D03*
D13*
X177028600Y-191973200D03*
X179028600Y-191973200D03*
D12*
X180852500Y-188760100D03*
X180852500Y-183680100D03*
X176652500Y-183680100D03*
X176652500Y-188760100D03*
D11*
X183515000Y-198094600D03*
X183515000Y-196062600D03*
D13*
X214004400Y-180797200D03*
X212004400Y-180797200D03*
D18*
X209397600Y-192700400D03*
X209397600Y-194700400D03*
X206883000Y-193252600D03*
X206883000Y-191252600D03*
X204851000Y-176996600D03*
X204851000Y-174996600D03*
D13*
X197850000Y-176758600D03*
X195850000Y-176758600D03*
X191722500Y-178219100D03*
X193722500Y-178219100D03*
D18*
X192405000Y-189474600D03*
X192405000Y-191474600D03*
D13*
X192897000Y-187172600D03*
X190897000Y-187172600D03*
D18*
X195580000Y-200904600D03*
X195580000Y-202904600D03*
D13*
X199882000Y-198856600D03*
X197882000Y-198856600D03*
D20*
X193421000Y-202604600D03*
X193421000Y-201204600D03*
D13*
X193437000Y-198856600D03*
X195437000Y-198856600D03*
D19*
X200450000Y-205393600D03*
X200950000Y-205393600D03*
X201450000Y-205393600D03*
X201950000Y-205393600D03*
X202450000Y-205393600D03*
X202950000Y-205393600D03*
X203450000Y-205393600D03*
X205950000Y-205393600D03*
X204950000Y-205393600D03*
X204450000Y-205393600D03*
X203950000Y-205393600D03*
X205450000Y-205393600D03*
D13*
X194224400Y-196138800D03*
X196224400Y-196138800D03*
X192389000Y-182092600D03*
X190389000Y-182092600D03*
D18*
X189611000Y-180298600D03*
X189611000Y-178298600D03*
D13*
X197120000Y-193675000D03*
X199120000Y-193675000D03*
D18*
X201726800Y-195691000D03*
X201726800Y-193691000D03*
X203555600Y-193691000D03*
X203555600Y-195691000D03*
D13*
X193183000Y-193649600D03*
X195183000Y-193649600D03*
D18*
X190322200Y-173955200D03*
X190322200Y-175955200D03*
X214198200Y-171643800D03*
X214198200Y-173643800D03*
D17*
X195158000Y-205619600D03*
X189398000Y-205619600D03*
X189398000Y-209619600D03*
X195158000Y-209619600D03*
X217002000Y-205619600D03*
X211242000Y-205619600D03*
X211242000Y-209619600D03*
X217002000Y-209619600D03*
D15*
X206677500Y-188446100D03*
X206677500Y-187946100D03*
X206677500Y-187446100D03*
X206677500Y-186946100D03*
X206677500Y-186446100D03*
X206677500Y-185946100D03*
X206677500Y-185446100D03*
X206677500Y-184946100D03*
X206677500Y-184446100D03*
X206677500Y-183946100D03*
X206677500Y-183446100D03*
X206677500Y-182946100D03*
X206677500Y-182446100D03*
X206677500Y-181946100D03*
X206677500Y-181446100D03*
X206677500Y-180946100D03*
D16*
X204727500Y-178996100D03*
X204227500Y-178996100D03*
X203727500Y-178996100D03*
X203227500Y-178996100D03*
X202727500Y-178996100D03*
X202227500Y-178996100D03*
X201727500Y-178996100D03*
X201227500Y-178996100D03*
X200727500Y-178996100D03*
X200227500Y-178996100D03*
X199727500Y-178996100D03*
X199227500Y-178996100D03*
X198727500Y-178996100D03*
X198227500Y-178996100D03*
X197727500Y-178996100D03*
X197227500Y-178996100D03*
D15*
X195277500Y-180946100D03*
X195277500Y-181446100D03*
X195277500Y-181946100D03*
X195277500Y-182446100D03*
X195277500Y-182946100D03*
X195277500Y-183446100D03*
X195277500Y-183946100D03*
X195277500Y-184446100D03*
X195277500Y-184946100D03*
X195277500Y-185446100D03*
X195277500Y-185946100D03*
X195277500Y-186446100D03*
X195277500Y-186946100D03*
X195277500Y-187446100D03*
X195277500Y-187946100D03*
X195277500Y-188446100D03*
D16*
X197227500Y-190396100D03*
X197727500Y-190396100D03*
X198227500Y-190396100D03*
X198727500Y-190396100D03*
X199227500Y-190396100D03*
X199727500Y-190396100D03*
X200227500Y-190396100D03*
X200727500Y-190396100D03*
X201227500Y-190396100D03*
X201727500Y-190396100D03*
X202227500Y-190396100D03*
X202727500Y-190396100D03*
X203227500Y-190396100D03*
X203727500Y-190396100D03*
X204227500Y-190396100D03*
X204727500Y-190396100D03*
D14*
X199755000Y-202854600D03*
X199755000Y-200954600D03*
X197755000Y-201904600D03*
D13*
X211318600Y-191973200D03*
X213318600Y-191973200D03*
D12*
X215142500Y-188760100D03*
X215142500Y-183680100D03*
X210942500Y-183680100D03*
X210942500Y-188760100D03*
D11*
X217805000Y-198094600D03*
X217805000Y-196062600D03*
X217805000Y-97612200D03*
X217805000Y-95580200D03*
D12*
X215142500Y-88277700D03*
X215142500Y-83197700D03*
X210942500Y-83197700D03*
X210942500Y-88277700D03*
D13*
X211318600Y-91490800D03*
X213318600Y-91490800D03*
D14*
X199755000Y-102372200D03*
X199755000Y-100472200D03*
X197755000Y-101422200D03*
D15*
X206677500Y-87963700D03*
X206677500Y-87463700D03*
X206677500Y-86963700D03*
X206677500Y-86463700D03*
X206677500Y-85963700D03*
X206677500Y-85463700D03*
X206677500Y-84963700D03*
X206677500Y-84463700D03*
X206677500Y-83963700D03*
X206677500Y-83463700D03*
X206677500Y-82963700D03*
X206677500Y-82463700D03*
X206677500Y-81963700D03*
X206677500Y-81463700D03*
X206677500Y-80963700D03*
X206677500Y-80463700D03*
D16*
X204727500Y-78513700D03*
X204227500Y-78513700D03*
X203727500Y-78513700D03*
X203227500Y-78513700D03*
X202727500Y-78513700D03*
X202227500Y-78513700D03*
X201727500Y-78513700D03*
X201227500Y-78513700D03*
X200727500Y-78513700D03*
X200227500Y-78513700D03*
X199727500Y-78513700D03*
X199227500Y-78513700D03*
X198727500Y-78513700D03*
X198227500Y-78513700D03*
X197727500Y-78513700D03*
X197227500Y-78513700D03*
D15*
X195277500Y-80463700D03*
X195277500Y-80963700D03*
X195277500Y-81463700D03*
X195277500Y-81963700D03*
X195277500Y-82463700D03*
X195277500Y-82963700D03*
X195277500Y-83463700D03*
X195277500Y-83963700D03*
X195277500Y-84463700D03*
X195277500Y-84963700D03*
X195277500Y-85463700D03*
X195277500Y-85963700D03*
X195277500Y-86463700D03*
X195277500Y-86963700D03*
X195277500Y-87463700D03*
X195277500Y-87963700D03*
D16*
X197227500Y-89913700D03*
X197727500Y-89913700D03*
X198227500Y-89913700D03*
X198727500Y-89913700D03*
X199227500Y-89913700D03*
X199727500Y-89913700D03*
X200227500Y-89913700D03*
X200727500Y-89913700D03*
X201227500Y-89913700D03*
X201727500Y-89913700D03*
X202227500Y-89913700D03*
X202727500Y-89913700D03*
X203227500Y-89913700D03*
X203727500Y-89913700D03*
X204227500Y-89913700D03*
X204727500Y-89913700D03*
D17*
X217002000Y-105137200D03*
X211242000Y-105137200D03*
X211242000Y-109137200D03*
X217002000Y-109137200D03*
X195158000Y-105137200D03*
X189398000Y-105137200D03*
X189398000Y-109137200D03*
X195158000Y-109137200D03*
D18*
X214198200Y-71161400D03*
X214198200Y-73161400D03*
X190322200Y-73472800D03*
X190322200Y-75472800D03*
D13*
X193183000Y-93167200D03*
X195183000Y-93167200D03*
D18*
X203555600Y-93208600D03*
X203555600Y-95208600D03*
X201726800Y-95208600D03*
X201726800Y-93208600D03*
D13*
X197120000Y-93192600D03*
X199120000Y-93192600D03*
D18*
X189611000Y-79816200D03*
X189611000Y-77816200D03*
D13*
X192389000Y-81610200D03*
X190389000Y-81610200D03*
X194224400Y-95656400D03*
X196224400Y-95656400D03*
D19*
X200450000Y-104911200D03*
X200950000Y-104911200D03*
X201450000Y-104911200D03*
X201950000Y-104911200D03*
X202450000Y-104911200D03*
X202950000Y-104911200D03*
X203450000Y-104911200D03*
X205950000Y-104911200D03*
X204950000Y-104911200D03*
X204450000Y-104911200D03*
X203950000Y-104911200D03*
X205450000Y-104911200D03*
D13*
X193437000Y-98374200D03*
X195437000Y-98374200D03*
D20*
X193421000Y-102122200D03*
X193421000Y-100722200D03*
D13*
X199882000Y-98374200D03*
X197882000Y-98374200D03*
D18*
X195580000Y-100422200D03*
X195580000Y-102422200D03*
D13*
X192897000Y-86690200D03*
X190897000Y-86690200D03*
D18*
X192405000Y-88992200D03*
X192405000Y-90992200D03*
D13*
X191722500Y-77736700D03*
X193722500Y-77736700D03*
X197850000Y-76276200D03*
X195850000Y-76276200D03*
D18*
X204851000Y-76514200D03*
X204851000Y-74514200D03*
X206883000Y-92770200D03*
X206883000Y-90770200D03*
X209397600Y-92218000D03*
X209397600Y-94218000D03*
D13*
X214004400Y-80314800D03*
X212004400Y-80314800D03*
D11*
X183515000Y-97612200D03*
X183515000Y-95580200D03*
D12*
X180852500Y-88277700D03*
X180852500Y-83197700D03*
X176652500Y-83197700D03*
X176652500Y-88277700D03*
D13*
X177028600Y-91490800D03*
X179028600Y-91490800D03*
D14*
X165465000Y-102372200D03*
X165465000Y-100472200D03*
X163465000Y-101422200D03*
D15*
X172387500Y-87963700D03*
X172387500Y-87463700D03*
X172387500Y-86963700D03*
X172387500Y-86463700D03*
X172387500Y-85963700D03*
X172387500Y-85463700D03*
X172387500Y-84963700D03*
X172387500Y-84463700D03*
X172387500Y-83963700D03*
X172387500Y-83463700D03*
X172387500Y-82963700D03*
X172387500Y-82463700D03*
X172387500Y-81963700D03*
X172387500Y-81463700D03*
X172387500Y-80963700D03*
X172387500Y-80463700D03*
D16*
X170437500Y-78513700D03*
X169937500Y-78513700D03*
X169437500Y-78513700D03*
X168937500Y-78513700D03*
X168437500Y-78513700D03*
X167937500Y-78513700D03*
X167437500Y-78513700D03*
X166937500Y-78513700D03*
X166437500Y-78513700D03*
X165937500Y-78513700D03*
X165437500Y-78513700D03*
X164937500Y-78513700D03*
X164437500Y-78513700D03*
X163937500Y-78513700D03*
X163437500Y-78513700D03*
X162937500Y-78513700D03*
D15*
X160987500Y-80463700D03*
X160987500Y-80963700D03*
X160987500Y-81463700D03*
X160987500Y-81963700D03*
X160987500Y-82463700D03*
X160987500Y-82963700D03*
X160987500Y-83463700D03*
X160987500Y-83963700D03*
X160987500Y-84463700D03*
X160987500Y-84963700D03*
X160987500Y-85463700D03*
X160987500Y-85963700D03*
X160987500Y-86463700D03*
X160987500Y-86963700D03*
X160987500Y-87463700D03*
X160987500Y-87963700D03*
D16*
X162937500Y-89913700D03*
X163437500Y-89913700D03*
X163937500Y-89913700D03*
X164437500Y-89913700D03*
X164937500Y-89913700D03*
X165437500Y-89913700D03*
X165937500Y-89913700D03*
X166437500Y-89913700D03*
X166937500Y-89913700D03*
X167437500Y-89913700D03*
X167937500Y-89913700D03*
X168437500Y-89913700D03*
X168937500Y-89913700D03*
X169437500Y-89913700D03*
X169937500Y-89913700D03*
X170437500Y-89913700D03*
D17*
X182712000Y-105137200D03*
X176952000Y-105137200D03*
X176952000Y-109137200D03*
X182712000Y-109137200D03*
X160868000Y-105137200D03*
X155108000Y-105137200D03*
X155108000Y-109137200D03*
X160868000Y-109137200D03*
D18*
X179908200Y-71161400D03*
X179908200Y-73161400D03*
X156032200Y-73472800D03*
X156032200Y-75472800D03*
D13*
X158893000Y-93167200D03*
X160893000Y-93167200D03*
D18*
X169265600Y-93208600D03*
X169265600Y-95208600D03*
X167436800Y-95208600D03*
X167436800Y-93208600D03*
D13*
X162830000Y-93192600D03*
X164830000Y-93192600D03*
D18*
X155321000Y-79816200D03*
X155321000Y-77816200D03*
D13*
X158099000Y-81610200D03*
X156099000Y-81610200D03*
X159934400Y-95656400D03*
X161934400Y-95656400D03*
D19*
X166160000Y-104911200D03*
X166660000Y-104911200D03*
X167160000Y-104911200D03*
X167660000Y-104911200D03*
X168160000Y-104911200D03*
X168660000Y-104911200D03*
X169160000Y-104911200D03*
X171660000Y-104911200D03*
X170660000Y-104911200D03*
X170160000Y-104911200D03*
X169660000Y-104911200D03*
X171160000Y-104911200D03*
D13*
X159147000Y-98374200D03*
X161147000Y-98374200D03*
D20*
X159131000Y-102122200D03*
X159131000Y-100722200D03*
D13*
X165592000Y-98374200D03*
X163592000Y-98374200D03*
D18*
X161290000Y-100422200D03*
X161290000Y-102422200D03*
D13*
X158607000Y-86690200D03*
X156607000Y-86690200D03*
D18*
X158115000Y-88992200D03*
X158115000Y-90992200D03*
D13*
X157432500Y-77736700D03*
X159432500Y-77736700D03*
X163560000Y-76276200D03*
X161560000Y-76276200D03*
D18*
X170561000Y-76514200D03*
X170561000Y-74514200D03*
X172593000Y-92770200D03*
X172593000Y-90770200D03*
X175107600Y-92218000D03*
X175107600Y-94218000D03*
D13*
X179714400Y-80314800D03*
X177714400Y-80314800D03*
X248294400Y-80314800D03*
X246294400Y-80314800D03*
D18*
X243687600Y-92218000D03*
X243687600Y-94218000D03*
X241173000Y-92770200D03*
X241173000Y-90770200D03*
X239141000Y-76514200D03*
X239141000Y-74514200D03*
D13*
X232140000Y-76276200D03*
X230140000Y-76276200D03*
X226012500Y-77736700D03*
X228012500Y-77736700D03*
D18*
X226695000Y-88992200D03*
X226695000Y-90992200D03*
D13*
X227187000Y-86690200D03*
X225187000Y-86690200D03*
D18*
X229870000Y-100422200D03*
X229870000Y-102422200D03*
D13*
X234172000Y-98374200D03*
X232172000Y-98374200D03*
D20*
X227711000Y-102122200D03*
X227711000Y-100722200D03*
D13*
X227727000Y-98374200D03*
X229727000Y-98374200D03*
D19*
X234740000Y-104911200D03*
X235240000Y-104911200D03*
X235740000Y-104911200D03*
X236240000Y-104911200D03*
X236740000Y-104911200D03*
X237240000Y-104911200D03*
X237740000Y-104911200D03*
X240240000Y-104911200D03*
X239240000Y-104911200D03*
X238740000Y-104911200D03*
X238240000Y-104911200D03*
X239740000Y-104911200D03*
D13*
X228514400Y-95656400D03*
X230514400Y-95656400D03*
X226679000Y-81610200D03*
X224679000Y-81610200D03*
D18*
X223901000Y-79816200D03*
X223901000Y-77816200D03*
D13*
X231410000Y-93192600D03*
X233410000Y-93192600D03*
D18*
X236016800Y-95208600D03*
X236016800Y-93208600D03*
X237845600Y-93208600D03*
X237845600Y-95208600D03*
D13*
X227473000Y-93167200D03*
X229473000Y-93167200D03*
D18*
X224612200Y-73472800D03*
X224612200Y-75472800D03*
X248488200Y-71161400D03*
X248488200Y-73161400D03*
D17*
X229448000Y-105137200D03*
X223688000Y-105137200D03*
X223688000Y-109137200D03*
X229448000Y-109137200D03*
X251292000Y-105137200D03*
X245532000Y-105137200D03*
X245532000Y-109137200D03*
X251292000Y-109137200D03*
D15*
X240967500Y-87963700D03*
X240967500Y-87463700D03*
X240967500Y-86963700D03*
X240967500Y-86463700D03*
X240967500Y-85963700D03*
X240967500Y-85463700D03*
X240967500Y-84963700D03*
X240967500Y-84463700D03*
X240967500Y-83963700D03*
X240967500Y-83463700D03*
X240967500Y-82963700D03*
X240967500Y-82463700D03*
X240967500Y-81963700D03*
X240967500Y-81463700D03*
X240967500Y-80963700D03*
X240967500Y-80463700D03*
D16*
X239017500Y-78513700D03*
X238517500Y-78513700D03*
X238017500Y-78513700D03*
X237517500Y-78513700D03*
X237017500Y-78513700D03*
X236517500Y-78513700D03*
X236017500Y-78513700D03*
X235517500Y-78513700D03*
X235017500Y-78513700D03*
X234517500Y-78513700D03*
X234017500Y-78513700D03*
X233517500Y-78513700D03*
X233017500Y-78513700D03*
X232517500Y-78513700D03*
X232017500Y-78513700D03*
X231517500Y-78513700D03*
D15*
X229567500Y-80463700D03*
X229567500Y-80963700D03*
X229567500Y-81463700D03*
X229567500Y-81963700D03*
X229567500Y-82463700D03*
X229567500Y-82963700D03*
X229567500Y-83463700D03*
X229567500Y-83963700D03*
X229567500Y-84463700D03*
X229567500Y-84963700D03*
X229567500Y-85463700D03*
X229567500Y-85963700D03*
X229567500Y-86463700D03*
X229567500Y-86963700D03*
X229567500Y-87463700D03*
X229567500Y-87963700D03*
D16*
X231517500Y-89913700D03*
X232017500Y-89913700D03*
X232517500Y-89913700D03*
X233017500Y-89913700D03*
X233517500Y-89913700D03*
X234017500Y-89913700D03*
X234517500Y-89913700D03*
X235017500Y-89913700D03*
X235517500Y-89913700D03*
X236017500Y-89913700D03*
X236517500Y-89913700D03*
X237017500Y-89913700D03*
X237517500Y-89913700D03*
X238017500Y-89913700D03*
X238517500Y-89913700D03*
X239017500Y-89913700D03*
D14*
X234045000Y-102372200D03*
X234045000Y-100472200D03*
X232045000Y-101422200D03*
D13*
X245608600Y-91490800D03*
X247608600Y-91490800D03*
D12*
X249432500Y-88277700D03*
X249432500Y-83197700D03*
X245232500Y-83197700D03*
X245232500Y-88277700D03*
D11*
X252095000Y-97612200D03*
X252095000Y-95580200D03*
D13*
X282584400Y-80314800D03*
X280584400Y-80314800D03*
D18*
X277977600Y-92218000D03*
X277977600Y-94218000D03*
X275463000Y-92770200D03*
X275463000Y-90770200D03*
X273431000Y-76514200D03*
X273431000Y-74514200D03*
D13*
X266430000Y-76276200D03*
X264430000Y-76276200D03*
X260302500Y-77736700D03*
X262302500Y-77736700D03*
D18*
X260985000Y-88992200D03*
X260985000Y-90992200D03*
D13*
X261477000Y-86690200D03*
X259477000Y-86690200D03*
D18*
X264160000Y-100422200D03*
X264160000Y-102422200D03*
D13*
X268462000Y-98374200D03*
X266462000Y-98374200D03*
D20*
X262001000Y-102122200D03*
X262001000Y-100722200D03*
D13*
X262017000Y-98374200D03*
X264017000Y-98374200D03*
D19*
X269030000Y-104911200D03*
X269530000Y-104911200D03*
X270030000Y-104911200D03*
X270530000Y-104911200D03*
X271030000Y-104911200D03*
X271530000Y-104911200D03*
X272030000Y-104911200D03*
X274530000Y-104911200D03*
X273530000Y-104911200D03*
X273030000Y-104911200D03*
X272530000Y-104911200D03*
X274030000Y-104911200D03*
D13*
X262804400Y-95656400D03*
X264804400Y-95656400D03*
X260969000Y-81610200D03*
X258969000Y-81610200D03*
D18*
X258191000Y-79816200D03*
X258191000Y-77816200D03*
D13*
X265700000Y-93192600D03*
X267700000Y-93192600D03*
D18*
X270306800Y-95208600D03*
X270306800Y-93208600D03*
X272135600Y-93208600D03*
X272135600Y-95208600D03*
D13*
X261763000Y-93167200D03*
X263763000Y-93167200D03*
D18*
X258902200Y-73472800D03*
X258902200Y-75472800D03*
X282778200Y-71161400D03*
X282778200Y-73161400D03*
D17*
X263738000Y-105137200D03*
X257978000Y-105137200D03*
X257978000Y-109137200D03*
X263738000Y-109137200D03*
X285582000Y-105137200D03*
X279822000Y-105137200D03*
X279822000Y-109137200D03*
X285582000Y-109137200D03*
D15*
X275257500Y-87963700D03*
X275257500Y-87463700D03*
X275257500Y-86963700D03*
X275257500Y-86463700D03*
X275257500Y-85963700D03*
X275257500Y-85463700D03*
X275257500Y-84963700D03*
X275257500Y-84463700D03*
X275257500Y-83963700D03*
X275257500Y-83463700D03*
X275257500Y-82963700D03*
X275257500Y-82463700D03*
X275257500Y-81963700D03*
X275257500Y-81463700D03*
X275257500Y-80963700D03*
X275257500Y-80463700D03*
D16*
X273307500Y-78513700D03*
X272807500Y-78513700D03*
X272307500Y-78513700D03*
X271807500Y-78513700D03*
X271307500Y-78513700D03*
X270807500Y-78513700D03*
X270307500Y-78513700D03*
X269807500Y-78513700D03*
X269307500Y-78513700D03*
X268807500Y-78513700D03*
X268307500Y-78513700D03*
X267807500Y-78513700D03*
X267307500Y-78513700D03*
X266807500Y-78513700D03*
X266307500Y-78513700D03*
X265807500Y-78513700D03*
D15*
X263857500Y-80463700D03*
X263857500Y-80963700D03*
X263857500Y-81463700D03*
X263857500Y-81963700D03*
X263857500Y-82463700D03*
X263857500Y-82963700D03*
X263857500Y-83463700D03*
X263857500Y-83963700D03*
X263857500Y-84463700D03*
X263857500Y-84963700D03*
X263857500Y-85463700D03*
X263857500Y-85963700D03*
X263857500Y-86463700D03*
X263857500Y-86963700D03*
X263857500Y-87463700D03*
X263857500Y-87963700D03*
D16*
X265807500Y-89913700D03*
X266307500Y-89913700D03*
X266807500Y-89913700D03*
X267307500Y-89913700D03*
X267807500Y-89913700D03*
X268307500Y-89913700D03*
X268807500Y-89913700D03*
X269307500Y-89913700D03*
X269807500Y-89913700D03*
X270307500Y-89913700D03*
X270807500Y-89913700D03*
X271307500Y-89913700D03*
X271807500Y-89913700D03*
X272307500Y-89913700D03*
X272807500Y-89913700D03*
X273307500Y-89913700D03*
D14*
X268335000Y-102372200D03*
X268335000Y-100472200D03*
X266335000Y-101422200D03*
D13*
X279898600Y-91490800D03*
X281898600Y-91490800D03*
D12*
X283722500Y-88277700D03*
X283722500Y-83197700D03*
X279522500Y-83197700D03*
X279522500Y-88277700D03*
D11*
X286385000Y-97612200D03*
X286385000Y-95580200D03*
X149225000Y-97612200D03*
X149225000Y-95580200D03*
D12*
X146562500Y-88277700D03*
X146562500Y-83197700D03*
X142362500Y-83197700D03*
X142362500Y-88277700D03*
D13*
X142738600Y-91490800D03*
X144738600Y-91490800D03*
D14*
X131175000Y-102372200D03*
X131175000Y-100472200D03*
X129175000Y-101422200D03*
D15*
X138097500Y-87963700D03*
X138097500Y-87463700D03*
X138097500Y-86963700D03*
X138097500Y-86463700D03*
X138097500Y-85963700D03*
X138097500Y-85463700D03*
X138097500Y-84963700D03*
X138097500Y-84463700D03*
X138097500Y-83963700D03*
X138097500Y-83463700D03*
X138097500Y-82963700D03*
X138097500Y-82463700D03*
X138097500Y-81963700D03*
X138097500Y-81463700D03*
X138097500Y-80963700D03*
X138097500Y-80463700D03*
D16*
X136147500Y-78513700D03*
X135647500Y-78513700D03*
X135147500Y-78513700D03*
X134647500Y-78513700D03*
X134147500Y-78513700D03*
X133647500Y-78513700D03*
X133147500Y-78513700D03*
X132647500Y-78513700D03*
X132147500Y-78513700D03*
X131647500Y-78513700D03*
X131147500Y-78513700D03*
X130647500Y-78513700D03*
X130147500Y-78513700D03*
X129647500Y-78513700D03*
X129147500Y-78513700D03*
X128647500Y-78513700D03*
D15*
X126697500Y-80463700D03*
X126697500Y-80963700D03*
X126697500Y-81463700D03*
X126697500Y-81963700D03*
X126697500Y-82463700D03*
X126697500Y-82963700D03*
X126697500Y-83463700D03*
X126697500Y-83963700D03*
X126697500Y-84463700D03*
X126697500Y-84963700D03*
X126697500Y-85463700D03*
X126697500Y-85963700D03*
X126697500Y-86463700D03*
X126697500Y-86963700D03*
X126697500Y-87463700D03*
X126697500Y-87963700D03*
D16*
X128647500Y-89913700D03*
X129147500Y-89913700D03*
X129647500Y-89913700D03*
X130147500Y-89913700D03*
X130647500Y-89913700D03*
X131147500Y-89913700D03*
X131647500Y-89913700D03*
X132147500Y-89913700D03*
X132647500Y-89913700D03*
X133147500Y-89913700D03*
X133647500Y-89913700D03*
X134147500Y-89913700D03*
X134647500Y-89913700D03*
X135147500Y-89913700D03*
X135647500Y-89913700D03*
X136147500Y-89913700D03*
D17*
X148422000Y-105137200D03*
X142662000Y-105137200D03*
X142662000Y-109137200D03*
X148422000Y-109137200D03*
X126578000Y-105137200D03*
X120818000Y-105137200D03*
X120818000Y-109137200D03*
X126578000Y-109137200D03*
D18*
X145618200Y-71161400D03*
X145618200Y-73161400D03*
X121742200Y-73472800D03*
X121742200Y-75472800D03*
D13*
X124603000Y-93167200D03*
X126603000Y-93167200D03*
D18*
X134975600Y-93208600D03*
X134975600Y-95208600D03*
X133146800Y-95208600D03*
X133146800Y-93208600D03*
D13*
X128540000Y-93192600D03*
X130540000Y-93192600D03*
D18*
X121031000Y-79816200D03*
X121031000Y-77816200D03*
D13*
X123809000Y-81610200D03*
X121809000Y-81610200D03*
X125644400Y-95656400D03*
X127644400Y-95656400D03*
D19*
X131870000Y-104911200D03*
X132370000Y-104911200D03*
X132870000Y-104911200D03*
X133370000Y-104911200D03*
X133870000Y-104911200D03*
X134370000Y-104911200D03*
X134870000Y-104911200D03*
X137370000Y-104911200D03*
X136370000Y-104911200D03*
X135870000Y-104911200D03*
X135370000Y-104911200D03*
X136870000Y-104911200D03*
D13*
X124857000Y-98374200D03*
X126857000Y-98374200D03*
D20*
X124841000Y-102122200D03*
X124841000Y-100722200D03*
D13*
X131302000Y-98374200D03*
X129302000Y-98374200D03*
D18*
X127000000Y-100422200D03*
X127000000Y-102422200D03*
D13*
X124317000Y-86690200D03*
X122317000Y-86690200D03*
D18*
X123825000Y-88992200D03*
X123825000Y-90992200D03*
D13*
X123142500Y-77736700D03*
X125142500Y-77736700D03*
X129270000Y-76276200D03*
X127270000Y-76276200D03*
D18*
X136271000Y-76514200D03*
X136271000Y-74514200D03*
X138303000Y-92770200D03*
X138303000Y-90770200D03*
X140817600Y-92218000D03*
X140817600Y-94218000D03*
D13*
X145424400Y-80314800D03*
X143424400Y-80314800D03*
D11*
X114935000Y-97612200D03*
X114935000Y-95580200D03*
D12*
X112272500Y-88277700D03*
X112272500Y-83197700D03*
X108072500Y-83197700D03*
X108072500Y-88277700D03*
D13*
X108448600Y-91490800D03*
X110448600Y-91490800D03*
D14*
X96885000Y-102372200D03*
X96885000Y-100472200D03*
X94885000Y-101422200D03*
D15*
X103807500Y-87963700D03*
X103807500Y-87463700D03*
X103807500Y-86963700D03*
X103807500Y-86463700D03*
X103807500Y-85963700D03*
X103807500Y-85463700D03*
X103807500Y-84963700D03*
X103807500Y-84463700D03*
X103807500Y-83963700D03*
X103807500Y-83463700D03*
X103807500Y-82963700D03*
X103807500Y-82463700D03*
X103807500Y-81963700D03*
X103807500Y-81463700D03*
X103807500Y-80963700D03*
X103807500Y-80463700D03*
D16*
X101857500Y-78513700D03*
X101357500Y-78513700D03*
X100857500Y-78513700D03*
X100357500Y-78513700D03*
X99857500Y-78513700D03*
X99357500Y-78513700D03*
X98857500Y-78513700D03*
X98357500Y-78513700D03*
X97857500Y-78513700D03*
X97357500Y-78513700D03*
X96857500Y-78513700D03*
X96357500Y-78513700D03*
X95857500Y-78513700D03*
X95357500Y-78513700D03*
X94857500Y-78513700D03*
X94357500Y-78513700D03*
D15*
X92407500Y-80463700D03*
X92407500Y-80963700D03*
X92407500Y-81463700D03*
X92407500Y-81963700D03*
X92407500Y-82463700D03*
X92407500Y-82963700D03*
X92407500Y-83463700D03*
X92407500Y-83963700D03*
X92407500Y-84463700D03*
X92407500Y-84963700D03*
X92407500Y-85463700D03*
X92407500Y-85963700D03*
X92407500Y-86463700D03*
X92407500Y-86963700D03*
X92407500Y-87463700D03*
X92407500Y-87963700D03*
D16*
X94357500Y-89913700D03*
X94857500Y-89913700D03*
X95357500Y-89913700D03*
X95857500Y-89913700D03*
X96357500Y-89913700D03*
X96857500Y-89913700D03*
X97357500Y-89913700D03*
X97857500Y-89913700D03*
X98357500Y-89913700D03*
X98857500Y-89913700D03*
X99357500Y-89913700D03*
X99857500Y-89913700D03*
X100357500Y-89913700D03*
X100857500Y-89913700D03*
X101357500Y-89913700D03*
X101857500Y-89913700D03*
D17*
X114132000Y-105137200D03*
X108372000Y-105137200D03*
X108372000Y-109137200D03*
X114132000Y-109137200D03*
X92288000Y-105137200D03*
X86528000Y-105137200D03*
X86528000Y-109137200D03*
X92288000Y-109137200D03*
D18*
X111328200Y-71161400D03*
X111328200Y-73161400D03*
X87452200Y-73472800D03*
X87452200Y-75472800D03*
D13*
X90313000Y-93167200D03*
X92313000Y-93167200D03*
D18*
X100685600Y-93208600D03*
X100685600Y-95208600D03*
X98856800Y-95208600D03*
X98856800Y-93208600D03*
D13*
X94250000Y-93192600D03*
X96250000Y-93192600D03*
D18*
X86741000Y-79816200D03*
X86741000Y-77816200D03*
D13*
X89519000Y-81610200D03*
X87519000Y-81610200D03*
X91354400Y-95656400D03*
X93354400Y-95656400D03*
D19*
X97580000Y-104911200D03*
X98080000Y-104911200D03*
X98580000Y-104911200D03*
X99080000Y-104911200D03*
X99580000Y-104911200D03*
X100080000Y-104911200D03*
X100580000Y-104911200D03*
X103080000Y-104911200D03*
X102080000Y-104911200D03*
X101580000Y-104911200D03*
X101080000Y-104911200D03*
X102580000Y-104911200D03*
D13*
X90567000Y-98374200D03*
X92567000Y-98374200D03*
D20*
X90551000Y-102122200D03*
X90551000Y-100722200D03*
D13*
X97012000Y-98374200D03*
X95012000Y-98374200D03*
D18*
X92710000Y-100422200D03*
X92710000Y-102422200D03*
D13*
X90027000Y-86690200D03*
X88027000Y-86690200D03*
D18*
X89535000Y-88992200D03*
X89535000Y-90992200D03*
D13*
X88852500Y-77736700D03*
X90852500Y-77736700D03*
X94980000Y-76276200D03*
X92980000Y-76276200D03*
D18*
X101981000Y-76514200D03*
X101981000Y-74514200D03*
X104013000Y-92770200D03*
X104013000Y-90770200D03*
X106527600Y-92218000D03*
X106527600Y-94218000D03*
D13*
X111134400Y-80314800D03*
X109134400Y-80314800D03*
X42554400Y-80314800D03*
X40554400Y-80314800D03*
D18*
X37947600Y-92218000D03*
X37947600Y-94218000D03*
X35433000Y-92770200D03*
X35433000Y-90770200D03*
X33401000Y-76514200D03*
X33401000Y-74514200D03*
D13*
X26400000Y-76276200D03*
X24400000Y-76276200D03*
X20272500Y-77736700D03*
X22272500Y-77736700D03*
D18*
X20955000Y-88992200D03*
X20955000Y-90992200D03*
D13*
X21447000Y-86690200D03*
X19447000Y-86690200D03*
D18*
X24130000Y-100422200D03*
X24130000Y-102422200D03*
D13*
X28432000Y-98374200D03*
X26432000Y-98374200D03*
D20*
X21971000Y-102122200D03*
X21971000Y-100722200D03*
D13*
X21987000Y-98374200D03*
X23987000Y-98374200D03*
D19*
X29000000Y-104911200D03*
X29500000Y-104911200D03*
X30000000Y-104911200D03*
X30500000Y-104911200D03*
X31000000Y-104911200D03*
X31500000Y-104911200D03*
X32000000Y-104911200D03*
X34500000Y-104911200D03*
X33500000Y-104911200D03*
X33000000Y-104911200D03*
X32500000Y-104911200D03*
X34000000Y-104911200D03*
D13*
X22774400Y-95656400D03*
X24774400Y-95656400D03*
X20939000Y-81610200D03*
X18939000Y-81610200D03*
D18*
X18161000Y-79816200D03*
X18161000Y-77816200D03*
D13*
X25670000Y-93192600D03*
X27670000Y-93192600D03*
D18*
X30276800Y-95208600D03*
X30276800Y-93208600D03*
X32105600Y-93208600D03*
X32105600Y-95208600D03*
D13*
X21733000Y-93167200D03*
X23733000Y-93167200D03*
D18*
X18872200Y-73472800D03*
X18872200Y-75472800D03*
X42748200Y-71161400D03*
X42748200Y-73161400D03*
D17*
X23708000Y-105137200D03*
X17948000Y-105137200D03*
X17948000Y-109137200D03*
X23708000Y-109137200D03*
X45552000Y-105137200D03*
X39792000Y-105137200D03*
X39792000Y-109137200D03*
X45552000Y-109137200D03*
D15*
X35227500Y-87963700D03*
X35227500Y-87463700D03*
X35227500Y-86963700D03*
X35227500Y-86463700D03*
X35227500Y-85963700D03*
X35227500Y-85463700D03*
X35227500Y-84963700D03*
X35227500Y-84463700D03*
X35227500Y-83963700D03*
X35227500Y-83463700D03*
X35227500Y-82963700D03*
X35227500Y-82463700D03*
X35227500Y-81963700D03*
X35227500Y-81463700D03*
X35227500Y-80963700D03*
X35227500Y-80463700D03*
D16*
X33277500Y-78513700D03*
X32777500Y-78513700D03*
X32277500Y-78513700D03*
X31777500Y-78513700D03*
X31277500Y-78513700D03*
X30777500Y-78513700D03*
X30277500Y-78513700D03*
X29777500Y-78513700D03*
X29277500Y-78513700D03*
X28777500Y-78513700D03*
X28277500Y-78513700D03*
X27777500Y-78513700D03*
X27277500Y-78513700D03*
X26777500Y-78513700D03*
X26277500Y-78513700D03*
X25777500Y-78513700D03*
D15*
X23827500Y-80463700D03*
X23827500Y-80963700D03*
X23827500Y-81463700D03*
X23827500Y-81963700D03*
X23827500Y-82463700D03*
X23827500Y-82963700D03*
X23827500Y-83463700D03*
X23827500Y-83963700D03*
X23827500Y-84463700D03*
X23827500Y-84963700D03*
X23827500Y-85463700D03*
X23827500Y-85963700D03*
X23827500Y-86463700D03*
X23827500Y-86963700D03*
X23827500Y-87463700D03*
X23827500Y-87963700D03*
D16*
X25777500Y-89913700D03*
X26277500Y-89913700D03*
X26777500Y-89913700D03*
X27277500Y-89913700D03*
X27777500Y-89913700D03*
X28277500Y-89913700D03*
X28777500Y-89913700D03*
X29277500Y-89913700D03*
X29777500Y-89913700D03*
X30277500Y-89913700D03*
X30777500Y-89913700D03*
X31277500Y-89913700D03*
X31777500Y-89913700D03*
X32277500Y-89913700D03*
X32777500Y-89913700D03*
X33277500Y-89913700D03*
D14*
X28305000Y-102372200D03*
X28305000Y-100472200D03*
X26305000Y-101422200D03*
D13*
X39868600Y-91490800D03*
X41868600Y-91490800D03*
D12*
X43692500Y-88277700D03*
X43692500Y-83197700D03*
X39492500Y-83197700D03*
X39492500Y-88277700D03*
D11*
X46355000Y-97612200D03*
X46355000Y-95580200D03*
D13*
X76844400Y-80314800D03*
X74844400Y-80314800D03*
D18*
X72237600Y-92218000D03*
X72237600Y-94218000D03*
X69723000Y-92770200D03*
X69723000Y-90770200D03*
X67691000Y-76514200D03*
X67691000Y-74514200D03*
D13*
X60690000Y-76276200D03*
X58690000Y-76276200D03*
X54562500Y-77736700D03*
X56562500Y-77736700D03*
D18*
X55245000Y-88992200D03*
X55245000Y-90992200D03*
D13*
X55737000Y-86690200D03*
X53737000Y-86690200D03*
D18*
X58420000Y-100422200D03*
X58420000Y-102422200D03*
D13*
X62722000Y-98374200D03*
X60722000Y-98374200D03*
D20*
X56261000Y-102122200D03*
X56261000Y-100722200D03*
D13*
X56277000Y-98374200D03*
X58277000Y-98374200D03*
D19*
X63290000Y-104911200D03*
X63790000Y-104911200D03*
X64290000Y-104911200D03*
X64790000Y-104911200D03*
X65290000Y-104911200D03*
X65790000Y-104911200D03*
X66290000Y-104911200D03*
X68790000Y-104911200D03*
X67790000Y-104911200D03*
X67290000Y-104911200D03*
X66790000Y-104911200D03*
X68290000Y-104911200D03*
D13*
X57064400Y-95656400D03*
X59064400Y-95656400D03*
X55229000Y-81610200D03*
X53229000Y-81610200D03*
D18*
X52451000Y-79816200D03*
X52451000Y-77816200D03*
D13*
X59960000Y-93192600D03*
X61960000Y-93192600D03*
D18*
X64566800Y-95208600D03*
X64566800Y-93208600D03*
X66395600Y-93208600D03*
X66395600Y-95208600D03*
D13*
X56023000Y-93167200D03*
X58023000Y-93167200D03*
D18*
X53162200Y-73472800D03*
X53162200Y-75472800D03*
X77038200Y-71161400D03*
X77038200Y-73161400D03*
D17*
X57998000Y-105137200D03*
X52238000Y-105137200D03*
X52238000Y-109137200D03*
X57998000Y-109137200D03*
X79842000Y-105137200D03*
X74082000Y-105137200D03*
X74082000Y-109137200D03*
X79842000Y-109137200D03*
D15*
X69517500Y-87963700D03*
X69517500Y-87463700D03*
X69517500Y-86963700D03*
X69517500Y-86463700D03*
X69517500Y-85963700D03*
X69517500Y-85463700D03*
X69517500Y-84963700D03*
X69517500Y-84463700D03*
X69517500Y-83963700D03*
X69517500Y-83463700D03*
X69517500Y-82963700D03*
X69517500Y-82463700D03*
X69517500Y-81963700D03*
X69517500Y-81463700D03*
X69517500Y-80963700D03*
X69517500Y-80463700D03*
D16*
X67567500Y-78513700D03*
X67067500Y-78513700D03*
X66567500Y-78513700D03*
X66067500Y-78513700D03*
X65567500Y-78513700D03*
X65067500Y-78513700D03*
X64567500Y-78513700D03*
X64067500Y-78513700D03*
X63567500Y-78513700D03*
X63067500Y-78513700D03*
X62567500Y-78513700D03*
X62067500Y-78513700D03*
X61567500Y-78513700D03*
X61067500Y-78513700D03*
X60567500Y-78513700D03*
X60067500Y-78513700D03*
D15*
X58117500Y-80463700D03*
X58117500Y-80963700D03*
X58117500Y-81463700D03*
X58117500Y-81963700D03*
X58117500Y-82463700D03*
X58117500Y-82963700D03*
X58117500Y-83463700D03*
X58117500Y-83963700D03*
X58117500Y-84463700D03*
X58117500Y-84963700D03*
X58117500Y-85463700D03*
X58117500Y-85963700D03*
X58117500Y-86463700D03*
X58117500Y-86963700D03*
X58117500Y-87463700D03*
X58117500Y-87963700D03*
D16*
X60067500Y-89913700D03*
X60567500Y-89913700D03*
X61067500Y-89913700D03*
X61567500Y-89913700D03*
X62067500Y-89913700D03*
X62567500Y-89913700D03*
X63067500Y-89913700D03*
X63567500Y-89913700D03*
X64067500Y-89913700D03*
X64567500Y-89913700D03*
X65067500Y-89913700D03*
X65567500Y-89913700D03*
X66067500Y-89913700D03*
X66567500Y-89913700D03*
X67067500Y-89913700D03*
X67567500Y-89913700D03*
D14*
X62595000Y-102372200D03*
X62595000Y-100472200D03*
X60595000Y-101422200D03*
D13*
X74158600Y-91490800D03*
X76158600Y-91490800D03*
D12*
X77982500Y-88277700D03*
X77982500Y-83197700D03*
X73782500Y-83197700D03*
X73782500Y-88277700D03*
D11*
X80645000Y-97612200D03*
X80645000Y-95580200D03*
X80645000Y-47371000D03*
X80645000Y-45339000D03*
D12*
X77982500Y-38036500D03*
X77982500Y-32956500D03*
X73782500Y-32956500D03*
X73782500Y-38036500D03*
D13*
X74158600Y-41249600D03*
X76158600Y-41249600D03*
D14*
X62595000Y-52131000D03*
X62595000Y-50231000D03*
X60595000Y-51181000D03*
D15*
X69517500Y-37722500D03*
X69517500Y-37222500D03*
X69517500Y-36722500D03*
X69517500Y-36222500D03*
X69517500Y-35722500D03*
X69517500Y-35222500D03*
X69517500Y-34722500D03*
X69517500Y-34222500D03*
X69517500Y-33722500D03*
X69517500Y-33222500D03*
X69517500Y-32722500D03*
X69517500Y-32222500D03*
X69517500Y-31722500D03*
X69517500Y-31222500D03*
X69517500Y-30722500D03*
X69517500Y-30222500D03*
D16*
X67567500Y-28272500D03*
X67067500Y-28272500D03*
X66567500Y-28272500D03*
X66067500Y-28272500D03*
X65567500Y-28272500D03*
X65067500Y-28272500D03*
X64567500Y-28272500D03*
X64067500Y-28272500D03*
X63567500Y-28272500D03*
X63067500Y-28272500D03*
X62567500Y-28272500D03*
X62067500Y-28272500D03*
X61567500Y-28272500D03*
X61067500Y-28272500D03*
X60567500Y-28272500D03*
X60067500Y-28272500D03*
D15*
X58117500Y-30222500D03*
X58117500Y-30722500D03*
X58117500Y-31222500D03*
X58117500Y-31722500D03*
X58117500Y-32222500D03*
X58117500Y-32722500D03*
X58117500Y-33222500D03*
X58117500Y-33722500D03*
X58117500Y-34222500D03*
X58117500Y-34722500D03*
X58117500Y-35222500D03*
X58117500Y-35722500D03*
X58117500Y-36222500D03*
X58117500Y-36722500D03*
X58117500Y-37222500D03*
X58117500Y-37722500D03*
D16*
X60067500Y-39672500D03*
X60567500Y-39672500D03*
X61067500Y-39672500D03*
X61567500Y-39672500D03*
X62067500Y-39672500D03*
X62567500Y-39672500D03*
X63067500Y-39672500D03*
X63567500Y-39672500D03*
X64067500Y-39672500D03*
X64567500Y-39672500D03*
X65067500Y-39672500D03*
X65567500Y-39672500D03*
X66067500Y-39672500D03*
X66567500Y-39672500D03*
X67067500Y-39672500D03*
X67567500Y-39672500D03*
D17*
X79842000Y-54896000D03*
X74082000Y-54896000D03*
X74082000Y-58896000D03*
X79842000Y-58896000D03*
X57998000Y-54896000D03*
X52238000Y-54896000D03*
X52238000Y-58896000D03*
X57998000Y-58896000D03*
D18*
X77038200Y-20920200D03*
X77038200Y-22920200D03*
X53162200Y-23231600D03*
X53162200Y-25231600D03*
D13*
X56023000Y-42926000D03*
X58023000Y-42926000D03*
D18*
X66395600Y-42967400D03*
X66395600Y-44967400D03*
X64566800Y-44967400D03*
X64566800Y-42967400D03*
D13*
X59960000Y-42951400D03*
X61960000Y-42951400D03*
D18*
X52451000Y-29575000D03*
X52451000Y-27575000D03*
D13*
X55229000Y-31369000D03*
X53229000Y-31369000D03*
X57064400Y-45415200D03*
X59064400Y-45415200D03*
D19*
X63290000Y-54670000D03*
X63790000Y-54670000D03*
X64290000Y-54670000D03*
X64790000Y-54670000D03*
X65290000Y-54670000D03*
X65790000Y-54670000D03*
X66290000Y-54670000D03*
X68790000Y-54670000D03*
X67790000Y-54670000D03*
X67290000Y-54670000D03*
X66790000Y-54670000D03*
X68290000Y-54670000D03*
D13*
X56277000Y-48133000D03*
X58277000Y-48133000D03*
D20*
X56261000Y-51881000D03*
X56261000Y-50481000D03*
D13*
X62722000Y-48133000D03*
X60722000Y-48133000D03*
D18*
X58420000Y-50181000D03*
X58420000Y-52181000D03*
D13*
X55737000Y-36449000D03*
X53737000Y-36449000D03*
D18*
X55245000Y-38751000D03*
X55245000Y-40751000D03*
D13*
X54562500Y-27495500D03*
X56562500Y-27495500D03*
X60690000Y-26035000D03*
X58690000Y-26035000D03*
D18*
X67691000Y-26273000D03*
X67691000Y-24273000D03*
X69723000Y-42529000D03*
X69723000Y-40529000D03*
X72237600Y-41976800D03*
X72237600Y-43976800D03*
D13*
X76844400Y-30073600D03*
X74844400Y-30073600D03*
D11*
X46355000Y-47371000D03*
X46355000Y-45339000D03*
D12*
X43692500Y-38036500D03*
X43692500Y-32956500D03*
X39492500Y-32956500D03*
X39492500Y-38036500D03*
D13*
X39868600Y-41249600D03*
X41868600Y-41249600D03*
D14*
X28305000Y-52131000D03*
X28305000Y-50231000D03*
X26305000Y-51181000D03*
D15*
X35227500Y-37722500D03*
X35227500Y-37222500D03*
X35227500Y-36722500D03*
X35227500Y-36222500D03*
X35227500Y-35722500D03*
X35227500Y-35222500D03*
X35227500Y-34722500D03*
X35227500Y-34222500D03*
X35227500Y-33722500D03*
X35227500Y-33222500D03*
X35227500Y-32722500D03*
X35227500Y-32222500D03*
X35227500Y-31722500D03*
X35227500Y-31222500D03*
X35227500Y-30722500D03*
X35227500Y-30222500D03*
D16*
X33277500Y-28272500D03*
X32777500Y-28272500D03*
X32277500Y-28272500D03*
X31777500Y-28272500D03*
X31277500Y-28272500D03*
X30777500Y-28272500D03*
X30277500Y-28272500D03*
X29777500Y-28272500D03*
X29277500Y-28272500D03*
X28777500Y-28272500D03*
X28277500Y-28272500D03*
X27777500Y-28272500D03*
X27277500Y-28272500D03*
X26777500Y-28272500D03*
X26277500Y-28272500D03*
X25777500Y-28272500D03*
D15*
X23827500Y-30222500D03*
X23827500Y-30722500D03*
X23827500Y-31222500D03*
X23827500Y-31722500D03*
X23827500Y-32222500D03*
X23827500Y-32722500D03*
X23827500Y-33222500D03*
X23827500Y-33722500D03*
X23827500Y-34222500D03*
X23827500Y-34722500D03*
X23827500Y-35222500D03*
X23827500Y-35722500D03*
X23827500Y-36222500D03*
X23827500Y-36722500D03*
X23827500Y-37222500D03*
X23827500Y-37722500D03*
D16*
X25777500Y-39672500D03*
X26277500Y-39672500D03*
X26777500Y-39672500D03*
X27277500Y-39672500D03*
X27777500Y-39672500D03*
X28277500Y-39672500D03*
X28777500Y-39672500D03*
X29277500Y-39672500D03*
X29777500Y-39672500D03*
X30277500Y-39672500D03*
X30777500Y-39672500D03*
X31277500Y-39672500D03*
X31777500Y-39672500D03*
X32277500Y-39672500D03*
X32777500Y-39672500D03*
X33277500Y-39672500D03*
D17*
X45552000Y-54896000D03*
X39792000Y-54896000D03*
X39792000Y-58896000D03*
X45552000Y-58896000D03*
X23708000Y-54896000D03*
X17948000Y-54896000D03*
X17948000Y-58896000D03*
X23708000Y-58896000D03*
D18*
X42748200Y-20920200D03*
X42748200Y-22920200D03*
X18872200Y-23231600D03*
X18872200Y-25231600D03*
D13*
X21733000Y-42926000D03*
X23733000Y-42926000D03*
D18*
X32105600Y-42967400D03*
X32105600Y-44967400D03*
X30276800Y-44967400D03*
X30276800Y-42967400D03*
D13*
X25670000Y-42951400D03*
X27670000Y-42951400D03*
D18*
X18161000Y-29575000D03*
X18161000Y-27575000D03*
D13*
X20939000Y-31369000D03*
X18939000Y-31369000D03*
X22774400Y-45415200D03*
X24774400Y-45415200D03*
D19*
X29000000Y-54670000D03*
X29500000Y-54670000D03*
X30000000Y-54670000D03*
X30500000Y-54670000D03*
X31000000Y-54670000D03*
X31500000Y-54670000D03*
X32000000Y-54670000D03*
X34500000Y-54670000D03*
X33500000Y-54670000D03*
X33000000Y-54670000D03*
X32500000Y-54670000D03*
X34000000Y-54670000D03*
D13*
X21987000Y-48133000D03*
X23987000Y-48133000D03*
D20*
X21971000Y-51881000D03*
X21971000Y-50481000D03*
D13*
X28432000Y-48133000D03*
X26432000Y-48133000D03*
D18*
X24130000Y-50181000D03*
X24130000Y-52181000D03*
D13*
X21447000Y-36449000D03*
X19447000Y-36449000D03*
D18*
X20955000Y-38751000D03*
X20955000Y-40751000D03*
D13*
X20272500Y-27495500D03*
X22272500Y-27495500D03*
X26400000Y-26035000D03*
X24400000Y-26035000D03*
D18*
X33401000Y-26273000D03*
X33401000Y-24273000D03*
X35433000Y-42529000D03*
X35433000Y-40529000D03*
X37947600Y-41976800D03*
X37947600Y-43976800D03*
D13*
X42554400Y-30073600D03*
X40554400Y-30073600D03*
X111134400Y-30073600D03*
X109134400Y-30073600D03*
D18*
X106527600Y-41976800D03*
X106527600Y-43976800D03*
X104013000Y-42529000D03*
X104013000Y-40529000D03*
X101981000Y-26273000D03*
X101981000Y-24273000D03*
D13*
X94980000Y-26035000D03*
X92980000Y-26035000D03*
X88852500Y-27495500D03*
X90852500Y-27495500D03*
D18*
X89535000Y-38751000D03*
X89535000Y-40751000D03*
D13*
X90027000Y-36449000D03*
X88027000Y-36449000D03*
D18*
X92710000Y-50181000D03*
X92710000Y-52181000D03*
D13*
X97012000Y-48133000D03*
X95012000Y-48133000D03*
D20*
X90551000Y-51881000D03*
X90551000Y-50481000D03*
D13*
X90567000Y-48133000D03*
X92567000Y-48133000D03*
D19*
X97580000Y-54670000D03*
X98080000Y-54670000D03*
X98580000Y-54670000D03*
X99080000Y-54670000D03*
X99580000Y-54670000D03*
X100080000Y-54670000D03*
X100580000Y-54670000D03*
X103080000Y-54670000D03*
X102080000Y-54670000D03*
X101580000Y-54670000D03*
X101080000Y-54670000D03*
X102580000Y-54670000D03*
D13*
X91354400Y-45415200D03*
X93354400Y-45415200D03*
X89519000Y-31369000D03*
X87519000Y-31369000D03*
D18*
X86741000Y-29575000D03*
X86741000Y-27575000D03*
D13*
X94250000Y-42951400D03*
X96250000Y-42951400D03*
D18*
X98856800Y-44967400D03*
X98856800Y-42967400D03*
X100685600Y-42967400D03*
X100685600Y-44967400D03*
D13*
X90313000Y-42926000D03*
X92313000Y-42926000D03*
D18*
X87452200Y-23231600D03*
X87452200Y-25231600D03*
X111328200Y-20920200D03*
X111328200Y-22920200D03*
D17*
X92288000Y-54896000D03*
X86528000Y-54896000D03*
X86528000Y-58896000D03*
X92288000Y-58896000D03*
X114132000Y-54896000D03*
X108372000Y-54896000D03*
X108372000Y-58896000D03*
X114132000Y-58896000D03*
D15*
X103807500Y-37722500D03*
X103807500Y-37222500D03*
X103807500Y-36722500D03*
X103807500Y-36222500D03*
X103807500Y-35722500D03*
X103807500Y-35222500D03*
X103807500Y-34722500D03*
X103807500Y-34222500D03*
X103807500Y-33722500D03*
X103807500Y-33222500D03*
X103807500Y-32722500D03*
X103807500Y-32222500D03*
X103807500Y-31722500D03*
X103807500Y-31222500D03*
X103807500Y-30722500D03*
X103807500Y-30222500D03*
D16*
X101857500Y-28272500D03*
X101357500Y-28272500D03*
X100857500Y-28272500D03*
X100357500Y-28272500D03*
X99857500Y-28272500D03*
X99357500Y-28272500D03*
X98857500Y-28272500D03*
X98357500Y-28272500D03*
X97857500Y-28272500D03*
X97357500Y-28272500D03*
X96857500Y-28272500D03*
X96357500Y-28272500D03*
X95857500Y-28272500D03*
X95357500Y-28272500D03*
X94857500Y-28272500D03*
X94357500Y-28272500D03*
D15*
X92407500Y-30222500D03*
X92407500Y-30722500D03*
X92407500Y-31222500D03*
X92407500Y-31722500D03*
X92407500Y-32222500D03*
X92407500Y-32722500D03*
X92407500Y-33222500D03*
X92407500Y-33722500D03*
X92407500Y-34222500D03*
X92407500Y-34722500D03*
X92407500Y-35222500D03*
X92407500Y-35722500D03*
X92407500Y-36222500D03*
X92407500Y-36722500D03*
X92407500Y-37222500D03*
X92407500Y-37722500D03*
D16*
X94357500Y-39672500D03*
X94857500Y-39672500D03*
X95357500Y-39672500D03*
X95857500Y-39672500D03*
X96357500Y-39672500D03*
X96857500Y-39672500D03*
X97357500Y-39672500D03*
X97857500Y-39672500D03*
X98357500Y-39672500D03*
X98857500Y-39672500D03*
X99357500Y-39672500D03*
X99857500Y-39672500D03*
X100357500Y-39672500D03*
X100857500Y-39672500D03*
X101357500Y-39672500D03*
X101857500Y-39672500D03*
D14*
X96885000Y-52131000D03*
X96885000Y-50231000D03*
X94885000Y-51181000D03*
D13*
X108448600Y-41249600D03*
X110448600Y-41249600D03*
D12*
X112272500Y-38036500D03*
X112272500Y-32956500D03*
X108072500Y-32956500D03*
X108072500Y-38036500D03*
D11*
X114935000Y-47371000D03*
X114935000Y-45339000D03*
D13*
X145424400Y-30073600D03*
X143424400Y-30073600D03*
D18*
X140817600Y-41976800D03*
X140817600Y-43976800D03*
X138303000Y-42529000D03*
X138303000Y-40529000D03*
X136271000Y-26273000D03*
X136271000Y-24273000D03*
D13*
X129270000Y-26035000D03*
X127270000Y-26035000D03*
X123142500Y-27495500D03*
X125142500Y-27495500D03*
D18*
X123825000Y-38751000D03*
X123825000Y-40751000D03*
D13*
X124317000Y-36449000D03*
X122317000Y-36449000D03*
D18*
X127000000Y-50181000D03*
X127000000Y-52181000D03*
D13*
X131302000Y-48133000D03*
X129302000Y-48133000D03*
D20*
X124841000Y-51881000D03*
X124841000Y-50481000D03*
D13*
X124857000Y-48133000D03*
X126857000Y-48133000D03*
D19*
X131870000Y-54670000D03*
X132370000Y-54670000D03*
X132870000Y-54670000D03*
X133370000Y-54670000D03*
X133870000Y-54670000D03*
X134370000Y-54670000D03*
X134870000Y-54670000D03*
X137370000Y-54670000D03*
X136370000Y-54670000D03*
X135870000Y-54670000D03*
X135370000Y-54670000D03*
X136870000Y-54670000D03*
D13*
X125644400Y-45415200D03*
X127644400Y-45415200D03*
X123809000Y-31369000D03*
X121809000Y-31369000D03*
D18*
X121031000Y-29575000D03*
X121031000Y-27575000D03*
D13*
X128540000Y-42951400D03*
X130540000Y-42951400D03*
D18*
X133146800Y-44967400D03*
X133146800Y-42967400D03*
X134975600Y-42967400D03*
X134975600Y-44967400D03*
D13*
X124603000Y-42926000D03*
X126603000Y-42926000D03*
D18*
X121742200Y-23231600D03*
X121742200Y-25231600D03*
X145618200Y-20920200D03*
X145618200Y-22920200D03*
D17*
X126578000Y-54896000D03*
X120818000Y-54896000D03*
X120818000Y-58896000D03*
X126578000Y-58896000D03*
X148422000Y-54896000D03*
X142662000Y-54896000D03*
X142662000Y-58896000D03*
X148422000Y-58896000D03*
D15*
X138097500Y-37722500D03*
X138097500Y-37222500D03*
X138097500Y-36722500D03*
X138097500Y-36222500D03*
X138097500Y-35722500D03*
X138097500Y-35222500D03*
X138097500Y-34722500D03*
X138097500Y-34222500D03*
X138097500Y-33722500D03*
X138097500Y-33222500D03*
X138097500Y-32722500D03*
X138097500Y-32222500D03*
X138097500Y-31722500D03*
X138097500Y-31222500D03*
X138097500Y-30722500D03*
X138097500Y-30222500D03*
D16*
X136147500Y-28272500D03*
X135647500Y-28272500D03*
X135147500Y-28272500D03*
X134647500Y-28272500D03*
X134147500Y-28272500D03*
X133647500Y-28272500D03*
X133147500Y-28272500D03*
X132647500Y-28272500D03*
X132147500Y-28272500D03*
X131647500Y-28272500D03*
X131147500Y-28272500D03*
X130647500Y-28272500D03*
X130147500Y-28272500D03*
X129647500Y-28272500D03*
X129147500Y-28272500D03*
X128647500Y-28272500D03*
D15*
X126697500Y-30222500D03*
X126697500Y-30722500D03*
X126697500Y-31222500D03*
X126697500Y-31722500D03*
X126697500Y-32222500D03*
X126697500Y-32722500D03*
X126697500Y-33222500D03*
X126697500Y-33722500D03*
X126697500Y-34222500D03*
X126697500Y-34722500D03*
X126697500Y-35222500D03*
X126697500Y-35722500D03*
X126697500Y-36222500D03*
X126697500Y-36722500D03*
X126697500Y-37222500D03*
X126697500Y-37722500D03*
D16*
X128647500Y-39672500D03*
X129147500Y-39672500D03*
X129647500Y-39672500D03*
X130147500Y-39672500D03*
X130647500Y-39672500D03*
X131147500Y-39672500D03*
X131647500Y-39672500D03*
X132147500Y-39672500D03*
X132647500Y-39672500D03*
X133147500Y-39672500D03*
X133647500Y-39672500D03*
X134147500Y-39672500D03*
X134647500Y-39672500D03*
X135147500Y-39672500D03*
X135647500Y-39672500D03*
X136147500Y-39672500D03*
D14*
X131175000Y-52131000D03*
X131175000Y-50231000D03*
X129175000Y-51181000D03*
D13*
X142738600Y-41249600D03*
X144738600Y-41249600D03*
D12*
X146562500Y-38036500D03*
X146562500Y-32956500D03*
X142362500Y-32956500D03*
X142362500Y-38036500D03*
D11*
X149225000Y-47371000D03*
X149225000Y-45339000D03*
X286385000Y-47371000D03*
X286385000Y-45339000D03*
D12*
X283722500Y-38036500D03*
X283722500Y-32956500D03*
X279522500Y-32956500D03*
X279522500Y-38036500D03*
D13*
X279898600Y-41249600D03*
X281898600Y-41249600D03*
D14*
X268335000Y-52131000D03*
X268335000Y-50231000D03*
X266335000Y-51181000D03*
D15*
X275257500Y-37722500D03*
X275257500Y-37222500D03*
X275257500Y-36722500D03*
X275257500Y-36222500D03*
X275257500Y-35722500D03*
X275257500Y-35222500D03*
X275257500Y-34722500D03*
X275257500Y-34222500D03*
X275257500Y-33722500D03*
X275257500Y-33222500D03*
X275257500Y-32722500D03*
X275257500Y-32222500D03*
X275257500Y-31722500D03*
X275257500Y-31222500D03*
X275257500Y-30722500D03*
X275257500Y-30222500D03*
D16*
X273307500Y-28272500D03*
X272807500Y-28272500D03*
X272307500Y-28272500D03*
X271807500Y-28272500D03*
X271307500Y-28272500D03*
X270807500Y-28272500D03*
X270307500Y-28272500D03*
X269807500Y-28272500D03*
X269307500Y-28272500D03*
X268807500Y-28272500D03*
X268307500Y-28272500D03*
X267807500Y-28272500D03*
X267307500Y-28272500D03*
X266807500Y-28272500D03*
X266307500Y-28272500D03*
X265807500Y-28272500D03*
D15*
X263857500Y-30222500D03*
X263857500Y-30722500D03*
X263857500Y-31222500D03*
X263857500Y-31722500D03*
X263857500Y-32222500D03*
X263857500Y-32722500D03*
X263857500Y-33222500D03*
X263857500Y-33722500D03*
X263857500Y-34222500D03*
X263857500Y-34722500D03*
X263857500Y-35222500D03*
X263857500Y-35722500D03*
X263857500Y-36222500D03*
X263857500Y-36722500D03*
X263857500Y-37222500D03*
X263857500Y-37722500D03*
D16*
X265807500Y-39672500D03*
X266307500Y-39672500D03*
X266807500Y-39672500D03*
X267307500Y-39672500D03*
X267807500Y-39672500D03*
X268307500Y-39672500D03*
X268807500Y-39672500D03*
X269307500Y-39672500D03*
X269807500Y-39672500D03*
X270307500Y-39672500D03*
X270807500Y-39672500D03*
X271307500Y-39672500D03*
X271807500Y-39672500D03*
X272307500Y-39672500D03*
X272807500Y-39672500D03*
X273307500Y-39672500D03*
D17*
X285582000Y-54896000D03*
X279822000Y-54896000D03*
X279822000Y-58896000D03*
X285582000Y-58896000D03*
X263738000Y-54896000D03*
X257978000Y-54896000D03*
X257978000Y-58896000D03*
X263738000Y-58896000D03*
D18*
X282778200Y-20920200D03*
X282778200Y-22920200D03*
X258902200Y-23231600D03*
X258902200Y-25231600D03*
D13*
X261763000Y-42926000D03*
X263763000Y-42926000D03*
D18*
X272135600Y-42967400D03*
X272135600Y-44967400D03*
X270306800Y-44967400D03*
X270306800Y-42967400D03*
D13*
X265700000Y-42951400D03*
X267700000Y-42951400D03*
D18*
X258191000Y-29575000D03*
X258191000Y-27575000D03*
D13*
X260969000Y-31369000D03*
X258969000Y-31369000D03*
X262804400Y-45415200D03*
X264804400Y-45415200D03*
D19*
X269030000Y-54670000D03*
X269530000Y-54670000D03*
X270030000Y-54670000D03*
X270530000Y-54670000D03*
X271030000Y-54670000D03*
X271530000Y-54670000D03*
X272030000Y-54670000D03*
X274530000Y-54670000D03*
X273530000Y-54670000D03*
X273030000Y-54670000D03*
X272530000Y-54670000D03*
X274030000Y-54670000D03*
D13*
X262017000Y-48133000D03*
X264017000Y-48133000D03*
D20*
X262001000Y-51881000D03*
X262001000Y-50481000D03*
D13*
X268462000Y-48133000D03*
X266462000Y-48133000D03*
D18*
X264160000Y-50181000D03*
X264160000Y-52181000D03*
D13*
X261477000Y-36449000D03*
X259477000Y-36449000D03*
D18*
X260985000Y-38751000D03*
X260985000Y-40751000D03*
D13*
X260302500Y-27495500D03*
X262302500Y-27495500D03*
X266430000Y-26035000D03*
X264430000Y-26035000D03*
D18*
X273431000Y-26273000D03*
X273431000Y-24273000D03*
X275463000Y-42529000D03*
X275463000Y-40529000D03*
X277977600Y-41976800D03*
X277977600Y-43976800D03*
D13*
X282584400Y-30073600D03*
X280584400Y-30073600D03*
D11*
X252095000Y-47371000D03*
X252095000Y-45339000D03*
D12*
X249432500Y-38036500D03*
X249432500Y-32956500D03*
X245232500Y-32956500D03*
X245232500Y-38036500D03*
D13*
X245608600Y-41249600D03*
X247608600Y-41249600D03*
D14*
X234045000Y-52131000D03*
X234045000Y-50231000D03*
X232045000Y-51181000D03*
D15*
X240967500Y-37722500D03*
X240967500Y-37222500D03*
X240967500Y-36722500D03*
X240967500Y-36222500D03*
X240967500Y-35722500D03*
X240967500Y-35222500D03*
X240967500Y-34722500D03*
X240967500Y-34222500D03*
X240967500Y-33722500D03*
X240967500Y-33222500D03*
X240967500Y-32722500D03*
X240967500Y-32222500D03*
X240967500Y-31722500D03*
X240967500Y-31222500D03*
X240967500Y-30722500D03*
X240967500Y-30222500D03*
D16*
X239017500Y-28272500D03*
X238517500Y-28272500D03*
X238017500Y-28272500D03*
X237517500Y-28272500D03*
X237017500Y-28272500D03*
X236517500Y-28272500D03*
X236017500Y-28272500D03*
X235517500Y-28272500D03*
X235017500Y-28272500D03*
X234517500Y-28272500D03*
X234017500Y-28272500D03*
X233517500Y-28272500D03*
X233017500Y-28272500D03*
X232517500Y-28272500D03*
X232017500Y-28272500D03*
X231517500Y-28272500D03*
D15*
X229567500Y-30222500D03*
X229567500Y-30722500D03*
X229567500Y-31222500D03*
X229567500Y-31722500D03*
X229567500Y-32222500D03*
X229567500Y-32722500D03*
X229567500Y-33222500D03*
X229567500Y-33722500D03*
X229567500Y-34222500D03*
X229567500Y-34722500D03*
X229567500Y-35222500D03*
X229567500Y-35722500D03*
X229567500Y-36222500D03*
X229567500Y-36722500D03*
X229567500Y-37222500D03*
X229567500Y-37722500D03*
D16*
X231517500Y-39672500D03*
X232017500Y-39672500D03*
X232517500Y-39672500D03*
X233017500Y-39672500D03*
X233517500Y-39672500D03*
X234017500Y-39672500D03*
X234517500Y-39672500D03*
X235017500Y-39672500D03*
X235517500Y-39672500D03*
X236017500Y-39672500D03*
X236517500Y-39672500D03*
X237017500Y-39672500D03*
X237517500Y-39672500D03*
X238017500Y-39672500D03*
X238517500Y-39672500D03*
X239017500Y-39672500D03*
D17*
X251292000Y-54896000D03*
X245532000Y-54896000D03*
X245532000Y-58896000D03*
X251292000Y-58896000D03*
X229448000Y-54896000D03*
X223688000Y-54896000D03*
X223688000Y-58896000D03*
X229448000Y-58896000D03*
D18*
X248488200Y-20920200D03*
X248488200Y-22920200D03*
X224612200Y-23231600D03*
X224612200Y-25231600D03*
D13*
X227473000Y-42926000D03*
X229473000Y-42926000D03*
D18*
X237845600Y-42967400D03*
X237845600Y-44967400D03*
X236016800Y-44967400D03*
X236016800Y-42967400D03*
D13*
X231410000Y-42951400D03*
X233410000Y-42951400D03*
D18*
X223901000Y-29575000D03*
X223901000Y-27575000D03*
D13*
X226679000Y-31369000D03*
X224679000Y-31369000D03*
X228514400Y-45415200D03*
X230514400Y-45415200D03*
D19*
X234740000Y-54670000D03*
X235240000Y-54670000D03*
X235740000Y-54670000D03*
X236240000Y-54670000D03*
X236740000Y-54670000D03*
X237240000Y-54670000D03*
X237740000Y-54670000D03*
X240240000Y-54670000D03*
X239240000Y-54670000D03*
X238740000Y-54670000D03*
X238240000Y-54670000D03*
X239740000Y-54670000D03*
D13*
X227727000Y-48133000D03*
X229727000Y-48133000D03*
D20*
X227711000Y-51881000D03*
X227711000Y-50481000D03*
D13*
X234172000Y-48133000D03*
X232172000Y-48133000D03*
D18*
X229870000Y-50181000D03*
X229870000Y-52181000D03*
D13*
X227187000Y-36449000D03*
X225187000Y-36449000D03*
D18*
X226695000Y-38751000D03*
X226695000Y-40751000D03*
D13*
X226012500Y-27495500D03*
X228012500Y-27495500D03*
X232140000Y-26035000D03*
X230140000Y-26035000D03*
D18*
X239141000Y-26273000D03*
X239141000Y-24273000D03*
X241173000Y-42529000D03*
X241173000Y-40529000D03*
X243687600Y-41976800D03*
X243687600Y-43976800D03*
D13*
X248294400Y-30073600D03*
X246294400Y-30073600D03*
X179714400Y-30073600D03*
X177714400Y-30073600D03*
D18*
X175107600Y-41976800D03*
X175107600Y-43976800D03*
X172593000Y-42529000D03*
X172593000Y-40529000D03*
X170561000Y-26273000D03*
X170561000Y-24273000D03*
D13*
X163560000Y-26035000D03*
X161560000Y-26035000D03*
X157432500Y-27495500D03*
X159432500Y-27495500D03*
D18*
X158115000Y-38751000D03*
X158115000Y-40751000D03*
D13*
X158607000Y-36449000D03*
X156607000Y-36449000D03*
D18*
X161290000Y-50181000D03*
X161290000Y-52181000D03*
D13*
X165592000Y-48133000D03*
X163592000Y-48133000D03*
D20*
X159131000Y-51881000D03*
X159131000Y-50481000D03*
D13*
X159147000Y-48133000D03*
X161147000Y-48133000D03*
D19*
X166160000Y-54670000D03*
X166660000Y-54670000D03*
X167160000Y-54670000D03*
X167660000Y-54670000D03*
X168160000Y-54670000D03*
X168660000Y-54670000D03*
X169160000Y-54670000D03*
X171660000Y-54670000D03*
X170660000Y-54670000D03*
X170160000Y-54670000D03*
X169660000Y-54670000D03*
X171160000Y-54670000D03*
D13*
X159934400Y-45415200D03*
X161934400Y-45415200D03*
X158099000Y-31369000D03*
X156099000Y-31369000D03*
D18*
X155321000Y-29575000D03*
X155321000Y-27575000D03*
D13*
X162830000Y-42951400D03*
X164830000Y-42951400D03*
D18*
X167436800Y-44967400D03*
X167436800Y-42967400D03*
X169265600Y-42967400D03*
X169265600Y-44967400D03*
D13*
X158893000Y-42926000D03*
X160893000Y-42926000D03*
D18*
X156032200Y-23231600D03*
X156032200Y-25231600D03*
X179908200Y-20920200D03*
X179908200Y-22920200D03*
D17*
X160868000Y-54896000D03*
X155108000Y-54896000D03*
X155108000Y-58896000D03*
X160868000Y-58896000D03*
X182712000Y-54896000D03*
X176952000Y-54896000D03*
X176952000Y-58896000D03*
X182712000Y-58896000D03*
D15*
X172387500Y-37722500D03*
X172387500Y-37222500D03*
X172387500Y-36722500D03*
X172387500Y-36222500D03*
X172387500Y-35722500D03*
X172387500Y-35222500D03*
X172387500Y-34722500D03*
X172387500Y-34222500D03*
X172387500Y-33722500D03*
X172387500Y-33222500D03*
X172387500Y-32722500D03*
X172387500Y-32222500D03*
X172387500Y-31722500D03*
X172387500Y-31222500D03*
X172387500Y-30722500D03*
X172387500Y-30222500D03*
D16*
X170437500Y-28272500D03*
X169937500Y-28272500D03*
X169437500Y-28272500D03*
X168937500Y-28272500D03*
X168437500Y-28272500D03*
X167937500Y-28272500D03*
X167437500Y-28272500D03*
X166937500Y-28272500D03*
X166437500Y-28272500D03*
X165937500Y-28272500D03*
X165437500Y-28272500D03*
X164937500Y-28272500D03*
X164437500Y-28272500D03*
X163937500Y-28272500D03*
X163437500Y-28272500D03*
X162937500Y-28272500D03*
D15*
X160987500Y-30222500D03*
X160987500Y-30722500D03*
X160987500Y-31222500D03*
X160987500Y-31722500D03*
X160987500Y-32222500D03*
X160987500Y-32722500D03*
X160987500Y-33222500D03*
X160987500Y-33722500D03*
X160987500Y-34222500D03*
X160987500Y-34722500D03*
X160987500Y-35222500D03*
X160987500Y-35722500D03*
X160987500Y-36222500D03*
X160987500Y-36722500D03*
X160987500Y-37222500D03*
X160987500Y-37722500D03*
D16*
X162937500Y-39672500D03*
X163437500Y-39672500D03*
X163937500Y-39672500D03*
X164437500Y-39672500D03*
X164937500Y-39672500D03*
X165437500Y-39672500D03*
X165937500Y-39672500D03*
X166437500Y-39672500D03*
X166937500Y-39672500D03*
X167437500Y-39672500D03*
X167937500Y-39672500D03*
X168437500Y-39672500D03*
X168937500Y-39672500D03*
X169437500Y-39672500D03*
X169937500Y-39672500D03*
X170437500Y-39672500D03*
D14*
X165465000Y-52131000D03*
X165465000Y-50231000D03*
X163465000Y-51181000D03*
D13*
X177028600Y-41249600D03*
X179028600Y-41249600D03*
D12*
X180852500Y-38036500D03*
X180852500Y-32956500D03*
X176652500Y-32956500D03*
X176652500Y-38036500D03*
D11*
X183515000Y-47371000D03*
X183515000Y-45339000D03*
D13*
X214004400Y-30073600D03*
X212004400Y-30073600D03*
D18*
X209397600Y-41976800D03*
X209397600Y-43976800D03*
X206883000Y-42529000D03*
X206883000Y-40529000D03*
X204851000Y-26273000D03*
X204851000Y-24273000D03*
D13*
X197850000Y-26035000D03*
X195850000Y-26035000D03*
X191722500Y-27495500D03*
X193722500Y-27495500D03*
D18*
X192405000Y-38751000D03*
X192405000Y-40751000D03*
D13*
X192897000Y-36449000D03*
X190897000Y-36449000D03*
D18*
X195580000Y-50181000D03*
X195580000Y-52181000D03*
D13*
X199882000Y-48133000D03*
X197882000Y-48133000D03*
D20*
X193421000Y-51881000D03*
X193421000Y-50481000D03*
D13*
X193437000Y-48133000D03*
X195437000Y-48133000D03*
D19*
X200450000Y-54670000D03*
X200950000Y-54670000D03*
X201450000Y-54670000D03*
X201950000Y-54670000D03*
X202450000Y-54670000D03*
X202950000Y-54670000D03*
X203450000Y-54670000D03*
X205950000Y-54670000D03*
X204950000Y-54670000D03*
X204450000Y-54670000D03*
X203950000Y-54670000D03*
X205450000Y-54670000D03*
D13*
X194224400Y-45415200D03*
X196224400Y-45415200D03*
X192389000Y-31369000D03*
X190389000Y-31369000D03*
D18*
X189611000Y-29575000D03*
X189611000Y-27575000D03*
D13*
X197120000Y-42951400D03*
X199120000Y-42951400D03*
D18*
X201726800Y-44967400D03*
X201726800Y-42967400D03*
X203555600Y-42967400D03*
X203555600Y-44967400D03*
D13*
X193183000Y-42926000D03*
X195183000Y-42926000D03*
D18*
X190322200Y-23231600D03*
X190322200Y-25231600D03*
X214198200Y-20920200D03*
X214198200Y-22920200D03*
D17*
X195158000Y-54896000D03*
X189398000Y-54896000D03*
X189398000Y-58896000D03*
X195158000Y-58896000D03*
X217002000Y-54896000D03*
X211242000Y-54896000D03*
X211242000Y-58896000D03*
X217002000Y-58896000D03*
D15*
X206677500Y-37722500D03*
X206677500Y-37222500D03*
X206677500Y-36722500D03*
X206677500Y-36222500D03*
X206677500Y-35722500D03*
X206677500Y-35222500D03*
X206677500Y-34722500D03*
X206677500Y-34222500D03*
X206677500Y-33722500D03*
X206677500Y-33222500D03*
X206677500Y-32722500D03*
X206677500Y-32222500D03*
X206677500Y-31722500D03*
X206677500Y-31222500D03*
X206677500Y-30722500D03*
X206677500Y-30222500D03*
D16*
X204727500Y-28272500D03*
X204227500Y-28272500D03*
X203727500Y-28272500D03*
X203227500Y-28272500D03*
X202727500Y-28272500D03*
X202227500Y-28272500D03*
X201727500Y-28272500D03*
X201227500Y-28272500D03*
X200727500Y-28272500D03*
X200227500Y-28272500D03*
X199727500Y-28272500D03*
X199227500Y-28272500D03*
X198727500Y-28272500D03*
X198227500Y-28272500D03*
X197727500Y-28272500D03*
X197227500Y-28272500D03*
D15*
X195277500Y-30222500D03*
X195277500Y-30722500D03*
X195277500Y-31222500D03*
X195277500Y-31722500D03*
X195277500Y-32222500D03*
X195277500Y-32722500D03*
X195277500Y-33222500D03*
X195277500Y-33722500D03*
X195277500Y-34222500D03*
X195277500Y-34722500D03*
X195277500Y-35222500D03*
X195277500Y-35722500D03*
X195277500Y-36222500D03*
X195277500Y-36722500D03*
X195277500Y-37222500D03*
X195277500Y-37722500D03*
D16*
X197227500Y-39672500D03*
X197727500Y-39672500D03*
X198227500Y-39672500D03*
X198727500Y-39672500D03*
X199227500Y-39672500D03*
X199727500Y-39672500D03*
X200227500Y-39672500D03*
X200727500Y-39672500D03*
X201227500Y-39672500D03*
X201727500Y-39672500D03*
X202227500Y-39672500D03*
X202727500Y-39672500D03*
X203227500Y-39672500D03*
X203727500Y-39672500D03*
X204227500Y-39672500D03*
X204727500Y-39672500D03*
D14*
X199755000Y-52131000D03*
X199755000Y-50231000D03*
X197755000Y-51181000D03*
D13*
X211318600Y-41249600D03*
X213318600Y-41249600D03*
D12*
X215142500Y-38036500D03*
X215142500Y-32956500D03*
X210942500Y-32956500D03*
X210942500Y-38036500D03*
D11*
X217805000Y-47371000D03*
X217805000Y-45339000D03*
M02*
