M48
;DRILL file {KiCad 4.0.6} date Fri Nov 17 14:04:36 2017
;FORMAT={-:-/ absolute / metric / decimal}
FMAT,2
METRIC,TZ
T1C0.400
T2C0.500
T3C0.762
T4C1.000
T5C0.650
%
G90
G05
M71
T1
X60.858Y-50.241
X60.858Y-103.581
X64.465Y-46.355
X64.465Y-99.695
X65.087Y-49.34
X65.087Y-102.679
X65.151Y-67.31
X65.151Y-120.65
X65.557Y-54.178
X65.557Y-107.518
X66.167Y-68.834
X66.167Y-122.174
X66.548Y-56.515
X66.548Y-109.855
X67.818Y-63.373
X67.818Y-116.713
X68.275Y-52.248
X68.275Y-105.588
X68.961Y-47.498
X68.961Y-100.838
X69.469Y-61.341
X69.469Y-114.681
X69.85Y-58.42
X69.85Y-111.76
X70.612Y-62.357
X70.612Y-115.697
X70.739Y-65.278
X70.739Y-118.618
X71.12Y-56.515
X71.12Y-57.785
X71.12Y-109.855
X71.12Y-111.125
X71.171Y-78.029
X71.171Y-131.369
X71.755Y-53.975
X71.755Y-107.315
X71.958Y-47.371
X71.958Y-100.711
X72.39Y-56.515
X72.39Y-57.785
X72.39Y-109.855
X72.39Y-111.125
X73.Y-78.029
X73.Y-131.369
X73.152Y-65.278
X73.152Y-118.618
X73.203Y-54.585
X73.203Y-107.925
X73.304Y-61.493
X73.304Y-114.833
X73.4Y-80.11
X73.4Y-133.45
X73.787Y-48.768
X73.787Y-102.108
X73.8Y-80.81
X73.8Y-134.15
X73.914Y-76.327
X73.914Y-129.667
X74.168Y-65.456
X74.168Y-118.796
X74.6Y-80.81
X74.6Y-134.15
X75.Y-80.11
X75.Y-133.45
X75.057Y-65.405
X75.057Y-118.745
X75.184Y-62.357
X75.184Y-115.697
X75.311Y-60.706
X75.311Y-114.046
X75.374Y-77.851
X75.374Y-131.191
X75.4Y-80.81
X75.4Y-134.15
X75.8Y-80.11
X75.8Y-133.45
X76.6Y-80.11
X76.6Y-133.45
X76.962Y-62.357
X76.962Y-115.697
X77.Y-80.81
X77.Y-134.15
X77.4Y-80.11
X77.4Y-133.45
X77.47Y-71.628
X77.47Y-124.968
X77.699Y-46.888
X77.699Y-100.228
X77.8Y-80.81
X77.8Y-134.15
X78.105Y-59.817
X78.105Y-113.157
X78.6Y-80.81
X78.6Y-134.15
X79.Y-80.11
X79.Y-133.45
X79.299Y-49.987
X79.299Y-103.327
X80.62Y-69.266
X80.62Y-122.606
X81.407Y-55.88
X81.407Y-109.22
X82.271Y-69.317
X82.271Y-122.657
X97.688Y-50.241
X97.688Y-103.581
X101.295Y-46.355
X101.295Y-99.695
X101.917Y-49.34
X101.917Y-102.679
X101.981Y-67.31
X101.981Y-120.65
X102.387Y-54.178
X102.387Y-107.518
X102.997Y-68.834
X102.997Y-122.174
X103.378Y-56.515
X103.378Y-109.855
X104.648Y-63.373
X104.648Y-116.713
X105.105Y-52.248
X105.105Y-105.588
X105.791Y-47.498
X105.791Y-100.838
X106.299Y-61.341
X106.299Y-114.681
X106.68Y-58.42
X106.68Y-111.76
X107.442Y-62.357
X107.442Y-115.697
X107.569Y-65.278
X107.569Y-118.618
X107.95Y-56.515
X107.95Y-57.785
X107.95Y-109.855
X107.95Y-111.125
X108.001Y-78.029
X108.001Y-131.369
X108.585Y-53.975
X108.585Y-107.315
X108.788Y-47.371
X108.788Y-100.711
X109.22Y-56.515
X109.22Y-57.785
X109.22Y-109.855
X109.22Y-111.125
X109.83Y-78.029
X109.83Y-131.369
X109.982Y-65.278
X109.982Y-118.618
X110.033Y-54.585
X110.033Y-107.925
X110.134Y-61.493
X110.134Y-114.833
X110.23Y-80.11
X110.23Y-133.45
X110.617Y-48.768
X110.617Y-102.108
X110.63Y-80.81
X110.63Y-134.15
X110.744Y-76.327
X110.744Y-129.667
X110.998Y-65.456
X110.998Y-118.796
X111.43Y-80.81
X111.43Y-134.15
X111.83Y-80.11
X111.83Y-133.45
X111.887Y-65.405
X111.887Y-118.745
X112.014Y-62.357
X112.014Y-115.697
X112.141Y-60.706
X112.141Y-114.046
X112.204Y-77.851
X112.204Y-131.191
X112.23Y-80.81
X112.23Y-134.15
X112.63Y-80.11
X112.63Y-133.45
X113.43Y-80.11
X113.43Y-133.45
X113.792Y-62.357
X113.792Y-115.697
X113.83Y-80.81
X113.83Y-134.15
X114.23Y-80.11
X114.23Y-133.45
X114.3Y-71.628
X114.3Y-124.968
X114.529Y-46.888
X114.529Y-100.228
X114.63Y-80.81
X114.63Y-134.15
X114.935Y-59.817
X114.935Y-113.157
X115.43Y-80.81
X115.43Y-134.15
X115.83Y-80.11
X115.83Y-133.45
X116.129Y-49.987
X116.129Y-103.327
X117.45Y-69.266
X117.45Y-122.606
X118.237Y-55.88
X118.237Y-109.22
X119.101Y-69.317
X119.101Y-122.657
X134.518Y-50.241
X134.518Y-103.581
X138.125Y-46.355
X138.125Y-99.695
X138.748Y-49.34
X138.748Y-102.679
X138.811Y-67.31
X138.811Y-120.65
X139.217Y-54.178
X139.217Y-107.518
X139.827Y-68.834
X139.827Y-122.174
X140.208Y-56.515
X140.208Y-109.855
X141.478Y-63.373
X141.478Y-116.713
X141.935Y-52.248
X141.935Y-105.588
X142.621Y-47.498
X142.621Y-100.838
X143.129Y-61.341
X143.129Y-114.681
X143.51Y-58.42
X143.51Y-111.76
X144.272Y-62.357
X144.272Y-115.697
X144.399Y-65.278
X144.399Y-118.618
X144.78Y-56.515
X144.78Y-57.785
X144.78Y-109.855
X144.78Y-111.125
X144.831Y-78.029
X144.831Y-131.369
X145.415Y-53.975
X145.415Y-107.315
X145.618Y-47.371
X145.618Y-100.711
X146.05Y-56.515
X146.05Y-57.785
X146.05Y-109.855
X146.05Y-111.125
X146.66Y-78.029
X146.66Y-131.369
X146.812Y-65.278
X146.812Y-118.618
X146.863Y-54.585
X146.863Y-107.925
X146.964Y-61.493
X146.964Y-114.833
X147.06Y-80.11
X147.06Y-133.45
X147.447Y-48.768
X147.447Y-102.108
X147.46Y-80.81
X147.46Y-134.15
X147.574Y-76.327
X147.574Y-129.667
X147.828Y-65.456
X147.828Y-118.796
X148.26Y-80.81
X148.26Y-134.15
X148.66Y-80.11
X148.66Y-133.45
X148.717Y-65.405
X148.717Y-118.745
X148.844Y-62.357
X148.844Y-115.697
X148.971Y-60.706
X148.971Y-114.046
X149.034Y-77.851
X149.034Y-131.191
X149.06Y-80.81
X149.06Y-134.15
X149.46Y-80.11
X149.46Y-133.45
X150.26Y-80.11
X150.26Y-133.45
X150.622Y-62.357
X150.622Y-115.697
X150.66Y-80.81
X150.66Y-134.15
X151.06Y-80.11
X151.06Y-133.45
X151.13Y-71.628
X151.13Y-124.968
X151.359Y-46.888
X151.359Y-100.228
X151.46Y-80.81
X151.46Y-134.15
X151.765Y-59.817
X151.765Y-113.157
X152.26Y-80.81
X152.26Y-134.15
X152.66Y-80.11
X152.66Y-133.45
X152.959Y-49.987
X152.959Y-103.327
X154.28Y-69.266
X154.28Y-122.606
X155.067Y-55.88
X155.067Y-109.22
X155.931Y-69.317
X155.931Y-122.657
X171.348Y-50.241
X171.348Y-103.581
X174.955Y-46.355
X174.955Y-99.695
X175.577Y-49.34
X175.577Y-102.679
X175.641Y-67.31
X175.641Y-120.65
X176.047Y-54.178
X176.047Y-107.518
X176.657Y-68.834
X176.657Y-122.174
X177.038Y-56.515
X177.038Y-109.855
X178.308Y-63.373
X178.308Y-116.713
X178.765Y-52.248
X178.765Y-105.588
X179.451Y-47.498
X179.451Y-100.838
X179.959Y-61.341
X179.959Y-114.681
X180.34Y-58.42
X180.34Y-111.76
X181.102Y-62.357
X181.102Y-115.697
X181.229Y-65.278
X181.229Y-118.618
X181.61Y-56.515
X181.61Y-57.785
X181.61Y-109.855
X181.61Y-111.125
X181.661Y-78.029
X181.661Y-131.369
X182.245Y-53.975
X182.245Y-107.315
X182.448Y-47.371
X182.448Y-100.711
X182.88Y-56.515
X182.88Y-57.785
X182.88Y-109.855
X182.88Y-111.125
X183.49Y-78.029
X183.49Y-131.369
X183.642Y-65.278
X183.642Y-118.618
X183.693Y-54.585
X183.693Y-107.925
X183.794Y-61.493
X183.794Y-114.833
X183.89Y-80.11
X183.89Y-133.45
X184.277Y-48.768
X184.277Y-102.108
X184.29Y-80.81
X184.29Y-134.15
X184.404Y-76.327
X184.404Y-129.667
X184.658Y-65.456
X184.658Y-118.796
X185.09Y-80.81
X185.09Y-134.15
X185.49Y-80.11
X185.49Y-133.45
X185.547Y-65.405
X185.547Y-118.745
X185.674Y-62.357
X185.674Y-115.697
X185.801Y-60.706
X185.801Y-114.046
X185.864Y-77.851
X185.864Y-131.191
X185.89Y-80.81
X185.89Y-134.15
X186.29Y-80.11
X186.29Y-133.45
X187.09Y-80.11
X187.09Y-133.45
X187.452Y-62.357
X187.452Y-115.697
X187.49Y-80.81
X187.49Y-134.15
X187.89Y-80.11
X187.89Y-133.45
X187.96Y-71.628
X187.96Y-124.968
X188.189Y-46.888
X188.189Y-100.228
X188.29Y-80.81
X188.29Y-134.15
X188.595Y-59.817
X188.595Y-113.157
X189.09Y-80.81
X189.09Y-134.15
X189.49Y-80.11
X189.49Y-133.45
X189.789Y-49.987
X189.789Y-103.327
X191.11Y-69.266
X191.11Y-122.606
X191.897Y-55.88
X191.897Y-109.22
X192.761Y-69.317
X192.761Y-122.657
X208.178Y-50.241
X208.178Y-103.581
X211.785Y-46.355
X211.785Y-99.695
X212.407Y-49.34
X212.407Y-102.679
X212.471Y-67.31
X212.471Y-120.65
X212.877Y-54.178
X212.877Y-107.518
X213.487Y-68.834
X213.487Y-122.174
X213.868Y-56.515
X213.868Y-109.855
X215.138Y-63.373
X215.138Y-116.713
X215.595Y-52.248
X215.595Y-105.588
X216.281Y-47.498
X216.281Y-100.838
X216.789Y-61.341
X216.789Y-114.681
X217.17Y-58.42
X217.17Y-111.76
X217.932Y-62.357
X217.932Y-115.697
X218.059Y-65.278
X218.059Y-118.618
X218.44Y-56.515
X218.44Y-57.785
X218.44Y-109.855
X218.44Y-111.125
X218.491Y-78.029
X218.491Y-131.369
X219.075Y-53.975
X219.075Y-107.315
X219.278Y-47.371
X219.278Y-100.711
X219.71Y-56.515
X219.71Y-57.785
X219.71Y-109.855
X219.71Y-111.125
X220.32Y-78.029
X220.32Y-131.369
X220.472Y-65.278
X220.472Y-118.618
X220.523Y-54.585
X220.523Y-107.925
X220.624Y-61.493
X220.624Y-114.833
X220.72Y-80.11
X220.72Y-133.45
X221.107Y-48.768
X221.107Y-102.108
X221.12Y-80.81
X221.12Y-134.15
X221.234Y-76.327
X221.234Y-129.667
X221.488Y-65.456
X221.488Y-118.796
X221.92Y-80.81
X221.92Y-134.15
X222.32Y-80.11
X222.32Y-133.45
X222.377Y-65.405
X222.377Y-118.745
X222.504Y-62.357
X222.504Y-115.697
X222.631Y-60.706
X222.631Y-114.046
X222.694Y-77.851
X222.694Y-131.191
X222.72Y-80.81
X222.72Y-134.15
X223.12Y-80.11
X223.12Y-133.45
X223.92Y-80.11
X223.92Y-133.45
X224.282Y-62.357
X224.282Y-115.697
X224.32Y-80.81
X224.32Y-134.15
X224.72Y-80.11
X224.72Y-133.45
X224.79Y-71.628
X224.79Y-124.968
X225.019Y-46.888
X225.019Y-100.228
X225.12Y-80.81
X225.12Y-134.15
X225.425Y-59.817
X225.425Y-113.157
X225.92Y-80.81
X225.92Y-134.15
X226.32Y-80.11
X226.32Y-133.45
X226.619Y-49.987
X226.619Y-103.327
X227.94Y-69.266
X227.94Y-122.606
X228.727Y-55.88
X228.727Y-109.22
X229.591Y-69.317
X229.591Y-122.657
T2
X61.976Y-74.295
X61.976Y-127.635
X64.135Y-74.295
X64.135Y-127.635
X72.542Y-68.834
X72.542Y-122.174
X74.676Y-74.549
X74.676Y-127.889
X78.689Y-68.834
X78.689Y-122.174
X90.424Y-73.914
X90.424Y-127.254
X98.806Y-74.295
X98.806Y-127.635
X100.965Y-74.295
X100.965Y-127.635
X109.372Y-68.834
X109.372Y-122.174
X111.506Y-74.549
X111.506Y-127.889
X115.519Y-68.834
X115.519Y-122.174
X127.254Y-73.914
X127.254Y-127.254
X135.636Y-74.295
X135.636Y-127.635
X137.795Y-74.295
X137.795Y-127.635
X146.202Y-68.834
X146.202Y-122.174
X148.336Y-74.549
X148.336Y-127.889
X152.349Y-68.834
X152.349Y-122.174
X164.084Y-73.914
X164.084Y-127.254
X172.466Y-74.295
X172.466Y-127.635
X174.625Y-74.295
X174.625Y-127.635
X183.032Y-68.834
X183.032Y-122.174
X185.166Y-74.549
X185.166Y-127.889
X189.179Y-68.834
X189.179Y-122.174
X200.914Y-73.914
X200.914Y-127.254
X209.296Y-74.295
X209.296Y-127.635
X211.455Y-74.295
X211.455Y-127.635
X219.862Y-68.834
X219.862Y-122.174
X221.996Y-74.549
X221.996Y-127.889
X226.009Y-68.834
X226.009Y-122.174
X237.744Y-73.914
X237.744Y-127.254
T3
X61.585Y-44.858
X61.585Y-98.198
X63.652Y-43.383
X63.652Y-96.723
X65.72Y-41.908
X65.72Y-95.248
X86.654Y-41.883
X86.654Y-95.223
X88.722Y-43.358
X88.722Y-96.698
X90.79Y-44.833
X90.79Y-98.173
X98.415Y-44.858
X98.415Y-98.198
X100.482Y-43.383
X100.482Y-96.723
X102.55Y-41.908
X102.55Y-95.248
X123.484Y-41.883
X123.484Y-95.223
X125.552Y-43.358
X125.552Y-96.698
X127.62Y-44.833
X127.62Y-98.173
X135.245Y-44.858
X135.245Y-98.198
X137.312Y-43.383
X137.312Y-96.723
X139.38Y-41.908
X139.38Y-95.248
X160.314Y-41.883
X160.314Y-95.223
X162.382Y-43.358
X162.382Y-96.698
X164.45Y-44.833
X164.45Y-98.173
X172.075Y-44.858
X172.075Y-98.198
X174.142Y-43.383
X174.142Y-96.723
X176.21Y-41.908
X176.21Y-95.248
X197.144Y-41.883
X197.144Y-95.223
X199.212Y-43.358
X199.212Y-96.698
X201.28Y-44.833
X201.28Y-98.173
X208.905Y-44.858
X208.905Y-98.198
X210.972Y-43.383
X210.972Y-96.723
X213.04Y-41.908
X213.04Y-95.248
X233.974Y-41.883
X233.974Y-95.223
X236.042Y-43.358
X236.042Y-96.698
X238.11Y-44.833
X238.11Y-98.173
T4
X68.58Y-43.18
X68.58Y-96.52
X71.12Y-43.18
X71.12Y-96.52
X73.66Y-43.18
X73.66Y-96.52
X76.2Y-43.18
X76.2Y-96.52
X78.74Y-43.18
X78.74Y-96.52
X81.026Y-75.438
X81.026Y-128.778
X81.28Y-43.18
X81.28Y-96.52
X82.822Y-73.642
X82.822Y-126.982
X83.82Y-43.18
X83.82Y-96.52
X84.618Y-71.846
X84.618Y-125.186
X86.414Y-70.05
X86.414Y-123.39
X88.21Y-68.254
X88.21Y-121.594
X90.006Y-66.458
X90.006Y-119.798
X105.41Y-43.18
X105.41Y-96.52
X107.95Y-43.18
X107.95Y-96.52
X110.49Y-43.18
X110.49Y-96.52
X113.03Y-43.18
X113.03Y-96.52
X115.57Y-43.18
X115.57Y-96.52
X117.856Y-75.438
X117.856Y-128.778
X118.11Y-43.18
X118.11Y-96.52
X119.652Y-73.642
X119.652Y-126.982
X120.65Y-43.18
X120.65Y-96.52
X121.448Y-71.846
X121.448Y-125.186
X123.244Y-70.05
X123.244Y-123.39
X125.04Y-68.254
X125.04Y-121.594
X126.836Y-66.458
X126.836Y-119.798
X142.24Y-43.18
X142.24Y-96.52
X144.78Y-43.18
X144.78Y-96.52
X147.32Y-43.18
X147.32Y-96.52
X149.86Y-43.18
X149.86Y-96.52
X152.4Y-43.18
X152.4Y-96.52
X154.686Y-75.438
X154.686Y-128.778
X154.94Y-43.18
X154.94Y-96.52
X156.482Y-73.642
X156.482Y-126.982
X157.48Y-43.18
X157.48Y-96.52
X158.278Y-71.846
X158.278Y-125.186
X160.074Y-70.05
X160.074Y-123.39
X161.87Y-68.254
X161.87Y-121.594
X163.666Y-66.458
X163.666Y-119.798
X179.07Y-43.18
X179.07Y-96.52
X181.61Y-43.18
X181.61Y-96.52
X184.15Y-43.18
X184.15Y-96.52
X186.69Y-43.18
X186.69Y-96.52
X189.23Y-43.18
X189.23Y-96.52
X191.516Y-75.438
X191.516Y-128.778
X191.77Y-43.18
X191.77Y-96.52
X193.312Y-73.642
X193.312Y-126.982
X194.31Y-43.18
X194.31Y-96.52
X195.108Y-71.846
X195.108Y-125.186
X196.904Y-70.05
X196.904Y-123.39
X198.7Y-68.254
X198.7Y-121.594
X200.496Y-66.458
X200.496Y-119.798
X215.9Y-43.18
X215.9Y-96.52
X218.44Y-43.18
X218.44Y-96.52
X220.98Y-43.18
X220.98Y-96.52
X223.52Y-43.18
X223.52Y-96.52
X226.06Y-43.18
X226.06Y-96.52
X228.346Y-75.438
X228.346Y-128.778
X228.6Y-43.18
X228.6Y-96.52
X230.142Y-73.642
X230.142Y-126.982
X231.14Y-43.18
X231.14Y-96.52
X231.938Y-71.846
X231.938Y-125.186
X233.734Y-70.05
X233.734Y-123.39
X235.53Y-68.254
X235.53Y-121.594
X237.326Y-66.458
X237.326Y-119.798
T5
X72.6Y-79.46
X72.6Y-132.8
X109.43Y-79.46
X109.43Y-132.8
X146.26Y-79.46
X146.26Y-132.8
X183.09Y-79.46
X183.09Y-132.8
X219.92Y-79.46
X219.92Y-132.8
T2
X71.71Y-86.36G85X71.71Y-86.96
G05
X71.71Y-139.7G85X71.71Y-140.3
G05
X72.07Y-80.41G85X72.07Y-81.01
G05
X72.07Y-133.75G85X72.07Y-134.35
G05
X80.33Y-80.41G85X80.33Y-81.01
G05
X80.33Y-133.75G85X80.33Y-134.35
G05
X80.69Y-86.36G85X80.69Y-86.96
G05
X80.69Y-139.7G85X80.69Y-140.3
G05
X108.54Y-86.36G85X108.54Y-86.96
G05
X108.54Y-139.7G85X108.54Y-140.3
G05
X108.9Y-80.41G85X108.9Y-81.01
G05
X108.9Y-133.75G85X108.9Y-134.35
G05
X117.16Y-80.41G85X117.16Y-81.01
G05
X117.16Y-133.75G85X117.16Y-134.35
G05
X117.52Y-86.36G85X117.52Y-86.96
G05
X117.52Y-139.7G85X117.52Y-140.3
G05
X145.37Y-86.36G85X145.37Y-86.96
G05
X145.37Y-139.7G85X145.37Y-140.3
G05
X145.73Y-80.41G85X145.73Y-81.01
G05
X145.73Y-133.75G85X145.73Y-134.35
G05
X153.99Y-80.41G85X153.99Y-81.01
G05
X153.99Y-133.75G85X153.99Y-134.35
G05
X154.35Y-86.36G85X154.35Y-86.96
G05
X154.35Y-139.7G85X154.35Y-140.3
G05
X182.2Y-86.36G85X182.2Y-86.96
G05
X182.2Y-139.7G85X182.2Y-140.3
G05
X182.56Y-80.41G85X182.56Y-81.01
G05
X182.56Y-133.75G85X182.56Y-134.35
G05
X190.82Y-80.41G85X190.82Y-81.01
G05
X190.82Y-133.75G85X190.82Y-134.35
G05
X191.18Y-86.36G85X191.18Y-86.96
G05
X191.18Y-139.7G85X191.18Y-140.3
G05
X219.03Y-86.36G85X219.03Y-86.96
G05
X219.03Y-139.7G85X219.03Y-140.3
G05
X219.39Y-80.41G85X219.39Y-81.01
G05
X219.39Y-133.75G85X219.39Y-134.35
G05
X227.65Y-80.41G85X227.65Y-81.01
G05
X227.65Y-133.75G85X227.65Y-134.35
G05
X228.01Y-86.36G85X228.01Y-86.96
G05
X228.01Y-139.7G85X228.01Y-140.3
G05
T5
X79.65Y-79.46G85X79.95Y-79.46
G05
X79.65Y-132.8G85X79.95Y-132.8
G05
X116.48Y-79.46G85X116.78Y-79.46
G05
X116.48Y-132.8G85X116.78Y-132.8
G05
X153.31Y-79.46G85X153.61Y-79.46
G05
X153.31Y-132.8G85X153.61Y-132.8
G05
X190.14Y-79.46G85X190.44Y-79.46
G05
X190.14Y-132.8G85X190.44Y-132.8
G05
X226.97Y-79.46G85X227.27Y-79.46
G05
X226.97Y-132.8G85X227.27Y-132.8
G05
T0
M30
