G04 #@! TF.FileFunction,Soldermask,Top*
%FSLAX46Y46*%
G04 Gerber Fmt 4.6, Leading zero omitted, Abs format (unit mm)*
G04 Created by KiCad (PCBNEW 4.0.6) date Fri Nov 17 13:30:40 2017*
%MOMM*%
%LPD*%
G01*
G04 APERTURE LIST*
%ADD10C,0.100000*%
%ADD11R,1.400000X1.650000*%
%ADD12R,1.650000X1.400000*%
%ADD13R,1.100000X1.000000*%
%ADD14C,2.100000*%
%ADD15O,1.200000X1.800000*%
%ADD16R,0.700000X1.100000*%
%ADD17O,1.350000X1.050000*%
%ADD18C,1.050000*%
%ADD19R,2.100000X2.100000*%
%ADD20O,2.100000X2.100000*%
%ADD21R,3.150000X1.400000*%
%ADD22R,1.250000X1.250000*%
%ADD23R,1.900000X0.700000*%
%ADD24R,0.700000X1.900000*%
%ADD25R,1.300000X1.200000*%
%ADD26R,2.400000X2.200000*%
%ADD27R,1.400000X1.924000*%
G04 APERTURE END LIST*
D10*
D11*
X87004400Y-54203600D03*
X85004400Y-54203600D03*
D12*
X82397600Y-66106800D03*
X82397600Y-68106800D03*
X79883000Y-66659000D03*
X79883000Y-64659000D03*
X77851000Y-50403000D03*
X77851000Y-48403000D03*
D11*
X70850000Y-50165000D03*
X68850000Y-50165000D03*
X64722500Y-51625500D03*
X66722500Y-51625500D03*
D12*
X65405000Y-62881000D03*
X65405000Y-64881000D03*
D11*
X65897000Y-60579000D03*
X63897000Y-60579000D03*
D12*
X68580000Y-74311000D03*
X68580000Y-76311000D03*
D11*
X72882000Y-72263000D03*
X70882000Y-72263000D03*
D13*
X66421000Y-76011000D03*
X66421000Y-74611000D03*
D11*
X66437000Y-72263000D03*
X68437000Y-72263000D03*
D10*
G36*
X82510924Y-75438000D02*
X81026000Y-76922924D01*
X79541076Y-75438000D01*
X81026000Y-73953076D01*
X82510924Y-75438000D01*
X82510924Y-75438000D01*
G37*
D14*
X82822051Y-73641949D02*
X82822051Y-73641949D01*
X84618102Y-71845898D02*
X84618102Y-71845898D01*
X86414154Y-70049846D02*
X86414154Y-70049846D01*
X88210205Y-68253795D02*
X88210205Y-68253795D01*
X90006256Y-66457744D02*
X90006256Y-66457744D01*
D15*
X72070000Y-80710000D03*
D16*
X73450000Y-78800000D03*
X73950000Y-78800000D03*
X74450000Y-78800000D03*
X74950000Y-78800000D03*
X75450000Y-78800000D03*
X75950000Y-78800000D03*
X76450000Y-78800000D03*
X78950000Y-78800000D03*
X77950000Y-78800000D03*
X77450000Y-78800000D03*
X76950000Y-78800000D03*
X78450000Y-78800000D03*
D15*
X80330000Y-80710000D03*
X80690000Y-86660000D03*
X71710000Y-86660000D03*
D17*
X79800000Y-79460000D03*
D18*
X72600000Y-79460000D03*
X79000000Y-80110000D03*
X77400000Y-80110000D03*
X76600000Y-80110000D03*
X75800000Y-80110000D03*
X75000000Y-80110000D03*
X73400000Y-80110000D03*
X78600000Y-80810000D03*
X77800000Y-80810000D03*
X77000000Y-80810000D03*
X75400000Y-80810000D03*
X74600000Y-80810000D03*
X73800000Y-80810000D03*
D19*
X83820000Y-43180000D03*
D20*
X81280000Y-43180000D03*
X78740000Y-43180000D03*
X76200000Y-43180000D03*
X73660000Y-43180000D03*
X71120000Y-43180000D03*
X68580000Y-43180000D03*
D11*
X67224400Y-69545200D03*
X69224400Y-69545200D03*
X65389000Y-55499000D03*
X63389000Y-55499000D03*
D12*
X62611000Y-53705000D03*
X62611000Y-51705000D03*
D11*
X70120000Y-67081400D03*
X72120000Y-67081400D03*
D12*
X74726800Y-69097400D03*
X74726800Y-67097400D03*
X76555600Y-67097400D03*
X76555600Y-69097400D03*
D11*
X66183000Y-67056000D03*
X68183000Y-67056000D03*
D12*
X63322200Y-47361600D03*
X63322200Y-49361600D03*
X87198200Y-45050200D03*
X87198200Y-47050200D03*
D10*
G36*
X63427857Y-44725015D02*
X62310585Y-43158657D01*
X63876943Y-42041385D01*
X64994215Y-43607743D01*
X63427857Y-44725015D01*
X63427857Y-44725015D01*
G37*
G36*
X61369773Y-46193033D02*
X60252501Y-44626675D01*
X62450613Y-43058777D01*
X63567885Y-44625135D01*
X61369773Y-46193033D01*
X61369773Y-46193033D01*
G37*
G36*
X64854187Y-43707623D02*
X63736915Y-42141265D01*
X65935027Y-40573367D01*
X67052299Y-42139725D01*
X64854187Y-43707623D01*
X64854187Y-43707623D01*
G37*
G36*
X90064015Y-43133257D02*
X88946743Y-44699615D01*
X87380385Y-43582343D01*
X88497657Y-42015985D01*
X90064015Y-43133257D01*
X90064015Y-43133257D01*
G37*
G36*
X92122099Y-44601275D02*
X91004827Y-46167633D01*
X88806715Y-44599735D01*
X89923987Y-43033377D01*
X92122099Y-44601275D01*
X92122099Y-44601275D01*
G37*
G36*
X88637685Y-42115865D02*
X87520413Y-43682223D01*
X85322301Y-42114325D01*
X86439573Y-40547967D01*
X88637685Y-42115865D01*
X88637685Y-42115865D01*
G37*
D21*
X68158000Y-79026000D03*
X62398000Y-79026000D03*
X62398000Y-83026000D03*
X68158000Y-83026000D03*
X90002000Y-79026000D03*
X84242000Y-79026000D03*
X84242000Y-83026000D03*
X90002000Y-83026000D03*
D22*
X64135000Y-74295000D03*
X72542400Y-68834000D03*
X78689200Y-68834000D03*
X61976000Y-74295000D03*
X90424000Y-73914000D03*
X74676000Y-74549000D03*
D23*
X79677500Y-61852500D03*
X79677500Y-61352500D03*
X79677500Y-60852500D03*
X79677500Y-60352500D03*
X79677500Y-59852500D03*
X79677500Y-59352500D03*
X79677500Y-58852500D03*
X79677500Y-58352500D03*
X79677500Y-57852500D03*
X79677500Y-57352500D03*
X79677500Y-56852500D03*
X79677500Y-56352500D03*
X79677500Y-55852500D03*
X79677500Y-55352500D03*
X79677500Y-54852500D03*
X79677500Y-54352500D03*
D24*
X77727500Y-52402500D03*
X77227500Y-52402500D03*
X76727500Y-52402500D03*
X76227500Y-52402500D03*
X75727500Y-52402500D03*
X75227500Y-52402500D03*
X74727500Y-52402500D03*
X74227500Y-52402500D03*
X73727500Y-52402500D03*
X73227500Y-52402500D03*
X72727500Y-52402500D03*
X72227500Y-52402500D03*
X71727500Y-52402500D03*
X71227500Y-52402500D03*
X70727500Y-52402500D03*
X70227500Y-52402500D03*
D23*
X68277500Y-54352500D03*
X68277500Y-54852500D03*
X68277500Y-55352500D03*
X68277500Y-55852500D03*
X68277500Y-56352500D03*
X68277500Y-56852500D03*
X68277500Y-57352500D03*
X68277500Y-57852500D03*
X68277500Y-58352500D03*
X68277500Y-58852500D03*
X68277500Y-59352500D03*
X68277500Y-59852500D03*
X68277500Y-60352500D03*
X68277500Y-60852500D03*
X68277500Y-61352500D03*
X68277500Y-61852500D03*
D24*
X70227500Y-63802500D03*
X70727500Y-63802500D03*
X71227500Y-63802500D03*
X71727500Y-63802500D03*
X72227500Y-63802500D03*
X72727500Y-63802500D03*
X73227500Y-63802500D03*
X73727500Y-63802500D03*
X74227500Y-63802500D03*
X74727500Y-63802500D03*
X75227500Y-63802500D03*
X75727500Y-63802500D03*
X76227500Y-63802500D03*
X76727500Y-63802500D03*
X77227500Y-63802500D03*
X77727500Y-63802500D03*
D25*
X72755000Y-76261000D03*
X72755000Y-74361000D03*
X70755000Y-75311000D03*
D11*
X84318600Y-65379600D03*
X86318600Y-65379600D03*
D26*
X88142500Y-62166500D03*
X88142500Y-57086500D03*
X83942500Y-57086500D03*
X83942500Y-62166500D03*
D27*
X90805000Y-71501000D03*
X90805000Y-69469000D03*
D11*
X123834400Y-54203600D03*
X121834400Y-54203600D03*
D12*
X119227600Y-66106800D03*
X119227600Y-68106800D03*
X116713000Y-66659000D03*
X116713000Y-64659000D03*
X114681000Y-50403000D03*
X114681000Y-48403000D03*
D11*
X107680000Y-50165000D03*
X105680000Y-50165000D03*
X101552500Y-51625500D03*
X103552500Y-51625500D03*
D12*
X102235000Y-62881000D03*
X102235000Y-64881000D03*
D11*
X102727000Y-60579000D03*
X100727000Y-60579000D03*
D12*
X105410000Y-74311000D03*
X105410000Y-76311000D03*
D11*
X109712000Y-72263000D03*
X107712000Y-72263000D03*
D13*
X103251000Y-76011000D03*
X103251000Y-74611000D03*
D11*
X103267000Y-72263000D03*
X105267000Y-72263000D03*
D10*
G36*
X119340924Y-75438000D02*
X117856000Y-76922924D01*
X116371076Y-75438000D01*
X117856000Y-73953076D01*
X119340924Y-75438000D01*
X119340924Y-75438000D01*
G37*
D14*
X119652051Y-73641949D02*
X119652051Y-73641949D01*
X121448102Y-71845898D02*
X121448102Y-71845898D01*
X123244154Y-70049846D02*
X123244154Y-70049846D01*
X125040205Y-68253795D02*
X125040205Y-68253795D01*
X126836256Y-66457744D02*
X126836256Y-66457744D01*
D15*
X108900000Y-80710000D03*
D16*
X110280000Y-78800000D03*
X110780000Y-78800000D03*
X111280000Y-78800000D03*
X111780000Y-78800000D03*
X112280000Y-78800000D03*
X112780000Y-78800000D03*
X113280000Y-78800000D03*
X115780000Y-78800000D03*
X114780000Y-78800000D03*
X114280000Y-78800000D03*
X113780000Y-78800000D03*
X115280000Y-78800000D03*
D15*
X117160000Y-80710000D03*
X117520000Y-86660000D03*
X108540000Y-86660000D03*
D17*
X116630000Y-79460000D03*
D18*
X109430000Y-79460000D03*
X115830000Y-80110000D03*
X114230000Y-80110000D03*
X113430000Y-80110000D03*
X112630000Y-80110000D03*
X111830000Y-80110000D03*
X110230000Y-80110000D03*
X115430000Y-80810000D03*
X114630000Y-80810000D03*
X113830000Y-80810000D03*
X112230000Y-80810000D03*
X111430000Y-80810000D03*
X110630000Y-80810000D03*
D19*
X120650000Y-43180000D03*
D20*
X118110000Y-43180000D03*
X115570000Y-43180000D03*
X113030000Y-43180000D03*
X110490000Y-43180000D03*
X107950000Y-43180000D03*
X105410000Y-43180000D03*
D11*
X104054400Y-69545200D03*
X106054400Y-69545200D03*
X102219000Y-55499000D03*
X100219000Y-55499000D03*
D12*
X99441000Y-53705000D03*
X99441000Y-51705000D03*
D11*
X106950000Y-67081400D03*
X108950000Y-67081400D03*
D12*
X111556800Y-69097400D03*
X111556800Y-67097400D03*
X113385600Y-67097400D03*
X113385600Y-69097400D03*
D11*
X103013000Y-67056000D03*
X105013000Y-67056000D03*
D12*
X100152200Y-47361600D03*
X100152200Y-49361600D03*
X124028200Y-45050200D03*
X124028200Y-47050200D03*
D10*
G36*
X100257857Y-44725015D02*
X99140585Y-43158657D01*
X100706943Y-42041385D01*
X101824215Y-43607743D01*
X100257857Y-44725015D01*
X100257857Y-44725015D01*
G37*
G36*
X98199773Y-46193033D02*
X97082501Y-44626675D01*
X99280613Y-43058777D01*
X100397885Y-44625135D01*
X98199773Y-46193033D01*
X98199773Y-46193033D01*
G37*
G36*
X101684187Y-43707623D02*
X100566915Y-42141265D01*
X102765027Y-40573367D01*
X103882299Y-42139725D01*
X101684187Y-43707623D01*
X101684187Y-43707623D01*
G37*
G36*
X126894015Y-43133257D02*
X125776743Y-44699615D01*
X124210385Y-43582343D01*
X125327657Y-42015985D01*
X126894015Y-43133257D01*
X126894015Y-43133257D01*
G37*
G36*
X128952099Y-44601275D02*
X127834827Y-46167633D01*
X125636715Y-44599735D01*
X126753987Y-43033377D01*
X128952099Y-44601275D01*
X128952099Y-44601275D01*
G37*
G36*
X125467685Y-42115865D02*
X124350413Y-43682223D01*
X122152301Y-42114325D01*
X123269573Y-40547967D01*
X125467685Y-42115865D01*
X125467685Y-42115865D01*
G37*
D21*
X104988000Y-79026000D03*
X99228000Y-79026000D03*
X99228000Y-83026000D03*
X104988000Y-83026000D03*
X126832000Y-79026000D03*
X121072000Y-79026000D03*
X121072000Y-83026000D03*
X126832000Y-83026000D03*
D22*
X100965000Y-74295000D03*
X109372400Y-68834000D03*
X115519200Y-68834000D03*
X98806000Y-74295000D03*
X127254000Y-73914000D03*
X111506000Y-74549000D03*
D23*
X116507500Y-61852500D03*
X116507500Y-61352500D03*
X116507500Y-60852500D03*
X116507500Y-60352500D03*
X116507500Y-59852500D03*
X116507500Y-59352500D03*
X116507500Y-58852500D03*
X116507500Y-58352500D03*
X116507500Y-57852500D03*
X116507500Y-57352500D03*
X116507500Y-56852500D03*
X116507500Y-56352500D03*
X116507500Y-55852500D03*
X116507500Y-55352500D03*
X116507500Y-54852500D03*
X116507500Y-54352500D03*
D24*
X114557500Y-52402500D03*
X114057500Y-52402500D03*
X113557500Y-52402500D03*
X113057500Y-52402500D03*
X112557500Y-52402500D03*
X112057500Y-52402500D03*
X111557500Y-52402500D03*
X111057500Y-52402500D03*
X110557500Y-52402500D03*
X110057500Y-52402500D03*
X109557500Y-52402500D03*
X109057500Y-52402500D03*
X108557500Y-52402500D03*
X108057500Y-52402500D03*
X107557500Y-52402500D03*
X107057500Y-52402500D03*
D23*
X105107500Y-54352500D03*
X105107500Y-54852500D03*
X105107500Y-55352500D03*
X105107500Y-55852500D03*
X105107500Y-56352500D03*
X105107500Y-56852500D03*
X105107500Y-57352500D03*
X105107500Y-57852500D03*
X105107500Y-58352500D03*
X105107500Y-58852500D03*
X105107500Y-59352500D03*
X105107500Y-59852500D03*
X105107500Y-60352500D03*
X105107500Y-60852500D03*
X105107500Y-61352500D03*
X105107500Y-61852500D03*
D24*
X107057500Y-63802500D03*
X107557500Y-63802500D03*
X108057500Y-63802500D03*
X108557500Y-63802500D03*
X109057500Y-63802500D03*
X109557500Y-63802500D03*
X110057500Y-63802500D03*
X110557500Y-63802500D03*
X111057500Y-63802500D03*
X111557500Y-63802500D03*
X112057500Y-63802500D03*
X112557500Y-63802500D03*
X113057500Y-63802500D03*
X113557500Y-63802500D03*
X114057500Y-63802500D03*
X114557500Y-63802500D03*
D25*
X109585000Y-76261000D03*
X109585000Y-74361000D03*
X107585000Y-75311000D03*
D11*
X121148600Y-65379600D03*
X123148600Y-65379600D03*
D26*
X124972500Y-62166500D03*
X124972500Y-57086500D03*
X120772500Y-57086500D03*
X120772500Y-62166500D03*
D27*
X127635000Y-71501000D03*
X127635000Y-69469000D03*
D11*
X160664400Y-54203600D03*
X158664400Y-54203600D03*
D12*
X156057600Y-66106800D03*
X156057600Y-68106800D03*
X153543000Y-66659000D03*
X153543000Y-64659000D03*
X151511000Y-50403000D03*
X151511000Y-48403000D03*
D11*
X144510000Y-50165000D03*
X142510000Y-50165000D03*
X138382500Y-51625500D03*
X140382500Y-51625500D03*
D12*
X139065000Y-62881000D03*
X139065000Y-64881000D03*
D11*
X139557000Y-60579000D03*
X137557000Y-60579000D03*
D12*
X142240000Y-74311000D03*
X142240000Y-76311000D03*
D11*
X146542000Y-72263000D03*
X144542000Y-72263000D03*
D13*
X140081000Y-76011000D03*
X140081000Y-74611000D03*
D11*
X140097000Y-72263000D03*
X142097000Y-72263000D03*
D10*
G36*
X156170924Y-75438000D02*
X154686000Y-76922924D01*
X153201076Y-75438000D01*
X154686000Y-73953076D01*
X156170924Y-75438000D01*
X156170924Y-75438000D01*
G37*
D14*
X156482051Y-73641949D02*
X156482051Y-73641949D01*
X158278102Y-71845898D02*
X158278102Y-71845898D01*
X160074154Y-70049846D02*
X160074154Y-70049846D01*
X161870205Y-68253795D02*
X161870205Y-68253795D01*
X163666256Y-66457744D02*
X163666256Y-66457744D01*
D15*
X145730000Y-80710000D03*
D16*
X147110000Y-78800000D03*
X147610000Y-78800000D03*
X148110000Y-78800000D03*
X148610000Y-78800000D03*
X149110000Y-78800000D03*
X149610000Y-78800000D03*
X150110000Y-78800000D03*
X152610000Y-78800000D03*
X151610000Y-78800000D03*
X151110000Y-78800000D03*
X150610000Y-78800000D03*
X152110000Y-78800000D03*
D15*
X153990000Y-80710000D03*
X154350000Y-86660000D03*
X145370000Y-86660000D03*
D17*
X153460000Y-79460000D03*
D18*
X146260000Y-79460000D03*
X152660000Y-80110000D03*
X151060000Y-80110000D03*
X150260000Y-80110000D03*
X149460000Y-80110000D03*
X148660000Y-80110000D03*
X147060000Y-80110000D03*
X152260000Y-80810000D03*
X151460000Y-80810000D03*
X150660000Y-80810000D03*
X149060000Y-80810000D03*
X148260000Y-80810000D03*
X147460000Y-80810000D03*
D19*
X157480000Y-43180000D03*
D20*
X154940000Y-43180000D03*
X152400000Y-43180000D03*
X149860000Y-43180000D03*
X147320000Y-43180000D03*
X144780000Y-43180000D03*
X142240000Y-43180000D03*
D11*
X140884400Y-69545200D03*
X142884400Y-69545200D03*
X139049000Y-55499000D03*
X137049000Y-55499000D03*
D12*
X136271000Y-53705000D03*
X136271000Y-51705000D03*
D11*
X143780000Y-67081400D03*
X145780000Y-67081400D03*
D12*
X148386800Y-69097400D03*
X148386800Y-67097400D03*
X150215600Y-67097400D03*
X150215600Y-69097400D03*
D11*
X139843000Y-67056000D03*
X141843000Y-67056000D03*
D12*
X136982200Y-47361600D03*
X136982200Y-49361600D03*
X160858200Y-45050200D03*
X160858200Y-47050200D03*
D10*
G36*
X137087857Y-44725015D02*
X135970585Y-43158657D01*
X137536943Y-42041385D01*
X138654215Y-43607743D01*
X137087857Y-44725015D01*
X137087857Y-44725015D01*
G37*
G36*
X135029773Y-46193033D02*
X133912501Y-44626675D01*
X136110613Y-43058777D01*
X137227885Y-44625135D01*
X135029773Y-46193033D01*
X135029773Y-46193033D01*
G37*
G36*
X138514187Y-43707623D02*
X137396915Y-42141265D01*
X139595027Y-40573367D01*
X140712299Y-42139725D01*
X138514187Y-43707623D01*
X138514187Y-43707623D01*
G37*
G36*
X163724015Y-43133257D02*
X162606743Y-44699615D01*
X161040385Y-43582343D01*
X162157657Y-42015985D01*
X163724015Y-43133257D01*
X163724015Y-43133257D01*
G37*
G36*
X165782099Y-44601275D02*
X164664827Y-46167633D01*
X162466715Y-44599735D01*
X163583987Y-43033377D01*
X165782099Y-44601275D01*
X165782099Y-44601275D01*
G37*
G36*
X162297685Y-42115865D02*
X161180413Y-43682223D01*
X158982301Y-42114325D01*
X160099573Y-40547967D01*
X162297685Y-42115865D01*
X162297685Y-42115865D01*
G37*
D21*
X141818000Y-79026000D03*
X136058000Y-79026000D03*
X136058000Y-83026000D03*
X141818000Y-83026000D03*
X163662000Y-79026000D03*
X157902000Y-79026000D03*
X157902000Y-83026000D03*
X163662000Y-83026000D03*
D22*
X137795000Y-74295000D03*
X146202400Y-68834000D03*
X152349200Y-68834000D03*
X135636000Y-74295000D03*
X164084000Y-73914000D03*
X148336000Y-74549000D03*
D23*
X153337500Y-61852500D03*
X153337500Y-61352500D03*
X153337500Y-60852500D03*
X153337500Y-60352500D03*
X153337500Y-59852500D03*
X153337500Y-59352500D03*
X153337500Y-58852500D03*
X153337500Y-58352500D03*
X153337500Y-57852500D03*
X153337500Y-57352500D03*
X153337500Y-56852500D03*
X153337500Y-56352500D03*
X153337500Y-55852500D03*
X153337500Y-55352500D03*
X153337500Y-54852500D03*
X153337500Y-54352500D03*
D24*
X151387500Y-52402500D03*
X150887500Y-52402500D03*
X150387500Y-52402500D03*
X149887500Y-52402500D03*
X149387500Y-52402500D03*
X148887500Y-52402500D03*
X148387500Y-52402500D03*
X147887500Y-52402500D03*
X147387500Y-52402500D03*
X146887500Y-52402500D03*
X146387500Y-52402500D03*
X145887500Y-52402500D03*
X145387500Y-52402500D03*
X144887500Y-52402500D03*
X144387500Y-52402500D03*
X143887500Y-52402500D03*
D23*
X141937500Y-54352500D03*
X141937500Y-54852500D03*
X141937500Y-55352500D03*
X141937500Y-55852500D03*
X141937500Y-56352500D03*
X141937500Y-56852500D03*
X141937500Y-57352500D03*
X141937500Y-57852500D03*
X141937500Y-58352500D03*
X141937500Y-58852500D03*
X141937500Y-59352500D03*
X141937500Y-59852500D03*
X141937500Y-60352500D03*
X141937500Y-60852500D03*
X141937500Y-61352500D03*
X141937500Y-61852500D03*
D24*
X143887500Y-63802500D03*
X144387500Y-63802500D03*
X144887500Y-63802500D03*
X145387500Y-63802500D03*
X145887500Y-63802500D03*
X146387500Y-63802500D03*
X146887500Y-63802500D03*
X147387500Y-63802500D03*
X147887500Y-63802500D03*
X148387500Y-63802500D03*
X148887500Y-63802500D03*
X149387500Y-63802500D03*
X149887500Y-63802500D03*
X150387500Y-63802500D03*
X150887500Y-63802500D03*
X151387500Y-63802500D03*
D25*
X146415000Y-76261000D03*
X146415000Y-74361000D03*
X144415000Y-75311000D03*
D11*
X157978600Y-65379600D03*
X159978600Y-65379600D03*
D26*
X161802500Y-62166500D03*
X161802500Y-57086500D03*
X157602500Y-57086500D03*
X157602500Y-62166500D03*
D27*
X164465000Y-71501000D03*
X164465000Y-69469000D03*
D11*
X197494400Y-54203600D03*
X195494400Y-54203600D03*
D12*
X192887600Y-66106800D03*
X192887600Y-68106800D03*
X190373000Y-66659000D03*
X190373000Y-64659000D03*
X188341000Y-50403000D03*
X188341000Y-48403000D03*
D11*
X181340000Y-50165000D03*
X179340000Y-50165000D03*
X175212500Y-51625500D03*
X177212500Y-51625500D03*
D12*
X175895000Y-62881000D03*
X175895000Y-64881000D03*
D11*
X176387000Y-60579000D03*
X174387000Y-60579000D03*
D12*
X179070000Y-74311000D03*
X179070000Y-76311000D03*
D11*
X183372000Y-72263000D03*
X181372000Y-72263000D03*
D13*
X176911000Y-76011000D03*
X176911000Y-74611000D03*
D11*
X176927000Y-72263000D03*
X178927000Y-72263000D03*
D10*
G36*
X193000924Y-75438000D02*
X191516000Y-76922924D01*
X190031076Y-75438000D01*
X191516000Y-73953076D01*
X193000924Y-75438000D01*
X193000924Y-75438000D01*
G37*
D14*
X193312051Y-73641949D02*
X193312051Y-73641949D01*
X195108102Y-71845898D02*
X195108102Y-71845898D01*
X196904154Y-70049846D02*
X196904154Y-70049846D01*
X198700205Y-68253795D02*
X198700205Y-68253795D01*
X200496256Y-66457744D02*
X200496256Y-66457744D01*
D15*
X182560000Y-80710000D03*
D16*
X183940000Y-78800000D03*
X184440000Y-78800000D03*
X184940000Y-78800000D03*
X185440000Y-78800000D03*
X185940000Y-78800000D03*
X186440000Y-78800000D03*
X186940000Y-78800000D03*
X189440000Y-78800000D03*
X188440000Y-78800000D03*
X187940000Y-78800000D03*
X187440000Y-78800000D03*
X188940000Y-78800000D03*
D15*
X190820000Y-80710000D03*
X191180000Y-86660000D03*
X182200000Y-86660000D03*
D17*
X190290000Y-79460000D03*
D18*
X183090000Y-79460000D03*
X189490000Y-80110000D03*
X187890000Y-80110000D03*
X187090000Y-80110000D03*
X186290000Y-80110000D03*
X185490000Y-80110000D03*
X183890000Y-80110000D03*
X189090000Y-80810000D03*
X188290000Y-80810000D03*
X187490000Y-80810000D03*
X185890000Y-80810000D03*
X185090000Y-80810000D03*
X184290000Y-80810000D03*
D19*
X194310000Y-43180000D03*
D20*
X191770000Y-43180000D03*
X189230000Y-43180000D03*
X186690000Y-43180000D03*
X184150000Y-43180000D03*
X181610000Y-43180000D03*
X179070000Y-43180000D03*
D11*
X177714400Y-69545200D03*
X179714400Y-69545200D03*
X175879000Y-55499000D03*
X173879000Y-55499000D03*
D12*
X173101000Y-53705000D03*
X173101000Y-51705000D03*
D11*
X180610000Y-67081400D03*
X182610000Y-67081400D03*
D12*
X185216800Y-69097400D03*
X185216800Y-67097400D03*
X187045600Y-67097400D03*
X187045600Y-69097400D03*
D11*
X176673000Y-67056000D03*
X178673000Y-67056000D03*
D12*
X173812200Y-47361600D03*
X173812200Y-49361600D03*
X197688200Y-45050200D03*
X197688200Y-47050200D03*
D10*
G36*
X173917857Y-44725015D02*
X172800585Y-43158657D01*
X174366943Y-42041385D01*
X175484215Y-43607743D01*
X173917857Y-44725015D01*
X173917857Y-44725015D01*
G37*
G36*
X171859773Y-46193033D02*
X170742501Y-44626675D01*
X172940613Y-43058777D01*
X174057885Y-44625135D01*
X171859773Y-46193033D01*
X171859773Y-46193033D01*
G37*
G36*
X175344187Y-43707623D02*
X174226915Y-42141265D01*
X176425027Y-40573367D01*
X177542299Y-42139725D01*
X175344187Y-43707623D01*
X175344187Y-43707623D01*
G37*
G36*
X200554015Y-43133257D02*
X199436743Y-44699615D01*
X197870385Y-43582343D01*
X198987657Y-42015985D01*
X200554015Y-43133257D01*
X200554015Y-43133257D01*
G37*
G36*
X202612099Y-44601275D02*
X201494827Y-46167633D01*
X199296715Y-44599735D01*
X200413987Y-43033377D01*
X202612099Y-44601275D01*
X202612099Y-44601275D01*
G37*
G36*
X199127685Y-42115865D02*
X198010413Y-43682223D01*
X195812301Y-42114325D01*
X196929573Y-40547967D01*
X199127685Y-42115865D01*
X199127685Y-42115865D01*
G37*
D21*
X178648000Y-79026000D03*
X172888000Y-79026000D03*
X172888000Y-83026000D03*
X178648000Y-83026000D03*
X200492000Y-79026000D03*
X194732000Y-79026000D03*
X194732000Y-83026000D03*
X200492000Y-83026000D03*
D22*
X174625000Y-74295000D03*
X183032400Y-68834000D03*
X189179200Y-68834000D03*
X172466000Y-74295000D03*
X200914000Y-73914000D03*
X185166000Y-74549000D03*
D23*
X190167500Y-61852500D03*
X190167500Y-61352500D03*
X190167500Y-60852500D03*
X190167500Y-60352500D03*
X190167500Y-59852500D03*
X190167500Y-59352500D03*
X190167500Y-58852500D03*
X190167500Y-58352500D03*
X190167500Y-57852500D03*
X190167500Y-57352500D03*
X190167500Y-56852500D03*
X190167500Y-56352500D03*
X190167500Y-55852500D03*
X190167500Y-55352500D03*
X190167500Y-54852500D03*
X190167500Y-54352500D03*
D24*
X188217500Y-52402500D03*
X187717500Y-52402500D03*
X187217500Y-52402500D03*
X186717500Y-52402500D03*
X186217500Y-52402500D03*
X185717500Y-52402500D03*
X185217500Y-52402500D03*
X184717500Y-52402500D03*
X184217500Y-52402500D03*
X183717500Y-52402500D03*
X183217500Y-52402500D03*
X182717500Y-52402500D03*
X182217500Y-52402500D03*
X181717500Y-52402500D03*
X181217500Y-52402500D03*
X180717500Y-52402500D03*
D23*
X178767500Y-54352500D03*
X178767500Y-54852500D03*
X178767500Y-55352500D03*
X178767500Y-55852500D03*
X178767500Y-56352500D03*
X178767500Y-56852500D03*
X178767500Y-57352500D03*
X178767500Y-57852500D03*
X178767500Y-58352500D03*
X178767500Y-58852500D03*
X178767500Y-59352500D03*
X178767500Y-59852500D03*
X178767500Y-60352500D03*
X178767500Y-60852500D03*
X178767500Y-61352500D03*
X178767500Y-61852500D03*
D24*
X180717500Y-63802500D03*
X181217500Y-63802500D03*
X181717500Y-63802500D03*
X182217500Y-63802500D03*
X182717500Y-63802500D03*
X183217500Y-63802500D03*
X183717500Y-63802500D03*
X184217500Y-63802500D03*
X184717500Y-63802500D03*
X185217500Y-63802500D03*
X185717500Y-63802500D03*
X186217500Y-63802500D03*
X186717500Y-63802500D03*
X187217500Y-63802500D03*
X187717500Y-63802500D03*
X188217500Y-63802500D03*
D25*
X183245000Y-76261000D03*
X183245000Y-74361000D03*
X181245000Y-75311000D03*
D11*
X194808600Y-65379600D03*
X196808600Y-65379600D03*
D26*
X198632500Y-62166500D03*
X198632500Y-57086500D03*
X194432500Y-57086500D03*
X194432500Y-62166500D03*
D27*
X201295000Y-71501000D03*
X201295000Y-69469000D03*
D11*
X234324400Y-54203600D03*
X232324400Y-54203600D03*
D12*
X229717600Y-66106800D03*
X229717600Y-68106800D03*
X227203000Y-66659000D03*
X227203000Y-64659000D03*
X225171000Y-50403000D03*
X225171000Y-48403000D03*
D11*
X218170000Y-50165000D03*
X216170000Y-50165000D03*
X212042500Y-51625500D03*
X214042500Y-51625500D03*
D12*
X212725000Y-62881000D03*
X212725000Y-64881000D03*
D11*
X213217000Y-60579000D03*
X211217000Y-60579000D03*
D12*
X215900000Y-74311000D03*
X215900000Y-76311000D03*
D11*
X220202000Y-72263000D03*
X218202000Y-72263000D03*
D13*
X213741000Y-76011000D03*
X213741000Y-74611000D03*
D11*
X213757000Y-72263000D03*
X215757000Y-72263000D03*
D10*
G36*
X229830924Y-75438000D02*
X228346000Y-76922924D01*
X226861076Y-75438000D01*
X228346000Y-73953076D01*
X229830924Y-75438000D01*
X229830924Y-75438000D01*
G37*
D14*
X230142051Y-73641949D02*
X230142051Y-73641949D01*
X231938102Y-71845898D02*
X231938102Y-71845898D01*
X233734154Y-70049846D02*
X233734154Y-70049846D01*
X235530205Y-68253795D02*
X235530205Y-68253795D01*
X237326256Y-66457744D02*
X237326256Y-66457744D01*
D15*
X219390000Y-80710000D03*
D16*
X220770000Y-78800000D03*
X221270000Y-78800000D03*
X221770000Y-78800000D03*
X222270000Y-78800000D03*
X222770000Y-78800000D03*
X223270000Y-78800000D03*
X223770000Y-78800000D03*
X226270000Y-78800000D03*
X225270000Y-78800000D03*
X224770000Y-78800000D03*
X224270000Y-78800000D03*
X225770000Y-78800000D03*
D15*
X227650000Y-80710000D03*
X228010000Y-86660000D03*
X219030000Y-86660000D03*
D17*
X227120000Y-79460000D03*
D18*
X219920000Y-79460000D03*
X226320000Y-80110000D03*
X224720000Y-80110000D03*
X223920000Y-80110000D03*
X223120000Y-80110000D03*
X222320000Y-80110000D03*
X220720000Y-80110000D03*
X225920000Y-80810000D03*
X225120000Y-80810000D03*
X224320000Y-80810000D03*
X222720000Y-80810000D03*
X221920000Y-80810000D03*
X221120000Y-80810000D03*
D19*
X231140000Y-43180000D03*
D20*
X228600000Y-43180000D03*
X226060000Y-43180000D03*
X223520000Y-43180000D03*
X220980000Y-43180000D03*
X218440000Y-43180000D03*
X215900000Y-43180000D03*
D11*
X214544400Y-69545200D03*
X216544400Y-69545200D03*
X212709000Y-55499000D03*
X210709000Y-55499000D03*
D12*
X209931000Y-53705000D03*
X209931000Y-51705000D03*
D11*
X217440000Y-67081400D03*
X219440000Y-67081400D03*
D12*
X222046800Y-69097400D03*
X222046800Y-67097400D03*
X223875600Y-67097400D03*
X223875600Y-69097400D03*
D11*
X213503000Y-67056000D03*
X215503000Y-67056000D03*
D12*
X210642200Y-47361600D03*
X210642200Y-49361600D03*
X234518200Y-45050200D03*
X234518200Y-47050200D03*
D10*
G36*
X210747857Y-44725015D02*
X209630585Y-43158657D01*
X211196943Y-42041385D01*
X212314215Y-43607743D01*
X210747857Y-44725015D01*
X210747857Y-44725015D01*
G37*
G36*
X208689773Y-46193033D02*
X207572501Y-44626675D01*
X209770613Y-43058777D01*
X210887885Y-44625135D01*
X208689773Y-46193033D01*
X208689773Y-46193033D01*
G37*
G36*
X212174187Y-43707623D02*
X211056915Y-42141265D01*
X213255027Y-40573367D01*
X214372299Y-42139725D01*
X212174187Y-43707623D01*
X212174187Y-43707623D01*
G37*
G36*
X237384015Y-43133257D02*
X236266743Y-44699615D01*
X234700385Y-43582343D01*
X235817657Y-42015985D01*
X237384015Y-43133257D01*
X237384015Y-43133257D01*
G37*
G36*
X239442099Y-44601275D02*
X238324827Y-46167633D01*
X236126715Y-44599735D01*
X237243987Y-43033377D01*
X239442099Y-44601275D01*
X239442099Y-44601275D01*
G37*
G36*
X235957685Y-42115865D02*
X234840413Y-43682223D01*
X232642301Y-42114325D01*
X233759573Y-40547967D01*
X235957685Y-42115865D01*
X235957685Y-42115865D01*
G37*
D21*
X215478000Y-79026000D03*
X209718000Y-79026000D03*
X209718000Y-83026000D03*
X215478000Y-83026000D03*
X237322000Y-79026000D03*
X231562000Y-79026000D03*
X231562000Y-83026000D03*
X237322000Y-83026000D03*
D22*
X211455000Y-74295000D03*
X219862400Y-68834000D03*
X226009200Y-68834000D03*
X209296000Y-74295000D03*
X237744000Y-73914000D03*
X221996000Y-74549000D03*
D23*
X226997500Y-61852500D03*
X226997500Y-61352500D03*
X226997500Y-60852500D03*
X226997500Y-60352500D03*
X226997500Y-59852500D03*
X226997500Y-59352500D03*
X226997500Y-58852500D03*
X226997500Y-58352500D03*
X226997500Y-57852500D03*
X226997500Y-57352500D03*
X226997500Y-56852500D03*
X226997500Y-56352500D03*
X226997500Y-55852500D03*
X226997500Y-55352500D03*
X226997500Y-54852500D03*
X226997500Y-54352500D03*
D24*
X225047500Y-52402500D03*
X224547500Y-52402500D03*
X224047500Y-52402500D03*
X223547500Y-52402500D03*
X223047500Y-52402500D03*
X222547500Y-52402500D03*
X222047500Y-52402500D03*
X221547500Y-52402500D03*
X221047500Y-52402500D03*
X220547500Y-52402500D03*
X220047500Y-52402500D03*
X219547500Y-52402500D03*
X219047500Y-52402500D03*
X218547500Y-52402500D03*
X218047500Y-52402500D03*
X217547500Y-52402500D03*
D23*
X215597500Y-54352500D03*
X215597500Y-54852500D03*
X215597500Y-55352500D03*
X215597500Y-55852500D03*
X215597500Y-56352500D03*
X215597500Y-56852500D03*
X215597500Y-57352500D03*
X215597500Y-57852500D03*
X215597500Y-58352500D03*
X215597500Y-58852500D03*
X215597500Y-59352500D03*
X215597500Y-59852500D03*
X215597500Y-60352500D03*
X215597500Y-60852500D03*
X215597500Y-61352500D03*
X215597500Y-61852500D03*
D24*
X217547500Y-63802500D03*
X218047500Y-63802500D03*
X218547500Y-63802500D03*
X219047500Y-63802500D03*
X219547500Y-63802500D03*
X220047500Y-63802500D03*
X220547500Y-63802500D03*
X221047500Y-63802500D03*
X221547500Y-63802500D03*
X222047500Y-63802500D03*
X222547500Y-63802500D03*
X223047500Y-63802500D03*
X223547500Y-63802500D03*
X224047500Y-63802500D03*
X224547500Y-63802500D03*
X225047500Y-63802500D03*
D25*
X220075000Y-76261000D03*
X220075000Y-74361000D03*
X218075000Y-75311000D03*
D11*
X231638600Y-65379600D03*
X233638600Y-65379600D03*
D26*
X235462500Y-62166500D03*
X235462500Y-57086500D03*
X231262500Y-57086500D03*
X231262500Y-62166500D03*
D27*
X238125000Y-71501000D03*
X238125000Y-69469000D03*
D11*
X87004400Y-107543600D03*
X85004400Y-107543600D03*
D12*
X82397600Y-119446800D03*
X82397600Y-121446800D03*
X79883000Y-119999000D03*
X79883000Y-117999000D03*
X77851000Y-103743000D03*
X77851000Y-101743000D03*
D11*
X70850000Y-103505000D03*
X68850000Y-103505000D03*
X64722500Y-104965500D03*
X66722500Y-104965500D03*
D12*
X65405000Y-116221000D03*
X65405000Y-118221000D03*
D11*
X65897000Y-113919000D03*
X63897000Y-113919000D03*
D12*
X68580000Y-127651000D03*
X68580000Y-129651000D03*
D11*
X72882000Y-125603000D03*
X70882000Y-125603000D03*
D13*
X66421000Y-129351000D03*
X66421000Y-127951000D03*
D11*
X66437000Y-125603000D03*
X68437000Y-125603000D03*
D10*
G36*
X82510924Y-128778000D02*
X81026000Y-130262924D01*
X79541076Y-128778000D01*
X81026000Y-127293076D01*
X82510924Y-128778000D01*
X82510924Y-128778000D01*
G37*
D14*
X82822051Y-126981949D02*
X82822051Y-126981949D01*
X84618102Y-125185898D02*
X84618102Y-125185898D01*
X86414154Y-123389846D02*
X86414154Y-123389846D01*
X88210205Y-121593795D02*
X88210205Y-121593795D01*
X90006256Y-119797744D02*
X90006256Y-119797744D01*
D15*
X72070000Y-134050000D03*
D16*
X73450000Y-132140000D03*
X73950000Y-132140000D03*
X74450000Y-132140000D03*
X74950000Y-132140000D03*
X75450000Y-132140000D03*
X75950000Y-132140000D03*
X76450000Y-132140000D03*
X78950000Y-132140000D03*
X77950000Y-132140000D03*
X77450000Y-132140000D03*
X76950000Y-132140000D03*
X78450000Y-132140000D03*
D15*
X80330000Y-134050000D03*
X80690000Y-140000000D03*
X71710000Y-140000000D03*
D17*
X79800000Y-132800000D03*
D18*
X72600000Y-132800000D03*
X79000000Y-133450000D03*
X77400000Y-133450000D03*
X76600000Y-133450000D03*
X75800000Y-133450000D03*
X75000000Y-133450000D03*
X73400000Y-133450000D03*
X78600000Y-134150000D03*
X77800000Y-134150000D03*
X77000000Y-134150000D03*
X75400000Y-134150000D03*
X74600000Y-134150000D03*
X73800000Y-134150000D03*
D19*
X83820000Y-96520000D03*
D20*
X81280000Y-96520000D03*
X78740000Y-96520000D03*
X76200000Y-96520000D03*
X73660000Y-96520000D03*
X71120000Y-96520000D03*
X68580000Y-96520000D03*
D11*
X67224400Y-122885200D03*
X69224400Y-122885200D03*
X65389000Y-108839000D03*
X63389000Y-108839000D03*
D12*
X62611000Y-107045000D03*
X62611000Y-105045000D03*
D11*
X70120000Y-120421400D03*
X72120000Y-120421400D03*
D12*
X74726800Y-122437400D03*
X74726800Y-120437400D03*
X76555600Y-120437400D03*
X76555600Y-122437400D03*
D11*
X66183000Y-120396000D03*
X68183000Y-120396000D03*
D12*
X63322200Y-100701600D03*
X63322200Y-102701600D03*
X87198200Y-98390200D03*
X87198200Y-100390200D03*
D10*
G36*
X63427857Y-98065015D02*
X62310585Y-96498657D01*
X63876943Y-95381385D01*
X64994215Y-96947743D01*
X63427857Y-98065015D01*
X63427857Y-98065015D01*
G37*
G36*
X61369773Y-99533033D02*
X60252501Y-97966675D01*
X62450613Y-96398777D01*
X63567885Y-97965135D01*
X61369773Y-99533033D01*
X61369773Y-99533033D01*
G37*
G36*
X64854187Y-97047623D02*
X63736915Y-95481265D01*
X65935027Y-93913367D01*
X67052299Y-95479725D01*
X64854187Y-97047623D01*
X64854187Y-97047623D01*
G37*
G36*
X90064015Y-96473257D02*
X88946743Y-98039615D01*
X87380385Y-96922343D01*
X88497657Y-95355985D01*
X90064015Y-96473257D01*
X90064015Y-96473257D01*
G37*
G36*
X92122099Y-97941275D02*
X91004827Y-99507633D01*
X88806715Y-97939735D01*
X89923987Y-96373377D01*
X92122099Y-97941275D01*
X92122099Y-97941275D01*
G37*
G36*
X88637685Y-95455865D02*
X87520413Y-97022223D01*
X85322301Y-95454325D01*
X86439573Y-93887967D01*
X88637685Y-95455865D01*
X88637685Y-95455865D01*
G37*
D21*
X68158000Y-132366000D03*
X62398000Y-132366000D03*
X62398000Y-136366000D03*
X68158000Y-136366000D03*
X90002000Y-132366000D03*
X84242000Y-132366000D03*
X84242000Y-136366000D03*
X90002000Y-136366000D03*
D22*
X64135000Y-127635000D03*
X72542400Y-122174000D03*
X78689200Y-122174000D03*
X61976000Y-127635000D03*
X90424000Y-127254000D03*
X74676000Y-127889000D03*
D23*
X79677500Y-115192500D03*
X79677500Y-114692500D03*
X79677500Y-114192500D03*
X79677500Y-113692500D03*
X79677500Y-113192500D03*
X79677500Y-112692500D03*
X79677500Y-112192500D03*
X79677500Y-111692500D03*
X79677500Y-111192500D03*
X79677500Y-110692500D03*
X79677500Y-110192500D03*
X79677500Y-109692500D03*
X79677500Y-109192500D03*
X79677500Y-108692500D03*
X79677500Y-108192500D03*
X79677500Y-107692500D03*
D24*
X77727500Y-105742500D03*
X77227500Y-105742500D03*
X76727500Y-105742500D03*
X76227500Y-105742500D03*
X75727500Y-105742500D03*
X75227500Y-105742500D03*
X74727500Y-105742500D03*
X74227500Y-105742500D03*
X73727500Y-105742500D03*
X73227500Y-105742500D03*
X72727500Y-105742500D03*
X72227500Y-105742500D03*
X71727500Y-105742500D03*
X71227500Y-105742500D03*
X70727500Y-105742500D03*
X70227500Y-105742500D03*
D23*
X68277500Y-107692500D03*
X68277500Y-108192500D03*
X68277500Y-108692500D03*
X68277500Y-109192500D03*
X68277500Y-109692500D03*
X68277500Y-110192500D03*
X68277500Y-110692500D03*
X68277500Y-111192500D03*
X68277500Y-111692500D03*
X68277500Y-112192500D03*
X68277500Y-112692500D03*
X68277500Y-113192500D03*
X68277500Y-113692500D03*
X68277500Y-114192500D03*
X68277500Y-114692500D03*
X68277500Y-115192500D03*
D24*
X70227500Y-117142500D03*
X70727500Y-117142500D03*
X71227500Y-117142500D03*
X71727500Y-117142500D03*
X72227500Y-117142500D03*
X72727500Y-117142500D03*
X73227500Y-117142500D03*
X73727500Y-117142500D03*
X74227500Y-117142500D03*
X74727500Y-117142500D03*
X75227500Y-117142500D03*
X75727500Y-117142500D03*
X76227500Y-117142500D03*
X76727500Y-117142500D03*
X77227500Y-117142500D03*
X77727500Y-117142500D03*
D25*
X72755000Y-129601000D03*
X72755000Y-127701000D03*
X70755000Y-128651000D03*
D11*
X84318600Y-118719600D03*
X86318600Y-118719600D03*
D26*
X88142500Y-115506500D03*
X88142500Y-110426500D03*
X83942500Y-110426500D03*
X83942500Y-115506500D03*
D27*
X90805000Y-124841000D03*
X90805000Y-122809000D03*
D11*
X123834400Y-107543600D03*
X121834400Y-107543600D03*
D12*
X119227600Y-119446800D03*
X119227600Y-121446800D03*
X116713000Y-119999000D03*
X116713000Y-117999000D03*
X114681000Y-103743000D03*
X114681000Y-101743000D03*
D11*
X107680000Y-103505000D03*
X105680000Y-103505000D03*
X101552500Y-104965500D03*
X103552500Y-104965500D03*
D12*
X102235000Y-116221000D03*
X102235000Y-118221000D03*
D11*
X102727000Y-113919000D03*
X100727000Y-113919000D03*
D12*
X105410000Y-127651000D03*
X105410000Y-129651000D03*
D11*
X109712000Y-125603000D03*
X107712000Y-125603000D03*
D13*
X103251000Y-129351000D03*
X103251000Y-127951000D03*
D11*
X103267000Y-125603000D03*
X105267000Y-125603000D03*
D10*
G36*
X119340924Y-128778000D02*
X117856000Y-130262924D01*
X116371076Y-128778000D01*
X117856000Y-127293076D01*
X119340924Y-128778000D01*
X119340924Y-128778000D01*
G37*
D14*
X119652051Y-126981949D02*
X119652051Y-126981949D01*
X121448102Y-125185898D02*
X121448102Y-125185898D01*
X123244154Y-123389846D02*
X123244154Y-123389846D01*
X125040205Y-121593795D02*
X125040205Y-121593795D01*
X126836256Y-119797744D02*
X126836256Y-119797744D01*
D15*
X108900000Y-134050000D03*
D16*
X110280000Y-132140000D03*
X110780000Y-132140000D03*
X111280000Y-132140000D03*
X111780000Y-132140000D03*
X112280000Y-132140000D03*
X112780000Y-132140000D03*
X113280000Y-132140000D03*
X115780000Y-132140000D03*
X114780000Y-132140000D03*
X114280000Y-132140000D03*
X113780000Y-132140000D03*
X115280000Y-132140000D03*
D15*
X117160000Y-134050000D03*
X117520000Y-140000000D03*
X108540000Y-140000000D03*
D17*
X116630000Y-132800000D03*
D18*
X109430000Y-132800000D03*
X115830000Y-133450000D03*
X114230000Y-133450000D03*
X113430000Y-133450000D03*
X112630000Y-133450000D03*
X111830000Y-133450000D03*
X110230000Y-133450000D03*
X115430000Y-134150000D03*
X114630000Y-134150000D03*
X113830000Y-134150000D03*
X112230000Y-134150000D03*
X111430000Y-134150000D03*
X110630000Y-134150000D03*
D19*
X120650000Y-96520000D03*
D20*
X118110000Y-96520000D03*
X115570000Y-96520000D03*
X113030000Y-96520000D03*
X110490000Y-96520000D03*
X107950000Y-96520000D03*
X105410000Y-96520000D03*
D11*
X104054400Y-122885200D03*
X106054400Y-122885200D03*
X102219000Y-108839000D03*
X100219000Y-108839000D03*
D12*
X99441000Y-107045000D03*
X99441000Y-105045000D03*
D11*
X106950000Y-120421400D03*
X108950000Y-120421400D03*
D12*
X111556800Y-122437400D03*
X111556800Y-120437400D03*
X113385600Y-120437400D03*
X113385600Y-122437400D03*
D11*
X103013000Y-120396000D03*
X105013000Y-120396000D03*
D12*
X100152200Y-100701600D03*
X100152200Y-102701600D03*
X124028200Y-98390200D03*
X124028200Y-100390200D03*
D10*
G36*
X100257857Y-98065015D02*
X99140585Y-96498657D01*
X100706943Y-95381385D01*
X101824215Y-96947743D01*
X100257857Y-98065015D01*
X100257857Y-98065015D01*
G37*
G36*
X98199773Y-99533033D02*
X97082501Y-97966675D01*
X99280613Y-96398777D01*
X100397885Y-97965135D01*
X98199773Y-99533033D01*
X98199773Y-99533033D01*
G37*
G36*
X101684187Y-97047623D02*
X100566915Y-95481265D01*
X102765027Y-93913367D01*
X103882299Y-95479725D01*
X101684187Y-97047623D01*
X101684187Y-97047623D01*
G37*
G36*
X126894015Y-96473257D02*
X125776743Y-98039615D01*
X124210385Y-96922343D01*
X125327657Y-95355985D01*
X126894015Y-96473257D01*
X126894015Y-96473257D01*
G37*
G36*
X128952099Y-97941275D02*
X127834827Y-99507633D01*
X125636715Y-97939735D01*
X126753987Y-96373377D01*
X128952099Y-97941275D01*
X128952099Y-97941275D01*
G37*
G36*
X125467685Y-95455865D02*
X124350413Y-97022223D01*
X122152301Y-95454325D01*
X123269573Y-93887967D01*
X125467685Y-95455865D01*
X125467685Y-95455865D01*
G37*
D21*
X104988000Y-132366000D03*
X99228000Y-132366000D03*
X99228000Y-136366000D03*
X104988000Y-136366000D03*
X126832000Y-132366000D03*
X121072000Y-132366000D03*
X121072000Y-136366000D03*
X126832000Y-136366000D03*
D22*
X100965000Y-127635000D03*
X109372400Y-122174000D03*
X115519200Y-122174000D03*
X98806000Y-127635000D03*
X127254000Y-127254000D03*
X111506000Y-127889000D03*
D23*
X116507500Y-115192500D03*
X116507500Y-114692500D03*
X116507500Y-114192500D03*
X116507500Y-113692500D03*
X116507500Y-113192500D03*
X116507500Y-112692500D03*
X116507500Y-112192500D03*
X116507500Y-111692500D03*
X116507500Y-111192500D03*
X116507500Y-110692500D03*
X116507500Y-110192500D03*
X116507500Y-109692500D03*
X116507500Y-109192500D03*
X116507500Y-108692500D03*
X116507500Y-108192500D03*
X116507500Y-107692500D03*
D24*
X114557500Y-105742500D03*
X114057500Y-105742500D03*
X113557500Y-105742500D03*
X113057500Y-105742500D03*
X112557500Y-105742500D03*
X112057500Y-105742500D03*
X111557500Y-105742500D03*
X111057500Y-105742500D03*
X110557500Y-105742500D03*
X110057500Y-105742500D03*
X109557500Y-105742500D03*
X109057500Y-105742500D03*
X108557500Y-105742500D03*
X108057500Y-105742500D03*
X107557500Y-105742500D03*
X107057500Y-105742500D03*
D23*
X105107500Y-107692500D03*
X105107500Y-108192500D03*
X105107500Y-108692500D03*
X105107500Y-109192500D03*
X105107500Y-109692500D03*
X105107500Y-110192500D03*
X105107500Y-110692500D03*
X105107500Y-111192500D03*
X105107500Y-111692500D03*
X105107500Y-112192500D03*
X105107500Y-112692500D03*
X105107500Y-113192500D03*
X105107500Y-113692500D03*
X105107500Y-114192500D03*
X105107500Y-114692500D03*
X105107500Y-115192500D03*
D24*
X107057500Y-117142500D03*
X107557500Y-117142500D03*
X108057500Y-117142500D03*
X108557500Y-117142500D03*
X109057500Y-117142500D03*
X109557500Y-117142500D03*
X110057500Y-117142500D03*
X110557500Y-117142500D03*
X111057500Y-117142500D03*
X111557500Y-117142500D03*
X112057500Y-117142500D03*
X112557500Y-117142500D03*
X113057500Y-117142500D03*
X113557500Y-117142500D03*
X114057500Y-117142500D03*
X114557500Y-117142500D03*
D25*
X109585000Y-129601000D03*
X109585000Y-127701000D03*
X107585000Y-128651000D03*
D11*
X121148600Y-118719600D03*
X123148600Y-118719600D03*
D26*
X124972500Y-115506500D03*
X124972500Y-110426500D03*
X120772500Y-110426500D03*
X120772500Y-115506500D03*
D27*
X127635000Y-124841000D03*
X127635000Y-122809000D03*
D11*
X160664400Y-107543600D03*
X158664400Y-107543600D03*
D12*
X156057600Y-119446800D03*
X156057600Y-121446800D03*
X153543000Y-119999000D03*
X153543000Y-117999000D03*
X151511000Y-103743000D03*
X151511000Y-101743000D03*
D11*
X144510000Y-103505000D03*
X142510000Y-103505000D03*
X138382500Y-104965500D03*
X140382500Y-104965500D03*
D12*
X139065000Y-116221000D03*
X139065000Y-118221000D03*
D11*
X139557000Y-113919000D03*
X137557000Y-113919000D03*
D12*
X142240000Y-127651000D03*
X142240000Y-129651000D03*
D11*
X146542000Y-125603000D03*
X144542000Y-125603000D03*
D13*
X140081000Y-129351000D03*
X140081000Y-127951000D03*
D11*
X140097000Y-125603000D03*
X142097000Y-125603000D03*
D10*
G36*
X156170924Y-128778000D02*
X154686000Y-130262924D01*
X153201076Y-128778000D01*
X154686000Y-127293076D01*
X156170924Y-128778000D01*
X156170924Y-128778000D01*
G37*
D14*
X156482051Y-126981949D02*
X156482051Y-126981949D01*
X158278102Y-125185898D02*
X158278102Y-125185898D01*
X160074154Y-123389846D02*
X160074154Y-123389846D01*
X161870205Y-121593795D02*
X161870205Y-121593795D01*
X163666256Y-119797744D02*
X163666256Y-119797744D01*
D15*
X145730000Y-134050000D03*
D16*
X147110000Y-132140000D03*
X147610000Y-132140000D03*
X148110000Y-132140000D03*
X148610000Y-132140000D03*
X149110000Y-132140000D03*
X149610000Y-132140000D03*
X150110000Y-132140000D03*
X152610000Y-132140000D03*
X151610000Y-132140000D03*
X151110000Y-132140000D03*
X150610000Y-132140000D03*
X152110000Y-132140000D03*
D15*
X153990000Y-134050000D03*
X154350000Y-140000000D03*
X145370000Y-140000000D03*
D17*
X153460000Y-132800000D03*
D18*
X146260000Y-132800000D03*
X152660000Y-133450000D03*
X151060000Y-133450000D03*
X150260000Y-133450000D03*
X149460000Y-133450000D03*
X148660000Y-133450000D03*
X147060000Y-133450000D03*
X152260000Y-134150000D03*
X151460000Y-134150000D03*
X150660000Y-134150000D03*
X149060000Y-134150000D03*
X148260000Y-134150000D03*
X147460000Y-134150000D03*
D19*
X157480000Y-96520000D03*
D20*
X154940000Y-96520000D03*
X152400000Y-96520000D03*
X149860000Y-96520000D03*
X147320000Y-96520000D03*
X144780000Y-96520000D03*
X142240000Y-96520000D03*
D11*
X140884400Y-122885200D03*
X142884400Y-122885200D03*
X139049000Y-108839000D03*
X137049000Y-108839000D03*
D12*
X136271000Y-107045000D03*
X136271000Y-105045000D03*
D11*
X143780000Y-120421400D03*
X145780000Y-120421400D03*
D12*
X148386800Y-122437400D03*
X148386800Y-120437400D03*
X150215600Y-120437400D03*
X150215600Y-122437400D03*
D11*
X139843000Y-120396000D03*
X141843000Y-120396000D03*
D12*
X136982200Y-100701600D03*
X136982200Y-102701600D03*
X160858200Y-98390200D03*
X160858200Y-100390200D03*
D10*
G36*
X137087857Y-98065015D02*
X135970585Y-96498657D01*
X137536943Y-95381385D01*
X138654215Y-96947743D01*
X137087857Y-98065015D01*
X137087857Y-98065015D01*
G37*
G36*
X135029773Y-99533033D02*
X133912501Y-97966675D01*
X136110613Y-96398777D01*
X137227885Y-97965135D01*
X135029773Y-99533033D01*
X135029773Y-99533033D01*
G37*
G36*
X138514187Y-97047623D02*
X137396915Y-95481265D01*
X139595027Y-93913367D01*
X140712299Y-95479725D01*
X138514187Y-97047623D01*
X138514187Y-97047623D01*
G37*
G36*
X163724015Y-96473257D02*
X162606743Y-98039615D01*
X161040385Y-96922343D01*
X162157657Y-95355985D01*
X163724015Y-96473257D01*
X163724015Y-96473257D01*
G37*
G36*
X165782099Y-97941275D02*
X164664827Y-99507633D01*
X162466715Y-97939735D01*
X163583987Y-96373377D01*
X165782099Y-97941275D01*
X165782099Y-97941275D01*
G37*
G36*
X162297685Y-95455865D02*
X161180413Y-97022223D01*
X158982301Y-95454325D01*
X160099573Y-93887967D01*
X162297685Y-95455865D01*
X162297685Y-95455865D01*
G37*
D21*
X141818000Y-132366000D03*
X136058000Y-132366000D03*
X136058000Y-136366000D03*
X141818000Y-136366000D03*
X163662000Y-132366000D03*
X157902000Y-132366000D03*
X157902000Y-136366000D03*
X163662000Y-136366000D03*
D22*
X137795000Y-127635000D03*
X146202400Y-122174000D03*
X152349200Y-122174000D03*
X135636000Y-127635000D03*
X164084000Y-127254000D03*
X148336000Y-127889000D03*
D23*
X153337500Y-115192500D03*
X153337500Y-114692500D03*
X153337500Y-114192500D03*
X153337500Y-113692500D03*
X153337500Y-113192500D03*
X153337500Y-112692500D03*
X153337500Y-112192500D03*
X153337500Y-111692500D03*
X153337500Y-111192500D03*
X153337500Y-110692500D03*
X153337500Y-110192500D03*
X153337500Y-109692500D03*
X153337500Y-109192500D03*
X153337500Y-108692500D03*
X153337500Y-108192500D03*
X153337500Y-107692500D03*
D24*
X151387500Y-105742500D03*
X150887500Y-105742500D03*
X150387500Y-105742500D03*
X149887500Y-105742500D03*
X149387500Y-105742500D03*
X148887500Y-105742500D03*
X148387500Y-105742500D03*
X147887500Y-105742500D03*
X147387500Y-105742500D03*
X146887500Y-105742500D03*
X146387500Y-105742500D03*
X145887500Y-105742500D03*
X145387500Y-105742500D03*
X144887500Y-105742500D03*
X144387500Y-105742500D03*
X143887500Y-105742500D03*
D23*
X141937500Y-107692500D03*
X141937500Y-108192500D03*
X141937500Y-108692500D03*
X141937500Y-109192500D03*
X141937500Y-109692500D03*
X141937500Y-110192500D03*
X141937500Y-110692500D03*
X141937500Y-111192500D03*
X141937500Y-111692500D03*
X141937500Y-112192500D03*
X141937500Y-112692500D03*
X141937500Y-113192500D03*
X141937500Y-113692500D03*
X141937500Y-114192500D03*
X141937500Y-114692500D03*
X141937500Y-115192500D03*
D24*
X143887500Y-117142500D03*
X144387500Y-117142500D03*
X144887500Y-117142500D03*
X145387500Y-117142500D03*
X145887500Y-117142500D03*
X146387500Y-117142500D03*
X146887500Y-117142500D03*
X147387500Y-117142500D03*
X147887500Y-117142500D03*
X148387500Y-117142500D03*
X148887500Y-117142500D03*
X149387500Y-117142500D03*
X149887500Y-117142500D03*
X150387500Y-117142500D03*
X150887500Y-117142500D03*
X151387500Y-117142500D03*
D25*
X146415000Y-129601000D03*
X146415000Y-127701000D03*
X144415000Y-128651000D03*
D11*
X157978600Y-118719600D03*
X159978600Y-118719600D03*
D26*
X161802500Y-115506500D03*
X161802500Y-110426500D03*
X157602500Y-110426500D03*
X157602500Y-115506500D03*
D27*
X164465000Y-124841000D03*
X164465000Y-122809000D03*
D11*
X197494400Y-107543600D03*
X195494400Y-107543600D03*
D12*
X192887600Y-119446800D03*
X192887600Y-121446800D03*
X190373000Y-119999000D03*
X190373000Y-117999000D03*
X188341000Y-103743000D03*
X188341000Y-101743000D03*
D11*
X181340000Y-103505000D03*
X179340000Y-103505000D03*
X175212500Y-104965500D03*
X177212500Y-104965500D03*
D12*
X175895000Y-116221000D03*
X175895000Y-118221000D03*
D11*
X176387000Y-113919000D03*
X174387000Y-113919000D03*
D12*
X179070000Y-127651000D03*
X179070000Y-129651000D03*
D11*
X183372000Y-125603000D03*
X181372000Y-125603000D03*
D13*
X176911000Y-129351000D03*
X176911000Y-127951000D03*
D11*
X176927000Y-125603000D03*
X178927000Y-125603000D03*
D10*
G36*
X193000924Y-128778000D02*
X191516000Y-130262924D01*
X190031076Y-128778000D01*
X191516000Y-127293076D01*
X193000924Y-128778000D01*
X193000924Y-128778000D01*
G37*
D14*
X193312051Y-126981949D02*
X193312051Y-126981949D01*
X195108102Y-125185898D02*
X195108102Y-125185898D01*
X196904154Y-123389846D02*
X196904154Y-123389846D01*
X198700205Y-121593795D02*
X198700205Y-121593795D01*
X200496256Y-119797744D02*
X200496256Y-119797744D01*
D15*
X182560000Y-134050000D03*
D16*
X183940000Y-132140000D03*
X184440000Y-132140000D03*
X184940000Y-132140000D03*
X185440000Y-132140000D03*
X185940000Y-132140000D03*
X186440000Y-132140000D03*
X186940000Y-132140000D03*
X189440000Y-132140000D03*
X188440000Y-132140000D03*
X187940000Y-132140000D03*
X187440000Y-132140000D03*
X188940000Y-132140000D03*
D15*
X190820000Y-134050000D03*
X191180000Y-140000000D03*
X182200000Y-140000000D03*
D17*
X190290000Y-132800000D03*
D18*
X183090000Y-132800000D03*
X189490000Y-133450000D03*
X187890000Y-133450000D03*
X187090000Y-133450000D03*
X186290000Y-133450000D03*
X185490000Y-133450000D03*
X183890000Y-133450000D03*
X189090000Y-134150000D03*
X188290000Y-134150000D03*
X187490000Y-134150000D03*
X185890000Y-134150000D03*
X185090000Y-134150000D03*
X184290000Y-134150000D03*
D19*
X194310000Y-96520000D03*
D20*
X191770000Y-96520000D03*
X189230000Y-96520000D03*
X186690000Y-96520000D03*
X184150000Y-96520000D03*
X181610000Y-96520000D03*
X179070000Y-96520000D03*
D11*
X177714400Y-122885200D03*
X179714400Y-122885200D03*
X175879000Y-108839000D03*
X173879000Y-108839000D03*
D12*
X173101000Y-107045000D03*
X173101000Y-105045000D03*
D11*
X180610000Y-120421400D03*
X182610000Y-120421400D03*
D12*
X185216800Y-122437400D03*
X185216800Y-120437400D03*
X187045600Y-120437400D03*
X187045600Y-122437400D03*
D11*
X176673000Y-120396000D03*
X178673000Y-120396000D03*
D12*
X173812200Y-100701600D03*
X173812200Y-102701600D03*
X197688200Y-98390200D03*
X197688200Y-100390200D03*
D10*
G36*
X173917857Y-98065015D02*
X172800585Y-96498657D01*
X174366943Y-95381385D01*
X175484215Y-96947743D01*
X173917857Y-98065015D01*
X173917857Y-98065015D01*
G37*
G36*
X171859773Y-99533033D02*
X170742501Y-97966675D01*
X172940613Y-96398777D01*
X174057885Y-97965135D01*
X171859773Y-99533033D01*
X171859773Y-99533033D01*
G37*
G36*
X175344187Y-97047623D02*
X174226915Y-95481265D01*
X176425027Y-93913367D01*
X177542299Y-95479725D01*
X175344187Y-97047623D01*
X175344187Y-97047623D01*
G37*
G36*
X200554015Y-96473257D02*
X199436743Y-98039615D01*
X197870385Y-96922343D01*
X198987657Y-95355985D01*
X200554015Y-96473257D01*
X200554015Y-96473257D01*
G37*
G36*
X202612099Y-97941275D02*
X201494827Y-99507633D01*
X199296715Y-97939735D01*
X200413987Y-96373377D01*
X202612099Y-97941275D01*
X202612099Y-97941275D01*
G37*
G36*
X199127685Y-95455865D02*
X198010413Y-97022223D01*
X195812301Y-95454325D01*
X196929573Y-93887967D01*
X199127685Y-95455865D01*
X199127685Y-95455865D01*
G37*
D21*
X178648000Y-132366000D03*
X172888000Y-132366000D03*
X172888000Y-136366000D03*
X178648000Y-136366000D03*
X200492000Y-132366000D03*
X194732000Y-132366000D03*
X194732000Y-136366000D03*
X200492000Y-136366000D03*
D22*
X174625000Y-127635000D03*
X183032400Y-122174000D03*
X189179200Y-122174000D03*
X172466000Y-127635000D03*
X200914000Y-127254000D03*
X185166000Y-127889000D03*
D23*
X190167500Y-115192500D03*
X190167500Y-114692500D03*
X190167500Y-114192500D03*
X190167500Y-113692500D03*
X190167500Y-113192500D03*
X190167500Y-112692500D03*
X190167500Y-112192500D03*
X190167500Y-111692500D03*
X190167500Y-111192500D03*
X190167500Y-110692500D03*
X190167500Y-110192500D03*
X190167500Y-109692500D03*
X190167500Y-109192500D03*
X190167500Y-108692500D03*
X190167500Y-108192500D03*
X190167500Y-107692500D03*
D24*
X188217500Y-105742500D03*
X187717500Y-105742500D03*
X187217500Y-105742500D03*
X186717500Y-105742500D03*
X186217500Y-105742500D03*
X185717500Y-105742500D03*
X185217500Y-105742500D03*
X184717500Y-105742500D03*
X184217500Y-105742500D03*
X183717500Y-105742500D03*
X183217500Y-105742500D03*
X182717500Y-105742500D03*
X182217500Y-105742500D03*
X181717500Y-105742500D03*
X181217500Y-105742500D03*
X180717500Y-105742500D03*
D23*
X178767500Y-107692500D03*
X178767500Y-108192500D03*
X178767500Y-108692500D03*
X178767500Y-109192500D03*
X178767500Y-109692500D03*
X178767500Y-110192500D03*
X178767500Y-110692500D03*
X178767500Y-111192500D03*
X178767500Y-111692500D03*
X178767500Y-112192500D03*
X178767500Y-112692500D03*
X178767500Y-113192500D03*
X178767500Y-113692500D03*
X178767500Y-114192500D03*
X178767500Y-114692500D03*
X178767500Y-115192500D03*
D24*
X180717500Y-117142500D03*
X181217500Y-117142500D03*
X181717500Y-117142500D03*
X182217500Y-117142500D03*
X182717500Y-117142500D03*
X183217500Y-117142500D03*
X183717500Y-117142500D03*
X184217500Y-117142500D03*
X184717500Y-117142500D03*
X185217500Y-117142500D03*
X185717500Y-117142500D03*
X186217500Y-117142500D03*
X186717500Y-117142500D03*
X187217500Y-117142500D03*
X187717500Y-117142500D03*
X188217500Y-117142500D03*
D25*
X183245000Y-129601000D03*
X183245000Y-127701000D03*
X181245000Y-128651000D03*
D11*
X194808600Y-118719600D03*
X196808600Y-118719600D03*
D26*
X198632500Y-115506500D03*
X198632500Y-110426500D03*
X194432500Y-110426500D03*
X194432500Y-115506500D03*
D27*
X201295000Y-124841000D03*
X201295000Y-122809000D03*
D11*
X234324400Y-107543600D03*
X232324400Y-107543600D03*
D12*
X229717600Y-119446800D03*
X229717600Y-121446800D03*
X227203000Y-119999000D03*
X227203000Y-117999000D03*
X225171000Y-103743000D03*
X225171000Y-101743000D03*
D11*
X218170000Y-103505000D03*
X216170000Y-103505000D03*
X212042500Y-104965500D03*
X214042500Y-104965500D03*
D12*
X212725000Y-116221000D03*
X212725000Y-118221000D03*
D11*
X213217000Y-113919000D03*
X211217000Y-113919000D03*
D12*
X215900000Y-127651000D03*
X215900000Y-129651000D03*
D11*
X220202000Y-125603000D03*
X218202000Y-125603000D03*
D13*
X213741000Y-129351000D03*
X213741000Y-127951000D03*
D11*
X213757000Y-125603000D03*
X215757000Y-125603000D03*
D10*
G36*
X229830924Y-128778000D02*
X228346000Y-130262924D01*
X226861076Y-128778000D01*
X228346000Y-127293076D01*
X229830924Y-128778000D01*
X229830924Y-128778000D01*
G37*
D14*
X230142051Y-126981949D02*
X230142051Y-126981949D01*
X231938102Y-125185898D02*
X231938102Y-125185898D01*
X233734154Y-123389846D02*
X233734154Y-123389846D01*
X235530205Y-121593795D02*
X235530205Y-121593795D01*
X237326256Y-119797744D02*
X237326256Y-119797744D01*
D15*
X219390000Y-134050000D03*
D16*
X220770000Y-132140000D03*
X221270000Y-132140000D03*
X221770000Y-132140000D03*
X222270000Y-132140000D03*
X222770000Y-132140000D03*
X223270000Y-132140000D03*
X223770000Y-132140000D03*
X226270000Y-132140000D03*
X225270000Y-132140000D03*
X224770000Y-132140000D03*
X224270000Y-132140000D03*
X225770000Y-132140000D03*
D15*
X227650000Y-134050000D03*
X228010000Y-140000000D03*
X219030000Y-140000000D03*
D17*
X227120000Y-132800000D03*
D18*
X219920000Y-132800000D03*
X226320000Y-133450000D03*
X224720000Y-133450000D03*
X223920000Y-133450000D03*
X223120000Y-133450000D03*
X222320000Y-133450000D03*
X220720000Y-133450000D03*
X225920000Y-134150000D03*
X225120000Y-134150000D03*
X224320000Y-134150000D03*
X222720000Y-134150000D03*
X221920000Y-134150000D03*
X221120000Y-134150000D03*
D19*
X231140000Y-96520000D03*
D20*
X228600000Y-96520000D03*
X226060000Y-96520000D03*
X223520000Y-96520000D03*
X220980000Y-96520000D03*
X218440000Y-96520000D03*
X215900000Y-96520000D03*
D11*
X214544400Y-122885200D03*
X216544400Y-122885200D03*
X212709000Y-108839000D03*
X210709000Y-108839000D03*
D12*
X209931000Y-107045000D03*
X209931000Y-105045000D03*
D11*
X217440000Y-120421400D03*
X219440000Y-120421400D03*
D12*
X222046800Y-122437400D03*
X222046800Y-120437400D03*
X223875600Y-120437400D03*
X223875600Y-122437400D03*
D11*
X213503000Y-120396000D03*
X215503000Y-120396000D03*
D12*
X210642200Y-100701600D03*
X210642200Y-102701600D03*
X234518200Y-98390200D03*
X234518200Y-100390200D03*
D10*
G36*
X210747857Y-98065015D02*
X209630585Y-96498657D01*
X211196943Y-95381385D01*
X212314215Y-96947743D01*
X210747857Y-98065015D01*
X210747857Y-98065015D01*
G37*
G36*
X208689773Y-99533033D02*
X207572501Y-97966675D01*
X209770613Y-96398777D01*
X210887885Y-97965135D01*
X208689773Y-99533033D01*
X208689773Y-99533033D01*
G37*
G36*
X212174187Y-97047623D02*
X211056915Y-95481265D01*
X213255027Y-93913367D01*
X214372299Y-95479725D01*
X212174187Y-97047623D01*
X212174187Y-97047623D01*
G37*
G36*
X237384015Y-96473257D02*
X236266743Y-98039615D01*
X234700385Y-96922343D01*
X235817657Y-95355985D01*
X237384015Y-96473257D01*
X237384015Y-96473257D01*
G37*
G36*
X239442099Y-97941275D02*
X238324827Y-99507633D01*
X236126715Y-97939735D01*
X237243987Y-96373377D01*
X239442099Y-97941275D01*
X239442099Y-97941275D01*
G37*
G36*
X235957685Y-95455865D02*
X234840413Y-97022223D01*
X232642301Y-95454325D01*
X233759573Y-93887967D01*
X235957685Y-95455865D01*
X235957685Y-95455865D01*
G37*
D21*
X215478000Y-132366000D03*
X209718000Y-132366000D03*
X209718000Y-136366000D03*
X215478000Y-136366000D03*
X237322000Y-132366000D03*
X231562000Y-132366000D03*
X231562000Y-136366000D03*
X237322000Y-136366000D03*
D22*
X211455000Y-127635000D03*
X219862400Y-122174000D03*
X226009200Y-122174000D03*
X209296000Y-127635000D03*
X237744000Y-127254000D03*
X221996000Y-127889000D03*
D23*
X226997500Y-115192500D03*
X226997500Y-114692500D03*
X226997500Y-114192500D03*
X226997500Y-113692500D03*
X226997500Y-113192500D03*
X226997500Y-112692500D03*
X226997500Y-112192500D03*
X226997500Y-111692500D03*
X226997500Y-111192500D03*
X226997500Y-110692500D03*
X226997500Y-110192500D03*
X226997500Y-109692500D03*
X226997500Y-109192500D03*
X226997500Y-108692500D03*
X226997500Y-108192500D03*
X226997500Y-107692500D03*
D24*
X225047500Y-105742500D03*
X224547500Y-105742500D03*
X224047500Y-105742500D03*
X223547500Y-105742500D03*
X223047500Y-105742500D03*
X222547500Y-105742500D03*
X222047500Y-105742500D03*
X221547500Y-105742500D03*
X221047500Y-105742500D03*
X220547500Y-105742500D03*
X220047500Y-105742500D03*
X219547500Y-105742500D03*
X219047500Y-105742500D03*
X218547500Y-105742500D03*
X218047500Y-105742500D03*
X217547500Y-105742500D03*
D23*
X215597500Y-107692500D03*
X215597500Y-108192500D03*
X215597500Y-108692500D03*
X215597500Y-109192500D03*
X215597500Y-109692500D03*
X215597500Y-110192500D03*
X215597500Y-110692500D03*
X215597500Y-111192500D03*
X215597500Y-111692500D03*
X215597500Y-112192500D03*
X215597500Y-112692500D03*
X215597500Y-113192500D03*
X215597500Y-113692500D03*
X215597500Y-114192500D03*
X215597500Y-114692500D03*
X215597500Y-115192500D03*
D24*
X217547500Y-117142500D03*
X218047500Y-117142500D03*
X218547500Y-117142500D03*
X219047500Y-117142500D03*
X219547500Y-117142500D03*
X220047500Y-117142500D03*
X220547500Y-117142500D03*
X221047500Y-117142500D03*
X221547500Y-117142500D03*
X222047500Y-117142500D03*
X222547500Y-117142500D03*
X223047500Y-117142500D03*
X223547500Y-117142500D03*
X224047500Y-117142500D03*
X224547500Y-117142500D03*
X225047500Y-117142500D03*
D25*
X220075000Y-129601000D03*
X220075000Y-127701000D03*
X218075000Y-128651000D03*
D11*
X231638600Y-118719600D03*
X233638600Y-118719600D03*
D26*
X235462500Y-115506500D03*
X235462500Y-110426500D03*
X231262500Y-110426500D03*
X231262500Y-115506500D03*
D27*
X238125000Y-124841000D03*
X238125000Y-122809000D03*
M02*
