%FSLAX45Y45*%
G04 Gerber Fmt 4.5, Leading zero omitted, Abs format (unit mm)*
G04 Created by KiCad (PCBNEW 4.0.6) date Fri Nov 17 14:04:37 2017*
%MOMM*%
%LPD*%
G01*
G04 APERTURE LIST*
%ADD10C,0.127000*%
%ADD11C,0.150000*%
%ADD12C,0.200000*%
%ADD13C,0.300000*%
G04 APERTURE END LIST*
D10*
D11*
X7480300Y-8834120D02*
X7759700Y-8834120D01*
X9207500Y-8166100D02*
X9169400Y-8382000D01*
X9169400Y-8382000D02*
X8994140Y-8534400D01*
X8994140Y-8534400D02*
X8336280Y-8757920D01*
X8336280Y-8757920D02*
X8089900Y-8818880D01*
X8089900Y-8818880D02*
X7759700Y-8834120D01*
X7150100Y-8818880D02*
X7480300Y-8834120D01*
X6903720Y-8757920D02*
X7150100Y-8818880D01*
X6245860Y-8534400D02*
X6903720Y-8757920D01*
X6070600Y-8382000D02*
X6245860Y-8534400D01*
X6032500Y-8166100D02*
X6070600Y-8382000D01*
X6032500Y-4470400D02*
X6032500Y-8166100D01*
X9207500Y-4470400D02*
X9207500Y-8166100D01*
X8661400Y-4064000D02*
X6578600Y-4064000D01*
X9207500Y-4470400D02*
X9194800Y-4419600D01*
X9194800Y-4419600D02*
X9169400Y-4381500D01*
X9169400Y-4381500D02*
X9105900Y-4318000D01*
X9105900Y-4318000D02*
X8991600Y-4229100D01*
X8991600Y-4229100D02*
X8839200Y-4114800D01*
X8839200Y-4114800D02*
X8750300Y-4076700D01*
X8750300Y-4076700D02*
X8661400Y-4064000D01*
X6489700Y-4076700D02*
X6578600Y-4064000D01*
X6400800Y-4114800D02*
X6489700Y-4076700D01*
X6248400Y-4229100D02*
X6400800Y-4114800D01*
X6134100Y-4318000D02*
X6248400Y-4229100D01*
X6070600Y-4381500D02*
X6134100Y-4318000D01*
X6045200Y-4419600D02*
X6070600Y-4381500D01*
X6032500Y-4470400D02*
X6045200Y-4419600D01*
X11163300Y-8834120D02*
X11442700Y-8834120D01*
X12890500Y-8166100D02*
X12852400Y-8382000D01*
X12852400Y-8382000D02*
X12677140Y-8534400D01*
X12677140Y-8534400D02*
X12019280Y-8757920D01*
X12019280Y-8757920D02*
X11772900Y-8818880D01*
X11772900Y-8818880D02*
X11442700Y-8834120D01*
X10833100Y-8818880D02*
X11163300Y-8834120D01*
X10586720Y-8757920D02*
X10833100Y-8818880D01*
X9928860Y-8534400D02*
X10586720Y-8757920D01*
X9753600Y-8382000D02*
X9928860Y-8534400D01*
X9715500Y-8166100D02*
X9753600Y-8382000D01*
X9715500Y-4470400D02*
X9715500Y-8166100D01*
X12890500Y-4470400D02*
X12890500Y-8166100D01*
X12344400Y-4064000D02*
X10261600Y-4064000D01*
X12890500Y-4470400D02*
X12877800Y-4419600D01*
X12877800Y-4419600D02*
X12852400Y-4381500D01*
X12852400Y-4381500D02*
X12788900Y-4318000D01*
X12788900Y-4318000D02*
X12674600Y-4229100D01*
X12674600Y-4229100D02*
X12522200Y-4114800D01*
X12522200Y-4114800D02*
X12433300Y-4076700D01*
X12433300Y-4076700D02*
X12344400Y-4064000D01*
X10172700Y-4076700D02*
X10261600Y-4064000D01*
X10083800Y-4114800D02*
X10172700Y-4076700D01*
X9931400Y-4229100D02*
X10083800Y-4114800D01*
X9817100Y-4318000D02*
X9931400Y-4229100D01*
X9753600Y-4381500D02*
X9817100Y-4318000D01*
X9728200Y-4419600D02*
X9753600Y-4381500D01*
X9715500Y-4470400D02*
X9728200Y-4419600D01*
X14846300Y-8834120D02*
X15125700Y-8834120D01*
X16573500Y-8166100D02*
X16535400Y-8382000D01*
X16535400Y-8382000D02*
X16360140Y-8534400D01*
X16360140Y-8534400D02*
X15702280Y-8757920D01*
X15702280Y-8757920D02*
X15455900Y-8818880D01*
X15455900Y-8818880D02*
X15125700Y-8834120D01*
X14516100Y-8818880D02*
X14846300Y-8834120D01*
X14269720Y-8757920D02*
X14516100Y-8818880D01*
X13611860Y-8534400D02*
X14269720Y-8757920D01*
X13436600Y-8382000D02*
X13611860Y-8534400D01*
X13398500Y-8166100D02*
X13436600Y-8382000D01*
X13398500Y-4470400D02*
X13398500Y-8166100D01*
X16573500Y-4470400D02*
X16573500Y-8166100D01*
X16027400Y-4064000D02*
X13944600Y-4064000D01*
X16573500Y-4470400D02*
X16560800Y-4419600D01*
X16560800Y-4419600D02*
X16535400Y-4381500D01*
X16535400Y-4381500D02*
X16471900Y-4318000D01*
X16471900Y-4318000D02*
X16357600Y-4229100D01*
X16357600Y-4229100D02*
X16205200Y-4114800D01*
X16205200Y-4114800D02*
X16116300Y-4076700D01*
X16116300Y-4076700D02*
X16027400Y-4064000D01*
X13855700Y-4076700D02*
X13944600Y-4064000D01*
X13766800Y-4114800D02*
X13855700Y-4076700D01*
X13614400Y-4229100D02*
X13766800Y-4114800D01*
X13500100Y-4318000D02*
X13614400Y-4229100D01*
X13436600Y-4381500D02*
X13500100Y-4318000D01*
X13411200Y-4419600D02*
X13436600Y-4381500D01*
X13398500Y-4470400D02*
X13411200Y-4419600D01*
X18529300Y-8834120D02*
X18808700Y-8834120D01*
X20256500Y-8166100D02*
X20218400Y-8382000D01*
X20218400Y-8382000D02*
X20043140Y-8534400D01*
X20043140Y-8534400D02*
X19385280Y-8757920D01*
X19385280Y-8757920D02*
X19138900Y-8818880D01*
X19138900Y-8818880D02*
X18808700Y-8834120D01*
X18199100Y-8818880D02*
X18529300Y-8834120D01*
X17952720Y-8757920D02*
X18199100Y-8818880D01*
X17294860Y-8534400D02*
X17952720Y-8757920D01*
X17119600Y-8382000D02*
X17294860Y-8534400D01*
X17081500Y-8166100D02*
X17119600Y-8382000D01*
X17081500Y-4470400D02*
X17081500Y-8166100D01*
X20256500Y-4470400D02*
X20256500Y-8166100D01*
X19710400Y-4064000D02*
X17627600Y-4064000D01*
X20256500Y-4470400D02*
X20243800Y-4419600D01*
X20243800Y-4419600D02*
X20218400Y-4381500D01*
X20218400Y-4381500D02*
X20154900Y-4318000D01*
X20154900Y-4318000D02*
X20040600Y-4229100D01*
X20040600Y-4229100D02*
X19888200Y-4114800D01*
X19888200Y-4114800D02*
X19799300Y-4076700D01*
X19799300Y-4076700D02*
X19710400Y-4064000D01*
X17538700Y-4076700D02*
X17627600Y-4064000D01*
X17449800Y-4114800D02*
X17538700Y-4076700D01*
X17297400Y-4229100D02*
X17449800Y-4114800D01*
X17183100Y-4318000D02*
X17297400Y-4229100D01*
X17119600Y-4381500D02*
X17183100Y-4318000D01*
X17094200Y-4419600D02*
X17119600Y-4381500D01*
X17081500Y-4470400D02*
X17094200Y-4419600D01*
X22212300Y-8834120D02*
X22491700Y-8834120D01*
X23939500Y-8166100D02*
X23901400Y-8382000D01*
X23901400Y-8382000D02*
X23726140Y-8534400D01*
X23726140Y-8534400D02*
X23068280Y-8757920D01*
X23068280Y-8757920D02*
X22821900Y-8818880D01*
X22821900Y-8818880D02*
X22491700Y-8834120D01*
X21882100Y-8818880D02*
X22212300Y-8834120D01*
X21635720Y-8757920D02*
X21882100Y-8818880D01*
X20977860Y-8534400D02*
X21635720Y-8757920D01*
X20802600Y-8382000D02*
X20977860Y-8534400D01*
X20764500Y-8166100D02*
X20802600Y-8382000D01*
X20764500Y-4470400D02*
X20764500Y-8166100D01*
X23939500Y-4470400D02*
X23939500Y-8166100D01*
X23393400Y-4064000D02*
X21310600Y-4064000D01*
X23939500Y-4470400D02*
X23926800Y-4419600D01*
X23926800Y-4419600D02*
X23901400Y-4381500D01*
X23901400Y-4381500D02*
X23837900Y-4318000D01*
X23837900Y-4318000D02*
X23723600Y-4229100D01*
X23723600Y-4229100D02*
X23571200Y-4114800D01*
X23571200Y-4114800D02*
X23482300Y-4076700D01*
X23482300Y-4076700D02*
X23393400Y-4064000D01*
X21221700Y-4076700D02*
X21310600Y-4064000D01*
X21132800Y-4114800D02*
X21221700Y-4076700D01*
X20980400Y-4229100D02*
X21132800Y-4114800D01*
X20866100Y-4318000D02*
X20980400Y-4229100D01*
X20802600Y-4381500D02*
X20866100Y-4318000D01*
X20777200Y-4419600D02*
X20802600Y-4381500D01*
X20764500Y-4470400D02*
X20777200Y-4419600D01*
X7480300Y-14168120D02*
X7759700Y-14168120D01*
X9207500Y-13500100D02*
X9169400Y-13716000D01*
X9169400Y-13716000D02*
X8994140Y-13868400D01*
X8994140Y-13868400D02*
X8336280Y-14091920D01*
X8336280Y-14091920D02*
X8089900Y-14152880D01*
X8089900Y-14152880D02*
X7759700Y-14168120D01*
X7150100Y-14152880D02*
X7480300Y-14168120D01*
X6903720Y-14091920D02*
X7150100Y-14152880D01*
X6245860Y-13868400D02*
X6903720Y-14091920D01*
X6070600Y-13716000D02*
X6245860Y-13868400D01*
X6032500Y-13500100D02*
X6070600Y-13716000D01*
X6032500Y-9804400D02*
X6032500Y-13500100D01*
X9207500Y-9804400D02*
X9207500Y-13500100D01*
X8661400Y-9398000D02*
X6578600Y-9398000D01*
X9207500Y-9804400D02*
X9194800Y-9753600D01*
X9194800Y-9753600D02*
X9169400Y-9715500D01*
X9169400Y-9715500D02*
X9105900Y-9652000D01*
X9105900Y-9652000D02*
X8991600Y-9563100D01*
X8991600Y-9563100D02*
X8839200Y-9448800D01*
X8839200Y-9448800D02*
X8750300Y-9410700D01*
X8750300Y-9410700D02*
X8661400Y-9398000D01*
X6489700Y-9410700D02*
X6578600Y-9398000D01*
X6400800Y-9448800D02*
X6489700Y-9410700D01*
X6248400Y-9563100D02*
X6400800Y-9448800D01*
X6134100Y-9652000D02*
X6248400Y-9563100D01*
X6070600Y-9715500D02*
X6134100Y-9652000D01*
X6045200Y-9753600D02*
X6070600Y-9715500D01*
X6032500Y-9804400D02*
X6045200Y-9753600D01*
X11163300Y-14168120D02*
X11442700Y-14168120D01*
X12890500Y-13500100D02*
X12852400Y-13716000D01*
X12852400Y-13716000D02*
X12677140Y-13868400D01*
X12677140Y-13868400D02*
X12019280Y-14091920D01*
X12019280Y-14091920D02*
X11772900Y-14152880D01*
X11772900Y-14152880D02*
X11442700Y-14168120D01*
X10833100Y-14152880D02*
X11163300Y-14168120D01*
X10586720Y-14091920D02*
X10833100Y-14152880D01*
X9928860Y-13868400D02*
X10586720Y-14091920D01*
X9753600Y-13716000D02*
X9928860Y-13868400D01*
X9715500Y-13500100D02*
X9753600Y-13716000D01*
X9715500Y-9804400D02*
X9715500Y-13500100D01*
X12890500Y-9804400D02*
X12890500Y-13500100D01*
X12344400Y-9398000D02*
X10261600Y-9398000D01*
X12890500Y-9804400D02*
X12877800Y-9753600D01*
X12877800Y-9753600D02*
X12852400Y-9715500D01*
X12852400Y-9715500D02*
X12788900Y-9652000D01*
X12788900Y-9652000D02*
X12674600Y-9563100D01*
X12674600Y-9563100D02*
X12522200Y-9448800D01*
X12522200Y-9448800D02*
X12433300Y-9410700D01*
X12433300Y-9410700D02*
X12344400Y-9398000D01*
X10172700Y-9410700D02*
X10261600Y-9398000D01*
X10083800Y-9448800D02*
X10172700Y-9410700D01*
X9931400Y-9563100D02*
X10083800Y-9448800D01*
X9817100Y-9652000D02*
X9931400Y-9563100D01*
X9753600Y-9715500D02*
X9817100Y-9652000D01*
X9728200Y-9753600D02*
X9753600Y-9715500D01*
X9715500Y-9804400D02*
X9728200Y-9753600D01*
X14846300Y-14168120D02*
X15125700Y-14168120D01*
X16573500Y-13500100D02*
X16535400Y-13716000D01*
X16535400Y-13716000D02*
X16360140Y-13868400D01*
X16360140Y-13868400D02*
X15702280Y-14091920D01*
X15702280Y-14091920D02*
X15455900Y-14152880D01*
X15455900Y-14152880D02*
X15125700Y-14168120D01*
X14516100Y-14152880D02*
X14846300Y-14168120D01*
X14269720Y-14091920D02*
X14516100Y-14152880D01*
X13611860Y-13868400D02*
X14269720Y-14091920D01*
X13436600Y-13716000D02*
X13611860Y-13868400D01*
X13398500Y-13500100D02*
X13436600Y-13716000D01*
X13398500Y-9804400D02*
X13398500Y-13500100D01*
X16573500Y-9804400D02*
X16573500Y-13500100D01*
X16027400Y-9398000D02*
X13944600Y-9398000D01*
X16573500Y-9804400D02*
X16560800Y-9753600D01*
X16560800Y-9753600D02*
X16535400Y-9715500D01*
X16535400Y-9715500D02*
X16471900Y-9652000D01*
X16471900Y-9652000D02*
X16357600Y-9563100D01*
X16357600Y-9563100D02*
X16205200Y-9448800D01*
X16205200Y-9448800D02*
X16116300Y-9410700D01*
X16116300Y-9410700D02*
X16027400Y-9398000D01*
X13855700Y-9410700D02*
X13944600Y-9398000D01*
X13766800Y-9448800D02*
X13855700Y-9410700D01*
X13614400Y-9563100D02*
X13766800Y-9448800D01*
X13500100Y-9652000D02*
X13614400Y-9563100D01*
X13436600Y-9715500D02*
X13500100Y-9652000D01*
X13411200Y-9753600D02*
X13436600Y-9715500D01*
X13398500Y-9804400D02*
X13411200Y-9753600D01*
X18529300Y-14168120D02*
X18808700Y-14168120D01*
X20256500Y-13500100D02*
X20218400Y-13716000D01*
X20218400Y-13716000D02*
X20043140Y-13868400D01*
X20043140Y-13868400D02*
X19385280Y-14091920D01*
X19385280Y-14091920D02*
X19138900Y-14152880D01*
X19138900Y-14152880D02*
X18808700Y-14168120D01*
X18199100Y-14152880D02*
X18529300Y-14168120D01*
X17952720Y-14091920D02*
X18199100Y-14152880D01*
X17294860Y-13868400D02*
X17952720Y-14091920D01*
X17119600Y-13716000D02*
X17294860Y-13868400D01*
X17081500Y-13500100D02*
X17119600Y-13716000D01*
X17081500Y-9804400D02*
X17081500Y-13500100D01*
X20256500Y-9804400D02*
X20256500Y-13500100D01*
X19710400Y-9398000D02*
X17627600Y-9398000D01*
X20256500Y-9804400D02*
X20243800Y-9753600D01*
X20243800Y-9753600D02*
X20218400Y-9715500D01*
X20218400Y-9715500D02*
X20154900Y-9652000D01*
X20154900Y-9652000D02*
X20040600Y-9563100D01*
X20040600Y-9563100D02*
X19888200Y-9448800D01*
X19888200Y-9448800D02*
X19799300Y-9410700D01*
X19799300Y-9410700D02*
X19710400Y-9398000D01*
X17538700Y-9410700D02*
X17627600Y-9398000D01*
X17449800Y-9448800D02*
X17538700Y-9410700D01*
X17297400Y-9563100D02*
X17449800Y-9448800D01*
X17183100Y-9652000D02*
X17297400Y-9563100D01*
X17119600Y-9715500D02*
X17183100Y-9652000D01*
X17094200Y-9753600D02*
X17119600Y-9715500D01*
X17081500Y-9804400D02*
X17094200Y-9753600D01*
X22212300Y-14168120D02*
X22491700Y-14168120D01*
X23939500Y-13500100D02*
X23901400Y-13716000D01*
X23901400Y-13716000D02*
X23726140Y-13868400D01*
X23726140Y-13868400D02*
X23068280Y-14091920D01*
X23068280Y-14091920D02*
X22821900Y-14152880D01*
X22821900Y-14152880D02*
X22491700Y-14168120D01*
X21882100Y-14152880D02*
X22212300Y-14168120D01*
X21635720Y-14091920D02*
X21882100Y-14152880D01*
X20977860Y-13868400D02*
X21635720Y-14091920D01*
X20802600Y-13716000D02*
X20977860Y-13868400D01*
X20764500Y-13500100D02*
X20802600Y-13716000D01*
X20764500Y-9804400D02*
X20764500Y-13500100D01*
X23939500Y-9804400D02*
X23939500Y-13500100D01*
X23393400Y-9398000D02*
X21310600Y-9398000D01*
X23939500Y-9804400D02*
X23926800Y-9753600D01*
X23926800Y-9753600D02*
X23901400Y-9715500D01*
X23901400Y-9715500D02*
X23837900Y-9652000D01*
X23837900Y-9652000D02*
X23723600Y-9563100D01*
X23723600Y-9563100D02*
X23571200Y-9448800D01*
X23571200Y-9448800D02*
X23482300Y-9410700D01*
X23482300Y-9410700D02*
X23393400Y-9398000D01*
X21221700Y-9410700D02*
X21310600Y-9398000D01*
X21132800Y-9448800D02*
X21221700Y-9410700D01*
X20980400Y-9563100D02*
X21132800Y-9448800D01*
X20866100Y-9652000D02*
X20980400Y-9563100D01*
X20802600Y-9715500D02*
X20866100Y-9652000D01*
X20777200Y-9753600D02*
X20802600Y-9715500D01*
X20764500Y-9804400D02*
X20777200Y-9753600D01*
D12*
X6065840Y-5004120D02*
X6105840Y-5044120D01*
X6105840Y-5004120D02*
X6065840Y-5044120D01*
X6065840Y-10338120D02*
X6105840Y-10378120D01*
X6105840Y-10338120D02*
X6065840Y-10378120D01*
X6426520Y-4615500D02*
X6466520Y-4655500D01*
X6466520Y-4615500D02*
X6426520Y-4655500D01*
X6426520Y-9949500D02*
X6466520Y-9989500D01*
X6466520Y-9949500D02*
X6426520Y-9989500D01*
X6488750Y-4913950D02*
X6528750Y-4953950D01*
X6528750Y-4913950D02*
X6488750Y-4953950D01*
X6488750Y-10247950D02*
X6528750Y-10287950D01*
X6528750Y-10247950D02*
X6488750Y-10287950D01*
X6495100Y-6711000D02*
X6535100Y-6751000D01*
X6535100Y-6711000D02*
X6495100Y-6751000D01*
X6495100Y-12045000D02*
X6535100Y-12085000D01*
X6535100Y-12045000D02*
X6495100Y-12085000D01*
X6535740Y-5397820D02*
X6575740Y-5437820D01*
X6575740Y-5397820D02*
X6535740Y-5437820D01*
X6535740Y-10731820D02*
X6575740Y-10771820D01*
X6575740Y-10731820D02*
X6535740Y-10771820D01*
X6596700Y-6863400D02*
X6636700Y-6903400D01*
X6636700Y-6863400D02*
X6596700Y-6903400D01*
X6596700Y-12197400D02*
X6636700Y-12237400D01*
X6636700Y-12197400D02*
X6596700Y-12237400D01*
X6634800Y-5631500D02*
X6674800Y-5671500D01*
X6674800Y-5631500D02*
X6634800Y-5671500D01*
X6634800Y-10965500D02*
X6674800Y-11005500D01*
X6674800Y-10965500D02*
X6634800Y-11005500D01*
X6761800Y-6317300D02*
X6801800Y-6357300D01*
X6801800Y-6317300D02*
X6761800Y-6357300D01*
X6761800Y-11651300D02*
X6801800Y-11691300D01*
X6801800Y-11651300D02*
X6761800Y-11691300D01*
X6807520Y-5204780D02*
X6847520Y-5244780D01*
X6847520Y-5204780D02*
X6807520Y-5244780D01*
X6807520Y-10538780D02*
X6847520Y-10578780D01*
X6847520Y-10538780D02*
X6807520Y-10578780D01*
X6876100Y-4729800D02*
X6916100Y-4769800D01*
X6916100Y-4729800D02*
X6876100Y-4769800D01*
X6876100Y-10063800D02*
X6916100Y-10103800D01*
X6916100Y-10063800D02*
X6876100Y-10103800D01*
X6926900Y-6114100D02*
X6966900Y-6154100D01*
X6966900Y-6114100D02*
X6926900Y-6154100D01*
X6926900Y-11448100D02*
X6966900Y-11488100D01*
X6966900Y-11448100D02*
X6926900Y-11488100D01*
X6965000Y-5822000D02*
X7005000Y-5862000D01*
X7005000Y-5822000D02*
X6965000Y-5862000D01*
X6965000Y-11156000D02*
X7005000Y-11196000D01*
X7005000Y-11156000D02*
X6965000Y-11196000D01*
X7041200Y-6215700D02*
X7081200Y-6255700D01*
X7081200Y-6215700D02*
X7041200Y-6255700D01*
X7041200Y-11549700D02*
X7081200Y-11589700D01*
X7081200Y-11549700D02*
X7041200Y-11589700D01*
X7053900Y-6507800D02*
X7093900Y-6547800D01*
X7093900Y-6507800D02*
X7053900Y-6547800D01*
X7053900Y-11841800D02*
X7093900Y-11881800D01*
X7093900Y-11841800D02*
X7053900Y-11881800D01*
X7092000Y-5631500D02*
X7132000Y-5671500D01*
X7132000Y-5631500D02*
X7092000Y-5671500D01*
X7092000Y-5758500D02*
X7132000Y-5798500D01*
X7132000Y-5758500D02*
X7092000Y-5798500D01*
X7092000Y-10965500D02*
X7132000Y-11005500D01*
X7132000Y-10965500D02*
X7092000Y-11005500D01*
X7092000Y-11092500D02*
X7132000Y-11132500D01*
X7132000Y-11092500D02*
X7092000Y-11132500D01*
X7097080Y-7782880D02*
X7137080Y-7822880D01*
X7137080Y-7782880D02*
X7097080Y-7822880D01*
X7097080Y-13116880D02*
X7137080Y-13156880D01*
X7137080Y-13116880D02*
X7097080Y-13156880D01*
X7155500Y-5377500D02*
X7195500Y-5417500D01*
X7195500Y-5377500D02*
X7155500Y-5417500D01*
X7155500Y-10711500D02*
X7195500Y-10751500D01*
X7195500Y-10711500D02*
X7155500Y-10751500D01*
X7175820Y-4717100D02*
X7215820Y-4757100D01*
X7215820Y-4717100D02*
X7175820Y-4757100D01*
X7175820Y-10051100D02*
X7215820Y-10091100D01*
X7215820Y-10051100D02*
X7175820Y-10091100D01*
X7219000Y-5631500D02*
X7259000Y-5671500D01*
X7259000Y-5631500D02*
X7219000Y-5671500D01*
X7219000Y-5758500D02*
X7259000Y-5798500D01*
X7259000Y-5758500D02*
X7219000Y-5798500D01*
X7219000Y-10965500D02*
X7259000Y-11005500D01*
X7259000Y-10965500D02*
X7219000Y-11005500D01*
X7219000Y-11092500D02*
X7259000Y-11132500D01*
X7259000Y-11092500D02*
X7219000Y-11132500D01*
X7279960Y-7782880D02*
X7319960Y-7822880D01*
X7319960Y-7782880D02*
X7279960Y-7822880D01*
X7279960Y-13116880D02*
X7319960Y-13156880D01*
X7319960Y-13116880D02*
X7279960Y-13156880D01*
X7295200Y-6507800D02*
X7335200Y-6547800D01*
X7335200Y-6507800D02*
X7295200Y-6547800D01*
X7295200Y-11841800D02*
X7335200Y-11881800D01*
X7335200Y-11841800D02*
X7295200Y-11881800D01*
X7300280Y-5438460D02*
X7340280Y-5478460D01*
X7340280Y-5438460D02*
X7300280Y-5478460D01*
X7300280Y-10772460D02*
X7340280Y-10812460D01*
X7340280Y-10772460D02*
X7300280Y-10812460D01*
X7310440Y-6129340D02*
X7350440Y-6169340D01*
X7350440Y-6129340D02*
X7310440Y-6169340D01*
X7310440Y-11463340D02*
X7350440Y-11503340D01*
X7350440Y-11463340D02*
X7310440Y-11503340D01*
X7320000Y-7991000D02*
X7360000Y-8031000D01*
X7360000Y-7991000D02*
X7320000Y-8031000D01*
X7320000Y-13325000D02*
X7360000Y-13365000D01*
X7360000Y-13325000D02*
X7320000Y-13365000D01*
X7358700Y-4856800D02*
X7398700Y-4896800D01*
X7398700Y-4856800D02*
X7358700Y-4896800D01*
X7358700Y-10190800D02*
X7398700Y-10230800D01*
X7398700Y-10190800D02*
X7358700Y-10230800D01*
X7360000Y-8061000D02*
X7400000Y-8101000D01*
X7400000Y-8061000D02*
X7360000Y-8101000D01*
X7360000Y-13395000D02*
X7400000Y-13435000D01*
X7400000Y-13395000D02*
X7360000Y-13435000D01*
X7371400Y-7612700D02*
X7411400Y-7652700D01*
X7411400Y-7612700D02*
X7371400Y-7652700D01*
X7371400Y-12946700D02*
X7411400Y-12986700D01*
X7411400Y-12946700D02*
X7371400Y-12986700D01*
X7396800Y-6525580D02*
X7436800Y-6565580D01*
X7436800Y-6525580D02*
X7396800Y-6565580D01*
X7396800Y-11859580D02*
X7436800Y-11899580D01*
X7436800Y-11859580D02*
X7396800Y-11899580D01*
X7440000Y-8061000D02*
X7480000Y-8101000D01*
X7480000Y-8061000D02*
X7440000Y-8101000D01*
X7440000Y-13395000D02*
X7480000Y-13435000D01*
X7480000Y-13395000D02*
X7440000Y-13435000D01*
X7480000Y-7991000D02*
X7520000Y-8031000D01*
X7520000Y-7991000D02*
X7480000Y-8031000D01*
X7480000Y-13325000D02*
X7520000Y-13365000D01*
X7520000Y-13325000D02*
X7480000Y-13365000D01*
X7485700Y-6520500D02*
X7525700Y-6560500D01*
X7525700Y-6520500D02*
X7485700Y-6560500D01*
X7485700Y-11854500D02*
X7525700Y-11894500D01*
X7525700Y-11854500D02*
X7485700Y-11894500D01*
X7498400Y-6215700D02*
X7538400Y-6255700D01*
X7538400Y-6215700D02*
X7498400Y-6255700D01*
X7498400Y-11549700D02*
X7538400Y-11589700D01*
X7538400Y-11549700D02*
X7498400Y-11589700D01*
X7511100Y-6050600D02*
X7551100Y-6090600D01*
X7551100Y-6050600D02*
X7511100Y-6090600D01*
X7511100Y-11384600D02*
X7551100Y-11424600D01*
X7551100Y-11384600D02*
X7511100Y-11424600D01*
X7517450Y-7765100D02*
X7557450Y-7805100D01*
X7557450Y-7765100D02*
X7517450Y-7805100D01*
X7517450Y-13099100D02*
X7557450Y-13139100D01*
X7557450Y-13099100D02*
X7517450Y-13139100D01*
X7520000Y-8061000D02*
X7560000Y-8101000D01*
X7560000Y-8061000D02*
X7520000Y-8101000D01*
X7520000Y-13395000D02*
X7560000Y-13435000D01*
X7560000Y-13395000D02*
X7520000Y-13435000D01*
X7560000Y-7991000D02*
X7600000Y-8031000D01*
X7600000Y-7991000D02*
X7560000Y-8031000D01*
X7560000Y-13325000D02*
X7600000Y-13365000D01*
X7600000Y-13325000D02*
X7560000Y-13365000D01*
X7640000Y-7991000D02*
X7680000Y-8031000D01*
X7680000Y-7991000D02*
X7640000Y-8031000D01*
X7640000Y-13325000D02*
X7680000Y-13365000D01*
X7680000Y-13325000D02*
X7640000Y-13365000D01*
X7676200Y-6215700D02*
X7716200Y-6255700D01*
X7716200Y-6215700D02*
X7676200Y-6255700D01*
X7676200Y-11549700D02*
X7716200Y-11589700D01*
X7716200Y-11549700D02*
X7676200Y-11589700D01*
X7680000Y-8061000D02*
X7720000Y-8101000D01*
X7720000Y-8061000D02*
X7680000Y-8101000D01*
X7680000Y-13395000D02*
X7720000Y-13435000D01*
X7720000Y-13395000D02*
X7680000Y-13435000D01*
X7720000Y-7991000D02*
X7760000Y-8031000D01*
X7760000Y-7991000D02*
X7720000Y-8031000D01*
X7720000Y-13325000D02*
X7760000Y-13365000D01*
X7760000Y-13325000D02*
X7720000Y-13365000D01*
X7727000Y-7142800D02*
X7767000Y-7182800D01*
X7767000Y-7142800D02*
X7727000Y-7182800D01*
X7727000Y-12476800D02*
X7767000Y-12516800D01*
X7767000Y-12476800D02*
X7727000Y-12516800D01*
X7749860Y-4668840D02*
X7789860Y-4708840D01*
X7789860Y-4668840D02*
X7749860Y-4708840D01*
X7749860Y-10002840D02*
X7789860Y-10042840D01*
X7789860Y-10002840D02*
X7749860Y-10042840D01*
X7760000Y-8061000D02*
X7800000Y-8101000D01*
X7800000Y-8061000D02*
X7760000Y-8101000D01*
X7760000Y-13395000D02*
X7800000Y-13435000D01*
X7800000Y-13395000D02*
X7760000Y-13435000D01*
X7790500Y-5961700D02*
X7830500Y-6001700D01*
X7830500Y-5961700D02*
X7790500Y-6001700D01*
X7790500Y-11295700D02*
X7830500Y-11335700D01*
X7830500Y-11295700D02*
X7790500Y-11335700D01*
X7840000Y-8061000D02*
X7880000Y-8101000D01*
X7880000Y-8061000D02*
X7840000Y-8101000D01*
X7840000Y-13395000D02*
X7880000Y-13435000D01*
X7880000Y-13395000D02*
X7840000Y-13435000D01*
X7880000Y-7991000D02*
X7920000Y-8031000D01*
X7920000Y-7991000D02*
X7880000Y-8031000D01*
X7880000Y-13325000D02*
X7920000Y-13365000D01*
X7920000Y-13325000D02*
X7880000Y-13365000D01*
X7909880Y-4978720D02*
X7949880Y-5018720D01*
X7949880Y-4978720D02*
X7909880Y-5018720D01*
X7909880Y-10312720D02*
X7949880Y-10352720D01*
X7949880Y-10312720D02*
X7909880Y-10352720D01*
X8041960Y-6906580D02*
X8081960Y-6946580D01*
X8081960Y-6906580D02*
X8041960Y-6946580D01*
X8041960Y-12240580D02*
X8081960Y-12280580D01*
X8081960Y-12240580D02*
X8041960Y-12280580D01*
X8120700Y-5568000D02*
X8160700Y-5608000D01*
X8160700Y-5568000D02*
X8120700Y-5608000D01*
X8120700Y-10902000D02*
X8160700Y-10942000D01*
X8160700Y-10902000D02*
X8120700Y-10942000D01*
X8207060Y-6911660D02*
X8247060Y-6951660D01*
X8247060Y-6911660D02*
X8207060Y-6951660D01*
X8207060Y-12245660D02*
X8247060Y-12285660D01*
X8247060Y-12245660D02*
X8207060Y-12285660D01*
X9748840Y-5004120D02*
X9788840Y-5044120D01*
X9788840Y-5004120D02*
X9748840Y-5044120D01*
X9748840Y-10338120D02*
X9788840Y-10378120D01*
X9788840Y-10338120D02*
X9748840Y-10378120D01*
X10109520Y-4615500D02*
X10149520Y-4655500D01*
X10149520Y-4615500D02*
X10109520Y-4655500D01*
X10109520Y-9949500D02*
X10149520Y-9989500D01*
X10149520Y-9949500D02*
X10109520Y-9989500D01*
X10171750Y-4913950D02*
X10211750Y-4953950D01*
X10211750Y-4913950D02*
X10171750Y-4953950D01*
X10171750Y-10247950D02*
X10211750Y-10287950D01*
X10211750Y-10247950D02*
X10171750Y-10287950D01*
X10178100Y-6711000D02*
X10218100Y-6751000D01*
X10218100Y-6711000D02*
X10178100Y-6751000D01*
X10178100Y-12045000D02*
X10218100Y-12085000D01*
X10218100Y-12045000D02*
X10178100Y-12085000D01*
X10218740Y-5397820D02*
X10258740Y-5437820D01*
X10258740Y-5397820D02*
X10218740Y-5437820D01*
X10218740Y-10731820D02*
X10258740Y-10771820D01*
X10258740Y-10731820D02*
X10218740Y-10771820D01*
X10279700Y-6863400D02*
X10319700Y-6903400D01*
X10319700Y-6863400D02*
X10279700Y-6903400D01*
X10279700Y-12197400D02*
X10319700Y-12237400D01*
X10319700Y-12197400D02*
X10279700Y-12237400D01*
X10317800Y-5631500D02*
X10357800Y-5671500D01*
X10357800Y-5631500D02*
X10317800Y-5671500D01*
X10317800Y-10965500D02*
X10357800Y-11005500D01*
X10357800Y-10965500D02*
X10317800Y-11005500D01*
X10444800Y-6317300D02*
X10484800Y-6357300D01*
X10484800Y-6317300D02*
X10444800Y-6357300D01*
X10444800Y-11651300D02*
X10484800Y-11691300D01*
X10484800Y-11651300D02*
X10444800Y-11691300D01*
X10490520Y-5204780D02*
X10530520Y-5244780D01*
X10530520Y-5204780D02*
X10490520Y-5244780D01*
X10490520Y-10538780D02*
X10530520Y-10578780D01*
X10530520Y-10538780D02*
X10490520Y-10578780D01*
X10559100Y-4729800D02*
X10599100Y-4769800D01*
X10599100Y-4729800D02*
X10559100Y-4769800D01*
X10559100Y-10063800D02*
X10599100Y-10103800D01*
X10599100Y-10063800D02*
X10559100Y-10103800D01*
X10609900Y-6114100D02*
X10649900Y-6154100D01*
X10649900Y-6114100D02*
X10609900Y-6154100D01*
X10609900Y-11448100D02*
X10649900Y-11488100D01*
X10649900Y-11448100D02*
X10609900Y-11488100D01*
X10648000Y-5822000D02*
X10688000Y-5862000D01*
X10688000Y-5822000D02*
X10648000Y-5862000D01*
X10648000Y-11156000D02*
X10688000Y-11196000D01*
X10688000Y-11156000D02*
X10648000Y-11196000D01*
X10724200Y-6215700D02*
X10764200Y-6255700D01*
X10764200Y-6215700D02*
X10724200Y-6255700D01*
X10724200Y-11549700D02*
X10764200Y-11589700D01*
X10764200Y-11549700D02*
X10724200Y-11589700D01*
X10736900Y-6507800D02*
X10776900Y-6547800D01*
X10776900Y-6507800D02*
X10736900Y-6547800D01*
X10736900Y-11841800D02*
X10776900Y-11881800D01*
X10776900Y-11841800D02*
X10736900Y-11881800D01*
X10775000Y-5631500D02*
X10815000Y-5671500D01*
X10815000Y-5631500D02*
X10775000Y-5671500D01*
X10775000Y-5758500D02*
X10815000Y-5798500D01*
X10815000Y-5758500D02*
X10775000Y-5798500D01*
X10775000Y-10965500D02*
X10815000Y-11005500D01*
X10815000Y-10965500D02*
X10775000Y-11005500D01*
X10775000Y-11092500D02*
X10815000Y-11132500D01*
X10815000Y-11092500D02*
X10775000Y-11132500D01*
X10780080Y-7782880D02*
X10820080Y-7822880D01*
X10820080Y-7782880D02*
X10780080Y-7822880D01*
X10780080Y-13116880D02*
X10820080Y-13156880D01*
X10820080Y-13116880D02*
X10780080Y-13156880D01*
X10838500Y-5377500D02*
X10878500Y-5417500D01*
X10878500Y-5377500D02*
X10838500Y-5417500D01*
X10838500Y-10711500D02*
X10878500Y-10751500D01*
X10878500Y-10711500D02*
X10838500Y-10751500D01*
X10858820Y-4717100D02*
X10898820Y-4757100D01*
X10898820Y-4717100D02*
X10858820Y-4757100D01*
X10858820Y-10051100D02*
X10898820Y-10091100D01*
X10898820Y-10051100D02*
X10858820Y-10091100D01*
X10902000Y-5631500D02*
X10942000Y-5671500D01*
X10942000Y-5631500D02*
X10902000Y-5671500D01*
X10902000Y-5758500D02*
X10942000Y-5798500D01*
X10942000Y-5758500D02*
X10902000Y-5798500D01*
X10902000Y-10965500D02*
X10942000Y-11005500D01*
X10942000Y-10965500D02*
X10902000Y-11005500D01*
X10902000Y-11092500D02*
X10942000Y-11132500D01*
X10942000Y-11092500D02*
X10902000Y-11132500D01*
X10962960Y-7782880D02*
X11002960Y-7822880D01*
X11002960Y-7782880D02*
X10962960Y-7822880D01*
X10962960Y-13116880D02*
X11002960Y-13156880D01*
X11002960Y-13116880D02*
X10962960Y-13156880D01*
X10978200Y-6507800D02*
X11018200Y-6547800D01*
X11018200Y-6507800D02*
X10978200Y-6547800D01*
X10978200Y-11841800D02*
X11018200Y-11881800D01*
X11018200Y-11841800D02*
X10978200Y-11881800D01*
X10983280Y-5438460D02*
X11023280Y-5478460D01*
X11023280Y-5438460D02*
X10983280Y-5478460D01*
X10983280Y-10772460D02*
X11023280Y-10812460D01*
X11023280Y-10772460D02*
X10983280Y-10812460D01*
X10993440Y-6129340D02*
X11033440Y-6169340D01*
X11033440Y-6129340D02*
X10993440Y-6169340D01*
X10993440Y-11463340D02*
X11033440Y-11503340D01*
X11033440Y-11463340D02*
X10993440Y-11503340D01*
X11003000Y-7991000D02*
X11043000Y-8031000D01*
X11043000Y-7991000D02*
X11003000Y-8031000D01*
X11003000Y-13325000D02*
X11043000Y-13365000D01*
X11043000Y-13325000D02*
X11003000Y-13365000D01*
X11041700Y-4856800D02*
X11081700Y-4896800D01*
X11081700Y-4856800D02*
X11041700Y-4896800D01*
X11041700Y-10190800D02*
X11081700Y-10230800D01*
X11081700Y-10190800D02*
X11041700Y-10230800D01*
X11043000Y-8061000D02*
X11083000Y-8101000D01*
X11083000Y-8061000D02*
X11043000Y-8101000D01*
X11043000Y-13395000D02*
X11083000Y-13435000D01*
X11083000Y-13395000D02*
X11043000Y-13435000D01*
X11054400Y-7612700D02*
X11094400Y-7652700D01*
X11094400Y-7612700D02*
X11054400Y-7652700D01*
X11054400Y-12946700D02*
X11094400Y-12986700D01*
X11094400Y-12946700D02*
X11054400Y-12986700D01*
X11079800Y-6525580D02*
X11119800Y-6565580D01*
X11119800Y-6525580D02*
X11079800Y-6565580D01*
X11079800Y-11859580D02*
X11119800Y-11899580D01*
X11119800Y-11859580D02*
X11079800Y-11899580D01*
X11123000Y-8061000D02*
X11163000Y-8101000D01*
X11163000Y-8061000D02*
X11123000Y-8101000D01*
X11123000Y-13395000D02*
X11163000Y-13435000D01*
X11163000Y-13395000D02*
X11123000Y-13435000D01*
X11163000Y-7991000D02*
X11203000Y-8031000D01*
X11203000Y-7991000D02*
X11163000Y-8031000D01*
X11163000Y-13325000D02*
X11203000Y-13365000D01*
X11203000Y-13325000D02*
X11163000Y-13365000D01*
X11168700Y-6520500D02*
X11208700Y-6560500D01*
X11208700Y-6520500D02*
X11168700Y-6560500D01*
X11168700Y-11854500D02*
X11208700Y-11894500D01*
X11208700Y-11854500D02*
X11168700Y-11894500D01*
X11181400Y-6215700D02*
X11221400Y-6255700D01*
X11221400Y-6215700D02*
X11181400Y-6255700D01*
X11181400Y-11549700D02*
X11221400Y-11589700D01*
X11221400Y-11549700D02*
X11181400Y-11589700D01*
X11194100Y-6050600D02*
X11234100Y-6090600D01*
X11234100Y-6050600D02*
X11194100Y-6090600D01*
X11194100Y-11384600D02*
X11234100Y-11424600D01*
X11234100Y-11384600D02*
X11194100Y-11424600D01*
X11200450Y-7765100D02*
X11240450Y-7805100D01*
X11240450Y-7765100D02*
X11200450Y-7805100D01*
X11200450Y-13099100D02*
X11240450Y-13139100D01*
X11240450Y-13099100D02*
X11200450Y-13139100D01*
X11203000Y-8061000D02*
X11243000Y-8101000D01*
X11243000Y-8061000D02*
X11203000Y-8101000D01*
X11203000Y-13395000D02*
X11243000Y-13435000D01*
X11243000Y-13395000D02*
X11203000Y-13435000D01*
X11243000Y-7991000D02*
X11283000Y-8031000D01*
X11283000Y-7991000D02*
X11243000Y-8031000D01*
X11243000Y-13325000D02*
X11283000Y-13365000D01*
X11283000Y-13325000D02*
X11243000Y-13365000D01*
X11323000Y-7991000D02*
X11363000Y-8031000D01*
X11363000Y-7991000D02*
X11323000Y-8031000D01*
X11323000Y-13325000D02*
X11363000Y-13365000D01*
X11363000Y-13325000D02*
X11323000Y-13365000D01*
X11359200Y-6215700D02*
X11399200Y-6255700D01*
X11399200Y-6215700D02*
X11359200Y-6255700D01*
X11359200Y-11549700D02*
X11399200Y-11589700D01*
X11399200Y-11549700D02*
X11359200Y-11589700D01*
X11363000Y-8061000D02*
X11403000Y-8101000D01*
X11403000Y-8061000D02*
X11363000Y-8101000D01*
X11363000Y-13395000D02*
X11403000Y-13435000D01*
X11403000Y-13395000D02*
X11363000Y-13435000D01*
X11403000Y-7991000D02*
X11443000Y-8031000D01*
X11443000Y-7991000D02*
X11403000Y-8031000D01*
X11403000Y-13325000D02*
X11443000Y-13365000D01*
X11443000Y-13325000D02*
X11403000Y-13365000D01*
X11410000Y-7142800D02*
X11450000Y-7182800D01*
X11450000Y-7142800D02*
X11410000Y-7182800D01*
X11410000Y-12476800D02*
X11450000Y-12516800D01*
X11450000Y-12476800D02*
X11410000Y-12516800D01*
X11432860Y-4668840D02*
X11472860Y-4708840D01*
X11472860Y-4668840D02*
X11432860Y-4708840D01*
X11432860Y-10002840D02*
X11472860Y-10042840D01*
X11472860Y-10002840D02*
X11432860Y-10042840D01*
X11443000Y-8061000D02*
X11483000Y-8101000D01*
X11483000Y-8061000D02*
X11443000Y-8101000D01*
X11443000Y-13395000D02*
X11483000Y-13435000D01*
X11483000Y-13395000D02*
X11443000Y-13435000D01*
X11473500Y-5961700D02*
X11513500Y-6001700D01*
X11513500Y-5961700D02*
X11473500Y-6001700D01*
X11473500Y-11295700D02*
X11513500Y-11335700D01*
X11513500Y-11295700D02*
X11473500Y-11335700D01*
X11523000Y-8061000D02*
X11563000Y-8101000D01*
X11563000Y-8061000D02*
X11523000Y-8101000D01*
X11523000Y-13395000D02*
X11563000Y-13435000D01*
X11563000Y-13395000D02*
X11523000Y-13435000D01*
X11563000Y-7991000D02*
X11603000Y-8031000D01*
X11603000Y-7991000D02*
X11563000Y-8031000D01*
X11563000Y-13325000D02*
X11603000Y-13365000D01*
X11603000Y-13325000D02*
X11563000Y-13365000D01*
X11592880Y-4978720D02*
X11632880Y-5018720D01*
X11632880Y-4978720D02*
X11592880Y-5018720D01*
X11592880Y-10312720D02*
X11632880Y-10352720D01*
X11632880Y-10312720D02*
X11592880Y-10352720D01*
X11724960Y-6906580D02*
X11764960Y-6946580D01*
X11764960Y-6906580D02*
X11724960Y-6946580D01*
X11724960Y-12240580D02*
X11764960Y-12280580D01*
X11764960Y-12240580D02*
X11724960Y-12280580D01*
X11803700Y-5568000D02*
X11843700Y-5608000D01*
X11843700Y-5568000D02*
X11803700Y-5608000D01*
X11803700Y-10902000D02*
X11843700Y-10942000D01*
X11843700Y-10902000D02*
X11803700Y-10942000D01*
X11890060Y-6911660D02*
X11930060Y-6951660D01*
X11930060Y-6911660D02*
X11890060Y-6951660D01*
X11890060Y-12245660D02*
X11930060Y-12285660D01*
X11930060Y-12245660D02*
X11890060Y-12285660D01*
X13431840Y-5004120D02*
X13471840Y-5044120D01*
X13471840Y-5004120D02*
X13431840Y-5044120D01*
X13431840Y-10338120D02*
X13471840Y-10378120D01*
X13471840Y-10338120D02*
X13431840Y-10378120D01*
X13792520Y-4615500D02*
X13832520Y-4655500D01*
X13832520Y-4615500D02*
X13792520Y-4655500D01*
X13792520Y-9949500D02*
X13832520Y-9989500D01*
X13832520Y-9949500D02*
X13792520Y-9989500D01*
X13854750Y-4913950D02*
X13894750Y-4953950D01*
X13894750Y-4913950D02*
X13854750Y-4953950D01*
X13854750Y-10247950D02*
X13894750Y-10287950D01*
X13894750Y-10247950D02*
X13854750Y-10287950D01*
X13861100Y-6711000D02*
X13901100Y-6751000D01*
X13901100Y-6711000D02*
X13861100Y-6751000D01*
X13861100Y-12045000D02*
X13901100Y-12085000D01*
X13901100Y-12045000D02*
X13861100Y-12085000D01*
X13901740Y-5397820D02*
X13941740Y-5437820D01*
X13941740Y-5397820D02*
X13901740Y-5437820D01*
X13901740Y-10731820D02*
X13941740Y-10771820D01*
X13941740Y-10731820D02*
X13901740Y-10771820D01*
X13962700Y-6863400D02*
X14002700Y-6903400D01*
X14002700Y-6863400D02*
X13962700Y-6903400D01*
X13962700Y-12197400D02*
X14002700Y-12237400D01*
X14002700Y-12197400D02*
X13962700Y-12237400D01*
X14000800Y-5631500D02*
X14040800Y-5671500D01*
X14040800Y-5631500D02*
X14000800Y-5671500D01*
X14000800Y-10965500D02*
X14040800Y-11005500D01*
X14040800Y-10965500D02*
X14000800Y-11005500D01*
X14127800Y-6317300D02*
X14167800Y-6357300D01*
X14167800Y-6317300D02*
X14127800Y-6357300D01*
X14127800Y-11651300D02*
X14167800Y-11691300D01*
X14167800Y-11651300D02*
X14127800Y-11691300D01*
X14173520Y-5204780D02*
X14213520Y-5244780D01*
X14213520Y-5204780D02*
X14173520Y-5244780D01*
X14173520Y-10538780D02*
X14213520Y-10578780D01*
X14213520Y-10538780D02*
X14173520Y-10578780D01*
X14242100Y-4729800D02*
X14282100Y-4769800D01*
X14282100Y-4729800D02*
X14242100Y-4769800D01*
X14242100Y-10063800D02*
X14282100Y-10103800D01*
X14282100Y-10063800D02*
X14242100Y-10103800D01*
X14292900Y-6114100D02*
X14332900Y-6154100D01*
X14332900Y-6114100D02*
X14292900Y-6154100D01*
X14292900Y-11448100D02*
X14332900Y-11488100D01*
X14332900Y-11448100D02*
X14292900Y-11488100D01*
X14331000Y-5822000D02*
X14371000Y-5862000D01*
X14371000Y-5822000D02*
X14331000Y-5862000D01*
X14331000Y-11156000D02*
X14371000Y-11196000D01*
X14371000Y-11156000D02*
X14331000Y-11196000D01*
X14407200Y-6215700D02*
X14447200Y-6255700D01*
X14447200Y-6215700D02*
X14407200Y-6255700D01*
X14407200Y-11549700D02*
X14447200Y-11589700D01*
X14447200Y-11549700D02*
X14407200Y-11589700D01*
X14419900Y-6507800D02*
X14459900Y-6547800D01*
X14459900Y-6507800D02*
X14419900Y-6547800D01*
X14419900Y-11841800D02*
X14459900Y-11881800D01*
X14459900Y-11841800D02*
X14419900Y-11881800D01*
X14458000Y-5631500D02*
X14498000Y-5671500D01*
X14498000Y-5631500D02*
X14458000Y-5671500D01*
X14458000Y-5758500D02*
X14498000Y-5798500D01*
X14498000Y-5758500D02*
X14458000Y-5798500D01*
X14458000Y-10965500D02*
X14498000Y-11005500D01*
X14498000Y-10965500D02*
X14458000Y-11005500D01*
X14458000Y-11092500D02*
X14498000Y-11132500D01*
X14498000Y-11092500D02*
X14458000Y-11132500D01*
X14463080Y-7782880D02*
X14503080Y-7822880D01*
X14503080Y-7782880D02*
X14463080Y-7822880D01*
X14463080Y-13116880D02*
X14503080Y-13156880D01*
X14503080Y-13116880D02*
X14463080Y-13156880D01*
X14521500Y-5377500D02*
X14561500Y-5417500D01*
X14561500Y-5377500D02*
X14521500Y-5417500D01*
X14521500Y-10711500D02*
X14561500Y-10751500D01*
X14561500Y-10711500D02*
X14521500Y-10751500D01*
X14541820Y-4717100D02*
X14581820Y-4757100D01*
X14581820Y-4717100D02*
X14541820Y-4757100D01*
X14541820Y-10051100D02*
X14581820Y-10091100D01*
X14581820Y-10051100D02*
X14541820Y-10091100D01*
X14585000Y-5631500D02*
X14625000Y-5671500D01*
X14625000Y-5631500D02*
X14585000Y-5671500D01*
X14585000Y-5758500D02*
X14625000Y-5798500D01*
X14625000Y-5758500D02*
X14585000Y-5798500D01*
X14585000Y-10965500D02*
X14625000Y-11005500D01*
X14625000Y-10965500D02*
X14585000Y-11005500D01*
X14585000Y-11092500D02*
X14625000Y-11132500D01*
X14625000Y-11092500D02*
X14585000Y-11132500D01*
X14645960Y-7782880D02*
X14685960Y-7822880D01*
X14685960Y-7782880D02*
X14645960Y-7822880D01*
X14645960Y-13116880D02*
X14685960Y-13156880D01*
X14685960Y-13116880D02*
X14645960Y-13156880D01*
X14661200Y-6507800D02*
X14701200Y-6547800D01*
X14701200Y-6507800D02*
X14661200Y-6547800D01*
X14661200Y-11841800D02*
X14701200Y-11881800D01*
X14701200Y-11841800D02*
X14661200Y-11881800D01*
X14666280Y-5438460D02*
X14706280Y-5478460D01*
X14706280Y-5438460D02*
X14666280Y-5478460D01*
X14666280Y-10772460D02*
X14706280Y-10812460D01*
X14706280Y-10772460D02*
X14666280Y-10812460D01*
X14676440Y-6129340D02*
X14716440Y-6169340D01*
X14716440Y-6129340D02*
X14676440Y-6169340D01*
X14676440Y-11463340D02*
X14716440Y-11503340D01*
X14716440Y-11463340D02*
X14676440Y-11503340D01*
X14686000Y-7991000D02*
X14726000Y-8031000D01*
X14726000Y-7991000D02*
X14686000Y-8031000D01*
X14686000Y-13325000D02*
X14726000Y-13365000D01*
X14726000Y-13325000D02*
X14686000Y-13365000D01*
X14724700Y-4856800D02*
X14764700Y-4896800D01*
X14764700Y-4856800D02*
X14724700Y-4896800D01*
X14724700Y-10190800D02*
X14764700Y-10230800D01*
X14764700Y-10190800D02*
X14724700Y-10230800D01*
X14726000Y-8061000D02*
X14766000Y-8101000D01*
X14766000Y-8061000D02*
X14726000Y-8101000D01*
X14726000Y-13395000D02*
X14766000Y-13435000D01*
X14766000Y-13395000D02*
X14726000Y-13435000D01*
X14737400Y-7612700D02*
X14777400Y-7652700D01*
X14777400Y-7612700D02*
X14737400Y-7652700D01*
X14737400Y-12946700D02*
X14777400Y-12986700D01*
X14777400Y-12946700D02*
X14737400Y-12986700D01*
X14762800Y-6525580D02*
X14802800Y-6565580D01*
X14802800Y-6525580D02*
X14762800Y-6565580D01*
X14762800Y-11859580D02*
X14802800Y-11899580D01*
X14802800Y-11859580D02*
X14762800Y-11899580D01*
X14806000Y-8061000D02*
X14846000Y-8101000D01*
X14846000Y-8061000D02*
X14806000Y-8101000D01*
X14806000Y-13395000D02*
X14846000Y-13435000D01*
X14846000Y-13395000D02*
X14806000Y-13435000D01*
X14846000Y-7991000D02*
X14886000Y-8031000D01*
X14886000Y-7991000D02*
X14846000Y-8031000D01*
X14846000Y-13325000D02*
X14886000Y-13365000D01*
X14886000Y-13325000D02*
X14846000Y-13365000D01*
X14851700Y-6520500D02*
X14891700Y-6560500D01*
X14891700Y-6520500D02*
X14851700Y-6560500D01*
X14851700Y-11854500D02*
X14891700Y-11894500D01*
X14891700Y-11854500D02*
X14851700Y-11894500D01*
X14864400Y-6215700D02*
X14904400Y-6255700D01*
X14904400Y-6215700D02*
X14864400Y-6255700D01*
X14864400Y-11549700D02*
X14904400Y-11589700D01*
X14904400Y-11549700D02*
X14864400Y-11589700D01*
X14877100Y-6050600D02*
X14917100Y-6090600D01*
X14917100Y-6050600D02*
X14877100Y-6090600D01*
X14877100Y-11384600D02*
X14917100Y-11424600D01*
X14917100Y-11384600D02*
X14877100Y-11424600D01*
X14883450Y-7765100D02*
X14923450Y-7805100D01*
X14923450Y-7765100D02*
X14883450Y-7805100D01*
X14883450Y-13099100D02*
X14923450Y-13139100D01*
X14923450Y-13099100D02*
X14883450Y-13139100D01*
X14886000Y-8061000D02*
X14926000Y-8101000D01*
X14926000Y-8061000D02*
X14886000Y-8101000D01*
X14886000Y-13395000D02*
X14926000Y-13435000D01*
X14926000Y-13395000D02*
X14886000Y-13435000D01*
X14926000Y-7991000D02*
X14966000Y-8031000D01*
X14966000Y-7991000D02*
X14926000Y-8031000D01*
X14926000Y-13325000D02*
X14966000Y-13365000D01*
X14966000Y-13325000D02*
X14926000Y-13365000D01*
X15006000Y-7991000D02*
X15046000Y-8031000D01*
X15046000Y-7991000D02*
X15006000Y-8031000D01*
X15006000Y-13325000D02*
X15046000Y-13365000D01*
X15046000Y-13325000D02*
X15006000Y-13365000D01*
X15042200Y-6215700D02*
X15082200Y-6255700D01*
X15082200Y-6215700D02*
X15042200Y-6255700D01*
X15042200Y-11549700D02*
X15082200Y-11589700D01*
X15082200Y-11549700D02*
X15042200Y-11589700D01*
X15046000Y-8061000D02*
X15086000Y-8101000D01*
X15086000Y-8061000D02*
X15046000Y-8101000D01*
X15046000Y-13395000D02*
X15086000Y-13435000D01*
X15086000Y-13395000D02*
X15046000Y-13435000D01*
X15086000Y-7991000D02*
X15126000Y-8031000D01*
X15126000Y-7991000D02*
X15086000Y-8031000D01*
X15086000Y-13325000D02*
X15126000Y-13365000D01*
X15126000Y-13325000D02*
X15086000Y-13365000D01*
X15093000Y-7142800D02*
X15133000Y-7182800D01*
X15133000Y-7142800D02*
X15093000Y-7182800D01*
X15093000Y-12476800D02*
X15133000Y-12516800D01*
X15133000Y-12476800D02*
X15093000Y-12516800D01*
X15115860Y-4668840D02*
X15155860Y-4708840D01*
X15155860Y-4668840D02*
X15115860Y-4708840D01*
X15115860Y-10002840D02*
X15155860Y-10042840D01*
X15155860Y-10002840D02*
X15115860Y-10042840D01*
X15126000Y-8061000D02*
X15166000Y-8101000D01*
X15166000Y-8061000D02*
X15126000Y-8101000D01*
X15126000Y-13395000D02*
X15166000Y-13435000D01*
X15166000Y-13395000D02*
X15126000Y-13435000D01*
X15156500Y-5961700D02*
X15196500Y-6001700D01*
X15196500Y-5961700D02*
X15156500Y-6001700D01*
X15156500Y-11295700D02*
X15196500Y-11335700D01*
X15196500Y-11295700D02*
X15156500Y-11335700D01*
X15206000Y-8061000D02*
X15246000Y-8101000D01*
X15246000Y-8061000D02*
X15206000Y-8101000D01*
X15206000Y-13395000D02*
X15246000Y-13435000D01*
X15246000Y-13395000D02*
X15206000Y-13435000D01*
X15246000Y-7991000D02*
X15286000Y-8031000D01*
X15286000Y-7991000D02*
X15246000Y-8031000D01*
X15246000Y-13325000D02*
X15286000Y-13365000D01*
X15286000Y-13325000D02*
X15246000Y-13365000D01*
X15275880Y-4978720D02*
X15315880Y-5018720D01*
X15315880Y-4978720D02*
X15275880Y-5018720D01*
X15275880Y-10312720D02*
X15315880Y-10352720D01*
X15315880Y-10312720D02*
X15275880Y-10352720D01*
X15407960Y-6906580D02*
X15447960Y-6946580D01*
X15447960Y-6906580D02*
X15407960Y-6946580D01*
X15407960Y-12240580D02*
X15447960Y-12280580D01*
X15447960Y-12240580D02*
X15407960Y-12280580D01*
X15486700Y-5568000D02*
X15526700Y-5608000D01*
X15526700Y-5568000D02*
X15486700Y-5608000D01*
X15486700Y-10902000D02*
X15526700Y-10942000D01*
X15526700Y-10902000D02*
X15486700Y-10942000D01*
X15573060Y-6911660D02*
X15613060Y-6951660D01*
X15613060Y-6911660D02*
X15573060Y-6951660D01*
X15573060Y-12245660D02*
X15613060Y-12285660D01*
X15613060Y-12245660D02*
X15573060Y-12285660D01*
X17114840Y-5004120D02*
X17154840Y-5044120D01*
X17154840Y-5004120D02*
X17114840Y-5044120D01*
X17114840Y-10338120D02*
X17154840Y-10378120D01*
X17154840Y-10338120D02*
X17114840Y-10378120D01*
X17475520Y-4615500D02*
X17515520Y-4655500D01*
X17515520Y-4615500D02*
X17475520Y-4655500D01*
X17475520Y-9949500D02*
X17515520Y-9989500D01*
X17515520Y-9949500D02*
X17475520Y-9989500D01*
X17537750Y-4913950D02*
X17577750Y-4953950D01*
X17577750Y-4913950D02*
X17537750Y-4953950D01*
X17537750Y-10247950D02*
X17577750Y-10287950D01*
X17577750Y-10247950D02*
X17537750Y-10287950D01*
X17544100Y-6711000D02*
X17584100Y-6751000D01*
X17584100Y-6711000D02*
X17544100Y-6751000D01*
X17544100Y-12045000D02*
X17584100Y-12085000D01*
X17584100Y-12045000D02*
X17544100Y-12085000D01*
X17584740Y-5397820D02*
X17624740Y-5437820D01*
X17624740Y-5397820D02*
X17584740Y-5437820D01*
X17584740Y-10731820D02*
X17624740Y-10771820D01*
X17624740Y-10731820D02*
X17584740Y-10771820D01*
X17645700Y-6863400D02*
X17685700Y-6903400D01*
X17685700Y-6863400D02*
X17645700Y-6903400D01*
X17645700Y-12197400D02*
X17685700Y-12237400D01*
X17685700Y-12197400D02*
X17645700Y-12237400D01*
X17683800Y-5631500D02*
X17723800Y-5671500D01*
X17723800Y-5631500D02*
X17683800Y-5671500D01*
X17683800Y-10965500D02*
X17723800Y-11005500D01*
X17723800Y-10965500D02*
X17683800Y-11005500D01*
X17810800Y-6317300D02*
X17850800Y-6357300D01*
X17850800Y-6317300D02*
X17810800Y-6357300D01*
X17810800Y-11651300D02*
X17850800Y-11691300D01*
X17850800Y-11651300D02*
X17810800Y-11691300D01*
X17856520Y-5204780D02*
X17896520Y-5244780D01*
X17896520Y-5204780D02*
X17856520Y-5244780D01*
X17856520Y-10538780D02*
X17896520Y-10578780D01*
X17896520Y-10538780D02*
X17856520Y-10578780D01*
X17925100Y-4729800D02*
X17965100Y-4769800D01*
X17965100Y-4729800D02*
X17925100Y-4769800D01*
X17925100Y-10063800D02*
X17965100Y-10103800D01*
X17965100Y-10063800D02*
X17925100Y-10103800D01*
X17975900Y-6114100D02*
X18015900Y-6154100D01*
X18015900Y-6114100D02*
X17975900Y-6154100D01*
X17975900Y-11448100D02*
X18015900Y-11488100D01*
X18015900Y-11448100D02*
X17975900Y-11488100D01*
X18014000Y-5822000D02*
X18054000Y-5862000D01*
X18054000Y-5822000D02*
X18014000Y-5862000D01*
X18014000Y-11156000D02*
X18054000Y-11196000D01*
X18054000Y-11156000D02*
X18014000Y-11196000D01*
X18090200Y-6215700D02*
X18130200Y-6255700D01*
X18130200Y-6215700D02*
X18090200Y-6255700D01*
X18090200Y-11549700D02*
X18130200Y-11589700D01*
X18130200Y-11549700D02*
X18090200Y-11589700D01*
X18102900Y-6507800D02*
X18142900Y-6547800D01*
X18142900Y-6507800D02*
X18102900Y-6547800D01*
X18102900Y-11841800D02*
X18142900Y-11881800D01*
X18142900Y-11841800D02*
X18102900Y-11881800D01*
X18141000Y-5631500D02*
X18181000Y-5671500D01*
X18181000Y-5631500D02*
X18141000Y-5671500D01*
X18141000Y-5758500D02*
X18181000Y-5798500D01*
X18181000Y-5758500D02*
X18141000Y-5798500D01*
X18141000Y-10965500D02*
X18181000Y-11005500D01*
X18181000Y-10965500D02*
X18141000Y-11005500D01*
X18141000Y-11092500D02*
X18181000Y-11132500D01*
X18181000Y-11092500D02*
X18141000Y-11132500D01*
X18146080Y-7782880D02*
X18186080Y-7822880D01*
X18186080Y-7782880D02*
X18146080Y-7822880D01*
X18146080Y-13116880D02*
X18186080Y-13156880D01*
X18186080Y-13116880D02*
X18146080Y-13156880D01*
X18204500Y-5377500D02*
X18244500Y-5417500D01*
X18244500Y-5377500D02*
X18204500Y-5417500D01*
X18204500Y-10711500D02*
X18244500Y-10751500D01*
X18244500Y-10711500D02*
X18204500Y-10751500D01*
X18224820Y-4717100D02*
X18264820Y-4757100D01*
X18264820Y-4717100D02*
X18224820Y-4757100D01*
X18224820Y-10051100D02*
X18264820Y-10091100D01*
X18264820Y-10051100D02*
X18224820Y-10091100D01*
X18268000Y-5631500D02*
X18308000Y-5671500D01*
X18308000Y-5631500D02*
X18268000Y-5671500D01*
X18268000Y-5758500D02*
X18308000Y-5798500D01*
X18308000Y-5758500D02*
X18268000Y-5798500D01*
X18268000Y-10965500D02*
X18308000Y-11005500D01*
X18308000Y-10965500D02*
X18268000Y-11005500D01*
X18268000Y-11092500D02*
X18308000Y-11132500D01*
X18308000Y-11092500D02*
X18268000Y-11132500D01*
X18328960Y-7782880D02*
X18368960Y-7822880D01*
X18368960Y-7782880D02*
X18328960Y-7822880D01*
X18328960Y-13116880D02*
X18368960Y-13156880D01*
X18368960Y-13116880D02*
X18328960Y-13156880D01*
X18344200Y-6507800D02*
X18384200Y-6547800D01*
X18384200Y-6507800D02*
X18344200Y-6547800D01*
X18344200Y-11841800D02*
X18384200Y-11881800D01*
X18384200Y-11841800D02*
X18344200Y-11881800D01*
X18349280Y-5438460D02*
X18389280Y-5478460D01*
X18389280Y-5438460D02*
X18349280Y-5478460D01*
X18349280Y-10772460D02*
X18389280Y-10812460D01*
X18389280Y-10772460D02*
X18349280Y-10812460D01*
X18359440Y-6129340D02*
X18399440Y-6169340D01*
X18399440Y-6129340D02*
X18359440Y-6169340D01*
X18359440Y-11463340D02*
X18399440Y-11503340D01*
X18399440Y-11463340D02*
X18359440Y-11503340D01*
X18369000Y-7991000D02*
X18409000Y-8031000D01*
X18409000Y-7991000D02*
X18369000Y-8031000D01*
X18369000Y-13325000D02*
X18409000Y-13365000D01*
X18409000Y-13325000D02*
X18369000Y-13365000D01*
X18407700Y-4856800D02*
X18447700Y-4896800D01*
X18447700Y-4856800D02*
X18407700Y-4896800D01*
X18407700Y-10190800D02*
X18447700Y-10230800D01*
X18447700Y-10190800D02*
X18407700Y-10230800D01*
X18409000Y-8061000D02*
X18449000Y-8101000D01*
X18449000Y-8061000D02*
X18409000Y-8101000D01*
X18409000Y-13395000D02*
X18449000Y-13435000D01*
X18449000Y-13395000D02*
X18409000Y-13435000D01*
X18420400Y-7612700D02*
X18460400Y-7652700D01*
X18460400Y-7612700D02*
X18420400Y-7652700D01*
X18420400Y-12946700D02*
X18460400Y-12986700D01*
X18460400Y-12946700D02*
X18420400Y-12986700D01*
X18445800Y-6525580D02*
X18485800Y-6565580D01*
X18485800Y-6525580D02*
X18445800Y-6565580D01*
X18445800Y-11859580D02*
X18485800Y-11899580D01*
X18485800Y-11859580D02*
X18445800Y-11899580D01*
X18489000Y-8061000D02*
X18529000Y-8101000D01*
X18529000Y-8061000D02*
X18489000Y-8101000D01*
X18489000Y-13395000D02*
X18529000Y-13435000D01*
X18529000Y-13395000D02*
X18489000Y-13435000D01*
X18529000Y-7991000D02*
X18569000Y-8031000D01*
X18569000Y-7991000D02*
X18529000Y-8031000D01*
X18529000Y-13325000D02*
X18569000Y-13365000D01*
X18569000Y-13325000D02*
X18529000Y-13365000D01*
X18534700Y-6520500D02*
X18574700Y-6560500D01*
X18574700Y-6520500D02*
X18534700Y-6560500D01*
X18534700Y-11854500D02*
X18574700Y-11894500D01*
X18574700Y-11854500D02*
X18534700Y-11894500D01*
X18547400Y-6215700D02*
X18587400Y-6255700D01*
X18587400Y-6215700D02*
X18547400Y-6255700D01*
X18547400Y-11549700D02*
X18587400Y-11589700D01*
X18587400Y-11549700D02*
X18547400Y-11589700D01*
X18560100Y-6050600D02*
X18600100Y-6090600D01*
X18600100Y-6050600D02*
X18560100Y-6090600D01*
X18560100Y-11384600D02*
X18600100Y-11424600D01*
X18600100Y-11384600D02*
X18560100Y-11424600D01*
X18566450Y-7765100D02*
X18606450Y-7805100D01*
X18606450Y-7765100D02*
X18566450Y-7805100D01*
X18566450Y-13099100D02*
X18606450Y-13139100D01*
X18606450Y-13099100D02*
X18566450Y-13139100D01*
X18569000Y-8061000D02*
X18609000Y-8101000D01*
X18609000Y-8061000D02*
X18569000Y-8101000D01*
X18569000Y-13395000D02*
X18609000Y-13435000D01*
X18609000Y-13395000D02*
X18569000Y-13435000D01*
X18609000Y-7991000D02*
X18649000Y-8031000D01*
X18649000Y-7991000D02*
X18609000Y-8031000D01*
X18609000Y-13325000D02*
X18649000Y-13365000D01*
X18649000Y-13325000D02*
X18609000Y-13365000D01*
X18689000Y-7991000D02*
X18729000Y-8031000D01*
X18729000Y-7991000D02*
X18689000Y-8031000D01*
X18689000Y-13325000D02*
X18729000Y-13365000D01*
X18729000Y-13325000D02*
X18689000Y-13365000D01*
X18725200Y-6215700D02*
X18765200Y-6255700D01*
X18765200Y-6215700D02*
X18725200Y-6255700D01*
X18725200Y-11549700D02*
X18765200Y-11589700D01*
X18765200Y-11549700D02*
X18725200Y-11589700D01*
X18729000Y-8061000D02*
X18769000Y-8101000D01*
X18769000Y-8061000D02*
X18729000Y-8101000D01*
X18729000Y-13395000D02*
X18769000Y-13435000D01*
X18769000Y-13395000D02*
X18729000Y-13435000D01*
X18769000Y-7991000D02*
X18809000Y-8031000D01*
X18809000Y-7991000D02*
X18769000Y-8031000D01*
X18769000Y-13325000D02*
X18809000Y-13365000D01*
X18809000Y-13325000D02*
X18769000Y-13365000D01*
X18776000Y-7142800D02*
X18816000Y-7182800D01*
X18816000Y-7142800D02*
X18776000Y-7182800D01*
X18776000Y-12476800D02*
X18816000Y-12516800D01*
X18816000Y-12476800D02*
X18776000Y-12516800D01*
X18798860Y-4668840D02*
X18838860Y-4708840D01*
X18838860Y-4668840D02*
X18798860Y-4708840D01*
X18798860Y-10002840D02*
X18838860Y-10042840D01*
X18838860Y-10002840D02*
X18798860Y-10042840D01*
X18809000Y-8061000D02*
X18849000Y-8101000D01*
X18849000Y-8061000D02*
X18809000Y-8101000D01*
X18809000Y-13395000D02*
X18849000Y-13435000D01*
X18849000Y-13395000D02*
X18809000Y-13435000D01*
X18839500Y-5961700D02*
X18879500Y-6001700D01*
X18879500Y-5961700D02*
X18839500Y-6001700D01*
X18839500Y-11295700D02*
X18879500Y-11335700D01*
X18879500Y-11295700D02*
X18839500Y-11335700D01*
X18889000Y-8061000D02*
X18929000Y-8101000D01*
X18929000Y-8061000D02*
X18889000Y-8101000D01*
X18889000Y-13395000D02*
X18929000Y-13435000D01*
X18929000Y-13395000D02*
X18889000Y-13435000D01*
X18929000Y-7991000D02*
X18969000Y-8031000D01*
X18969000Y-7991000D02*
X18929000Y-8031000D01*
X18929000Y-13325000D02*
X18969000Y-13365000D01*
X18969000Y-13325000D02*
X18929000Y-13365000D01*
X18958880Y-4978720D02*
X18998880Y-5018720D01*
X18998880Y-4978720D02*
X18958880Y-5018720D01*
X18958880Y-10312720D02*
X18998880Y-10352720D01*
X18998880Y-10312720D02*
X18958880Y-10352720D01*
X19090960Y-6906580D02*
X19130960Y-6946580D01*
X19130960Y-6906580D02*
X19090960Y-6946580D01*
X19090960Y-12240580D02*
X19130960Y-12280580D01*
X19130960Y-12240580D02*
X19090960Y-12280580D01*
X19169700Y-5568000D02*
X19209700Y-5608000D01*
X19209700Y-5568000D02*
X19169700Y-5608000D01*
X19169700Y-10902000D02*
X19209700Y-10942000D01*
X19209700Y-10902000D02*
X19169700Y-10942000D01*
X19256060Y-6911660D02*
X19296060Y-6951660D01*
X19296060Y-6911660D02*
X19256060Y-6951660D01*
X19256060Y-12245660D02*
X19296060Y-12285660D01*
X19296060Y-12245660D02*
X19256060Y-12285660D01*
X20797840Y-5004120D02*
X20837840Y-5044120D01*
X20837840Y-5004120D02*
X20797840Y-5044120D01*
X20797840Y-10338120D02*
X20837840Y-10378120D01*
X20837840Y-10338120D02*
X20797840Y-10378120D01*
X21158520Y-4615500D02*
X21198520Y-4655500D01*
X21198520Y-4615500D02*
X21158520Y-4655500D01*
X21158520Y-9949500D02*
X21198520Y-9989500D01*
X21198520Y-9949500D02*
X21158520Y-9989500D01*
X21220750Y-4913950D02*
X21260750Y-4953950D01*
X21260750Y-4913950D02*
X21220750Y-4953950D01*
X21220750Y-10247950D02*
X21260750Y-10287950D01*
X21260750Y-10247950D02*
X21220750Y-10287950D01*
X21227100Y-6711000D02*
X21267100Y-6751000D01*
X21267100Y-6711000D02*
X21227100Y-6751000D01*
X21227100Y-12045000D02*
X21267100Y-12085000D01*
X21267100Y-12045000D02*
X21227100Y-12085000D01*
X21267740Y-5397820D02*
X21307740Y-5437820D01*
X21307740Y-5397820D02*
X21267740Y-5437820D01*
X21267740Y-10731820D02*
X21307740Y-10771820D01*
X21307740Y-10731820D02*
X21267740Y-10771820D01*
X21328700Y-6863400D02*
X21368700Y-6903400D01*
X21368700Y-6863400D02*
X21328700Y-6903400D01*
X21328700Y-12197400D02*
X21368700Y-12237400D01*
X21368700Y-12197400D02*
X21328700Y-12237400D01*
X21366800Y-5631500D02*
X21406800Y-5671500D01*
X21406800Y-5631500D02*
X21366800Y-5671500D01*
X21366800Y-10965500D02*
X21406800Y-11005500D01*
X21406800Y-10965500D02*
X21366800Y-11005500D01*
X21493800Y-6317300D02*
X21533800Y-6357300D01*
X21533800Y-6317300D02*
X21493800Y-6357300D01*
X21493800Y-11651300D02*
X21533800Y-11691300D01*
X21533800Y-11651300D02*
X21493800Y-11691300D01*
X21539520Y-5204780D02*
X21579520Y-5244780D01*
X21579520Y-5204780D02*
X21539520Y-5244780D01*
X21539520Y-10538780D02*
X21579520Y-10578780D01*
X21579520Y-10538780D02*
X21539520Y-10578780D01*
X21608100Y-4729800D02*
X21648100Y-4769800D01*
X21648100Y-4729800D02*
X21608100Y-4769800D01*
X21608100Y-10063800D02*
X21648100Y-10103800D01*
X21648100Y-10063800D02*
X21608100Y-10103800D01*
X21658900Y-6114100D02*
X21698900Y-6154100D01*
X21698900Y-6114100D02*
X21658900Y-6154100D01*
X21658900Y-11448100D02*
X21698900Y-11488100D01*
X21698900Y-11448100D02*
X21658900Y-11488100D01*
X21697000Y-5822000D02*
X21737000Y-5862000D01*
X21737000Y-5822000D02*
X21697000Y-5862000D01*
X21697000Y-11156000D02*
X21737000Y-11196000D01*
X21737000Y-11156000D02*
X21697000Y-11196000D01*
X21773200Y-6215700D02*
X21813200Y-6255700D01*
X21813200Y-6215700D02*
X21773200Y-6255700D01*
X21773200Y-11549700D02*
X21813200Y-11589700D01*
X21813200Y-11549700D02*
X21773200Y-11589700D01*
X21785900Y-6507800D02*
X21825900Y-6547800D01*
X21825900Y-6507800D02*
X21785900Y-6547800D01*
X21785900Y-11841800D02*
X21825900Y-11881800D01*
X21825900Y-11841800D02*
X21785900Y-11881800D01*
X21824000Y-5631500D02*
X21864000Y-5671500D01*
X21864000Y-5631500D02*
X21824000Y-5671500D01*
X21824000Y-5758500D02*
X21864000Y-5798500D01*
X21864000Y-5758500D02*
X21824000Y-5798500D01*
X21824000Y-10965500D02*
X21864000Y-11005500D01*
X21864000Y-10965500D02*
X21824000Y-11005500D01*
X21824000Y-11092500D02*
X21864000Y-11132500D01*
X21864000Y-11092500D02*
X21824000Y-11132500D01*
X21829080Y-7782880D02*
X21869080Y-7822880D01*
X21869080Y-7782880D02*
X21829080Y-7822880D01*
X21829080Y-13116880D02*
X21869080Y-13156880D01*
X21869080Y-13116880D02*
X21829080Y-13156880D01*
X21887500Y-5377500D02*
X21927500Y-5417500D01*
X21927500Y-5377500D02*
X21887500Y-5417500D01*
X21887500Y-10711500D02*
X21927500Y-10751500D01*
X21927500Y-10711500D02*
X21887500Y-10751500D01*
X21907820Y-4717100D02*
X21947820Y-4757100D01*
X21947820Y-4717100D02*
X21907820Y-4757100D01*
X21907820Y-10051100D02*
X21947820Y-10091100D01*
X21947820Y-10051100D02*
X21907820Y-10091100D01*
X21951000Y-5631500D02*
X21991000Y-5671500D01*
X21991000Y-5631500D02*
X21951000Y-5671500D01*
X21951000Y-5758500D02*
X21991000Y-5798500D01*
X21991000Y-5758500D02*
X21951000Y-5798500D01*
X21951000Y-10965500D02*
X21991000Y-11005500D01*
X21991000Y-10965500D02*
X21951000Y-11005500D01*
X21951000Y-11092500D02*
X21991000Y-11132500D01*
X21991000Y-11092500D02*
X21951000Y-11132500D01*
X22011960Y-7782880D02*
X22051960Y-7822880D01*
X22051960Y-7782880D02*
X22011960Y-7822880D01*
X22011960Y-13116880D02*
X22051960Y-13156880D01*
X22051960Y-13116880D02*
X22011960Y-13156880D01*
X22027200Y-6507800D02*
X22067200Y-6547800D01*
X22067200Y-6507800D02*
X22027200Y-6547800D01*
X22027200Y-11841800D02*
X22067200Y-11881800D01*
X22067200Y-11841800D02*
X22027200Y-11881800D01*
X22032280Y-5438460D02*
X22072280Y-5478460D01*
X22072280Y-5438460D02*
X22032280Y-5478460D01*
X22032280Y-10772460D02*
X22072280Y-10812460D01*
X22072280Y-10772460D02*
X22032280Y-10812460D01*
X22042440Y-6129340D02*
X22082440Y-6169340D01*
X22082440Y-6129340D02*
X22042440Y-6169340D01*
X22042440Y-11463340D02*
X22082440Y-11503340D01*
X22082440Y-11463340D02*
X22042440Y-11503340D01*
X22052000Y-7991000D02*
X22092000Y-8031000D01*
X22092000Y-7991000D02*
X22052000Y-8031000D01*
X22052000Y-13325000D02*
X22092000Y-13365000D01*
X22092000Y-13325000D02*
X22052000Y-13365000D01*
X22090700Y-4856800D02*
X22130700Y-4896800D01*
X22130700Y-4856800D02*
X22090700Y-4896800D01*
X22090700Y-10190800D02*
X22130700Y-10230800D01*
X22130700Y-10190800D02*
X22090700Y-10230800D01*
X22092000Y-8061000D02*
X22132000Y-8101000D01*
X22132000Y-8061000D02*
X22092000Y-8101000D01*
X22092000Y-13395000D02*
X22132000Y-13435000D01*
X22132000Y-13395000D02*
X22092000Y-13435000D01*
X22103400Y-7612700D02*
X22143400Y-7652700D01*
X22143400Y-7612700D02*
X22103400Y-7652700D01*
X22103400Y-12946700D02*
X22143400Y-12986700D01*
X22143400Y-12946700D02*
X22103400Y-12986700D01*
X22128800Y-6525580D02*
X22168800Y-6565580D01*
X22168800Y-6525580D02*
X22128800Y-6565580D01*
X22128800Y-11859580D02*
X22168800Y-11899580D01*
X22168800Y-11859580D02*
X22128800Y-11899580D01*
X22172000Y-8061000D02*
X22212000Y-8101000D01*
X22212000Y-8061000D02*
X22172000Y-8101000D01*
X22172000Y-13395000D02*
X22212000Y-13435000D01*
X22212000Y-13395000D02*
X22172000Y-13435000D01*
X22212000Y-7991000D02*
X22252000Y-8031000D01*
X22252000Y-7991000D02*
X22212000Y-8031000D01*
X22212000Y-13325000D02*
X22252000Y-13365000D01*
X22252000Y-13325000D02*
X22212000Y-13365000D01*
X22217700Y-6520500D02*
X22257700Y-6560500D01*
X22257700Y-6520500D02*
X22217700Y-6560500D01*
X22217700Y-11854500D02*
X22257700Y-11894500D01*
X22257700Y-11854500D02*
X22217700Y-11894500D01*
X22230400Y-6215700D02*
X22270400Y-6255700D01*
X22270400Y-6215700D02*
X22230400Y-6255700D01*
X22230400Y-11549700D02*
X22270400Y-11589700D01*
X22270400Y-11549700D02*
X22230400Y-11589700D01*
X22243100Y-6050600D02*
X22283100Y-6090600D01*
X22283100Y-6050600D02*
X22243100Y-6090600D01*
X22243100Y-11384600D02*
X22283100Y-11424600D01*
X22283100Y-11384600D02*
X22243100Y-11424600D01*
X22249450Y-7765100D02*
X22289450Y-7805100D01*
X22289450Y-7765100D02*
X22249450Y-7805100D01*
X22249450Y-13099100D02*
X22289450Y-13139100D01*
X22289450Y-13099100D02*
X22249450Y-13139100D01*
X22252000Y-8061000D02*
X22292000Y-8101000D01*
X22292000Y-8061000D02*
X22252000Y-8101000D01*
X22252000Y-13395000D02*
X22292000Y-13435000D01*
X22292000Y-13395000D02*
X22252000Y-13435000D01*
X22292000Y-7991000D02*
X22332000Y-8031000D01*
X22332000Y-7991000D02*
X22292000Y-8031000D01*
X22292000Y-13325000D02*
X22332000Y-13365000D01*
X22332000Y-13325000D02*
X22292000Y-13365000D01*
X22372000Y-7991000D02*
X22412000Y-8031000D01*
X22412000Y-7991000D02*
X22372000Y-8031000D01*
X22372000Y-13325000D02*
X22412000Y-13365000D01*
X22412000Y-13325000D02*
X22372000Y-13365000D01*
X22408200Y-6215700D02*
X22448200Y-6255700D01*
X22448200Y-6215700D02*
X22408200Y-6255700D01*
X22408200Y-11549700D02*
X22448200Y-11589700D01*
X22448200Y-11549700D02*
X22408200Y-11589700D01*
X22412000Y-8061000D02*
X22452000Y-8101000D01*
X22452000Y-8061000D02*
X22412000Y-8101000D01*
X22412000Y-13395000D02*
X22452000Y-13435000D01*
X22452000Y-13395000D02*
X22412000Y-13435000D01*
X22452000Y-7991000D02*
X22492000Y-8031000D01*
X22492000Y-7991000D02*
X22452000Y-8031000D01*
X22452000Y-13325000D02*
X22492000Y-13365000D01*
X22492000Y-13325000D02*
X22452000Y-13365000D01*
X22459000Y-7142800D02*
X22499000Y-7182800D01*
X22499000Y-7142800D02*
X22459000Y-7182800D01*
X22459000Y-12476800D02*
X22499000Y-12516800D01*
X22499000Y-12476800D02*
X22459000Y-12516800D01*
X22481860Y-4668840D02*
X22521860Y-4708840D01*
X22521860Y-4668840D02*
X22481860Y-4708840D01*
X22481860Y-10002840D02*
X22521860Y-10042840D01*
X22521860Y-10002840D02*
X22481860Y-10042840D01*
X22492000Y-8061000D02*
X22532000Y-8101000D01*
X22532000Y-8061000D02*
X22492000Y-8101000D01*
X22492000Y-13395000D02*
X22532000Y-13435000D01*
X22532000Y-13395000D02*
X22492000Y-13435000D01*
X22522500Y-5961700D02*
X22562500Y-6001700D01*
X22562500Y-5961700D02*
X22522500Y-6001700D01*
X22522500Y-11295700D02*
X22562500Y-11335700D01*
X22562500Y-11295700D02*
X22522500Y-11335700D01*
X22572000Y-8061000D02*
X22612000Y-8101000D01*
X22612000Y-8061000D02*
X22572000Y-8101000D01*
X22572000Y-13395000D02*
X22612000Y-13435000D01*
X22612000Y-13395000D02*
X22572000Y-13435000D01*
X22612000Y-7991000D02*
X22652000Y-8031000D01*
X22652000Y-7991000D02*
X22612000Y-8031000D01*
X22612000Y-13325000D02*
X22652000Y-13365000D01*
X22652000Y-13325000D02*
X22612000Y-13365000D01*
X22641880Y-4978720D02*
X22681880Y-5018720D01*
X22681880Y-4978720D02*
X22641880Y-5018720D01*
X22641880Y-10312720D02*
X22681880Y-10352720D01*
X22681880Y-10312720D02*
X22641880Y-10352720D01*
X22773960Y-6906580D02*
X22813960Y-6946580D01*
X22813960Y-6906580D02*
X22773960Y-6946580D01*
X22773960Y-12240580D02*
X22813960Y-12280580D01*
X22813960Y-12240580D02*
X22773960Y-12280580D01*
X22852700Y-5568000D02*
X22892700Y-5608000D01*
X22892700Y-5568000D02*
X22852700Y-5608000D01*
X22852700Y-10902000D02*
X22892700Y-10942000D01*
X22892700Y-10902000D02*
X22852700Y-10942000D01*
X22939060Y-6911660D02*
X22979060Y-6951660D01*
X22979060Y-6911660D02*
X22939060Y-6951660D01*
X22939060Y-12245660D02*
X22979060Y-12285660D01*
X22979060Y-12245660D02*
X22939060Y-12285660D01*
X6222600Y-7429500D02*
G75*
G03X6222600Y-7429500I-25000J0D01*
G01*
X6222600Y-12763500D02*
G75*
G03X6222600Y-12763500I-25000J0D01*
G01*
X6438500Y-7429500D02*
G75*
G03X6438500Y-7429500I-25000J0D01*
G01*
X6438500Y-12763500D02*
G75*
G03X6438500Y-12763500I-25000J0D01*
G01*
X7196000Y-8666000D02*
G75*
G03X7196000Y-8666000I-25000J0D01*
G01*
X7156000Y-8636000D02*
X7156000Y-8696000D01*
X7186000Y-8636000D02*
X7186000Y-8696000D01*
X7156000Y-8696000D02*
G75*
G03X7186000Y-8696000I15000J0D01*
G01*
X7186000Y-8636000D02*
G75*
G03X7156000Y-8636000I-15000J0D01*
G01*
X7196000Y-14000000D02*
G75*
G03X7196000Y-14000000I-25000J0D01*
G01*
X7156000Y-13970000D02*
X7156000Y-14030000D01*
X7186000Y-13970000D02*
X7186000Y-14030000D01*
X7156000Y-14030000D02*
G75*
G03X7186000Y-14030000I15000J0D01*
G01*
X7186000Y-13970000D02*
G75*
G03X7156000Y-13970000I-15000J0D01*
G01*
X7232000Y-8071000D02*
G75*
G03X7232000Y-8071000I-25000J0D01*
G01*
X7192000Y-8041000D02*
X7192000Y-8101000D01*
X7222000Y-8041000D02*
X7222000Y-8101000D01*
X7192000Y-8101000D02*
G75*
G03X7222000Y-8101000I15000J0D01*
G01*
X7222000Y-8041000D02*
G75*
G03X7192000Y-8041000I-15000J0D01*
G01*
X7232000Y-13405000D02*
G75*
G03X7232000Y-13405000I-25000J0D01*
G01*
X7192000Y-13375000D02*
X7192000Y-13435000D01*
X7222000Y-13375000D02*
X7222000Y-13435000D01*
X7192000Y-13435000D02*
G75*
G03X7222000Y-13435000I15000J0D01*
G01*
X7222000Y-13375000D02*
G75*
G03X7192000Y-13375000I-15000J0D01*
G01*
X7279240Y-6883400D02*
G75*
G03X7279240Y-6883400I-25000J0D01*
G01*
X7279240Y-12217400D02*
G75*
G03X7279240Y-12217400I-25000J0D01*
G01*
X7492600Y-7454900D02*
G75*
G03X7492600Y-7454900I-25000J0D01*
G01*
X7492600Y-12788900D02*
G75*
G03X7492600Y-12788900I-25000J0D01*
G01*
X7893920Y-6883400D02*
G75*
G03X7893920Y-6883400I-25000J0D01*
G01*
X7893920Y-12217400D02*
G75*
G03X7893920Y-12217400I-25000J0D01*
G01*
X8058000Y-8071000D02*
G75*
G03X8058000Y-8071000I-25000J0D01*
G01*
X8018000Y-8041000D02*
X8018000Y-8101000D01*
X8048000Y-8041000D02*
X8048000Y-8101000D01*
X8018000Y-8101000D02*
G75*
G03X8048000Y-8101000I15000J0D01*
G01*
X8048000Y-8041000D02*
G75*
G03X8018000Y-8041000I-15000J0D01*
G01*
X8058000Y-13405000D02*
G75*
G03X8058000Y-13405000I-25000J0D01*
G01*
X8018000Y-13375000D02*
X8018000Y-13435000D01*
X8048000Y-13375000D02*
X8048000Y-13435000D01*
X8018000Y-13435000D02*
G75*
G03X8048000Y-13435000I15000J0D01*
G01*
X8048000Y-13375000D02*
G75*
G03X8018000Y-13375000I-15000J0D01*
G01*
X8094000Y-8666000D02*
G75*
G03X8094000Y-8666000I-25000J0D01*
G01*
X8054000Y-8636000D02*
X8054000Y-8696000D01*
X8084000Y-8636000D02*
X8084000Y-8696000D01*
X8054000Y-8696000D02*
G75*
G03X8084000Y-8696000I15000J0D01*
G01*
X8084000Y-8636000D02*
G75*
G03X8054000Y-8636000I-15000J0D01*
G01*
X8094000Y-14000000D02*
G75*
G03X8094000Y-14000000I-25000J0D01*
G01*
X8054000Y-13970000D02*
X8054000Y-14030000D01*
X8084000Y-13970000D02*
X8084000Y-14030000D01*
X8054000Y-14030000D02*
G75*
G03X8084000Y-14030000I15000J0D01*
G01*
X8084000Y-13970000D02*
G75*
G03X8054000Y-13970000I-15000J0D01*
G01*
X9067400Y-7391400D02*
G75*
G03X9067400Y-7391400I-25000J0D01*
G01*
X9067400Y-12725400D02*
G75*
G03X9067400Y-12725400I-25000J0D01*
G01*
X9905600Y-7429500D02*
G75*
G03X9905600Y-7429500I-25000J0D01*
G01*
X9905600Y-12763500D02*
G75*
G03X9905600Y-12763500I-25000J0D01*
G01*
X10121500Y-7429500D02*
G75*
G03X10121500Y-7429500I-25000J0D01*
G01*
X10121500Y-12763500D02*
G75*
G03X10121500Y-12763500I-25000J0D01*
G01*
X10879000Y-8666000D02*
G75*
G03X10879000Y-8666000I-25000J0D01*
G01*
X10839000Y-8636000D02*
X10839000Y-8696000D01*
X10869000Y-8636000D02*
X10869000Y-8696000D01*
X10839000Y-8696000D02*
G75*
G03X10869000Y-8696000I15000J0D01*
G01*
X10869000Y-8636000D02*
G75*
G03X10839000Y-8636000I-15000J0D01*
G01*
X10879000Y-14000000D02*
G75*
G03X10879000Y-14000000I-25000J0D01*
G01*
X10839000Y-13970000D02*
X10839000Y-14030000D01*
X10869000Y-13970000D02*
X10869000Y-14030000D01*
X10839000Y-14030000D02*
G75*
G03X10869000Y-14030000I15000J0D01*
G01*
X10869000Y-13970000D02*
G75*
G03X10839000Y-13970000I-15000J0D01*
G01*
X10915000Y-8071000D02*
G75*
G03X10915000Y-8071000I-25000J0D01*
G01*
X10875000Y-8041000D02*
X10875000Y-8101000D01*
X10905000Y-8041000D02*
X10905000Y-8101000D01*
X10875000Y-8101000D02*
G75*
G03X10905000Y-8101000I15000J0D01*
G01*
X10905000Y-8041000D02*
G75*
G03X10875000Y-8041000I-15000J0D01*
G01*
X10915000Y-13405000D02*
G75*
G03X10915000Y-13405000I-25000J0D01*
G01*
X10875000Y-13375000D02*
X10875000Y-13435000D01*
X10905000Y-13375000D02*
X10905000Y-13435000D01*
X10875000Y-13435000D02*
G75*
G03X10905000Y-13435000I15000J0D01*
G01*
X10905000Y-13375000D02*
G75*
G03X10875000Y-13375000I-15000J0D01*
G01*
X10962240Y-6883400D02*
G75*
G03X10962240Y-6883400I-25000J0D01*
G01*
X10962240Y-12217400D02*
G75*
G03X10962240Y-12217400I-25000J0D01*
G01*
X11175600Y-7454900D02*
G75*
G03X11175600Y-7454900I-25000J0D01*
G01*
X11175600Y-12788900D02*
G75*
G03X11175600Y-12788900I-25000J0D01*
G01*
X11576920Y-6883400D02*
G75*
G03X11576920Y-6883400I-25000J0D01*
G01*
X11576920Y-12217400D02*
G75*
G03X11576920Y-12217400I-25000J0D01*
G01*
X11741000Y-8071000D02*
G75*
G03X11741000Y-8071000I-25000J0D01*
G01*
X11701000Y-8041000D02*
X11701000Y-8101000D01*
X11731000Y-8041000D02*
X11731000Y-8101000D01*
X11701000Y-8101000D02*
G75*
G03X11731000Y-8101000I15000J0D01*
G01*
X11731000Y-8041000D02*
G75*
G03X11701000Y-8041000I-15000J0D01*
G01*
X11741000Y-13405000D02*
G75*
G03X11741000Y-13405000I-25000J0D01*
G01*
X11701000Y-13375000D02*
X11701000Y-13435000D01*
X11731000Y-13375000D02*
X11731000Y-13435000D01*
X11701000Y-13435000D02*
G75*
G03X11731000Y-13435000I15000J0D01*
G01*
X11731000Y-13375000D02*
G75*
G03X11701000Y-13375000I-15000J0D01*
G01*
X11777000Y-8666000D02*
G75*
G03X11777000Y-8666000I-25000J0D01*
G01*
X11737000Y-8636000D02*
X11737000Y-8696000D01*
X11767000Y-8636000D02*
X11767000Y-8696000D01*
X11737000Y-8696000D02*
G75*
G03X11767000Y-8696000I15000J0D01*
G01*
X11767000Y-8636000D02*
G75*
G03X11737000Y-8636000I-15000J0D01*
G01*
X11777000Y-14000000D02*
G75*
G03X11777000Y-14000000I-25000J0D01*
G01*
X11737000Y-13970000D02*
X11737000Y-14030000D01*
X11767000Y-13970000D02*
X11767000Y-14030000D01*
X11737000Y-14030000D02*
G75*
G03X11767000Y-14030000I15000J0D01*
G01*
X11767000Y-13970000D02*
G75*
G03X11737000Y-13970000I-15000J0D01*
G01*
X12750400Y-7391400D02*
G75*
G03X12750400Y-7391400I-25000J0D01*
G01*
X12750400Y-12725400D02*
G75*
G03X12750400Y-12725400I-25000J0D01*
G01*
X13588600Y-7429500D02*
G75*
G03X13588600Y-7429500I-25000J0D01*
G01*
X13588600Y-12763500D02*
G75*
G03X13588600Y-12763500I-25000J0D01*
G01*
X13804500Y-7429500D02*
G75*
G03X13804500Y-7429500I-25000J0D01*
G01*
X13804500Y-12763500D02*
G75*
G03X13804500Y-12763500I-25000J0D01*
G01*
X14562000Y-8666000D02*
G75*
G03X14562000Y-8666000I-25000J0D01*
G01*
X14522000Y-8636000D02*
X14522000Y-8696000D01*
X14552000Y-8636000D02*
X14552000Y-8696000D01*
X14522000Y-8696000D02*
G75*
G03X14552000Y-8696000I15000J0D01*
G01*
X14552000Y-8636000D02*
G75*
G03X14522000Y-8636000I-15000J0D01*
G01*
X14562000Y-14000000D02*
G75*
G03X14562000Y-14000000I-25000J0D01*
G01*
X14522000Y-13970000D02*
X14522000Y-14030000D01*
X14552000Y-13970000D02*
X14552000Y-14030000D01*
X14522000Y-14030000D02*
G75*
G03X14552000Y-14030000I15000J0D01*
G01*
X14552000Y-13970000D02*
G75*
G03X14522000Y-13970000I-15000J0D01*
G01*
X14598000Y-8071000D02*
G75*
G03X14598000Y-8071000I-25000J0D01*
G01*
X14558000Y-8041000D02*
X14558000Y-8101000D01*
X14588000Y-8041000D02*
X14588000Y-8101000D01*
X14558000Y-8101000D02*
G75*
G03X14588000Y-8101000I15000J0D01*
G01*
X14588000Y-8041000D02*
G75*
G03X14558000Y-8041000I-15000J0D01*
G01*
X14598000Y-13405000D02*
G75*
G03X14598000Y-13405000I-25000J0D01*
G01*
X14558000Y-13375000D02*
X14558000Y-13435000D01*
X14588000Y-13375000D02*
X14588000Y-13435000D01*
X14558000Y-13435000D02*
G75*
G03X14588000Y-13435000I15000J0D01*
G01*
X14588000Y-13375000D02*
G75*
G03X14558000Y-13375000I-15000J0D01*
G01*
X14645240Y-6883400D02*
G75*
G03X14645240Y-6883400I-25000J0D01*
G01*
X14645240Y-12217400D02*
G75*
G03X14645240Y-12217400I-25000J0D01*
G01*
X14858600Y-7454900D02*
G75*
G03X14858600Y-7454900I-25000J0D01*
G01*
X14858600Y-12788900D02*
G75*
G03X14858600Y-12788900I-25000J0D01*
G01*
X15259920Y-6883400D02*
G75*
G03X15259920Y-6883400I-25000J0D01*
G01*
X15259920Y-12217400D02*
G75*
G03X15259920Y-12217400I-25000J0D01*
G01*
X15424000Y-8071000D02*
G75*
G03X15424000Y-8071000I-25000J0D01*
G01*
X15384000Y-8041000D02*
X15384000Y-8101000D01*
X15414000Y-8041000D02*
X15414000Y-8101000D01*
X15384000Y-8101000D02*
G75*
G03X15414000Y-8101000I15000J0D01*
G01*
X15414000Y-8041000D02*
G75*
G03X15384000Y-8041000I-15000J0D01*
G01*
X15424000Y-13405000D02*
G75*
G03X15424000Y-13405000I-25000J0D01*
G01*
X15384000Y-13375000D02*
X15384000Y-13435000D01*
X15414000Y-13375000D02*
X15414000Y-13435000D01*
X15384000Y-13435000D02*
G75*
G03X15414000Y-13435000I15000J0D01*
G01*
X15414000Y-13375000D02*
G75*
G03X15384000Y-13375000I-15000J0D01*
G01*
X15460000Y-8666000D02*
G75*
G03X15460000Y-8666000I-25000J0D01*
G01*
X15420000Y-8636000D02*
X15420000Y-8696000D01*
X15450000Y-8636000D02*
X15450000Y-8696000D01*
X15420000Y-8696000D02*
G75*
G03X15450000Y-8696000I15000J0D01*
G01*
X15450000Y-8636000D02*
G75*
G03X15420000Y-8636000I-15000J0D01*
G01*
X15460000Y-14000000D02*
G75*
G03X15460000Y-14000000I-25000J0D01*
G01*
X15420000Y-13970000D02*
X15420000Y-14030000D01*
X15450000Y-13970000D02*
X15450000Y-14030000D01*
X15420000Y-14030000D02*
G75*
G03X15450000Y-14030000I15000J0D01*
G01*
X15450000Y-13970000D02*
G75*
G03X15420000Y-13970000I-15000J0D01*
G01*
X16433400Y-7391400D02*
G75*
G03X16433400Y-7391400I-25000J0D01*
G01*
X16433400Y-12725400D02*
G75*
G03X16433400Y-12725400I-25000J0D01*
G01*
X17271600Y-7429500D02*
G75*
G03X17271600Y-7429500I-25000J0D01*
G01*
X17271600Y-12763500D02*
G75*
G03X17271600Y-12763500I-25000J0D01*
G01*
X17487500Y-7429500D02*
G75*
G03X17487500Y-7429500I-25000J0D01*
G01*
X17487500Y-12763500D02*
G75*
G03X17487500Y-12763500I-25000J0D01*
G01*
X18245000Y-8666000D02*
G75*
G03X18245000Y-8666000I-25000J0D01*
G01*
X18205000Y-8636000D02*
X18205000Y-8696000D01*
X18235000Y-8636000D02*
X18235000Y-8696000D01*
X18205000Y-8696000D02*
G75*
G03X18235000Y-8696000I15000J0D01*
G01*
X18235000Y-8636000D02*
G75*
G03X18205000Y-8636000I-15000J0D01*
G01*
X18245000Y-14000000D02*
G75*
G03X18245000Y-14000000I-25000J0D01*
G01*
X18205000Y-13970000D02*
X18205000Y-14030000D01*
X18235000Y-13970000D02*
X18235000Y-14030000D01*
X18205000Y-14030000D02*
G75*
G03X18235000Y-14030000I15000J0D01*
G01*
X18235000Y-13970000D02*
G75*
G03X18205000Y-13970000I-15000J0D01*
G01*
X18281000Y-8071000D02*
G75*
G03X18281000Y-8071000I-25000J0D01*
G01*
X18241000Y-8041000D02*
X18241000Y-8101000D01*
X18271000Y-8041000D02*
X18271000Y-8101000D01*
X18241000Y-8101000D02*
G75*
G03X18271000Y-8101000I15000J0D01*
G01*
X18271000Y-8041000D02*
G75*
G03X18241000Y-8041000I-15000J0D01*
G01*
X18281000Y-13405000D02*
G75*
G03X18281000Y-13405000I-25000J0D01*
G01*
X18241000Y-13375000D02*
X18241000Y-13435000D01*
X18271000Y-13375000D02*
X18271000Y-13435000D01*
X18241000Y-13435000D02*
G75*
G03X18271000Y-13435000I15000J0D01*
G01*
X18271000Y-13375000D02*
G75*
G03X18241000Y-13375000I-15000J0D01*
G01*
X18328240Y-6883400D02*
G75*
G03X18328240Y-6883400I-25000J0D01*
G01*
X18328240Y-12217400D02*
G75*
G03X18328240Y-12217400I-25000J0D01*
G01*
X18541600Y-7454900D02*
G75*
G03X18541600Y-7454900I-25000J0D01*
G01*
X18541600Y-12788900D02*
G75*
G03X18541600Y-12788900I-25000J0D01*
G01*
X18942920Y-6883400D02*
G75*
G03X18942920Y-6883400I-25000J0D01*
G01*
X18942920Y-12217400D02*
G75*
G03X18942920Y-12217400I-25000J0D01*
G01*
X19107000Y-8071000D02*
G75*
G03X19107000Y-8071000I-25000J0D01*
G01*
X19067000Y-8041000D02*
X19067000Y-8101000D01*
X19097000Y-8041000D02*
X19097000Y-8101000D01*
X19067000Y-8101000D02*
G75*
G03X19097000Y-8101000I15000J0D01*
G01*
X19097000Y-8041000D02*
G75*
G03X19067000Y-8041000I-15000J0D01*
G01*
X19107000Y-13405000D02*
G75*
G03X19107000Y-13405000I-25000J0D01*
G01*
X19067000Y-13375000D02*
X19067000Y-13435000D01*
X19097000Y-13375000D02*
X19097000Y-13435000D01*
X19067000Y-13435000D02*
G75*
G03X19097000Y-13435000I15000J0D01*
G01*
X19097000Y-13375000D02*
G75*
G03X19067000Y-13375000I-15000J0D01*
G01*
X19143000Y-8666000D02*
G75*
G03X19143000Y-8666000I-25000J0D01*
G01*
X19103000Y-8636000D02*
X19103000Y-8696000D01*
X19133000Y-8636000D02*
X19133000Y-8696000D01*
X19103000Y-8696000D02*
G75*
G03X19133000Y-8696000I15000J0D01*
G01*
X19133000Y-8636000D02*
G75*
G03X19103000Y-8636000I-15000J0D01*
G01*
X19143000Y-14000000D02*
G75*
G03X19143000Y-14000000I-25000J0D01*
G01*
X19103000Y-13970000D02*
X19103000Y-14030000D01*
X19133000Y-13970000D02*
X19133000Y-14030000D01*
X19103000Y-14030000D02*
G75*
G03X19133000Y-14030000I15000J0D01*
G01*
X19133000Y-13970000D02*
G75*
G03X19103000Y-13970000I-15000J0D01*
G01*
X20116400Y-7391400D02*
G75*
G03X20116400Y-7391400I-25000J0D01*
G01*
X20116400Y-12725400D02*
G75*
G03X20116400Y-12725400I-25000J0D01*
G01*
X20954600Y-7429500D02*
G75*
G03X20954600Y-7429500I-25000J0D01*
G01*
X20954600Y-12763500D02*
G75*
G03X20954600Y-12763500I-25000J0D01*
G01*
X21170500Y-7429500D02*
G75*
G03X21170500Y-7429500I-25000J0D01*
G01*
X21170500Y-12763500D02*
G75*
G03X21170500Y-12763500I-25000J0D01*
G01*
X21928000Y-8666000D02*
G75*
G03X21928000Y-8666000I-25000J0D01*
G01*
X21888000Y-8636000D02*
X21888000Y-8696000D01*
X21918000Y-8636000D02*
X21918000Y-8696000D01*
X21888000Y-8696000D02*
G75*
G03X21918000Y-8696000I15000J0D01*
G01*
X21918000Y-8636000D02*
G75*
G03X21888000Y-8636000I-15000J0D01*
G01*
X21928000Y-14000000D02*
G75*
G03X21928000Y-14000000I-25000J0D01*
G01*
X21888000Y-13970000D02*
X21888000Y-14030000D01*
X21918000Y-13970000D02*
X21918000Y-14030000D01*
X21888000Y-14030000D02*
G75*
G03X21918000Y-14030000I15000J0D01*
G01*
X21918000Y-13970000D02*
G75*
G03X21888000Y-13970000I-15000J0D01*
G01*
X21964000Y-8071000D02*
G75*
G03X21964000Y-8071000I-25000J0D01*
G01*
X21924000Y-8041000D02*
X21924000Y-8101000D01*
X21954000Y-8041000D02*
X21954000Y-8101000D01*
X21924000Y-8101000D02*
G75*
G03X21954000Y-8101000I15000J0D01*
G01*
X21954000Y-8041000D02*
G75*
G03X21924000Y-8041000I-15000J0D01*
G01*
X21964000Y-13405000D02*
G75*
G03X21964000Y-13405000I-25000J0D01*
G01*
X21924000Y-13375000D02*
X21924000Y-13435000D01*
X21954000Y-13375000D02*
X21954000Y-13435000D01*
X21924000Y-13435000D02*
G75*
G03X21954000Y-13435000I15000J0D01*
G01*
X21954000Y-13375000D02*
G75*
G03X21924000Y-13375000I-15000J0D01*
G01*
X22011240Y-6883400D02*
G75*
G03X22011240Y-6883400I-25000J0D01*
G01*
X22011240Y-12217400D02*
G75*
G03X22011240Y-12217400I-25000J0D01*
G01*
X22224600Y-7454900D02*
G75*
G03X22224600Y-7454900I-25000J0D01*
G01*
X22224600Y-12788900D02*
G75*
G03X22224600Y-12788900I-25000J0D01*
G01*
X22625920Y-6883400D02*
G75*
G03X22625920Y-6883400I-25000J0D01*
G01*
X22625920Y-12217400D02*
G75*
G03X22625920Y-12217400I-25000J0D01*
G01*
X22790000Y-8071000D02*
G75*
G03X22790000Y-8071000I-25000J0D01*
G01*
X22750000Y-8041000D02*
X22750000Y-8101000D01*
X22780000Y-8041000D02*
X22780000Y-8101000D01*
X22750000Y-8101000D02*
G75*
G03X22780000Y-8101000I15000J0D01*
G01*
X22780000Y-8041000D02*
G75*
G03X22750000Y-8041000I-15000J0D01*
G01*
X22790000Y-13405000D02*
G75*
G03X22790000Y-13405000I-25000J0D01*
G01*
X22750000Y-13375000D02*
X22750000Y-13435000D01*
X22780000Y-13375000D02*
X22780000Y-13435000D01*
X22750000Y-13435000D02*
G75*
G03X22780000Y-13435000I15000J0D01*
G01*
X22780000Y-13375000D02*
G75*
G03X22750000Y-13375000I-15000J0D01*
G01*
X22826000Y-8666000D02*
G75*
G03X22826000Y-8666000I-25000J0D01*
G01*
X22786000Y-8636000D02*
X22786000Y-8696000D01*
X22816000Y-8636000D02*
X22816000Y-8696000D01*
X22786000Y-8696000D02*
G75*
G03X22816000Y-8696000I15000J0D01*
G01*
X22816000Y-8636000D02*
G75*
G03X22786000Y-8636000I-15000J0D01*
G01*
X22826000Y-14000000D02*
G75*
G03X22826000Y-14000000I-25000J0D01*
G01*
X22786000Y-13970000D02*
X22786000Y-14030000D01*
X22816000Y-13970000D02*
X22816000Y-14030000D01*
X22786000Y-14030000D02*
G75*
G03X22816000Y-14030000I15000J0D01*
G01*
X22816000Y-13970000D02*
G75*
G03X22786000Y-13970000I-15000J0D01*
G01*
X23799400Y-7391400D02*
G75*
G03X23799400Y-7391400I-25000J0D01*
G01*
X23799400Y-12725400D02*
G75*
G03X23799400Y-12725400I-25000J0D01*
G01*
X6158455Y-4447719D02*
X6158455Y-4523919D01*
X6120355Y-4485819D02*
X6196555Y-4485819D01*
X6158455Y-9781719D02*
X6158455Y-9857919D01*
X6120355Y-9819819D02*
X6196555Y-9819819D01*
X6365240Y-4300220D02*
X6365240Y-4376420D01*
X6327140Y-4338320D02*
X6403340Y-4338320D01*
X6365240Y-9634220D02*
X6365240Y-9710420D01*
X6327140Y-9672320D02*
X6403340Y-9672320D01*
X6572025Y-4152721D02*
X6572025Y-4228921D01*
X6533925Y-4190821D02*
X6610125Y-4190821D01*
X6572025Y-9486721D02*
X6572025Y-9562921D01*
X6533925Y-9524821D02*
X6610125Y-9524821D01*
X8665435Y-4150181D02*
X8665435Y-4226381D01*
X8627335Y-4188281D02*
X8703535Y-4188281D01*
X8665435Y-9484181D02*
X8665435Y-9560381D01*
X8627335Y-9522281D02*
X8703535Y-9522281D01*
X8872220Y-4297680D02*
X8872220Y-4373880D01*
X8834120Y-4335780D02*
X8910320Y-4335780D01*
X8872220Y-9631680D02*
X8872220Y-9707880D01*
X8834120Y-9669780D02*
X8910320Y-9669780D01*
X9079005Y-4445179D02*
X9079005Y-4521379D01*
X9040905Y-4483279D02*
X9117105Y-4483279D01*
X9079005Y-9779179D02*
X9079005Y-9855379D01*
X9040905Y-9817279D02*
X9117105Y-9817279D01*
X9841455Y-4447719D02*
X9841455Y-4523919D01*
X9803355Y-4485819D02*
X9879555Y-4485819D01*
X9841455Y-9781719D02*
X9841455Y-9857919D01*
X9803355Y-9819819D02*
X9879555Y-9819819D01*
X10048240Y-4300220D02*
X10048240Y-4376420D01*
X10010140Y-4338320D02*
X10086340Y-4338320D01*
X10048240Y-9634220D02*
X10048240Y-9710420D01*
X10010140Y-9672320D02*
X10086340Y-9672320D01*
X10255025Y-4152721D02*
X10255025Y-4228921D01*
X10216925Y-4190821D02*
X10293125Y-4190821D01*
X10255025Y-9486721D02*
X10255025Y-9562921D01*
X10216925Y-9524821D02*
X10293125Y-9524821D01*
X12348435Y-4150181D02*
X12348435Y-4226381D01*
X12310335Y-4188281D02*
X12386535Y-4188281D01*
X12348435Y-9484181D02*
X12348435Y-9560381D01*
X12310335Y-9522281D02*
X12386535Y-9522281D01*
X12555220Y-4297680D02*
X12555220Y-4373880D01*
X12517120Y-4335780D02*
X12593320Y-4335780D01*
X12555220Y-9631680D02*
X12555220Y-9707880D01*
X12517120Y-9669780D02*
X12593320Y-9669780D01*
X12762005Y-4445179D02*
X12762005Y-4521379D01*
X12723905Y-4483279D02*
X12800105Y-4483279D01*
X12762005Y-9779179D02*
X12762005Y-9855379D01*
X12723905Y-9817279D02*
X12800105Y-9817279D01*
X13524455Y-4447719D02*
X13524455Y-4523919D01*
X13486355Y-4485819D02*
X13562555Y-4485819D01*
X13524455Y-9781719D02*
X13524455Y-9857919D01*
X13486355Y-9819819D02*
X13562555Y-9819819D01*
X13731240Y-4300220D02*
X13731240Y-4376420D01*
X13693140Y-4338320D02*
X13769340Y-4338320D01*
X13731240Y-9634220D02*
X13731240Y-9710420D01*
X13693140Y-9672320D02*
X13769340Y-9672320D01*
X13938025Y-4152721D02*
X13938025Y-4228921D01*
X13899925Y-4190821D02*
X13976125Y-4190821D01*
X13938025Y-9486721D02*
X13938025Y-9562921D01*
X13899925Y-9524821D02*
X13976125Y-9524821D01*
X16031435Y-4150181D02*
X16031435Y-4226381D01*
X15993335Y-4188281D02*
X16069535Y-4188281D01*
X16031435Y-9484181D02*
X16031435Y-9560381D01*
X15993335Y-9522281D02*
X16069535Y-9522281D01*
X16238220Y-4297680D02*
X16238220Y-4373880D01*
X16200120Y-4335780D02*
X16276320Y-4335780D01*
X16238220Y-9631680D02*
X16238220Y-9707880D01*
X16200120Y-9669780D02*
X16276320Y-9669780D01*
X16445005Y-4445179D02*
X16445005Y-4521379D01*
X16406905Y-4483279D02*
X16483105Y-4483279D01*
X16445005Y-9779179D02*
X16445005Y-9855379D01*
X16406905Y-9817279D02*
X16483105Y-9817279D01*
X17207455Y-4447719D02*
X17207455Y-4523919D01*
X17169355Y-4485819D02*
X17245555Y-4485819D01*
X17207455Y-9781719D02*
X17207455Y-9857919D01*
X17169355Y-9819819D02*
X17245555Y-9819819D01*
X17414240Y-4300220D02*
X17414240Y-4376420D01*
X17376140Y-4338320D02*
X17452340Y-4338320D01*
X17414240Y-9634220D02*
X17414240Y-9710420D01*
X17376140Y-9672320D02*
X17452340Y-9672320D01*
X17621025Y-4152721D02*
X17621025Y-4228921D01*
X17582925Y-4190821D02*
X17659125Y-4190821D01*
X17621025Y-9486721D02*
X17621025Y-9562921D01*
X17582925Y-9524821D02*
X17659125Y-9524821D01*
X19714435Y-4150181D02*
X19714435Y-4226381D01*
X19676335Y-4188281D02*
X19752535Y-4188281D01*
X19714435Y-9484181D02*
X19714435Y-9560381D01*
X19676335Y-9522281D02*
X19752535Y-9522281D01*
X19921220Y-4297680D02*
X19921220Y-4373880D01*
X19883120Y-4335780D02*
X19959320Y-4335780D01*
X19921220Y-9631680D02*
X19921220Y-9707880D01*
X19883120Y-9669780D02*
X19959320Y-9669780D01*
X20128005Y-4445179D02*
X20128005Y-4521379D01*
X20089905Y-4483279D02*
X20166105Y-4483279D01*
X20128005Y-9779179D02*
X20128005Y-9855379D01*
X20089905Y-9817279D02*
X20166105Y-9817279D01*
X20890455Y-4447719D02*
X20890455Y-4523919D01*
X20852355Y-4485819D02*
X20928555Y-4485819D01*
X20890455Y-9781719D02*
X20890455Y-9857919D01*
X20852355Y-9819819D02*
X20928555Y-9819819D01*
X21097240Y-4300220D02*
X21097240Y-4376420D01*
X21059140Y-4338320D02*
X21135340Y-4338320D01*
X21097240Y-9634220D02*
X21097240Y-9710420D01*
X21059140Y-9672320D02*
X21135340Y-9672320D01*
X21304025Y-4152721D02*
X21304025Y-4228921D01*
X21265925Y-4190821D02*
X21342125Y-4190821D01*
X21304025Y-9486721D02*
X21304025Y-9562921D01*
X21265925Y-9524821D02*
X21342125Y-9524821D01*
X23397435Y-4150181D02*
X23397435Y-4226381D01*
X23359335Y-4188281D02*
X23435535Y-4188281D01*
X23397435Y-9484181D02*
X23397435Y-9560381D01*
X23359335Y-9522281D02*
X23435535Y-9522281D01*
X23604220Y-4297680D02*
X23604220Y-4373880D01*
X23566120Y-4335780D02*
X23642320Y-4335780D01*
X23604220Y-9631680D02*
X23604220Y-9707880D01*
X23566120Y-9669780D02*
X23642320Y-9669780D01*
X23811005Y-4445179D02*
X23811005Y-4521379D01*
X23772905Y-4483279D02*
X23849105Y-4483279D01*
X23811005Y-9779179D02*
X23811005Y-9855379D01*
X23772905Y-9817279D02*
X23849105Y-9817279D01*
X6893356Y-4353356D02*
X6893356Y-4282644D01*
X6822644Y-4282644D01*
X6822644Y-4353356D01*
X6893356Y-4353356D01*
X6893356Y-9687356D02*
X6893356Y-9616644D01*
X6822644Y-9616644D01*
X6822644Y-9687356D01*
X6893356Y-9687356D01*
X7147356Y-4353356D02*
X7147356Y-4282644D01*
X7076644Y-4282644D01*
X7076644Y-4353356D01*
X7147356Y-4353356D01*
X7147356Y-9687356D02*
X7147356Y-9616644D01*
X7076644Y-9616644D01*
X7076644Y-9687356D01*
X7147356Y-9687356D01*
X7401356Y-4353356D02*
X7401356Y-4282644D01*
X7330644Y-4282644D01*
X7330644Y-4353356D01*
X7401356Y-4353356D01*
X7401356Y-9687356D02*
X7401356Y-9616644D01*
X7330644Y-9616644D01*
X7330644Y-9687356D01*
X7401356Y-9687356D01*
X7655356Y-4353356D02*
X7655356Y-4282644D01*
X7584644Y-4282644D01*
X7584644Y-4353356D01*
X7655356Y-4353356D01*
X7655356Y-9687356D02*
X7655356Y-9616644D01*
X7584644Y-9616644D01*
X7584644Y-9687356D01*
X7655356Y-9687356D01*
X7909356Y-4353356D02*
X7909356Y-4282644D01*
X7838644Y-4282644D01*
X7838644Y-4353356D01*
X7909356Y-4353356D01*
X7909356Y-9687356D02*
X7909356Y-9616644D01*
X7838644Y-9616644D01*
X7838644Y-9687356D01*
X7909356Y-9687356D01*
X8137956Y-7579156D02*
X8137956Y-7508444D01*
X8067244Y-7508444D01*
X8067244Y-7579156D01*
X8137956Y-7579156D01*
X8137956Y-12913156D02*
X8137956Y-12842444D01*
X8067244Y-12842444D01*
X8067244Y-12913156D01*
X8137956Y-12913156D01*
X8163356Y-4353356D02*
X8163356Y-4282644D01*
X8092644Y-4282644D01*
X8092644Y-4353356D01*
X8163356Y-4353356D01*
X8163356Y-9687356D02*
X8163356Y-9616644D01*
X8092644Y-9616644D01*
X8092644Y-9687356D01*
X8163356Y-9687356D01*
X8317561Y-7399551D02*
X8317561Y-7328839D01*
X8246849Y-7328839D01*
X8246849Y-7399551D01*
X8317561Y-7399551D01*
X8317561Y-12733551D02*
X8317561Y-12662839D01*
X8246849Y-12662839D01*
X8246849Y-12733551D01*
X8317561Y-12733551D01*
X8417356Y-4353356D02*
X8417356Y-4282644D01*
X8346644Y-4282644D01*
X8346644Y-4353356D01*
X8417356Y-4353356D01*
X8417356Y-9687356D02*
X8417356Y-9616644D01*
X8346644Y-9616644D01*
X8346644Y-9687356D01*
X8417356Y-9687356D01*
X8497166Y-7219945D02*
X8497166Y-7149234D01*
X8426455Y-7149234D01*
X8426455Y-7219945D01*
X8497166Y-7219945D01*
X8497166Y-12553945D02*
X8497166Y-12483234D01*
X8426455Y-12483234D01*
X8426455Y-12553945D01*
X8497166Y-12553945D01*
X8676771Y-7040340D02*
X8676771Y-6969629D01*
X8606060Y-6969629D01*
X8606060Y-7040340D01*
X8676771Y-7040340D01*
X8676771Y-12374340D02*
X8676771Y-12303629D01*
X8606060Y-12303629D01*
X8606060Y-12374340D01*
X8676771Y-12374340D01*
X8856376Y-6860735D02*
X8856376Y-6790024D01*
X8785665Y-6790024D01*
X8785665Y-6860735D01*
X8856376Y-6860735D01*
X8856376Y-12194735D02*
X8856376Y-12124024D01*
X8785665Y-12124024D01*
X8785665Y-12194735D01*
X8856376Y-12194735D01*
X9035981Y-6681130D02*
X9035981Y-6610419D01*
X8965270Y-6610419D01*
X8965270Y-6681130D01*
X9035981Y-6681130D01*
X9035981Y-12015130D02*
X9035981Y-11944419D01*
X8965270Y-11944419D01*
X8965270Y-12015130D01*
X9035981Y-12015130D01*
X10576356Y-4353356D02*
X10576356Y-4282644D01*
X10505644Y-4282644D01*
X10505644Y-4353356D01*
X10576356Y-4353356D01*
X10576356Y-9687356D02*
X10576356Y-9616644D01*
X10505644Y-9616644D01*
X10505644Y-9687356D01*
X10576356Y-9687356D01*
X10830356Y-4353356D02*
X10830356Y-4282644D01*
X10759644Y-4282644D01*
X10759644Y-4353356D01*
X10830356Y-4353356D01*
X10830356Y-9687356D02*
X10830356Y-9616644D01*
X10759644Y-9616644D01*
X10759644Y-9687356D01*
X10830356Y-9687356D01*
X11084356Y-4353356D02*
X11084356Y-4282644D01*
X11013644Y-4282644D01*
X11013644Y-4353356D01*
X11084356Y-4353356D01*
X11084356Y-9687356D02*
X11084356Y-9616644D01*
X11013644Y-9616644D01*
X11013644Y-9687356D01*
X11084356Y-9687356D01*
X11338356Y-4353356D02*
X11338356Y-4282644D01*
X11267644Y-4282644D01*
X11267644Y-4353356D01*
X11338356Y-4353356D01*
X11338356Y-9687356D02*
X11338356Y-9616644D01*
X11267644Y-9616644D01*
X11267644Y-9687356D01*
X11338356Y-9687356D01*
X11592356Y-4353356D02*
X11592356Y-4282644D01*
X11521644Y-4282644D01*
X11521644Y-4353356D01*
X11592356Y-4353356D01*
X11592356Y-9687356D02*
X11592356Y-9616644D01*
X11521644Y-9616644D01*
X11521644Y-9687356D01*
X11592356Y-9687356D01*
X11820956Y-7579156D02*
X11820956Y-7508444D01*
X11750244Y-7508444D01*
X11750244Y-7579156D01*
X11820956Y-7579156D01*
X11820956Y-12913156D02*
X11820956Y-12842444D01*
X11750244Y-12842444D01*
X11750244Y-12913156D01*
X11820956Y-12913156D01*
X11846356Y-4353356D02*
X11846356Y-4282644D01*
X11775644Y-4282644D01*
X11775644Y-4353356D01*
X11846356Y-4353356D01*
X11846356Y-9687356D02*
X11846356Y-9616644D01*
X11775644Y-9616644D01*
X11775644Y-9687356D01*
X11846356Y-9687356D01*
X12000561Y-7399551D02*
X12000561Y-7328839D01*
X11929849Y-7328839D01*
X11929849Y-7399551D01*
X12000561Y-7399551D01*
X12000561Y-12733551D02*
X12000561Y-12662839D01*
X11929849Y-12662839D01*
X11929849Y-12733551D01*
X12000561Y-12733551D01*
X12100356Y-4353356D02*
X12100356Y-4282644D01*
X12029644Y-4282644D01*
X12029644Y-4353356D01*
X12100356Y-4353356D01*
X12100356Y-9687356D02*
X12100356Y-9616644D01*
X12029644Y-9616644D01*
X12029644Y-9687356D01*
X12100356Y-9687356D01*
X12180166Y-7219945D02*
X12180166Y-7149234D01*
X12109454Y-7149234D01*
X12109454Y-7219945D01*
X12180166Y-7219945D01*
X12180166Y-12553945D02*
X12180166Y-12483234D01*
X12109454Y-12483234D01*
X12109454Y-12553945D01*
X12180166Y-12553945D01*
X12359771Y-7040340D02*
X12359771Y-6969629D01*
X12289060Y-6969629D01*
X12289060Y-7040340D01*
X12359771Y-7040340D01*
X12359771Y-12374340D02*
X12359771Y-12303629D01*
X12289060Y-12303629D01*
X12289060Y-12374340D01*
X12359771Y-12374340D01*
X12539376Y-6860735D02*
X12539376Y-6790024D01*
X12468665Y-6790024D01*
X12468665Y-6860735D01*
X12539376Y-6860735D01*
X12539376Y-12194735D02*
X12539376Y-12124024D01*
X12468665Y-12124024D01*
X12468665Y-12194735D01*
X12539376Y-12194735D01*
X12718981Y-6681130D02*
X12718981Y-6610419D01*
X12648270Y-6610419D01*
X12648270Y-6681130D01*
X12718981Y-6681130D01*
X12718981Y-12015130D02*
X12718981Y-11944419D01*
X12648270Y-11944419D01*
X12648270Y-12015130D01*
X12718981Y-12015130D01*
X14259356Y-4353356D02*
X14259356Y-4282644D01*
X14188644Y-4282644D01*
X14188644Y-4353356D01*
X14259356Y-4353356D01*
X14259356Y-9687356D02*
X14259356Y-9616644D01*
X14188644Y-9616644D01*
X14188644Y-9687356D01*
X14259356Y-9687356D01*
X14513356Y-4353356D02*
X14513356Y-4282644D01*
X14442644Y-4282644D01*
X14442644Y-4353356D01*
X14513356Y-4353356D01*
X14513356Y-9687356D02*
X14513356Y-9616644D01*
X14442644Y-9616644D01*
X14442644Y-9687356D01*
X14513356Y-9687356D01*
X14767356Y-4353356D02*
X14767356Y-4282644D01*
X14696644Y-4282644D01*
X14696644Y-4353356D01*
X14767356Y-4353356D01*
X14767356Y-9687356D02*
X14767356Y-9616644D01*
X14696644Y-9616644D01*
X14696644Y-9687356D01*
X14767356Y-9687356D01*
X15021356Y-4353356D02*
X15021356Y-4282644D01*
X14950644Y-4282644D01*
X14950644Y-4353356D01*
X15021356Y-4353356D01*
X15021356Y-9687356D02*
X15021356Y-9616644D01*
X14950644Y-9616644D01*
X14950644Y-9687356D01*
X15021356Y-9687356D01*
X15275356Y-4353356D02*
X15275356Y-4282644D01*
X15204644Y-4282644D01*
X15204644Y-4353356D01*
X15275356Y-4353356D01*
X15275356Y-9687356D02*
X15275356Y-9616644D01*
X15204644Y-9616644D01*
X15204644Y-9687356D01*
X15275356Y-9687356D01*
X15503956Y-7579156D02*
X15503956Y-7508444D01*
X15433244Y-7508444D01*
X15433244Y-7579156D01*
X15503956Y-7579156D01*
X15503956Y-12913156D02*
X15503956Y-12842444D01*
X15433244Y-12842444D01*
X15433244Y-12913156D01*
X15503956Y-12913156D01*
X15529356Y-4353356D02*
X15529356Y-4282644D01*
X15458644Y-4282644D01*
X15458644Y-4353356D01*
X15529356Y-4353356D01*
X15529356Y-9687356D02*
X15529356Y-9616644D01*
X15458644Y-9616644D01*
X15458644Y-9687356D01*
X15529356Y-9687356D01*
X15683561Y-7399551D02*
X15683561Y-7328839D01*
X15612849Y-7328839D01*
X15612849Y-7399551D01*
X15683561Y-7399551D01*
X15683561Y-12733551D02*
X15683561Y-12662839D01*
X15612849Y-12662839D01*
X15612849Y-12733551D01*
X15683561Y-12733551D01*
X15783356Y-4353356D02*
X15783356Y-4282644D01*
X15712644Y-4282644D01*
X15712644Y-4353356D01*
X15783356Y-4353356D01*
X15783356Y-9687356D02*
X15783356Y-9616644D01*
X15712644Y-9616644D01*
X15712644Y-9687356D01*
X15783356Y-9687356D01*
X15863166Y-7219945D02*
X15863166Y-7149234D01*
X15792454Y-7149234D01*
X15792454Y-7219945D01*
X15863166Y-7219945D01*
X15863166Y-12553945D02*
X15863166Y-12483234D01*
X15792454Y-12483234D01*
X15792454Y-12553945D01*
X15863166Y-12553945D01*
X16042771Y-7040340D02*
X16042771Y-6969629D01*
X15972060Y-6969629D01*
X15972060Y-7040340D01*
X16042771Y-7040340D01*
X16042771Y-12374340D02*
X16042771Y-12303629D01*
X15972060Y-12303629D01*
X15972060Y-12374340D01*
X16042771Y-12374340D01*
X16222376Y-6860735D02*
X16222376Y-6790024D01*
X16151665Y-6790024D01*
X16151665Y-6860735D01*
X16222376Y-6860735D01*
X16222376Y-12194735D02*
X16222376Y-12124024D01*
X16151665Y-12124024D01*
X16151665Y-12194735D01*
X16222376Y-12194735D01*
X16401981Y-6681130D02*
X16401981Y-6610419D01*
X16331270Y-6610419D01*
X16331270Y-6681130D01*
X16401981Y-6681130D01*
X16401981Y-12015130D02*
X16401981Y-11944419D01*
X16331270Y-11944419D01*
X16331270Y-12015130D01*
X16401981Y-12015130D01*
X17942356Y-4353356D02*
X17942356Y-4282644D01*
X17871644Y-4282644D01*
X17871644Y-4353356D01*
X17942356Y-4353356D01*
X17942356Y-9687356D02*
X17942356Y-9616644D01*
X17871644Y-9616644D01*
X17871644Y-9687356D01*
X17942356Y-9687356D01*
X18196356Y-4353356D02*
X18196356Y-4282644D01*
X18125644Y-4282644D01*
X18125644Y-4353356D01*
X18196356Y-4353356D01*
X18196356Y-9687356D02*
X18196356Y-9616644D01*
X18125644Y-9616644D01*
X18125644Y-9687356D01*
X18196356Y-9687356D01*
X18450356Y-4353356D02*
X18450356Y-4282644D01*
X18379644Y-4282644D01*
X18379644Y-4353356D01*
X18450356Y-4353356D01*
X18450356Y-9687356D02*
X18450356Y-9616644D01*
X18379644Y-9616644D01*
X18379644Y-9687356D01*
X18450356Y-9687356D01*
X18704356Y-4353356D02*
X18704356Y-4282644D01*
X18633644Y-4282644D01*
X18633644Y-4353356D01*
X18704356Y-4353356D01*
X18704356Y-9687356D02*
X18704356Y-9616644D01*
X18633644Y-9616644D01*
X18633644Y-9687356D01*
X18704356Y-9687356D01*
X18958356Y-4353356D02*
X18958356Y-4282644D01*
X18887644Y-4282644D01*
X18887644Y-4353356D01*
X18958356Y-4353356D01*
X18958356Y-9687356D02*
X18958356Y-9616644D01*
X18887644Y-9616644D01*
X18887644Y-9687356D01*
X18958356Y-9687356D01*
X19186956Y-7579156D02*
X19186956Y-7508444D01*
X19116244Y-7508444D01*
X19116244Y-7579156D01*
X19186956Y-7579156D01*
X19186956Y-12913156D02*
X19186956Y-12842444D01*
X19116244Y-12842444D01*
X19116244Y-12913156D01*
X19186956Y-12913156D01*
X19212356Y-4353356D02*
X19212356Y-4282644D01*
X19141644Y-4282644D01*
X19141644Y-4353356D01*
X19212356Y-4353356D01*
X19212356Y-9687356D02*
X19212356Y-9616644D01*
X19141644Y-9616644D01*
X19141644Y-9687356D01*
X19212356Y-9687356D01*
X19366561Y-7399551D02*
X19366561Y-7328839D01*
X19295849Y-7328839D01*
X19295849Y-7399551D01*
X19366561Y-7399551D01*
X19366561Y-12733551D02*
X19366561Y-12662839D01*
X19295849Y-12662839D01*
X19295849Y-12733551D01*
X19366561Y-12733551D01*
X19466356Y-4353356D02*
X19466356Y-4282644D01*
X19395644Y-4282644D01*
X19395644Y-4353356D01*
X19466356Y-4353356D01*
X19466356Y-9687356D02*
X19466356Y-9616644D01*
X19395644Y-9616644D01*
X19395644Y-9687356D01*
X19466356Y-9687356D01*
X19546166Y-7219945D02*
X19546166Y-7149234D01*
X19475455Y-7149234D01*
X19475455Y-7219945D01*
X19546166Y-7219945D01*
X19546166Y-12553945D02*
X19546166Y-12483234D01*
X19475455Y-12483234D01*
X19475455Y-12553945D01*
X19546166Y-12553945D01*
X19725771Y-7040340D02*
X19725771Y-6969629D01*
X19655060Y-6969629D01*
X19655060Y-7040340D01*
X19725771Y-7040340D01*
X19725771Y-12374340D02*
X19725771Y-12303629D01*
X19655060Y-12303629D01*
X19655060Y-12374340D01*
X19725771Y-12374340D01*
X19905376Y-6860735D02*
X19905376Y-6790024D01*
X19834665Y-6790024D01*
X19834665Y-6860735D01*
X19905376Y-6860735D01*
X19905376Y-12194735D02*
X19905376Y-12124024D01*
X19834665Y-12124024D01*
X19834665Y-12194735D01*
X19905376Y-12194735D01*
X20084981Y-6681130D02*
X20084981Y-6610419D01*
X20014270Y-6610419D01*
X20014270Y-6681130D01*
X20084981Y-6681130D01*
X20084981Y-12015130D02*
X20084981Y-11944419D01*
X20014270Y-11944419D01*
X20014270Y-12015130D01*
X20084981Y-12015130D01*
X21625356Y-4353356D02*
X21625356Y-4282644D01*
X21554644Y-4282644D01*
X21554644Y-4353356D01*
X21625356Y-4353356D01*
X21625356Y-9687356D02*
X21625356Y-9616644D01*
X21554644Y-9616644D01*
X21554644Y-9687356D01*
X21625356Y-9687356D01*
X21879356Y-4353356D02*
X21879356Y-4282644D01*
X21808644Y-4282644D01*
X21808644Y-4353356D01*
X21879356Y-4353356D01*
X21879356Y-9687356D02*
X21879356Y-9616644D01*
X21808644Y-9616644D01*
X21808644Y-9687356D01*
X21879356Y-9687356D01*
X22133356Y-4353356D02*
X22133356Y-4282644D01*
X22062644Y-4282644D01*
X22062644Y-4353356D01*
X22133356Y-4353356D01*
X22133356Y-9687356D02*
X22133356Y-9616644D01*
X22062644Y-9616644D01*
X22062644Y-9687356D01*
X22133356Y-9687356D01*
X22387356Y-4353356D02*
X22387356Y-4282644D01*
X22316644Y-4282644D01*
X22316644Y-4353356D01*
X22387356Y-4353356D01*
X22387356Y-9687356D02*
X22387356Y-9616644D01*
X22316644Y-9616644D01*
X22316644Y-9687356D01*
X22387356Y-9687356D01*
X22641356Y-4353356D02*
X22641356Y-4282644D01*
X22570644Y-4282644D01*
X22570644Y-4353356D01*
X22641356Y-4353356D01*
X22641356Y-9687356D02*
X22641356Y-9616644D01*
X22570644Y-9616644D01*
X22570644Y-9687356D01*
X22641356Y-9687356D01*
X22869956Y-7579156D02*
X22869956Y-7508444D01*
X22799244Y-7508444D01*
X22799244Y-7579156D01*
X22869956Y-7579156D01*
X22869956Y-12913156D02*
X22869956Y-12842444D01*
X22799244Y-12842444D01*
X22799244Y-12913156D01*
X22869956Y-12913156D01*
X22895356Y-4353356D02*
X22895356Y-4282644D01*
X22824644Y-4282644D01*
X22824644Y-4353356D01*
X22895356Y-4353356D01*
X22895356Y-9687356D02*
X22895356Y-9616644D01*
X22824644Y-9616644D01*
X22824644Y-9687356D01*
X22895356Y-9687356D01*
X23049561Y-7399551D02*
X23049561Y-7328839D01*
X22978849Y-7328839D01*
X22978849Y-7399551D01*
X23049561Y-7399551D01*
X23049561Y-12733551D02*
X23049561Y-12662839D01*
X22978849Y-12662839D01*
X22978849Y-12733551D01*
X23049561Y-12733551D01*
X23149356Y-4353356D02*
X23149356Y-4282644D01*
X23078644Y-4282644D01*
X23078644Y-4353356D01*
X23149356Y-4353356D01*
X23149356Y-9687356D02*
X23149356Y-9616644D01*
X23078644Y-9616644D01*
X23078644Y-9687356D01*
X23149356Y-9687356D01*
X23229166Y-7219945D02*
X23229166Y-7149234D01*
X23158454Y-7149234D01*
X23158454Y-7219945D01*
X23229166Y-7219945D01*
X23229166Y-12553945D02*
X23229166Y-12483234D01*
X23158454Y-12483234D01*
X23158454Y-12553945D01*
X23229166Y-12553945D01*
X23408771Y-7040340D02*
X23408771Y-6969629D01*
X23338060Y-6969629D01*
X23338060Y-7040340D01*
X23408771Y-7040340D01*
X23408771Y-12374340D02*
X23408771Y-12303629D01*
X23338060Y-12303629D01*
X23338060Y-12374340D01*
X23408771Y-12374340D01*
X23588376Y-6860735D02*
X23588376Y-6790024D01*
X23517665Y-6790024D01*
X23517665Y-6860735D01*
X23588376Y-6860735D01*
X23588376Y-12194735D02*
X23588376Y-12124024D01*
X23517665Y-12124024D01*
X23517665Y-12194735D01*
X23588376Y-12194735D01*
X23767981Y-6681130D02*
X23767981Y-6610419D01*
X23697270Y-6610419D01*
X23697270Y-6681130D01*
X23767981Y-6681130D01*
X23767981Y-12015130D02*
X23767981Y-11944419D01*
X23697270Y-11944419D01*
X23697270Y-12015130D01*
X23767981Y-12015130D01*
X7260000Y-7978500D02*
X7292500Y-7946000D01*
X7260000Y-7913500D01*
X7227500Y-7946000D01*
X7260000Y-7978500D01*
X7260000Y-13312500D02*
X7292500Y-13280000D01*
X7260000Y-13247500D01*
X7227500Y-13280000D01*
X7260000Y-13312500D01*
X7980000Y-7978500D02*
X8012500Y-7946000D01*
X7980000Y-7913500D01*
X7947500Y-7946000D01*
X7980000Y-7978500D01*
X7965000Y-7968500D02*
X7995000Y-7968500D01*
X7965000Y-7923500D02*
X7995000Y-7923500D01*
X7995000Y-7968500D02*
G75*
G03X7995000Y-7923500I0J22500D01*
G01*
X7965000Y-7923500D02*
G75*
G03X7965000Y-7968500I0J-22500D01*
G01*
X7980000Y-13312500D02*
X8012500Y-13280000D01*
X7980000Y-13247500D01*
X7947500Y-13280000D01*
X7980000Y-13312500D01*
X7965000Y-13302500D02*
X7995000Y-13302500D01*
X7965000Y-13257500D02*
X7995000Y-13257500D01*
X7995000Y-13302500D02*
G75*
G03X7995000Y-13257500I0J22500D01*
G01*
X7965000Y-13257500D02*
G75*
G03X7965000Y-13302500I0J-22500D01*
G01*
X10943000Y-7978500D02*
X10975500Y-7946000D01*
X10943000Y-7913500D01*
X10910500Y-7946000D01*
X10943000Y-7978500D01*
X10943000Y-13312500D02*
X10975500Y-13280000D01*
X10943000Y-13247500D01*
X10910500Y-13280000D01*
X10943000Y-13312500D01*
X11663000Y-7978500D02*
X11695500Y-7946000D01*
X11663000Y-7913500D01*
X11630500Y-7946000D01*
X11663000Y-7978500D01*
X11648000Y-7968500D02*
X11678000Y-7968500D01*
X11648000Y-7923500D02*
X11678000Y-7923500D01*
X11678000Y-7968500D02*
G75*
G03X11678000Y-7923500I0J22500D01*
G01*
X11648000Y-7923500D02*
G75*
G03X11648000Y-7968500I0J-22500D01*
G01*
X11663000Y-13312500D02*
X11695500Y-13280000D01*
X11663000Y-13247500D01*
X11630500Y-13280000D01*
X11663000Y-13312500D01*
X11648000Y-13302500D02*
X11678000Y-13302500D01*
X11648000Y-13257500D02*
X11678000Y-13257500D01*
X11678000Y-13302500D02*
G75*
G03X11678000Y-13257500I0J22500D01*
G01*
X11648000Y-13257500D02*
G75*
G03X11648000Y-13302500I0J-22500D01*
G01*
X14626000Y-7978500D02*
X14658500Y-7946000D01*
X14626000Y-7913500D01*
X14593500Y-7946000D01*
X14626000Y-7978500D01*
X14626000Y-13312500D02*
X14658500Y-13280000D01*
X14626000Y-13247500D01*
X14593500Y-13280000D01*
X14626000Y-13312500D01*
X15346000Y-7978500D02*
X15378500Y-7946000D01*
X15346000Y-7913500D01*
X15313500Y-7946000D01*
X15346000Y-7978500D01*
X15331000Y-7968500D02*
X15361000Y-7968500D01*
X15331000Y-7923500D02*
X15361000Y-7923500D01*
X15361000Y-7968500D02*
G75*
G03X15361000Y-7923500I0J22500D01*
G01*
X15331000Y-7923500D02*
G75*
G03X15331000Y-7968500I0J-22500D01*
G01*
X15346000Y-13312500D02*
X15378500Y-13280000D01*
X15346000Y-13247500D01*
X15313500Y-13280000D01*
X15346000Y-13312500D01*
X15331000Y-13302500D02*
X15361000Y-13302500D01*
X15331000Y-13257500D02*
X15361000Y-13257500D01*
X15361000Y-13302500D02*
G75*
G03X15361000Y-13257500I0J22500D01*
G01*
X15331000Y-13257500D02*
G75*
G03X15331000Y-13302500I0J-22500D01*
G01*
X18309000Y-7978500D02*
X18341500Y-7946000D01*
X18309000Y-7913500D01*
X18276500Y-7946000D01*
X18309000Y-7978500D01*
X18309000Y-13312500D02*
X18341500Y-13280000D01*
X18309000Y-13247500D01*
X18276500Y-13280000D01*
X18309000Y-13312500D01*
X19029000Y-7978500D02*
X19061500Y-7946000D01*
X19029000Y-7913500D01*
X18996500Y-7946000D01*
X19029000Y-7978500D01*
X19014000Y-7968500D02*
X19044000Y-7968500D01*
X19014000Y-7923500D02*
X19044000Y-7923500D01*
X19044000Y-7968500D02*
G75*
G03X19044000Y-7923500I0J22500D01*
G01*
X19014000Y-7923500D02*
G75*
G03X19014000Y-7968500I0J-22500D01*
G01*
X19029000Y-13312500D02*
X19061500Y-13280000D01*
X19029000Y-13247500D01*
X18996500Y-13280000D01*
X19029000Y-13312500D01*
X19014000Y-13302500D02*
X19044000Y-13302500D01*
X19014000Y-13257500D02*
X19044000Y-13257500D01*
X19044000Y-13302500D02*
G75*
G03X19044000Y-13257500I0J22500D01*
G01*
X19014000Y-13257500D02*
G75*
G03X19014000Y-13302500I0J-22500D01*
G01*
X21992000Y-7978500D02*
X22024500Y-7946000D01*
X21992000Y-7913500D01*
X21959500Y-7946000D01*
X21992000Y-7978500D01*
X21992000Y-13312500D02*
X22024500Y-13280000D01*
X21992000Y-13247500D01*
X21959500Y-13280000D01*
X21992000Y-13312500D01*
X22712000Y-7978500D02*
X22744500Y-7946000D01*
X22712000Y-7913500D01*
X22679500Y-7946000D01*
X22712000Y-7978500D01*
X22697000Y-7968500D02*
X22727000Y-7968500D01*
X22697000Y-7923500D02*
X22727000Y-7923500D01*
X22727000Y-7968500D02*
G75*
G03X22727000Y-7923500I0J22500D01*
G01*
X22697000Y-7923500D02*
G75*
G03X22697000Y-7968500I0J-22500D01*
G01*
X22712000Y-13312500D02*
X22744500Y-13280000D01*
X22712000Y-13247500D01*
X22679500Y-13280000D01*
X22712000Y-13312500D01*
X22697000Y-13302500D02*
X22727000Y-13302500D01*
X22697000Y-13257500D02*
X22727000Y-13257500D01*
X22727000Y-13302500D02*
G75*
G03X22727000Y-13257500I0J22500D01*
G01*
X22697000Y-13257500D02*
G75*
G03X22697000Y-13302500I0J-22500D01*
G01*
D13*
X6296428Y-14641334D02*
X6296428Y-14341334D01*
X6367857Y-14341334D01*
X6410714Y-14355620D01*
X6439286Y-14384191D01*
X6453571Y-14412763D01*
X6467857Y-14469906D01*
X6467857Y-14512763D01*
X6453571Y-14569906D01*
X6439286Y-14598477D01*
X6410714Y-14627049D01*
X6367857Y-14641334D01*
X6296428Y-14641334D01*
X6596428Y-14641334D02*
X6596428Y-14441334D01*
X6596428Y-14498477D02*
X6610714Y-14469906D01*
X6625000Y-14455620D01*
X6653571Y-14441334D01*
X6682143Y-14441334D01*
X6782143Y-14641334D02*
X6782143Y-14441334D01*
X6782143Y-14341334D02*
X6767857Y-14355620D01*
X6782143Y-14369906D01*
X6796428Y-14355620D01*
X6782143Y-14341334D01*
X6782143Y-14369906D01*
X6967857Y-14641334D02*
X6939286Y-14627049D01*
X6925000Y-14598477D01*
X6925000Y-14341334D01*
X7125000Y-14641334D02*
X7096428Y-14627049D01*
X7082143Y-14598477D01*
X7082143Y-14341334D01*
X7467857Y-14641334D02*
X7467857Y-14341334D01*
X7567857Y-14555620D01*
X7667857Y-14341334D01*
X7667857Y-14641334D01*
X7939286Y-14641334D02*
X7939286Y-14484191D01*
X7925000Y-14455620D01*
X7896428Y-14441334D01*
X7839286Y-14441334D01*
X7810714Y-14455620D01*
X7939286Y-14627049D02*
X7910714Y-14641334D01*
X7839286Y-14641334D01*
X7810714Y-14627049D01*
X7796428Y-14598477D01*
X7796428Y-14569906D01*
X7810714Y-14541334D01*
X7839286Y-14527049D01*
X7910714Y-14527049D01*
X7939286Y-14512763D01*
X8082143Y-14441334D02*
X8082143Y-14741334D01*
X8082143Y-14455620D02*
X8110714Y-14441334D01*
X8167857Y-14441334D01*
X8196428Y-14455620D01*
X8210714Y-14469906D01*
X8225000Y-14498477D01*
X8225000Y-14584191D01*
X8210714Y-14612763D01*
X8196428Y-14627049D01*
X8167857Y-14641334D01*
X8110714Y-14641334D01*
X8082143Y-14627049D01*
X8353571Y-14612763D02*
X8367857Y-14627049D01*
X8353571Y-14641334D01*
X8339286Y-14627049D01*
X8353571Y-14612763D01*
X8353571Y-14641334D01*
X8353571Y-14455620D02*
X8367857Y-14469906D01*
X8353571Y-14484191D01*
X8339286Y-14469906D01*
X8353571Y-14455620D01*
X8353571Y-14484191D01*
X5985000Y-15115620D02*
X6025000Y-15155620D01*
X6025000Y-15115620D02*
X5985000Y-15155620D01*
X6353571Y-14971334D02*
X6382143Y-14971334D01*
X6410714Y-14985620D01*
X6425000Y-14999906D01*
X6439286Y-15028477D01*
X6453571Y-15085620D01*
X6453571Y-15157049D01*
X6439286Y-15214191D01*
X6425000Y-15242763D01*
X6410714Y-15257049D01*
X6382143Y-15271334D01*
X6353571Y-15271334D01*
X6325000Y-15257049D01*
X6310714Y-15242763D01*
X6296428Y-15214191D01*
X6282143Y-15157049D01*
X6282143Y-15085620D01*
X6296428Y-15028477D01*
X6310714Y-14999906D01*
X6325000Y-14985620D01*
X6353571Y-14971334D01*
X6582143Y-15242763D02*
X6596428Y-15257049D01*
X6582143Y-15271334D01*
X6567857Y-15257049D01*
X6582143Y-15242763D01*
X6582143Y-15271334D01*
X6853571Y-15071334D02*
X6853571Y-15271334D01*
X6782143Y-14957049D02*
X6710714Y-15171334D01*
X6896428Y-15171334D01*
X7067857Y-14971334D02*
X7096428Y-14971334D01*
X7125000Y-14985620D01*
X7139286Y-14999906D01*
X7153571Y-15028477D01*
X7167857Y-15085620D01*
X7167857Y-15157049D01*
X7153571Y-15214191D01*
X7139286Y-15242763D01*
X7125000Y-15257049D01*
X7096428Y-15271334D01*
X7067857Y-15271334D01*
X7039286Y-15257049D01*
X7025000Y-15242763D01*
X7010714Y-15214191D01*
X6996428Y-15157049D01*
X6996428Y-15085620D01*
X7010714Y-15028477D01*
X7025000Y-14999906D01*
X7039286Y-14985620D01*
X7067857Y-14971334D01*
X7296428Y-15271334D02*
X7296428Y-15071334D01*
X7296428Y-15099906D02*
X7310714Y-15085620D01*
X7339286Y-15071334D01*
X7382143Y-15071334D01*
X7410714Y-15085620D01*
X7425000Y-15114191D01*
X7425000Y-15271334D01*
X7425000Y-15114191D02*
X7439286Y-15085620D01*
X7467857Y-15071334D01*
X7510714Y-15071334D01*
X7539286Y-15085620D01*
X7553571Y-15114191D01*
X7553571Y-15271334D01*
X7696428Y-15271334D02*
X7696428Y-15071334D01*
X7696428Y-15099906D02*
X7710714Y-15085620D01*
X7739286Y-15071334D01*
X7782143Y-15071334D01*
X7810714Y-15085620D01*
X7825000Y-15114191D01*
X7825000Y-15271334D01*
X7825000Y-15114191D02*
X7839286Y-15085620D01*
X7867857Y-15071334D01*
X7910714Y-15071334D01*
X7939286Y-15085620D01*
X7953571Y-15114191D01*
X7953571Y-15271334D01*
X8539286Y-14957049D02*
X8282143Y-15342763D01*
X8925000Y-14971334D02*
X8953571Y-14971334D01*
X8982143Y-14985620D01*
X8996428Y-14999906D01*
X9010714Y-15028477D01*
X9025000Y-15085620D01*
X9025000Y-15157049D01*
X9010714Y-15214191D01*
X8996428Y-15242763D01*
X8982143Y-15257049D01*
X8953571Y-15271334D01*
X8925000Y-15271334D01*
X8896428Y-15257049D01*
X8882143Y-15242763D01*
X8867857Y-15214191D01*
X8853571Y-15157049D01*
X8853571Y-15085620D01*
X8867857Y-15028477D01*
X8882143Y-14999906D01*
X8896428Y-14985620D01*
X8925000Y-14971334D01*
X9153571Y-15242763D02*
X9167857Y-15257049D01*
X9153571Y-15271334D01*
X9139286Y-15257049D01*
X9153571Y-15242763D01*
X9153571Y-15271334D01*
X9353571Y-14971334D02*
X9382143Y-14971334D01*
X9410714Y-14985620D01*
X9425000Y-14999906D01*
X9439286Y-15028477D01*
X9453571Y-15085620D01*
X9453571Y-15157049D01*
X9439286Y-15214191D01*
X9425000Y-15242763D01*
X9410714Y-15257049D01*
X9382143Y-15271334D01*
X9353571Y-15271334D01*
X9325000Y-15257049D01*
X9310714Y-15242763D01*
X9296428Y-15214191D01*
X9282143Y-15157049D01*
X9282143Y-15085620D01*
X9296428Y-15028477D01*
X9310714Y-14999906D01*
X9325000Y-14985620D01*
X9353571Y-14971334D01*
X9739286Y-15271334D02*
X9567857Y-15271334D01*
X9653571Y-15271334D02*
X9653571Y-14971334D01*
X9625000Y-15014191D01*
X9596428Y-15042763D01*
X9567857Y-15057049D01*
X9996428Y-14971334D02*
X9939286Y-14971334D01*
X9910714Y-14985620D01*
X9896428Y-14999906D01*
X9867857Y-15042763D01*
X9853571Y-15099906D01*
X9853571Y-15214191D01*
X9867857Y-15242763D01*
X9882143Y-15257049D01*
X9910714Y-15271334D01*
X9967857Y-15271334D01*
X9996428Y-15257049D01*
X10010714Y-15242763D01*
X10025000Y-15214191D01*
X10025000Y-15142763D01*
X10010714Y-15114191D01*
X9996428Y-15099906D01*
X9967857Y-15085620D01*
X9910714Y-15085620D01*
X9882143Y-15099906D01*
X9867857Y-15114191D01*
X9853571Y-15142763D01*
X10139286Y-14971334D02*
X10139286Y-15028477D01*
X10253571Y-14971334D02*
X10253571Y-15028477D01*
X10696428Y-15385620D02*
X10682143Y-15371334D01*
X10653571Y-15328477D01*
X10639286Y-15299906D01*
X10625000Y-15257049D01*
X10610714Y-15185620D01*
X10610714Y-15128477D01*
X10625000Y-15057049D01*
X10639286Y-15014191D01*
X10653571Y-14985620D01*
X10682143Y-14942763D01*
X10696428Y-14928477D01*
X10953571Y-14971334D02*
X10810714Y-14971334D01*
X10796428Y-15114191D01*
X10810714Y-15099906D01*
X10839286Y-15085620D01*
X10910714Y-15085620D01*
X10939286Y-15099906D01*
X10953571Y-15114191D01*
X10967857Y-15142763D01*
X10967857Y-15214191D01*
X10953571Y-15242763D01*
X10939286Y-15257049D01*
X10910714Y-15271334D01*
X10839286Y-15271334D01*
X10810714Y-15257049D01*
X10796428Y-15242763D01*
X11082143Y-14999906D02*
X11096428Y-14985620D01*
X11125000Y-14971334D01*
X11196428Y-14971334D01*
X11225000Y-14985620D01*
X11239285Y-14999906D01*
X11253571Y-15028477D01*
X11253571Y-15057049D01*
X11239285Y-15099906D01*
X11067857Y-15271334D01*
X11253571Y-15271334D01*
X11439285Y-14971334D02*
X11467857Y-14971334D01*
X11496428Y-14985620D01*
X11510714Y-14999906D01*
X11525000Y-15028477D01*
X11539285Y-15085620D01*
X11539285Y-15157049D01*
X11525000Y-15214191D01*
X11510714Y-15242763D01*
X11496428Y-15257049D01*
X11467857Y-15271334D01*
X11439285Y-15271334D01*
X11410714Y-15257049D01*
X11396428Y-15242763D01*
X11382143Y-15214191D01*
X11367857Y-15157049D01*
X11367857Y-15085620D01*
X11382143Y-15028477D01*
X11396428Y-14999906D01*
X11410714Y-14985620D01*
X11439285Y-14971334D01*
X11896428Y-15271334D02*
X11896428Y-14971334D01*
X12025000Y-15271334D02*
X12025000Y-15114191D01*
X12010714Y-15085620D01*
X11982143Y-15071334D01*
X11939285Y-15071334D01*
X11910714Y-15085620D01*
X11896428Y-15099906D01*
X12210714Y-15271334D02*
X12182143Y-15257049D01*
X12167857Y-15242763D01*
X12153571Y-15214191D01*
X12153571Y-15128477D01*
X12167857Y-15099906D01*
X12182143Y-15085620D01*
X12210714Y-15071334D01*
X12253571Y-15071334D01*
X12282143Y-15085620D01*
X12296428Y-15099906D01*
X12310714Y-15128477D01*
X12310714Y-15214191D01*
X12296428Y-15242763D01*
X12282143Y-15257049D01*
X12253571Y-15271334D01*
X12210714Y-15271334D01*
X12482143Y-15271334D02*
X12453571Y-15257049D01*
X12439286Y-15228477D01*
X12439286Y-14971334D01*
X12710714Y-15257049D02*
X12682143Y-15271334D01*
X12625000Y-15271334D01*
X12596428Y-15257049D01*
X12582143Y-15228477D01*
X12582143Y-15114191D01*
X12596428Y-15085620D01*
X12625000Y-15071334D01*
X12682143Y-15071334D01*
X12710714Y-15085620D01*
X12725000Y-15114191D01*
X12725000Y-15142763D01*
X12582143Y-15171334D01*
X12839286Y-15257049D02*
X12867857Y-15271334D01*
X12925000Y-15271334D01*
X12953571Y-15257049D01*
X12967857Y-15228477D01*
X12967857Y-15214191D01*
X12953571Y-15185620D01*
X12925000Y-15171334D01*
X12882143Y-15171334D01*
X12853571Y-15157049D01*
X12839286Y-15128477D01*
X12839286Y-15114191D01*
X12853571Y-15085620D01*
X12882143Y-15071334D01*
X12925000Y-15071334D01*
X12953571Y-15085620D01*
X13067857Y-15385620D02*
X13082143Y-15371334D01*
X13110714Y-15328477D01*
X13125000Y-15299906D01*
X13139286Y-15257049D01*
X13153571Y-15185620D01*
X13153571Y-15128477D01*
X13139286Y-15057049D01*
X13125000Y-15014191D01*
X13110714Y-14985620D01*
X13082143Y-14942763D01*
X13067857Y-14928477D01*
X6025000Y-15531620D02*
G75*
G03X6025000Y-15531620I-25000J0D01*
G01*
X6353571Y-15367334D02*
X6382143Y-15367334D01*
X6410714Y-15381620D01*
X6425000Y-15395906D01*
X6439286Y-15424477D01*
X6453571Y-15481620D01*
X6453571Y-15553049D01*
X6439286Y-15610191D01*
X6425000Y-15638763D01*
X6410714Y-15653049D01*
X6382143Y-15667334D01*
X6353571Y-15667334D01*
X6325000Y-15653049D01*
X6310714Y-15638763D01*
X6296428Y-15610191D01*
X6282143Y-15553049D01*
X6282143Y-15481620D01*
X6296428Y-15424477D01*
X6310714Y-15395906D01*
X6325000Y-15381620D01*
X6353571Y-15367334D01*
X6582143Y-15638763D02*
X6596428Y-15653049D01*
X6582143Y-15667334D01*
X6567857Y-15653049D01*
X6582143Y-15638763D01*
X6582143Y-15667334D01*
X6867857Y-15367334D02*
X6725000Y-15367334D01*
X6710714Y-15510191D01*
X6725000Y-15495906D01*
X6753571Y-15481620D01*
X6825000Y-15481620D01*
X6853571Y-15495906D01*
X6867857Y-15510191D01*
X6882143Y-15538763D01*
X6882143Y-15610191D01*
X6867857Y-15638763D01*
X6853571Y-15653049D01*
X6825000Y-15667334D01*
X6753571Y-15667334D01*
X6725000Y-15653049D01*
X6710714Y-15638763D01*
X7067857Y-15367334D02*
X7096428Y-15367334D01*
X7125000Y-15381620D01*
X7139286Y-15395906D01*
X7153571Y-15424477D01*
X7167857Y-15481620D01*
X7167857Y-15553049D01*
X7153571Y-15610191D01*
X7139286Y-15638763D01*
X7125000Y-15653049D01*
X7096428Y-15667334D01*
X7067857Y-15667334D01*
X7039286Y-15653049D01*
X7025000Y-15638763D01*
X7010714Y-15610191D01*
X6996428Y-15553049D01*
X6996428Y-15481620D01*
X7010714Y-15424477D01*
X7025000Y-15395906D01*
X7039286Y-15381620D01*
X7067857Y-15367334D01*
X7296428Y-15667334D02*
X7296428Y-15467334D01*
X7296428Y-15495906D02*
X7310714Y-15481620D01*
X7339286Y-15467334D01*
X7382143Y-15467334D01*
X7410714Y-15481620D01*
X7425000Y-15510191D01*
X7425000Y-15667334D01*
X7425000Y-15510191D02*
X7439286Y-15481620D01*
X7467857Y-15467334D01*
X7510714Y-15467334D01*
X7539286Y-15481620D01*
X7553571Y-15510191D01*
X7553571Y-15667334D01*
X7696428Y-15667334D02*
X7696428Y-15467334D01*
X7696428Y-15495906D02*
X7710714Y-15481620D01*
X7739286Y-15467334D01*
X7782143Y-15467334D01*
X7810714Y-15481620D01*
X7825000Y-15510191D01*
X7825000Y-15667334D01*
X7825000Y-15510191D02*
X7839286Y-15481620D01*
X7867857Y-15467334D01*
X7910714Y-15467334D01*
X7939286Y-15481620D01*
X7953571Y-15510191D01*
X7953571Y-15667334D01*
X8539286Y-15353049D02*
X8282143Y-15738763D01*
X8925000Y-15367334D02*
X8953571Y-15367334D01*
X8982143Y-15381620D01*
X8996428Y-15395906D01*
X9010714Y-15424477D01*
X9025000Y-15481620D01*
X9025000Y-15553049D01*
X9010714Y-15610191D01*
X8996428Y-15638763D01*
X8982143Y-15653049D01*
X8953571Y-15667334D01*
X8925000Y-15667334D01*
X8896428Y-15653049D01*
X8882143Y-15638763D01*
X8867857Y-15610191D01*
X8853571Y-15553049D01*
X8853571Y-15481620D01*
X8867857Y-15424477D01*
X8882143Y-15395906D01*
X8896428Y-15381620D01*
X8925000Y-15367334D01*
X9153571Y-15638763D02*
X9167857Y-15653049D01*
X9153571Y-15667334D01*
X9139286Y-15653049D01*
X9153571Y-15638763D01*
X9153571Y-15667334D01*
X9353571Y-15367334D02*
X9382143Y-15367334D01*
X9410714Y-15381620D01*
X9425000Y-15395906D01*
X9439286Y-15424477D01*
X9453571Y-15481620D01*
X9453571Y-15553049D01*
X9439286Y-15610191D01*
X9425000Y-15638763D01*
X9410714Y-15653049D01*
X9382143Y-15667334D01*
X9353571Y-15667334D01*
X9325000Y-15653049D01*
X9310714Y-15638763D01*
X9296428Y-15610191D01*
X9282143Y-15553049D01*
X9282143Y-15481620D01*
X9296428Y-15424477D01*
X9310714Y-15395906D01*
X9325000Y-15381620D01*
X9353571Y-15367334D01*
X9567857Y-15395906D02*
X9582143Y-15381620D01*
X9610714Y-15367334D01*
X9682143Y-15367334D01*
X9710714Y-15381620D01*
X9725000Y-15395906D01*
X9739286Y-15424477D01*
X9739286Y-15453049D01*
X9725000Y-15495906D01*
X9553571Y-15667334D01*
X9739286Y-15667334D01*
X9925000Y-15367334D02*
X9953571Y-15367334D01*
X9982143Y-15381620D01*
X9996428Y-15395906D01*
X10010714Y-15424477D01*
X10025000Y-15481620D01*
X10025000Y-15553049D01*
X10010714Y-15610191D01*
X9996428Y-15638763D01*
X9982143Y-15653049D01*
X9953571Y-15667334D01*
X9925000Y-15667334D01*
X9896428Y-15653049D01*
X9882143Y-15638763D01*
X9867857Y-15610191D01*
X9853571Y-15553049D01*
X9853571Y-15481620D01*
X9867857Y-15424477D01*
X9882143Y-15395906D01*
X9896428Y-15381620D01*
X9925000Y-15367334D01*
X10139286Y-15367334D02*
X10139286Y-15424477D01*
X10253571Y-15367334D02*
X10253571Y-15424477D01*
X10696428Y-15781620D02*
X10682143Y-15767334D01*
X10653571Y-15724477D01*
X10639286Y-15695906D01*
X10625000Y-15653049D01*
X10610714Y-15581620D01*
X10610714Y-15524477D01*
X10625000Y-15453049D01*
X10639286Y-15410191D01*
X10653571Y-15381620D01*
X10682143Y-15338763D01*
X10696428Y-15324477D01*
X10939286Y-15367334D02*
X10882143Y-15367334D01*
X10853571Y-15381620D01*
X10839286Y-15395906D01*
X10810714Y-15438763D01*
X10796428Y-15495906D01*
X10796428Y-15610191D01*
X10810714Y-15638763D01*
X10825000Y-15653049D01*
X10853571Y-15667334D01*
X10910714Y-15667334D01*
X10939286Y-15653049D01*
X10953571Y-15638763D01*
X10967857Y-15610191D01*
X10967857Y-15538763D01*
X10953571Y-15510191D01*
X10939286Y-15495906D01*
X10910714Y-15481620D01*
X10853571Y-15481620D01*
X10825000Y-15495906D01*
X10810714Y-15510191D01*
X10796428Y-15538763D01*
X11153571Y-15367334D02*
X11182143Y-15367334D01*
X11210714Y-15381620D01*
X11225000Y-15395906D01*
X11239285Y-15424477D01*
X11253571Y-15481620D01*
X11253571Y-15553049D01*
X11239285Y-15610191D01*
X11225000Y-15638763D01*
X11210714Y-15653049D01*
X11182143Y-15667334D01*
X11153571Y-15667334D01*
X11125000Y-15653049D01*
X11110714Y-15638763D01*
X11096428Y-15610191D01*
X11082143Y-15553049D01*
X11082143Y-15481620D01*
X11096428Y-15424477D01*
X11110714Y-15395906D01*
X11125000Y-15381620D01*
X11153571Y-15367334D01*
X11610714Y-15667334D02*
X11610714Y-15367334D01*
X11739285Y-15667334D02*
X11739285Y-15510191D01*
X11725000Y-15481620D01*
X11696428Y-15467334D01*
X11653571Y-15467334D01*
X11625000Y-15481620D01*
X11610714Y-15495906D01*
X11925000Y-15667334D02*
X11896428Y-15653049D01*
X11882143Y-15638763D01*
X11867857Y-15610191D01*
X11867857Y-15524477D01*
X11882143Y-15495906D01*
X11896428Y-15481620D01*
X11925000Y-15467334D01*
X11967857Y-15467334D01*
X11996428Y-15481620D01*
X12010714Y-15495906D01*
X12025000Y-15524477D01*
X12025000Y-15610191D01*
X12010714Y-15638763D01*
X11996428Y-15653049D01*
X11967857Y-15667334D01*
X11925000Y-15667334D01*
X12196428Y-15667334D02*
X12167857Y-15653049D01*
X12153571Y-15624477D01*
X12153571Y-15367334D01*
X12425000Y-15653049D02*
X12396428Y-15667334D01*
X12339286Y-15667334D01*
X12310714Y-15653049D01*
X12296428Y-15624477D01*
X12296428Y-15510191D01*
X12310714Y-15481620D01*
X12339286Y-15467334D01*
X12396428Y-15467334D01*
X12425000Y-15481620D01*
X12439286Y-15510191D01*
X12439286Y-15538763D01*
X12296428Y-15567334D01*
X12553571Y-15653049D02*
X12582143Y-15667334D01*
X12639286Y-15667334D01*
X12667857Y-15653049D01*
X12682143Y-15624477D01*
X12682143Y-15610191D01*
X12667857Y-15581620D01*
X12639286Y-15567334D01*
X12596428Y-15567334D01*
X12567857Y-15553049D01*
X12553571Y-15524477D01*
X12553571Y-15510191D01*
X12567857Y-15481620D01*
X12596428Y-15467334D01*
X12639286Y-15467334D01*
X12667857Y-15481620D01*
X13039286Y-15553049D02*
X13267857Y-15553049D01*
X13153571Y-15667334D02*
X13153571Y-15438763D01*
X13767857Y-15467334D02*
X13767857Y-15667334D01*
X13696428Y-15353049D02*
X13625000Y-15567334D01*
X13810714Y-15567334D01*
X13982143Y-15367334D02*
X14010714Y-15367334D01*
X14039286Y-15381620D01*
X14053571Y-15395906D01*
X14067857Y-15424477D01*
X14082143Y-15481620D01*
X14082143Y-15553049D01*
X14067857Y-15610191D01*
X14053571Y-15638763D01*
X14039286Y-15653049D01*
X14010714Y-15667334D01*
X13982143Y-15667334D01*
X13953571Y-15653049D01*
X13939286Y-15638763D01*
X13925000Y-15610191D01*
X13910714Y-15553049D01*
X13910714Y-15481620D01*
X13925000Y-15424477D01*
X13939286Y-15395906D01*
X13953571Y-15381620D01*
X13982143Y-15367334D01*
X14425000Y-15653049D02*
X14453571Y-15667334D01*
X14510714Y-15667334D01*
X14539286Y-15653049D01*
X14553571Y-15624477D01*
X14553571Y-15610191D01*
X14539286Y-15581620D01*
X14510714Y-15567334D01*
X14467857Y-15567334D01*
X14439286Y-15553049D01*
X14425000Y-15524477D01*
X14425000Y-15510191D01*
X14439286Y-15481620D01*
X14467857Y-15467334D01*
X14510714Y-15467334D01*
X14539286Y-15481620D01*
X14725000Y-15667334D02*
X14696428Y-15653049D01*
X14682143Y-15624477D01*
X14682143Y-15367334D01*
X14882143Y-15667334D02*
X14853571Y-15653049D01*
X14839286Y-15638763D01*
X14825000Y-15610191D01*
X14825000Y-15524477D01*
X14839286Y-15495906D01*
X14853571Y-15481620D01*
X14882143Y-15467334D01*
X14925000Y-15467334D01*
X14953571Y-15481620D01*
X14967857Y-15495906D01*
X14982143Y-15524477D01*
X14982143Y-15610191D01*
X14967857Y-15638763D01*
X14953571Y-15653049D01*
X14925000Y-15667334D01*
X14882143Y-15667334D01*
X15067857Y-15467334D02*
X15182143Y-15467334D01*
X15110714Y-15367334D02*
X15110714Y-15624477D01*
X15125000Y-15653049D01*
X15153571Y-15667334D01*
X15182143Y-15667334D01*
X15267857Y-15653049D02*
X15296428Y-15667334D01*
X15353571Y-15667334D01*
X15382143Y-15653049D01*
X15396428Y-15624477D01*
X15396428Y-15610191D01*
X15382143Y-15581620D01*
X15353571Y-15567334D01*
X15310714Y-15567334D01*
X15282143Y-15553049D01*
X15267857Y-15524477D01*
X15267857Y-15510191D01*
X15282143Y-15481620D01*
X15310714Y-15467334D01*
X15353571Y-15467334D01*
X15382143Y-15481620D01*
X15496428Y-15781620D02*
X15510714Y-15767334D01*
X15539286Y-15724477D01*
X15553571Y-15695906D01*
X15567857Y-15653049D01*
X15582143Y-15581620D01*
X15582143Y-15524477D01*
X15567857Y-15453049D01*
X15553571Y-15410191D01*
X15539286Y-15381620D01*
X15510714Y-15338763D01*
X15496428Y-15324477D01*
X5986900Y-15889520D02*
X5986900Y-15965720D01*
X5948800Y-15927620D02*
X6025000Y-15927620D01*
X6353571Y-15763334D02*
X6382143Y-15763334D01*
X6410714Y-15777620D01*
X6425000Y-15791906D01*
X6439286Y-15820477D01*
X6453571Y-15877620D01*
X6453571Y-15949049D01*
X6439286Y-16006191D01*
X6425000Y-16034763D01*
X6410714Y-16049049D01*
X6382143Y-16063334D01*
X6353571Y-16063334D01*
X6325000Y-16049049D01*
X6310714Y-16034763D01*
X6296428Y-16006191D01*
X6282143Y-15949049D01*
X6282143Y-15877620D01*
X6296428Y-15820477D01*
X6310714Y-15791906D01*
X6325000Y-15777620D01*
X6353571Y-15763334D01*
X6582143Y-16034763D02*
X6596428Y-16049049D01*
X6582143Y-16063334D01*
X6567857Y-16049049D01*
X6582143Y-16034763D01*
X6582143Y-16063334D01*
X6696428Y-15763334D02*
X6896428Y-15763334D01*
X6767857Y-16063334D01*
X7139286Y-15763334D02*
X7082143Y-15763334D01*
X7053571Y-15777620D01*
X7039286Y-15791906D01*
X7010714Y-15834763D01*
X6996428Y-15891906D01*
X6996428Y-16006191D01*
X7010714Y-16034763D01*
X7025000Y-16049049D01*
X7053571Y-16063334D01*
X7110714Y-16063334D01*
X7139286Y-16049049D01*
X7153571Y-16034763D01*
X7167857Y-16006191D01*
X7167857Y-15934763D01*
X7153571Y-15906191D01*
X7139286Y-15891906D01*
X7110714Y-15877620D01*
X7053571Y-15877620D01*
X7025000Y-15891906D01*
X7010714Y-15906191D01*
X6996428Y-15934763D01*
X7296428Y-16063334D02*
X7296428Y-15863334D01*
X7296428Y-15891906D02*
X7310714Y-15877620D01*
X7339286Y-15863334D01*
X7382143Y-15863334D01*
X7410714Y-15877620D01*
X7425000Y-15906191D01*
X7425000Y-16063334D01*
X7425000Y-15906191D02*
X7439286Y-15877620D01*
X7467857Y-15863334D01*
X7510714Y-15863334D01*
X7539286Y-15877620D01*
X7553571Y-15906191D01*
X7553571Y-16063334D01*
X7696428Y-16063334D02*
X7696428Y-15863334D01*
X7696428Y-15891906D02*
X7710714Y-15877620D01*
X7739286Y-15863334D01*
X7782143Y-15863334D01*
X7810714Y-15877620D01*
X7825000Y-15906191D01*
X7825000Y-16063334D01*
X7825000Y-15906191D02*
X7839286Y-15877620D01*
X7867857Y-15863334D01*
X7910714Y-15863334D01*
X7939286Y-15877620D01*
X7953571Y-15906191D01*
X7953571Y-16063334D01*
X8539286Y-15749049D02*
X8282143Y-16134763D01*
X8925000Y-15763334D02*
X8953571Y-15763334D01*
X8982143Y-15777620D01*
X8996428Y-15791906D01*
X9010714Y-15820477D01*
X9025000Y-15877620D01*
X9025000Y-15949049D01*
X9010714Y-16006191D01*
X8996428Y-16034763D01*
X8982143Y-16049049D01*
X8953571Y-16063334D01*
X8925000Y-16063334D01*
X8896428Y-16049049D01*
X8882143Y-16034763D01*
X8867857Y-16006191D01*
X8853571Y-15949049D01*
X8853571Y-15877620D01*
X8867857Y-15820477D01*
X8882143Y-15791906D01*
X8896428Y-15777620D01*
X8925000Y-15763334D01*
X9153571Y-16034763D02*
X9167857Y-16049049D01*
X9153571Y-16063334D01*
X9139286Y-16049049D01*
X9153571Y-16034763D01*
X9153571Y-16063334D01*
X9353571Y-15763334D02*
X9382143Y-15763334D01*
X9410714Y-15777620D01*
X9425000Y-15791906D01*
X9439286Y-15820477D01*
X9453571Y-15877620D01*
X9453571Y-15949049D01*
X9439286Y-16006191D01*
X9425000Y-16034763D01*
X9410714Y-16049049D01*
X9382143Y-16063334D01*
X9353571Y-16063334D01*
X9325000Y-16049049D01*
X9310714Y-16034763D01*
X9296428Y-16006191D01*
X9282143Y-15949049D01*
X9282143Y-15877620D01*
X9296428Y-15820477D01*
X9310714Y-15791906D01*
X9325000Y-15777620D01*
X9353571Y-15763334D01*
X9553571Y-15763334D02*
X9739286Y-15763334D01*
X9639286Y-15877620D01*
X9682143Y-15877620D01*
X9710714Y-15891906D01*
X9725000Y-15906191D01*
X9739286Y-15934763D01*
X9739286Y-16006191D01*
X9725000Y-16034763D01*
X9710714Y-16049049D01*
X9682143Y-16063334D01*
X9596428Y-16063334D01*
X9567857Y-16049049D01*
X9553571Y-16034763D01*
X9925000Y-15763334D02*
X9953571Y-15763334D01*
X9982143Y-15777620D01*
X9996428Y-15791906D01*
X10010714Y-15820477D01*
X10025000Y-15877620D01*
X10025000Y-15949049D01*
X10010714Y-16006191D01*
X9996428Y-16034763D01*
X9982143Y-16049049D01*
X9953571Y-16063334D01*
X9925000Y-16063334D01*
X9896428Y-16049049D01*
X9882143Y-16034763D01*
X9867857Y-16006191D01*
X9853571Y-15949049D01*
X9853571Y-15877620D01*
X9867857Y-15820477D01*
X9882143Y-15791906D01*
X9896428Y-15777620D01*
X9925000Y-15763334D01*
X10139286Y-15763334D02*
X10139286Y-15820477D01*
X10253571Y-15763334D02*
X10253571Y-15820477D01*
X10696428Y-16177620D02*
X10682143Y-16163334D01*
X10653571Y-16120477D01*
X10639286Y-16091906D01*
X10625000Y-16049049D01*
X10610714Y-15977620D01*
X10610714Y-15920477D01*
X10625000Y-15849049D01*
X10639286Y-15806191D01*
X10653571Y-15777620D01*
X10682143Y-15734763D01*
X10696428Y-15720477D01*
X10939286Y-15763334D02*
X10882143Y-15763334D01*
X10853571Y-15777620D01*
X10839286Y-15791906D01*
X10810714Y-15834763D01*
X10796428Y-15891906D01*
X10796428Y-16006191D01*
X10810714Y-16034763D01*
X10825000Y-16049049D01*
X10853571Y-16063334D01*
X10910714Y-16063334D01*
X10939286Y-16049049D01*
X10953571Y-16034763D01*
X10967857Y-16006191D01*
X10967857Y-15934763D01*
X10953571Y-15906191D01*
X10939286Y-15891906D01*
X10910714Y-15877620D01*
X10853571Y-15877620D01*
X10825000Y-15891906D01*
X10810714Y-15906191D01*
X10796428Y-15934763D01*
X11153571Y-15763334D02*
X11182143Y-15763334D01*
X11210714Y-15777620D01*
X11225000Y-15791906D01*
X11239285Y-15820477D01*
X11253571Y-15877620D01*
X11253571Y-15949049D01*
X11239285Y-16006191D01*
X11225000Y-16034763D01*
X11210714Y-16049049D01*
X11182143Y-16063334D01*
X11153571Y-16063334D01*
X11125000Y-16049049D01*
X11110714Y-16034763D01*
X11096428Y-16006191D01*
X11082143Y-15949049D01*
X11082143Y-15877620D01*
X11096428Y-15820477D01*
X11110714Y-15791906D01*
X11125000Y-15777620D01*
X11153571Y-15763334D01*
X11610714Y-16063334D02*
X11610714Y-15763334D01*
X11739285Y-16063334D02*
X11739285Y-15906191D01*
X11725000Y-15877620D01*
X11696428Y-15863334D01*
X11653571Y-15863334D01*
X11625000Y-15877620D01*
X11610714Y-15891906D01*
X11925000Y-16063334D02*
X11896428Y-16049049D01*
X11882143Y-16034763D01*
X11867857Y-16006191D01*
X11867857Y-15920477D01*
X11882143Y-15891906D01*
X11896428Y-15877620D01*
X11925000Y-15863334D01*
X11967857Y-15863334D01*
X11996428Y-15877620D01*
X12010714Y-15891906D01*
X12025000Y-15920477D01*
X12025000Y-16006191D01*
X12010714Y-16034763D01*
X11996428Y-16049049D01*
X11967857Y-16063334D01*
X11925000Y-16063334D01*
X12196428Y-16063334D02*
X12167857Y-16049049D01*
X12153571Y-16020477D01*
X12153571Y-15763334D01*
X12425000Y-16049049D02*
X12396428Y-16063334D01*
X12339286Y-16063334D01*
X12310714Y-16049049D01*
X12296428Y-16020477D01*
X12296428Y-15906191D01*
X12310714Y-15877620D01*
X12339286Y-15863334D01*
X12396428Y-15863334D01*
X12425000Y-15877620D01*
X12439286Y-15906191D01*
X12439286Y-15934763D01*
X12296428Y-15963334D01*
X12553571Y-16049049D02*
X12582143Y-16063334D01*
X12639286Y-16063334D01*
X12667857Y-16049049D01*
X12682143Y-16020477D01*
X12682143Y-16006191D01*
X12667857Y-15977620D01*
X12639286Y-15963334D01*
X12596428Y-15963334D01*
X12567857Y-15949049D01*
X12553571Y-15920477D01*
X12553571Y-15906191D01*
X12567857Y-15877620D01*
X12596428Y-15863334D01*
X12639286Y-15863334D01*
X12667857Y-15877620D01*
X12782143Y-16177620D02*
X12796428Y-16163334D01*
X12825000Y-16120477D01*
X12839286Y-16091906D01*
X12853571Y-16049049D01*
X12867857Y-15977620D01*
X12867857Y-15920477D01*
X12853571Y-15849049D01*
X12839286Y-15806191D01*
X12825000Y-15777620D01*
X12796428Y-15734763D01*
X12782143Y-15720477D01*
X6010356Y-16358976D02*
X6010356Y-16288264D01*
X5939644Y-16288264D01*
X5939644Y-16358976D01*
X6010356Y-16358976D01*
X6453571Y-16459334D02*
X6282143Y-16459334D01*
X6367857Y-16459334D02*
X6367857Y-16159334D01*
X6339286Y-16202191D01*
X6310714Y-16230763D01*
X6282143Y-16245049D01*
X6582143Y-16430763D02*
X6596428Y-16445049D01*
X6582143Y-16459334D01*
X6567857Y-16445049D01*
X6582143Y-16430763D01*
X6582143Y-16459334D01*
X6782143Y-16159334D02*
X6810714Y-16159334D01*
X6839286Y-16173620D01*
X6853571Y-16187906D01*
X6867857Y-16216477D01*
X6882143Y-16273620D01*
X6882143Y-16345049D01*
X6867857Y-16402191D01*
X6853571Y-16430763D01*
X6839286Y-16445049D01*
X6810714Y-16459334D01*
X6782143Y-16459334D01*
X6753571Y-16445049D01*
X6739286Y-16430763D01*
X6725000Y-16402191D01*
X6710714Y-16345049D01*
X6710714Y-16273620D01*
X6725000Y-16216477D01*
X6739286Y-16187906D01*
X6753571Y-16173620D01*
X6782143Y-16159334D01*
X7067857Y-16159334D02*
X7096428Y-16159334D01*
X7125000Y-16173620D01*
X7139286Y-16187906D01*
X7153571Y-16216477D01*
X7167857Y-16273620D01*
X7167857Y-16345049D01*
X7153571Y-16402191D01*
X7139286Y-16430763D01*
X7125000Y-16445049D01*
X7096428Y-16459334D01*
X7067857Y-16459334D01*
X7039286Y-16445049D01*
X7025000Y-16430763D01*
X7010714Y-16402191D01*
X6996428Y-16345049D01*
X6996428Y-16273620D01*
X7010714Y-16216477D01*
X7025000Y-16187906D01*
X7039286Y-16173620D01*
X7067857Y-16159334D01*
X7296428Y-16459334D02*
X7296428Y-16259334D01*
X7296428Y-16287906D02*
X7310714Y-16273620D01*
X7339286Y-16259334D01*
X7382143Y-16259334D01*
X7410714Y-16273620D01*
X7425000Y-16302191D01*
X7425000Y-16459334D01*
X7425000Y-16302191D02*
X7439286Y-16273620D01*
X7467857Y-16259334D01*
X7510714Y-16259334D01*
X7539286Y-16273620D01*
X7553571Y-16302191D01*
X7553571Y-16459334D01*
X7696428Y-16459334D02*
X7696428Y-16259334D01*
X7696428Y-16287906D02*
X7710714Y-16273620D01*
X7739286Y-16259334D01*
X7782143Y-16259334D01*
X7810714Y-16273620D01*
X7825000Y-16302191D01*
X7825000Y-16459334D01*
X7825000Y-16302191D02*
X7839286Y-16273620D01*
X7867857Y-16259334D01*
X7910714Y-16259334D01*
X7939286Y-16273620D01*
X7953571Y-16302191D01*
X7953571Y-16459334D01*
X8539286Y-16145049D02*
X8282143Y-16530763D01*
X8925000Y-16159334D02*
X8953571Y-16159334D01*
X8982143Y-16173620D01*
X8996428Y-16187906D01*
X9010714Y-16216477D01*
X9025000Y-16273620D01*
X9025000Y-16345049D01*
X9010714Y-16402191D01*
X8996428Y-16430763D01*
X8982143Y-16445049D01*
X8953571Y-16459334D01*
X8925000Y-16459334D01*
X8896428Y-16445049D01*
X8882143Y-16430763D01*
X8867857Y-16402191D01*
X8853571Y-16345049D01*
X8853571Y-16273620D01*
X8867857Y-16216477D01*
X8882143Y-16187906D01*
X8896428Y-16173620D01*
X8925000Y-16159334D01*
X9153571Y-16430763D02*
X9167857Y-16445049D01*
X9153571Y-16459334D01*
X9139286Y-16445049D01*
X9153571Y-16430763D01*
X9153571Y-16459334D01*
X9353571Y-16159334D02*
X9382143Y-16159334D01*
X9410714Y-16173620D01*
X9425000Y-16187906D01*
X9439286Y-16216477D01*
X9453571Y-16273620D01*
X9453571Y-16345049D01*
X9439286Y-16402191D01*
X9425000Y-16430763D01*
X9410714Y-16445049D01*
X9382143Y-16459334D01*
X9353571Y-16459334D01*
X9325000Y-16445049D01*
X9310714Y-16430763D01*
X9296428Y-16402191D01*
X9282143Y-16345049D01*
X9282143Y-16273620D01*
X9296428Y-16216477D01*
X9310714Y-16187906D01*
X9325000Y-16173620D01*
X9353571Y-16159334D01*
X9553571Y-16159334D02*
X9739286Y-16159334D01*
X9639286Y-16273620D01*
X9682143Y-16273620D01*
X9710714Y-16287906D01*
X9725000Y-16302191D01*
X9739286Y-16330763D01*
X9739286Y-16402191D01*
X9725000Y-16430763D01*
X9710714Y-16445049D01*
X9682143Y-16459334D01*
X9596428Y-16459334D01*
X9567857Y-16445049D01*
X9553571Y-16430763D01*
X9882143Y-16459334D02*
X9939286Y-16459334D01*
X9967857Y-16445049D01*
X9982143Y-16430763D01*
X10010714Y-16387906D01*
X10025000Y-16330763D01*
X10025000Y-16216477D01*
X10010714Y-16187906D01*
X9996428Y-16173620D01*
X9967857Y-16159334D01*
X9910714Y-16159334D01*
X9882143Y-16173620D01*
X9867857Y-16187906D01*
X9853571Y-16216477D01*
X9853571Y-16287906D01*
X9867857Y-16316477D01*
X9882143Y-16330763D01*
X9910714Y-16345049D01*
X9967857Y-16345049D01*
X9996428Y-16330763D01*
X10010714Y-16316477D01*
X10025000Y-16287906D01*
X10139286Y-16159334D02*
X10139286Y-16216477D01*
X10253571Y-16159334D02*
X10253571Y-16216477D01*
X10696428Y-16573620D02*
X10682143Y-16559334D01*
X10653571Y-16516477D01*
X10639286Y-16487906D01*
X10625000Y-16445049D01*
X10610714Y-16373620D01*
X10610714Y-16316477D01*
X10625000Y-16245049D01*
X10639286Y-16202191D01*
X10653571Y-16173620D01*
X10682143Y-16130763D01*
X10696428Y-16116477D01*
X10967857Y-16459334D02*
X10796428Y-16459334D01*
X10882143Y-16459334D02*
X10882143Y-16159334D01*
X10853571Y-16202191D01*
X10825000Y-16230763D01*
X10796428Y-16245049D01*
X11067857Y-16159334D02*
X11253571Y-16159334D01*
X11153571Y-16273620D01*
X11196428Y-16273620D01*
X11225000Y-16287906D01*
X11239285Y-16302191D01*
X11253571Y-16330763D01*
X11253571Y-16402191D01*
X11239285Y-16430763D01*
X11225000Y-16445049D01*
X11196428Y-16459334D01*
X11110714Y-16459334D01*
X11082143Y-16445049D01*
X11067857Y-16430763D01*
X11439285Y-16159334D02*
X11467857Y-16159334D01*
X11496428Y-16173620D01*
X11510714Y-16187906D01*
X11525000Y-16216477D01*
X11539285Y-16273620D01*
X11539285Y-16345049D01*
X11525000Y-16402191D01*
X11510714Y-16430763D01*
X11496428Y-16445049D01*
X11467857Y-16459334D01*
X11439285Y-16459334D01*
X11410714Y-16445049D01*
X11396428Y-16430763D01*
X11382143Y-16402191D01*
X11367857Y-16345049D01*
X11367857Y-16273620D01*
X11382143Y-16216477D01*
X11396428Y-16187906D01*
X11410714Y-16173620D01*
X11439285Y-16159334D01*
X11896428Y-16459334D02*
X11896428Y-16159334D01*
X12025000Y-16459334D02*
X12025000Y-16302191D01*
X12010714Y-16273620D01*
X11982143Y-16259334D01*
X11939285Y-16259334D01*
X11910714Y-16273620D01*
X11896428Y-16287906D01*
X12210714Y-16459334D02*
X12182143Y-16445049D01*
X12167857Y-16430763D01*
X12153571Y-16402191D01*
X12153571Y-16316477D01*
X12167857Y-16287906D01*
X12182143Y-16273620D01*
X12210714Y-16259334D01*
X12253571Y-16259334D01*
X12282143Y-16273620D01*
X12296428Y-16287906D01*
X12310714Y-16316477D01*
X12310714Y-16402191D01*
X12296428Y-16430763D01*
X12282143Y-16445049D01*
X12253571Y-16459334D01*
X12210714Y-16459334D01*
X12482143Y-16459334D02*
X12453571Y-16445049D01*
X12439286Y-16416477D01*
X12439286Y-16159334D01*
X12710714Y-16445049D02*
X12682143Y-16459334D01*
X12625000Y-16459334D01*
X12596428Y-16445049D01*
X12582143Y-16416477D01*
X12582143Y-16302191D01*
X12596428Y-16273620D01*
X12625000Y-16259334D01*
X12682143Y-16259334D01*
X12710714Y-16273620D01*
X12725000Y-16302191D01*
X12725000Y-16330763D01*
X12582143Y-16359334D01*
X12839286Y-16445049D02*
X12867857Y-16459334D01*
X12925000Y-16459334D01*
X12953571Y-16445049D01*
X12967857Y-16416477D01*
X12967857Y-16402191D01*
X12953571Y-16373620D01*
X12925000Y-16359334D01*
X12882143Y-16359334D01*
X12853571Y-16345049D01*
X12839286Y-16316477D01*
X12839286Y-16302191D01*
X12853571Y-16273620D01*
X12882143Y-16259334D01*
X12925000Y-16259334D01*
X12953571Y-16273620D01*
X13067857Y-16573620D02*
X13082143Y-16559334D01*
X13110714Y-16516477D01*
X13125000Y-16487906D01*
X13139286Y-16445049D01*
X13153571Y-16373620D01*
X13153571Y-16316477D01*
X13139286Y-16245049D01*
X13125000Y-16202191D01*
X13110714Y-16173620D01*
X13082143Y-16130763D01*
X13067857Y-16116477D01*
X5992500Y-16752120D02*
X6025000Y-16719620D01*
X5992500Y-16687120D01*
X5960000Y-16719620D01*
X5992500Y-16752120D01*
X6353571Y-16555334D02*
X6382143Y-16555334D01*
X6410714Y-16569620D01*
X6425000Y-16583906D01*
X6439286Y-16612477D01*
X6453571Y-16669620D01*
X6453571Y-16741049D01*
X6439286Y-16798192D01*
X6425000Y-16826763D01*
X6410714Y-16841049D01*
X6382143Y-16855334D01*
X6353571Y-16855334D01*
X6325000Y-16841049D01*
X6310714Y-16826763D01*
X6296428Y-16798192D01*
X6282143Y-16741049D01*
X6282143Y-16669620D01*
X6296428Y-16612477D01*
X6310714Y-16583906D01*
X6325000Y-16569620D01*
X6353571Y-16555334D01*
X6582143Y-16826763D02*
X6596428Y-16841049D01*
X6582143Y-16855334D01*
X6567857Y-16841049D01*
X6582143Y-16826763D01*
X6582143Y-16855334D01*
X6853571Y-16555334D02*
X6796428Y-16555334D01*
X6767857Y-16569620D01*
X6753571Y-16583906D01*
X6725000Y-16626763D01*
X6710714Y-16683906D01*
X6710714Y-16798192D01*
X6725000Y-16826763D01*
X6739286Y-16841049D01*
X6767857Y-16855334D01*
X6825000Y-16855334D01*
X6853571Y-16841049D01*
X6867857Y-16826763D01*
X6882143Y-16798192D01*
X6882143Y-16726763D01*
X6867857Y-16698191D01*
X6853571Y-16683906D01*
X6825000Y-16669620D01*
X6767857Y-16669620D01*
X6739286Y-16683906D01*
X6725000Y-16698191D01*
X6710714Y-16726763D01*
X7153571Y-16555334D02*
X7010714Y-16555334D01*
X6996428Y-16698191D01*
X7010714Y-16683906D01*
X7039286Y-16669620D01*
X7110714Y-16669620D01*
X7139286Y-16683906D01*
X7153571Y-16698191D01*
X7167857Y-16726763D01*
X7167857Y-16798192D01*
X7153571Y-16826763D01*
X7139286Y-16841049D01*
X7110714Y-16855334D01*
X7039286Y-16855334D01*
X7010714Y-16841049D01*
X6996428Y-16826763D01*
X7296428Y-16855334D02*
X7296428Y-16655334D01*
X7296428Y-16683906D02*
X7310714Y-16669620D01*
X7339286Y-16655334D01*
X7382143Y-16655334D01*
X7410714Y-16669620D01*
X7425000Y-16698191D01*
X7425000Y-16855334D01*
X7425000Y-16698191D02*
X7439286Y-16669620D01*
X7467857Y-16655334D01*
X7510714Y-16655334D01*
X7539286Y-16669620D01*
X7553571Y-16698191D01*
X7553571Y-16855334D01*
X7696428Y-16855334D02*
X7696428Y-16655334D01*
X7696428Y-16683906D02*
X7710714Y-16669620D01*
X7739286Y-16655334D01*
X7782143Y-16655334D01*
X7810714Y-16669620D01*
X7825000Y-16698191D01*
X7825000Y-16855334D01*
X7825000Y-16698191D02*
X7839286Y-16669620D01*
X7867857Y-16655334D01*
X7910714Y-16655334D01*
X7939286Y-16669620D01*
X7953571Y-16698191D01*
X7953571Y-16855334D01*
X8539286Y-16541049D02*
X8282143Y-16926763D01*
X8925000Y-16555334D02*
X8953571Y-16555334D01*
X8982143Y-16569620D01*
X8996428Y-16583906D01*
X9010714Y-16612477D01*
X9025000Y-16669620D01*
X9025000Y-16741049D01*
X9010714Y-16798192D01*
X8996428Y-16826763D01*
X8982143Y-16841049D01*
X8953571Y-16855334D01*
X8925000Y-16855334D01*
X8896428Y-16841049D01*
X8882143Y-16826763D01*
X8867857Y-16798192D01*
X8853571Y-16741049D01*
X8853571Y-16669620D01*
X8867857Y-16612477D01*
X8882143Y-16583906D01*
X8896428Y-16569620D01*
X8925000Y-16555334D01*
X9153571Y-16826763D02*
X9167857Y-16841049D01*
X9153571Y-16855334D01*
X9139286Y-16841049D01*
X9153571Y-16826763D01*
X9153571Y-16855334D01*
X9353571Y-16555334D02*
X9382143Y-16555334D01*
X9410714Y-16569620D01*
X9425000Y-16583906D01*
X9439286Y-16612477D01*
X9453571Y-16669620D01*
X9453571Y-16741049D01*
X9439286Y-16798192D01*
X9425000Y-16826763D01*
X9410714Y-16841049D01*
X9382143Y-16855334D01*
X9353571Y-16855334D01*
X9325000Y-16841049D01*
X9310714Y-16826763D01*
X9296428Y-16798192D01*
X9282143Y-16741049D01*
X9282143Y-16669620D01*
X9296428Y-16612477D01*
X9310714Y-16583906D01*
X9325000Y-16569620D01*
X9353571Y-16555334D01*
X9567857Y-16583906D02*
X9582143Y-16569620D01*
X9610714Y-16555334D01*
X9682143Y-16555334D01*
X9710714Y-16569620D01*
X9725000Y-16583906D01*
X9739286Y-16612477D01*
X9739286Y-16641049D01*
X9725000Y-16683906D01*
X9553571Y-16855334D01*
X9739286Y-16855334D01*
X9996428Y-16555334D02*
X9939286Y-16555334D01*
X9910714Y-16569620D01*
X9896428Y-16583906D01*
X9867857Y-16626763D01*
X9853571Y-16683906D01*
X9853571Y-16798192D01*
X9867857Y-16826763D01*
X9882143Y-16841049D01*
X9910714Y-16855334D01*
X9967857Y-16855334D01*
X9996428Y-16841049D01*
X10010714Y-16826763D01*
X10025000Y-16798192D01*
X10025000Y-16726763D01*
X10010714Y-16698191D01*
X9996428Y-16683906D01*
X9967857Y-16669620D01*
X9910714Y-16669620D01*
X9882143Y-16683906D01*
X9867857Y-16698191D01*
X9853571Y-16726763D01*
X10139286Y-16555334D02*
X10139286Y-16612477D01*
X10253571Y-16555334D02*
X10253571Y-16612477D01*
X10696428Y-16969620D02*
X10682143Y-16955334D01*
X10653571Y-16912477D01*
X10639286Y-16883906D01*
X10625000Y-16841049D01*
X10610714Y-16769620D01*
X10610714Y-16712477D01*
X10625000Y-16641049D01*
X10639286Y-16598191D01*
X10653571Y-16569620D01*
X10682143Y-16526763D01*
X10696428Y-16512477D01*
X10967857Y-16855334D02*
X10796428Y-16855334D01*
X10882143Y-16855334D02*
X10882143Y-16555334D01*
X10853571Y-16598191D01*
X10825000Y-16626763D01*
X10796428Y-16641049D01*
X11153571Y-16555334D02*
X11182143Y-16555334D01*
X11210714Y-16569620D01*
X11225000Y-16583906D01*
X11239285Y-16612477D01*
X11253571Y-16669620D01*
X11253571Y-16741049D01*
X11239285Y-16798192D01*
X11225000Y-16826763D01*
X11210714Y-16841049D01*
X11182143Y-16855334D01*
X11153571Y-16855334D01*
X11125000Y-16841049D01*
X11110714Y-16826763D01*
X11096428Y-16798192D01*
X11082143Y-16741049D01*
X11082143Y-16669620D01*
X11096428Y-16612477D01*
X11110714Y-16583906D01*
X11125000Y-16569620D01*
X11153571Y-16555334D01*
X11610714Y-16855334D02*
X11610714Y-16555334D01*
X11739285Y-16855334D02*
X11739285Y-16698191D01*
X11725000Y-16669620D01*
X11696428Y-16655334D01*
X11653571Y-16655334D01*
X11625000Y-16669620D01*
X11610714Y-16683906D01*
X11925000Y-16855334D02*
X11896428Y-16841049D01*
X11882143Y-16826763D01*
X11867857Y-16798192D01*
X11867857Y-16712477D01*
X11882143Y-16683906D01*
X11896428Y-16669620D01*
X11925000Y-16655334D01*
X11967857Y-16655334D01*
X11996428Y-16669620D01*
X12010714Y-16683906D01*
X12025000Y-16712477D01*
X12025000Y-16798192D01*
X12010714Y-16826763D01*
X11996428Y-16841049D01*
X11967857Y-16855334D01*
X11925000Y-16855334D01*
X12196428Y-16855334D02*
X12167857Y-16841049D01*
X12153571Y-16812477D01*
X12153571Y-16555334D01*
X12425000Y-16841049D02*
X12396428Y-16855334D01*
X12339286Y-16855334D01*
X12310714Y-16841049D01*
X12296428Y-16812477D01*
X12296428Y-16698191D01*
X12310714Y-16669620D01*
X12339286Y-16655334D01*
X12396428Y-16655334D01*
X12425000Y-16669620D01*
X12439286Y-16698191D01*
X12439286Y-16726763D01*
X12296428Y-16755334D01*
X12553571Y-16841049D02*
X12582143Y-16855334D01*
X12639286Y-16855334D01*
X12667857Y-16841049D01*
X12682143Y-16812477D01*
X12682143Y-16798192D01*
X12667857Y-16769620D01*
X12639286Y-16755334D01*
X12596428Y-16755334D01*
X12567857Y-16741049D01*
X12553571Y-16712477D01*
X12553571Y-16698191D01*
X12567857Y-16669620D01*
X12596428Y-16655334D01*
X12639286Y-16655334D01*
X12667857Y-16669620D01*
X13039286Y-16741049D02*
X13267857Y-16741049D01*
X13153571Y-16855334D02*
X13153571Y-16626763D01*
X13796428Y-16855334D02*
X13625000Y-16855334D01*
X13710714Y-16855334D02*
X13710714Y-16555334D01*
X13682143Y-16598191D01*
X13653571Y-16626763D01*
X13625000Y-16641049D01*
X13982143Y-16555334D02*
X14010714Y-16555334D01*
X14039286Y-16569620D01*
X14053571Y-16583906D01*
X14067857Y-16612477D01*
X14082143Y-16669620D01*
X14082143Y-16741049D01*
X14067857Y-16798192D01*
X14053571Y-16826763D01*
X14039286Y-16841049D01*
X14010714Y-16855334D01*
X13982143Y-16855334D01*
X13953571Y-16841049D01*
X13939286Y-16826763D01*
X13925000Y-16798192D01*
X13910714Y-16741049D01*
X13910714Y-16669620D01*
X13925000Y-16612477D01*
X13939286Y-16583906D01*
X13953571Y-16569620D01*
X13982143Y-16555334D01*
X14425000Y-16841049D02*
X14453571Y-16855334D01*
X14510714Y-16855334D01*
X14539286Y-16841049D01*
X14553571Y-16812477D01*
X14553571Y-16798192D01*
X14539286Y-16769620D01*
X14510714Y-16755334D01*
X14467857Y-16755334D01*
X14439286Y-16741049D01*
X14425000Y-16712477D01*
X14425000Y-16698191D01*
X14439286Y-16669620D01*
X14467857Y-16655334D01*
X14510714Y-16655334D01*
X14539286Y-16669620D01*
X14725000Y-16855334D02*
X14696428Y-16841049D01*
X14682143Y-16812477D01*
X14682143Y-16555334D01*
X14882143Y-16855334D02*
X14853571Y-16841049D01*
X14839286Y-16826763D01*
X14825000Y-16798192D01*
X14825000Y-16712477D01*
X14839286Y-16683906D01*
X14853571Y-16669620D01*
X14882143Y-16655334D01*
X14925000Y-16655334D01*
X14953571Y-16669620D01*
X14967857Y-16683906D01*
X14982143Y-16712477D01*
X14982143Y-16798192D01*
X14967857Y-16826763D01*
X14953571Y-16841049D01*
X14925000Y-16855334D01*
X14882143Y-16855334D01*
X15067857Y-16655334D02*
X15182143Y-16655334D01*
X15110714Y-16555334D02*
X15110714Y-16812477D01*
X15125000Y-16841049D01*
X15153571Y-16855334D01*
X15182143Y-16855334D01*
X15267857Y-16841049D02*
X15296428Y-16855334D01*
X15353571Y-16855334D01*
X15382143Y-16841049D01*
X15396428Y-16812477D01*
X15396428Y-16798192D01*
X15382143Y-16769620D01*
X15353571Y-16755334D01*
X15310714Y-16755334D01*
X15282143Y-16741049D01*
X15267857Y-16712477D01*
X15267857Y-16698191D01*
X15282143Y-16669620D01*
X15310714Y-16655334D01*
X15353571Y-16655334D01*
X15382143Y-16669620D01*
X15496428Y-16969620D02*
X15510714Y-16955334D01*
X15539286Y-16912477D01*
X15553571Y-16883906D01*
X15567857Y-16841049D01*
X15582143Y-16769620D01*
X15582143Y-16712477D01*
X15567857Y-16641049D01*
X15553571Y-16598191D01*
X15539286Y-16569620D01*
X15510714Y-16526763D01*
X15496428Y-16512477D01*
X16039286Y-16969620D02*
X16025000Y-16955334D01*
X15996428Y-16912477D01*
X15982143Y-16883906D01*
X15967857Y-16841049D01*
X15953571Y-16769620D01*
X15953571Y-16712477D01*
X15967857Y-16641049D01*
X15982143Y-16598191D01*
X15996428Y-16569620D01*
X16025000Y-16526763D01*
X16039286Y-16512477D01*
X16153571Y-16655334D02*
X16153571Y-16855334D01*
X16153571Y-16683906D02*
X16167857Y-16669620D01*
X16196428Y-16655334D01*
X16239286Y-16655334D01*
X16267857Y-16669620D01*
X16282143Y-16698191D01*
X16282143Y-16855334D01*
X16467857Y-16855334D02*
X16439286Y-16841049D01*
X16425000Y-16826763D01*
X16410714Y-16798192D01*
X16410714Y-16712477D01*
X16425000Y-16683906D01*
X16439286Y-16669620D01*
X16467857Y-16655334D01*
X16510714Y-16655334D01*
X16539286Y-16669620D01*
X16553571Y-16683906D01*
X16567857Y-16712477D01*
X16567857Y-16798192D01*
X16553571Y-16826763D01*
X16539286Y-16841049D01*
X16510714Y-16855334D01*
X16467857Y-16855334D01*
X16653571Y-16655334D02*
X16767857Y-16655334D01*
X16696428Y-16555334D02*
X16696428Y-16812477D01*
X16710714Y-16841049D01*
X16739286Y-16855334D01*
X16767857Y-16855334D01*
X17096429Y-16655334D02*
X17096429Y-16955334D01*
X17096429Y-16669620D02*
X17125000Y-16655334D01*
X17182143Y-16655334D01*
X17210714Y-16669620D01*
X17225000Y-16683906D01*
X17239286Y-16712477D01*
X17239286Y-16798192D01*
X17225000Y-16826763D01*
X17210714Y-16841049D01*
X17182143Y-16855334D01*
X17125000Y-16855334D01*
X17096429Y-16841049D01*
X17410714Y-16855334D02*
X17382143Y-16841049D01*
X17367857Y-16812477D01*
X17367857Y-16555334D01*
X17653571Y-16855334D02*
X17653571Y-16698191D01*
X17639286Y-16669620D01*
X17610714Y-16655334D01*
X17553571Y-16655334D01*
X17525000Y-16669620D01*
X17653571Y-16841049D02*
X17625000Y-16855334D01*
X17553571Y-16855334D01*
X17525000Y-16841049D01*
X17510714Y-16812477D01*
X17510714Y-16783906D01*
X17525000Y-16755334D01*
X17553571Y-16741049D01*
X17625000Y-16741049D01*
X17653571Y-16726763D01*
X17753571Y-16655334D02*
X17867857Y-16655334D01*
X17796429Y-16555334D02*
X17796429Y-16812477D01*
X17810714Y-16841049D01*
X17839286Y-16855334D01*
X17867857Y-16855334D01*
X18082143Y-16841049D02*
X18053572Y-16855334D01*
X17996429Y-16855334D01*
X17967857Y-16841049D01*
X17953572Y-16812477D01*
X17953572Y-16698191D01*
X17967857Y-16669620D01*
X17996429Y-16655334D01*
X18053572Y-16655334D01*
X18082143Y-16669620D01*
X18096429Y-16698191D01*
X18096429Y-16726763D01*
X17953572Y-16755334D01*
X18353572Y-16855334D02*
X18353572Y-16555334D01*
X18353572Y-16841049D02*
X18325000Y-16855334D01*
X18267857Y-16855334D01*
X18239286Y-16841049D01*
X18225000Y-16826763D01*
X18210714Y-16798192D01*
X18210714Y-16712477D01*
X18225000Y-16683906D01*
X18239286Y-16669620D01*
X18267857Y-16655334D01*
X18325000Y-16655334D01*
X18353572Y-16669620D01*
X18467857Y-16969620D02*
X18482143Y-16955334D01*
X18510714Y-16912477D01*
X18525000Y-16883906D01*
X18539286Y-16841049D01*
X18553572Y-16769620D01*
X18553572Y-16712477D01*
X18539286Y-16641049D01*
X18525000Y-16598191D01*
X18510714Y-16569620D01*
X18482143Y-16526763D01*
X18467857Y-16512477D01*
M02*
