G04 #@! TF.FileFunction,Soldermask,Bot*
%FSLAX46Y46*%
G04 Gerber Fmt 4.6, Leading zero omitted, Abs format (unit mm)*
G04 Created by KiCad (PCBNEW 4.0.6) date Fri Nov 17 13:30:40 2017*
%MOMM*%
%LPD*%
G01*
G04 APERTURE LIST*
%ADD10C,0.100000*%
%ADD11C,0.200000*%
%ADD12C,0.150000*%
%ADD13R,1.400000X1.650000*%
%ADD14C,2.100000*%
%ADD15O,1.200000X1.800000*%
%ADD16O,1.350000X1.050000*%
%ADD17C,1.050000*%
%ADD18R,2.100000X2.100000*%
%ADD19O,2.100000X2.100000*%
%ADD20R,1.650000X1.400000*%
%ADD21R,1.250000X1.250000*%
%ADD22R,1.950000X1.000000*%
G04 APERTURE END LIST*
D10*
D11*
X70976666Y-84859762D02*
X71071904Y-84907381D01*
X71262381Y-84907381D01*
X71357619Y-84859762D01*
X71405238Y-84764524D01*
X71405238Y-84383571D01*
X71357619Y-84288333D01*
X71262381Y-84240714D01*
X71071904Y-84240714D01*
X70976666Y-84288333D01*
X70929047Y-84383571D01*
X70929047Y-84478810D01*
X71405238Y-84574048D01*
X70071904Y-84907381D02*
X70071904Y-83907381D01*
X70071904Y-84859762D02*
X70167142Y-84907381D01*
X70357619Y-84907381D01*
X70452857Y-84859762D01*
X70500476Y-84812143D01*
X70548095Y-84716905D01*
X70548095Y-84431190D01*
X70500476Y-84335952D01*
X70452857Y-84288333D01*
X70357619Y-84240714D01*
X70167142Y-84240714D01*
X70071904Y-84288333D01*
X69595714Y-84907381D02*
X69595714Y-84240714D01*
X69595714Y-83907381D02*
X69643333Y-83955000D01*
X69595714Y-84002619D01*
X69548095Y-83955000D01*
X69595714Y-83907381D01*
X69595714Y-84002619D01*
X69262381Y-84240714D02*
X68881429Y-84240714D01*
X69119524Y-83907381D02*
X69119524Y-84764524D01*
X69071905Y-84859762D01*
X68976667Y-84907381D01*
X68881429Y-84907381D01*
X68548095Y-84907381D02*
X68548095Y-84240714D01*
X68548095Y-83907381D02*
X68595714Y-83955000D01*
X68548095Y-84002619D01*
X68500476Y-83955000D01*
X68548095Y-83907381D01*
X68548095Y-84002619D01*
X67929048Y-84907381D02*
X68024286Y-84859762D01*
X68071905Y-84812143D01*
X68119524Y-84716905D01*
X68119524Y-84431190D01*
X68071905Y-84335952D01*
X68024286Y-84288333D01*
X67929048Y-84240714D01*
X67786190Y-84240714D01*
X67690952Y-84288333D01*
X67643333Y-84335952D01*
X67595714Y-84431190D01*
X67595714Y-84716905D01*
X67643333Y-84812143D01*
X67690952Y-84859762D01*
X67786190Y-84907381D01*
X67929048Y-84907381D01*
X67167143Y-84240714D02*
X67167143Y-84907381D01*
X67167143Y-84335952D02*
X67119524Y-84288333D01*
X67024286Y-84240714D01*
X66881428Y-84240714D01*
X66786190Y-84288333D01*
X66738571Y-84383571D01*
X66738571Y-84907381D01*
X65214761Y-83907381D02*
X65214761Y-84621667D01*
X65262381Y-84764524D01*
X65357619Y-84859762D01*
X65500476Y-84907381D01*
X65595714Y-84907381D01*
X64167142Y-84812143D02*
X64214761Y-84859762D01*
X64357618Y-84907381D01*
X64452856Y-84907381D01*
X64595714Y-84859762D01*
X64690952Y-84764524D01*
X64738571Y-84669286D01*
X64786190Y-84478810D01*
X64786190Y-84335952D01*
X64738571Y-84145476D01*
X64690952Y-84050238D01*
X64595714Y-83955000D01*
X64452856Y-83907381D01*
X64357618Y-83907381D01*
X64214761Y-83955000D01*
X64167142Y-84002619D01*
X63548095Y-83907381D02*
X63452856Y-83907381D01*
X63357618Y-83955000D01*
X63309999Y-84002619D01*
X63262380Y-84097857D01*
X63214761Y-84288333D01*
X63214761Y-84526429D01*
X63262380Y-84716905D01*
X63309999Y-84812143D01*
X63357618Y-84859762D01*
X63452856Y-84907381D01*
X63548095Y-84907381D01*
X63643333Y-84859762D01*
X63690952Y-84812143D01*
X63738571Y-84716905D01*
X63786190Y-84526429D01*
X63786190Y-84288333D01*
X63738571Y-84097857D01*
X63690952Y-84002619D01*
X63643333Y-83955000D01*
X63548095Y-83907381D01*
X71033733Y-82002381D02*
X71033733Y-82716667D01*
X71081353Y-82859524D01*
X71176591Y-82954762D01*
X71319448Y-83002381D01*
X71414686Y-83002381D01*
X70128971Y-82335714D02*
X70128971Y-83002381D01*
X70557543Y-82335714D02*
X70557543Y-82859524D01*
X70509924Y-82954762D01*
X70414686Y-83002381D01*
X70271828Y-83002381D01*
X70176590Y-82954762D01*
X70128971Y-82907143D01*
X69509924Y-83002381D02*
X69605162Y-82954762D01*
X69652781Y-82859524D01*
X69652781Y-82002381D01*
X69128971Y-83002381D02*
X69128971Y-82335714D01*
X69128971Y-82002381D02*
X69176590Y-82050000D01*
X69128971Y-82097619D01*
X69081352Y-82050000D01*
X69128971Y-82002381D01*
X69128971Y-82097619D01*
X68224209Y-83002381D02*
X68224209Y-82478571D01*
X68271828Y-82383333D01*
X68367066Y-82335714D01*
X68557543Y-82335714D01*
X68652781Y-82383333D01*
X68224209Y-82954762D02*
X68319447Y-83002381D01*
X68557543Y-83002381D01*
X68652781Y-82954762D01*
X68700400Y-82859524D01*
X68700400Y-82764286D01*
X68652781Y-82669048D01*
X68557543Y-82621429D01*
X68319447Y-82621429D01*
X68224209Y-82573810D01*
X67748019Y-82335714D02*
X67748019Y-83002381D01*
X67748019Y-82430952D02*
X67700400Y-82383333D01*
X67605162Y-82335714D01*
X67462304Y-82335714D01*
X67367066Y-82383333D01*
X67319447Y-82478571D01*
X67319447Y-83002381D01*
X65509923Y-82907143D02*
X65557542Y-82954762D01*
X65700399Y-83002381D01*
X65795637Y-83002381D01*
X65938495Y-82954762D01*
X66033733Y-82859524D01*
X66081352Y-82764286D01*
X66128971Y-82573810D01*
X66128971Y-82430952D01*
X66081352Y-82240476D01*
X66033733Y-82145238D01*
X65938495Y-82050000D01*
X65795637Y-82002381D01*
X65700399Y-82002381D01*
X65557542Y-82050000D01*
X65509923Y-82097619D01*
X64652780Y-83002381D02*
X64652780Y-82478571D01*
X64700399Y-82383333D01*
X64795637Y-82335714D01*
X64986114Y-82335714D01*
X65081352Y-82383333D01*
X64652780Y-82954762D02*
X64748018Y-83002381D01*
X64986114Y-83002381D01*
X65081352Y-82954762D01*
X65128971Y-82859524D01*
X65128971Y-82764286D01*
X65081352Y-82669048D01*
X64986114Y-82621429D01*
X64748018Y-82621429D01*
X64652780Y-82573810D01*
X64176590Y-82335714D02*
X64176590Y-83002381D01*
X64176590Y-82430952D02*
X64128971Y-82383333D01*
X64033733Y-82335714D01*
X63890875Y-82335714D01*
X63795637Y-82383333D01*
X63748018Y-82478571D01*
X63748018Y-83002381D01*
X62843256Y-83002381D02*
X62843256Y-82002381D01*
X62843256Y-82954762D02*
X62938494Y-83002381D01*
X63128971Y-83002381D01*
X63224209Y-82954762D01*
X63271828Y-82907143D01*
X63319447Y-82811905D01*
X63319447Y-82526190D01*
X63271828Y-82430952D01*
X63224209Y-82383333D01*
X63128971Y-82335714D01*
X62938494Y-82335714D01*
X62843256Y-82383333D01*
X62462304Y-82335714D02*
X62224209Y-83002381D01*
X61986113Y-82335714D02*
X62224209Y-83002381D01*
X62319447Y-83240476D01*
X62367066Y-83288095D01*
X62462304Y-83335714D01*
X89428152Y-84189914D02*
X89190057Y-84856581D01*
X88951961Y-84189914D01*
X88380533Y-83856581D02*
X88285294Y-83856581D01*
X88190056Y-83904200D01*
X88142437Y-83951819D01*
X88094818Y-84047057D01*
X88047199Y-84237533D01*
X88047199Y-84475629D01*
X88094818Y-84666105D01*
X88142437Y-84761343D01*
X88190056Y-84808962D01*
X88285294Y-84856581D01*
X88380533Y-84856581D01*
X88475771Y-84808962D01*
X88523390Y-84761343D01*
X88571009Y-84666105D01*
X88618628Y-84475629D01*
X88618628Y-84237533D01*
X88571009Y-84047057D01*
X88523390Y-83951819D01*
X88475771Y-83904200D01*
X88380533Y-83856581D01*
X87618628Y-84761343D02*
X87571009Y-84808962D01*
X87618628Y-84856581D01*
X87666247Y-84808962D01*
X87618628Y-84761343D01*
X87618628Y-84856581D01*
X87190057Y-83951819D02*
X87142438Y-83904200D01*
X87047200Y-83856581D01*
X86809104Y-83856581D01*
X86713866Y-83904200D01*
X86666247Y-83951819D01*
X86618628Y-84047057D01*
X86618628Y-84142295D01*
X86666247Y-84285152D01*
X87237676Y-84856581D01*
X86618628Y-84856581D01*
X86190057Y-84761343D02*
X86142438Y-84808962D01*
X86190057Y-84856581D01*
X86237676Y-84808962D01*
X86190057Y-84761343D01*
X86190057Y-84856581D01*
X85523391Y-83856581D02*
X85428152Y-83856581D01*
X85332914Y-83904200D01*
X85285295Y-83951819D01*
X85237676Y-84047057D01*
X85190057Y-84237533D01*
X85190057Y-84475629D01*
X85237676Y-84666105D01*
X85285295Y-84761343D01*
X85332914Y-84808962D01*
X85428152Y-84856581D01*
X85523391Y-84856581D01*
X85618629Y-84808962D01*
X85666248Y-84761343D01*
X85713867Y-84666105D01*
X85761486Y-84475629D01*
X85761486Y-84237533D01*
X85713867Y-84047057D01*
X85666248Y-83951819D01*
X85618629Y-83904200D01*
X85523391Y-83856581D01*
X83713866Y-85237533D02*
X83761486Y-85189914D01*
X83856724Y-85047057D01*
X83904343Y-84951819D01*
X83951962Y-84808962D01*
X83999581Y-84570867D01*
X83999581Y-84380390D01*
X83951962Y-84142295D01*
X83904343Y-83999438D01*
X83856724Y-83904200D01*
X83761486Y-83761343D01*
X83713866Y-83713724D01*
X83332914Y-84856581D02*
X83332914Y-84189914D01*
X83332914Y-83856581D02*
X83380533Y-83904200D01*
X83332914Y-83951819D01*
X83285295Y-83904200D01*
X83332914Y-83856581D01*
X83332914Y-83951819D01*
X83094819Y-84951819D02*
X82332914Y-84951819D01*
X81666247Y-84856581D02*
X81666247Y-84332771D01*
X81713866Y-84237533D01*
X81809104Y-84189914D01*
X81999581Y-84189914D01*
X82094819Y-84237533D01*
X81666247Y-84808962D02*
X81761485Y-84856581D01*
X81999581Y-84856581D01*
X82094819Y-84808962D01*
X82142438Y-84713724D01*
X82142438Y-84618486D01*
X82094819Y-84523248D01*
X81999581Y-84475629D01*
X81761485Y-84475629D01*
X81666247Y-84428010D01*
X81285295Y-85237533D02*
X81237676Y-85189914D01*
X81142438Y-85047057D01*
X81094819Y-84951819D01*
X81047200Y-84808962D01*
X80999581Y-84570867D01*
X80999581Y-84380390D01*
X81047200Y-84142295D01*
X81094819Y-83999438D01*
X81142438Y-83904200D01*
X81237676Y-83761343D01*
X81285295Y-83713724D01*
X87661333Y-82951581D02*
X87661333Y-81951581D01*
X87327999Y-82665867D01*
X86994666Y-81951581D01*
X86994666Y-82951581D01*
X86328000Y-81951581D02*
X86137523Y-81951581D01*
X86042285Y-81999200D01*
X85947047Y-82094438D01*
X85899428Y-82284914D01*
X85899428Y-82618248D01*
X85947047Y-82808724D01*
X86042285Y-82903962D01*
X86137523Y-82951581D01*
X86328000Y-82951581D01*
X86423238Y-82903962D01*
X86518476Y-82808724D01*
X86566095Y-82618248D01*
X86566095Y-82284914D01*
X86518476Y-82094438D01*
X86423238Y-81999200D01*
X86328000Y-81951581D01*
X85470857Y-82951581D02*
X85470857Y-81951581D01*
X84899428Y-82951581D01*
X84899428Y-81951581D01*
X84423238Y-82427771D02*
X84089904Y-82427771D01*
X83947047Y-82951581D02*
X84423238Y-82951581D01*
X84423238Y-81951581D01*
X83947047Y-81951581D01*
X83613714Y-81951581D02*
X82947047Y-81951581D01*
X83613714Y-82951581D01*
X82947047Y-82951581D01*
X82375619Y-81951581D02*
X82185142Y-81951581D01*
X82089904Y-81999200D01*
X81994666Y-82094438D01*
X81947047Y-82284914D01*
X81947047Y-82618248D01*
X81994666Y-82808724D01*
X82089904Y-82903962D01*
X82185142Y-82951581D01*
X82375619Y-82951581D01*
X82470857Y-82903962D01*
X82566095Y-82808724D01*
X82613714Y-82618248D01*
X82613714Y-82284914D01*
X82566095Y-82094438D01*
X82470857Y-81999200D01*
X82375619Y-81951581D01*
X80947047Y-82951581D02*
X81280381Y-82475390D01*
X81518476Y-82951581D02*
X81518476Y-81951581D01*
X81137523Y-81951581D01*
X81042285Y-81999200D01*
X80994666Y-82046819D01*
X80947047Y-82142057D01*
X80947047Y-82284914D01*
X80994666Y-82380152D01*
X81042285Y-82427771D01*
X81137523Y-82475390D01*
X81518476Y-82475390D01*
X107806666Y-84859762D02*
X107901904Y-84907381D01*
X108092381Y-84907381D01*
X108187619Y-84859762D01*
X108235238Y-84764524D01*
X108235238Y-84383571D01*
X108187619Y-84288333D01*
X108092381Y-84240714D01*
X107901904Y-84240714D01*
X107806666Y-84288333D01*
X107759047Y-84383571D01*
X107759047Y-84478810D01*
X108235238Y-84574048D01*
X106901904Y-84907381D02*
X106901904Y-83907381D01*
X106901904Y-84859762D02*
X106997142Y-84907381D01*
X107187619Y-84907381D01*
X107282857Y-84859762D01*
X107330476Y-84812143D01*
X107378095Y-84716905D01*
X107378095Y-84431190D01*
X107330476Y-84335952D01*
X107282857Y-84288333D01*
X107187619Y-84240714D01*
X106997142Y-84240714D01*
X106901904Y-84288333D01*
X106425714Y-84907381D02*
X106425714Y-84240714D01*
X106425714Y-83907381D02*
X106473333Y-83955000D01*
X106425714Y-84002619D01*
X106378095Y-83955000D01*
X106425714Y-83907381D01*
X106425714Y-84002619D01*
X106092381Y-84240714D02*
X105711429Y-84240714D01*
X105949524Y-83907381D02*
X105949524Y-84764524D01*
X105901905Y-84859762D01*
X105806667Y-84907381D01*
X105711429Y-84907381D01*
X105378095Y-84907381D02*
X105378095Y-84240714D01*
X105378095Y-83907381D02*
X105425714Y-83955000D01*
X105378095Y-84002619D01*
X105330476Y-83955000D01*
X105378095Y-83907381D01*
X105378095Y-84002619D01*
X104759048Y-84907381D02*
X104854286Y-84859762D01*
X104901905Y-84812143D01*
X104949524Y-84716905D01*
X104949524Y-84431190D01*
X104901905Y-84335952D01*
X104854286Y-84288333D01*
X104759048Y-84240714D01*
X104616190Y-84240714D01*
X104520952Y-84288333D01*
X104473333Y-84335952D01*
X104425714Y-84431190D01*
X104425714Y-84716905D01*
X104473333Y-84812143D01*
X104520952Y-84859762D01*
X104616190Y-84907381D01*
X104759048Y-84907381D01*
X103997143Y-84240714D02*
X103997143Y-84907381D01*
X103997143Y-84335952D02*
X103949524Y-84288333D01*
X103854286Y-84240714D01*
X103711428Y-84240714D01*
X103616190Y-84288333D01*
X103568571Y-84383571D01*
X103568571Y-84907381D01*
X102044761Y-83907381D02*
X102044761Y-84621667D01*
X102092381Y-84764524D01*
X102187619Y-84859762D01*
X102330476Y-84907381D01*
X102425714Y-84907381D01*
X100997142Y-84812143D02*
X101044761Y-84859762D01*
X101187618Y-84907381D01*
X101282856Y-84907381D01*
X101425714Y-84859762D01*
X101520952Y-84764524D01*
X101568571Y-84669286D01*
X101616190Y-84478810D01*
X101616190Y-84335952D01*
X101568571Y-84145476D01*
X101520952Y-84050238D01*
X101425714Y-83955000D01*
X101282856Y-83907381D01*
X101187618Y-83907381D01*
X101044761Y-83955000D01*
X100997142Y-84002619D01*
X100378095Y-83907381D02*
X100282856Y-83907381D01*
X100187618Y-83955000D01*
X100139999Y-84002619D01*
X100092380Y-84097857D01*
X100044761Y-84288333D01*
X100044761Y-84526429D01*
X100092380Y-84716905D01*
X100139999Y-84812143D01*
X100187618Y-84859762D01*
X100282856Y-84907381D01*
X100378095Y-84907381D01*
X100473333Y-84859762D01*
X100520952Y-84812143D01*
X100568571Y-84716905D01*
X100616190Y-84526429D01*
X100616190Y-84288333D01*
X100568571Y-84097857D01*
X100520952Y-84002619D01*
X100473333Y-83955000D01*
X100378095Y-83907381D01*
X107863733Y-82002381D02*
X107863733Y-82716667D01*
X107911353Y-82859524D01*
X108006591Y-82954762D01*
X108149448Y-83002381D01*
X108244686Y-83002381D01*
X106958971Y-82335714D02*
X106958971Y-83002381D01*
X107387543Y-82335714D02*
X107387543Y-82859524D01*
X107339924Y-82954762D01*
X107244686Y-83002381D01*
X107101828Y-83002381D01*
X107006590Y-82954762D01*
X106958971Y-82907143D01*
X106339924Y-83002381D02*
X106435162Y-82954762D01*
X106482781Y-82859524D01*
X106482781Y-82002381D01*
X105958971Y-83002381D02*
X105958971Y-82335714D01*
X105958971Y-82002381D02*
X106006590Y-82050000D01*
X105958971Y-82097619D01*
X105911352Y-82050000D01*
X105958971Y-82002381D01*
X105958971Y-82097619D01*
X105054209Y-83002381D02*
X105054209Y-82478571D01*
X105101828Y-82383333D01*
X105197066Y-82335714D01*
X105387543Y-82335714D01*
X105482781Y-82383333D01*
X105054209Y-82954762D02*
X105149447Y-83002381D01*
X105387543Y-83002381D01*
X105482781Y-82954762D01*
X105530400Y-82859524D01*
X105530400Y-82764286D01*
X105482781Y-82669048D01*
X105387543Y-82621429D01*
X105149447Y-82621429D01*
X105054209Y-82573810D01*
X104578019Y-82335714D02*
X104578019Y-83002381D01*
X104578019Y-82430952D02*
X104530400Y-82383333D01*
X104435162Y-82335714D01*
X104292304Y-82335714D01*
X104197066Y-82383333D01*
X104149447Y-82478571D01*
X104149447Y-83002381D01*
X102339923Y-82907143D02*
X102387542Y-82954762D01*
X102530399Y-83002381D01*
X102625637Y-83002381D01*
X102768495Y-82954762D01*
X102863733Y-82859524D01*
X102911352Y-82764286D01*
X102958971Y-82573810D01*
X102958971Y-82430952D01*
X102911352Y-82240476D01*
X102863733Y-82145238D01*
X102768495Y-82050000D01*
X102625637Y-82002381D01*
X102530399Y-82002381D01*
X102387542Y-82050000D01*
X102339923Y-82097619D01*
X101482780Y-83002381D02*
X101482780Y-82478571D01*
X101530399Y-82383333D01*
X101625637Y-82335714D01*
X101816114Y-82335714D01*
X101911352Y-82383333D01*
X101482780Y-82954762D02*
X101578018Y-83002381D01*
X101816114Y-83002381D01*
X101911352Y-82954762D01*
X101958971Y-82859524D01*
X101958971Y-82764286D01*
X101911352Y-82669048D01*
X101816114Y-82621429D01*
X101578018Y-82621429D01*
X101482780Y-82573810D01*
X101006590Y-82335714D02*
X101006590Y-83002381D01*
X101006590Y-82430952D02*
X100958971Y-82383333D01*
X100863733Y-82335714D01*
X100720875Y-82335714D01*
X100625637Y-82383333D01*
X100578018Y-82478571D01*
X100578018Y-83002381D01*
X99673256Y-83002381D02*
X99673256Y-82002381D01*
X99673256Y-82954762D02*
X99768494Y-83002381D01*
X99958971Y-83002381D01*
X100054209Y-82954762D01*
X100101828Y-82907143D01*
X100149447Y-82811905D01*
X100149447Y-82526190D01*
X100101828Y-82430952D01*
X100054209Y-82383333D01*
X99958971Y-82335714D01*
X99768494Y-82335714D01*
X99673256Y-82383333D01*
X99292304Y-82335714D02*
X99054209Y-83002381D01*
X98816113Y-82335714D02*
X99054209Y-83002381D01*
X99149447Y-83240476D01*
X99197066Y-83288095D01*
X99292304Y-83335714D01*
X126258152Y-84189914D02*
X126020057Y-84856581D01*
X125781961Y-84189914D01*
X125210533Y-83856581D02*
X125115294Y-83856581D01*
X125020056Y-83904200D01*
X124972437Y-83951819D01*
X124924818Y-84047057D01*
X124877199Y-84237533D01*
X124877199Y-84475629D01*
X124924818Y-84666105D01*
X124972437Y-84761343D01*
X125020056Y-84808962D01*
X125115294Y-84856581D01*
X125210533Y-84856581D01*
X125305771Y-84808962D01*
X125353390Y-84761343D01*
X125401009Y-84666105D01*
X125448628Y-84475629D01*
X125448628Y-84237533D01*
X125401009Y-84047057D01*
X125353390Y-83951819D01*
X125305771Y-83904200D01*
X125210533Y-83856581D01*
X124448628Y-84761343D02*
X124401009Y-84808962D01*
X124448628Y-84856581D01*
X124496247Y-84808962D01*
X124448628Y-84761343D01*
X124448628Y-84856581D01*
X124020057Y-83951819D02*
X123972438Y-83904200D01*
X123877200Y-83856581D01*
X123639104Y-83856581D01*
X123543866Y-83904200D01*
X123496247Y-83951819D01*
X123448628Y-84047057D01*
X123448628Y-84142295D01*
X123496247Y-84285152D01*
X124067676Y-84856581D01*
X123448628Y-84856581D01*
X123020057Y-84761343D02*
X122972438Y-84808962D01*
X123020057Y-84856581D01*
X123067676Y-84808962D01*
X123020057Y-84761343D01*
X123020057Y-84856581D01*
X122353391Y-83856581D02*
X122258152Y-83856581D01*
X122162914Y-83904200D01*
X122115295Y-83951819D01*
X122067676Y-84047057D01*
X122020057Y-84237533D01*
X122020057Y-84475629D01*
X122067676Y-84666105D01*
X122115295Y-84761343D01*
X122162914Y-84808962D01*
X122258152Y-84856581D01*
X122353391Y-84856581D01*
X122448629Y-84808962D01*
X122496248Y-84761343D01*
X122543867Y-84666105D01*
X122591486Y-84475629D01*
X122591486Y-84237533D01*
X122543867Y-84047057D01*
X122496248Y-83951819D01*
X122448629Y-83904200D01*
X122353391Y-83856581D01*
X120543866Y-85237533D02*
X120591486Y-85189914D01*
X120686724Y-85047057D01*
X120734343Y-84951819D01*
X120781962Y-84808962D01*
X120829581Y-84570867D01*
X120829581Y-84380390D01*
X120781962Y-84142295D01*
X120734343Y-83999438D01*
X120686724Y-83904200D01*
X120591486Y-83761343D01*
X120543866Y-83713724D01*
X120162914Y-84856581D02*
X120162914Y-84189914D01*
X120162914Y-83856581D02*
X120210533Y-83904200D01*
X120162914Y-83951819D01*
X120115295Y-83904200D01*
X120162914Y-83856581D01*
X120162914Y-83951819D01*
X119924819Y-84951819D02*
X119162914Y-84951819D01*
X118496247Y-84856581D02*
X118496247Y-84332771D01*
X118543866Y-84237533D01*
X118639104Y-84189914D01*
X118829581Y-84189914D01*
X118924819Y-84237533D01*
X118496247Y-84808962D02*
X118591485Y-84856581D01*
X118829581Y-84856581D01*
X118924819Y-84808962D01*
X118972438Y-84713724D01*
X118972438Y-84618486D01*
X118924819Y-84523248D01*
X118829581Y-84475629D01*
X118591485Y-84475629D01*
X118496247Y-84428010D01*
X118115295Y-85237533D02*
X118067676Y-85189914D01*
X117972438Y-85047057D01*
X117924819Y-84951819D01*
X117877200Y-84808962D01*
X117829581Y-84570867D01*
X117829581Y-84380390D01*
X117877200Y-84142295D01*
X117924819Y-83999438D01*
X117972438Y-83904200D01*
X118067676Y-83761343D01*
X118115295Y-83713724D01*
X124491333Y-82951581D02*
X124491333Y-81951581D01*
X124157999Y-82665867D01*
X123824666Y-81951581D01*
X123824666Y-82951581D01*
X123158000Y-81951581D02*
X122967523Y-81951581D01*
X122872285Y-81999200D01*
X122777047Y-82094438D01*
X122729428Y-82284914D01*
X122729428Y-82618248D01*
X122777047Y-82808724D01*
X122872285Y-82903962D01*
X122967523Y-82951581D01*
X123158000Y-82951581D01*
X123253238Y-82903962D01*
X123348476Y-82808724D01*
X123396095Y-82618248D01*
X123396095Y-82284914D01*
X123348476Y-82094438D01*
X123253238Y-81999200D01*
X123158000Y-81951581D01*
X122300857Y-82951581D02*
X122300857Y-81951581D01*
X121729428Y-82951581D01*
X121729428Y-81951581D01*
X121253238Y-82427771D02*
X120919904Y-82427771D01*
X120777047Y-82951581D02*
X121253238Y-82951581D01*
X121253238Y-81951581D01*
X120777047Y-81951581D01*
X120443714Y-81951581D02*
X119777047Y-81951581D01*
X120443714Y-82951581D01*
X119777047Y-82951581D01*
X119205619Y-81951581D02*
X119015142Y-81951581D01*
X118919904Y-81999200D01*
X118824666Y-82094438D01*
X118777047Y-82284914D01*
X118777047Y-82618248D01*
X118824666Y-82808724D01*
X118919904Y-82903962D01*
X119015142Y-82951581D01*
X119205619Y-82951581D01*
X119300857Y-82903962D01*
X119396095Y-82808724D01*
X119443714Y-82618248D01*
X119443714Y-82284914D01*
X119396095Y-82094438D01*
X119300857Y-81999200D01*
X119205619Y-81951581D01*
X117777047Y-82951581D02*
X118110381Y-82475390D01*
X118348476Y-82951581D02*
X118348476Y-81951581D01*
X117967523Y-81951581D01*
X117872285Y-81999200D01*
X117824666Y-82046819D01*
X117777047Y-82142057D01*
X117777047Y-82284914D01*
X117824666Y-82380152D01*
X117872285Y-82427771D01*
X117967523Y-82475390D01*
X118348476Y-82475390D01*
X144636666Y-84859762D02*
X144731904Y-84907381D01*
X144922381Y-84907381D01*
X145017619Y-84859762D01*
X145065238Y-84764524D01*
X145065238Y-84383571D01*
X145017619Y-84288333D01*
X144922381Y-84240714D01*
X144731904Y-84240714D01*
X144636666Y-84288333D01*
X144589047Y-84383571D01*
X144589047Y-84478810D01*
X145065238Y-84574048D01*
X143731904Y-84907381D02*
X143731904Y-83907381D01*
X143731904Y-84859762D02*
X143827142Y-84907381D01*
X144017619Y-84907381D01*
X144112857Y-84859762D01*
X144160476Y-84812143D01*
X144208095Y-84716905D01*
X144208095Y-84431190D01*
X144160476Y-84335952D01*
X144112857Y-84288333D01*
X144017619Y-84240714D01*
X143827142Y-84240714D01*
X143731904Y-84288333D01*
X143255714Y-84907381D02*
X143255714Y-84240714D01*
X143255714Y-83907381D02*
X143303333Y-83955000D01*
X143255714Y-84002619D01*
X143208095Y-83955000D01*
X143255714Y-83907381D01*
X143255714Y-84002619D01*
X142922381Y-84240714D02*
X142541429Y-84240714D01*
X142779524Y-83907381D02*
X142779524Y-84764524D01*
X142731905Y-84859762D01*
X142636667Y-84907381D01*
X142541429Y-84907381D01*
X142208095Y-84907381D02*
X142208095Y-84240714D01*
X142208095Y-83907381D02*
X142255714Y-83955000D01*
X142208095Y-84002619D01*
X142160476Y-83955000D01*
X142208095Y-83907381D01*
X142208095Y-84002619D01*
X141589048Y-84907381D02*
X141684286Y-84859762D01*
X141731905Y-84812143D01*
X141779524Y-84716905D01*
X141779524Y-84431190D01*
X141731905Y-84335952D01*
X141684286Y-84288333D01*
X141589048Y-84240714D01*
X141446190Y-84240714D01*
X141350952Y-84288333D01*
X141303333Y-84335952D01*
X141255714Y-84431190D01*
X141255714Y-84716905D01*
X141303333Y-84812143D01*
X141350952Y-84859762D01*
X141446190Y-84907381D01*
X141589048Y-84907381D01*
X140827143Y-84240714D02*
X140827143Y-84907381D01*
X140827143Y-84335952D02*
X140779524Y-84288333D01*
X140684286Y-84240714D01*
X140541428Y-84240714D01*
X140446190Y-84288333D01*
X140398571Y-84383571D01*
X140398571Y-84907381D01*
X138874761Y-83907381D02*
X138874761Y-84621667D01*
X138922381Y-84764524D01*
X139017619Y-84859762D01*
X139160476Y-84907381D01*
X139255714Y-84907381D01*
X137827142Y-84812143D02*
X137874761Y-84859762D01*
X138017618Y-84907381D01*
X138112856Y-84907381D01*
X138255714Y-84859762D01*
X138350952Y-84764524D01*
X138398571Y-84669286D01*
X138446190Y-84478810D01*
X138446190Y-84335952D01*
X138398571Y-84145476D01*
X138350952Y-84050238D01*
X138255714Y-83955000D01*
X138112856Y-83907381D01*
X138017618Y-83907381D01*
X137874761Y-83955000D01*
X137827142Y-84002619D01*
X137208095Y-83907381D02*
X137112856Y-83907381D01*
X137017618Y-83955000D01*
X136969999Y-84002619D01*
X136922380Y-84097857D01*
X136874761Y-84288333D01*
X136874761Y-84526429D01*
X136922380Y-84716905D01*
X136969999Y-84812143D01*
X137017618Y-84859762D01*
X137112856Y-84907381D01*
X137208095Y-84907381D01*
X137303333Y-84859762D01*
X137350952Y-84812143D01*
X137398571Y-84716905D01*
X137446190Y-84526429D01*
X137446190Y-84288333D01*
X137398571Y-84097857D01*
X137350952Y-84002619D01*
X137303333Y-83955000D01*
X137208095Y-83907381D01*
X144693733Y-82002381D02*
X144693733Y-82716667D01*
X144741353Y-82859524D01*
X144836591Y-82954762D01*
X144979448Y-83002381D01*
X145074686Y-83002381D01*
X143788971Y-82335714D02*
X143788971Y-83002381D01*
X144217543Y-82335714D02*
X144217543Y-82859524D01*
X144169924Y-82954762D01*
X144074686Y-83002381D01*
X143931828Y-83002381D01*
X143836590Y-82954762D01*
X143788971Y-82907143D01*
X143169924Y-83002381D02*
X143265162Y-82954762D01*
X143312781Y-82859524D01*
X143312781Y-82002381D01*
X142788971Y-83002381D02*
X142788971Y-82335714D01*
X142788971Y-82002381D02*
X142836590Y-82050000D01*
X142788971Y-82097619D01*
X142741352Y-82050000D01*
X142788971Y-82002381D01*
X142788971Y-82097619D01*
X141884209Y-83002381D02*
X141884209Y-82478571D01*
X141931828Y-82383333D01*
X142027066Y-82335714D01*
X142217543Y-82335714D01*
X142312781Y-82383333D01*
X141884209Y-82954762D02*
X141979447Y-83002381D01*
X142217543Y-83002381D01*
X142312781Y-82954762D01*
X142360400Y-82859524D01*
X142360400Y-82764286D01*
X142312781Y-82669048D01*
X142217543Y-82621429D01*
X141979447Y-82621429D01*
X141884209Y-82573810D01*
X141408019Y-82335714D02*
X141408019Y-83002381D01*
X141408019Y-82430952D02*
X141360400Y-82383333D01*
X141265162Y-82335714D01*
X141122304Y-82335714D01*
X141027066Y-82383333D01*
X140979447Y-82478571D01*
X140979447Y-83002381D01*
X139169923Y-82907143D02*
X139217542Y-82954762D01*
X139360399Y-83002381D01*
X139455637Y-83002381D01*
X139598495Y-82954762D01*
X139693733Y-82859524D01*
X139741352Y-82764286D01*
X139788971Y-82573810D01*
X139788971Y-82430952D01*
X139741352Y-82240476D01*
X139693733Y-82145238D01*
X139598495Y-82050000D01*
X139455637Y-82002381D01*
X139360399Y-82002381D01*
X139217542Y-82050000D01*
X139169923Y-82097619D01*
X138312780Y-83002381D02*
X138312780Y-82478571D01*
X138360399Y-82383333D01*
X138455637Y-82335714D01*
X138646114Y-82335714D01*
X138741352Y-82383333D01*
X138312780Y-82954762D02*
X138408018Y-83002381D01*
X138646114Y-83002381D01*
X138741352Y-82954762D01*
X138788971Y-82859524D01*
X138788971Y-82764286D01*
X138741352Y-82669048D01*
X138646114Y-82621429D01*
X138408018Y-82621429D01*
X138312780Y-82573810D01*
X137836590Y-82335714D02*
X137836590Y-83002381D01*
X137836590Y-82430952D02*
X137788971Y-82383333D01*
X137693733Y-82335714D01*
X137550875Y-82335714D01*
X137455637Y-82383333D01*
X137408018Y-82478571D01*
X137408018Y-83002381D01*
X136503256Y-83002381D02*
X136503256Y-82002381D01*
X136503256Y-82954762D02*
X136598494Y-83002381D01*
X136788971Y-83002381D01*
X136884209Y-82954762D01*
X136931828Y-82907143D01*
X136979447Y-82811905D01*
X136979447Y-82526190D01*
X136931828Y-82430952D01*
X136884209Y-82383333D01*
X136788971Y-82335714D01*
X136598494Y-82335714D01*
X136503256Y-82383333D01*
X136122304Y-82335714D02*
X135884209Y-83002381D01*
X135646113Y-82335714D02*
X135884209Y-83002381D01*
X135979447Y-83240476D01*
X136027066Y-83288095D01*
X136122304Y-83335714D01*
X163088152Y-84189914D02*
X162850057Y-84856581D01*
X162611961Y-84189914D01*
X162040533Y-83856581D02*
X161945294Y-83856581D01*
X161850056Y-83904200D01*
X161802437Y-83951819D01*
X161754818Y-84047057D01*
X161707199Y-84237533D01*
X161707199Y-84475629D01*
X161754818Y-84666105D01*
X161802437Y-84761343D01*
X161850056Y-84808962D01*
X161945294Y-84856581D01*
X162040533Y-84856581D01*
X162135771Y-84808962D01*
X162183390Y-84761343D01*
X162231009Y-84666105D01*
X162278628Y-84475629D01*
X162278628Y-84237533D01*
X162231009Y-84047057D01*
X162183390Y-83951819D01*
X162135771Y-83904200D01*
X162040533Y-83856581D01*
X161278628Y-84761343D02*
X161231009Y-84808962D01*
X161278628Y-84856581D01*
X161326247Y-84808962D01*
X161278628Y-84761343D01*
X161278628Y-84856581D01*
X160850057Y-83951819D02*
X160802438Y-83904200D01*
X160707200Y-83856581D01*
X160469104Y-83856581D01*
X160373866Y-83904200D01*
X160326247Y-83951819D01*
X160278628Y-84047057D01*
X160278628Y-84142295D01*
X160326247Y-84285152D01*
X160897676Y-84856581D01*
X160278628Y-84856581D01*
X159850057Y-84761343D02*
X159802438Y-84808962D01*
X159850057Y-84856581D01*
X159897676Y-84808962D01*
X159850057Y-84761343D01*
X159850057Y-84856581D01*
X159183391Y-83856581D02*
X159088152Y-83856581D01*
X158992914Y-83904200D01*
X158945295Y-83951819D01*
X158897676Y-84047057D01*
X158850057Y-84237533D01*
X158850057Y-84475629D01*
X158897676Y-84666105D01*
X158945295Y-84761343D01*
X158992914Y-84808962D01*
X159088152Y-84856581D01*
X159183391Y-84856581D01*
X159278629Y-84808962D01*
X159326248Y-84761343D01*
X159373867Y-84666105D01*
X159421486Y-84475629D01*
X159421486Y-84237533D01*
X159373867Y-84047057D01*
X159326248Y-83951819D01*
X159278629Y-83904200D01*
X159183391Y-83856581D01*
X157373866Y-85237533D02*
X157421486Y-85189914D01*
X157516724Y-85047057D01*
X157564343Y-84951819D01*
X157611962Y-84808962D01*
X157659581Y-84570867D01*
X157659581Y-84380390D01*
X157611962Y-84142295D01*
X157564343Y-83999438D01*
X157516724Y-83904200D01*
X157421486Y-83761343D01*
X157373866Y-83713724D01*
X156992914Y-84856581D02*
X156992914Y-84189914D01*
X156992914Y-83856581D02*
X157040533Y-83904200D01*
X156992914Y-83951819D01*
X156945295Y-83904200D01*
X156992914Y-83856581D01*
X156992914Y-83951819D01*
X156754819Y-84951819D02*
X155992914Y-84951819D01*
X155326247Y-84856581D02*
X155326247Y-84332771D01*
X155373866Y-84237533D01*
X155469104Y-84189914D01*
X155659581Y-84189914D01*
X155754819Y-84237533D01*
X155326247Y-84808962D02*
X155421485Y-84856581D01*
X155659581Y-84856581D01*
X155754819Y-84808962D01*
X155802438Y-84713724D01*
X155802438Y-84618486D01*
X155754819Y-84523248D01*
X155659581Y-84475629D01*
X155421485Y-84475629D01*
X155326247Y-84428010D01*
X154945295Y-85237533D02*
X154897676Y-85189914D01*
X154802438Y-85047057D01*
X154754819Y-84951819D01*
X154707200Y-84808962D01*
X154659581Y-84570867D01*
X154659581Y-84380390D01*
X154707200Y-84142295D01*
X154754819Y-83999438D01*
X154802438Y-83904200D01*
X154897676Y-83761343D01*
X154945295Y-83713724D01*
X161321333Y-82951581D02*
X161321333Y-81951581D01*
X160987999Y-82665867D01*
X160654666Y-81951581D01*
X160654666Y-82951581D01*
X159988000Y-81951581D02*
X159797523Y-81951581D01*
X159702285Y-81999200D01*
X159607047Y-82094438D01*
X159559428Y-82284914D01*
X159559428Y-82618248D01*
X159607047Y-82808724D01*
X159702285Y-82903962D01*
X159797523Y-82951581D01*
X159988000Y-82951581D01*
X160083238Y-82903962D01*
X160178476Y-82808724D01*
X160226095Y-82618248D01*
X160226095Y-82284914D01*
X160178476Y-82094438D01*
X160083238Y-81999200D01*
X159988000Y-81951581D01*
X159130857Y-82951581D02*
X159130857Y-81951581D01*
X158559428Y-82951581D01*
X158559428Y-81951581D01*
X158083238Y-82427771D02*
X157749904Y-82427771D01*
X157607047Y-82951581D02*
X158083238Y-82951581D01*
X158083238Y-81951581D01*
X157607047Y-81951581D01*
X157273714Y-81951581D02*
X156607047Y-81951581D01*
X157273714Y-82951581D01*
X156607047Y-82951581D01*
X156035619Y-81951581D02*
X155845142Y-81951581D01*
X155749904Y-81999200D01*
X155654666Y-82094438D01*
X155607047Y-82284914D01*
X155607047Y-82618248D01*
X155654666Y-82808724D01*
X155749904Y-82903962D01*
X155845142Y-82951581D01*
X156035619Y-82951581D01*
X156130857Y-82903962D01*
X156226095Y-82808724D01*
X156273714Y-82618248D01*
X156273714Y-82284914D01*
X156226095Y-82094438D01*
X156130857Y-81999200D01*
X156035619Y-81951581D01*
X154607047Y-82951581D02*
X154940381Y-82475390D01*
X155178476Y-82951581D02*
X155178476Y-81951581D01*
X154797523Y-81951581D01*
X154702285Y-81999200D01*
X154654666Y-82046819D01*
X154607047Y-82142057D01*
X154607047Y-82284914D01*
X154654666Y-82380152D01*
X154702285Y-82427771D01*
X154797523Y-82475390D01*
X155178476Y-82475390D01*
X181466666Y-84859762D02*
X181561904Y-84907381D01*
X181752381Y-84907381D01*
X181847619Y-84859762D01*
X181895238Y-84764524D01*
X181895238Y-84383571D01*
X181847619Y-84288333D01*
X181752381Y-84240714D01*
X181561904Y-84240714D01*
X181466666Y-84288333D01*
X181419047Y-84383571D01*
X181419047Y-84478810D01*
X181895238Y-84574048D01*
X180561904Y-84907381D02*
X180561904Y-83907381D01*
X180561904Y-84859762D02*
X180657142Y-84907381D01*
X180847619Y-84907381D01*
X180942857Y-84859762D01*
X180990476Y-84812143D01*
X181038095Y-84716905D01*
X181038095Y-84431190D01*
X180990476Y-84335952D01*
X180942857Y-84288333D01*
X180847619Y-84240714D01*
X180657142Y-84240714D01*
X180561904Y-84288333D01*
X180085714Y-84907381D02*
X180085714Y-84240714D01*
X180085714Y-83907381D02*
X180133333Y-83955000D01*
X180085714Y-84002619D01*
X180038095Y-83955000D01*
X180085714Y-83907381D01*
X180085714Y-84002619D01*
X179752381Y-84240714D02*
X179371429Y-84240714D01*
X179609524Y-83907381D02*
X179609524Y-84764524D01*
X179561905Y-84859762D01*
X179466667Y-84907381D01*
X179371429Y-84907381D01*
X179038095Y-84907381D02*
X179038095Y-84240714D01*
X179038095Y-83907381D02*
X179085714Y-83955000D01*
X179038095Y-84002619D01*
X178990476Y-83955000D01*
X179038095Y-83907381D01*
X179038095Y-84002619D01*
X178419048Y-84907381D02*
X178514286Y-84859762D01*
X178561905Y-84812143D01*
X178609524Y-84716905D01*
X178609524Y-84431190D01*
X178561905Y-84335952D01*
X178514286Y-84288333D01*
X178419048Y-84240714D01*
X178276190Y-84240714D01*
X178180952Y-84288333D01*
X178133333Y-84335952D01*
X178085714Y-84431190D01*
X178085714Y-84716905D01*
X178133333Y-84812143D01*
X178180952Y-84859762D01*
X178276190Y-84907381D01*
X178419048Y-84907381D01*
X177657143Y-84240714D02*
X177657143Y-84907381D01*
X177657143Y-84335952D02*
X177609524Y-84288333D01*
X177514286Y-84240714D01*
X177371428Y-84240714D01*
X177276190Y-84288333D01*
X177228571Y-84383571D01*
X177228571Y-84907381D01*
X175704761Y-83907381D02*
X175704761Y-84621667D01*
X175752381Y-84764524D01*
X175847619Y-84859762D01*
X175990476Y-84907381D01*
X176085714Y-84907381D01*
X174657142Y-84812143D02*
X174704761Y-84859762D01*
X174847618Y-84907381D01*
X174942856Y-84907381D01*
X175085714Y-84859762D01*
X175180952Y-84764524D01*
X175228571Y-84669286D01*
X175276190Y-84478810D01*
X175276190Y-84335952D01*
X175228571Y-84145476D01*
X175180952Y-84050238D01*
X175085714Y-83955000D01*
X174942856Y-83907381D01*
X174847618Y-83907381D01*
X174704761Y-83955000D01*
X174657142Y-84002619D01*
X174038095Y-83907381D02*
X173942856Y-83907381D01*
X173847618Y-83955000D01*
X173799999Y-84002619D01*
X173752380Y-84097857D01*
X173704761Y-84288333D01*
X173704761Y-84526429D01*
X173752380Y-84716905D01*
X173799999Y-84812143D01*
X173847618Y-84859762D01*
X173942856Y-84907381D01*
X174038095Y-84907381D01*
X174133333Y-84859762D01*
X174180952Y-84812143D01*
X174228571Y-84716905D01*
X174276190Y-84526429D01*
X174276190Y-84288333D01*
X174228571Y-84097857D01*
X174180952Y-84002619D01*
X174133333Y-83955000D01*
X174038095Y-83907381D01*
X181523733Y-82002381D02*
X181523733Y-82716667D01*
X181571353Y-82859524D01*
X181666591Y-82954762D01*
X181809448Y-83002381D01*
X181904686Y-83002381D01*
X180618971Y-82335714D02*
X180618971Y-83002381D01*
X181047543Y-82335714D02*
X181047543Y-82859524D01*
X180999924Y-82954762D01*
X180904686Y-83002381D01*
X180761828Y-83002381D01*
X180666590Y-82954762D01*
X180618971Y-82907143D01*
X179999924Y-83002381D02*
X180095162Y-82954762D01*
X180142781Y-82859524D01*
X180142781Y-82002381D01*
X179618971Y-83002381D02*
X179618971Y-82335714D01*
X179618971Y-82002381D02*
X179666590Y-82050000D01*
X179618971Y-82097619D01*
X179571352Y-82050000D01*
X179618971Y-82002381D01*
X179618971Y-82097619D01*
X178714209Y-83002381D02*
X178714209Y-82478571D01*
X178761828Y-82383333D01*
X178857066Y-82335714D01*
X179047543Y-82335714D01*
X179142781Y-82383333D01*
X178714209Y-82954762D02*
X178809447Y-83002381D01*
X179047543Y-83002381D01*
X179142781Y-82954762D01*
X179190400Y-82859524D01*
X179190400Y-82764286D01*
X179142781Y-82669048D01*
X179047543Y-82621429D01*
X178809447Y-82621429D01*
X178714209Y-82573810D01*
X178238019Y-82335714D02*
X178238019Y-83002381D01*
X178238019Y-82430952D02*
X178190400Y-82383333D01*
X178095162Y-82335714D01*
X177952304Y-82335714D01*
X177857066Y-82383333D01*
X177809447Y-82478571D01*
X177809447Y-83002381D01*
X175999923Y-82907143D02*
X176047542Y-82954762D01*
X176190399Y-83002381D01*
X176285637Y-83002381D01*
X176428495Y-82954762D01*
X176523733Y-82859524D01*
X176571352Y-82764286D01*
X176618971Y-82573810D01*
X176618971Y-82430952D01*
X176571352Y-82240476D01*
X176523733Y-82145238D01*
X176428495Y-82050000D01*
X176285637Y-82002381D01*
X176190399Y-82002381D01*
X176047542Y-82050000D01*
X175999923Y-82097619D01*
X175142780Y-83002381D02*
X175142780Y-82478571D01*
X175190399Y-82383333D01*
X175285637Y-82335714D01*
X175476114Y-82335714D01*
X175571352Y-82383333D01*
X175142780Y-82954762D02*
X175238018Y-83002381D01*
X175476114Y-83002381D01*
X175571352Y-82954762D01*
X175618971Y-82859524D01*
X175618971Y-82764286D01*
X175571352Y-82669048D01*
X175476114Y-82621429D01*
X175238018Y-82621429D01*
X175142780Y-82573810D01*
X174666590Y-82335714D02*
X174666590Y-83002381D01*
X174666590Y-82430952D02*
X174618971Y-82383333D01*
X174523733Y-82335714D01*
X174380875Y-82335714D01*
X174285637Y-82383333D01*
X174238018Y-82478571D01*
X174238018Y-83002381D01*
X173333256Y-83002381D02*
X173333256Y-82002381D01*
X173333256Y-82954762D02*
X173428494Y-83002381D01*
X173618971Y-83002381D01*
X173714209Y-82954762D01*
X173761828Y-82907143D01*
X173809447Y-82811905D01*
X173809447Y-82526190D01*
X173761828Y-82430952D01*
X173714209Y-82383333D01*
X173618971Y-82335714D01*
X173428494Y-82335714D01*
X173333256Y-82383333D01*
X172952304Y-82335714D02*
X172714209Y-83002381D01*
X172476113Y-82335714D02*
X172714209Y-83002381D01*
X172809447Y-83240476D01*
X172857066Y-83288095D01*
X172952304Y-83335714D01*
X199918152Y-84189914D02*
X199680057Y-84856581D01*
X199441961Y-84189914D01*
X198870533Y-83856581D02*
X198775294Y-83856581D01*
X198680056Y-83904200D01*
X198632437Y-83951819D01*
X198584818Y-84047057D01*
X198537199Y-84237533D01*
X198537199Y-84475629D01*
X198584818Y-84666105D01*
X198632437Y-84761343D01*
X198680056Y-84808962D01*
X198775294Y-84856581D01*
X198870533Y-84856581D01*
X198965771Y-84808962D01*
X199013390Y-84761343D01*
X199061009Y-84666105D01*
X199108628Y-84475629D01*
X199108628Y-84237533D01*
X199061009Y-84047057D01*
X199013390Y-83951819D01*
X198965771Y-83904200D01*
X198870533Y-83856581D01*
X198108628Y-84761343D02*
X198061009Y-84808962D01*
X198108628Y-84856581D01*
X198156247Y-84808962D01*
X198108628Y-84761343D01*
X198108628Y-84856581D01*
X197680057Y-83951819D02*
X197632438Y-83904200D01*
X197537200Y-83856581D01*
X197299104Y-83856581D01*
X197203866Y-83904200D01*
X197156247Y-83951819D01*
X197108628Y-84047057D01*
X197108628Y-84142295D01*
X197156247Y-84285152D01*
X197727676Y-84856581D01*
X197108628Y-84856581D01*
X196680057Y-84761343D02*
X196632438Y-84808962D01*
X196680057Y-84856581D01*
X196727676Y-84808962D01*
X196680057Y-84761343D01*
X196680057Y-84856581D01*
X196013391Y-83856581D02*
X195918152Y-83856581D01*
X195822914Y-83904200D01*
X195775295Y-83951819D01*
X195727676Y-84047057D01*
X195680057Y-84237533D01*
X195680057Y-84475629D01*
X195727676Y-84666105D01*
X195775295Y-84761343D01*
X195822914Y-84808962D01*
X195918152Y-84856581D01*
X196013391Y-84856581D01*
X196108629Y-84808962D01*
X196156248Y-84761343D01*
X196203867Y-84666105D01*
X196251486Y-84475629D01*
X196251486Y-84237533D01*
X196203867Y-84047057D01*
X196156248Y-83951819D01*
X196108629Y-83904200D01*
X196013391Y-83856581D01*
X194203866Y-85237533D02*
X194251486Y-85189914D01*
X194346724Y-85047057D01*
X194394343Y-84951819D01*
X194441962Y-84808962D01*
X194489581Y-84570867D01*
X194489581Y-84380390D01*
X194441962Y-84142295D01*
X194394343Y-83999438D01*
X194346724Y-83904200D01*
X194251486Y-83761343D01*
X194203866Y-83713724D01*
X193822914Y-84856581D02*
X193822914Y-84189914D01*
X193822914Y-83856581D02*
X193870533Y-83904200D01*
X193822914Y-83951819D01*
X193775295Y-83904200D01*
X193822914Y-83856581D01*
X193822914Y-83951819D01*
X193584819Y-84951819D02*
X192822914Y-84951819D01*
X192156247Y-84856581D02*
X192156247Y-84332771D01*
X192203866Y-84237533D01*
X192299104Y-84189914D01*
X192489581Y-84189914D01*
X192584819Y-84237533D01*
X192156247Y-84808962D02*
X192251485Y-84856581D01*
X192489581Y-84856581D01*
X192584819Y-84808962D01*
X192632438Y-84713724D01*
X192632438Y-84618486D01*
X192584819Y-84523248D01*
X192489581Y-84475629D01*
X192251485Y-84475629D01*
X192156247Y-84428010D01*
X191775295Y-85237533D02*
X191727676Y-85189914D01*
X191632438Y-85047057D01*
X191584819Y-84951819D01*
X191537200Y-84808962D01*
X191489581Y-84570867D01*
X191489581Y-84380390D01*
X191537200Y-84142295D01*
X191584819Y-83999438D01*
X191632438Y-83904200D01*
X191727676Y-83761343D01*
X191775295Y-83713724D01*
X198151333Y-82951581D02*
X198151333Y-81951581D01*
X197817999Y-82665867D01*
X197484666Y-81951581D01*
X197484666Y-82951581D01*
X196818000Y-81951581D02*
X196627523Y-81951581D01*
X196532285Y-81999200D01*
X196437047Y-82094438D01*
X196389428Y-82284914D01*
X196389428Y-82618248D01*
X196437047Y-82808724D01*
X196532285Y-82903962D01*
X196627523Y-82951581D01*
X196818000Y-82951581D01*
X196913238Y-82903962D01*
X197008476Y-82808724D01*
X197056095Y-82618248D01*
X197056095Y-82284914D01*
X197008476Y-82094438D01*
X196913238Y-81999200D01*
X196818000Y-81951581D01*
X195960857Y-82951581D02*
X195960857Y-81951581D01*
X195389428Y-82951581D01*
X195389428Y-81951581D01*
X194913238Y-82427771D02*
X194579904Y-82427771D01*
X194437047Y-82951581D02*
X194913238Y-82951581D01*
X194913238Y-81951581D01*
X194437047Y-81951581D01*
X194103714Y-81951581D02*
X193437047Y-81951581D01*
X194103714Y-82951581D01*
X193437047Y-82951581D01*
X192865619Y-81951581D02*
X192675142Y-81951581D01*
X192579904Y-81999200D01*
X192484666Y-82094438D01*
X192437047Y-82284914D01*
X192437047Y-82618248D01*
X192484666Y-82808724D01*
X192579904Y-82903962D01*
X192675142Y-82951581D01*
X192865619Y-82951581D01*
X192960857Y-82903962D01*
X193056095Y-82808724D01*
X193103714Y-82618248D01*
X193103714Y-82284914D01*
X193056095Y-82094438D01*
X192960857Y-81999200D01*
X192865619Y-81951581D01*
X191437047Y-82951581D02*
X191770381Y-82475390D01*
X192008476Y-82951581D02*
X192008476Y-81951581D01*
X191627523Y-81951581D01*
X191532285Y-81999200D01*
X191484666Y-82046819D01*
X191437047Y-82142057D01*
X191437047Y-82284914D01*
X191484666Y-82380152D01*
X191532285Y-82427771D01*
X191627523Y-82475390D01*
X192008476Y-82475390D01*
X218296666Y-84859762D02*
X218391904Y-84907381D01*
X218582381Y-84907381D01*
X218677619Y-84859762D01*
X218725238Y-84764524D01*
X218725238Y-84383571D01*
X218677619Y-84288333D01*
X218582381Y-84240714D01*
X218391904Y-84240714D01*
X218296666Y-84288333D01*
X218249047Y-84383571D01*
X218249047Y-84478810D01*
X218725238Y-84574048D01*
X217391904Y-84907381D02*
X217391904Y-83907381D01*
X217391904Y-84859762D02*
X217487142Y-84907381D01*
X217677619Y-84907381D01*
X217772857Y-84859762D01*
X217820476Y-84812143D01*
X217868095Y-84716905D01*
X217868095Y-84431190D01*
X217820476Y-84335952D01*
X217772857Y-84288333D01*
X217677619Y-84240714D01*
X217487142Y-84240714D01*
X217391904Y-84288333D01*
X216915714Y-84907381D02*
X216915714Y-84240714D01*
X216915714Y-83907381D02*
X216963333Y-83955000D01*
X216915714Y-84002619D01*
X216868095Y-83955000D01*
X216915714Y-83907381D01*
X216915714Y-84002619D01*
X216582381Y-84240714D02*
X216201429Y-84240714D01*
X216439524Y-83907381D02*
X216439524Y-84764524D01*
X216391905Y-84859762D01*
X216296667Y-84907381D01*
X216201429Y-84907381D01*
X215868095Y-84907381D02*
X215868095Y-84240714D01*
X215868095Y-83907381D02*
X215915714Y-83955000D01*
X215868095Y-84002619D01*
X215820476Y-83955000D01*
X215868095Y-83907381D01*
X215868095Y-84002619D01*
X215249048Y-84907381D02*
X215344286Y-84859762D01*
X215391905Y-84812143D01*
X215439524Y-84716905D01*
X215439524Y-84431190D01*
X215391905Y-84335952D01*
X215344286Y-84288333D01*
X215249048Y-84240714D01*
X215106190Y-84240714D01*
X215010952Y-84288333D01*
X214963333Y-84335952D01*
X214915714Y-84431190D01*
X214915714Y-84716905D01*
X214963333Y-84812143D01*
X215010952Y-84859762D01*
X215106190Y-84907381D01*
X215249048Y-84907381D01*
X214487143Y-84240714D02*
X214487143Y-84907381D01*
X214487143Y-84335952D02*
X214439524Y-84288333D01*
X214344286Y-84240714D01*
X214201428Y-84240714D01*
X214106190Y-84288333D01*
X214058571Y-84383571D01*
X214058571Y-84907381D01*
X212534761Y-83907381D02*
X212534761Y-84621667D01*
X212582381Y-84764524D01*
X212677619Y-84859762D01*
X212820476Y-84907381D01*
X212915714Y-84907381D01*
X211487142Y-84812143D02*
X211534761Y-84859762D01*
X211677618Y-84907381D01*
X211772856Y-84907381D01*
X211915714Y-84859762D01*
X212010952Y-84764524D01*
X212058571Y-84669286D01*
X212106190Y-84478810D01*
X212106190Y-84335952D01*
X212058571Y-84145476D01*
X212010952Y-84050238D01*
X211915714Y-83955000D01*
X211772856Y-83907381D01*
X211677618Y-83907381D01*
X211534761Y-83955000D01*
X211487142Y-84002619D01*
X210868095Y-83907381D02*
X210772856Y-83907381D01*
X210677618Y-83955000D01*
X210629999Y-84002619D01*
X210582380Y-84097857D01*
X210534761Y-84288333D01*
X210534761Y-84526429D01*
X210582380Y-84716905D01*
X210629999Y-84812143D01*
X210677618Y-84859762D01*
X210772856Y-84907381D01*
X210868095Y-84907381D01*
X210963333Y-84859762D01*
X211010952Y-84812143D01*
X211058571Y-84716905D01*
X211106190Y-84526429D01*
X211106190Y-84288333D01*
X211058571Y-84097857D01*
X211010952Y-84002619D01*
X210963333Y-83955000D01*
X210868095Y-83907381D01*
X218353733Y-82002381D02*
X218353733Y-82716667D01*
X218401353Y-82859524D01*
X218496591Y-82954762D01*
X218639448Y-83002381D01*
X218734686Y-83002381D01*
X217448971Y-82335714D02*
X217448971Y-83002381D01*
X217877543Y-82335714D02*
X217877543Y-82859524D01*
X217829924Y-82954762D01*
X217734686Y-83002381D01*
X217591828Y-83002381D01*
X217496590Y-82954762D01*
X217448971Y-82907143D01*
X216829924Y-83002381D02*
X216925162Y-82954762D01*
X216972781Y-82859524D01*
X216972781Y-82002381D01*
X216448971Y-83002381D02*
X216448971Y-82335714D01*
X216448971Y-82002381D02*
X216496590Y-82050000D01*
X216448971Y-82097619D01*
X216401352Y-82050000D01*
X216448971Y-82002381D01*
X216448971Y-82097619D01*
X215544209Y-83002381D02*
X215544209Y-82478571D01*
X215591828Y-82383333D01*
X215687066Y-82335714D01*
X215877543Y-82335714D01*
X215972781Y-82383333D01*
X215544209Y-82954762D02*
X215639447Y-83002381D01*
X215877543Y-83002381D01*
X215972781Y-82954762D01*
X216020400Y-82859524D01*
X216020400Y-82764286D01*
X215972781Y-82669048D01*
X215877543Y-82621429D01*
X215639447Y-82621429D01*
X215544209Y-82573810D01*
X215068019Y-82335714D02*
X215068019Y-83002381D01*
X215068019Y-82430952D02*
X215020400Y-82383333D01*
X214925162Y-82335714D01*
X214782304Y-82335714D01*
X214687066Y-82383333D01*
X214639447Y-82478571D01*
X214639447Y-83002381D01*
X212829923Y-82907143D02*
X212877542Y-82954762D01*
X213020399Y-83002381D01*
X213115637Y-83002381D01*
X213258495Y-82954762D01*
X213353733Y-82859524D01*
X213401352Y-82764286D01*
X213448971Y-82573810D01*
X213448971Y-82430952D01*
X213401352Y-82240476D01*
X213353733Y-82145238D01*
X213258495Y-82050000D01*
X213115637Y-82002381D01*
X213020399Y-82002381D01*
X212877542Y-82050000D01*
X212829923Y-82097619D01*
X211972780Y-83002381D02*
X211972780Y-82478571D01*
X212020399Y-82383333D01*
X212115637Y-82335714D01*
X212306114Y-82335714D01*
X212401352Y-82383333D01*
X211972780Y-82954762D02*
X212068018Y-83002381D01*
X212306114Y-83002381D01*
X212401352Y-82954762D01*
X212448971Y-82859524D01*
X212448971Y-82764286D01*
X212401352Y-82669048D01*
X212306114Y-82621429D01*
X212068018Y-82621429D01*
X211972780Y-82573810D01*
X211496590Y-82335714D02*
X211496590Y-83002381D01*
X211496590Y-82430952D02*
X211448971Y-82383333D01*
X211353733Y-82335714D01*
X211210875Y-82335714D01*
X211115637Y-82383333D01*
X211068018Y-82478571D01*
X211068018Y-83002381D01*
X210163256Y-83002381D02*
X210163256Y-82002381D01*
X210163256Y-82954762D02*
X210258494Y-83002381D01*
X210448971Y-83002381D01*
X210544209Y-82954762D01*
X210591828Y-82907143D01*
X210639447Y-82811905D01*
X210639447Y-82526190D01*
X210591828Y-82430952D01*
X210544209Y-82383333D01*
X210448971Y-82335714D01*
X210258494Y-82335714D01*
X210163256Y-82383333D01*
X209782304Y-82335714D02*
X209544209Y-83002381D01*
X209306113Y-82335714D02*
X209544209Y-83002381D01*
X209639447Y-83240476D01*
X209687066Y-83288095D01*
X209782304Y-83335714D01*
X236748152Y-84189914D02*
X236510057Y-84856581D01*
X236271961Y-84189914D01*
X235700533Y-83856581D02*
X235605294Y-83856581D01*
X235510056Y-83904200D01*
X235462437Y-83951819D01*
X235414818Y-84047057D01*
X235367199Y-84237533D01*
X235367199Y-84475629D01*
X235414818Y-84666105D01*
X235462437Y-84761343D01*
X235510056Y-84808962D01*
X235605294Y-84856581D01*
X235700533Y-84856581D01*
X235795771Y-84808962D01*
X235843390Y-84761343D01*
X235891009Y-84666105D01*
X235938628Y-84475629D01*
X235938628Y-84237533D01*
X235891009Y-84047057D01*
X235843390Y-83951819D01*
X235795771Y-83904200D01*
X235700533Y-83856581D01*
X234938628Y-84761343D02*
X234891009Y-84808962D01*
X234938628Y-84856581D01*
X234986247Y-84808962D01*
X234938628Y-84761343D01*
X234938628Y-84856581D01*
X234510057Y-83951819D02*
X234462438Y-83904200D01*
X234367200Y-83856581D01*
X234129104Y-83856581D01*
X234033866Y-83904200D01*
X233986247Y-83951819D01*
X233938628Y-84047057D01*
X233938628Y-84142295D01*
X233986247Y-84285152D01*
X234557676Y-84856581D01*
X233938628Y-84856581D01*
X233510057Y-84761343D02*
X233462438Y-84808962D01*
X233510057Y-84856581D01*
X233557676Y-84808962D01*
X233510057Y-84761343D01*
X233510057Y-84856581D01*
X232843391Y-83856581D02*
X232748152Y-83856581D01*
X232652914Y-83904200D01*
X232605295Y-83951819D01*
X232557676Y-84047057D01*
X232510057Y-84237533D01*
X232510057Y-84475629D01*
X232557676Y-84666105D01*
X232605295Y-84761343D01*
X232652914Y-84808962D01*
X232748152Y-84856581D01*
X232843391Y-84856581D01*
X232938629Y-84808962D01*
X232986248Y-84761343D01*
X233033867Y-84666105D01*
X233081486Y-84475629D01*
X233081486Y-84237533D01*
X233033867Y-84047057D01*
X232986248Y-83951819D01*
X232938629Y-83904200D01*
X232843391Y-83856581D01*
X231033866Y-85237533D02*
X231081486Y-85189914D01*
X231176724Y-85047057D01*
X231224343Y-84951819D01*
X231271962Y-84808962D01*
X231319581Y-84570867D01*
X231319581Y-84380390D01*
X231271962Y-84142295D01*
X231224343Y-83999438D01*
X231176724Y-83904200D01*
X231081486Y-83761343D01*
X231033866Y-83713724D01*
X230652914Y-84856581D02*
X230652914Y-84189914D01*
X230652914Y-83856581D02*
X230700533Y-83904200D01*
X230652914Y-83951819D01*
X230605295Y-83904200D01*
X230652914Y-83856581D01*
X230652914Y-83951819D01*
X230414819Y-84951819D02*
X229652914Y-84951819D01*
X228986247Y-84856581D02*
X228986247Y-84332771D01*
X229033866Y-84237533D01*
X229129104Y-84189914D01*
X229319581Y-84189914D01*
X229414819Y-84237533D01*
X228986247Y-84808962D02*
X229081485Y-84856581D01*
X229319581Y-84856581D01*
X229414819Y-84808962D01*
X229462438Y-84713724D01*
X229462438Y-84618486D01*
X229414819Y-84523248D01*
X229319581Y-84475629D01*
X229081485Y-84475629D01*
X228986247Y-84428010D01*
X228605295Y-85237533D02*
X228557676Y-85189914D01*
X228462438Y-85047057D01*
X228414819Y-84951819D01*
X228367200Y-84808962D01*
X228319581Y-84570867D01*
X228319581Y-84380390D01*
X228367200Y-84142295D01*
X228414819Y-83999438D01*
X228462438Y-83904200D01*
X228557676Y-83761343D01*
X228605295Y-83713724D01*
X234981333Y-82951581D02*
X234981333Y-81951581D01*
X234647999Y-82665867D01*
X234314666Y-81951581D01*
X234314666Y-82951581D01*
X233648000Y-81951581D02*
X233457523Y-81951581D01*
X233362285Y-81999200D01*
X233267047Y-82094438D01*
X233219428Y-82284914D01*
X233219428Y-82618248D01*
X233267047Y-82808724D01*
X233362285Y-82903962D01*
X233457523Y-82951581D01*
X233648000Y-82951581D01*
X233743238Y-82903962D01*
X233838476Y-82808724D01*
X233886095Y-82618248D01*
X233886095Y-82284914D01*
X233838476Y-82094438D01*
X233743238Y-81999200D01*
X233648000Y-81951581D01*
X232790857Y-82951581D02*
X232790857Y-81951581D01*
X232219428Y-82951581D01*
X232219428Y-81951581D01*
X231743238Y-82427771D02*
X231409904Y-82427771D01*
X231267047Y-82951581D02*
X231743238Y-82951581D01*
X231743238Y-81951581D01*
X231267047Y-81951581D01*
X230933714Y-81951581D02*
X230267047Y-81951581D01*
X230933714Y-82951581D01*
X230267047Y-82951581D01*
X229695619Y-81951581D02*
X229505142Y-81951581D01*
X229409904Y-81999200D01*
X229314666Y-82094438D01*
X229267047Y-82284914D01*
X229267047Y-82618248D01*
X229314666Y-82808724D01*
X229409904Y-82903962D01*
X229505142Y-82951581D01*
X229695619Y-82951581D01*
X229790857Y-82903962D01*
X229886095Y-82808724D01*
X229933714Y-82618248D01*
X229933714Y-82284914D01*
X229886095Y-82094438D01*
X229790857Y-81999200D01*
X229695619Y-81951581D01*
X228267047Y-82951581D02*
X228600381Y-82475390D01*
X228838476Y-82951581D02*
X228838476Y-81951581D01*
X228457523Y-81951581D01*
X228362285Y-81999200D01*
X228314666Y-82046819D01*
X228267047Y-82142057D01*
X228267047Y-82284914D01*
X228314666Y-82380152D01*
X228362285Y-82427771D01*
X228457523Y-82475390D01*
X228838476Y-82475390D01*
X70976666Y-138199762D02*
X71071904Y-138247381D01*
X71262381Y-138247381D01*
X71357619Y-138199762D01*
X71405238Y-138104524D01*
X71405238Y-137723571D01*
X71357619Y-137628333D01*
X71262381Y-137580714D01*
X71071904Y-137580714D01*
X70976666Y-137628333D01*
X70929047Y-137723571D01*
X70929047Y-137818810D01*
X71405238Y-137914048D01*
X70071904Y-138247381D02*
X70071904Y-137247381D01*
X70071904Y-138199762D02*
X70167142Y-138247381D01*
X70357619Y-138247381D01*
X70452857Y-138199762D01*
X70500476Y-138152143D01*
X70548095Y-138056905D01*
X70548095Y-137771190D01*
X70500476Y-137675952D01*
X70452857Y-137628333D01*
X70357619Y-137580714D01*
X70167142Y-137580714D01*
X70071904Y-137628333D01*
X69595714Y-138247381D02*
X69595714Y-137580714D01*
X69595714Y-137247381D02*
X69643333Y-137295000D01*
X69595714Y-137342619D01*
X69548095Y-137295000D01*
X69595714Y-137247381D01*
X69595714Y-137342619D01*
X69262381Y-137580714D02*
X68881429Y-137580714D01*
X69119524Y-137247381D02*
X69119524Y-138104524D01*
X69071905Y-138199762D01*
X68976667Y-138247381D01*
X68881429Y-138247381D01*
X68548095Y-138247381D02*
X68548095Y-137580714D01*
X68548095Y-137247381D02*
X68595714Y-137295000D01*
X68548095Y-137342619D01*
X68500476Y-137295000D01*
X68548095Y-137247381D01*
X68548095Y-137342619D01*
X67929048Y-138247381D02*
X68024286Y-138199762D01*
X68071905Y-138152143D01*
X68119524Y-138056905D01*
X68119524Y-137771190D01*
X68071905Y-137675952D01*
X68024286Y-137628333D01*
X67929048Y-137580714D01*
X67786190Y-137580714D01*
X67690952Y-137628333D01*
X67643333Y-137675952D01*
X67595714Y-137771190D01*
X67595714Y-138056905D01*
X67643333Y-138152143D01*
X67690952Y-138199762D01*
X67786190Y-138247381D01*
X67929048Y-138247381D01*
X67167143Y-137580714D02*
X67167143Y-138247381D01*
X67167143Y-137675952D02*
X67119524Y-137628333D01*
X67024286Y-137580714D01*
X66881428Y-137580714D01*
X66786190Y-137628333D01*
X66738571Y-137723571D01*
X66738571Y-138247381D01*
X65214761Y-137247381D02*
X65214761Y-137961667D01*
X65262381Y-138104524D01*
X65357619Y-138199762D01*
X65500476Y-138247381D01*
X65595714Y-138247381D01*
X64167142Y-138152143D02*
X64214761Y-138199762D01*
X64357618Y-138247381D01*
X64452856Y-138247381D01*
X64595714Y-138199762D01*
X64690952Y-138104524D01*
X64738571Y-138009286D01*
X64786190Y-137818810D01*
X64786190Y-137675952D01*
X64738571Y-137485476D01*
X64690952Y-137390238D01*
X64595714Y-137295000D01*
X64452856Y-137247381D01*
X64357618Y-137247381D01*
X64214761Y-137295000D01*
X64167142Y-137342619D01*
X63548095Y-137247381D02*
X63452856Y-137247381D01*
X63357618Y-137295000D01*
X63309999Y-137342619D01*
X63262380Y-137437857D01*
X63214761Y-137628333D01*
X63214761Y-137866429D01*
X63262380Y-138056905D01*
X63309999Y-138152143D01*
X63357618Y-138199762D01*
X63452856Y-138247381D01*
X63548095Y-138247381D01*
X63643333Y-138199762D01*
X63690952Y-138152143D01*
X63738571Y-138056905D01*
X63786190Y-137866429D01*
X63786190Y-137628333D01*
X63738571Y-137437857D01*
X63690952Y-137342619D01*
X63643333Y-137295000D01*
X63548095Y-137247381D01*
X71033733Y-135342381D02*
X71033733Y-136056667D01*
X71081353Y-136199524D01*
X71176591Y-136294762D01*
X71319448Y-136342381D01*
X71414686Y-136342381D01*
X70128971Y-135675714D02*
X70128971Y-136342381D01*
X70557543Y-135675714D02*
X70557543Y-136199524D01*
X70509924Y-136294762D01*
X70414686Y-136342381D01*
X70271828Y-136342381D01*
X70176590Y-136294762D01*
X70128971Y-136247143D01*
X69509924Y-136342381D02*
X69605162Y-136294762D01*
X69652781Y-136199524D01*
X69652781Y-135342381D01*
X69128971Y-136342381D02*
X69128971Y-135675714D01*
X69128971Y-135342381D02*
X69176590Y-135390000D01*
X69128971Y-135437619D01*
X69081352Y-135390000D01*
X69128971Y-135342381D01*
X69128971Y-135437619D01*
X68224209Y-136342381D02*
X68224209Y-135818571D01*
X68271828Y-135723333D01*
X68367066Y-135675714D01*
X68557543Y-135675714D01*
X68652781Y-135723333D01*
X68224209Y-136294762D02*
X68319447Y-136342381D01*
X68557543Y-136342381D01*
X68652781Y-136294762D01*
X68700400Y-136199524D01*
X68700400Y-136104286D01*
X68652781Y-136009048D01*
X68557543Y-135961429D01*
X68319447Y-135961429D01*
X68224209Y-135913810D01*
X67748019Y-135675714D02*
X67748019Y-136342381D01*
X67748019Y-135770952D02*
X67700400Y-135723333D01*
X67605162Y-135675714D01*
X67462304Y-135675714D01*
X67367066Y-135723333D01*
X67319447Y-135818571D01*
X67319447Y-136342381D01*
X65509923Y-136247143D02*
X65557542Y-136294762D01*
X65700399Y-136342381D01*
X65795637Y-136342381D01*
X65938495Y-136294762D01*
X66033733Y-136199524D01*
X66081352Y-136104286D01*
X66128971Y-135913810D01*
X66128971Y-135770952D01*
X66081352Y-135580476D01*
X66033733Y-135485238D01*
X65938495Y-135390000D01*
X65795637Y-135342381D01*
X65700399Y-135342381D01*
X65557542Y-135390000D01*
X65509923Y-135437619D01*
X64652780Y-136342381D02*
X64652780Y-135818571D01*
X64700399Y-135723333D01*
X64795637Y-135675714D01*
X64986114Y-135675714D01*
X65081352Y-135723333D01*
X64652780Y-136294762D02*
X64748018Y-136342381D01*
X64986114Y-136342381D01*
X65081352Y-136294762D01*
X65128971Y-136199524D01*
X65128971Y-136104286D01*
X65081352Y-136009048D01*
X64986114Y-135961429D01*
X64748018Y-135961429D01*
X64652780Y-135913810D01*
X64176590Y-135675714D02*
X64176590Y-136342381D01*
X64176590Y-135770952D02*
X64128971Y-135723333D01*
X64033733Y-135675714D01*
X63890875Y-135675714D01*
X63795637Y-135723333D01*
X63748018Y-135818571D01*
X63748018Y-136342381D01*
X62843256Y-136342381D02*
X62843256Y-135342381D01*
X62843256Y-136294762D02*
X62938494Y-136342381D01*
X63128971Y-136342381D01*
X63224209Y-136294762D01*
X63271828Y-136247143D01*
X63319447Y-136151905D01*
X63319447Y-135866190D01*
X63271828Y-135770952D01*
X63224209Y-135723333D01*
X63128971Y-135675714D01*
X62938494Y-135675714D01*
X62843256Y-135723333D01*
X62462304Y-135675714D02*
X62224209Y-136342381D01*
X61986113Y-135675714D02*
X62224209Y-136342381D01*
X62319447Y-136580476D01*
X62367066Y-136628095D01*
X62462304Y-136675714D01*
X89428152Y-137529914D02*
X89190057Y-138196581D01*
X88951961Y-137529914D01*
X88380533Y-137196581D02*
X88285294Y-137196581D01*
X88190056Y-137244200D01*
X88142437Y-137291819D01*
X88094818Y-137387057D01*
X88047199Y-137577533D01*
X88047199Y-137815629D01*
X88094818Y-138006105D01*
X88142437Y-138101343D01*
X88190056Y-138148962D01*
X88285294Y-138196581D01*
X88380533Y-138196581D01*
X88475771Y-138148962D01*
X88523390Y-138101343D01*
X88571009Y-138006105D01*
X88618628Y-137815629D01*
X88618628Y-137577533D01*
X88571009Y-137387057D01*
X88523390Y-137291819D01*
X88475771Y-137244200D01*
X88380533Y-137196581D01*
X87618628Y-138101343D02*
X87571009Y-138148962D01*
X87618628Y-138196581D01*
X87666247Y-138148962D01*
X87618628Y-138101343D01*
X87618628Y-138196581D01*
X87190057Y-137291819D02*
X87142438Y-137244200D01*
X87047200Y-137196581D01*
X86809104Y-137196581D01*
X86713866Y-137244200D01*
X86666247Y-137291819D01*
X86618628Y-137387057D01*
X86618628Y-137482295D01*
X86666247Y-137625152D01*
X87237676Y-138196581D01*
X86618628Y-138196581D01*
X86190057Y-138101343D02*
X86142438Y-138148962D01*
X86190057Y-138196581D01*
X86237676Y-138148962D01*
X86190057Y-138101343D01*
X86190057Y-138196581D01*
X85523391Y-137196581D02*
X85428152Y-137196581D01*
X85332914Y-137244200D01*
X85285295Y-137291819D01*
X85237676Y-137387057D01*
X85190057Y-137577533D01*
X85190057Y-137815629D01*
X85237676Y-138006105D01*
X85285295Y-138101343D01*
X85332914Y-138148962D01*
X85428152Y-138196581D01*
X85523391Y-138196581D01*
X85618629Y-138148962D01*
X85666248Y-138101343D01*
X85713867Y-138006105D01*
X85761486Y-137815629D01*
X85761486Y-137577533D01*
X85713867Y-137387057D01*
X85666248Y-137291819D01*
X85618629Y-137244200D01*
X85523391Y-137196581D01*
X83713866Y-138577533D02*
X83761486Y-138529914D01*
X83856724Y-138387057D01*
X83904343Y-138291819D01*
X83951962Y-138148962D01*
X83999581Y-137910867D01*
X83999581Y-137720390D01*
X83951962Y-137482295D01*
X83904343Y-137339438D01*
X83856724Y-137244200D01*
X83761486Y-137101343D01*
X83713866Y-137053724D01*
X83332914Y-138196581D02*
X83332914Y-137529914D01*
X83332914Y-137196581D02*
X83380533Y-137244200D01*
X83332914Y-137291819D01*
X83285295Y-137244200D01*
X83332914Y-137196581D01*
X83332914Y-137291819D01*
X83094819Y-138291819D02*
X82332914Y-138291819D01*
X81666247Y-138196581D02*
X81666247Y-137672771D01*
X81713866Y-137577533D01*
X81809104Y-137529914D01*
X81999581Y-137529914D01*
X82094819Y-137577533D01*
X81666247Y-138148962D02*
X81761485Y-138196581D01*
X81999581Y-138196581D01*
X82094819Y-138148962D01*
X82142438Y-138053724D01*
X82142438Y-137958486D01*
X82094819Y-137863248D01*
X81999581Y-137815629D01*
X81761485Y-137815629D01*
X81666247Y-137768010D01*
X81285295Y-138577533D02*
X81237676Y-138529914D01*
X81142438Y-138387057D01*
X81094819Y-138291819D01*
X81047200Y-138148962D01*
X80999581Y-137910867D01*
X80999581Y-137720390D01*
X81047200Y-137482295D01*
X81094819Y-137339438D01*
X81142438Y-137244200D01*
X81237676Y-137101343D01*
X81285295Y-137053724D01*
X87661333Y-136291581D02*
X87661333Y-135291581D01*
X87327999Y-136005867D01*
X86994666Y-135291581D01*
X86994666Y-136291581D01*
X86328000Y-135291581D02*
X86137523Y-135291581D01*
X86042285Y-135339200D01*
X85947047Y-135434438D01*
X85899428Y-135624914D01*
X85899428Y-135958248D01*
X85947047Y-136148724D01*
X86042285Y-136243962D01*
X86137523Y-136291581D01*
X86328000Y-136291581D01*
X86423238Y-136243962D01*
X86518476Y-136148724D01*
X86566095Y-135958248D01*
X86566095Y-135624914D01*
X86518476Y-135434438D01*
X86423238Y-135339200D01*
X86328000Y-135291581D01*
X85470857Y-136291581D02*
X85470857Y-135291581D01*
X84899428Y-136291581D01*
X84899428Y-135291581D01*
X84423238Y-135767771D02*
X84089904Y-135767771D01*
X83947047Y-136291581D02*
X84423238Y-136291581D01*
X84423238Y-135291581D01*
X83947047Y-135291581D01*
X83613714Y-135291581D02*
X82947047Y-135291581D01*
X83613714Y-136291581D01*
X82947047Y-136291581D01*
X82375619Y-135291581D02*
X82185142Y-135291581D01*
X82089904Y-135339200D01*
X81994666Y-135434438D01*
X81947047Y-135624914D01*
X81947047Y-135958248D01*
X81994666Y-136148724D01*
X82089904Y-136243962D01*
X82185142Y-136291581D01*
X82375619Y-136291581D01*
X82470857Y-136243962D01*
X82566095Y-136148724D01*
X82613714Y-135958248D01*
X82613714Y-135624914D01*
X82566095Y-135434438D01*
X82470857Y-135339200D01*
X82375619Y-135291581D01*
X80947047Y-136291581D02*
X81280381Y-135815390D01*
X81518476Y-136291581D02*
X81518476Y-135291581D01*
X81137523Y-135291581D01*
X81042285Y-135339200D01*
X80994666Y-135386819D01*
X80947047Y-135482057D01*
X80947047Y-135624914D01*
X80994666Y-135720152D01*
X81042285Y-135767771D01*
X81137523Y-135815390D01*
X81518476Y-135815390D01*
X107806666Y-138199762D02*
X107901904Y-138247381D01*
X108092381Y-138247381D01*
X108187619Y-138199762D01*
X108235238Y-138104524D01*
X108235238Y-137723571D01*
X108187619Y-137628333D01*
X108092381Y-137580714D01*
X107901904Y-137580714D01*
X107806666Y-137628333D01*
X107759047Y-137723571D01*
X107759047Y-137818810D01*
X108235238Y-137914048D01*
X106901904Y-138247381D02*
X106901904Y-137247381D01*
X106901904Y-138199762D02*
X106997142Y-138247381D01*
X107187619Y-138247381D01*
X107282857Y-138199762D01*
X107330476Y-138152143D01*
X107378095Y-138056905D01*
X107378095Y-137771190D01*
X107330476Y-137675952D01*
X107282857Y-137628333D01*
X107187619Y-137580714D01*
X106997142Y-137580714D01*
X106901904Y-137628333D01*
X106425714Y-138247381D02*
X106425714Y-137580714D01*
X106425714Y-137247381D02*
X106473333Y-137295000D01*
X106425714Y-137342619D01*
X106378095Y-137295000D01*
X106425714Y-137247381D01*
X106425714Y-137342619D01*
X106092381Y-137580714D02*
X105711429Y-137580714D01*
X105949524Y-137247381D02*
X105949524Y-138104524D01*
X105901905Y-138199762D01*
X105806667Y-138247381D01*
X105711429Y-138247381D01*
X105378095Y-138247381D02*
X105378095Y-137580714D01*
X105378095Y-137247381D02*
X105425714Y-137295000D01*
X105378095Y-137342619D01*
X105330476Y-137295000D01*
X105378095Y-137247381D01*
X105378095Y-137342619D01*
X104759048Y-138247381D02*
X104854286Y-138199762D01*
X104901905Y-138152143D01*
X104949524Y-138056905D01*
X104949524Y-137771190D01*
X104901905Y-137675952D01*
X104854286Y-137628333D01*
X104759048Y-137580714D01*
X104616190Y-137580714D01*
X104520952Y-137628333D01*
X104473333Y-137675952D01*
X104425714Y-137771190D01*
X104425714Y-138056905D01*
X104473333Y-138152143D01*
X104520952Y-138199762D01*
X104616190Y-138247381D01*
X104759048Y-138247381D01*
X103997143Y-137580714D02*
X103997143Y-138247381D01*
X103997143Y-137675952D02*
X103949524Y-137628333D01*
X103854286Y-137580714D01*
X103711428Y-137580714D01*
X103616190Y-137628333D01*
X103568571Y-137723571D01*
X103568571Y-138247381D01*
X102044761Y-137247381D02*
X102044761Y-137961667D01*
X102092381Y-138104524D01*
X102187619Y-138199762D01*
X102330476Y-138247381D01*
X102425714Y-138247381D01*
X100997142Y-138152143D02*
X101044761Y-138199762D01*
X101187618Y-138247381D01*
X101282856Y-138247381D01*
X101425714Y-138199762D01*
X101520952Y-138104524D01*
X101568571Y-138009286D01*
X101616190Y-137818810D01*
X101616190Y-137675952D01*
X101568571Y-137485476D01*
X101520952Y-137390238D01*
X101425714Y-137295000D01*
X101282856Y-137247381D01*
X101187618Y-137247381D01*
X101044761Y-137295000D01*
X100997142Y-137342619D01*
X100378095Y-137247381D02*
X100282856Y-137247381D01*
X100187618Y-137295000D01*
X100139999Y-137342619D01*
X100092380Y-137437857D01*
X100044761Y-137628333D01*
X100044761Y-137866429D01*
X100092380Y-138056905D01*
X100139999Y-138152143D01*
X100187618Y-138199762D01*
X100282856Y-138247381D01*
X100378095Y-138247381D01*
X100473333Y-138199762D01*
X100520952Y-138152143D01*
X100568571Y-138056905D01*
X100616190Y-137866429D01*
X100616190Y-137628333D01*
X100568571Y-137437857D01*
X100520952Y-137342619D01*
X100473333Y-137295000D01*
X100378095Y-137247381D01*
X107863733Y-135342381D02*
X107863733Y-136056667D01*
X107911353Y-136199524D01*
X108006591Y-136294762D01*
X108149448Y-136342381D01*
X108244686Y-136342381D01*
X106958971Y-135675714D02*
X106958971Y-136342381D01*
X107387543Y-135675714D02*
X107387543Y-136199524D01*
X107339924Y-136294762D01*
X107244686Y-136342381D01*
X107101828Y-136342381D01*
X107006590Y-136294762D01*
X106958971Y-136247143D01*
X106339924Y-136342381D02*
X106435162Y-136294762D01*
X106482781Y-136199524D01*
X106482781Y-135342381D01*
X105958971Y-136342381D02*
X105958971Y-135675714D01*
X105958971Y-135342381D02*
X106006590Y-135390000D01*
X105958971Y-135437619D01*
X105911352Y-135390000D01*
X105958971Y-135342381D01*
X105958971Y-135437619D01*
X105054209Y-136342381D02*
X105054209Y-135818571D01*
X105101828Y-135723333D01*
X105197066Y-135675714D01*
X105387543Y-135675714D01*
X105482781Y-135723333D01*
X105054209Y-136294762D02*
X105149447Y-136342381D01*
X105387543Y-136342381D01*
X105482781Y-136294762D01*
X105530400Y-136199524D01*
X105530400Y-136104286D01*
X105482781Y-136009048D01*
X105387543Y-135961429D01*
X105149447Y-135961429D01*
X105054209Y-135913810D01*
X104578019Y-135675714D02*
X104578019Y-136342381D01*
X104578019Y-135770952D02*
X104530400Y-135723333D01*
X104435162Y-135675714D01*
X104292304Y-135675714D01*
X104197066Y-135723333D01*
X104149447Y-135818571D01*
X104149447Y-136342381D01*
X102339923Y-136247143D02*
X102387542Y-136294762D01*
X102530399Y-136342381D01*
X102625637Y-136342381D01*
X102768495Y-136294762D01*
X102863733Y-136199524D01*
X102911352Y-136104286D01*
X102958971Y-135913810D01*
X102958971Y-135770952D01*
X102911352Y-135580476D01*
X102863733Y-135485238D01*
X102768495Y-135390000D01*
X102625637Y-135342381D01*
X102530399Y-135342381D01*
X102387542Y-135390000D01*
X102339923Y-135437619D01*
X101482780Y-136342381D02*
X101482780Y-135818571D01*
X101530399Y-135723333D01*
X101625637Y-135675714D01*
X101816114Y-135675714D01*
X101911352Y-135723333D01*
X101482780Y-136294762D02*
X101578018Y-136342381D01*
X101816114Y-136342381D01*
X101911352Y-136294762D01*
X101958971Y-136199524D01*
X101958971Y-136104286D01*
X101911352Y-136009048D01*
X101816114Y-135961429D01*
X101578018Y-135961429D01*
X101482780Y-135913810D01*
X101006590Y-135675714D02*
X101006590Y-136342381D01*
X101006590Y-135770952D02*
X100958971Y-135723333D01*
X100863733Y-135675714D01*
X100720875Y-135675714D01*
X100625637Y-135723333D01*
X100578018Y-135818571D01*
X100578018Y-136342381D01*
X99673256Y-136342381D02*
X99673256Y-135342381D01*
X99673256Y-136294762D02*
X99768494Y-136342381D01*
X99958971Y-136342381D01*
X100054209Y-136294762D01*
X100101828Y-136247143D01*
X100149447Y-136151905D01*
X100149447Y-135866190D01*
X100101828Y-135770952D01*
X100054209Y-135723333D01*
X99958971Y-135675714D01*
X99768494Y-135675714D01*
X99673256Y-135723333D01*
X99292304Y-135675714D02*
X99054209Y-136342381D01*
X98816113Y-135675714D02*
X99054209Y-136342381D01*
X99149447Y-136580476D01*
X99197066Y-136628095D01*
X99292304Y-136675714D01*
X126258152Y-137529914D02*
X126020057Y-138196581D01*
X125781961Y-137529914D01*
X125210533Y-137196581D02*
X125115294Y-137196581D01*
X125020056Y-137244200D01*
X124972437Y-137291819D01*
X124924818Y-137387057D01*
X124877199Y-137577533D01*
X124877199Y-137815629D01*
X124924818Y-138006105D01*
X124972437Y-138101343D01*
X125020056Y-138148962D01*
X125115294Y-138196581D01*
X125210533Y-138196581D01*
X125305771Y-138148962D01*
X125353390Y-138101343D01*
X125401009Y-138006105D01*
X125448628Y-137815629D01*
X125448628Y-137577533D01*
X125401009Y-137387057D01*
X125353390Y-137291819D01*
X125305771Y-137244200D01*
X125210533Y-137196581D01*
X124448628Y-138101343D02*
X124401009Y-138148962D01*
X124448628Y-138196581D01*
X124496247Y-138148962D01*
X124448628Y-138101343D01*
X124448628Y-138196581D01*
X124020057Y-137291819D02*
X123972438Y-137244200D01*
X123877200Y-137196581D01*
X123639104Y-137196581D01*
X123543866Y-137244200D01*
X123496247Y-137291819D01*
X123448628Y-137387057D01*
X123448628Y-137482295D01*
X123496247Y-137625152D01*
X124067676Y-138196581D01*
X123448628Y-138196581D01*
X123020057Y-138101343D02*
X122972438Y-138148962D01*
X123020057Y-138196581D01*
X123067676Y-138148962D01*
X123020057Y-138101343D01*
X123020057Y-138196581D01*
X122353391Y-137196581D02*
X122258152Y-137196581D01*
X122162914Y-137244200D01*
X122115295Y-137291819D01*
X122067676Y-137387057D01*
X122020057Y-137577533D01*
X122020057Y-137815629D01*
X122067676Y-138006105D01*
X122115295Y-138101343D01*
X122162914Y-138148962D01*
X122258152Y-138196581D01*
X122353391Y-138196581D01*
X122448629Y-138148962D01*
X122496248Y-138101343D01*
X122543867Y-138006105D01*
X122591486Y-137815629D01*
X122591486Y-137577533D01*
X122543867Y-137387057D01*
X122496248Y-137291819D01*
X122448629Y-137244200D01*
X122353391Y-137196581D01*
X120543866Y-138577533D02*
X120591486Y-138529914D01*
X120686724Y-138387057D01*
X120734343Y-138291819D01*
X120781962Y-138148962D01*
X120829581Y-137910867D01*
X120829581Y-137720390D01*
X120781962Y-137482295D01*
X120734343Y-137339438D01*
X120686724Y-137244200D01*
X120591486Y-137101343D01*
X120543866Y-137053724D01*
X120162914Y-138196581D02*
X120162914Y-137529914D01*
X120162914Y-137196581D02*
X120210533Y-137244200D01*
X120162914Y-137291819D01*
X120115295Y-137244200D01*
X120162914Y-137196581D01*
X120162914Y-137291819D01*
X119924819Y-138291819D02*
X119162914Y-138291819D01*
X118496247Y-138196581D02*
X118496247Y-137672771D01*
X118543866Y-137577533D01*
X118639104Y-137529914D01*
X118829581Y-137529914D01*
X118924819Y-137577533D01*
X118496247Y-138148962D02*
X118591485Y-138196581D01*
X118829581Y-138196581D01*
X118924819Y-138148962D01*
X118972438Y-138053724D01*
X118972438Y-137958486D01*
X118924819Y-137863248D01*
X118829581Y-137815629D01*
X118591485Y-137815629D01*
X118496247Y-137768010D01*
X118115295Y-138577533D02*
X118067676Y-138529914D01*
X117972438Y-138387057D01*
X117924819Y-138291819D01*
X117877200Y-138148962D01*
X117829581Y-137910867D01*
X117829581Y-137720390D01*
X117877200Y-137482295D01*
X117924819Y-137339438D01*
X117972438Y-137244200D01*
X118067676Y-137101343D01*
X118115295Y-137053724D01*
X124491333Y-136291581D02*
X124491333Y-135291581D01*
X124157999Y-136005867D01*
X123824666Y-135291581D01*
X123824666Y-136291581D01*
X123158000Y-135291581D02*
X122967523Y-135291581D01*
X122872285Y-135339200D01*
X122777047Y-135434438D01*
X122729428Y-135624914D01*
X122729428Y-135958248D01*
X122777047Y-136148724D01*
X122872285Y-136243962D01*
X122967523Y-136291581D01*
X123158000Y-136291581D01*
X123253238Y-136243962D01*
X123348476Y-136148724D01*
X123396095Y-135958248D01*
X123396095Y-135624914D01*
X123348476Y-135434438D01*
X123253238Y-135339200D01*
X123158000Y-135291581D01*
X122300857Y-136291581D02*
X122300857Y-135291581D01*
X121729428Y-136291581D01*
X121729428Y-135291581D01*
X121253238Y-135767771D02*
X120919904Y-135767771D01*
X120777047Y-136291581D02*
X121253238Y-136291581D01*
X121253238Y-135291581D01*
X120777047Y-135291581D01*
X120443714Y-135291581D02*
X119777047Y-135291581D01*
X120443714Y-136291581D01*
X119777047Y-136291581D01*
X119205619Y-135291581D02*
X119015142Y-135291581D01*
X118919904Y-135339200D01*
X118824666Y-135434438D01*
X118777047Y-135624914D01*
X118777047Y-135958248D01*
X118824666Y-136148724D01*
X118919904Y-136243962D01*
X119015142Y-136291581D01*
X119205619Y-136291581D01*
X119300857Y-136243962D01*
X119396095Y-136148724D01*
X119443714Y-135958248D01*
X119443714Y-135624914D01*
X119396095Y-135434438D01*
X119300857Y-135339200D01*
X119205619Y-135291581D01*
X117777047Y-136291581D02*
X118110381Y-135815390D01*
X118348476Y-136291581D02*
X118348476Y-135291581D01*
X117967523Y-135291581D01*
X117872285Y-135339200D01*
X117824666Y-135386819D01*
X117777047Y-135482057D01*
X117777047Y-135624914D01*
X117824666Y-135720152D01*
X117872285Y-135767771D01*
X117967523Y-135815390D01*
X118348476Y-135815390D01*
X144636666Y-138199762D02*
X144731904Y-138247381D01*
X144922381Y-138247381D01*
X145017619Y-138199762D01*
X145065238Y-138104524D01*
X145065238Y-137723571D01*
X145017619Y-137628333D01*
X144922381Y-137580714D01*
X144731904Y-137580714D01*
X144636666Y-137628333D01*
X144589047Y-137723571D01*
X144589047Y-137818810D01*
X145065238Y-137914048D01*
X143731904Y-138247381D02*
X143731904Y-137247381D01*
X143731904Y-138199762D02*
X143827142Y-138247381D01*
X144017619Y-138247381D01*
X144112857Y-138199762D01*
X144160476Y-138152143D01*
X144208095Y-138056905D01*
X144208095Y-137771190D01*
X144160476Y-137675952D01*
X144112857Y-137628333D01*
X144017619Y-137580714D01*
X143827142Y-137580714D01*
X143731904Y-137628333D01*
X143255714Y-138247381D02*
X143255714Y-137580714D01*
X143255714Y-137247381D02*
X143303333Y-137295000D01*
X143255714Y-137342619D01*
X143208095Y-137295000D01*
X143255714Y-137247381D01*
X143255714Y-137342619D01*
X142922381Y-137580714D02*
X142541429Y-137580714D01*
X142779524Y-137247381D02*
X142779524Y-138104524D01*
X142731905Y-138199762D01*
X142636667Y-138247381D01*
X142541429Y-138247381D01*
X142208095Y-138247381D02*
X142208095Y-137580714D01*
X142208095Y-137247381D02*
X142255714Y-137295000D01*
X142208095Y-137342619D01*
X142160476Y-137295000D01*
X142208095Y-137247381D01*
X142208095Y-137342619D01*
X141589048Y-138247381D02*
X141684286Y-138199762D01*
X141731905Y-138152143D01*
X141779524Y-138056905D01*
X141779524Y-137771190D01*
X141731905Y-137675952D01*
X141684286Y-137628333D01*
X141589048Y-137580714D01*
X141446190Y-137580714D01*
X141350952Y-137628333D01*
X141303333Y-137675952D01*
X141255714Y-137771190D01*
X141255714Y-138056905D01*
X141303333Y-138152143D01*
X141350952Y-138199762D01*
X141446190Y-138247381D01*
X141589048Y-138247381D01*
X140827143Y-137580714D02*
X140827143Y-138247381D01*
X140827143Y-137675952D02*
X140779524Y-137628333D01*
X140684286Y-137580714D01*
X140541428Y-137580714D01*
X140446190Y-137628333D01*
X140398571Y-137723571D01*
X140398571Y-138247381D01*
X138874761Y-137247381D02*
X138874761Y-137961667D01*
X138922381Y-138104524D01*
X139017619Y-138199762D01*
X139160476Y-138247381D01*
X139255714Y-138247381D01*
X137827142Y-138152143D02*
X137874761Y-138199762D01*
X138017618Y-138247381D01*
X138112856Y-138247381D01*
X138255714Y-138199762D01*
X138350952Y-138104524D01*
X138398571Y-138009286D01*
X138446190Y-137818810D01*
X138446190Y-137675952D01*
X138398571Y-137485476D01*
X138350952Y-137390238D01*
X138255714Y-137295000D01*
X138112856Y-137247381D01*
X138017618Y-137247381D01*
X137874761Y-137295000D01*
X137827142Y-137342619D01*
X137208095Y-137247381D02*
X137112856Y-137247381D01*
X137017618Y-137295000D01*
X136969999Y-137342619D01*
X136922380Y-137437857D01*
X136874761Y-137628333D01*
X136874761Y-137866429D01*
X136922380Y-138056905D01*
X136969999Y-138152143D01*
X137017618Y-138199762D01*
X137112856Y-138247381D01*
X137208095Y-138247381D01*
X137303333Y-138199762D01*
X137350952Y-138152143D01*
X137398571Y-138056905D01*
X137446190Y-137866429D01*
X137446190Y-137628333D01*
X137398571Y-137437857D01*
X137350952Y-137342619D01*
X137303333Y-137295000D01*
X137208095Y-137247381D01*
X144693733Y-135342381D02*
X144693733Y-136056667D01*
X144741353Y-136199524D01*
X144836591Y-136294762D01*
X144979448Y-136342381D01*
X145074686Y-136342381D01*
X143788971Y-135675714D02*
X143788971Y-136342381D01*
X144217543Y-135675714D02*
X144217543Y-136199524D01*
X144169924Y-136294762D01*
X144074686Y-136342381D01*
X143931828Y-136342381D01*
X143836590Y-136294762D01*
X143788971Y-136247143D01*
X143169924Y-136342381D02*
X143265162Y-136294762D01*
X143312781Y-136199524D01*
X143312781Y-135342381D01*
X142788971Y-136342381D02*
X142788971Y-135675714D01*
X142788971Y-135342381D02*
X142836590Y-135390000D01*
X142788971Y-135437619D01*
X142741352Y-135390000D01*
X142788971Y-135342381D01*
X142788971Y-135437619D01*
X141884209Y-136342381D02*
X141884209Y-135818571D01*
X141931828Y-135723333D01*
X142027066Y-135675714D01*
X142217543Y-135675714D01*
X142312781Y-135723333D01*
X141884209Y-136294762D02*
X141979447Y-136342381D01*
X142217543Y-136342381D01*
X142312781Y-136294762D01*
X142360400Y-136199524D01*
X142360400Y-136104286D01*
X142312781Y-136009048D01*
X142217543Y-135961429D01*
X141979447Y-135961429D01*
X141884209Y-135913810D01*
X141408019Y-135675714D02*
X141408019Y-136342381D01*
X141408019Y-135770952D02*
X141360400Y-135723333D01*
X141265162Y-135675714D01*
X141122304Y-135675714D01*
X141027066Y-135723333D01*
X140979447Y-135818571D01*
X140979447Y-136342381D01*
X139169923Y-136247143D02*
X139217542Y-136294762D01*
X139360399Y-136342381D01*
X139455637Y-136342381D01*
X139598495Y-136294762D01*
X139693733Y-136199524D01*
X139741352Y-136104286D01*
X139788971Y-135913810D01*
X139788971Y-135770952D01*
X139741352Y-135580476D01*
X139693733Y-135485238D01*
X139598495Y-135390000D01*
X139455637Y-135342381D01*
X139360399Y-135342381D01*
X139217542Y-135390000D01*
X139169923Y-135437619D01*
X138312780Y-136342381D02*
X138312780Y-135818571D01*
X138360399Y-135723333D01*
X138455637Y-135675714D01*
X138646114Y-135675714D01*
X138741352Y-135723333D01*
X138312780Y-136294762D02*
X138408018Y-136342381D01*
X138646114Y-136342381D01*
X138741352Y-136294762D01*
X138788971Y-136199524D01*
X138788971Y-136104286D01*
X138741352Y-136009048D01*
X138646114Y-135961429D01*
X138408018Y-135961429D01*
X138312780Y-135913810D01*
X137836590Y-135675714D02*
X137836590Y-136342381D01*
X137836590Y-135770952D02*
X137788971Y-135723333D01*
X137693733Y-135675714D01*
X137550875Y-135675714D01*
X137455637Y-135723333D01*
X137408018Y-135818571D01*
X137408018Y-136342381D01*
X136503256Y-136342381D02*
X136503256Y-135342381D01*
X136503256Y-136294762D02*
X136598494Y-136342381D01*
X136788971Y-136342381D01*
X136884209Y-136294762D01*
X136931828Y-136247143D01*
X136979447Y-136151905D01*
X136979447Y-135866190D01*
X136931828Y-135770952D01*
X136884209Y-135723333D01*
X136788971Y-135675714D01*
X136598494Y-135675714D01*
X136503256Y-135723333D01*
X136122304Y-135675714D02*
X135884209Y-136342381D01*
X135646113Y-135675714D02*
X135884209Y-136342381D01*
X135979447Y-136580476D01*
X136027066Y-136628095D01*
X136122304Y-136675714D01*
X163088152Y-137529914D02*
X162850057Y-138196581D01*
X162611961Y-137529914D01*
X162040533Y-137196581D02*
X161945294Y-137196581D01*
X161850056Y-137244200D01*
X161802437Y-137291819D01*
X161754818Y-137387057D01*
X161707199Y-137577533D01*
X161707199Y-137815629D01*
X161754818Y-138006105D01*
X161802437Y-138101343D01*
X161850056Y-138148962D01*
X161945294Y-138196581D01*
X162040533Y-138196581D01*
X162135771Y-138148962D01*
X162183390Y-138101343D01*
X162231009Y-138006105D01*
X162278628Y-137815629D01*
X162278628Y-137577533D01*
X162231009Y-137387057D01*
X162183390Y-137291819D01*
X162135771Y-137244200D01*
X162040533Y-137196581D01*
X161278628Y-138101343D02*
X161231009Y-138148962D01*
X161278628Y-138196581D01*
X161326247Y-138148962D01*
X161278628Y-138101343D01*
X161278628Y-138196581D01*
X160850057Y-137291819D02*
X160802438Y-137244200D01*
X160707200Y-137196581D01*
X160469104Y-137196581D01*
X160373866Y-137244200D01*
X160326247Y-137291819D01*
X160278628Y-137387057D01*
X160278628Y-137482295D01*
X160326247Y-137625152D01*
X160897676Y-138196581D01*
X160278628Y-138196581D01*
X159850057Y-138101343D02*
X159802438Y-138148962D01*
X159850057Y-138196581D01*
X159897676Y-138148962D01*
X159850057Y-138101343D01*
X159850057Y-138196581D01*
X159183391Y-137196581D02*
X159088152Y-137196581D01*
X158992914Y-137244200D01*
X158945295Y-137291819D01*
X158897676Y-137387057D01*
X158850057Y-137577533D01*
X158850057Y-137815629D01*
X158897676Y-138006105D01*
X158945295Y-138101343D01*
X158992914Y-138148962D01*
X159088152Y-138196581D01*
X159183391Y-138196581D01*
X159278629Y-138148962D01*
X159326248Y-138101343D01*
X159373867Y-138006105D01*
X159421486Y-137815629D01*
X159421486Y-137577533D01*
X159373867Y-137387057D01*
X159326248Y-137291819D01*
X159278629Y-137244200D01*
X159183391Y-137196581D01*
X157373866Y-138577533D02*
X157421486Y-138529914D01*
X157516724Y-138387057D01*
X157564343Y-138291819D01*
X157611962Y-138148962D01*
X157659581Y-137910867D01*
X157659581Y-137720390D01*
X157611962Y-137482295D01*
X157564343Y-137339438D01*
X157516724Y-137244200D01*
X157421486Y-137101343D01*
X157373866Y-137053724D01*
X156992914Y-138196581D02*
X156992914Y-137529914D01*
X156992914Y-137196581D02*
X157040533Y-137244200D01*
X156992914Y-137291819D01*
X156945295Y-137244200D01*
X156992914Y-137196581D01*
X156992914Y-137291819D01*
X156754819Y-138291819D02*
X155992914Y-138291819D01*
X155326247Y-138196581D02*
X155326247Y-137672771D01*
X155373866Y-137577533D01*
X155469104Y-137529914D01*
X155659581Y-137529914D01*
X155754819Y-137577533D01*
X155326247Y-138148962D02*
X155421485Y-138196581D01*
X155659581Y-138196581D01*
X155754819Y-138148962D01*
X155802438Y-138053724D01*
X155802438Y-137958486D01*
X155754819Y-137863248D01*
X155659581Y-137815629D01*
X155421485Y-137815629D01*
X155326247Y-137768010D01*
X154945295Y-138577533D02*
X154897676Y-138529914D01*
X154802438Y-138387057D01*
X154754819Y-138291819D01*
X154707200Y-138148962D01*
X154659581Y-137910867D01*
X154659581Y-137720390D01*
X154707200Y-137482295D01*
X154754819Y-137339438D01*
X154802438Y-137244200D01*
X154897676Y-137101343D01*
X154945295Y-137053724D01*
X161321333Y-136291581D02*
X161321333Y-135291581D01*
X160987999Y-136005867D01*
X160654666Y-135291581D01*
X160654666Y-136291581D01*
X159988000Y-135291581D02*
X159797523Y-135291581D01*
X159702285Y-135339200D01*
X159607047Y-135434438D01*
X159559428Y-135624914D01*
X159559428Y-135958248D01*
X159607047Y-136148724D01*
X159702285Y-136243962D01*
X159797523Y-136291581D01*
X159988000Y-136291581D01*
X160083238Y-136243962D01*
X160178476Y-136148724D01*
X160226095Y-135958248D01*
X160226095Y-135624914D01*
X160178476Y-135434438D01*
X160083238Y-135339200D01*
X159988000Y-135291581D01*
X159130857Y-136291581D02*
X159130857Y-135291581D01*
X158559428Y-136291581D01*
X158559428Y-135291581D01*
X158083238Y-135767771D02*
X157749904Y-135767771D01*
X157607047Y-136291581D02*
X158083238Y-136291581D01*
X158083238Y-135291581D01*
X157607047Y-135291581D01*
X157273714Y-135291581D02*
X156607047Y-135291581D01*
X157273714Y-136291581D01*
X156607047Y-136291581D01*
X156035619Y-135291581D02*
X155845142Y-135291581D01*
X155749904Y-135339200D01*
X155654666Y-135434438D01*
X155607047Y-135624914D01*
X155607047Y-135958248D01*
X155654666Y-136148724D01*
X155749904Y-136243962D01*
X155845142Y-136291581D01*
X156035619Y-136291581D01*
X156130857Y-136243962D01*
X156226095Y-136148724D01*
X156273714Y-135958248D01*
X156273714Y-135624914D01*
X156226095Y-135434438D01*
X156130857Y-135339200D01*
X156035619Y-135291581D01*
X154607047Y-136291581D02*
X154940381Y-135815390D01*
X155178476Y-136291581D02*
X155178476Y-135291581D01*
X154797523Y-135291581D01*
X154702285Y-135339200D01*
X154654666Y-135386819D01*
X154607047Y-135482057D01*
X154607047Y-135624914D01*
X154654666Y-135720152D01*
X154702285Y-135767771D01*
X154797523Y-135815390D01*
X155178476Y-135815390D01*
X181466666Y-138199762D02*
X181561904Y-138247381D01*
X181752381Y-138247381D01*
X181847619Y-138199762D01*
X181895238Y-138104524D01*
X181895238Y-137723571D01*
X181847619Y-137628333D01*
X181752381Y-137580714D01*
X181561904Y-137580714D01*
X181466666Y-137628333D01*
X181419047Y-137723571D01*
X181419047Y-137818810D01*
X181895238Y-137914048D01*
X180561904Y-138247381D02*
X180561904Y-137247381D01*
X180561904Y-138199762D02*
X180657142Y-138247381D01*
X180847619Y-138247381D01*
X180942857Y-138199762D01*
X180990476Y-138152143D01*
X181038095Y-138056905D01*
X181038095Y-137771190D01*
X180990476Y-137675952D01*
X180942857Y-137628333D01*
X180847619Y-137580714D01*
X180657142Y-137580714D01*
X180561904Y-137628333D01*
X180085714Y-138247381D02*
X180085714Y-137580714D01*
X180085714Y-137247381D02*
X180133333Y-137295000D01*
X180085714Y-137342619D01*
X180038095Y-137295000D01*
X180085714Y-137247381D01*
X180085714Y-137342619D01*
X179752381Y-137580714D02*
X179371429Y-137580714D01*
X179609524Y-137247381D02*
X179609524Y-138104524D01*
X179561905Y-138199762D01*
X179466667Y-138247381D01*
X179371429Y-138247381D01*
X179038095Y-138247381D02*
X179038095Y-137580714D01*
X179038095Y-137247381D02*
X179085714Y-137295000D01*
X179038095Y-137342619D01*
X178990476Y-137295000D01*
X179038095Y-137247381D01*
X179038095Y-137342619D01*
X178419048Y-138247381D02*
X178514286Y-138199762D01*
X178561905Y-138152143D01*
X178609524Y-138056905D01*
X178609524Y-137771190D01*
X178561905Y-137675952D01*
X178514286Y-137628333D01*
X178419048Y-137580714D01*
X178276190Y-137580714D01*
X178180952Y-137628333D01*
X178133333Y-137675952D01*
X178085714Y-137771190D01*
X178085714Y-138056905D01*
X178133333Y-138152143D01*
X178180952Y-138199762D01*
X178276190Y-138247381D01*
X178419048Y-138247381D01*
X177657143Y-137580714D02*
X177657143Y-138247381D01*
X177657143Y-137675952D02*
X177609524Y-137628333D01*
X177514286Y-137580714D01*
X177371428Y-137580714D01*
X177276190Y-137628333D01*
X177228571Y-137723571D01*
X177228571Y-138247381D01*
X175704761Y-137247381D02*
X175704761Y-137961667D01*
X175752381Y-138104524D01*
X175847619Y-138199762D01*
X175990476Y-138247381D01*
X176085714Y-138247381D01*
X174657142Y-138152143D02*
X174704761Y-138199762D01*
X174847618Y-138247381D01*
X174942856Y-138247381D01*
X175085714Y-138199762D01*
X175180952Y-138104524D01*
X175228571Y-138009286D01*
X175276190Y-137818810D01*
X175276190Y-137675952D01*
X175228571Y-137485476D01*
X175180952Y-137390238D01*
X175085714Y-137295000D01*
X174942856Y-137247381D01*
X174847618Y-137247381D01*
X174704761Y-137295000D01*
X174657142Y-137342619D01*
X174038095Y-137247381D02*
X173942856Y-137247381D01*
X173847618Y-137295000D01*
X173799999Y-137342619D01*
X173752380Y-137437857D01*
X173704761Y-137628333D01*
X173704761Y-137866429D01*
X173752380Y-138056905D01*
X173799999Y-138152143D01*
X173847618Y-138199762D01*
X173942856Y-138247381D01*
X174038095Y-138247381D01*
X174133333Y-138199762D01*
X174180952Y-138152143D01*
X174228571Y-138056905D01*
X174276190Y-137866429D01*
X174276190Y-137628333D01*
X174228571Y-137437857D01*
X174180952Y-137342619D01*
X174133333Y-137295000D01*
X174038095Y-137247381D01*
X181523733Y-135342381D02*
X181523733Y-136056667D01*
X181571353Y-136199524D01*
X181666591Y-136294762D01*
X181809448Y-136342381D01*
X181904686Y-136342381D01*
X180618971Y-135675714D02*
X180618971Y-136342381D01*
X181047543Y-135675714D02*
X181047543Y-136199524D01*
X180999924Y-136294762D01*
X180904686Y-136342381D01*
X180761828Y-136342381D01*
X180666590Y-136294762D01*
X180618971Y-136247143D01*
X179999924Y-136342381D02*
X180095162Y-136294762D01*
X180142781Y-136199524D01*
X180142781Y-135342381D01*
X179618971Y-136342381D02*
X179618971Y-135675714D01*
X179618971Y-135342381D02*
X179666590Y-135390000D01*
X179618971Y-135437619D01*
X179571352Y-135390000D01*
X179618971Y-135342381D01*
X179618971Y-135437619D01*
X178714209Y-136342381D02*
X178714209Y-135818571D01*
X178761828Y-135723333D01*
X178857066Y-135675714D01*
X179047543Y-135675714D01*
X179142781Y-135723333D01*
X178714209Y-136294762D02*
X178809447Y-136342381D01*
X179047543Y-136342381D01*
X179142781Y-136294762D01*
X179190400Y-136199524D01*
X179190400Y-136104286D01*
X179142781Y-136009048D01*
X179047543Y-135961429D01*
X178809447Y-135961429D01*
X178714209Y-135913810D01*
X178238019Y-135675714D02*
X178238019Y-136342381D01*
X178238019Y-135770952D02*
X178190400Y-135723333D01*
X178095162Y-135675714D01*
X177952304Y-135675714D01*
X177857066Y-135723333D01*
X177809447Y-135818571D01*
X177809447Y-136342381D01*
X175999923Y-136247143D02*
X176047542Y-136294762D01*
X176190399Y-136342381D01*
X176285637Y-136342381D01*
X176428495Y-136294762D01*
X176523733Y-136199524D01*
X176571352Y-136104286D01*
X176618971Y-135913810D01*
X176618971Y-135770952D01*
X176571352Y-135580476D01*
X176523733Y-135485238D01*
X176428495Y-135390000D01*
X176285637Y-135342381D01*
X176190399Y-135342381D01*
X176047542Y-135390000D01*
X175999923Y-135437619D01*
X175142780Y-136342381D02*
X175142780Y-135818571D01*
X175190399Y-135723333D01*
X175285637Y-135675714D01*
X175476114Y-135675714D01*
X175571352Y-135723333D01*
X175142780Y-136294762D02*
X175238018Y-136342381D01*
X175476114Y-136342381D01*
X175571352Y-136294762D01*
X175618971Y-136199524D01*
X175618971Y-136104286D01*
X175571352Y-136009048D01*
X175476114Y-135961429D01*
X175238018Y-135961429D01*
X175142780Y-135913810D01*
X174666590Y-135675714D02*
X174666590Y-136342381D01*
X174666590Y-135770952D02*
X174618971Y-135723333D01*
X174523733Y-135675714D01*
X174380875Y-135675714D01*
X174285637Y-135723333D01*
X174238018Y-135818571D01*
X174238018Y-136342381D01*
X173333256Y-136342381D02*
X173333256Y-135342381D01*
X173333256Y-136294762D02*
X173428494Y-136342381D01*
X173618971Y-136342381D01*
X173714209Y-136294762D01*
X173761828Y-136247143D01*
X173809447Y-136151905D01*
X173809447Y-135866190D01*
X173761828Y-135770952D01*
X173714209Y-135723333D01*
X173618971Y-135675714D01*
X173428494Y-135675714D01*
X173333256Y-135723333D01*
X172952304Y-135675714D02*
X172714209Y-136342381D01*
X172476113Y-135675714D02*
X172714209Y-136342381D01*
X172809447Y-136580476D01*
X172857066Y-136628095D01*
X172952304Y-136675714D01*
X199918152Y-137529914D02*
X199680057Y-138196581D01*
X199441961Y-137529914D01*
X198870533Y-137196581D02*
X198775294Y-137196581D01*
X198680056Y-137244200D01*
X198632437Y-137291819D01*
X198584818Y-137387057D01*
X198537199Y-137577533D01*
X198537199Y-137815629D01*
X198584818Y-138006105D01*
X198632437Y-138101343D01*
X198680056Y-138148962D01*
X198775294Y-138196581D01*
X198870533Y-138196581D01*
X198965771Y-138148962D01*
X199013390Y-138101343D01*
X199061009Y-138006105D01*
X199108628Y-137815629D01*
X199108628Y-137577533D01*
X199061009Y-137387057D01*
X199013390Y-137291819D01*
X198965771Y-137244200D01*
X198870533Y-137196581D01*
X198108628Y-138101343D02*
X198061009Y-138148962D01*
X198108628Y-138196581D01*
X198156247Y-138148962D01*
X198108628Y-138101343D01*
X198108628Y-138196581D01*
X197680057Y-137291819D02*
X197632438Y-137244200D01*
X197537200Y-137196581D01*
X197299104Y-137196581D01*
X197203866Y-137244200D01*
X197156247Y-137291819D01*
X197108628Y-137387057D01*
X197108628Y-137482295D01*
X197156247Y-137625152D01*
X197727676Y-138196581D01*
X197108628Y-138196581D01*
X196680057Y-138101343D02*
X196632438Y-138148962D01*
X196680057Y-138196581D01*
X196727676Y-138148962D01*
X196680057Y-138101343D01*
X196680057Y-138196581D01*
X196013391Y-137196581D02*
X195918152Y-137196581D01*
X195822914Y-137244200D01*
X195775295Y-137291819D01*
X195727676Y-137387057D01*
X195680057Y-137577533D01*
X195680057Y-137815629D01*
X195727676Y-138006105D01*
X195775295Y-138101343D01*
X195822914Y-138148962D01*
X195918152Y-138196581D01*
X196013391Y-138196581D01*
X196108629Y-138148962D01*
X196156248Y-138101343D01*
X196203867Y-138006105D01*
X196251486Y-137815629D01*
X196251486Y-137577533D01*
X196203867Y-137387057D01*
X196156248Y-137291819D01*
X196108629Y-137244200D01*
X196013391Y-137196581D01*
X194203866Y-138577533D02*
X194251486Y-138529914D01*
X194346724Y-138387057D01*
X194394343Y-138291819D01*
X194441962Y-138148962D01*
X194489581Y-137910867D01*
X194489581Y-137720390D01*
X194441962Y-137482295D01*
X194394343Y-137339438D01*
X194346724Y-137244200D01*
X194251486Y-137101343D01*
X194203866Y-137053724D01*
X193822914Y-138196581D02*
X193822914Y-137529914D01*
X193822914Y-137196581D02*
X193870533Y-137244200D01*
X193822914Y-137291819D01*
X193775295Y-137244200D01*
X193822914Y-137196581D01*
X193822914Y-137291819D01*
X193584819Y-138291819D02*
X192822914Y-138291819D01*
X192156247Y-138196581D02*
X192156247Y-137672771D01*
X192203866Y-137577533D01*
X192299104Y-137529914D01*
X192489581Y-137529914D01*
X192584819Y-137577533D01*
X192156247Y-138148962D02*
X192251485Y-138196581D01*
X192489581Y-138196581D01*
X192584819Y-138148962D01*
X192632438Y-138053724D01*
X192632438Y-137958486D01*
X192584819Y-137863248D01*
X192489581Y-137815629D01*
X192251485Y-137815629D01*
X192156247Y-137768010D01*
X191775295Y-138577533D02*
X191727676Y-138529914D01*
X191632438Y-138387057D01*
X191584819Y-138291819D01*
X191537200Y-138148962D01*
X191489581Y-137910867D01*
X191489581Y-137720390D01*
X191537200Y-137482295D01*
X191584819Y-137339438D01*
X191632438Y-137244200D01*
X191727676Y-137101343D01*
X191775295Y-137053724D01*
X198151333Y-136291581D02*
X198151333Y-135291581D01*
X197817999Y-136005867D01*
X197484666Y-135291581D01*
X197484666Y-136291581D01*
X196818000Y-135291581D02*
X196627523Y-135291581D01*
X196532285Y-135339200D01*
X196437047Y-135434438D01*
X196389428Y-135624914D01*
X196389428Y-135958248D01*
X196437047Y-136148724D01*
X196532285Y-136243962D01*
X196627523Y-136291581D01*
X196818000Y-136291581D01*
X196913238Y-136243962D01*
X197008476Y-136148724D01*
X197056095Y-135958248D01*
X197056095Y-135624914D01*
X197008476Y-135434438D01*
X196913238Y-135339200D01*
X196818000Y-135291581D01*
X195960857Y-136291581D02*
X195960857Y-135291581D01*
X195389428Y-136291581D01*
X195389428Y-135291581D01*
X194913238Y-135767771D02*
X194579904Y-135767771D01*
X194437047Y-136291581D02*
X194913238Y-136291581D01*
X194913238Y-135291581D01*
X194437047Y-135291581D01*
X194103714Y-135291581D02*
X193437047Y-135291581D01*
X194103714Y-136291581D01*
X193437047Y-136291581D01*
X192865619Y-135291581D02*
X192675142Y-135291581D01*
X192579904Y-135339200D01*
X192484666Y-135434438D01*
X192437047Y-135624914D01*
X192437047Y-135958248D01*
X192484666Y-136148724D01*
X192579904Y-136243962D01*
X192675142Y-136291581D01*
X192865619Y-136291581D01*
X192960857Y-136243962D01*
X193056095Y-136148724D01*
X193103714Y-135958248D01*
X193103714Y-135624914D01*
X193056095Y-135434438D01*
X192960857Y-135339200D01*
X192865619Y-135291581D01*
X191437047Y-136291581D02*
X191770381Y-135815390D01*
X192008476Y-136291581D02*
X192008476Y-135291581D01*
X191627523Y-135291581D01*
X191532285Y-135339200D01*
X191484666Y-135386819D01*
X191437047Y-135482057D01*
X191437047Y-135624914D01*
X191484666Y-135720152D01*
X191532285Y-135767771D01*
X191627523Y-135815390D01*
X192008476Y-135815390D01*
X218296666Y-138199762D02*
X218391904Y-138247381D01*
X218582381Y-138247381D01*
X218677619Y-138199762D01*
X218725238Y-138104524D01*
X218725238Y-137723571D01*
X218677619Y-137628333D01*
X218582381Y-137580714D01*
X218391904Y-137580714D01*
X218296666Y-137628333D01*
X218249047Y-137723571D01*
X218249047Y-137818810D01*
X218725238Y-137914048D01*
X217391904Y-138247381D02*
X217391904Y-137247381D01*
X217391904Y-138199762D02*
X217487142Y-138247381D01*
X217677619Y-138247381D01*
X217772857Y-138199762D01*
X217820476Y-138152143D01*
X217868095Y-138056905D01*
X217868095Y-137771190D01*
X217820476Y-137675952D01*
X217772857Y-137628333D01*
X217677619Y-137580714D01*
X217487142Y-137580714D01*
X217391904Y-137628333D01*
X216915714Y-138247381D02*
X216915714Y-137580714D01*
X216915714Y-137247381D02*
X216963333Y-137295000D01*
X216915714Y-137342619D01*
X216868095Y-137295000D01*
X216915714Y-137247381D01*
X216915714Y-137342619D01*
X216582381Y-137580714D02*
X216201429Y-137580714D01*
X216439524Y-137247381D02*
X216439524Y-138104524D01*
X216391905Y-138199762D01*
X216296667Y-138247381D01*
X216201429Y-138247381D01*
X215868095Y-138247381D02*
X215868095Y-137580714D01*
X215868095Y-137247381D02*
X215915714Y-137295000D01*
X215868095Y-137342619D01*
X215820476Y-137295000D01*
X215868095Y-137247381D01*
X215868095Y-137342619D01*
X215249048Y-138247381D02*
X215344286Y-138199762D01*
X215391905Y-138152143D01*
X215439524Y-138056905D01*
X215439524Y-137771190D01*
X215391905Y-137675952D01*
X215344286Y-137628333D01*
X215249048Y-137580714D01*
X215106190Y-137580714D01*
X215010952Y-137628333D01*
X214963333Y-137675952D01*
X214915714Y-137771190D01*
X214915714Y-138056905D01*
X214963333Y-138152143D01*
X215010952Y-138199762D01*
X215106190Y-138247381D01*
X215249048Y-138247381D01*
X214487143Y-137580714D02*
X214487143Y-138247381D01*
X214487143Y-137675952D02*
X214439524Y-137628333D01*
X214344286Y-137580714D01*
X214201428Y-137580714D01*
X214106190Y-137628333D01*
X214058571Y-137723571D01*
X214058571Y-138247381D01*
X212534761Y-137247381D02*
X212534761Y-137961667D01*
X212582381Y-138104524D01*
X212677619Y-138199762D01*
X212820476Y-138247381D01*
X212915714Y-138247381D01*
X211487142Y-138152143D02*
X211534761Y-138199762D01*
X211677618Y-138247381D01*
X211772856Y-138247381D01*
X211915714Y-138199762D01*
X212010952Y-138104524D01*
X212058571Y-138009286D01*
X212106190Y-137818810D01*
X212106190Y-137675952D01*
X212058571Y-137485476D01*
X212010952Y-137390238D01*
X211915714Y-137295000D01*
X211772856Y-137247381D01*
X211677618Y-137247381D01*
X211534761Y-137295000D01*
X211487142Y-137342619D01*
X210868095Y-137247381D02*
X210772856Y-137247381D01*
X210677618Y-137295000D01*
X210629999Y-137342619D01*
X210582380Y-137437857D01*
X210534761Y-137628333D01*
X210534761Y-137866429D01*
X210582380Y-138056905D01*
X210629999Y-138152143D01*
X210677618Y-138199762D01*
X210772856Y-138247381D01*
X210868095Y-138247381D01*
X210963333Y-138199762D01*
X211010952Y-138152143D01*
X211058571Y-138056905D01*
X211106190Y-137866429D01*
X211106190Y-137628333D01*
X211058571Y-137437857D01*
X211010952Y-137342619D01*
X210963333Y-137295000D01*
X210868095Y-137247381D01*
X218353733Y-135342381D02*
X218353733Y-136056667D01*
X218401353Y-136199524D01*
X218496591Y-136294762D01*
X218639448Y-136342381D01*
X218734686Y-136342381D01*
X217448971Y-135675714D02*
X217448971Y-136342381D01*
X217877543Y-135675714D02*
X217877543Y-136199524D01*
X217829924Y-136294762D01*
X217734686Y-136342381D01*
X217591828Y-136342381D01*
X217496590Y-136294762D01*
X217448971Y-136247143D01*
X216829924Y-136342381D02*
X216925162Y-136294762D01*
X216972781Y-136199524D01*
X216972781Y-135342381D01*
X216448971Y-136342381D02*
X216448971Y-135675714D01*
X216448971Y-135342381D02*
X216496590Y-135390000D01*
X216448971Y-135437619D01*
X216401352Y-135390000D01*
X216448971Y-135342381D01*
X216448971Y-135437619D01*
X215544209Y-136342381D02*
X215544209Y-135818571D01*
X215591828Y-135723333D01*
X215687066Y-135675714D01*
X215877543Y-135675714D01*
X215972781Y-135723333D01*
X215544209Y-136294762D02*
X215639447Y-136342381D01*
X215877543Y-136342381D01*
X215972781Y-136294762D01*
X216020400Y-136199524D01*
X216020400Y-136104286D01*
X215972781Y-136009048D01*
X215877543Y-135961429D01*
X215639447Y-135961429D01*
X215544209Y-135913810D01*
X215068019Y-135675714D02*
X215068019Y-136342381D01*
X215068019Y-135770952D02*
X215020400Y-135723333D01*
X214925162Y-135675714D01*
X214782304Y-135675714D01*
X214687066Y-135723333D01*
X214639447Y-135818571D01*
X214639447Y-136342381D01*
X212829923Y-136247143D02*
X212877542Y-136294762D01*
X213020399Y-136342381D01*
X213115637Y-136342381D01*
X213258495Y-136294762D01*
X213353733Y-136199524D01*
X213401352Y-136104286D01*
X213448971Y-135913810D01*
X213448971Y-135770952D01*
X213401352Y-135580476D01*
X213353733Y-135485238D01*
X213258495Y-135390000D01*
X213115637Y-135342381D01*
X213020399Y-135342381D01*
X212877542Y-135390000D01*
X212829923Y-135437619D01*
X211972780Y-136342381D02*
X211972780Y-135818571D01*
X212020399Y-135723333D01*
X212115637Y-135675714D01*
X212306114Y-135675714D01*
X212401352Y-135723333D01*
X211972780Y-136294762D02*
X212068018Y-136342381D01*
X212306114Y-136342381D01*
X212401352Y-136294762D01*
X212448971Y-136199524D01*
X212448971Y-136104286D01*
X212401352Y-136009048D01*
X212306114Y-135961429D01*
X212068018Y-135961429D01*
X211972780Y-135913810D01*
X211496590Y-135675714D02*
X211496590Y-136342381D01*
X211496590Y-135770952D02*
X211448971Y-135723333D01*
X211353733Y-135675714D01*
X211210875Y-135675714D01*
X211115637Y-135723333D01*
X211068018Y-135818571D01*
X211068018Y-136342381D01*
X210163256Y-136342381D02*
X210163256Y-135342381D01*
X210163256Y-136294762D02*
X210258494Y-136342381D01*
X210448971Y-136342381D01*
X210544209Y-136294762D01*
X210591828Y-136247143D01*
X210639447Y-136151905D01*
X210639447Y-135866190D01*
X210591828Y-135770952D01*
X210544209Y-135723333D01*
X210448971Y-135675714D01*
X210258494Y-135675714D01*
X210163256Y-135723333D01*
X209782304Y-135675714D02*
X209544209Y-136342381D01*
X209306113Y-135675714D02*
X209544209Y-136342381D01*
X209639447Y-136580476D01*
X209687066Y-136628095D01*
X209782304Y-136675714D01*
X236748152Y-137529914D02*
X236510057Y-138196581D01*
X236271961Y-137529914D01*
X235700533Y-137196581D02*
X235605294Y-137196581D01*
X235510056Y-137244200D01*
X235462437Y-137291819D01*
X235414818Y-137387057D01*
X235367199Y-137577533D01*
X235367199Y-137815629D01*
X235414818Y-138006105D01*
X235462437Y-138101343D01*
X235510056Y-138148962D01*
X235605294Y-138196581D01*
X235700533Y-138196581D01*
X235795771Y-138148962D01*
X235843390Y-138101343D01*
X235891009Y-138006105D01*
X235938628Y-137815629D01*
X235938628Y-137577533D01*
X235891009Y-137387057D01*
X235843390Y-137291819D01*
X235795771Y-137244200D01*
X235700533Y-137196581D01*
X234938628Y-138101343D02*
X234891009Y-138148962D01*
X234938628Y-138196581D01*
X234986247Y-138148962D01*
X234938628Y-138101343D01*
X234938628Y-138196581D01*
X234510057Y-137291819D02*
X234462438Y-137244200D01*
X234367200Y-137196581D01*
X234129104Y-137196581D01*
X234033866Y-137244200D01*
X233986247Y-137291819D01*
X233938628Y-137387057D01*
X233938628Y-137482295D01*
X233986247Y-137625152D01*
X234557676Y-138196581D01*
X233938628Y-138196581D01*
X233510057Y-138101343D02*
X233462438Y-138148962D01*
X233510057Y-138196581D01*
X233557676Y-138148962D01*
X233510057Y-138101343D01*
X233510057Y-138196581D01*
X232843391Y-137196581D02*
X232748152Y-137196581D01*
X232652914Y-137244200D01*
X232605295Y-137291819D01*
X232557676Y-137387057D01*
X232510057Y-137577533D01*
X232510057Y-137815629D01*
X232557676Y-138006105D01*
X232605295Y-138101343D01*
X232652914Y-138148962D01*
X232748152Y-138196581D01*
X232843391Y-138196581D01*
X232938629Y-138148962D01*
X232986248Y-138101343D01*
X233033867Y-138006105D01*
X233081486Y-137815629D01*
X233081486Y-137577533D01*
X233033867Y-137387057D01*
X232986248Y-137291819D01*
X232938629Y-137244200D01*
X232843391Y-137196581D01*
X231033866Y-138577533D02*
X231081486Y-138529914D01*
X231176724Y-138387057D01*
X231224343Y-138291819D01*
X231271962Y-138148962D01*
X231319581Y-137910867D01*
X231319581Y-137720390D01*
X231271962Y-137482295D01*
X231224343Y-137339438D01*
X231176724Y-137244200D01*
X231081486Y-137101343D01*
X231033866Y-137053724D01*
X230652914Y-138196581D02*
X230652914Y-137529914D01*
X230652914Y-137196581D02*
X230700533Y-137244200D01*
X230652914Y-137291819D01*
X230605295Y-137244200D01*
X230652914Y-137196581D01*
X230652914Y-137291819D01*
X230414819Y-138291819D02*
X229652914Y-138291819D01*
X228986247Y-138196581D02*
X228986247Y-137672771D01*
X229033866Y-137577533D01*
X229129104Y-137529914D01*
X229319581Y-137529914D01*
X229414819Y-137577533D01*
X228986247Y-138148962D02*
X229081485Y-138196581D01*
X229319581Y-138196581D01*
X229414819Y-138148962D01*
X229462438Y-138053724D01*
X229462438Y-137958486D01*
X229414819Y-137863248D01*
X229319581Y-137815629D01*
X229081485Y-137815629D01*
X228986247Y-137768010D01*
X228605295Y-138577533D02*
X228557676Y-138529914D01*
X228462438Y-138387057D01*
X228414819Y-138291819D01*
X228367200Y-138148962D01*
X228319581Y-137910867D01*
X228319581Y-137720390D01*
X228367200Y-137482295D01*
X228414819Y-137339438D01*
X228462438Y-137244200D01*
X228557676Y-137101343D01*
X228605295Y-137053724D01*
X234981333Y-136291581D02*
X234981333Y-135291581D01*
X234647999Y-136005867D01*
X234314666Y-135291581D01*
X234314666Y-136291581D01*
X233648000Y-135291581D02*
X233457523Y-135291581D01*
X233362285Y-135339200D01*
X233267047Y-135434438D01*
X233219428Y-135624914D01*
X233219428Y-135958248D01*
X233267047Y-136148724D01*
X233362285Y-136243962D01*
X233457523Y-136291581D01*
X233648000Y-136291581D01*
X233743238Y-136243962D01*
X233838476Y-136148724D01*
X233886095Y-135958248D01*
X233886095Y-135624914D01*
X233838476Y-135434438D01*
X233743238Y-135339200D01*
X233648000Y-135291581D01*
X232790857Y-136291581D02*
X232790857Y-135291581D01*
X232219428Y-136291581D01*
X232219428Y-135291581D01*
X231743238Y-135767771D02*
X231409904Y-135767771D01*
X231267047Y-136291581D02*
X231743238Y-136291581D01*
X231743238Y-135291581D01*
X231267047Y-135291581D01*
X230933714Y-135291581D02*
X230267047Y-135291581D01*
X230933714Y-136291581D01*
X230267047Y-136291581D01*
X229695619Y-135291581D02*
X229505142Y-135291581D01*
X229409904Y-135339200D01*
X229314666Y-135434438D01*
X229267047Y-135624914D01*
X229267047Y-135958248D01*
X229314666Y-136148724D01*
X229409904Y-136243962D01*
X229505142Y-136291581D01*
X229695619Y-136291581D01*
X229790857Y-136243962D01*
X229886095Y-136148724D01*
X229933714Y-135958248D01*
X229933714Y-135624914D01*
X229886095Y-135434438D01*
X229790857Y-135339200D01*
X229695619Y-135291581D01*
X228267047Y-136291581D02*
X228600381Y-135815390D01*
X228838476Y-136291581D02*
X228838476Y-135291581D01*
X228457523Y-135291581D01*
X228362285Y-135339200D01*
X228314666Y-135386819D01*
X228267047Y-135482057D01*
X228267047Y-135624914D01*
X228314666Y-135720152D01*
X228362285Y-135767771D01*
X228457523Y-135815390D01*
X228838476Y-135815390D01*
D12*
X77216000Y-86106000D02*
X78054200Y-86106000D01*
X75184000Y-86106000D02*
X74335640Y-86106000D01*
X74340720Y-86126320D02*
G75*
G03X77744320Y-86441280I1859280J1544320D01*
G01*
X78384400Y-85557360D02*
G75*
G03X77175360Y-82397600I-2184400J975360D01*
G01*
X78359000Y-83499960D02*
G75*
G03X75117960Y-82423000I-2159000J-1082040D01*
G01*
X74670920Y-86451440D02*
G75*
G03X78069440Y-86111080I1529080J1869440D01*
G01*
X75184000Y-82392520D02*
G75*
G03X74010520Y-85598000I1016000J-2189480D01*
G01*
X75184000Y-86106000D02*
X75184000Y-84582000D01*
X75184000Y-84582000D02*
X76200000Y-85471000D01*
X76200000Y-85471000D02*
X77216000Y-84582000D01*
X77724000Y-83439000D02*
X77724000Y-85598000D01*
X77724000Y-83439000D02*
X76200000Y-84836000D01*
X74676000Y-83439000D02*
X74676000Y-85598000D01*
X76200000Y-84836000D02*
X74676000Y-83439000D01*
X77216000Y-84582000D02*
X77216000Y-86106000D01*
X77724000Y-85598000D02*
X78359000Y-85598000D01*
X74676000Y-85598000D02*
X74041000Y-85598000D01*
X114046000Y-86106000D02*
X114884200Y-86106000D01*
X112014000Y-86106000D02*
X111165640Y-86106000D01*
X111170720Y-86126320D02*
G75*
G03X114574320Y-86441280I1859280J1544320D01*
G01*
X115214400Y-85557360D02*
G75*
G03X114005360Y-82397600I-2184400J975360D01*
G01*
X115189000Y-83499960D02*
G75*
G03X111947960Y-82423000I-2159000J-1082040D01*
G01*
X111500920Y-86451440D02*
G75*
G03X114899440Y-86111080I1529080J1869440D01*
G01*
X112014000Y-82392520D02*
G75*
G03X110840520Y-85598000I1016000J-2189480D01*
G01*
X112014000Y-86106000D02*
X112014000Y-84582000D01*
X112014000Y-84582000D02*
X113030000Y-85471000D01*
X113030000Y-85471000D02*
X114046000Y-84582000D01*
X114554000Y-83439000D02*
X114554000Y-85598000D01*
X114554000Y-83439000D02*
X113030000Y-84836000D01*
X111506000Y-83439000D02*
X111506000Y-85598000D01*
X113030000Y-84836000D02*
X111506000Y-83439000D01*
X114046000Y-84582000D02*
X114046000Y-86106000D01*
X114554000Y-85598000D02*
X115189000Y-85598000D01*
X111506000Y-85598000D02*
X110871000Y-85598000D01*
X150876000Y-86106000D02*
X151714200Y-86106000D01*
X148844000Y-86106000D02*
X147995640Y-86106000D01*
X148000720Y-86126320D02*
G75*
G03X151404320Y-86441280I1859280J1544320D01*
G01*
X152044400Y-85557360D02*
G75*
G03X150835360Y-82397600I-2184400J975360D01*
G01*
X152019000Y-83499960D02*
G75*
G03X148777960Y-82423000I-2159000J-1082040D01*
G01*
X148330920Y-86451440D02*
G75*
G03X151729440Y-86111080I1529080J1869440D01*
G01*
X148844000Y-82392520D02*
G75*
G03X147670520Y-85598000I1016000J-2189480D01*
G01*
X148844000Y-86106000D02*
X148844000Y-84582000D01*
X148844000Y-84582000D02*
X149860000Y-85471000D01*
X149860000Y-85471000D02*
X150876000Y-84582000D01*
X151384000Y-83439000D02*
X151384000Y-85598000D01*
X151384000Y-83439000D02*
X149860000Y-84836000D01*
X148336000Y-83439000D02*
X148336000Y-85598000D01*
X149860000Y-84836000D02*
X148336000Y-83439000D01*
X150876000Y-84582000D02*
X150876000Y-86106000D01*
X151384000Y-85598000D02*
X152019000Y-85598000D01*
X148336000Y-85598000D02*
X147701000Y-85598000D01*
X187706000Y-86106000D02*
X188544200Y-86106000D01*
X185674000Y-86106000D02*
X184825640Y-86106000D01*
X184830720Y-86126320D02*
G75*
G03X188234320Y-86441280I1859280J1544320D01*
G01*
X188874400Y-85557360D02*
G75*
G03X187665360Y-82397600I-2184400J975360D01*
G01*
X188849000Y-83499960D02*
G75*
G03X185607960Y-82423000I-2159000J-1082040D01*
G01*
X185160920Y-86451440D02*
G75*
G03X188559440Y-86111080I1529080J1869440D01*
G01*
X185674000Y-82392520D02*
G75*
G03X184500520Y-85598000I1016000J-2189480D01*
G01*
X185674000Y-86106000D02*
X185674000Y-84582000D01*
X185674000Y-84582000D02*
X186690000Y-85471000D01*
X186690000Y-85471000D02*
X187706000Y-84582000D01*
X188214000Y-83439000D02*
X188214000Y-85598000D01*
X188214000Y-83439000D02*
X186690000Y-84836000D01*
X185166000Y-83439000D02*
X185166000Y-85598000D01*
X186690000Y-84836000D02*
X185166000Y-83439000D01*
X187706000Y-84582000D02*
X187706000Y-86106000D01*
X188214000Y-85598000D02*
X188849000Y-85598000D01*
X185166000Y-85598000D02*
X184531000Y-85598000D01*
X224536000Y-86106000D02*
X225374200Y-86106000D01*
X222504000Y-86106000D02*
X221655640Y-86106000D01*
X221660720Y-86126320D02*
G75*
G03X225064320Y-86441280I1859280J1544320D01*
G01*
X225704400Y-85557360D02*
G75*
G03X224495360Y-82397600I-2184400J975360D01*
G01*
X225679000Y-83499960D02*
G75*
G03X222437960Y-82423000I-2159000J-1082040D01*
G01*
X221990920Y-86451440D02*
G75*
G03X225389440Y-86111080I1529080J1869440D01*
G01*
X222504000Y-82392520D02*
G75*
G03X221330520Y-85598000I1016000J-2189480D01*
G01*
X222504000Y-86106000D02*
X222504000Y-84582000D01*
X222504000Y-84582000D02*
X223520000Y-85471000D01*
X223520000Y-85471000D02*
X224536000Y-84582000D01*
X225044000Y-83439000D02*
X225044000Y-85598000D01*
X225044000Y-83439000D02*
X223520000Y-84836000D01*
X221996000Y-83439000D02*
X221996000Y-85598000D01*
X223520000Y-84836000D02*
X221996000Y-83439000D01*
X224536000Y-84582000D02*
X224536000Y-86106000D01*
X225044000Y-85598000D02*
X225679000Y-85598000D01*
X221996000Y-85598000D02*
X221361000Y-85598000D01*
X77216000Y-139446000D02*
X78054200Y-139446000D01*
X75184000Y-139446000D02*
X74335640Y-139446000D01*
X74340720Y-139466320D02*
G75*
G03X77744320Y-139781280I1859280J1544320D01*
G01*
X78384400Y-138897360D02*
G75*
G03X77175360Y-135737600I-2184400J975360D01*
G01*
X78359000Y-136839960D02*
G75*
G03X75117960Y-135763000I-2159000J-1082040D01*
G01*
X74670920Y-139791440D02*
G75*
G03X78069440Y-139451080I1529080J1869440D01*
G01*
X75184000Y-135732520D02*
G75*
G03X74010520Y-138938000I1016000J-2189480D01*
G01*
X75184000Y-139446000D02*
X75184000Y-137922000D01*
X75184000Y-137922000D02*
X76200000Y-138811000D01*
X76200000Y-138811000D02*
X77216000Y-137922000D01*
X77724000Y-136779000D02*
X77724000Y-138938000D01*
X77724000Y-136779000D02*
X76200000Y-138176000D01*
X74676000Y-136779000D02*
X74676000Y-138938000D01*
X76200000Y-138176000D02*
X74676000Y-136779000D01*
X77216000Y-137922000D02*
X77216000Y-139446000D01*
X77724000Y-138938000D02*
X78359000Y-138938000D01*
X74676000Y-138938000D02*
X74041000Y-138938000D01*
X114046000Y-139446000D02*
X114884200Y-139446000D01*
X112014000Y-139446000D02*
X111165640Y-139446000D01*
X111170720Y-139466320D02*
G75*
G03X114574320Y-139781280I1859280J1544320D01*
G01*
X115214400Y-138897360D02*
G75*
G03X114005360Y-135737600I-2184400J975360D01*
G01*
X115189000Y-136839960D02*
G75*
G03X111947960Y-135763000I-2159000J-1082040D01*
G01*
X111500920Y-139791440D02*
G75*
G03X114899440Y-139451080I1529080J1869440D01*
G01*
X112014000Y-135732520D02*
G75*
G03X110840520Y-138938000I1016000J-2189480D01*
G01*
X112014000Y-139446000D02*
X112014000Y-137922000D01*
X112014000Y-137922000D02*
X113030000Y-138811000D01*
X113030000Y-138811000D02*
X114046000Y-137922000D01*
X114554000Y-136779000D02*
X114554000Y-138938000D01*
X114554000Y-136779000D02*
X113030000Y-138176000D01*
X111506000Y-136779000D02*
X111506000Y-138938000D01*
X113030000Y-138176000D02*
X111506000Y-136779000D01*
X114046000Y-137922000D02*
X114046000Y-139446000D01*
X114554000Y-138938000D02*
X115189000Y-138938000D01*
X111506000Y-138938000D02*
X110871000Y-138938000D01*
X150876000Y-139446000D02*
X151714200Y-139446000D01*
X148844000Y-139446000D02*
X147995640Y-139446000D01*
X148000720Y-139466320D02*
G75*
G03X151404320Y-139781280I1859280J1544320D01*
G01*
X152044400Y-138897360D02*
G75*
G03X150835360Y-135737600I-2184400J975360D01*
G01*
X152019000Y-136839960D02*
G75*
G03X148777960Y-135763000I-2159000J-1082040D01*
G01*
X148330920Y-139791440D02*
G75*
G03X151729440Y-139451080I1529080J1869440D01*
G01*
X148844000Y-135732520D02*
G75*
G03X147670520Y-138938000I1016000J-2189480D01*
G01*
X148844000Y-139446000D02*
X148844000Y-137922000D01*
X148844000Y-137922000D02*
X149860000Y-138811000D01*
X149860000Y-138811000D02*
X150876000Y-137922000D01*
X151384000Y-136779000D02*
X151384000Y-138938000D01*
X151384000Y-136779000D02*
X149860000Y-138176000D01*
X148336000Y-136779000D02*
X148336000Y-138938000D01*
X149860000Y-138176000D02*
X148336000Y-136779000D01*
X150876000Y-137922000D02*
X150876000Y-139446000D01*
X151384000Y-138938000D02*
X152019000Y-138938000D01*
X148336000Y-138938000D02*
X147701000Y-138938000D01*
X187706000Y-139446000D02*
X188544200Y-139446000D01*
X185674000Y-139446000D02*
X184825640Y-139446000D01*
X184830720Y-139466320D02*
G75*
G03X188234320Y-139781280I1859280J1544320D01*
G01*
X188874400Y-138897360D02*
G75*
G03X187665360Y-135737600I-2184400J975360D01*
G01*
X188849000Y-136839960D02*
G75*
G03X185607960Y-135763000I-2159000J-1082040D01*
G01*
X185160920Y-139791440D02*
G75*
G03X188559440Y-139451080I1529080J1869440D01*
G01*
X185674000Y-135732520D02*
G75*
G03X184500520Y-138938000I1016000J-2189480D01*
G01*
X185674000Y-139446000D02*
X185674000Y-137922000D01*
X185674000Y-137922000D02*
X186690000Y-138811000D01*
X186690000Y-138811000D02*
X187706000Y-137922000D01*
X188214000Y-136779000D02*
X188214000Y-138938000D01*
X188214000Y-136779000D02*
X186690000Y-138176000D01*
X185166000Y-136779000D02*
X185166000Y-138938000D01*
X186690000Y-138176000D02*
X185166000Y-136779000D01*
X187706000Y-137922000D02*
X187706000Y-139446000D01*
X188214000Y-138938000D02*
X188849000Y-138938000D01*
X185166000Y-138938000D02*
X184531000Y-138938000D01*
X224536000Y-139446000D02*
X225374200Y-139446000D01*
X222504000Y-139446000D02*
X221655640Y-139446000D01*
X221660720Y-139466320D02*
G75*
G03X225064320Y-139781280I1859280J1544320D01*
G01*
X225704400Y-138897360D02*
G75*
G03X224495360Y-135737600I-2184400J975360D01*
G01*
X225679000Y-136839960D02*
G75*
G03X222437960Y-135763000I-2159000J-1082040D01*
G01*
X221990920Y-139791440D02*
G75*
G03X225389440Y-139451080I1529080J1869440D01*
G01*
X222504000Y-135732520D02*
G75*
G03X221330520Y-138938000I1016000J-2189480D01*
G01*
X222504000Y-139446000D02*
X222504000Y-137922000D01*
X222504000Y-137922000D02*
X223520000Y-138811000D01*
X223520000Y-138811000D02*
X224536000Y-137922000D01*
X225044000Y-136779000D02*
X225044000Y-138938000D01*
X225044000Y-136779000D02*
X223520000Y-138176000D01*
X221996000Y-136779000D02*
X221996000Y-138938000D01*
X223520000Y-138176000D02*
X221996000Y-136779000D01*
X224536000Y-137922000D02*
X224536000Y-139446000D01*
X225044000Y-138938000D02*
X225679000Y-138938000D01*
X221996000Y-138938000D02*
X221361000Y-138938000D01*
D13*
X69808600Y-56718200D03*
X67808600Y-56718200D03*
X82915000Y-46990000D03*
X80915000Y-46990000D03*
X89138000Y-57150000D03*
X87138000Y-57150000D03*
X67675000Y-46990000D03*
X65675000Y-46990000D03*
D10*
G36*
X82510924Y-75438000D02*
X81026000Y-76922924D01*
X79541076Y-75438000D01*
X81026000Y-73953076D01*
X82510924Y-75438000D01*
X82510924Y-75438000D01*
G37*
D14*
X82822051Y-73641949D02*
X82822051Y-73641949D01*
X84618102Y-71845898D02*
X84618102Y-71845898D01*
X86414154Y-70049846D02*
X86414154Y-70049846D01*
X88210205Y-68253795D02*
X88210205Y-68253795D01*
X90006256Y-66457744D02*
X90006256Y-66457744D01*
D15*
X72070000Y-80710000D03*
X80330000Y-80710000D03*
X80690000Y-86660000D03*
X71710000Y-86660000D03*
D16*
X79800000Y-79460000D03*
D17*
X72600000Y-79460000D03*
X79000000Y-80110000D03*
X77400000Y-80110000D03*
X76600000Y-80110000D03*
X75800000Y-80110000D03*
X75000000Y-80110000D03*
X73400000Y-80110000D03*
X78600000Y-80810000D03*
X77800000Y-80810000D03*
X77000000Y-80810000D03*
X75400000Y-80810000D03*
X74600000Y-80810000D03*
X73800000Y-80810000D03*
D18*
X83820000Y-43180000D03*
D19*
X81280000Y-43180000D03*
X78740000Y-43180000D03*
X76200000Y-43180000D03*
X73660000Y-43180000D03*
X71120000Y-43180000D03*
X68580000Y-43180000D03*
D10*
G36*
X63427857Y-44725015D02*
X62310585Y-43158657D01*
X63876943Y-42041385D01*
X64994215Y-43607743D01*
X63427857Y-44725015D01*
X63427857Y-44725015D01*
G37*
G36*
X61369773Y-46193033D02*
X60252501Y-44626675D01*
X62450613Y-43058777D01*
X63567885Y-44625135D01*
X61369773Y-46193033D01*
X61369773Y-46193033D01*
G37*
G36*
X64854187Y-43707623D02*
X63736915Y-42141265D01*
X65935027Y-40573367D01*
X67052299Y-42139725D01*
X64854187Y-43707623D01*
X64854187Y-43707623D01*
G37*
G36*
X90064015Y-43133257D02*
X88946743Y-44699615D01*
X87380385Y-43582343D01*
X88497657Y-42015985D01*
X90064015Y-43133257D01*
X90064015Y-43133257D01*
G37*
G36*
X92122099Y-44601275D02*
X91004827Y-46167633D01*
X88806715Y-44599735D01*
X89923987Y-43033377D01*
X92122099Y-44601275D01*
X92122099Y-44601275D01*
G37*
G36*
X88637685Y-42115865D02*
X87520413Y-43682223D01*
X85322301Y-42114325D01*
X86439573Y-40547967D01*
X88637685Y-42115865D01*
X88637685Y-42115865D01*
G37*
D20*
X62230000Y-64198500D03*
X62230000Y-65341500D03*
X64135000Y-64198500D03*
X64135000Y-65341500D03*
X77470000Y-64198500D03*
X77470000Y-65341500D03*
X79375000Y-64198500D03*
X79375000Y-65341500D03*
X77470000Y-54038500D03*
X77470000Y-55181500D03*
X79375000Y-54038500D03*
X79375000Y-55181500D03*
X62230000Y-54038500D03*
X62230000Y-55181500D03*
X64135000Y-54038500D03*
X64135000Y-55181500D03*
D21*
X64135000Y-74295000D03*
X72542400Y-68834000D03*
X78689200Y-68834000D03*
X61976000Y-74295000D03*
X90424000Y-73914000D03*
X74676000Y-74549000D03*
D22*
X71940400Y-59639200D03*
X71940400Y-60909200D03*
X71940400Y-62179200D03*
X71940400Y-63449200D03*
X66540400Y-63449200D03*
X66540400Y-62179200D03*
X66540400Y-60909200D03*
X66540400Y-59639200D03*
X87256600Y-49479200D03*
X87256600Y-50749200D03*
X87256600Y-52019200D03*
X87256600Y-53289200D03*
X81856600Y-53289200D03*
X81856600Y-52019200D03*
X81856600Y-50749200D03*
X81856600Y-49479200D03*
X86774000Y-59664600D03*
X86774000Y-60934600D03*
X86774000Y-62204600D03*
X86774000Y-63474600D03*
X81374000Y-63474600D03*
X81374000Y-62204600D03*
X81374000Y-60934600D03*
X81374000Y-59664600D03*
X72042000Y-49555400D03*
X72042000Y-50825400D03*
X72042000Y-52095400D03*
X72042000Y-53365400D03*
X66642000Y-53365400D03*
X66642000Y-52095400D03*
X66642000Y-50825400D03*
X66642000Y-49555400D03*
D13*
X106638600Y-56718200D03*
X104638600Y-56718200D03*
X119745000Y-46990000D03*
X117745000Y-46990000D03*
X125968000Y-57150000D03*
X123968000Y-57150000D03*
X104505000Y-46990000D03*
X102505000Y-46990000D03*
D10*
G36*
X119340924Y-75438000D02*
X117856000Y-76922924D01*
X116371076Y-75438000D01*
X117856000Y-73953076D01*
X119340924Y-75438000D01*
X119340924Y-75438000D01*
G37*
D14*
X119652051Y-73641949D02*
X119652051Y-73641949D01*
X121448102Y-71845898D02*
X121448102Y-71845898D01*
X123244154Y-70049846D02*
X123244154Y-70049846D01*
X125040205Y-68253795D02*
X125040205Y-68253795D01*
X126836256Y-66457744D02*
X126836256Y-66457744D01*
D15*
X108900000Y-80710000D03*
X117160000Y-80710000D03*
X117520000Y-86660000D03*
X108540000Y-86660000D03*
D16*
X116630000Y-79460000D03*
D17*
X109430000Y-79460000D03*
X115830000Y-80110000D03*
X114230000Y-80110000D03*
X113430000Y-80110000D03*
X112630000Y-80110000D03*
X111830000Y-80110000D03*
X110230000Y-80110000D03*
X115430000Y-80810000D03*
X114630000Y-80810000D03*
X113830000Y-80810000D03*
X112230000Y-80810000D03*
X111430000Y-80810000D03*
X110630000Y-80810000D03*
D18*
X120650000Y-43180000D03*
D19*
X118110000Y-43180000D03*
X115570000Y-43180000D03*
X113030000Y-43180000D03*
X110490000Y-43180000D03*
X107950000Y-43180000D03*
X105410000Y-43180000D03*
D10*
G36*
X100257857Y-44725015D02*
X99140585Y-43158657D01*
X100706943Y-42041385D01*
X101824215Y-43607743D01*
X100257857Y-44725015D01*
X100257857Y-44725015D01*
G37*
G36*
X98199773Y-46193033D02*
X97082501Y-44626675D01*
X99280613Y-43058777D01*
X100397885Y-44625135D01*
X98199773Y-46193033D01*
X98199773Y-46193033D01*
G37*
G36*
X101684187Y-43707623D02*
X100566915Y-42141265D01*
X102765027Y-40573367D01*
X103882299Y-42139725D01*
X101684187Y-43707623D01*
X101684187Y-43707623D01*
G37*
G36*
X126894015Y-43133257D02*
X125776743Y-44699615D01*
X124210385Y-43582343D01*
X125327657Y-42015985D01*
X126894015Y-43133257D01*
X126894015Y-43133257D01*
G37*
G36*
X128952099Y-44601275D02*
X127834827Y-46167633D01*
X125636715Y-44599735D01*
X126753987Y-43033377D01*
X128952099Y-44601275D01*
X128952099Y-44601275D01*
G37*
G36*
X125467685Y-42115865D02*
X124350413Y-43682223D01*
X122152301Y-42114325D01*
X123269573Y-40547967D01*
X125467685Y-42115865D01*
X125467685Y-42115865D01*
G37*
D20*
X99060000Y-64198500D03*
X99060000Y-65341500D03*
X100965000Y-64198500D03*
X100965000Y-65341500D03*
X114300000Y-64198500D03*
X114300000Y-65341500D03*
X116205000Y-64198500D03*
X116205000Y-65341500D03*
X114300000Y-54038500D03*
X114300000Y-55181500D03*
X116205000Y-54038500D03*
X116205000Y-55181500D03*
X99060000Y-54038500D03*
X99060000Y-55181500D03*
X100965000Y-54038500D03*
X100965000Y-55181500D03*
D21*
X100965000Y-74295000D03*
X109372400Y-68834000D03*
X115519200Y-68834000D03*
X98806000Y-74295000D03*
X127254000Y-73914000D03*
X111506000Y-74549000D03*
D22*
X108770400Y-59639200D03*
X108770400Y-60909200D03*
X108770400Y-62179200D03*
X108770400Y-63449200D03*
X103370400Y-63449200D03*
X103370400Y-62179200D03*
X103370400Y-60909200D03*
X103370400Y-59639200D03*
X124086600Y-49479200D03*
X124086600Y-50749200D03*
X124086600Y-52019200D03*
X124086600Y-53289200D03*
X118686600Y-53289200D03*
X118686600Y-52019200D03*
X118686600Y-50749200D03*
X118686600Y-49479200D03*
X123604000Y-59664600D03*
X123604000Y-60934600D03*
X123604000Y-62204600D03*
X123604000Y-63474600D03*
X118204000Y-63474600D03*
X118204000Y-62204600D03*
X118204000Y-60934600D03*
X118204000Y-59664600D03*
X108872000Y-49555400D03*
X108872000Y-50825400D03*
X108872000Y-52095400D03*
X108872000Y-53365400D03*
X103472000Y-53365400D03*
X103472000Y-52095400D03*
X103472000Y-50825400D03*
X103472000Y-49555400D03*
D13*
X143468600Y-56718200D03*
X141468600Y-56718200D03*
X156575000Y-46990000D03*
X154575000Y-46990000D03*
X162798000Y-57150000D03*
X160798000Y-57150000D03*
X141335000Y-46990000D03*
X139335000Y-46990000D03*
D10*
G36*
X156170924Y-75438000D02*
X154686000Y-76922924D01*
X153201076Y-75438000D01*
X154686000Y-73953076D01*
X156170924Y-75438000D01*
X156170924Y-75438000D01*
G37*
D14*
X156482051Y-73641949D02*
X156482051Y-73641949D01*
X158278102Y-71845898D02*
X158278102Y-71845898D01*
X160074154Y-70049846D02*
X160074154Y-70049846D01*
X161870205Y-68253795D02*
X161870205Y-68253795D01*
X163666256Y-66457744D02*
X163666256Y-66457744D01*
D15*
X145730000Y-80710000D03*
X153990000Y-80710000D03*
X154350000Y-86660000D03*
X145370000Y-86660000D03*
D16*
X153460000Y-79460000D03*
D17*
X146260000Y-79460000D03*
X152660000Y-80110000D03*
X151060000Y-80110000D03*
X150260000Y-80110000D03*
X149460000Y-80110000D03*
X148660000Y-80110000D03*
X147060000Y-80110000D03*
X152260000Y-80810000D03*
X151460000Y-80810000D03*
X150660000Y-80810000D03*
X149060000Y-80810000D03*
X148260000Y-80810000D03*
X147460000Y-80810000D03*
D18*
X157480000Y-43180000D03*
D19*
X154940000Y-43180000D03*
X152400000Y-43180000D03*
X149860000Y-43180000D03*
X147320000Y-43180000D03*
X144780000Y-43180000D03*
X142240000Y-43180000D03*
D10*
G36*
X137087857Y-44725015D02*
X135970585Y-43158657D01*
X137536943Y-42041385D01*
X138654215Y-43607743D01*
X137087857Y-44725015D01*
X137087857Y-44725015D01*
G37*
G36*
X135029773Y-46193033D02*
X133912501Y-44626675D01*
X136110613Y-43058777D01*
X137227885Y-44625135D01*
X135029773Y-46193033D01*
X135029773Y-46193033D01*
G37*
G36*
X138514187Y-43707623D02*
X137396915Y-42141265D01*
X139595027Y-40573367D01*
X140712299Y-42139725D01*
X138514187Y-43707623D01*
X138514187Y-43707623D01*
G37*
G36*
X163724015Y-43133257D02*
X162606743Y-44699615D01*
X161040385Y-43582343D01*
X162157657Y-42015985D01*
X163724015Y-43133257D01*
X163724015Y-43133257D01*
G37*
G36*
X165782099Y-44601275D02*
X164664827Y-46167633D01*
X162466715Y-44599735D01*
X163583987Y-43033377D01*
X165782099Y-44601275D01*
X165782099Y-44601275D01*
G37*
G36*
X162297685Y-42115865D02*
X161180413Y-43682223D01*
X158982301Y-42114325D01*
X160099573Y-40547967D01*
X162297685Y-42115865D01*
X162297685Y-42115865D01*
G37*
D20*
X135890000Y-64198500D03*
X135890000Y-65341500D03*
X137795000Y-64198500D03*
X137795000Y-65341500D03*
X151130000Y-64198500D03*
X151130000Y-65341500D03*
X153035000Y-64198500D03*
X153035000Y-65341500D03*
X151130000Y-54038500D03*
X151130000Y-55181500D03*
X153035000Y-54038500D03*
X153035000Y-55181500D03*
X135890000Y-54038500D03*
X135890000Y-55181500D03*
X137795000Y-54038500D03*
X137795000Y-55181500D03*
D21*
X137795000Y-74295000D03*
X146202400Y-68834000D03*
X152349200Y-68834000D03*
X135636000Y-74295000D03*
X164084000Y-73914000D03*
X148336000Y-74549000D03*
D22*
X145600400Y-59639200D03*
X145600400Y-60909200D03*
X145600400Y-62179200D03*
X145600400Y-63449200D03*
X140200400Y-63449200D03*
X140200400Y-62179200D03*
X140200400Y-60909200D03*
X140200400Y-59639200D03*
X160916600Y-49479200D03*
X160916600Y-50749200D03*
X160916600Y-52019200D03*
X160916600Y-53289200D03*
X155516600Y-53289200D03*
X155516600Y-52019200D03*
X155516600Y-50749200D03*
X155516600Y-49479200D03*
X160434000Y-59664600D03*
X160434000Y-60934600D03*
X160434000Y-62204600D03*
X160434000Y-63474600D03*
X155034000Y-63474600D03*
X155034000Y-62204600D03*
X155034000Y-60934600D03*
X155034000Y-59664600D03*
X145702000Y-49555400D03*
X145702000Y-50825400D03*
X145702000Y-52095400D03*
X145702000Y-53365400D03*
X140302000Y-53365400D03*
X140302000Y-52095400D03*
X140302000Y-50825400D03*
X140302000Y-49555400D03*
D13*
X180298600Y-56718200D03*
X178298600Y-56718200D03*
X193405000Y-46990000D03*
X191405000Y-46990000D03*
X199628000Y-57150000D03*
X197628000Y-57150000D03*
X178165000Y-46990000D03*
X176165000Y-46990000D03*
D10*
G36*
X193000924Y-75438000D02*
X191516000Y-76922924D01*
X190031076Y-75438000D01*
X191516000Y-73953076D01*
X193000924Y-75438000D01*
X193000924Y-75438000D01*
G37*
D14*
X193312051Y-73641949D02*
X193312051Y-73641949D01*
X195108102Y-71845898D02*
X195108102Y-71845898D01*
X196904154Y-70049846D02*
X196904154Y-70049846D01*
X198700205Y-68253795D02*
X198700205Y-68253795D01*
X200496256Y-66457744D02*
X200496256Y-66457744D01*
D15*
X182560000Y-80710000D03*
X190820000Y-80710000D03*
X191180000Y-86660000D03*
X182200000Y-86660000D03*
D16*
X190290000Y-79460000D03*
D17*
X183090000Y-79460000D03*
X189490000Y-80110000D03*
X187890000Y-80110000D03*
X187090000Y-80110000D03*
X186290000Y-80110000D03*
X185490000Y-80110000D03*
X183890000Y-80110000D03*
X189090000Y-80810000D03*
X188290000Y-80810000D03*
X187490000Y-80810000D03*
X185890000Y-80810000D03*
X185090000Y-80810000D03*
X184290000Y-80810000D03*
D18*
X194310000Y-43180000D03*
D19*
X191770000Y-43180000D03*
X189230000Y-43180000D03*
X186690000Y-43180000D03*
X184150000Y-43180000D03*
X181610000Y-43180000D03*
X179070000Y-43180000D03*
D10*
G36*
X173917857Y-44725015D02*
X172800585Y-43158657D01*
X174366943Y-42041385D01*
X175484215Y-43607743D01*
X173917857Y-44725015D01*
X173917857Y-44725015D01*
G37*
G36*
X171859773Y-46193033D02*
X170742501Y-44626675D01*
X172940613Y-43058777D01*
X174057885Y-44625135D01*
X171859773Y-46193033D01*
X171859773Y-46193033D01*
G37*
G36*
X175344187Y-43707623D02*
X174226915Y-42141265D01*
X176425027Y-40573367D01*
X177542299Y-42139725D01*
X175344187Y-43707623D01*
X175344187Y-43707623D01*
G37*
G36*
X200554015Y-43133257D02*
X199436743Y-44699615D01*
X197870385Y-43582343D01*
X198987657Y-42015985D01*
X200554015Y-43133257D01*
X200554015Y-43133257D01*
G37*
G36*
X202612099Y-44601275D02*
X201494827Y-46167633D01*
X199296715Y-44599735D01*
X200413987Y-43033377D01*
X202612099Y-44601275D01*
X202612099Y-44601275D01*
G37*
G36*
X199127685Y-42115865D02*
X198010413Y-43682223D01*
X195812301Y-42114325D01*
X196929573Y-40547967D01*
X199127685Y-42115865D01*
X199127685Y-42115865D01*
G37*
D20*
X172720000Y-64198500D03*
X172720000Y-65341500D03*
X174625000Y-64198500D03*
X174625000Y-65341500D03*
X187960000Y-64198500D03*
X187960000Y-65341500D03*
X189865000Y-64198500D03*
X189865000Y-65341500D03*
X187960000Y-54038500D03*
X187960000Y-55181500D03*
X189865000Y-54038500D03*
X189865000Y-55181500D03*
X172720000Y-54038500D03*
X172720000Y-55181500D03*
X174625000Y-54038500D03*
X174625000Y-55181500D03*
D21*
X174625000Y-74295000D03*
X183032400Y-68834000D03*
X189179200Y-68834000D03*
X172466000Y-74295000D03*
X200914000Y-73914000D03*
X185166000Y-74549000D03*
D22*
X182430400Y-59639200D03*
X182430400Y-60909200D03*
X182430400Y-62179200D03*
X182430400Y-63449200D03*
X177030400Y-63449200D03*
X177030400Y-62179200D03*
X177030400Y-60909200D03*
X177030400Y-59639200D03*
X197746600Y-49479200D03*
X197746600Y-50749200D03*
X197746600Y-52019200D03*
X197746600Y-53289200D03*
X192346600Y-53289200D03*
X192346600Y-52019200D03*
X192346600Y-50749200D03*
X192346600Y-49479200D03*
X197264000Y-59664600D03*
X197264000Y-60934600D03*
X197264000Y-62204600D03*
X197264000Y-63474600D03*
X191864000Y-63474600D03*
X191864000Y-62204600D03*
X191864000Y-60934600D03*
X191864000Y-59664600D03*
X182532000Y-49555400D03*
X182532000Y-50825400D03*
X182532000Y-52095400D03*
X182532000Y-53365400D03*
X177132000Y-53365400D03*
X177132000Y-52095400D03*
X177132000Y-50825400D03*
X177132000Y-49555400D03*
D13*
X217128600Y-56718200D03*
X215128600Y-56718200D03*
X230235000Y-46990000D03*
X228235000Y-46990000D03*
X236458000Y-57150000D03*
X234458000Y-57150000D03*
X214995000Y-46990000D03*
X212995000Y-46990000D03*
D10*
G36*
X229830924Y-75438000D02*
X228346000Y-76922924D01*
X226861076Y-75438000D01*
X228346000Y-73953076D01*
X229830924Y-75438000D01*
X229830924Y-75438000D01*
G37*
D14*
X230142051Y-73641949D02*
X230142051Y-73641949D01*
X231938102Y-71845898D02*
X231938102Y-71845898D01*
X233734154Y-70049846D02*
X233734154Y-70049846D01*
X235530205Y-68253795D02*
X235530205Y-68253795D01*
X237326256Y-66457744D02*
X237326256Y-66457744D01*
D15*
X219390000Y-80710000D03*
X227650000Y-80710000D03*
X228010000Y-86660000D03*
X219030000Y-86660000D03*
D16*
X227120000Y-79460000D03*
D17*
X219920000Y-79460000D03*
X226320000Y-80110000D03*
X224720000Y-80110000D03*
X223920000Y-80110000D03*
X223120000Y-80110000D03*
X222320000Y-80110000D03*
X220720000Y-80110000D03*
X225920000Y-80810000D03*
X225120000Y-80810000D03*
X224320000Y-80810000D03*
X222720000Y-80810000D03*
X221920000Y-80810000D03*
X221120000Y-80810000D03*
D18*
X231140000Y-43180000D03*
D19*
X228600000Y-43180000D03*
X226060000Y-43180000D03*
X223520000Y-43180000D03*
X220980000Y-43180000D03*
X218440000Y-43180000D03*
X215900000Y-43180000D03*
D10*
G36*
X210747857Y-44725015D02*
X209630585Y-43158657D01*
X211196943Y-42041385D01*
X212314215Y-43607743D01*
X210747857Y-44725015D01*
X210747857Y-44725015D01*
G37*
G36*
X208689773Y-46193033D02*
X207572501Y-44626675D01*
X209770613Y-43058777D01*
X210887885Y-44625135D01*
X208689773Y-46193033D01*
X208689773Y-46193033D01*
G37*
G36*
X212174187Y-43707623D02*
X211056915Y-42141265D01*
X213255027Y-40573367D01*
X214372299Y-42139725D01*
X212174187Y-43707623D01*
X212174187Y-43707623D01*
G37*
G36*
X237384015Y-43133257D02*
X236266743Y-44699615D01*
X234700385Y-43582343D01*
X235817657Y-42015985D01*
X237384015Y-43133257D01*
X237384015Y-43133257D01*
G37*
G36*
X239442099Y-44601275D02*
X238324827Y-46167633D01*
X236126715Y-44599735D01*
X237243987Y-43033377D01*
X239442099Y-44601275D01*
X239442099Y-44601275D01*
G37*
G36*
X235957685Y-42115865D02*
X234840413Y-43682223D01*
X232642301Y-42114325D01*
X233759573Y-40547967D01*
X235957685Y-42115865D01*
X235957685Y-42115865D01*
G37*
D20*
X209550000Y-64198500D03*
X209550000Y-65341500D03*
X211455000Y-64198500D03*
X211455000Y-65341500D03*
X224790000Y-64198500D03*
X224790000Y-65341500D03*
X226695000Y-64198500D03*
X226695000Y-65341500D03*
X224790000Y-54038500D03*
X224790000Y-55181500D03*
X226695000Y-54038500D03*
X226695000Y-55181500D03*
X209550000Y-54038500D03*
X209550000Y-55181500D03*
X211455000Y-54038500D03*
X211455000Y-55181500D03*
D21*
X211455000Y-74295000D03*
X219862400Y-68834000D03*
X226009200Y-68834000D03*
X209296000Y-74295000D03*
X237744000Y-73914000D03*
X221996000Y-74549000D03*
D22*
X219260400Y-59639200D03*
X219260400Y-60909200D03*
X219260400Y-62179200D03*
X219260400Y-63449200D03*
X213860400Y-63449200D03*
X213860400Y-62179200D03*
X213860400Y-60909200D03*
X213860400Y-59639200D03*
X234576600Y-49479200D03*
X234576600Y-50749200D03*
X234576600Y-52019200D03*
X234576600Y-53289200D03*
X229176600Y-53289200D03*
X229176600Y-52019200D03*
X229176600Y-50749200D03*
X229176600Y-49479200D03*
X234094000Y-59664600D03*
X234094000Y-60934600D03*
X234094000Y-62204600D03*
X234094000Y-63474600D03*
X228694000Y-63474600D03*
X228694000Y-62204600D03*
X228694000Y-60934600D03*
X228694000Y-59664600D03*
X219362000Y-49555400D03*
X219362000Y-50825400D03*
X219362000Y-52095400D03*
X219362000Y-53365400D03*
X213962000Y-53365400D03*
X213962000Y-52095400D03*
X213962000Y-50825400D03*
X213962000Y-49555400D03*
D13*
X69808600Y-110058200D03*
X67808600Y-110058200D03*
X82915000Y-100330000D03*
X80915000Y-100330000D03*
X89138000Y-110490000D03*
X87138000Y-110490000D03*
X67675000Y-100330000D03*
X65675000Y-100330000D03*
D10*
G36*
X82510924Y-128778000D02*
X81026000Y-130262924D01*
X79541076Y-128778000D01*
X81026000Y-127293076D01*
X82510924Y-128778000D01*
X82510924Y-128778000D01*
G37*
D14*
X82822051Y-126981949D02*
X82822051Y-126981949D01*
X84618102Y-125185898D02*
X84618102Y-125185898D01*
X86414154Y-123389846D02*
X86414154Y-123389846D01*
X88210205Y-121593795D02*
X88210205Y-121593795D01*
X90006256Y-119797744D02*
X90006256Y-119797744D01*
D15*
X72070000Y-134050000D03*
X80330000Y-134050000D03*
X80690000Y-140000000D03*
X71710000Y-140000000D03*
D16*
X79800000Y-132800000D03*
D17*
X72600000Y-132800000D03*
X79000000Y-133450000D03*
X77400000Y-133450000D03*
X76600000Y-133450000D03*
X75800000Y-133450000D03*
X75000000Y-133450000D03*
X73400000Y-133450000D03*
X78600000Y-134150000D03*
X77800000Y-134150000D03*
X77000000Y-134150000D03*
X75400000Y-134150000D03*
X74600000Y-134150000D03*
X73800000Y-134150000D03*
D18*
X83820000Y-96520000D03*
D19*
X81280000Y-96520000D03*
X78740000Y-96520000D03*
X76200000Y-96520000D03*
X73660000Y-96520000D03*
X71120000Y-96520000D03*
X68580000Y-96520000D03*
D10*
G36*
X63427857Y-98065015D02*
X62310585Y-96498657D01*
X63876943Y-95381385D01*
X64994215Y-96947743D01*
X63427857Y-98065015D01*
X63427857Y-98065015D01*
G37*
G36*
X61369773Y-99533033D02*
X60252501Y-97966675D01*
X62450613Y-96398777D01*
X63567885Y-97965135D01*
X61369773Y-99533033D01*
X61369773Y-99533033D01*
G37*
G36*
X64854187Y-97047623D02*
X63736915Y-95481265D01*
X65935027Y-93913367D01*
X67052299Y-95479725D01*
X64854187Y-97047623D01*
X64854187Y-97047623D01*
G37*
G36*
X90064015Y-96473257D02*
X88946743Y-98039615D01*
X87380385Y-96922343D01*
X88497657Y-95355985D01*
X90064015Y-96473257D01*
X90064015Y-96473257D01*
G37*
G36*
X92122099Y-97941275D02*
X91004827Y-99507633D01*
X88806715Y-97939735D01*
X89923987Y-96373377D01*
X92122099Y-97941275D01*
X92122099Y-97941275D01*
G37*
G36*
X88637685Y-95455865D02*
X87520413Y-97022223D01*
X85322301Y-95454325D01*
X86439573Y-93887967D01*
X88637685Y-95455865D01*
X88637685Y-95455865D01*
G37*
D20*
X62230000Y-117538500D03*
X62230000Y-118681500D03*
X64135000Y-117538500D03*
X64135000Y-118681500D03*
X77470000Y-117538500D03*
X77470000Y-118681500D03*
X79375000Y-117538500D03*
X79375000Y-118681500D03*
X77470000Y-107378500D03*
X77470000Y-108521500D03*
X79375000Y-107378500D03*
X79375000Y-108521500D03*
X62230000Y-107378500D03*
X62230000Y-108521500D03*
X64135000Y-107378500D03*
X64135000Y-108521500D03*
D21*
X64135000Y-127635000D03*
X72542400Y-122174000D03*
X78689200Y-122174000D03*
X61976000Y-127635000D03*
X90424000Y-127254000D03*
X74676000Y-127889000D03*
D22*
X71940400Y-112979200D03*
X71940400Y-114249200D03*
X71940400Y-115519200D03*
X71940400Y-116789200D03*
X66540400Y-116789200D03*
X66540400Y-115519200D03*
X66540400Y-114249200D03*
X66540400Y-112979200D03*
X87256600Y-102819200D03*
X87256600Y-104089200D03*
X87256600Y-105359200D03*
X87256600Y-106629200D03*
X81856600Y-106629200D03*
X81856600Y-105359200D03*
X81856600Y-104089200D03*
X81856600Y-102819200D03*
X86774000Y-113004600D03*
X86774000Y-114274600D03*
X86774000Y-115544600D03*
X86774000Y-116814600D03*
X81374000Y-116814600D03*
X81374000Y-115544600D03*
X81374000Y-114274600D03*
X81374000Y-113004600D03*
X72042000Y-102895400D03*
X72042000Y-104165400D03*
X72042000Y-105435400D03*
X72042000Y-106705400D03*
X66642000Y-106705400D03*
X66642000Y-105435400D03*
X66642000Y-104165400D03*
X66642000Y-102895400D03*
D13*
X106638600Y-110058200D03*
X104638600Y-110058200D03*
X119745000Y-100330000D03*
X117745000Y-100330000D03*
X125968000Y-110490000D03*
X123968000Y-110490000D03*
X104505000Y-100330000D03*
X102505000Y-100330000D03*
D10*
G36*
X119340924Y-128778000D02*
X117856000Y-130262924D01*
X116371076Y-128778000D01*
X117856000Y-127293076D01*
X119340924Y-128778000D01*
X119340924Y-128778000D01*
G37*
D14*
X119652051Y-126981949D02*
X119652051Y-126981949D01*
X121448102Y-125185898D02*
X121448102Y-125185898D01*
X123244154Y-123389846D02*
X123244154Y-123389846D01*
X125040205Y-121593795D02*
X125040205Y-121593795D01*
X126836256Y-119797744D02*
X126836256Y-119797744D01*
D15*
X108900000Y-134050000D03*
X117160000Y-134050000D03*
X117520000Y-140000000D03*
X108540000Y-140000000D03*
D16*
X116630000Y-132800000D03*
D17*
X109430000Y-132800000D03*
X115830000Y-133450000D03*
X114230000Y-133450000D03*
X113430000Y-133450000D03*
X112630000Y-133450000D03*
X111830000Y-133450000D03*
X110230000Y-133450000D03*
X115430000Y-134150000D03*
X114630000Y-134150000D03*
X113830000Y-134150000D03*
X112230000Y-134150000D03*
X111430000Y-134150000D03*
X110630000Y-134150000D03*
D18*
X120650000Y-96520000D03*
D19*
X118110000Y-96520000D03*
X115570000Y-96520000D03*
X113030000Y-96520000D03*
X110490000Y-96520000D03*
X107950000Y-96520000D03*
X105410000Y-96520000D03*
D10*
G36*
X100257857Y-98065015D02*
X99140585Y-96498657D01*
X100706943Y-95381385D01*
X101824215Y-96947743D01*
X100257857Y-98065015D01*
X100257857Y-98065015D01*
G37*
G36*
X98199773Y-99533033D02*
X97082501Y-97966675D01*
X99280613Y-96398777D01*
X100397885Y-97965135D01*
X98199773Y-99533033D01*
X98199773Y-99533033D01*
G37*
G36*
X101684187Y-97047623D02*
X100566915Y-95481265D01*
X102765027Y-93913367D01*
X103882299Y-95479725D01*
X101684187Y-97047623D01*
X101684187Y-97047623D01*
G37*
G36*
X126894015Y-96473257D02*
X125776743Y-98039615D01*
X124210385Y-96922343D01*
X125327657Y-95355985D01*
X126894015Y-96473257D01*
X126894015Y-96473257D01*
G37*
G36*
X128952099Y-97941275D02*
X127834827Y-99507633D01*
X125636715Y-97939735D01*
X126753987Y-96373377D01*
X128952099Y-97941275D01*
X128952099Y-97941275D01*
G37*
G36*
X125467685Y-95455865D02*
X124350413Y-97022223D01*
X122152301Y-95454325D01*
X123269573Y-93887967D01*
X125467685Y-95455865D01*
X125467685Y-95455865D01*
G37*
D20*
X99060000Y-117538500D03*
X99060000Y-118681500D03*
X100965000Y-117538500D03*
X100965000Y-118681500D03*
X114300000Y-117538500D03*
X114300000Y-118681500D03*
X116205000Y-117538500D03*
X116205000Y-118681500D03*
X114300000Y-107378500D03*
X114300000Y-108521500D03*
X116205000Y-107378500D03*
X116205000Y-108521500D03*
X99060000Y-107378500D03*
X99060000Y-108521500D03*
X100965000Y-107378500D03*
X100965000Y-108521500D03*
D21*
X100965000Y-127635000D03*
X109372400Y-122174000D03*
X115519200Y-122174000D03*
X98806000Y-127635000D03*
X127254000Y-127254000D03*
X111506000Y-127889000D03*
D22*
X108770400Y-112979200D03*
X108770400Y-114249200D03*
X108770400Y-115519200D03*
X108770400Y-116789200D03*
X103370400Y-116789200D03*
X103370400Y-115519200D03*
X103370400Y-114249200D03*
X103370400Y-112979200D03*
X124086600Y-102819200D03*
X124086600Y-104089200D03*
X124086600Y-105359200D03*
X124086600Y-106629200D03*
X118686600Y-106629200D03*
X118686600Y-105359200D03*
X118686600Y-104089200D03*
X118686600Y-102819200D03*
X123604000Y-113004600D03*
X123604000Y-114274600D03*
X123604000Y-115544600D03*
X123604000Y-116814600D03*
X118204000Y-116814600D03*
X118204000Y-115544600D03*
X118204000Y-114274600D03*
X118204000Y-113004600D03*
X108872000Y-102895400D03*
X108872000Y-104165400D03*
X108872000Y-105435400D03*
X108872000Y-106705400D03*
X103472000Y-106705400D03*
X103472000Y-105435400D03*
X103472000Y-104165400D03*
X103472000Y-102895400D03*
D13*
X143468600Y-110058200D03*
X141468600Y-110058200D03*
X156575000Y-100330000D03*
X154575000Y-100330000D03*
X162798000Y-110490000D03*
X160798000Y-110490000D03*
X141335000Y-100330000D03*
X139335000Y-100330000D03*
D10*
G36*
X156170924Y-128778000D02*
X154686000Y-130262924D01*
X153201076Y-128778000D01*
X154686000Y-127293076D01*
X156170924Y-128778000D01*
X156170924Y-128778000D01*
G37*
D14*
X156482051Y-126981949D02*
X156482051Y-126981949D01*
X158278102Y-125185898D02*
X158278102Y-125185898D01*
X160074154Y-123389846D02*
X160074154Y-123389846D01*
X161870205Y-121593795D02*
X161870205Y-121593795D01*
X163666256Y-119797744D02*
X163666256Y-119797744D01*
D15*
X145730000Y-134050000D03*
X153990000Y-134050000D03*
X154350000Y-140000000D03*
X145370000Y-140000000D03*
D16*
X153460000Y-132800000D03*
D17*
X146260000Y-132800000D03*
X152660000Y-133450000D03*
X151060000Y-133450000D03*
X150260000Y-133450000D03*
X149460000Y-133450000D03*
X148660000Y-133450000D03*
X147060000Y-133450000D03*
X152260000Y-134150000D03*
X151460000Y-134150000D03*
X150660000Y-134150000D03*
X149060000Y-134150000D03*
X148260000Y-134150000D03*
X147460000Y-134150000D03*
D18*
X157480000Y-96520000D03*
D19*
X154940000Y-96520000D03*
X152400000Y-96520000D03*
X149860000Y-96520000D03*
X147320000Y-96520000D03*
X144780000Y-96520000D03*
X142240000Y-96520000D03*
D10*
G36*
X137087857Y-98065015D02*
X135970585Y-96498657D01*
X137536943Y-95381385D01*
X138654215Y-96947743D01*
X137087857Y-98065015D01*
X137087857Y-98065015D01*
G37*
G36*
X135029773Y-99533033D02*
X133912501Y-97966675D01*
X136110613Y-96398777D01*
X137227885Y-97965135D01*
X135029773Y-99533033D01*
X135029773Y-99533033D01*
G37*
G36*
X138514187Y-97047623D02*
X137396915Y-95481265D01*
X139595027Y-93913367D01*
X140712299Y-95479725D01*
X138514187Y-97047623D01*
X138514187Y-97047623D01*
G37*
G36*
X163724015Y-96473257D02*
X162606743Y-98039615D01*
X161040385Y-96922343D01*
X162157657Y-95355985D01*
X163724015Y-96473257D01*
X163724015Y-96473257D01*
G37*
G36*
X165782099Y-97941275D02*
X164664827Y-99507633D01*
X162466715Y-97939735D01*
X163583987Y-96373377D01*
X165782099Y-97941275D01*
X165782099Y-97941275D01*
G37*
G36*
X162297685Y-95455865D02*
X161180413Y-97022223D01*
X158982301Y-95454325D01*
X160099573Y-93887967D01*
X162297685Y-95455865D01*
X162297685Y-95455865D01*
G37*
D20*
X135890000Y-117538500D03*
X135890000Y-118681500D03*
X137795000Y-117538500D03*
X137795000Y-118681500D03*
X151130000Y-117538500D03*
X151130000Y-118681500D03*
X153035000Y-117538500D03*
X153035000Y-118681500D03*
X151130000Y-107378500D03*
X151130000Y-108521500D03*
X153035000Y-107378500D03*
X153035000Y-108521500D03*
X135890000Y-107378500D03*
X135890000Y-108521500D03*
X137795000Y-107378500D03*
X137795000Y-108521500D03*
D21*
X137795000Y-127635000D03*
X146202400Y-122174000D03*
X152349200Y-122174000D03*
X135636000Y-127635000D03*
X164084000Y-127254000D03*
X148336000Y-127889000D03*
D22*
X145600400Y-112979200D03*
X145600400Y-114249200D03*
X145600400Y-115519200D03*
X145600400Y-116789200D03*
X140200400Y-116789200D03*
X140200400Y-115519200D03*
X140200400Y-114249200D03*
X140200400Y-112979200D03*
X160916600Y-102819200D03*
X160916600Y-104089200D03*
X160916600Y-105359200D03*
X160916600Y-106629200D03*
X155516600Y-106629200D03*
X155516600Y-105359200D03*
X155516600Y-104089200D03*
X155516600Y-102819200D03*
X160434000Y-113004600D03*
X160434000Y-114274600D03*
X160434000Y-115544600D03*
X160434000Y-116814600D03*
X155034000Y-116814600D03*
X155034000Y-115544600D03*
X155034000Y-114274600D03*
X155034000Y-113004600D03*
X145702000Y-102895400D03*
X145702000Y-104165400D03*
X145702000Y-105435400D03*
X145702000Y-106705400D03*
X140302000Y-106705400D03*
X140302000Y-105435400D03*
X140302000Y-104165400D03*
X140302000Y-102895400D03*
D13*
X180298600Y-110058200D03*
X178298600Y-110058200D03*
X193405000Y-100330000D03*
X191405000Y-100330000D03*
X199628000Y-110490000D03*
X197628000Y-110490000D03*
X178165000Y-100330000D03*
X176165000Y-100330000D03*
D10*
G36*
X193000924Y-128778000D02*
X191516000Y-130262924D01*
X190031076Y-128778000D01*
X191516000Y-127293076D01*
X193000924Y-128778000D01*
X193000924Y-128778000D01*
G37*
D14*
X193312051Y-126981949D02*
X193312051Y-126981949D01*
X195108102Y-125185898D02*
X195108102Y-125185898D01*
X196904154Y-123389846D02*
X196904154Y-123389846D01*
X198700205Y-121593795D02*
X198700205Y-121593795D01*
X200496256Y-119797744D02*
X200496256Y-119797744D01*
D15*
X182560000Y-134050000D03*
X190820000Y-134050000D03*
X191180000Y-140000000D03*
X182200000Y-140000000D03*
D16*
X190290000Y-132800000D03*
D17*
X183090000Y-132800000D03*
X189490000Y-133450000D03*
X187890000Y-133450000D03*
X187090000Y-133450000D03*
X186290000Y-133450000D03*
X185490000Y-133450000D03*
X183890000Y-133450000D03*
X189090000Y-134150000D03*
X188290000Y-134150000D03*
X187490000Y-134150000D03*
X185890000Y-134150000D03*
X185090000Y-134150000D03*
X184290000Y-134150000D03*
D18*
X194310000Y-96520000D03*
D19*
X191770000Y-96520000D03*
X189230000Y-96520000D03*
X186690000Y-96520000D03*
X184150000Y-96520000D03*
X181610000Y-96520000D03*
X179070000Y-96520000D03*
D10*
G36*
X173917857Y-98065015D02*
X172800585Y-96498657D01*
X174366943Y-95381385D01*
X175484215Y-96947743D01*
X173917857Y-98065015D01*
X173917857Y-98065015D01*
G37*
G36*
X171859773Y-99533033D02*
X170742501Y-97966675D01*
X172940613Y-96398777D01*
X174057885Y-97965135D01*
X171859773Y-99533033D01*
X171859773Y-99533033D01*
G37*
G36*
X175344187Y-97047623D02*
X174226915Y-95481265D01*
X176425027Y-93913367D01*
X177542299Y-95479725D01*
X175344187Y-97047623D01*
X175344187Y-97047623D01*
G37*
G36*
X200554015Y-96473257D02*
X199436743Y-98039615D01*
X197870385Y-96922343D01*
X198987657Y-95355985D01*
X200554015Y-96473257D01*
X200554015Y-96473257D01*
G37*
G36*
X202612099Y-97941275D02*
X201494827Y-99507633D01*
X199296715Y-97939735D01*
X200413987Y-96373377D01*
X202612099Y-97941275D01*
X202612099Y-97941275D01*
G37*
G36*
X199127685Y-95455865D02*
X198010413Y-97022223D01*
X195812301Y-95454325D01*
X196929573Y-93887967D01*
X199127685Y-95455865D01*
X199127685Y-95455865D01*
G37*
D20*
X172720000Y-117538500D03*
X172720000Y-118681500D03*
X174625000Y-117538500D03*
X174625000Y-118681500D03*
X187960000Y-117538500D03*
X187960000Y-118681500D03*
X189865000Y-117538500D03*
X189865000Y-118681500D03*
X187960000Y-107378500D03*
X187960000Y-108521500D03*
X189865000Y-107378500D03*
X189865000Y-108521500D03*
X172720000Y-107378500D03*
X172720000Y-108521500D03*
X174625000Y-107378500D03*
X174625000Y-108521500D03*
D21*
X174625000Y-127635000D03*
X183032400Y-122174000D03*
X189179200Y-122174000D03*
X172466000Y-127635000D03*
X200914000Y-127254000D03*
X185166000Y-127889000D03*
D22*
X182430400Y-112979200D03*
X182430400Y-114249200D03*
X182430400Y-115519200D03*
X182430400Y-116789200D03*
X177030400Y-116789200D03*
X177030400Y-115519200D03*
X177030400Y-114249200D03*
X177030400Y-112979200D03*
X197746600Y-102819200D03*
X197746600Y-104089200D03*
X197746600Y-105359200D03*
X197746600Y-106629200D03*
X192346600Y-106629200D03*
X192346600Y-105359200D03*
X192346600Y-104089200D03*
X192346600Y-102819200D03*
X197264000Y-113004600D03*
X197264000Y-114274600D03*
X197264000Y-115544600D03*
X197264000Y-116814600D03*
X191864000Y-116814600D03*
X191864000Y-115544600D03*
X191864000Y-114274600D03*
X191864000Y-113004600D03*
X182532000Y-102895400D03*
X182532000Y-104165400D03*
X182532000Y-105435400D03*
X182532000Y-106705400D03*
X177132000Y-106705400D03*
X177132000Y-105435400D03*
X177132000Y-104165400D03*
X177132000Y-102895400D03*
D13*
X217128600Y-110058200D03*
X215128600Y-110058200D03*
X230235000Y-100330000D03*
X228235000Y-100330000D03*
X236458000Y-110490000D03*
X234458000Y-110490000D03*
X214995000Y-100330000D03*
X212995000Y-100330000D03*
D10*
G36*
X229830924Y-128778000D02*
X228346000Y-130262924D01*
X226861076Y-128778000D01*
X228346000Y-127293076D01*
X229830924Y-128778000D01*
X229830924Y-128778000D01*
G37*
D14*
X230142051Y-126981949D02*
X230142051Y-126981949D01*
X231938102Y-125185898D02*
X231938102Y-125185898D01*
X233734154Y-123389846D02*
X233734154Y-123389846D01*
X235530205Y-121593795D02*
X235530205Y-121593795D01*
X237326256Y-119797744D02*
X237326256Y-119797744D01*
D15*
X219390000Y-134050000D03*
X227650000Y-134050000D03*
X228010000Y-140000000D03*
X219030000Y-140000000D03*
D16*
X227120000Y-132800000D03*
D17*
X219920000Y-132800000D03*
X226320000Y-133450000D03*
X224720000Y-133450000D03*
X223920000Y-133450000D03*
X223120000Y-133450000D03*
X222320000Y-133450000D03*
X220720000Y-133450000D03*
X225920000Y-134150000D03*
X225120000Y-134150000D03*
X224320000Y-134150000D03*
X222720000Y-134150000D03*
X221920000Y-134150000D03*
X221120000Y-134150000D03*
D18*
X231140000Y-96520000D03*
D19*
X228600000Y-96520000D03*
X226060000Y-96520000D03*
X223520000Y-96520000D03*
X220980000Y-96520000D03*
X218440000Y-96520000D03*
X215900000Y-96520000D03*
D10*
G36*
X210747857Y-98065015D02*
X209630585Y-96498657D01*
X211196943Y-95381385D01*
X212314215Y-96947743D01*
X210747857Y-98065015D01*
X210747857Y-98065015D01*
G37*
G36*
X208689773Y-99533033D02*
X207572501Y-97966675D01*
X209770613Y-96398777D01*
X210887885Y-97965135D01*
X208689773Y-99533033D01*
X208689773Y-99533033D01*
G37*
G36*
X212174187Y-97047623D02*
X211056915Y-95481265D01*
X213255027Y-93913367D01*
X214372299Y-95479725D01*
X212174187Y-97047623D01*
X212174187Y-97047623D01*
G37*
G36*
X237384015Y-96473257D02*
X236266743Y-98039615D01*
X234700385Y-96922343D01*
X235817657Y-95355985D01*
X237384015Y-96473257D01*
X237384015Y-96473257D01*
G37*
G36*
X239442099Y-97941275D02*
X238324827Y-99507633D01*
X236126715Y-97939735D01*
X237243987Y-96373377D01*
X239442099Y-97941275D01*
X239442099Y-97941275D01*
G37*
G36*
X235957685Y-95455865D02*
X234840413Y-97022223D01*
X232642301Y-95454325D01*
X233759573Y-93887967D01*
X235957685Y-95455865D01*
X235957685Y-95455865D01*
G37*
D20*
X209550000Y-117538500D03*
X209550000Y-118681500D03*
X211455000Y-117538500D03*
X211455000Y-118681500D03*
X224790000Y-117538500D03*
X224790000Y-118681500D03*
X226695000Y-117538500D03*
X226695000Y-118681500D03*
X224790000Y-107378500D03*
X224790000Y-108521500D03*
X226695000Y-107378500D03*
X226695000Y-108521500D03*
X209550000Y-107378500D03*
X209550000Y-108521500D03*
X211455000Y-107378500D03*
X211455000Y-108521500D03*
D21*
X211455000Y-127635000D03*
X219862400Y-122174000D03*
X226009200Y-122174000D03*
X209296000Y-127635000D03*
X237744000Y-127254000D03*
X221996000Y-127889000D03*
D22*
X219260400Y-112979200D03*
X219260400Y-114249200D03*
X219260400Y-115519200D03*
X219260400Y-116789200D03*
X213860400Y-116789200D03*
X213860400Y-115519200D03*
X213860400Y-114249200D03*
X213860400Y-112979200D03*
X234576600Y-102819200D03*
X234576600Y-104089200D03*
X234576600Y-105359200D03*
X234576600Y-106629200D03*
X229176600Y-106629200D03*
X229176600Y-105359200D03*
X229176600Y-104089200D03*
X229176600Y-102819200D03*
X234094000Y-113004600D03*
X234094000Y-114274600D03*
X234094000Y-115544600D03*
X234094000Y-116814600D03*
X228694000Y-116814600D03*
X228694000Y-115544600D03*
X228694000Y-114274600D03*
X228694000Y-113004600D03*
X219362000Y-102895400D03*
X219362000Y-104165400D03*
X219362000Y-105435400D03*
X219362000Y-106705400D03*
X213962000Y-106705400D03*
X213962000Y-105435400D03*
X213962000Y-104165400D03*
X213962000Y-102895400D03*
M02*
