G04 #@! TF.FileFunction,Profile,NP*
%FSLAX46Y46*%
G04 Gerber Fmt 4.6, Leading zero omitted, Abs format (unit mm)*
G04 Created by KiCad (PCBNEW 4.0.6) date Fri Nov 17 13:30:40 2017*
%MOMM*%
%LPD*%
G01*
G04 APERTURE LIST*
%ADD10C,0.100000*%
%ADD11C,0.150000*%
G04 APERTURE END LIST*
D10*
D11*
X74803000Y-88341200D02*
X77597000Y-88341200D01*
X92075000Y-81661000D02*
X91694000Y-83820000D01*
X91694000Y-83820000D02*
X89941400Y-85344000D01*
X89941400Y-85344000D02*
X83362800Y-87579200D01*
X83362800Y-87579200D02*
X80899000Y-88188800D01*
X80899000Y-88188800D02*
X77597000Y-88341200D01*
X71501000Y-88188800D02*
X74803000Y-88341200D01*
X69037200Y-87579200D02*
X71501000Y-88188800D01*
X62458600Y-85344000D02*
X69037200Y-87579200D01*
X60706000Y-83820000D02*
X62458600Y-85344000D01*
X60325000Y-81661000D02*
X60706000Y-83820000D01*
X60325000Y-44704000D02*
X60325000Y-81661000D01*
X92075000Y-44704000D02*
X92075000Y-81661000D01*
X86614000Y-40640000D02*
X65786000Y-40640000D01*
X92075000Y-44704000D02*
X91948000Y-44196000D01*
X91948000Y-44196000D02*
X91694000Y-43815000D01*
X91694000Y-43815000D02*
X91059000Y-43180000D01*
X91059000Y-43180000D02*
X89916000Y-42291000D01*
X89916000Y-42291000D02*
X88392000Y-41148000D01*
X88392000Y-41148000D02*
X87503000Y-40767000D01*
X87503000Y-40767000D02*
X86614000Y-40640000D01*
X64897000Y-40767000D02*
X65786000Y-40640000D01*
X64008000Y-41148000D02*
X64897000Y-40767000D01*
X62484000Y-42291000D02*
X64008000Y-41148000D01*
X61341000Y-43180000D02*
X62484000Y-42291000D01*
X60706000Y-43815000D02*
X61341000Y-43180000D01*
X60452000Y-44196000D02*
X60706000Y-43815000D01*
X60325000Y-44704000D02*
X60452000Y-44196000D01*
X111633000Y-88341200D02*
X114427000Y-88341200D01*
X128905000Y-81661000D02*
X128524000Y-83820000D01*
X128524000Y-83820000D02*
X126771400Y-85344000D01*
X126771400Y-85344000D02*
X120192800Y-87579200D01*
X120192800Y-87579200D02*
X117729000Y-88188800D01*
X117729000Y-88188800D02*
X114427000Y-88341200D01*
X108331000Y-88188800D02*
X111633000Y-88341200D01*
X105867200Y-87579200D02*
X108331000Y-88188800D01*
X99288600Y-85344000D02*
X105867200Y-87579200D01*
X97536000Y-83820000D02*
X99288600Y-85344000D01*
X97155000Y-81661000D02*
X97536000Y-83820000D01*
X97155000Y-44704000D02*
X97155000Y-81661000D01*
X128905000Y-44704000D02*
X128905000Y-81661000D01*
X123444000Y-40640000D02*
X102616000Y-40640000D01*
X128905000Y-44704000D02*
X128778000Y-44196000D01*
X128778000Y-44196000D02*
X128524000Y-43815000D01*
X128524000Y-43815000D02*
X127889000Y-43180000D01*
X127889000Y-43180000D02*
X126746000Y-42291000D01*
X126746000Y-42291000D02*
X125222000Y-41148000D01*
X125222000Y-41148000D02*
X124333000Y-40767000D01*
X124333000Y-40767000D02*
X123444000Y-40640000D01*
X101727000Y-40767000D02*
X102616000Y-40640000D01*
X100838000Y-41148000D02*
X101727000Y-40767000D01*
X99314000Y-42291000D02*
X100838000Y-41148000D01*
X98171000Y-43180000D02*
X99314000Y-42291000D01*
X97536000Y-43815000D02*
X98171000Y-43180000D01*
X97282000Y-44196000D02*
X97536000Y-43815000D01*
X97155000Y-44704000D02*
X97282000Y-44196000D01*
X148463000Y-88341200D02*
X151257000Y-88341200D01*
X165735000Y-81661000D02*
X165354000Y-83820000D01*
X165354000Y-83820000D02*
X163601400Y-85344000D01*
X163601400Y-85344000D02*
X157022800Y-87579200D01*
X157022800Y-87579200D02*
X154559000Y-88188800D01*
X154559000Y-88188800D02*
X151257000Y-88341200D01*
X145161000Y-88188800D02*
X148463000Y-88341200D01*
X142697200Y-87579200D02*
X145161000Y-88188800D01*
X136118600Y-85344000D02*
X142697200Y-87579200D01*
X134366000Y-83820000D02*
X136118600Y-85344000D01*
X133985000Y-81661000D02*
X134366000Y-83820000D01*
X133985000Y-44704000D02*
X133985000Y-81661000D01*
X165735000Y-44704000D02*
X165735000Y-81661000D01*
X160274000Y-40640000D02*
X139446000Y-40640000D01*
X165735000Y-44704000D02*
X165608000Y-44196000D01*
X165608000Y-44196000D02*
X165354000Y-43815000D01*
X165354000Y-43815000D02*
X164719000Y-43180000D01*
X164719000Y-43180000D02*
X163576000Y-42291000D01*
X163576000Y-42291000D02*
X162052000Y-41148000D01*
X162052000Y-41148000D02*
X161163000Y-40767000D01*
X161163000Y-40767000D02*
X160274000Y-40640000D01*
X138557000Y-40767000D02*
X139446000Y-40640000D01*
X137668000Y-41148000D02*
X138557000Y-40767000D01*
X136144000Y-42291000D02*
X137668000Y-41148000D01*
X135001000Y-43180000D02*
X136144000Y-42291000D01*
X134366000Y-43815000D02*
X135001000Y-43180000D01*
X134112000Y-44196000D02*
X134366000Y-43815000D01*
X133985000Y-44704000D02*
X134112000Y-44196000D01*
X185293000Y-88341200D02*
X188087000Y-88341200D01*
X202565000Y-81661000D02*
X202184000Y-83820000D01*
X202184000Y-83820000D02*
X200431400Y-85344000D01*
X200431400Y-85344000D02*
X193852800Y-87579200D01*
X193852800Y-87579200D02*
X191389000Y-88188800D01*
X191389000Y-88188800D02*
X188087000Y-88341200D01*
X181991000Y-88188800D02*
X185293000Y-88341200D01*
X179527200Y-87579200D02*
X181991000Y-88188800D01*
X172948600Y-85344000D02*
X179527200Y-87579200D01*
X171196000Y-83820000D02*
X172948600Y-85344000D01*
X170815000Y-81661000D02*
X171196000Y-83820000D01*
X170815000Y-44704000D02*
X170815000Y-81661000D01*
X202565000Y-44704000D02*
X202565000Y-81661000D01*
X197104000Y-40640000D02*
X176276000Y-40640000D01*
X202565000Y-44704000D02*
X202438000Y-44196000D01*
X202438000Y-44196000D02*
X202184000Y-43815000D01*
X202184000Y-43815000D02*
X201549000Y-43180000D01*
X201549000Y-43180000D02*
X200406000Y-42291000D01*
X200406000Y-42291000D02*
X198882000Y-41148000D01*
X198882000Y-41148000D02*
X197993000Y-40767000D01*
X197993000Y-40767000D02*
X197104000Y-40640000D01*
X175387000Y-40767000D02*
X176276000Y-40640000D01*
X174498000Y-41148000D02*
X175387000Y-40767000D01*
X172974000Y-42291000D02*
X174498000Y-41148000D01*
X171831000Y-43180000D02*
X172974000Y-42291000D01*
X171196000Y-43815000D02*
X171831000Y-43180000D01*
X170942000Y-44196000D02*
X171196000Y-43815000D01*
X170815000Y-44704000D02*
X170942000Y-44196000D01*
X222123000Y-88341200D02*
X224917000Y-88341200D01*
X239395000Y-81661000D02*
X239014000Y-83820000D01*
X239014000Y-83820000D02*
X237261400Y-85344000D01*
X237261400Y-85344000D02*
X230682800Y-87579200D01*
X230682800Y-87579200D02*
X228219000Y-88188800D01*
X228219000Y-88188800D02*
X224917000Y-88341200D01*
X218821000Y-88188800D02*
X222123000Y-88341200D01*
X216357200Y-87579200D02*
X218821000Y-88188800D01*
X209778600Y-85344000D02*
X216357200Y-87579200D01*
X208026000Y-83820000D02*
X209778600Y-85344000D01*
X207645000Y-81661000D02*
X208026000Y-83820000D01*
X207645000Y-44704000D02*
X207645000Y-81661000D01*
X239395000Y-44704000D02*
X239395000Y-81661000D01*
X233934000Y-40640000D02*
X213106000Y-40640000D01*
X239395000Y-44704000D02*
X239268000Y-44196000D01*
X239268000Y-44196000D02*
X239014000Y-43815000D01*
X239014000Y-43815000D02*
X238379000Y-43180000D01*
X238379000Y-43180000D02*
X237236000Y-42291000D01*
X237236000Y-42291000D02*
X235712000Y-41148000D01*
X235712000Y-41148000D02*
X234823000Y-40767000D01*
X234823000Y-40767000D02*
X233934000Y-40640000D01*
X212217000Y-40767000D02*
X213106000Y-40640000D01*
X211328000Y-41148000D02*
X212217000Y-40767000D01*
X209804000Y-42291000D02*
X211328000Y-41148000D01*
X208661000Y-43180000D02*
X209804000Y-42291000D01*
X208026000Y-43815000D02*
X208661000Y-43180000D01*
X207772000Y-44196000D02*
X208026000Y-43815000D01*
X207645000Y-44704000D02*
X207772000Y-44196000D01*
X74803000Y-141681200D02*
X77597000Y-141681200D01*
X92075000Y-135001000D02*
X91694000Y-137160000D01*
X91694000Y-137160000D02*
X89941400Y-138684000D01*
X89941400Y-138684000D02*
X83362800Y-140919200D01*
X83362800Y-140919200D02*
X80899000Y-141528800D01*
X80899000Y-141528800D02*
X77597000Y-141681200D01*
X71501000Y-141528800D02*
X74803000Y-141681200D01*
X69037200Y-140919200D02*
X71501000Y-141528800D01*
X62458600Y-138684000D02*
X69037200Y-140919200D01*
X60706000Y-137160000D02*
X62458600Y-138684000D01*
X60325000Y-135001000D02*
X60706000Y-137160000D01*
X60325000Y-98044000D02*
X60325000Y-135001000D01*
X92075000Y-98044000D02*
X92075000Y-135001000D01*
X86614000Y-93980000D02*
X65786000Y-93980000D01*
X92075000Y-98044000D02*
X91948000Y-97536000D01*
X91948000Y-97536000D02*
X91694000Y-97155000D01*
X91694000Y-97155000D02*
X91059000Y-96520000D01*
X91059000Y-96520000D02*
X89916000Y-95631000D01*
X89916000Y-95631000D02*
X88392000Y-94488000D01*
X88392000Y-94488000D02*
X87503000Y-94107000D01*
X87503000Y-94107000D02*
X86614000Y-93980000D01*
X64897000Y-94107000D02*
X65786000Y-93980000D01*
X64008000Y-94488000D02*
X64897000Y-94107000D01*
X62484000Y-95631000D02*
X64008000Y-94488000D01*
X61341000Y-96520000D02*
X62484000Y-95631000D01*
X60706000Y-97155000D02*
X61341000Y-96520000D01*
X60452000Y-97536000D02*
X60706000Y-97155000D01*
X60325000Y-98044000D02*
X60452000Y-97536000D01*
X111633000Y-141681200D02*
X114427000Y-141681200D01*
X128905000Y-135001000D02*
X128524000Y-137160000D01*
X128524000Y-137160000D02*
X126771400Y-138684000D01*
X126771400Y-138684000D02*
X120192800Y-140919200D01*
X120192800Y-140919200D02*
X117729000Y-141528800D01*
X117729000Y-141528800D02*
X114427000Y-141681200D01*
X108331000Y-141528800D02*
X111633000Y-141681200D01*
X105867200Y-140919200D02*
X108331000Y-141528800D01*
X99288600Y-138684000D02*
X105867200Y-140919200D01*
X97536000Y-137160000D02*
X99288600Y-138684000D01*
X97155000Y-135001000D02*
X97536000Y-137160000D01*
X97155000Y-98044000D02*
X97155000Y-135001000D01*
X128905000Y-98044000D02*
X128905000Y-135001000D01*
X123444000Y-93980000D02*
X102616000Y-93980000D01*
X128905000Y-98044000D02*
X128778000Y-97536000D01*
X128778000Y-97536000D02*
X128524000Y-97155000D01*
X128524000Y-97155000D02*
X127889000Y-96520000D01*
X127889000Y-96520000D02*
X126746000Y-95631000D01*
X126746000Y-95631000D02*
X125222000Y-94488000D01*
X125222000Y-94488000D02*
X124333000Y-94107000D01*
X124333000Y-94107000D02*
X123444000Y-93980000D01*
X101727000Y-94107000D02*
X102616000Y-93980000D01*
X100838000Y-94488000D02*
X101727000Y-94107000D01*
X99314000Y-95631000D02*
X100838000Y-94488000D01*
X98171000Y-96520000D02*
X99314000Y-95631000D01*
X97536000Y-97155000D02*
X98171000Y-96520000D01*
X97282000Y-97536000D02*
X97536000Y-97155000D01*
X97155000Y-98044000D02*
X97282000Y-97536000D01*
X148463000Y-141681200D02*
X151257000Y-141681200D01*
X165735000Y-135001000D02*
X165354000Y-137160000D01*
X165354000Y-137160000D02*
X163601400Y-138684000D01*
X163601400Y-138684000D02*
X157022800Y-140919200D01*
X157022800Y-140919200D02*
X154559000Y-141528800D01*
X154559000Y-141528800D02*
X151257000Y-141681200D01*
X145161000Y-141528800D02*
X148463000Y-141681200D01*
X142697200Y-140919200D02*
X145161000Y-141528800D01*
X136118600Y-138684000D02*
X142697200Y-140919200D01*
X134366000Y-137160000D02*
X136118600Y-138684000D01*
X133985000Y-135001000D02*
X134366000Y-137160000D01*
X133985000Y-98044000D02*
X133985000Y-135001000D01*
X165735000Y-98044000D02*
X165735000Y-135001000D01*
X160274000Y-93980000D02*
X139446000Y-93980000D01*
X165735000Y-98044000D02*
X165608000Y-97536000D01*
X165608000Y-97536000D02*
X165354000Y-97155000D01*
X165354000Y-97155000D02*
X164719000Y-96520000D01*
X164719000Y-96520000D02*
X163576000Y-95631000D01*
X163576000Y-95631000D02*
X162052000Y-94488000D01*
X162052000Y-94488000D02*
X161163000Y-94107000D01*
X161163000Y-94107000D02*
X160274000Y-93980000D01*
X138557000Y-94107000D02*
X139446000Y-93980000D01*
X137668000Y-94488000D02*
X138557000Y-94107000D01*
X136144000Y-95631000D02*
X137668000Y-94488000D01*
X135001000Y-96520000D02*
X136144000Y-95631000D01*
X134366000Y-97155000D02*
X135001000Y-96520000D01*
X134112000Y-97536000D02*
X134366000Y-97155000D01*
X133985000Y-98044000D02*
X134112000Y-97536000D01*
X185293000Y-141681200D02*
X188087000Y-141681200D01*
X202565000Y-135001000D02*
X202184000Y-137160000D01*
X202184000Y-137160000D02*
X200431400Y-138684000D01*
X200431400Y-138684000D02*
X193852800Y-140919200D01*
X193852800Y-140919200D02*
X191389000Y-141528800D01*
X191389000Y-141528800D02*
X188087000Y-141681200D01*
X181991000Y-141528800D02*
X185293000Y-141681200D01*
X179527200Y-140919200D02*
X181991000Y-141528800D01*
X172948600Y-138684000D02*
X179527200Y-140919200D01*
X171196000Y-137160000D02*
X172948600Y-138684000D01*
X170815000Y-135001000D02*
X171196000Y-137160000D01*
X170815000Y-98044000D02*
X170815000Y-135001000D01*
X202565000Y-98044000D02*
X202565000Y-135001000D01*
X197104000Y-93980000D02*
X176276000Y-93980000D01*
X202565000Y-98044000D02*
X202438000Y-97536000D01*
X202438000Y-97536000D02*
X202184000Y-97155000D01*
X202184000Y-97155000D02*
X201549000Y-96520000D01*
X201549000Y-96520000D02*
X200406000Y-95631000D01*
X200406000Y-95631000D02*
X198882000Y-94488000D01*
X198882000Y-94488000D02*
X197993000Y-94107000D01*
X197993000Y-94107000D02*
X197104000Y-93980000D01*
X175387000Y-94107000D02*
X176276000Y-93980000D01*
X174498000Y-94488000D02*
X175387000Y-94107000D01*
X172974000Y-95631000D02*
X174498000Y-94488000D01*
X171831000Y-96520000D02*
X172974000Y-95631000D01*
X171196000Y-97155000D02*
X171831000Y-96520000D01*
X170942000Y-97536000D02*
X171196000Y-97155000D01*
X170815000Y-98044000D02*
X170942000Y-97536000D01*
X222123000Y-141681200D02*
X224917000Y-141681200D01*
X239395000Y-135001000D02*
X239014000Y-137160000D01*
X239014000Y-137160000D02*
X237261400Y-138684000D01*
X237261400Y-138684000D02*
X230682800Y-140919200D01*
X230682800Y-140919200D02*
X228219000Y-141528800D01*
X228219000Y-141528800D02*
X224917000Y-141681200D01*
X218821000Y-141528800D02*
X222123000Y-141681200D01*
X216357200Y-140919200D02*
X218821000Y-141528800D01*
X209778600Y-138684000D02*
X216357200Y-140919200D01*
X208026000Y-137160000D02*
X209778600Y-138684000D01*
X207645000Y-135001000D02*
X208026000Y-137160000D01*
X207645000Y-98044000D02*
X207645000Y-135001000D01*
X239395000Y-98044000D02*
X239395000Y-135001000D01*
X233934000Y-93980000D02*
X213106000Y-93980000D01*
X239395000Y-98044000D02*
X239268000Y-97536000D01*
X239268000Y-97536000D02*
X239014000Y-97155000D01*
X239014000Y-97155000D02*
X238379000Y-96520000D01*
X238379000Y-96520000D02*
X237236000Y-95631000D01*
X237236000Y-95631000D02*
X235712000Y-94488000D01*
X235712000Y-94488000D02*
X234823000Y-94107000D01*
X234823000Y-94107000D02*
X233934000Y-93980000D01*
X212217000Y-94107000D02*
X213106000Y-93980000D01*
X211328000Y-94488000D02*
X212217000Y-94107000D01*
X209804000Y-95631000D02*
X211328000Y-94488000D01*
X208661000Y-96520000D02*
X209804000Y-95631000D01*
X208026000Y-97155000D02*
X208661000Y-96520000D01*
X207772000Y-97536000D02*
X208026000Y-97155000D01*
X207645000Y-98044000D02*
X207772000Y-97536000D01*
M02*
