M48
;DRILL file {KiCad 4.0.7-e2-6376~58~ubuntu16.04.1} date Mon Nov 20 20:39:37 2017
;FORMAT={-:-/ absolute / metric / decimal}
FMAT,2
METRIC,TZ
T1C0.650
%
G90
G05
M71
T1
X28.15Y-55.33
X28.15Y-105.571
X28.15Y-155.812
X28.15Y-206.054
X62.44Y-55.33
X62.44Y-105.571
X62.44Y-155.812
X62.44Y-206.054
X96.73Y-55.33
X96.73Y-105.571
X96.73Y-155.812
X96.73Y-206.054
X131.02Y-55.33
X131.02Y-105.571
X131.02Y-155.812
X131.02Y-206.054
X165.31Y-55.33
X165.31Y-105.571
X165.31Y-155.812
X165.31Y-206.054
X199.6Y-55.33
X199.6Y-105.571
X199.6Y-155.812
X199.6Y-206.054
X233.89Y-55.33
X233.89Y-105.571
X233.89Y-155.812
X233.89Y-206.054
X268.18Y-55.33
X268.18Y-105.571
X268.18Y-155.812
X268.18Y-206.054
T1
X35.2Y-55.33G85X35.5Y-55.33
G05
X35.2Y-105.571G85X35.5Y-105.571
G05
X35.2Y-155.812G85X35.5Y-155.812
G05
X35.2Y-206.054G85X35.5Y-206.054
G05
X69.49Y-55.33G85X69.79Y-55.33
G05
X69.49Y-105.571G85X69.79Y-105.571
G05
X69.49Y-155.812G85X69.79Y-155.812
G05
X69.49Y-206.054G85X69.79Y-206.054
G05
X103.78Y-55.33G85X104.08Y-55.33
G05
X103.78Y-105.571G85X104.08Y-105.571
G05
X103.78Y-155.812G85X104.08Y-155.812
G05
X103.78Y-206.054G85X104.08Y-206.054
G05
X138.07Y-55.33G85X138.37Y-55.33
G05
X138.07Y-105.571G85X138.37Y-105.571
G05
X138.07Y-155.812G85X138.37Y-155.812
G05
X138.07Y-206.054G85X138.37Y-206.054
G05
X172.36Y-55.33G85X172.66Y-55.33
G05
X172.36Y-105.571G85X172.66Y-105.571
G05
X172.36Y-155.812G85X172.66Y-155.812
G05
X172.36Y-206.054G85X172.66Y-206.054
G05
X206.65Y-55.33G85X206.95Y-55.33
G05
X206.65Y-105.571G85X206.95Y-105.571
G05
X206.65Y-155.812G85X206.95Y-155.812
G05
X206.65Y-206.054G85X206.95Y-206.054
G05
X240.94Y-55.33G85X241.24Y-55.33
G05
X240.94Y-105.571G85X241.24Y-105.571
G05
X240.94Y-155.812G85X241.24Y-155.812
G05
X240.94Y-206.054G85X241.24Y-206.054
G05
X275.23Y-55.33G85X275.53Y-55.33
G05
X275.23Y-105.571G85X275.53Y-105.571
G05
X275.23Y-155.812G85X275.53Y-155.812
G05
X275.23Y-206.054G85X275.53Y-206.054
G05
T0
M30
