M48
;DRILL file {KiCad 4.0.7-e2-6376~58~ubuntu16.04.1} date Mon Nov 20 20:39:37 2017
;FORMAT={-:-/ absolute / metric / decimal}
FMAT,2
METRIC,TZ
T1C0.400
T2C0.500
T3C0.762
T4C1.000
%
G90
G05
M71
T1
X16.408Y-26.111
X16.408Y-76.352
X16.408Y-126.594
X16.408Y-176.835
X20.015Y-22.225
X20.015Y-72.466
X20.015Y-122.707
X20.015Y-172.949
X20.637Y-25.209
X20.637Y-75.451
X20.637Y-125.692
X20.637Y-175.933
X20.701Y-43.18
X20.701Y-93.421
X20.701Y-143.662
X20.701Y-193.904
X21.107Y-30.048
X21.107Y-80.289
X21.107Y-130.531
X21.107Y-180.772
X21.717Y-44.704
X21.717Y-94.945
X21.717Y-145.186
X21.717Y-195.428
X22.098Y-32.385
X22.098Y-82.626
X22.098Y-132.867
X22.098Y-183.109
X23.368Y-39.243
X23.368Y-89.484
X23.368Y-139.725
X23.368Y-189.967
X23.825Y-28.118
X23.825Y-78.359
X23.825Y-128.6
X23.825Y-178.841
X24.511Y-23.368
X24.511Y-73.609
X24.511Y-123.85
X24.511Y-174.092
X25.019Y-37.211
X25.019Y-87.452
X25.019Y-137.693
X25.019Y-187.935
X25.4Y-34.29
X25.4Y-84.531
X25.4Y-134.772
X25.4Y-185.014
X26.162Y-38.227
X26.162Y-88.468
X26.162Y-138.709
X26.162Y-188.951
X26.289Y-41.148
X26.289Y-91.389
X26.289Y-141.63
X26.289Y-191.872
X26.67Y-32.385
X26.67Y-33.655
X26.67Y-82.626
X26.67Y-83.896
X26.67Y-132.867
X26.67Y-134.137
X26.67Y-183.109
X26.67Y-184.379
X26.721Y-53.899
X26.721Y-104.14
X26.721Y-154.381
X26.721Y-204.622
X27.305Y-29.845
X27.305Y-80.086
X27.305Y-130.327
X27.305Y-180.569
X27.508Y-23.241
X27.508Y-73.482
X27.508Y-123.723
X27.508Y-173.965
X27.94Y-32.385
X27.94Y-33.655
X27.94Y-82.626
X27.94Y-83.896
X27.94Y-132.867
X27.94Y-134.137
X27.94Y-183.109
X27.94Y-184.379
X28.55Y-53.899
X28.55Y-104.14
X28.55Y-154.381
X28.55Y-204.622
X28.702Y-41.148
X28.702Y-91.389
X28.702Y-141.63
X28.702Y-191.872
X28.753Y-30.455
X28.753Y-80.696
X28.753Y-130.937
X28.753Y-181.178
X28.854Y-37.363
X28.854Y-87.605
X28.854Y-137.846
X28.854Y-188.087
X28.95Y-55.98
X28.95Y-106.221
X28.95Y-156.462
X28.95Y-206.704
X29.337Y-24.638
X29.337Y-74.879
X29.337Y-125.12
X29.337Y-175.362
X29.35Y-56.68
X29.35Y-106.921
X29.35Y-157.162
X29.35Y-207.404
X29.464Y-52.197
X29.464Y-102.438
X29.464Y-152.679
X29.464Y-202.921
X29.718Y-41.326
X29.718Y-91.567
X29.718Y-141.808
X29.718Y-192.049
X30.15Y-56.68
X30.15Y-106.921
X30.15Y-157.162
X30.15Y-207.404
X30.55Y-55.98
X30.55Y-106.221
X30.55Y-156.462
X30.55Y-206.704
X30.607Y-41.275
X30.607Y-91.516
X30.607Y-141.757
X30.607Y-191.999
X30.734Y-38.227
X30.734Y-88.468
X30.734Y-138.709
X30.734Y-188.951
X30.861Y-36.576
X30.861Y-86.817
X30.861Y-137.058
X30.861Y-187.3
X30.924Y-53.721
X30.924Y-103.962
X30.924Y-154.203
X30.924Y-204.445
X30.95Y-56.68
X30.95Y-106.921
X30.95Y-157.162
X30.95Y-207.404
X31.35Y-55.98
X31.35Y-106.221
X31.35Y-156.462
X31.35Y-206.704
X32.15Y-55.98
X32.15Y-106.221
X32.15Y-156.462
X32.15Y-206.704
X32.512Y-38.227
X32.512Y-88.468
X32.512Y-138.709
X32.512Y-188.951
X32.55Y-56.68
X32.55Y-106.921
X32.55Y-157.162
X32.55Y-207.404
X32.95Y-55.98
X32.95Y-106.221
X32.95Y-156.462
X32.95Y-206.704
X33.02Y-47.498
X33.02Y-97.739
X33.02Y-147.98
X33.02Y-198.222
X33.249Y-22.758
X33.249Y-73.
X33.249Y-123.241
X33.249Y-173.482
X33.35Y-56.68
X33.35Y-106.921
X33.35Y-157.162
X33.35Y-207.404
X33.655Y-35.687
X33.655Y-85.928
X33.655Y-136.169
X33.655Y-186.411
X34.15Y-56.68
X34.15Y-106.921
X34.15Y-157.162
X34.15Y-207.404
X34.55Y-55.98
X34.55Y-106.221
X34.55Y-156.462
X34.55Y-206.704
X34.849Y-25.857
X34.849Y-76.098
X34.849Y-126.34
X34.849Y-176.581
X36.17Y-45.136
X36.17Y-95.377
X36.17Y-145.618
X36.17Y-195.859
X36.957Y-31.75
X36.957Y-81.991
X36.957Y-132.232
X36.957Y-182.474
X37.821Y-45.187
X37.821Y-95.428
X37.821Y-145.669
X37.821Y-195.91
X50.698Y-26.111
X50.698Y-76.352
X50.698Y-126.594
X50.698Y-176.835
X54.305Y-22.225
X54.305Y-72.466
X54.305Y-122.707
X54.305Y-172.949
X54.927Y-25.209
X54.927Y-75.451
X54.927Y-125.692
X54.927Y-175.933
X54.991Y-43.18
X54.991Y-93.421
X54.991Y-143.662
X54.991Y-193.904
X55.397Y-30.048
X55.397Y-80.289
X55.397Y-130.531
X55.397Y-180.772
X56.007Y-44.704
X56.007Y-94.945
X56.007Y-145.186
X56.007Y-195.428
X56.388Y-32.385
X56.388Y-82.626
X56.388Y-132.867
X56.388Y-183.109
X57.658Y-39.243
X57.658Y-89.484
X57.658Y-139.725
X57.658Y-189.967
X58.115Y-28.118
X58.115Y-78.359
X58.115Y-128.6
X58.115Y-178.841
X58.801Y-23.368
X58.801Y-73.609
X58.801Y-123.85
X58.801Y-174.092
X59.309Y-37.211
X59.309Y-87.452
X59.309Y-137.693
X59.309Y-187.935
X59.69Y-34.29
X59.69Y-84.531
X59.69Y-134.772
X59.69Y-185.014
X60.452Y-38.227
X60.452Y-88.468
X60.452Y-138.709
X60.452Y-188.951
X60.579Y-41.148
X60.579Y-91.389
X60.579Y-141.63
X60.579Y-191.872
X60.96Y-32.385
X60.96Y-33.655
X60.96Y-82.626
X60.96Y-83.896
X60.96Y-132.867
X60.96Y-134.137
X60.96Y-183.109
X60.96Y-184.379
X61.011Y-53.899
X61.011Y-104.14
X61.011Y-154.381
X61.011Y-204.622
X61.595Y-29.845
X61.595Y-80.086
X61.595Y-130.327
X61.595Y-180.569
X61.798Y-23.241
X61.798Y-73.482
X61.798Y-123.723
X61.798Y-173.965
X62.23Y-32.385
X62.23Y-33.655
X62.23Y-82.626
X62.23Y-83.896
X62.23Y-132.867
X62.23Y-134.137
X62.23Y-183.109
X62.23Y-184.379
X62.84Y-53.899
X62.84Y-104.14
X62.84Y-154.381
X62.84Y-204.622
X62.992Y-41.148
X62.992Y-91.389
X62.992Y-141.63
X62.992Y-191.872
X63.043Y-30.455
X63.043Y-80.696
X63.043Y-130.937
X63.043Y-181.178
X63.144Y-37.363
X63.144Y-87.605
X63.144Y-137.846
X63.144Y-188.087
X63.24Y-55.98
X63.24Y-106.221
X63.24Y-156.462
X63.24Y-206.704
X63.627Y-24.638
X63.627Y-74.879
X63.627Y-125.12
X63.627Y-175.362
X63.64Y-56.68
X63.64Y-106.921
X63.64Y-157.162
X63.64Y-207.404
X63.754Y-52.197
X63.754Y-102.438
X63.754Y-152.679
X63.754Y-202.921
X64.008Y-41.326
X64.008Y-91.567
X64.008Y-141.808
X64.008Y-192.049
X64.44Y-56.68
X64.44Y-106.921
X64.44Y-157.162
X64.44Y-207.404
X64.84Y-55.98
X64.84Y-106.221
X64.84Y-156.462
X64.84Y-206.704
X64.897Y-41.275
X64.897Y-91.516
X64.897Y-141.757
X64.897Y-191.999
X65.024Y-38.227
X65.024Y-88.468
X65.024Y-138.709
X65.024Y-188.951
X65.151Y-36.576
X65.151Y-86.817
X65.151Y-137.058
X65.151Y-187.3
X65.215Y-53.721
X65.215Y-103.962
X65.215Y-154.203
X65.215Y-204.445
X65.24Y-56.68
X65.24Y-106.921
X65.24Y-157.162
X65.24Y-207.404
X65.64Y-55.98
X65.64Y-106.221
X65.64Y-156.462
X65.64Y-206.704
X66.44Y-55.98
X66.44Y-106.221
X66.44Y-156.462
X66.44Y-206.704
X66.802Y-38.227
X66.802Y-88.468
X66.802Y-138.709
X66.802Y-188.951
X66.84Y-56.68
X66.84Y-106.921
X66.84Y-157.162
X66.84Y-207.404
X67.24Y-55.98
X67.24Y-106.221
X67.24Y-156.462
X67.24Y-206.704
X67.31Y-47.498
X67.31Y-97.739
X67.31Y-147.98
X67.31Y-198.222
X67.539Y-22.758
X67.539Y-73.
X67.539Y-123.241
X67.539Y-173.482
X67.64Y-56.68
X67.64Y-106.921
X67.64Y-157.162
X67.64Y-207.404
X67.945Y-35.687
X67.945Y-85.928
X67.945Y-136.169
X67.945Y-186.411
X68.44Y-56.68
X68.44Y-106.921
X68.44Y-157.162
X68.44Y-207.404
X68.84Y-55.98
X68.84Y-106.221
X68.84Y-156.462
X68.84Y-206.704
X69.139Y-25.857
X69.139Y-76.098
X69.139Y-126.34
X69.139Y-176.581
X70.46Y-45.136
X70.46Y-95.377
X70.46Y-145.618
X70.46Y-195.859
X71.247Y-31.75
X71.247Y-81.991
X71.247Y-132.232
X71.247Y-182.474
X72.111Y-45.187
X72.111Y-95.428
X72.111Y-145.669
X72.111Y-195.91
X84.988Y-26.111
X84.988Y-76.352
X84.988Y-126.594
X84.988Y-176.835
X88.595Y-22.225
X88.595Y-72.466
X88.595Y-122.707
X88.595Y-172.949
X89.218Y-25.209
X89.218Y-75.451
X89.218Y-125.692
X89.218Y-175.933
X89.281Y-43.18
X89.281Y-93.421
X89.281Y-143.662
X89.281Y-193.904
X89.687Y-30.048
X89.687Y-80.289
X89.687Y-130.531
X89.687Y-180.772
X90.297Y-44.704
X90.297Y-94.945
X90.297Y-145.186
X90.297Y-195.428
X90.678Y-32.385
X90.678Y-82.626
X90.678Y-132.867
X90.678Y-183.109
X91.948Y-39.243
X91.948Y-89.484
X91.948Y-139.725
X91.948Y-189.967
X92.405Y-28.118
X92.405Y-78.359
X92.405Y-128.6
X92.405Y-178.841
X93.091Y-23.368
X93.091Y-73.609
X93.091Y-123.85
X93.091Y-174.092
X93.599Y-37.211
X93.599Y-87.452
X93.599Y-137.693
X93.599Y-187.935
X93.98Y-34.29
X93.98Y-84.531
X93.98Y-134.772
X93.98Y-185.014
X94.742Y-38.227
X94.742Y-88.468
X94.742Y-138.709
X94.742Y-188.951
X94.869Y-41.148
X94.869Y-91.389
X94.869Y-141.63
X94.869Y-191.872
X95.25Y-32.385
X95.25Y-33.655
X95.25Y-82.626
X95.25Y-83.896
X95.25Y-132.867
X95.25Y-134.137
X95.25Y-183.109
X95.25Y-184.379
X95.301Y-53.899
X95.301Y-104.14
X95.301Y-154.381
X95.301Y-204.622
X95.885Y-29.845
X95.885Y-80.086
X95.885Y-130.327
X95.885Y-180.569
X96.088Y-23.241
X96.088Y-73.482
X96.088Y-123.723
X96.088Y-173.965
X96.52Y-32.385
X96.52Y-33.655
X96.52Y-82.626
X96.52Y-83.896
X96.52Y-132.867
X96.52Y-134.137
X96.52Y-183.109
X96.52Y-184.379
X97.13Y-53.899
X97.13Y-104.14
X97.13Y-154.381
X97.13Y-204.622
X97.282Y-41.148
X97.282Y-91.389
X97.282Y-141.63
X97.282Y-191.872
X97.333Y-30.455
X97.333Y-80.696
X97.333Y-130.937
X97.333Y-181.178
X97.434Y-37.363
X97.434Y-87.605
X97.434Y-137.846
X97.434Y-188.087
X97.53Y-55.98
X97.53Y-106.221
X97.53Y-156.462
X97.53Y-206.704
X97.917Y-24.638
X97.917Y-74.879
X97.917Y-125.12
X97.917Y-175.362
X97.93Y-56.68
X97.93Y-106.921
X97.93Y-157.162
X97.93Y-207.404
X98.044Y-52.197
X98.044Y-102.438
X98.044Y-152.679
X98.044Y-202.921
X98.298Y-41.326
X98.298Y-91.567
X98.298Y-141.808
X98.298Y-192.049
X98.73Y-56.68
X98.73Y-106.921
X98.73Y-157.162
X98.73Y-207.404
X99.13Y-55.98
X99.13Y-106.221
X99.13Y-156.462
X99.13Y-206.704
X99.187Y-41.275
X99.187Y-91.516
X99.187Y-141.757
X99.187Y-191.999
X99.314Y-38.227
X99.314Y-88.468
X99.314Y-138.709
X99.314Y-188.951
X99.441Y-36.576
X99.441Y-86.817
X99.441Y-137.058
X99.441Y-187.3
X99.504Y-53.721
X99.504Y-103.962
X99.504Y-154.203
X99.504Y-204.445
X99.53Y-56.68
X99.53Y-106.921
X99.53Y-157.162
X99.53Y-207.404
X99.93Y-55.98
X99.93Y-106.221
X99.93Y-156.462
X99.93Y-206.704
X100.73Y-55.98
X100.73Y-106.221
X100.73Y-156.462
X100.73Y-206.704
X101.092Y-38.227
X101.092Y-88.468
X101.092Y-138.709
X101.092Y-188.951
X101.13Y-56.68
X101.13Y-106.921
X101.13Y-157.162
X101.13Y-207.404
X101.53Y-55.98
X101.53Y-106.221
X101.53Y-156.462
X101.53Y-206.704
X101.6Y-47.498
X101.6Y-97.739
X101.6Y-147.98
X101.6Y-198.222
X101.829Y-22.758
X101.829Y-73.
X101.829Y-123.241
X101.829Y-173.482
X101.93Y-56.68
X101.93Y-106.921
X101.93Y-157.162
X101.93Y-207.404
X102.235Y-35.687
X102.235Y-85.928
X102.235Y-136.169
X102.235Y-186.411
X102.73Y-56.68
X102.73Y-106.921
X102.73Y-157.162
X102.73Y-207.404
X103.13Y-55.98
X103.13Y-106.221
X103.13Y-156.462
X103.13Y-206.704
X103.429Y-25.857
X103.429Y-76.098
X103.429Y-126.34
X103.429Y-176.581
X104.75Y-45.136
X104.75Y-95.377
X104.75Y-145.618
X104.75Y-195.859
X105.537Y-31.75
X105.537Y-81.991
X105.537Y-132.232
X105.537Y-182.474
X106.401Y-45.187
X106.401Y-95.428
X106.401Y-145.669
X106.401Y-195.91
X119.278Y-26.111
X119.278Y-76.352
X119.278Y-126.594
X119.278Y-176.835
X122.885Y-22.225
X122.885Y-72.466
X122.885Y-122.707
X122.885Y-172.949
X123.507Y-25.209
X123.507Y-75.451
X123.507Y-125.692
X123.507Y-175.933
X123.571Y-43.18
X123.571Y-93.421
X123.571Y-143.662
X123.571Y-193.904
X123.977Y-30.048
X123.977Y-80.289
X123.977Y-130.531
X123.977Y-180.772
X124.587Y-44.704
X124.587Y-94.945
X124.587Y-145.186
X124.587Y-195.428
X124.968Y-32.385
X124.968Y-82.626
X124.968Y-132.867
X124.968Y-183.109
X126.238Y-39.243
X126.238Y-89.484
X126.238Y-139.725
X126.238Y-189.967
X126.695Y-28.118
X126.695Y-78.359
X126.695Y-128.6
X126.695Y-178.841
X127.381Y-23.368
X127.381Y-73.609
X127.381Y-123.85
X127.381Y-174.092
X127.889Y-37.211
X127.889Y-87.452
X127.889Y-137.693
X127.889Y-187.935
X128.27Y-34.29
X128.27Y-84.531
X128.27Y-134.772
X128.27Y-185.014
X129.032Y-38.227
X129.032Y-88.468
X129.032Y-138.709
X129.032Y-188.951
X129.159Y-41.148
X129.159Y-91.389
X129.159Y-141.63
X129.159Y-191.872
X129.54Y-32.385
X129.54Y-33.655
X129.54Y-82.626
X129.54Y-83.896
X129.54Y-132.867
X129.54Y-134.137
X129.54Y-183.109
X129.54Y-184.379
X129.591Y-53.899
X129.591Y-104.14
X129.591Y-154.381
X129.591Y-204.622
X130.175Y-29.845
X130.175Y-80.086
X130.175Y-130.327
X130.175Y-180.569
X130.378Y-23.241
X130.378Y-73.482
X130.378Y-123.723
X130.378Y-173.965
X130.81Y-32.385
X130.81Y-33.655
X130.81Y-82.626
X130.81Y-83.896
X130.81Y-132.867
X130.81Y-134.137
X130.81Y-183.109
X130.81Y-184.379
X131.42Y-53.899
X131.42Y-104.14
X131.42Y-154.381
X131.42Y-204.622
X131.572Y-41.148
X131.572Y-91.389
X131.572Y-141.63
X131.572Y-191.872
X131.623Y-30.455
X131.623Y-80.696
X131.623Y-130.937
X131.623Y-181.178
X131.724Y-37.363
X131.724Y-87.605
X131.724Y-137.846
X131.724Y-188.087
X131.82Y-55.98
X131.82Y-106.221
X131.82Y-156.462
X131.82Y-206.704
X132.207Y-24.638
X132.207Y-74.879
X132.207Y-125.12
X132.207Y-175.362
X132.22Y-56.68
X132.22Y-106.921
X132.22Y-157.162
X132.22Y-207.404
X132.334Y-52.197
X132.334Y-102.438
X132.334Y-152.679
X132.334Y-202.921
X132.588Y-41.326
X132.588Y-91.567
X132.588Y-141.808
X132.588Y-192.049
X133.02Y-56.68
X133.02Y-106.921
X133.02Y-157.162
X133.02Y-207.404
X133.42Y-55.98
X133.42Y-106.221
X133.42Y-156.462
X133.42Y-206.704
X133.477Y-41.275
X133.477Y-91.516
X133.477Y-141.757
X133.477Y-191.999
X133.604Y-38.227
X133.604Y-88.468
X133.604Y-138.709
X133.604Y-188.951
X133.731Y-36.576
X133.731Y-86.817
X133.731Y-137.058
X133.731Y-187.3
X133.794Y-53.721
X133.794Y-103.962
X133.794Y-154.203
X133.794Y-204.445
X133.82Y-56.68
X133.82Y-106.921
X133.82Y-157.162
X133.82Y-207.404
X134.22Y-55.98
X134.22Y-106.221
X134.22Y-156.462
X134.22Y-206.704
X135.02Y-55.98
X135.02Y-106.221
X135.02Y-156.462
X135.02Y-206.704
X135.382Y-38.227
X135.382Y-88.468
X135.382Y-138.709
X135.382Y-188.951
X135.42Y-56.68
X135.42Y-106.921
X135.42Y-157.162
X135.42Y-207.404
X135.82Y-55.98
X135.82Y-106.221
X135.82Y-156.462
X135.82Y-206.704
X135.89Y-47.498
X135.89Y-97.739
X135.89Y-147.98
X135.89Y-198.222
X136.119Y-22.758
X136.119Y-73.
X136.119Y-123.241
X136.119Y-173.482
X136.22Y-56.68
X136.22Y-106.921
X136.22Y-157.162
X136.22Y-207.404
X136.525Y-35.687
X136.525Y-85.928
X136.525Y-136.169
X136.525Y-186.411
X137.02Y-56.68
X137.02Y-106.921
X137.02Y-157.162
X137.02Y-207.404
X137.42Y-55.98
X137.42Y-106.221
X137.42Y-156.462
X137.42Y-206.704
X137.719Y-25.857
X137.719Y-76.098
X137.719Y-126.34
X137.719Y-176.581
X139.04Y-45.136
X139.04Y-95.377
X139.04Y-145.618
X139.04Y-195.859
X139.827Y-31.75
X139.827Y-81.991
X139.827Y-132.232
X139.827Y-182.474
X140.691Y-45.187
X140.691Y-95.428
X140.691Y-145.669
X140.691Y-195.91
X153.568Y-26.111
X153.568Y-76.352
X153.568Y-126.594
X153.568Y-176.835
X157.175Y-22.225
X157.175Y-72.466
X157.175Y-122.707
X157.175Y-172.949
X157.797Y-25.209
X157.797Y-75.451
X157.797Y-125.692
X157.797Y-175.933
X157.861Y-43.18
X157.861Y-93.421
X157.861Y-143.662
X157.861Y-193.904
X158.267Y-30.048
X158.267Y-80.289
X158.267Y-130.531
X158.267Y-180.772
X158.877Y-44.704
X158.877Y-94.945
X158.877Y-145.186
X158.877Y-195.428
X159.258Y-32.385
X159.258Y-82.626
X159.258Y-132.867
X159.258Y-183.109
X160.528Y-39.243
X160.528Y-89.484
X160.528Y-139.725
X160.528Y-189.967
X160.985Y-28.118
X160.985Y-78.359
X160.985Y-128.6
X160.985Y-178.841
X161.671Y-23.368
X161.671Y-73.609
X161.671Y-123.85
X161.671Y-174.092
X162.179Y-37.211
X162.179Y-87.452
X162.179Y-137.693
X162.179Y-187.935
X162.56Y-34.29
X162.56Y-84.531
X162.56Y-134.772
X162.56Y-185.014
X163.322Y-38.227
X163.322Y-88.468
X163.322Y-138.709
X163.322Y-188.951
X163.449Y-41.148
X163.449Y-91.389
X163.449Y-141.63
X163.449Y-191.872
X163.83Y-32.385
X163.83Y-33.655
X163.83Y-82.626
X163.83Y-83.896
X163.83Y-132.867
X163.83Y-134.137
X163.83Y-183.109
X163.83Y-184.379
X163.881Y-53.899
X163.881Y-104.14
X163.881Y-154.381
X163.881Y-204.622
X164.465Y-29.845
X164.465Y-80.086
X164.465Y-130.327
X164.465Y-180.569
X164.668Y-23.241
X164.668Y-73.482
X164.668Y-123.723
X164.668Y-173.965
X165.1Y-32.385
X165.1Y-33.655
X165.1Y-82.626
X165.1Y-83.896
X165.1Y-132.867
X165.1Y-134.137
X165.1Y-183.109
X165.1Y-184.379
X165.71Y-53.899
X165.71Y-104.14
X165.71Y-154.381
X165.71Y-204.622
X165.862Y-41.148
X165.862Y-91.389
X165.862Y-141.63
X165.862Y-191.872
X165.913Y-30.455
X165.913Y-80.696
X165.913Y-130.937
X165.913Y-181.178
X166.014Y-37.363
X166.014Y-87.605
X166.014Y-137.846
X166.014Y-188.087
X166.11Y-55.98
X166.11Y-106.221
X166.11Y-156.462
X166.11Y-206.704
X166.497Y-24.638
X166.497Y-74.879
X166.497Y-125.12
X166.497Y-175.362
X166.51Y-56.68
X166.51Y-106.921
X166.51Y-157.162
X166.51Y-207.404
X166.624Y-52.197
X166.624Y-102.438
X166.624Y-152.679
X166.624Y-202.921
X166.878Y-41.326
X166.878Y-91.567
X166.878Y-141.808
X166.878Y-192.049
X167.31Y-56.68
X167.31Y-106.921
X167.31Y-157.162
X167.31Y-207.404
X167.71Y-55.98
X167.71Y-106.221
X167.71Y-156.462
X167.71Y-206.704
X167.767Y-41.275
X167.767Y-91.516
X167.767Y-141.757
X167.767Y-191.999
X167.894Y-38.227
X167.894Y-88.468
X167.894Y-138.709
X167.894Y-188.951
X168.021Y-36.576
X168.021Y-86.817
X168.021Y-137.058
X168.021Y-187.3
X168.084Y-53.721
X168.084Y-103.962
X168.084Y-154.203
X168.084Y-204.445
X168.11Y-56.68
X168.11Y-106.921
X168.11Y-157.162
X168.11Y-207.404
X168.51Y-55.98
X168.51Y-106.221
X168.51Y-156.462
X168.51Y-206.704
X169.31Y-55.98
X169.31Y-106.221
X169.31Y-156.462
X169.31Y-206.704
X169.672Y-38.227
X169.672Y-88.468
X169.672Y-138.709
X169.672Y-188.951
X169.71Y-56.68
X169.71Y-106.921
X169.71Y-157.162
X169.71Y-207.404
X170.11Y-55.98
X170.11Y-106.221
X170.11Y-156.462
X170.11Y-206.704
X170.18Y-47.498
X170.18Y-97.739
X170.18Y-147.98
X170.18Y-198.222
X170.409Y-22.758
X170.409Y-73.
X170.409Y-123.241
X170.409Y-173.482
X170.51Y-56.68
X170.51Y-106.921
X170.51Y-157.162
X170.51Y-207.404
X170.815Y-35.687
X170.815Y-85.928
X170.815Y-136.169
X170.815Y-186.411
X171.31Y-56.68
X171.31Y-106.921
X171.31Y-157.162
X171.31Y-207.404
X171.71Y-55.98
X171.71Y-106.221
X171.71Y-156.462
X171.71Y-206.704
X172.009Y-25.857
X172.009Y-76.098
X172.009Y-126.34
X172.009Y-176.581
X173.33Y-45.136
X173.33Y-95.377
X173.33Y-145.618
X173.33Y-195.859
X174.117Y-31.75
X174.117Y-81.991
X174.117Y-132.232
X174.117Y-182.474
X174.981Y-45.187
X174.981Y-95.428
X174.981Y-145.669
X174.981Y-195.91
X187.858Y-26.111
X187.858Y-76.352
X187.858Y-126.594
X187.858Y-176.835
X191.465Y-22.225
X191.465Y-72.466
X191.465Y-122.707
X191.465Y-172.949
X192.087Y-25.209
X192.087Y-75.451
X192.087Y-125.692
X192.087Y-175.933
X192.151Y-43.18
X192.151Y-93.421
X192.151Y-143.662
X192.151Y-193.904
X192.557Y-30.048
X192.557Y-80.289
X192.557Y-130.531
X192.557Y-180.772
X193.167Y-44.704
X193.167Y-94.945
X193.167Y-145.186
X193.167Y-195.428
X193.548Y-32.385
X193.548Y-82.626
X193.548Y-132.867
X193.548Y-183.109
X194.818Y-39.243
X194.818Y-89.484
X194.818Y-139.725
X194.818Y-189.967
X195.275Y-28.118
X195.275Y-78.359
X195.275Y-128.6
X195.275Y-178.841
X195.961Y-23.368
X195.961Y-73.609
X195.961Y-123.85
X195.961Y-174.092
X196.469Y-37.211
X196.469Y-87.452
X196.469Y-137.693
X196.469Y-187.935
X196.85Y-34.29
X196.85Y-84.531
X196.85Y-134.772
X196.85Y-185.014
X197.612Y-38.227
X197.612Y-88.468
X197.612Y-138.709
X197.612Y-188.951
X197.739Y-41.148
X197.739Y-91.389
X197.739Y-141.63
X197.739Y-191.872
X198.12Y-32.385
X198.12Y-33.655
X198.12Y-82.626
X198.12Y-83.896
X198.12Y-132.867
X198.12Y-134.137
X198.12Y-183.109
X198.12Y-184.379
X198.171Y-53.899
X198.171Y-104.14
X198.171Y-154.381
X198.171Y-204.622
X198.755Y-29.845
X198.755Y-80.086
X198.755Y-130.327
X198.755Y-180.569
X198.958Y-23.241
X198.958Y-73.482
X198.958Y-123.723
X198.958Y-173.965
X199.39Y-32.385
X199.39Y-33.655
X199.39Y-82.626
X199.39Y-83.896
X199.39Y-132.867
X199.39Y-134.137
X199.39Y-183.109
X199.39Y-184.379
X200.Y-53.899
X200.Y-104.14
X200.Y-154.381
X200.Y-204.622
X200.152Y-41.148
X200.152Y-91.389
X200.152Y-141.63
X200.152Y-191.872
X200.203Y-30.455
X200.203Y-80.696
X200.203Y-130.937
X200.203Y-181.178
X200.304Y-37.363
X200.304Y-87.605
X200.304Y-137.846
X200.304Y-188.087
X200.4Y-55.98
X200.4Y-106.221
X200.4Y-156.462
X200.4Y-206.704
X200.787Y-24.638
X200.787Y-74.879
X200.787Y-125.12
X200.787Y-175.362
X200.8Y-56.68
X200.8Y-106.921
X200.8Y-157.162
X200.8Y-207.404
X200.914Y-52.197
X200.914Y-102.438
X200.914Y-152.679
X200.914Y-202.921
X201.168Y-41.326
X201.168Y-91.567
X201.168Y-141.808
X201.168Y-192.049
X201.6Y-56.68
X201.6Y-106.921
X201.6Y-157.162
X201.6Y-207.404
X202.Y-55.98
X202.Y-106.221
X202.Y-156.462
X202.Y-206.704
X202.057Y-41.275
X202.057Y-91.516
X202.057Y-141.757
X202.057Y-191.999
X202.184Y-38.227
X202.184Y-88.468
X202.184Y-138.709
X202.184Y-188.951
X202.311Y-36.576
X202.311Y-86.817
X202.311Y-137.058
X202.311Y-187.3
X202.374Y-53.721
X202.374Y-103.962
X202.374Y-154.203
X202.374Y-204.445
X202.4Y-56.68
X202.4Y-106.921
X202.4Y-157.162
X202.4Y-207.404
X202.8Y-55.98
X202.8Y-106.221
X202.8Y-156.462
X202.8Y-206.704
X203.6Y-55.98
X203.6Y-106.221
X203.6Y-156.462
X203.6Y-206.704
X203.962Y-38.227
X203.962Y-88.468
X203.962Y-138.709
X203.962Y-188.951
X204.Y-56.68
X204.Y-106.921
X204.Y-157.162
X204.Y-207.404
X204.4Y-55.98
X204.4Y-106.221
X204.4Y-156.462
X204.4Y-206.704
X204.47Y-47.498
X204.47Y-97.739
X204.47Y-147.98
X204.47Y-198.222
X204.699Y-22.758
X204.699Y-73.
X204.699Y-123.241
X204.699Y-173.482
X204.8Y-56.68
X204.8Y-106.921
X204.8Y-157.162
X204.8Y-207.404
X205.105Y-35.687
X205.105Y-85.928
X205.105Y-136.169
X205.105Y-186.411
X205.6Y-56.68
X205.6Y-106.921
X205.6Y-157.162
X205.6Y-207.404
X206.Y-55.98
X206.Y-106.221
X206.Y-156.462
X206.Y-206.704
X206.299Y-25.857
X206.299Y-76.098
X206.299Y-126.34
X206.299Y-176.581
X207.62Y-45.136
X207.62Y-95.377
X207.62Y-145.618
X207.62Y-195.859
X208.407Y-31.75
X208.407Y-81.991
X208.407Y-132.232
X208.407Y-182.474
X209.271Y-45.187
X209.271Y-95.428
X209.271Y-145.669
X209.271Y-195.91
X222.148Y-26.111
X222.148Y-76.352
X222.148Y-126.594
X222.148Y-176.835
X225.755Y-22.225
X225.755Y-72.466
X225.755Y-122.707
X225.755Y-172.949
X226.377Y-25.209
X226.377Y-75.451
X226.377Y-125.692
X226.377Y-175.933
X226.441Y-43.18
X226.441Y-93.421
X226.441Y-143.662
X226.441Y-193.904
X226.847Y-30.048
X226.847Y-80.289
X226.847Y-130.531
X226.847Y-180.772
X227.457Y-44.704
X227.457Y-94.945
X227.457Y-145.186
X227.457Y-195.428
X227.838Y-32.385
X227.838Y-82.626
X227.838Y-132.867
X227.838Y-183.109
X229.108Y-39.243
X229.108Y-89.484
X229.108Y-139.725
X229.108Y-189.967
X229.565Y-28.118
X229.565Y-78.359
X229.565Y-128.6
X229.565Y-178.841
X230.251Y-23.368
X230.251Y-73.609
X230.251Y-123.85
X230.251Y-174.092
X230.759Y-37.211
X230.759Y-87.452
X230.759Y-137.693
X230.759Y-187.935
X231.14Y-34.29
X231.14Y-84.531
X231.14Y-134.772
X231.14Y-185.014
X231.902Y-38.227
X231.902Y-88.468
X231.902Y-138.709
X231.902Y-188.951
X232.029Y-41.148
X232.029Y-91.389
X232.029Y-141.63
X232.029Y-191.872
X232.41Y-32.385
X232.41Y-33.655
X232.41Y-82.626
X232.41Y-83.896
X232.41Y-132.867
X232.41Y-134.137
X232.41Y-183.109
X232.41Y-184.379
X232.461Y-53.899
X232.461Y-104.14
X232.461Y-154.381
X232.461Y-204.622
X233.045Y-29.845
X233.045Y-80.086
X233.045Y-130.327
X233.045Y-180.569
X233.248Y-23.241
X233.248Y-73.482
X233.248Y-123.723
X233.248Y-173.965
X233.68Y-32.385
X233.68Y-33.655
X233.68Y-82.626
X233.68Y-83.896
X233.68Y-132.867
X233.68Y-134.137
X233.68Y-183.109
X233.68Y-184.379
X234.29Y-53.899
X234.29Y-104.14
X234.29Y-154.381
X234.29Y-204.622
X234.442Y-41.148
X234.442Y-91.389
X234.442Y-141.63
X234.442Y-191.872
X234.493Y-30.455
X234.493Y-80.696
X234.493Y-130.937
X234.493Y-181.178
X234.594Y-37.363
X234.594Y-87.605
X234.594Y-137.846
X234.594Y-188.087
X234.69Y-55.98
X234.69Y-106.221
X234.69Y-156.462
X234.69Y-206.704
X235.077Y-24.638
X235.077Y-74.879
X235.077Y-125.12
X235.077Y-175.362
X235.09Y-56.68
X235.09Y-106.921
X235.09Y-157.162
X235.09Y-207.404
X235.204Y-52.197
X235.204Y-102.438
X235.204Y-152.679
X235.204Y-202.921
X235.458Y-41.326
X235.458Y-91.567
X235.458Y-141.808
X235.458Y-192.049
X235.89Y-56.68
X235.89Y-106.921
X235.89Y-157.162
X235.89Y-207.404
X236.29Y-55.98
X236.29Y-106.221
X236.29Y-156.462
X236.29Y-206.704
X236.347Y-41.275
X236.347Y-91.516
X236.347Y-141.757
X236.347Y-191.999
X236.474Y-38.227
X236.474Y-88.468
X236.474Y-138.709
X236.474Y-188.951
X236.601Y-36.576
X236.601Y-86.817
X236.601Y-137.058
X236.601Y-187.3
X236.664Y-53.721
X236.664Y-103.962
X236.664Y-154.203
X236.664Y-204.445
X236.69Y-56.68
X236.69Y-106.921
X236.69Y-157.162
X236.69Y-207.404
X237.09Y-55.98
X237.09Y-106.221
X237.09Y-156.462
X237.09Y-206.704
X237.89Y-55.98
X237.89Y-106.221
X237.89Y-156.462
X237.89Y-206.704
X238.252Y-38.227
X238.252Y-88.468
X238.252Y-138.709
X238.252Y-188.951
X238.29Y-56.68
X238.29Y-106.921
X238.29Y-157.162
X238.29Y-207.404
X238.69Y-55.98
X238.69Y-106.221
X238.69Y-156.462
X238.69Y-206.704
X238.76Y-47.498
X238.76Y-97.739
X238.76Y-147.98
X238.76Y-198.222
X238.989Y-22.758
X238.989Y-73.
X238.989Y-123.241
X238.989Y-173.482
X239.09Y-56.68
X239.09Y-106.921
X239.09Y-157.162
X239.09Y-207.404
X239.395Y-35.687
X239.395Y-85.928
X239.395Y-136.169
X239.395Y-186.411
X239.89Y-56.68
X239.89Y-106.921
X239.89Y-157.162
X239.89Y-207.404
X240.29Y-55.98
X240.29Y-106.221
X240.29Y-156.462
X240.29Y-206.704
X240.589Y-25.857
X240.589Y-76.098
X240.589Y-126.34
X240.589Y-176.581
X241.91Y-45.136
X241.91Y-95.377
X241.91Y-145.618
X241.91Y-195.859
X242.697Y-31.75
X242.697Y-81.991
X242.697Y-132.232
X242.697Y-182.474
X243.561Y-45.187
X243.561Y-95.428
X243.561Y-145.669
X243.561Y-195.91
X256.438Y-26.111
X256.438Y-76.352
X256.438Y-126.594
X256.438Y-176.835
X260.045Y-22.225
X260.045Y-72.466
X260.045Y-122.707
X260.045Y-172.949
X260.667Y-25.209
X260.667Y-75.451
X260.667Y-125.692
X260.667Y-175.933
X260.731Y-43.18
X260.731Y-93.421
X260.731Y-143.662
X260.731Y-193.904
X261.137Y-30.048
X261.137Y-80.289
X261.137Y-130.531
X261.137Y-180.772
X261.747Y-44.704
X261.747Y-94.945
X261.747Y-145.186
X261.747Y-195.428
X262.128Y-32.385
X262.128Y-82.626
X262.128Y-132.867
X262.128Y-183.109
X263.398Y-39.243
X263.398Y-89.484
X263.398Y-139.725
X263.398Y-189.967
X263.855Y-28.118
X263.855Y-78.359
X263.855Y-128.6
X263.855Y-178.841
X264.541Y-23.368
X264.541Y-73.609
X264.541Y-123.85
X264.541Y-174.092
X265.049Y-37.211
X265.049Y-87.452
X265.049Y-137.693
X265.049Y-187.935
X265.43Y-34.29
X265.43Y-84.531
X265.43Y-134.772
X265.43Y-185.014
X266.192Y-38.227
X266.192Y-88.468
X266.192Y-138.709
X266.192Y-188.951
X266.319Y-41.148
X266.319Y-91.389
X266.319Y-141.63
X266.319Y-191.872
X266.7Y-32.385
X266.7Y-33.655
X266.7Y-82.626
X266.7Y-83.896
X266.7Y-132.867
X266.7Y-134.137
X266.7Y-183.109
X266.7Y-184.379
X266.751Y-53.899
X266.751Y-104.14
X266.751Y-154.381
X266.751Y-204.622
X267.335Y-29.845
X267.335Y-80.086
X267.335Y-130.327
X267.335Y-180.569
X267.538Y-23.241
X267.538Y-73.482
X267.538Y-123.723
X267.538Y-173.965
X267.97Y-32.385
X267.97Y-33.655
X267.97Y-82.626
X267.97Y-83.896
X267.97Y-132.867
X267.97Y-134.137
X267.97Y-183.109
X267.97Y-184.379
X268.58Y-53.899
X268.58Y-104.14
X268.58Y-154.381
X268.58Y-204.622
X268.732Y-41.148
X268.732Y-91.389
X268.732Y-141.63
X268.732Y-191.872
X268.783Y-30.455
X268.783Y-80.696
X268.783Y-130.937
X268.783Y-181.178
X268.884Y-37.363
X268.884Y-87.605
X268.884Y-137.846
X268.884Y-188.087
X268.98Y-55.98
X268.98Y-106.221
X268.98Y-156.462
X268.98Y-206.704
X269.367Y-24.638
X269.367Y-74.879
X269.367Y-125.12
X269.367Y-175.362
X269.38Y-56.68
X269.38Y-106.921
X269.38Y-157.162
X269.38Y-207.404
X269.494Y-52.197
X269.494Y-102.438
X269.494Y-152.679
X269.494Y-202.921
X269.748Y-41.326
X269.748Y-91.567
X269.748Y-141.808
X269.748Y-192.049
X270.18Y-56.68
X270.18Y-106.921
X270.18Y-157.162
X270.18Y-207.404
X270.58Y-55.98
X270.58Y-106.221
X270.58Y-156.462
X270.58Y-206.704
X270.637Y-41.275
X270.637Y-91.516
X270.637Y-141.757
X270.637Y-191.999
X270.764Y-38.227
X270.764Y-88.468
X270.764Y-138.709
X270.764Y-188.951
X270.891Y-36.576
X270.891Y-86.817
X270.891Y-137.058
X270.891Y-187.3
X270.954Y-53.721
X270.954Y-103.962
X270.954Y-154.203
X270.954Y-204.445
X270.98Y-56.68
X270.98Y-106.921
X270.98Y-157.162
X270.98Y-207.404
X271.38Y-55.98
X271.38Y-106.221
X271.38Y-156.462
X271.38Y-206.704
X272.18Y-55.98
X272.18Y-106.221
X272.18Y-156.462
X272.18Y-206.704
X272.542Y-38.227
X272.542Y-88.468
X272.542Y-138.709
X272.542Y-188.951
X272.58Y-56.68
X272.58Y-106.921
X272.58Y-157.162
X272.58Y-207.404
X272.98Y-55.98
X272.98Y-106.221
X272.98Y-156.462
X272.98Y-206.704
X273.05Y-47.498
X273.05Y-97.739
X273.05Y-147.98
X273.05Y-198.222
X273.279Y-22.758
X273.279Y-73.
X273.279Y-123.241
X273.279Y-173.482
X273.38Y-56.68
X273.38Y-106.921
X273.38Y-157.162
X273.38Y-207.404
X273.685Y-35.687
X273.685Y-85.928
X273.685Y-136.169
X273.685Y-186.411
X274.18Y-56.68
X274.18Y-106.921
X274.18Y-157.162
X274.18Y-207.404
X274.58Y-55.98
X274.58Y-106.221
X274.58Y-156.462
X274.58Y-206.704
X274.879Y-25.857
X274.879Y-76.098
X274.879Y-126.34
X274.879Y-176.581
X276.2Y-45.136
X276.2Y-95.377
X276.2Y-145.618
X276.2Y-195.859
X276.987Y-31.75
X276.987Y-81.991
X276.987Y-132.232
X276.987Y-182.474
X277.851Y-45.187
X277.851Y-95.428
X277.851Y-145.669
X277.851Y-195.91
T2
X17.526Y-50.165
X17.526Y-100.406
X17.526Y-150.647
X17.526Y-200.889
X19.685Y-50.165
X19.685Y-100.406
X19.685Y-150.647
X19.685Y-200.889
X28.092Y-44.704
X28.092Y-94.945
X28.092Y-145.186
X28.092Y-195.428
X30.226Y-50.419
X30.226Y-100.66
X30.226Y-150.901
X30.226Y-201.143
X34.239Y-44.704
X34.239Y-94.945
X34.239Y-145.186
X34.239Y-195.428
X45.974Y-49.784
X45.974Y-100.025
X45.974Y-150.266
X45.974Y-200.508
X51.816Y-50.165
X51.816Y-100.406
X51.816Y-150.647
X51.816Y-200.889
X53.975Y-50.165
X53.975Y-100.406
X53.975Y-150.647
X53.975Y-200.889
X62.382Y-44.704
X62.382Y-94.945
X62.382Y-145.186
X62.382Y-195.428
X64.516Y-50.419
X64.516Y-100.66
X64.516Y-150.901
X64.516Y-201.143
X68.529Y-44.704
X68.529Y-94.945
X68.529Y-145.186
X68.529Y-195.428
X80.264Y-49.784
X80.264Y-100.025
X80.264Y-150.266
X80.264Y-200.508
X86.106Y-50.165
X86.106Y-100.406
X86.106Y-150.647
X86.106Y-200.889
X88.265Y-50.165
X88.265Y-100.406
X88.265Y-150.647
X88.265Y-200.889
X96.672Y-44.704
X96.672Y-94.945
X96.672Y-145.186
X96.672Y-195.428
X98.806Y-50.419
X98.806Y-100.66
X98.806Y-150.901
X98.806Y-201.143
X102.819Y-44.704
X102.819Y-94.945
X102.819Y-145.186
X102.819Y-195.428
X114.554Y-49.784
X114.554Y-100.025
X114.554Y-150.266
X114.554Y-200.508
X120.396Y-50.165
X120.396Y-100.406
X120.396Y-150.647
X120.396Y-200.889
X122.555Y-50.165
X122.555Y-100.406
X122.555Y-150.647
X122.555Y-200.889
X130.962Y-44.704
X130.962Y-94.945
X130.962Y-145.186
X130.962Y-195.428
X133.096Y-50.419
X133.096Y-100.66
X133.096Y-150.901
X133.096Y-201.143
X137.109Y-44.704
X137.109Y-94.945
X137.109Y-145.186
X137.109Y-195.428
X148.844Y-49.784
X148.844Y-100.025
X148.844Y-150.266
X148.844Y-200.508
X154.686Y-50.165
X154.686Y-100.406
X154.686Y-150.647
X154.686Y-200.889
X156.845Y-50.165
X156.845Y-100.406
X156.845Y-150.647
X156.845Y-200.889
X165.252Y-44.704
X165.252Y-94.945
X165.252Y-145.186
X165.252Y-195.428
X167.386Y-50.419
X167.386Y-100.66
X167.386Y-150.901
X167.386Y-201.143
X171.399Y-44.704
X171.399Y-94.945
X171.399Y-145.186
X171.399Y-195.428
X183.134Y-49.784
X183.134Y-100.025
X183.134Y-150.266
X183.134Y-200.508
X188.976Y-50.165
X188.976Y-100.406
X188.976Y-150.647
X188.976Y-200.889
X191.135Y-50.165
X191.135Y-100.406
X191.135Y-150.647
X191.135Y-200.889
X199.542Y-44.704
X199.542Y-94.945
X199.542Y-145.186
X199.542Y-195.428
X201.676Y-50.419
X201.676Y-100.66
X201.676Y-150.901
X201.676Y-201.143
X205.689Y-44.704
X205.689Y-94.945
X205.689Y-145.186
X205.689Y-195.428
X217.424Y-49.784
X217.424Y-100.025
X217.424Y-150.266
X217.424Y-200.508
X223.266Y-50.165
X223.266Y-100.406
X223.266Y-150.647
X223.266Y-200.889
X225.425Y-50.165
X225.425Y-100.406
X225.425Y-150.647
X225.425Y-200.889
X233.832Y-44.704
X233.832Y-94.945
X233.832Y-145.186
X233.832Y-195.428
X235.966Y-50.419
X235.966Y-100.66
X235.966Y-150.901
X235.966Y-201.143
X239.979Y-44.704
X239.979Y-94.945
X239.979Y-145.186
X239.979Y-195.428
X251.714Y-49.784
X251.714Y-100.025
X251.714Y-150.266
X251.714Y-200.508
X257.556Y-50.165
X257.556Y-100.406
X257.556Y-150.647
X257.556Y-200.889
X259.715Y-50.165
X259.715Y-100.406
X259.715Y-150.647
X259.715Y-200.889
X268.122Y-44.704
X268.122Y-94.945
X268.122Y-145.186
X268.122Y-195.428
X270.256Y-50.419
X270.256Y-100.66
X270.256Y-150.901
X270.256Y-201.143
X274.269Y-44.704
X274.269Y-94.945
X274.269Y-145.186
X274.269Y-195.428
X286.004Y-49.784
X286.004Y-100.025
X286.004Y-150.266
X286.004Y-200.508
T3
X17.135Y-20.728
X17.135Y-70.969
X17.135Y-121.211
X17.135Y-171.452
X19.202Y-19.253
X19.202Y-69.494
X19.202Y-119.736
X19.202Y-169.977
X21.27Y-17.778
X21.27Y-68.019
X21.27Y-118.261
X21.27Y-168.502
X42.204Y-17.753
X42.204Y-67.994
X42.204Y-118.235
X42.204Y-168.476
X44.272Y-19.228
X44.272Y-69.469
X44.272Y-119.71
X44.272Y-169.951
X46.34Y-20.703
X46.34Y-70.944
X46.34Y-121.185
X46.34Y-171.426
X51.425Y-20.728
X51.425Y-70.969
X51.425Y-121.211
X51.425Y-171.452
X53.492Y-19.253
X53.492Y-69.494
X53.492Y-119.736
X53.492Y-169.977
X55.56Y-17.778
X55.56Y-68.019
X55.56Y-118.261
X55.56Y-168.502
X76.494Y-17.753
X76.494Y-67.994
X76.494Y-118.235
X76.494Y-168.476
X78.562Y-19.228
X78.562Y-69.469
X78.562Y-119.71
X78.562Y-169.951
X80.63Y-20.703
X80.63Y-70.944
X80.63Y-121.185
X80.63Y-171.426
X85.715Y-20.728
X85.715Y-70.969
X85.715Y-121.211
X85.715Y-171.452
X87.782Y-19.253
X87.782Y-69.494
X87.782Y-119.736
X87.782Y-169.977
X89.85Y-17.778
X89.85Y-68.019
X89.85Y-118.261
X89.85Y-168.502
X110.784Y-17.753
X110.784Y-67.994
X110.784Y-118.235
X110.784Y-168.476
X112.852Y-19.228
X112.852Y-69.469
X112.852Y-119.71
X112.852Y-169.951
X114.92Y-20.703
X114.92Y-70.944
X114.92Y-121.185
X114.92Y-171.426
X120.005Y-20.728
X120.005Y-70.969
X120.005Y-121.211
X120.005Y-171.452
X122.072Y-19.253
X122.072Y-69.494
X122.072Y-119.736
X122.072Y-169.977
X124.14Y-17.778
X124.14Y-68.019
X124.14Y-118.261
X124.14Y-168.502
X145.074Y-17.753
X145.074Y-67.994
X145.074Y-118.235
X145.074Y-168.476
X147.142Y-19.228
X147.142Y-69.469
X147.142Y-119.71
X147.142Y-169.951
X149.21Y-20.703
X149.21Y-70.944
X149.21Y-121.185
X149.21Y-171.426
X154.295Y-20.728
X154.295Y-70.969
X154.295Y-121.211
X154.295Y-171.452
X156.362Y-19.253
X156.362Y-69.494
X156.362Y-119.736
X156.362Y-169.977
X158.43Y-17.778
X158.43Y-68.019
X158.43Y-118.261
X158.43Y-168.502
X179.364Y-17.753
X179.364Y-67.994
X179.364Y-118.235
X179.364Y-168.476
X181.432Y-19.228
X181.432Y-69.469
X181.432Y-119.71
X181.432Y-169.951
X183.5Y-20.703
X183.5Y-70.944
X183.5Y-121.185
X183.5Y-171.426
X188.585Y-20.728
X188.585Y-70.969
X188.585Y-121.211
X188.585Y-171.452
X190.652Y-19.253
X190.652Y-69.494
X190.652Y-119.736
X190.652Y-169.977
X192.72Y-17.778
X192.72Y-68.019
X192.72Y-118.261
X192.72Y-168.502
X213.654Y-17.753
X213.654Y-67.994
X213.654Y-118.235
X213.654Y-168.476
X215.722Y-19.228
X215.722Y-69.469
X215.722Y-119.71
X215.722Y-169.951
X217.79Y-20.703
X217.79Y-70.944
X217.79Y-121.185
X217.79Y-171.426
X222.875Y-20.728
X222.875Y-70.969
X222.875Y-121.211
X222.875Y-171.452
X224.942Y-19.253
X224.942Y-69.494
X224.942Y-119.736
X224.942Y-169.977
X227.01Y-17.778
X227.01Y-68.019
X227.01Y-118.261
X227.01Y-168.502
X247.944Y-17.753
X247.944Y-67.994
X247.944Y-118.235
X247.944Y-168.476
X250.012Y-19.228
X250.012Y-69.469
X250.012Y-119.71
X250.012Y-169.951
X252.08Y-20.703
X252.08Y-70.944
X252.08Y-121.185
X252.08Y-171.426
X257.165Y-20.728
X257.165Y-70.969
X257.165Y-121.211
X257.165Y-171.452
X259.232Y-19.253
X259.232Y-69.494
X259.232Y-119.736
X259.232Y-169.977
X261.3Y-17.778
X261.3Y-68.019
X261.3Y-118.261
X261.3Y-168.502
X282.234Y-17.753
X282.234Y-67.994
X282.234Y-118.235
X282.234Y-168.476
X284.302Y-19.228
X284.302Y-69.469
X284.302Y-119.71
X284.302Y-169.951
X286.37Y-20.703
X286.37Y-70.944
X286.37Y-121.185
X286.37Y-171.426
T4
X24.13Y-19.05
X24.13Y-69.291
X24.13Y-119.532
X24.13Y-169.774
X26.67Y-19.05
X26.67Y-69.291
X26.67Y-119.532
X26.67Y-169.774
X29.21Y-19.05
X29.21Y-69.291
X29.21Y-119.532
X29.21Y-169.774
X31.75Y-19.05
X31.75Y-69.291
X31.75Y-119.532
X31.75Y-169.774
X34.29Y-19.05
X34.29Y-69.291
X34.29Y-119.532
X34.29Y-169.774
X36.576Y-51.308
X36.576Y-101.549
X36.576Y-151.79
X36.576Y-202.032
X36.83Y-19.05
X36.83Y-69.291
X36.83Y-119.532
X36.83Y-169.774
X38.372Y-49.512
X38.372Y-99.753
X38.372Y-149.994
X38.372Y-200.236
X39.37Y-19.05
X39.37Y-69.291
X39.37Y-119.532
X39.37Y-169.774
X40.168Y-47.716
X40.168Y-97.957
X40.168Y-148.198
X40.168Y-198.439
X41.964Y-45.92
X41.964Y-96.161
X41.964Y-146.402
X41.964Y-196.643
X43.76Y-44.124
X43.76Y-94.365
X43.76Y-144.606
X43.76Y-194.847
X45.556Y-42.328
X45.556Y-92.569
X45.556Y-142.81
X45.556Y-193.051
X58.42Y-19.05
X58.42Y-69.291
X58.42Y-119.532
X58.42Y-169.774
X60.96Y-19.05
X60.96Y-69.291
X60.96Y-119.532
X60.96Y-169.774
X63.5Y-19.05
X63.5Y-69.291
X63.5Y-119.532
X63.5Y-169.774
X66.04Y-19.05
X66.04Y-69.291
X66.04Y-119.532
X66.04Y-169.774
X68.58Y-19.05
X68.58Y-69.291
X68.58Y-119.532
X68.58Y-169.774
X70.866Y-51.308
X70.866Y-101.549
X70.866Y-151.79
X70.866Y-202.032
X71.12Y-19.05
X71.12Y-69.291
X71.12Y-119.532
X71.12Y-169.774
X72.662Y-49.512
X72.662Y-99.753
X72.662Y-149.994
X72.662Y-200.236
X73.66Y-19.05
X73.66Y-69.291
X73.66Y-119.532
X73.66Y-169.774
X74.458Y-47.716
X74.458Y-97.957
X74.458Y-148.198
X74.458Y-198.439
X76.254Y-45.92
X76.254Y-96.161
X76.254Y-146.402
X76.254Y-196.643
X78.05Y-44.124
X78.05Y-94.365
X78.05Y-144.606
X78.05Y-194.847
X79.846Y-42.328
X79.846Y-92.569
X79.846Y-142.81
X79.846Y-193.051
X92.71Y-19.05
X92.71Y-69.291
X92.71Y-119.532
X92.71Y-169.774
X95.25Y-19.05
X95.25Y-69.291
X95.25Y-119.532
X95.25Y-169.774
X97.79Y-19.05
X97.79Y-69.291
X97.79Y-119.532
X97.79Y-169.774
X100.33Y-19.05
X100.33Y-69.291
X100.33Y-119.532
X100.33Y-169.774
X102.87Y-19.05
X102.87Y-69.291
X102.87Y-119.532
X102.87Y-169.774
X105.156Y-51.308
X105.156Y-101.549
X105.156Y-151.79
X105.156Y-202.032
X105.41Y-19.05
X105.41Y-69.291
X105.41Y-119.532
X105.41Y-169.774
X106.952Y-49.512
X106.952Y-99.753
X106.952Y-149.994
X106.952Y-200.236
X107.95Y-19.05
X107.95Y-69.291
X107.95Y-119.532
X107.95Y-169.774
X108.748Y-47.716
X108.748Y-97.957
X108.748Y-148.198
X108.748Y-198.439
X110.544Y-45.92
X110.544Y-96.161
X110.544Y-146.402
X110.544Y-196.643
X112.34Y-44.124
X112.34Y-94.365
X112.34Y-144.606
X112.34Y-194.847
X114.136Y-42.328
X114.136Y-92.569
X114.136Y-142.81
X114.136Y-193.051
X127.Y-19.05
X127.Y-69.291
X127.Y-119.532
X127.Y-169.774
X129.54Y-19.05
X129.54Y-69.291
X129.54Y-119.532
X129.54Y-169.774
X132.08Y-19.05
X132.08Y-69.291
X132.08Y-119.532
X132.08Y-169.774
X134.62Y-19.05
X134.62Y-69.291
X134.62Y-119.532
X134.62Y-169.774
X137.16Y-19.05
X137.16Y-69.291
X137.16Y-119.532
X137.16Y-169.774
X139.446Y-51.308
X139.446Y-101.549
X139.446Y-151.79
X139.446Y-202.032
X139.7Y-19.05
X139.7Y-69.291
X139.7Y-119.532
X139.7Y-169.774
X141.242Y-49.512
X141.242Y-99.753
X141.242Y-149.994
X141.242Y-200.236
X142.24Y-19.05
X142.24Y-69.291
X142.24Y-119.532
X142.24Y-169.774
X143.038Y-47.716
X143.038Y-97.957
X143.038Y-148.198
X143.038Y-198.439
X144.834Y-45.92
X144.834Y-96.161
X144.834Y-146.402
X144.834Y-196.643
X146.63Y-44.124
X146.63Y-94.365
X146.63Y-144.606
X146.63Y-194.847
X148.426Y-42.328
X148.426Y-92.569
X148.426Y-142.81
X148.426Y-193.051
X161.29Y-19.05
X161.29Y-69.291
X161.29Y-119.532
X161.29Y-169.774
X163.83Y-19.05
X163.83Y-69.291
X163.83Y-119.532
X163.83Y-169.774
X166.37Y-19.05
X166.37Y-69.291
X166.37Y-119.532
X166.37Y-169.774
X168.91Y-19.05
X168.91Y-69.291
X168.91Y-119.532
X168.91Y-169.774
X171.45Y-19.05
X171.45Y-69.291
X171.45Y-119.532
X171.45Y-169.774
X173.736Y-51.308
X173.736Y-101.549
X173.736Y-151.79
X173.736Y-202.032
X173.99Y-19.05
X173.99Y-69.291
X173.99Y-119.532
X173.99Y-169.774
X175.532Y-49.512
X175.532Y-99.753
X175.532Y-149.994
X175.532Y-200.236
X176.53Y-19.05
X176.53Y-69.291
X176.53Y-119.532
X176.53Y-169.774
X177.328Y-47.716
X177.328Y-97.957
X177.328Y-148.198
X177.328Y-198.439
X179.124Y-45.92
X179.124Y-96.161
X179.124Y-146.402
X179.124Y-196.643
X180.92Y-44.124
X180.92Y-94.365
X180.92Y-144.606
X180.92Y-194.847
X182.716Y-42.328
X182.716Y-92.569
X182.716Y-142.81
X182.716Y-193.051
X195.58Y-19.05
X195.58Y-69.291
X195.58Y-119.532
X195.58Y-169.774
X198.12Y-19.05
X198.12Y-69.291
X198.12Y-119.532
X198.12Y-169.774
X200.66Y-19.05
X200.66Y-69.291
X200.66Y-119.532
X200.66Y-169.774
X203.2Y-19.05
X203.2Y-69.291
X203.2Y-119.532
X203.2Y-169.774
X205.74Y-19.05
X205.74Y-69.291
X205.74Y-119.532
X205.74Y-169.774
X208.026Y-51.308
X208.026Y-101.549
X208.026Y-151.79
X208.026Y-202.032
X208.28Y-19.05
X208.28Y-69.291
X208.28Y-119.532
X208.28Y-169.774
X209.822Y-49.512
X209.822Y-99.753
X209.822Y-149.994
X209.822Y-200.236
X210.82Y-19.05
X210.82Y-69.291
X210.82Y-119.532
X210.82Y-169.774
X211.618Y-47.716
X211.618Y-97.957
X211.618Y-148.198
X211.618Y-198.439
X213.414Y-45.92
X213.414Y-96.161
X213.414Y-146.402
X213.414Y-196.643
X215.21Y-44.124
X215.21Y-94.365
X215.21Y-144.606
X215.21Y-194.847
X217.006Y-42.328
X217.006Y-92.569
X217.006Y-142.81
X217.006Y-193.051
X229.87Y-19.05
X229.87Y-69.291
X229.87Y-119.532
X229.87Y-169.774
X232.41Y-19.05
X232.41Y-69.291
X232.41Y-119.532
X232.41Y-169.774
X234.95Y-19.05
X234.95Y-69.291
X234.95Y-119.532
X234.95Y-169.774
X237.49Y-19.05
X237.49Y-69.291
X237.49Y-119.532
X237.49Y-169.774
X240.03Y-19.05
X240.03Y-69.291
X240.03Y-119.532
X240.03Y-169.774
X242.316Y-51.308
X242.316Y-101.549
X242.316Y-151.79
X242.316Y-202.032
X242.57Y-19.05
X242.57Y-69.291
X242.57Y-119.532
X242.57Y-169.774
X244.112Y-49.512
X244.112Y-99.753
X244.112Y-149.994
X244.112Y-200.236
X245.11Y-19.05
X245.11Y-69.291
X245.11Y-119.532
X245.11Y-169.774
X245.908Y-47.716
X245.908Y-97.957
X245.908Y-148.198
X245.908Y-198.439
X247.704Y-45.92
X247.704Y-96.161
X247.704Y-146.402
X247.704Y-196.643
X249.5Y-44.124
X249.5Y-94.365
X249.5Y-144.606
X249.5Y-194.847
X251.296Y-42.328
X251.296Y-92.569
X251.296Y-142.81
X251.296Y-193.051
X264.16Y-19.05
X264.16Y-69.291
X264.16Y-119.532
X264.16Y-169.774
X266.7Y-19.05
X266.7Y-69.291
X266.7Y-119.532
X266.7Y-169.774
X269.24Y-19.05
X269.24Y-69.291
X269.24Y-119.532
X269.24Y-169.774
X271.78Y-19.05
X271.78Y-69.291
X271.78Y-119.532
X271.78Y-169.774
X274.32Y-19.05
X274.32Y-69.291
X274.32Y-119.532
X274.32Y-169.774
X276.606Y-51.308
X276.606Y-101.549
X276.606Y-151.79
X276.606Y-202.032
X276.86Y-19.05
X276.86Y-69.291
X276.86Y-119.532
X276.86Y-169.774
X278.402Y-49.512
X278.402Y-99.753
X278.402Y-149.994
X278.402Y-200.236
X279.4Y-19.05
X279.4Y-69.291
X279.4Y-119.532
X279.4Y-169.774
X280.198Y-47.716
X280.198Y-97.957
X280.198Y-148.198
X280.198Y-198.439
X281.994Y-45.92
X281.994Y-96.161
X281.994Y-146.402
X281.994Y-196.643
X283.79Y-44.124
X283.79Y-94.365
X283.79Y-144.606
X283.79Y-194.847
X285.586Y-42.328
X285.586Y-92.569
X285.586Y-142.81
X285.586Y-193.051
T2
X27.26Y-62.23G85X27.26Y-62.83
G05
X27.26Y-112.471G85X27.26Y-113.071
G05
X27.26Y-162.712G85X27.26Y-163.312
G05
X27.26Y-212.954G85X27.26Y-213.554
G05
X27.62Y-56.28G85X27.62Y-56.88
G05
X27.62Y-106.521G85X27.62Y-107.121
G05
X27.62Y-156.762G85X27.62Y-157.362
G05
X27.62Y-207.004G85X27.62Y-207.604
G05
X35.88Y-56.28G85X35.88Y-56.88
G05
X35.88Y-106.521G85X35.88Y-107.121
G05
X35.88Y-156.762G85X35.88Y-157.362
G05
X35.88Y-207.004G85X35.88Y-207.604
G05
X36.24Y-62.23G85X36.24Y-62.83
G05
X36.24Y-112.471G85X36.24Y-113.071
G05
X36.24Y-162.712G85X36.24Y-163.312
G05
X36.24Y-212.954G85X36.24Y-213.554
G05
X61.55Y-62.23G85X61.55Y-62.83
G05
X61.55Y-112.471G85X61.55Y-113.071
G05
X61.55Y-162.712G85X61.55Y-163.312
G05
X61.55Y-212.954G85X61.55Y-213.554
G05
X61.91Y-56.28G85X61.91Y-56.88
G05
X61.91Y-106.521G85X61.91Y-107.121
G05
X61.91Y-156.762G85X61.91Y-157.362
G05
X61.91Y-207.004G85X61.91Y-207.604
G05
X70.17Y-56.28G85X70.17Y-56.88
G05
X70.17Y-106.521G85X70.17Y-107.121
G05
X70.17Y-156.762G85X70.17Y-157.362
G05
X70.17Y-207.004G85X70.17Y-207.604
G05
X70.53Y-62.23G85X70.53Y-62.83
G05
X70.53Y-112.471G85X70.53Y-113.071
G05
X70.53Y-162.712G85X70.53Y-163.312
G05
X70.53Y-212.954G85X70.53Y-213.554
G05
X95.84Y-62.23G85X95.84Y-62.83
G05
X95.84Y-112.471G85X95.84Y-113.071
G05
X95.84Y-162.712G85X95.84Y-163.312
G05
X95.84Y-212.954G85X95.84Y-213.554
G05
X96.2Y-56.28G85X96.2Y-56.88
G05
X96.2Y-106.521G85X96.2Y-107.121
G05
X96.2Y-156.762G85X96.2Y-157.362
G05
X96.2Y-207.004G85X96.2Y-207.604
G05
X104.46Y-56.28G85X104.46Y-56.88
G05
X104.46Y-106.521G85X104.46Y-107.121
G05
X104.46Y-156.762G85X104.46Y-157.362
G05
X104.46Y-207.004G85X104.46Y-207.604
G05
X104.82Y-62.23G85X104.82Y-62.83
G05
X104.82Y-112.471G85X104.82Y-113.071
G05
X104.82Y-162.712G85X104.82Y-163.312
G05
X104.82Y-212.954G85X104.82Y-213.554
G05
X130.13Y-62.23G85X130.13Y-62.83
G05
X130.13Y-112.471G85X130.13Y-113.071
G05
X130.13Y-162.712G85X130.13Y-163.312
G05
X130.13Y-212.954G85X130.13Y-213.554
G05
X130.49Y-56.28G85X130.49Y-56.88
G05
X130.49Y-106.521G85X130.49Y-107.121
G05
X130.49Y-156.762G85X130.49Y-157.362
G05
X130.49Y-207.004G85X130.49Y-207.604
G05
X138.75Y-56.28G85X138.75Y-56.88
G05
X138.75Y-106.521G85X138.75Y-107.121
G05
X138.75Y-156.762G85X138.75Y-157.362
G05
X138.75Y-207.004G85X138.75Y-207.604
G05
X139.11Y-62.23G85X139.11Y-62.83
G05
X139.11Y-112.471G85X139.11Y-113.071
G05
X139.11Y-162.712G85X139.11Y-163.312
G05
X139.11Y-212.954G85X139.11Y-213.554
G05
X164.42Y-62.23G85X164.42Y-62.83
G05
X164.42Y-112.471G85X164.42Y-113.071
G05
X164.42Y-162.712G85X164.42Y-163.312
G05
X164.42Y-212.954G85X164.42Y-213.554
G05
X164.78Y-56.28G85X164.78Y-56.88
G05
X164.78Y-106.521G85X164.78Y-107.121
G05
X164.78Y-156.762G85X164.78Y-157.362
G05
X164.78Y-207.004G85X164.78Y-207.604
G05
X173.04Y-56.28G85X173.04Y-56.88
G05
X173.04Y-106.521G85X173.04Y-107.121
G05
X173.04Y-156.762G85X173.04Y-157.362
G05
X173.04Y-207.004G85X173.04Y-207.604
G05
X173.4Y-62.23G85X173.4Y-62.83
G05
X173.4Y-112.471G85X173.4Y-113.071
G05
X173.4Y-162.712G85X173.4Y-163.312
G05
X173.4Y-212.954G85X173.4Y-213.554
G05
X198.71Y-62.23G85X198.71Y-62.83
G05
X198.71Y-112.471G85X198.71Y-113.071
G05
X198.71Y-162.712G85X198.71Y-163.312
G05
X198.71Y-212.954G85X198.71Y-213.554
G05
X199.07Y-56.28G85X199.07Y-56.88
G05
X199.07Y-106.521G85X199.07Y-107.121
G05
X199.07Y-156.762G85X199.07Y-157.362
G05
X199.07Y-207.004G85X199.07Y-207.604
G05
X207.33Y-56.28G85X207.33Y-56.88
G05
X207.33Y-106.521G85X207.33Y-107.121
G05
X207.33Y-156.762G85X207.33Y-157.362
G05
X207.33Y-207.004G85X207.33Y-207.604
G05
X207.69Y-62.23G85X207.69Y-62.83
G05
X207.69Y-112.471G85X207.69Y-113.071
G05
X207.69Y-162.712G85X207.69Y-163.312
G05
X207.69Y-212.954G85X207.69Y-213.554
G05
X233.Y-62.23G85X233.Y-62.83
G05
X233.Y-112.471G85X233.Y-113.071
G05
X233.Y-162.712G85X233.Y-163.312
G05
X233.Y-212.954G85X233.Y-213.554
G05
X233.36Y-56.28G85X233.36Y-56.88
G05
X233.36Y-106.521G85X233.36Y-107.121
G05
X233.36Y-156.762G85X233.36Y-157.362
G05
X233.36Y-207.004G85X233.36Y-207.604
G05
X241.62Y-56.28G85X241.62Y-56.88
G05
X241.62Y-106.521G85X241.62Y-107.121
G05
X241.62Y-156.762G85X241.62Y-157.362
G05
X241.62Y-207.004G85X241.62Y-207.604
G05
X241.98Y-62.23G85X241.98Y-62.83
G05
X241.98Y-112.471G85X241.98Y-113.071
G05
X241.98Y-162.712G85X241.98Y-163.312
G05
X241.98Y-212.954G85X241.98Y-213.554
G05
X267.29Y-62.23G85X267.29Y-62.83
G05
X267.29Y-112.471G85X267.29Y-113.071
G05
X267.29Y-162.712G85X267.29Y-163.312
G05
X267.29Y-212.954G85X267.29Y-213.554
G05
X267.65Y-56.28G85X267.65Y-56.88
G05
X267.65Y-106.521G85X267.65Y-107.121
G05
X267.65Y-156.762G85X267.65Y-157.362
G05
X267.65Y-207.004G85X267.65Y-207.604
G05
X275.91Y-56.28G85X275.91Y-56.88
G05
X275.91Y-106.521G85X275.91Y-107.121
G05
X275.91Y-156.762G85X275.91Y-157.362
G05
X275.91Y-207.004G85X275.91Y-207.604
G05
X276.27Y-62.23G85X276.27Y-62.83
G05
X276.27Y-112.471G85X276.27Y-113.071
G05
X276.27Y-162.712G85X276.27Y-163.312
G05
X276.27Y-212.954G85X276.27Y-213.554
G05
T0
M30
