G04 #@! TF.FileFunction,Other,ECO1*
%FSLAX46Y46*%
G04 Gerber Fmt 4.6, Leading zero omitted, Abs format (unit mm)*
G04 Created by KiCad (PCBNEW 4.0.6) date Fri Nov 17 13:30:40 2017*
%MOMM*%
%LPD*%
G01*
G04 APERTURE LIST*
%ADD10C,0.100000*%
%ADD11C,0.200000*%
%ADD12C,0.400000*%
%ADD13C,0.500000*%
G04 APERTURE END LIST*
D10*
D11*
X203200000Y-128270000D02*
X207010000Y-128270000D01*
X203200000Y-106680000D02*
X207010000Y-106680000D01*
X166370000Y-128270000D02*
X170180000Y-128270000D01*
X166370000Y-106680000D02*
X170180000Y-106680000D01*
X129540000Y-128270000D02*
X133350000Y-128270000D01*
X129540000Y-106680000D02*
X133350000Y-106680000D01*
X92710000Y-128270000D02*
X96520000Y-128270000D01*
X92710000Y-106680000D02*
X96520000Y-106680000D01*
X203200000Y-74930000D02*
X207010000Y-74930000D01*
X203200000Y-53340000D02*
X207010000Y-53340000D01*
X166370000Y-74930000D02*
X170180000Y-74930000D01*
X166370000Y-53340000D02*
X170180000Y-53340000D01*
X129540000Y-74930000D02*
X133350000Y-74930000D01*
X129540000Y-53340000D02*
X133350000Y-53340000D01*
X92710000Y-74930000D02*
X96520000Y-74930000D01*
X92710000Y-53340000D02*
X96520000Y-53340000D01*
D12*
X61245714Y-167364762D02*
X61721905Y-169364762D01*
X62102857Y-167936190D01*
X62483810Y-169364762D01*
X62960000Y-167364762D01*
X64483809Y-169269524D02*
X64293333Y-169364762D01*
X63912381Y-169364762D01*
X63721904Y-169269524D01*
X63626666Y-169079048D01*
X63626666Y-168317143D01*
X63721904Y-168126667D01*
X63912381Y-168031429D01*
X64293333Y-168031429D01*
X64483809Y-168126667D01*
X64579047Y-168317143D01*
X64579047Y-168507619D01*
X63626666Y-168698095D01*
X66960000Y-169364762D02*
X66960000Y-167364762D01*
X67817143Y-169364762D02*
X67817143Y-168317143D01*
X67721905Y-168126667D01*
X67531429Y-168031429D01*
X67245715Y-168031429D01*
X67055239Y-168126667D01*
X66960000Y-168221905D01*
X69531429Y-169269524D02*
X69340953Y-169364762D01*
X68960001Y-169364762D01*
X68769524Y-169269524D01*
X68674286Y-169079048D01*
X68674286Y-168317143D01*
X68769524Y-168126667D01*
X68960001Y-168031429D01*
X69340953Y-168031429D01*
X69531429Y-168126667D01*
X69626667Y-168317143D01*
X69626667Y-168507619D01*
X68674286Y-168698095D01*
X71340953Y-169364762D02*
X71340953Y-168317143D01*
X71245715Y-168126667D01*
X71055239Y-168031429D01*
X70674287Y-168031429D01*
X70483810Y-168126667D01*
X71340953Y-169269524D02*
X71150477Y-169364762D01*
X70674287Y-169364762D01*
X70483810Y-169269524D01*
X70388572Y-169079048D01*
X70388572Y-168888571D01*
X70483810Y-168698095D01*
X70674287Y-168602857D01*
X71150477Y-168602857D01*
X71340953Y-168507619D01*
X72293334Y-169364762D02*
X72293334Y-168031429D01*
X72293334Y-168412381D02*
X72388573Y-168221905D01*
X72483811Y-168126667D01*
X72674287Y-168031429D01*
X72864763Y-168031429D01*
X74388572Y-169364762D02*
X74388572Y-167364762D01*
X74388572Y-169269524D02*
X74198096Y-169364762D01*
X73817144Y-169364762D01*
X73626668Y-169269524D01*
X73531429Y-169174286D01*
X73436191Y-168983810D01*
X73436191Y-168412381D01*
X73531429Y-168221905D01*
X73626668Y-168126667D01*
X73817144Y-168031429D01*
X74198096Y-168031429D01*
X74388572Y-168126667D01*
X76579049Y-168031429D02*
X77340954Y-168031429D01*
X76864763Y-167364762D02*
X76864763Y-169079048D01*
X76960002Y-169269524D01*
X77150478Y-169364762D01*
X77340954Y-169364762D01*
X78007620Y-169364762D02*
X78007620Y-167364762D01*
X78864763Y-169364762D02*
X78864763Y-168317143D01*
X78769525Y-168126667D01*
X78579049Y-168031429D01*
X78293335Y-168031429D01*
X78102859Y-168126667D01*
X78007620Y-168221905D01*
X80674287Y-169364762D02*
X80674287Y-168317143D01*
X80579049Y-168126667D01*
X80388573Y-168031429D01*
X80007621Y-168031429D01*
X79817144Y-168126667D01*
X80674287Y-169269524D02*
X80483811Y-169364762D01*
X80007621Y-169364762D01*
X79817144Y-169269524D01*
X79721906Y-169079048D01*
X79721906Y-168888571D01*
X79817144Y-168698095D01*
X80007621Y-168602857D01*
X80483811Y-168602857D01*
X80674287Y-168507619D01*
X81340954Y-168031429D02*
X82102859Y-168031429D01*
X81626668Y-167364762D02*
X81626668Y-169079048D01*
X81721907Y-169269524D01*
X81912383Y-169364762D01*
X82102859Y-169364762D01*
X84102859Y-168031429D02*
X84579050Y-169364762D01*
X85055240Y-168031429D01*
X85817145Y-168602857D02*
X87340955Y-168602857D01*
X89150478Y-169269524D02*
X88960002Y-169364762D01*
X88579050Y-169364762D01*
X88388574Y-169269524D01*
X88293335Y-169174286D01*
X88198097Y-168983810D01*
X88198097Y-168412381D01*
X88293335Y-168221905D01*
X88388574Y-168126667D01*
X88579050Y-168031429D01*
X88960002Y-168031429D01*
X89150478Y-168126667D01*
X90864764Y-168031429D02*
X90864764Y-169364762D01*
X90007621Y-168031429D02*
X90007621Y-169079048D01*
X90102860Y-169269524D01*
X90293336Y-169364762D01*
X90579050Y-169364762D01*
X90769526Y-169269524D01*
X90864764Y-169174286D01*
X91531431Y-168031429D02*
X92293336Y-168031429D01*
X91817145Y-167364762D02*
X91817145Y-169079048D01*
X91912384Y-169269524D01*
X92102860Y-169364762D01*
X92293336Y-169364762D01*
X95340955Y-168031429D02*
X95340955Y-169650476D01*
X95245717Y-169840952D01*
X95150479Y-169936190D01*
X94960003Y-170031429D01*
X94674289Y-170031429D01*
X94483812Y-169936190D01*
X95340955Y-169269524D02*
X95150479Y-169364762D01*
X94769527Y-169364762D01*
X94579051Y-169269524D01*
X94483812Y-169174286D01*
X94388574Y-168983810D01*
X94388574Y-168412381D01*
X94483812Y-168221905D01*
X94579051Y-168126667D01*
X94769527Y-168031429D01*
X95150479Y-168031429D01*
X95340955Y-168126667D01*
X96293336Y-169364762D02*
X96293336Y-168031429D01*
X96293336Y-168412381D02*
X96388575Y-168221905D01*
X96483813Y-168126667D01*
X96674289Y-168031429D01*
X96864765Y-168031429D01*
X97817146Y-169364762D02*
X97626670Y-169269524D01*
X97531431Y-169174286D01*
X97436193Y-168983810D01*
X97436193Y-168412381D01*
X97531431Y-168221905D01*
X97626670Y-168126667D01*
X97817146Y-168031429D01*
X98102860Y-168031429D01*
X98293336Y-168126667D01*
X98388574Y-168221905D01*
X98483812Y-168412381D01*
X98483812Y-168983810D01*
X98388574Y-169174286D01*
X98293336Y-169269524D01*
X98102860Y-169364762D01*
X97817146Y-169364762D01*
X99626670Y-169364762D02*
X99436194Y-169269524D01*
X99340955Y-169174286D01*
X99245717Y-168983810D01*
X99245717Y-168412381D01*
X99340955Y-168221905D01*
X99436194Y-168126667D01*
X99626670Y-168031429D01*
X99912384Y-168031429D01*
X100102860Y-168126667D01*
X100198098Y-168221905D01*
X100293336Y-168412381D01*
X100293336Y-168983810D01*
X100198098Y-169174286D01*
X100102860Y-169269524D01*
X99912384Y-169364762D01*
X99626670Y-169364762D01*
X100960003Y-168031429D02*
X101436194Y-169364762D01*
X101912384Y-168031429D01*
X103436194Y-169269524D02*
X103245718Y-169364762D01*
X102864766Y-169364762D01*
X102674289Y-169269524D01*
X102579051Y-169079048D01*
X102579051Y-168317143D01*
X102674289Y-168126667D01*
X102864766Y-168031429D01*
X103245718Y-168031429D01*
X103436194Y-168126667D01*
X103531432Y-168317143D01*
X103531432Y-168507619D01*
X102579051Y-168698095D01*
X104293337Y-169269524D02*
X104483814Y-169364762D01*
X104864766Y-169364762D01*
X105055242Y-169269524D01*
X105150480Y-169079048D01*
X105150480Y-168983810D01*
X105055242Y-168793333D01*
X104864766Y-168698095D01*
X104579052Y-168698095D01*
X104388575Y-168602857D01*
X104293337Y-168412381D01*
X104293337Y-168317143D01*
X104388575Y-168126667D01*
X104579052Y-168031429D01*
X104864766Y-168031429D01*
X105055242Y-168126667D01*
X107531433Y-169364762D02*
X107531433Y-168031429D01*
X107531433Y-168412381D02*
X107626672Y-168221905D01*
X107721910Y-168126667D01*
X107912386Y-168031429D01*
X108102862Y-168031429D01*
X109531433Y-169269524D02*
X109340957Y-169364762D01*
X108960005Y-169364762D01*
X108769528Y-169269524D01*
X108674290Y-169079048D01*
X108674290Y-168317143D01*
X108769528Y-168126667D01*
X108960005Y-168031429D01*
X109340957Y-168031429D01*
X109531433Y-168126667D01*
X109626671Y-168317143D01*
X109626671Y-168507619D01*
X108674290Y-168698095D01*
X110388576Y-169269524D02*
X110579053Y-169364762D01*
X110960005Y-169364762D01*
X111150481Y-169269524D01*
X111245719Y-169079048D01*
X111245719Y-168983810D01*
X111150481Y-168793333D01*
X110960005Y-168698095D01*
X110674291Y-168698095D01*
X110483814Y-168602857D01*
X110388576Y-168412381D01*
X110388576Y-168317143D01*
X110483814Y-168126667D01*
X110674291Y-168031429D01*
X110960005Y-168031429D01*
X111150481Y-168126667D01*
X112960005Y-168031429D02*
X112960005Y-169364762D01*
X112102862Y-168031429D02*
X112102862Y-169079048D01*
X112198101Y-169269524D01*
X112388577Y-169364762D01*
X112674291Y-169364762D01*
X112864767Y-169269524D01*
X112960005Y-169174286D01*
X114198101Y-169364762D02*
X114007625Y-169269524D01*
X113912386Y-169079048D01*
X113912386Y-167364762D01*
X114674291Y-168031429D02*
X115436196Y-168031429D01*
X114960005Y-167364762D02*
X114960005Y-169079048D01*
X115055244Y-169269524D01*
X115245720Y-169364762D01*
X115436196Y-169364762D01*
X117626672Y-169364762D02*
X117626672Y-168031429D01*
X117626672Y-167364762D02*
X117531434Y-167460000D01*
X117626672Y-167555238D01*
X117721911Y-167460000D01*
X117626672Y-167364762D01*
X117626672Y-167555238D01*
X118579053Y-168031429D02*
X118579053Y-169364762D01*
X118579053Y-168221905D02*
X118674292Y-168126667D01*
X118864768Y-168031429D01*
X119150482Y-168031429D01*
X119340958Y-168126667D01*
X119436196Y-168317143D01*
X119436196Y-169364762D01*
X121912387Y-169364762D02*
X121912387Y-168031429D01*
X121912387Y-168412381D02*
X122007626Y-168221905D01*
X122102864Y-168126667D01*
X122293340Y-168031429D01*
X122483816Y-168031429D01*
X123436197Y-169364762D02*
X123245721Y-169269524D01*
X123150482Y-169174286D01*
X123055244Y-168983810D01*
X123055244Y-168412381D01*
X123150482Y-168221905D01*
X123245721Y-168126667D01*
X123436197Y-168031429D01*
X123721911Y-168031429D01*
X123912387Y-168126667D01*
X124007625Y-168221905D01*
X124102863Y-168412381D01*
X124102863Y-168983810D01*
X124007625Y-169174286D01*
X123912387Y-169269524D01*
X123721911Y-169364762D01*
X123436197Y-169364762D01*
X125817149Y-168031429D02*
X125817149Y-169364762D01*
X124960006Y-168031429D02*
X124960006Y-169079048D01*
X125055245Y-169269524D01*
X125245721Y-169364762D01*
X125531435Y-169364762D01*
X125721911Y-169269524D01*
X125817149Y-169174286D01*
X127626673Y-168031429D02*
X127626673Y-169650476D01*
X127531435Y-169840952D01*
X127436197Y-169936190D01*
X127245721Y-170031429D01*
X126960007Y-170031429D01*
X126769530Y-169936190D01*
X127626673Y-169269524D02*
X127436197Y-169364762D01*
X127055245Y-169364762D01*
X126864769Y-169269524D01*
X126769530Y-169174286D01*
X126674292Y-168983810D01*
X126674292Y-168412381D01*
X126769530Y-168221905D01*
X126864769Y-168126667D01*
X127055245Y-168031429D01*
X127436197Y-168031429D01*
X127626673Y-168126667D01*
X128579054Y-169364762D02*
X128579054Y-167364762D01*
X129436197Y-169364762D02*
X129436197Y-168317143D01*
X129340959Y-168126667D01*
X129150483Y-168031429D01*
X128864769Y-168031429D01*
X128674293Y-168126667D01*
X128579054Y-168221905D01*
X132674293Y-169269524D02*
X132483817Y-169364762D01*
X132102865Y-169364762D01*
X131912388Y-169269524D01*
X131817150Y-169079048D01*
X131817150Y-168317143D01*
X131912388Y-168126667D01*
X132102865Y-168031429D01*
X132483817Y-168031429D01*
X132674293Y-168126667D01*
X132769531Y-168317143D01*
X132769531Y-168507619D01*
X131817150Y-168698095D01*
X134483817Y-169364762D02*
X134483817Y-167364762D01*
X134483817Y-169269524D02*
X134293341Y-169364762D01*
X133912389Y-169364762D01*
X133721913Y-169269524D01*
X133626674Y-169174286D01*
X133531436Y-168983810D01*
X133531436Y-168412381D01*
X133626674Y-168221905D01*
X133721913Y-168126667D01*
X133912389Y-168031429D01*
X134293341Y-168031429D01*
X134483817Y-168126667D01*
X136293341Y-168031429D02*
X136293341Y-169650476D01*
X136198103Y-169840952D01*
X136102865Y-169936190D01*
X135912389Y-170031429D01*
X135626675Y-170031429D01*
X135436198Y-169936190D01*
X136293341Y-169269524D02*
X136102865Y-169364762D01*
X135721913Y-169364762D01*
X135531437Y-169269524D01*
X135436198Y-169174286D01*
X135340960Y-168983810D01*
X135340960Y-168412381D01*
X135436198Y-168221905D01*
X135531437Y-168126667D01*
X135721913Y-168031429D01*
X136102865Y-168031429D01*
X136293341Y-168126667D01*
X138007627Y-169269524D02*
X137817151Y-169364762D01*
X137436199Y-169364762D01*
X137245722Y-169269524D01*
X137150484Y-169079048D01*
X137150484Y-168317143D01*
X137245722Y-168126667D01*
X137436199Y-168031429D01*
X137817151Y-168031429D01*
X138007627Y-168126667D01*
X138102865Y-168317143D01*
X138102865Y-168507619D01*
X137150484Y-168698095D01*
X138864770Y-169269524D02*
X139055247Y-169364762D01*
X139436199Y-169364762D01*
X139626675Y-169269524D01*
X139721913Y-169079048D01*
X139721913Y-168983810D01*
X139626675Y-168793333D01*
X139436199Y-168698095D01*
X139150485Y-168698095D01*
X138960008Y-168602857D01*
X138864770Y-168412381D01*
X138864770Y-168317143D01*
X138960008Y-168126667D01*
X139150485Y-168031429D01*
X139436199Y-168031429D01*
X139626675Y-168126667D01*
X140674295Y-169269524D02*
X140674295Y-169364762D01*
X140579056Y-169555238D01*
X140483818Y-169650476D01*
X61340952Y-172669524D02*
X61531429Y-172764762D01*
X61912381Y-172764762D01*
X62102857Y-172669524D01*
X62198095Y-172479048D01*
X62198095Y-172383810D01*
X62102857Y-172193333D01*
X61912381Y-172098095D01*
X61626667Y-172098095D01*
X61436190Y-172002857D01*
X61340952Y-171812381D01*
X61340952Y-171717143D01*
X61436190Y-171526667D01*
X61626667Y-171431429D01*
X61912381Y-171431429D01*
X62102857Y-171526667D01*
X63340953Y-172764762D02*
X63150477Y-172669524D01*
X63055238Y-172574286D01*
X62960000Y-172383810D01*
X62960000Y-171812381D01*
X63055238Y-171621905D01*
X63150477Y-171526667D01*
X63340953Y-171431429D01*
X63626667Y-171431429D01*
X63817143Y-171526667D01*
X63912381Y-171621905D01*
X64007619Y-171812381D01*
X64007619Y-172383810D01*
X63912381Y-172574286D01*
X63817143Y-172669524D01*
X63626667Y-172764762D01*
X63340953Y-172764762D01*
X66198096Y-171431429D02*
X66579049Y-172764762D01*
X66960001Y-171812381D01*
X67340953Y-172764762D01*
X67721906Y-171431429D01*
X69245715Y-172669524D02*
X69055239Y-172764762D01*
X68674287Y-172764762D01*
X68483810Y-172669524D01*
X68388572Y-172479048D01*
X68388572Y-171717143D01*
X68483810Y-171526667D01*
X68674287Y-171431429D01*
X69055239Y-171431429D01*
X69245715Y-171526667D01*
X69340953Y-171717143D01*
X69340953Y-171907619D01*
X68388572Y-172098095D01*
X71721906Y-171431429D02*
X71721906Y-173431429D01*
X71721906Y-171526667D02*
X71912383Y-171431429D01*
X72293335Y-171431429D01*
X72483811Y-171526667D01*
X72579049Y-171621905D01*
X72674287Y-171812381D01*
X72674287Y-172383810D01*
X72579049Y-172574286D01*
X72483811Y-172669524D01*
X72293335Y-172764762D01*
X71912383Y-172764762D01*
X71721906Y-172669524D01*
X73531430Y-172764762D02*
X73531430Y-171431429D01*
X73531430Y-171812381D02*
X73626669Y-171621905D01*
X73721907Y-171526667D01*
X73912383Y-171431429D01*
X74102859Y-171431429D01*
X75531430Y-172669524D02*
X75340954Y-172764762D01*
X74960002Y-172764762D01*
X74769525Y-172669524D01*
X74674287Y-172479048D01*
X74674287Y-171717143D01*
X74769525Y-171526667D01*
X74960002Y-171431429D01*
X75340954Y-171431429D01*
X75531430Y-171526667D01*
X75626668Y-171717143D01*
X75626668Y-171907619D01*
X74674287Y-172098095D01*
X76198097Y-171431429D02*
X76960002Y-171431429D01*
X76483811Y-172764762D02*
X76483811Y-171050476D01*
X76579050Y-170860000D01*
X76769526Y-170764762D01*
X76960002Y-170764762D01*
X78388573Y-172669524D02*
X78198097Y-172764762D01*
X77817145Y-172764762D01*
X77626668Y-172669524D01*
X77531430Y-172479048D01*
X77531430Y-171717143D01*
X77626668Y-171526667D01*
X77817145Y-171431429D01*
X78198097Y-171431429D01*
X78388573Y-171526667D01*
X78483811Y-171717143D01*
X78483811Y-171907619D01*
X77531430Y-172098095D01*
X79340954Y-172764762D02*
X79340954Y-171431429D01*
X79340954Y-171812381D02*
X79436193Y-171621905D01*
X79531431Y-171526667D01*
X79721907Y-171431429D01*
X79912383Y-171431429D01*
X82102859Y-172764762D02*
X82102859Y-171431429D01*
X82102859Y-171621905D02*
X82198098Y-171526667D01*
X82388574Y-171431429D01*
X82674288Y-171431429D01*
X82864764Y-171526667D01*
X82960002Y-171717143D01*
X82960002Y-172764762D01*
X82960002Y-171717143D02*
X83055240Y-171526667D01*
X83245717Y-171431429D01*
X83531431Y-171431429D01*
X83721907Y-171526667D01*
X83817145Y-171717143D01*
X83817145Y-172764762D01*
X84769526Y-172764762D02*
X84769526Y-171431429D01*
X84769526Y-170764762D02*
X84674288Y-170860000D01*
X84769526Y-170955238D01*
X84864765Y-170860000D01*
X84769526Y-170764762D01*
X84769526Y-170955238D01*
X86007622Y-172764762D02*
X85817146Y-172669524D01*
X85721907Y-172479048D01*
X85721907Y-170764762D01*
X87055241Y-172764762D02*
X86864765Y-172669524D01*
X86769526Y-172479048D01*
X86769526Y-170764762D01*
X88579050Y-172669524D02*
X88388574Y-172764762D01*
X88007622Y-172764762D01*
X87817145Y-172669524D01*
X87721907Y-172479048D01*
X87721907Y-171717143D01*
X87817145Y-171526667D01*
X88007622Y-171431429D01*
X88388574Y-171431429D01*
X88579050Y-171526667D01*
X88674288Y-171717143D01*
X88674288Y-171907619D01*
X87721907Y-172098095D01*
X90388574Y-172764762D02*
X90388574Y-170764762D01*
X90388574Y-172669524D02*
X90198098Y-172764762D01*
X89817146Y-172764762D01*
X89626670Y-172669524D01*
X89531431Y-172574286D01*
X89436193Y-172383810D01*
X89436193Y-171812381D01*
X89531431Y-171621905D01*
X89626670Y-171526667D01*
X89817146Y-171431429D01*
X90198098Y-171431429D01*
X90388574Y-171526667D01*
X93626670Y-172669524D02*
X93436194Y-172764762D01*
X93055242Y-172764762D01*
X92864765Y-172669524D01*
X92769527Y-172479048D01*
X92769527Y-171717143D01*
X92864765Y-171526667D01*
X93055242Y-171431429D01*
X93436194Y-171431429D01*
X93626670Y-171526667D01*
X93721908Y-171717143D01*
X93721908Y-171907619D01*
X92769527Y-172098095D01*
X95436194Y-172764762D02*
X95436194Y-170764762D01*
X95436194Y-172669524D02*
X95245718Y-172764762D01*
X94864766Y-172764762D01*
X94674290Y-172669524D01*
X94579051Y-172574286D01*
X94483813Y-172383810D01*
X94483813Y-171812381D01*
X94579051Y-171621905D01*
X94674290Y-171526667D01*
X94864766Y-171431429D01*
X95245718Y-171431429D01*
X95436194Y-171526667D01*
X97245718Y-171431429D02*
X97245718Y-173050476D01*
X97150480Y-173240952D01*
X97055242Y-173336190D01*
X96864766Y-173431429D01*
X96579052Y-173431429D01*
X96388575Y-173336190D01*
X97245718Y-172669524D02*
X97055242Y-172764762D01*
X96674290Y-172764762D01*
X96483814Y-172669524D01*
X96388575Y-172574286D01*
X96293337Y-172383810D01*
X96293337Y-171812381D01*
X96388575Y-171621905D01*
X96483814Y-171526667D01*
X96674290Y-171431429D01*
X97055242Y-171431429D01*
X97245718Y-171526667D01*
X98960004Y-172669524D02*
X98769528Y-172764762D01*
X98388576Y-172764762D01*
X98198099Y-172669524D01*
X98102861Y-172479048D01*
X98102861Y-171717143D01*
X98198099Y-171526667D01*
X98388576Y-171431429D01*
X98769528Y-171431429D01*
X98960004Y-171526667D01*
X99055242Y-171717143D01*
X99055242Y-171907619D01*
X98102861Y-172098095D01*
X99817147Y-172669524D02*
X100007624Y-172764762D01*
X100388576Y-172764762D01*
X100579052Y-172669524D01*
X100674290Y-172479048D01*
X100674290Y-172383810D01*
X100579052Y-172193333D01*
X100388576Y-172098095D01*
X100102862Y-172098095D01*
X99912385Y-172002857D01*
X99817147Y-171812381D01*
X99817147Y-171717143D01*
X99912385Y-171526667D01*
X100102862Y-171431429D01*
X100388576Y-171431429D01*
X100579052Y-171526667D01*
X102769529Y-171431429D02*
X103531434Y-171431429D01*
X103055243Y-170764762D02*
X103055243Y-172479048D01*
X103150482Y-172669524D01*
X103340958Y-172764762D01*
X103531434Y-172764762D01*
X104483815Y-172764762D02*
X104293339Y-172669524D01*
X104198100Y-172574286D01*
X104102862Y-172383810D01*
X104102862Y-171812381D01*
X104198100Y-171621905D01*
X104293339Y-171526667D01*
X104483815Y-171431429D01*
X104769529Y-171431429D01*
X104960005Y-171526667D01*
X105055243Y-171621905D01*
X105150481Y-171812381D01*
X105150481Y-172383810D01*
X105055243Y-172574286D01*
X104960005Y-172669524D01*
X104769529Y-172764762D01*
X104483815Y-172764762D01*
X107531434Y-172764762D02*
X107531434Y-171431429D01*
X107531434Y-171621905D02*
X107626673Y-171526667D01*
X107817149Y-171431429D01*
X108102863Y-171431429D01*
X108293339Y-171526667D01*
X108388577Y-171717143D01*
X108388577Y-172764762D01*
X108388577Y-171717143D02*
X108483815Y-171526667D01*
X108674292Y-171431429D01*
X108960006Y-171431429D01*
X109150482Y-171526667D01*
X109245720Y-171717143D01*
X109245720Y-172764762D01*
X111055244Y-172764762D02*
X111055244Y-171717143D01*
X110960006Y-171526667D01*
X110769530Y-171431429D01*
X110388578Y-171431429D01*
X110198101Y-171526667D01*
X111055244Y-172669524D02*
X110864768Y-172764762D01*
X110388578Y-172764762D01*
X110198101Y-172669524D01*
X110102863Y-172479048D01*
X110102863Y-172288571D01*
X110198101Y-172098095D01*
X110388578Y-172002857D01*
X110864768Y-172002857D01*
X111055244Y-171907619D01*
X112007625Y-172764762D02*
X112007625Y-170764762D01*
X112198102Y-172002857D02*
X112769530Y-172764762D01*
X112769530Y-171431429D02*
X112007625Y-172193333D01*
X114388578Y-172669524D02*
X114198102Y-172764762D01*
X113817150Y-172764762D01*
X113626673Y-172669524D01*
X113531435Y-172479048D01*
X113531435Y-171717143D01*
X113626673Y-171526667D01*
X113817150Y-171431429D01*
X114198102Y-171431429D01*
X114388578Y-171526667D01*
X114483816Y-171717143D01*
X114483816Y-171907619D01*
X113531435Y-172098095D01*
X116579055Y-171431429D02*
X117340960Y-171431429D01*
X116864769Y-170764762D02*
X116864769Y-172479048D01*
X116960008Y-172669524D01*
X117150484Y-172764762D01*
X117340960Y-172764762D01*
X118007626Y-172764762D02*
X118007626Y-170764762D01*
X118864769Y-172764762D02*
X118864769Y-171717143D01*
X118769531Y-171526667D01*
X118579055Y-171431429D01*
X118293341Y-171431429D01*
X118102865Y-171526667D01*
X118007626Y-171621905D01*
X120579055Y-172669524D02*
X120388579Y-172764762D01*
X120007627Y-172764762D01*
X119817150Y-172669524D01*
X119721912Y-172479048D01*
X119721912Y-171717143D01*
X119817150Y-171526667D01*
X120007627Y-171431429D01*
X120388579Y-171431429D01*
X120579055Y-171526667D01*
X120674293Y-171717143D01*
X120674293Y-171907619D01*
X119721912Y-172098095D01*
X121531436Y-172764762D02*
X121531436Y-171431429D01*
X121531436Y-171621905D02*
X121626675Y-171526667D01*
X121817151Y-171431429D01*
X122102865Y-171431429D01*
X122293341Y-171526667D01*
X122388579Y-171717143D01*
X122388579Y-172764762D01*
X122388579Y-171717143D02*
X122483817Y-171526667D01*
X122674294Y-171431429D01*
X122960008Y-171431429D01*
X123150484Y-171526667D01*
X123245722Y-171717143D01*
X123245722Y-172764762D01*
X125626675Y-172669524D02*
X125817152Y-172764762D01*
X126198104Y-172764762D01*
X126388580Y-172669524D01*
X126483818Y-172479048D01*
X126483818Y-172383810D01*
X126388580Y-172193333D01*
X126198104Y-172098095D01*
X125912390Y-172098095D01*
X125721913Y-172002857D01*
X125626675Y-171812381D01*
X125626675Y-171717143D01*
X125721913Y-171526667D01*
X125912390Y-171431429D01*
X126198104Y-171431429D01*
X126388580Y-171526667D01*
X127340961Y-172764762D02*
X127340961Y-171431429D01*
X127340961Y-171621905D02*
X127436200Y-171526667D01*
X127626676Y-171431429D01*
X127912390Y-171431429D01*
X128102866Y-171526667D01*
X128198104Y-171717143D01*
X128198104Y-172764762D01*
X128198104Y-171717143D02*
X128293342Y-171526667D01*
X128483819Y-171431429D01*
X128769533Y-171431429D01*
X128960009Y-171526667D01*
X129055247Y-171717143D01*
X129055247Y-172764762D01*
X130293343Y-172764762D02*
X130102867Y-172669524D01*
X130007628Y-172574286D01*
X129912390Y-172383810D01*
X129912390Y-171812381D01*
X130007628Y-171621905D01*
X130102867Y-171526667D01*
X130293343Y-171431429D01*
X130579057Y-171431429D01*
X130769533Y-171526667D01*
X130864771Y-171621905D01*
X130960009Y-171812381D01*
X130960009Y-172383810D01*
X130864771Y-172574286D01*
X130769533Y-172669524D01*
X130579057Y-172764762D01*
X130293343Y-172764762D01*
X132102867Y-172764762D02*
X131912391Y-172669524D01*
X131817152Y-172574286D01*
X131721914Y-172383810D01*
X131721914Y-171812381D01*
X131817152Y-171621905D01*
X131912391Y-171526667D01*
X132102867Y-171431429D01*
X132388581Y-171431429D01*
X132579057Y-171526667D01*
X132674295Y-171621905D01*
X132769533Y-171812381D01*
X132769533Y-172383810D01*
X132674295Y-172574286D01*
X132579057Y-172669524D01*
X132388581Y-172764762D01*
X132102867Y-172764762D01*
X133340962Y-171431429D02*
X134102867Y-171431429D01*
X133626676Y-170764762D02*
X133626676Y-172479048D01*
X133721915Y-172669524D01*
X133912391Y-172764762D01*
X134102867Y-172764762D01*
X134769533Y-172764762D02*
X134769533Y-170764762D01*
X135626676Y-172764762D02*
X135626676Y-171717143D01*
X135531438Y-171526667D01*
X135340962Y-171431429D01*
X135055248Y-171431429D01*
X134864772Y-171526667D01*
X134769533Y-171621905D01*
X136579057Y-172574286D02*
X136674296Y-172669524D01*
X136579057Y-172764762D01*
X136483819Y-172669524D01*
X136579057Y-172574286D01*
X136579057Y-172764762D01*
X62102857Y-178517143D02*
X62388571Y-178612381D01*
X62483810Y-178707619D01*
X62579048Y-178898095D01*
X62579048Y-179183810D01*
X62483810Y-179374286D01*
X62388571Y-179469524D01*
X62198095Y-179564762D01*
X61436190Y-179564762D01*
X61436190Y-177564762D01*
X62102857Y-177564762D01*
X62293333Y-177660000D01*
X62388571Y-177755238D01*
X62483810Y-177945714D01*
X62483810Y-178136190D01*
X62388571Y-178326667D01*
X62293333Y-178421905D01*
X62102857Y-178517143D01*
X61436190Y-178517143D01*
X63436190Y-179564762D02*
X63436190Y-178231429D01*
X63436190Y-178612381D02*
X63531429Y-178421905D01*
X63626667Y-178326667D01*
X63817143Y-178231429D01*
X64007619Y-178231429D01*
X65436190Y-179469524D02*
X65245714Y-179564762D01*
X64864762Y-179564762D01*
X64674285Y-179469524D01*
X64579047Y-179279048D01*
X64579047Y-178517143D01*
X64674285Y-178326667D01*
X64864762Y-178231429D01*
X65245714Y-178231429D01*
X65436190Y-178326667D01*
X65531428Y-178517143D01*
X65531428Y-178707619D01*
X64579047Y-178898095D01*
X67245714Y-179564762D02*
X67245714Y-178517143D01*
X67150476Y-178326667D01*
X66960000Y-178231429D01*
X66579048Y-178231429D01*
X66388571Y-178326667D01*
X67245714Y-179469524D02*
X67055238Y-179564762D01*
X66579048Y-179564762D01*
X66388571Y-179469524D01*
X66293333Y-179279048D01*
X66293333Y-179088571D01*
X66388571Y-178898095D01*
X66579048Y-178802857D01*
X67055238Y-178802857D01*
X67245714Y-178707619D01*
X68198095Y-179564762D02*
X68198095Y-177564762D01*
X68388572Y-178802857D02*
X68960000Y-179564762D01*
X68960000Y-178231429D02*
X68198095Y-178993333D01*
X70674286Y-179564762D02*
X70674286Y-178517143D01*
X70579048Y-178326667D01*
X70388572Y-178231429D01*
X70007620Y-178231429D01*
X69817143Y-178326667D01*
X70674286Y-179469524D02*
X70483810Y-179564762D01*
X70007620Y-179564762D01*
X69817143Y-179469524D01*
X69721905Y-179279048D01*
X69721905Y-179088571D01*
X69817143Y-178898095D01*
X70007620Y-178802857D01*
X70483810Y-178802857D01*
X70674286Y-178707619D01*
X71436191Y-178231429D02*
X71817144Y-179564762D01*
X72198096Y-178612381D01*
X72579048Y-179564762D01*
X72960001Y-178231429D01*
X74579048Y-179564762D02*
X74579048Y-178517143D01*
X74483810Y-178326667D01*
X74293334Y-178231429D01*
X73912382Y-178231429D01*
X73721905Y-178326667D01*
X74579048Y-179469524D02*
X74388572Y-179564762D01*
X73912382Y-179564762D01*
X73721905Y-179469524D01*
X73626667Y-179279048D01*
X73626667Y-179088571D01*
X73721905Y-178898095D01*
X73912382Y-178802857D01*
X74388572Y-178802857D01*
X74579048Y-178707619D01*
X75340953Y-178231429D02*
X75817144Y-179564762D01*
X76293334Y-178231429D02*
X75817144Y-179564762D01*
X75626668Y-180040952D01*
X75531429Y-180136190D01*
X75340953Y-180231429D01*
X78293335Y-178231429D02*
X79055240Y-178231429D01*
X78579049Y-177564762D02*
X78579049Y-179279048D01*
X78674288Y-179469524D01*
X78864764Y-179564762D01*
X79055240Y-179564762D01*
X80579049Y-179564762D02*
X80579049Y-178517143D01*
X80483811Y-178326667D01*
X80293335Y-178231429D01*
X79912383Y-178231429D01*
X79721906Y-178326667D01*
X80579049Y-179469524D02*
X80388573Y-179564762D01*
X79912383Y-179564762D01*
X79721906Y-179469524D01*
X79626668Y-179279048D01*
X79626668Y-179088571D01*
X79721906Y-178898095D01*
X79912383Y-178802857D01*
X80388573Y-178802857D01*
X80579049Y-178707619D01*
X81531430Y-179564762D02*
X81531430Y-177564762D01*
X81531430Y-178326667D02*
X81721907Y-178231429D01*
X82102859Y-178231429D01*
X82293335Y-178326667D01*
X82388573Y-178421905D01*
X82483811Y-178612381D01*
X82483811Y-179183810D01*
X82388573Y-179374286D01*
X82293335Y-179469524D01*
X82102859Y-179564762D01*
X81721907Y-179564762D01*
X81531430Y-179469524D01*
X83245716Y-179469524D02*
X83436193Y-179564762D01*
X83817145Y-179564762D01*
X84007621Y-179469524D01*
X84102859Y-179279048D01*
X84102859Y-179183810D01*
X84007621Y-178993333D01*
X83817145Y-178898095D01*
X83531431Y-178898095D01*
X83340954Y-178802857D01*
X83245716Y-178612381D01*
X83245716Y-178517143D01*
X83340954Y-178326667D01*
X83531431Y-178231429D01*
X83817145Y-178231429D01*
X84007621Y-178326667D01*
X86293336Y-178231429D02*
X86674289Y-179564762D01*
X87055241Y-178612381D01*
X87436193Y-179564762D01*
X87817146Y-178231429D01*
X88579050Y-179564762D02*
X88579050Y-178231429D01*
X88579050Y-177564762D02*
X88483812Y-177660000D01*
X88579050Y-177755238D01*
X88674289Y-177660000D01*
X88579050Y-177564762D01*
X88579050Y-177755238D01*
X89245717Y-178231429D02*
X90007622Y-178231429D01*
X89531431Y-177564762D02*
X89531431Y-179279048D01*
X89626670Y-179469524D01*
X89817146Y-179564762D01*
X90007622Y-179564762D01*
X90674288Y-179564762D02*
X90674288Y-177564762D01*
X91531431Y-179564762D02*
X91531431Y-178517143D01*
X91436193Y-178326667D01*
X91245717Y-178231429D01*
X90960003Y-178231429D01*
X90769527Y-178326667D01*
X90674288Y-178421905D01*
X94007622Y-179564762D02*
X94007622Y-178231429D01*
X94007622Y-178421905D02*
X94102861Y-178326667D01*
X94293337Y-178231429D01*
X94579051Y-178231429D01*
X94769527Y-178326667D01*
X94864765Y-178517143D01*
X94864765Y-179564762D01*
X94864765Y-178517143D02*
X94960003Y-178326667D01*
X95150480Y-178231429D01*
X95436194Y-178231429D01*
X95626670Y-178326667D01*
X95721908Y-178517143D01*
X95721908Y-179564762D01*
X96960004Y-179564762D02*
X96769528Y-179469524D01*
X96674289Y-179374286D01*
X96579051Y-179183810D01*
X96579051Y-178612381D01*
X96674289Y-178421905D01*
X96769528Y-178326667D01*
X96960004Y-178231429D01*
X97245718Y-178231429D01*
X97436194Y-178326667D01*
X97531432Y-178421905D01*
X97626670Y-178612381D01*
X97626670Y-179183810D01*
X97531432Y-179374286D01*
X97436194Y-179469524D01*
X97245718Y-179564762D01*
X96960004Y-179564762D01*
X99340956Y-178231429D02*
X99340956Y-179564762D01*
X98483813Y-178231429D02*
X98483813Y-179279048D01*
X98579052Y-179469524D01*
X98769528Y-179564762D01*
X99055242Y-179564762D01*
X99245718Y-179469524D01*
X99340956Y-179374286D01*
X100198099Y-179469524D02*
X100388576Y-179564762D01*
X100769528Y-179564762D01*
X100960004Y-179469524D01*
X101055242Y-179279048D01*
X101055242Y-179183810D01*
X100960004Y-178993333D01*
X100769528Y-178898095D01*
X100483814Y-178898095D01*
X100293337Y-178802857D01*
X100198099Y-178612381D01*
X100198099Y-178517143D01*
X100293337Y-178326667D01*
X100483814Y-178231429D01*
X100769528Y-178231429D01*
X100960004Y-178326667D01*
X102674290Y-179469524D02*
X102483814Y-179564762D01*
X102102862Y-179564762D01*
X101912385Y-179469524D01*
X101817147Y-179279048D01*
X101817147Y-178517143D01*
X101912385Y-178326667D01*
X102102862Y-178231429D01*
X102483814Y-178231429D01*
X102674290Y-178326667D01*
X102769528Y-178517143D01*
X102769528Y-178707619D01*
X101817147Y-178898095D01*
X103626671Y-179564762D02*
X103626671Y-177564762D01*
X103626671Y-178326667D02*
X103817148Y-178231429D01*
X104198100Y-178231429D01*
X104388576Y-178326667D01*
X104483814Y-178421905D01*
X104579052Y-178612381D01*
X104579052Y-179183810D01*
X104483814Y-179374286D01*
X104388576Y-179469524D01*
X104198100Y-179564762D01*
X103817148Y-179564762D01*
X103626671Y-179469524D01*
X105436195Y-179564762D02*
X105436195Y-178231429D01*
X105436195Y-177564762D02*
X105340957Y-177660000D01*
X105436195Y-177755238D01*
X105531434Y-177660000D01*
X105436195Y-177564762D01*
X105436195Y-177755238D01*
X106102862Y-178231429D02*
X106864767Y-178231429D01*
X106388576Y-177564762D02*
X106388576Y-179279048D01*
X106483815Y-179469524D01*
X106674291Y-179564762D01*
X106864767Y-179564762D01*
X108293338Y-179469524D02*
X108102862Y-179564762D01*
X107721910Y-179564762D01*
X107531433Y-179469524D01*
X107436195Y-179279048D01*
X107436195Y-178517143D01*
X107531433Y-178326667D01*
X107721910Y-178231429D01*
X108102862Y-178231429D01*
X108293338Y-178326667D01*
X108388576Y-178517143D01*
X108388576Y-178707619D01*
X107436195Y-178898095D01*
X109150481Y-179469524D02*
X109340958Y-179564762D01*
X109721910Y-179564762D01*
X109912386Y-179469524D01*
X110007624Y-179279048D01*
X110007624Y-179183810D01*
X109912386Y-178993333D01*
X109721910Y-178898095D01*
X109436196Y-178898095D01*
X109245719Y-178802857D01*
X109150481Y-178612381D01*
X109150481Y-178517143D01*
X109245719Y-178326667D01*
X109436196Y-178231429D01*
X109721910Y-178231429D01*
X109912386Y-178326667D01*
X112960006Y-180326667D02*
X112864768Y-180231429D01*
X112674292Y-179945714D01*
X112579054Y-179755238D01*
X112483816Y-179469524D01*
X112388577Y-178993333D01*
X112388577Y-178612381D01*
X112483816Y-178136190D01*
X112579054Y-177850476D01*
X112674292Y-177660000D01*
X112864768Y-177374286D01*
X112960006Y-177279048D01*
X113721910Y-179564762D02*
X113721910Y-178231429D01*
X113721910Y-177564762D02*
X113626672Y-177660000D01*
X113721910Y-177755238D01*
X113817149Y-177660000D01*
X113721910Y-177564762D01*
X113721910Y-177755238D01*
X114674291Y-178231429D02*
X114674291Y-179564762D01*
X114674291Y-178421905D02*
X114769530Y-178326667D01*
X114960006Y-178231429D01*
X115245720Y-178231429D01*
X115436196Y-178326667D01*
X115531434Y-178517143D01*
X115531434Y-179564762D01*
X118007625Y-179564762D02*
X118007625Y-177564762D01*
X118007625Y-178326667D02*
X118198102Y-178231429D01*
X118579054Y-178231429D01*
X118769530Y-178326667D01*
X118864768Y-178421905D01*
X118960006Y-178612381D01*
X118960006Y-179183810D01*
X118864768Y-179374286D01*
X118769530Y-179469524D01*
X118579054Y-179564762D01*
X118198102Y-179564762D01*
X118007625Y-179469524D01*
X120579054Y-179469524D02*
X120388578Y-179564762D01*
X120007626Y-179564762D01*
X119817149Y-179469524D01*
X119721911Y-179279048D01*
X119721911Y-178517143D01*
X119817149Y-178326667D01*
X120007626Y-178231429D01*
X120388578Y-178231429D01*
X120579054Y-178326667D01*
X120674292Y-178517143D01*
X120674292Y-178707619D01*
X119721911Y-178898095D01*
X121245721Y-178231429D02*
X122007626Y-178231429D01*
X121531435Y-177564762D02*
X121531435Y-179279048D01*
X121626674Y-179469524D01*
X121817150Y-179564762D01*
X122007626Y-179564762D01*
X122483816Y-178231429D02*
X122864769Y-179564762D01*
X123245721Y-178612381D01*
X123626673Y-179564762D01*
X124007626Y-178231429D01*
X125531435Y-179469524D02*
X125340959Y-179564762D01*
X124960007Y-179564762D01*
X124769530Y-179469524D01*
X124674292Y-179279048D01*
X124674292Y-178517143D01*
X124769530Y-178326667D01*
X124960007Y-178231429D01*
X125340959Y-178231429D01*
X125531435Y-178326667D01*
X125626673Y-178517143D01*
X125626673Y-178707619D01*
X124674292Y-178898095D01*
X127245721Y-179469524D02*
X127055245Y-179564762D01*
X126674293Y-179564762D01*
X126483816Y-179469524D01*
X126388578Y-179279048D01*
X126388578Y-178517143D01*
X126483816Y-178326667D01*
X126674293Y-178231429D01*
X127055245Y-178231429D01*
X127245721Y-178326667D01*
X127340959Y-178517143D01*
X127340959Y-178707619D01*
X126388578Y-178898095D01*
X128198102Y-178231429D02*
X128198102Y-179564762D01*
X128198102Y-178421905D02*
X128293341Y-178326667D01*
X128483817Y-178231429D01*
X128769531Y-178231429D01*
X128960007Y-178326667D01*
X129055245Y-178517143D01*
X129055245Y-179564762D01*
X131531436Y-179564762D02*
X131531436Y-177564762D01*
X131531436Y-178326667D02*
X131721913Y-178231429D01*
X132102865Y-178231429D01*
X132293341Y-178326667D01*
X132388579Y-178421905D01*
X132483817Y-178612381D01*
X132483817Y-179183810D01*
X132388579Y-179374286D01*
X132293341Y-179469524D01*
X132102865Y-179564762D01*
X131721913Y-179564762D01*
X131531436Y-179469524D01*
X133626675Y-179564762D02*
X133436199Y-179469524D01*
X133340960Y-179374286D01*
X133245722Y-179183810D01*
X133245722Y-178612381D01*
X133340960Y-178421905D01*
X133436199Y-178326667D01*
X133626675Y-178231429D01*
X133912389Y-178231429D01*
X134102865Y-178326667D01*
X134198103Y-178421905D01*
X134293341Y-178612381D01*
X134293341Y-179183810D01*
X134198103Y-179374286D01*
X134102865Y-179469524D01*
X133912389Y-179564762D01*
X133626675Y-179564762D01*
X136007627Y-179564762D02*
X136007627Y-178517143D01*
X135912389Y-178326667D01*
X135721913Y-178231429D01*
X135340961Y-178231429D01*
X135150484Y-178326667D01*
X136007627Y-179469524D02*
X135817151Y-179564762D01*
X135340961Y-179564762D01*
X135150484Y-179469524D01*
X135055246Y-179279048D01*
X135055246Y-179088571D01*
X135150484Y-178898095D01*
X135340961Y-178802857D01*
X135817151Y-178802857D01*
X136007627Y-178707619D01*
X136960008Y-179564762D02*
X136960008Y-178231429D01*
X136960008Y-178612381D02*
X137055247Y-178421905D01*
X137150485Y-178326667D01*
X137340961Y-178231429D01*
X137531437Y-178231429D01*
X139055246Y-179564762D02*
X139055246Y-177564762D01*
X139055246Y-179469524D02*
X138864770Y-179564762D01*
X138483818Y-179564762D01*
X138293342Y-179469524D01*
X138198103Y-179374286D01*
X138102865Y-179183810D01*
X138102865Y-178612381D01*
X138198103Y-178421905D01*
X138293342Y-178326667D01*
X138483818Y-178231429D01*
X138864770Y-178231429D01*
X139055246Y-178326667D01*
X139912389Y-179469524D02*
X140102866Y-179564762D01*
X140483818Y-179564762D01*
X140674294Y-179469524D01*
X140769532Y-179279048D01*
X140769532Y-179183810D01*
X140674294Y-178993333D01*
X140483818Y-178898095D01*
X140198104Y-178898095D01*
X140007627Y-178802857D01*
X139912389Y-178612381D01*
X139912389Y-178517143D01*
X140007627Y-178326667D01*
X140198104Y-178231429D01*
X140483818Y-178231429D01*
X140674294Y-178326667D01*
X141436199Y-180326667D02*
X141531437Y-180231429D01*
X141721914Y-179945714D01*
X141817152Y-179755238D01*
X141912390Y-179469524D01*
X142007628Y-178993333D01*
X142007628Y-178612381D01*
X141912390Y-178136190D01*
X141817152Y-177850476D01*
X141721914Y-177660000D01*
X141531437Y-177374286D01*
X141436199Y-177279048D01*
X144388580Y-179469524D02*
X144579057Y-179564762D01*
X144960009Y-179564762D01*
X145150485Y-179469524D01*
X145245723Y-179279048D01*
X145245723Y-179183810D01*
X145150485Y-178993333D01*
X144960009Y-178898095D01*
X144674295Y-178898095D01*
X144483818Y-178802857D01*
X144388580Y-178612381D01*
X144388580Y-178517143D01*
X144483818Y-178326667D01*
X144674295Y-178231429D01*
X144960009Y-178231429D01*
X145150485Y-178326667D01*
X146102866Y-179564762D02*
X146102866Y-177564762D01*
X146960009Y-179564762D02*
X146960009Y-178517143D01*
X146864771Y-178326667D01*
X146674295Y-178231429D01*
X146388581Y-178231429D01*
X146198105Y-178326667D01*
X146102866Y-178421905D01*
X148198105Y-179564762D02*
X148007629Y-179469524D01*
X147912390Y-179374286D01*
X147817152Y-179183810D01*
X147817152Y-178612381D01*
X147912390Y-178421905D01*
X148007629Y-178326667D01*
X148198105Y-178231429D01*
X148483819Y-178231429D01*
X148674295Y-178326667D01*
X148769533Y-178421905D01*
X148864771Y-178612381D01*
X148864771Y-179183810D01*
X148769533Y-179374286D01*
X148674295Y-179469524D01*
X148483819Y-179564762D01*
X148198105Y-179564762D01*
X150579057Y-178231429D02*
X150579057Y-179564762D01*
X149721914Y-178231429D02*
X149721914Y-179279048D01*
X149817153Y-179469524D01*
X150007629Y-179564762D01*
X150293343Y-179564762D01*
X150483819Y-179469524D01*
X150579057Y-179374286D01*
X151817153Y-179564762D02*
X151626677Y-179469524D01*
X151531438Y-179279048D01*
X151531438Y-177564762D01*
X153436200Y-179564762D02*
X153436200Y-177564762D01*
X153436200Y-179469524D02*
X153245724Y-179564762D01*
X152864772Y-179564762D01*
X152674296Y-179469524D01*
X152579057Y-179374286D01*
X152483819Y-179183810D01*
X152483819Y-178612381D01*
X152579057Y-178421905D01*
X152674296Y-178326667D01*
X152864772Y-178231429D01*
X153245724Y-178231429D01*
X153436200Y-178326667D01*
X62293333Y-182964762D02*
X62293333Y-181917143D01*
X62198095Y-181726667D01*
X62007619Y-181631429D01*
X61626667Y-181631429D01*
X61436190Y-181726667D01*
X62293333Y-182869524D02*
X62102857Y-182964762D01*
X61626667Y-182964762D01*
X61436190Y-182869524D01*
X61340952Y-182679048D01*
X61340952Y-182488571D01*
X61436190Y-182298095D01*
X61626667Y-182202857D01*
X62102857Y-182202857D01*
X62293333Y-182107619D01*
X63531429Y-182964762D02*
X63340953Y-182869524D01*
X63245714Y-182679048D01*
X63245714Y-180964762D01*
X64579048Y-182964762D02*
X64388572Y-182869524D01*
X64293333Y-182679048D01*
X64293333Y-180964762D01*
X65626667Y-182964762D02*
X65436191Y-182869524D01*
X65340952Y-182774286D01*
X65245714Y-182583810D01*
X65245714Y-182012381D01*
X65340952Y-181821905D01*
X65436191Y-181726667D01*
X65626667Y-181631429D01*
X65912381Y-181631429D01*
X66102857Y-181726667D01*
X66198095Y-181821905D01*
X66293333Y-182012381D01*
X66293333Y-182583810D01*
X66198095Y-182774286D01*
X66102857Y-182869524D01*
X65912381Y-182964762D01*
X65626667Y-182964762D01*
X66960000Y-181631429D02*
X67340953Y-182964762D01*
X67721905Y-182012381D01*
X68102857Y-182964762D01*
X68483810Y-181631429D01*
X71531429Y-182869524D02*
X71340953Y-182964762D01*
X70960001Y-182964762D01*
X70769524Y-182869524D01*
X70674286Y-182679048D01*
X70674286Y-181917143D01*
X70769524Y-181726667D01*
X70960001Y-181631429D01*
X71340953Y-181631429D01*
X71531429Y-181726667D01*
X71626667Y-181917143D01*
X71626667Y-182107619D01*
X70674286Y-182298095D01*
X73340953Y-182964762D02*
X73340953Y-181917143D01*
X73245715Y-181726667D01*
X73055239Y-181631429D01*
X72674287Y-181631429D01*
X72483810Y-181726667D01*
X73340953Y-182869524D02*
X73150477Y-182964762D01*
X72674287Y-182964762D01*
X72483810Y-182869524D01*
X72388572Y-182679048D01*
X72388572Y-182488571D01*
X72483810Y-182298095D01*
X72674287Y-182202857D01*
X73150477Y-182202857D01*
X73340953Y-182107619D01*
X75150477Y-182869524D02*
X74960001Y-182964762D01*
X74579049Y-182964762D01*
X74388573Y-182869524D01*
X74293334Y-182774286D01*
X74198096Y-182583810D01*
X74198096Y-182012381D01*
X74293334Y-181821905D01*
X74388573Y-181726667D01*
X74579049Y-181631429D01*
X74960001Y-181631429D01*
X75150477Y-181726667D01*
X76007620Y-182964762D02*
X76007620Y-180964762D01*
X76864763Y-182964762D02*
X76864763Y-181917143D01*
X76769525Y-181726667D01*
X76579049Y-181631429D01*
X76293335Y-181631429D01*
X76102859Y-181726667D01*
X76007620Y-181821905D01*
X79340954Y-182964762D02*
X79340954Y-180964762D01*
X80102859Y-180964762D01*
X80293335Y-181060000D01*
X80388574Y-181155238D01*
X80483812Y-181345714D01*
X80483812Y-181631429D01*
X80388574Y-181821905D01*
X80293335Y-181917143D01*
X80102859Y-182012381D01*
X79340954Y-182012381D01*
X82483812Y-182774286D02*
X82388574Y-182869524D01*
X82102859Y-182964762D01*
X81912383Y-182964762D01*
X81626669Y-182869524D01*
X81436193Y-182679048D01*
X81340954Y-182488571D01*
X81245716Y-182107619D01*
X81245716Y-181821905D01*
X81340954Y-181440952D01*
X81436193Y-181250476D01*
X81626669Y-181060000D01*
X81912383Y-180964762D01*
X82102859Y-180964762D01*
X82388574Y-181060000D01*
X82483812Y-181155238D01*
X84007621Y-181917143D02*
X84293335Y-182012381D01*
X84388574Y-182107619D01*
X84483812Y-182298095D01*
X84483812Y-182583810D01*
X84388574Y-182774286D01*
X84293335Y-182869524D01*
X84102859Y-182964762D01*
X83340954Y-182964762D01*
X83340954Y-180964762D01*
X84007621Y-180964762D01*
X84198097Y-181060000D01*
X84293335Y-181155238D01*
X84388574Y-181345714D01*
X84388574Y-181536190D01*
X84293335Y-181726667D01*
X84198097Y-181821905D01*
X84007621Y-181917143D01*
X83340954Y-181917143D01*
X86579050Y-181631429D02*
X87340955Y-181631429D01*
X86864764Y-180964762D02*
X86864764Y-182679048D01*
X86960003Y-182869524D01*
X87150479Y-182964762D01*
X87340955Y-182964762D01*
X88293336Y-182964762D02*
X88102860Y-182869524D01*
X88007621Y-182774286D01*
X87912383Y-182583810D01*
X87912383Y-182012381D01*
X88007621Y-181821905D01*
X88102860Y-181726667D01*
X88293336Y-181631429D01*
X88579050Y-181631429D01*
X88769526Y-181726667D01*
X88864764Y-181821905D01*
X88960002Y-182012381D01*
X88960002Y-182583810D01*
X88864764Y-182774286D01*
X88769526Y-182869524D01*
X88579050Y-182964762D01*
X88293336Y-182964762D01*
X91340955Y-182964762D02*
X91340955Y-180964762D01*
X91340955Y-181726667D02*
X91531432Y-181631429D01*
X91912384Y-181631429D01*
X92102860Y-181726667D01*
X92198098Y-181821905D01*
X92293336Y-182012381D01*
X92293336Y-182583810D01*
X92198098Y-182774286D01*
X92102860Y-182869524D01*
X91912384Y-182964762D01*
X91531432Y-182964762D01*
X91340955Y-182869524D01*
X93912384Y-182869524D02*
X93721908Y-182964762D01*
X93340956Y-182964762D01*
X93150479Y-182869524D01*
X93055241Y-182679048D01*
X93055241Y-181917143D01*
X93150479Y-181726667D01*
X93340956Y-181631429D01*
X93721908Y-181631429D01*
X93912384Y-181726667D01*
X94007622Y-181917143D01*
X94007622Y-182107619D01*
X93055241Y-182298095D01*
X96293337Y-182869524D02*
X96483814Y-182964762D01*
X96864766Y-182964762D01*
X97055242Y-182869524D01*
X97150480Y-182679048D01*
X97150480Y-182583810D01*
X97055242Y-182393333D01*
X96864766Y-182298095D01*
X96579052Y-182298095D01*
X96388575Y-182202857D01*
X96293337Y-182012381D01*
X96293337Y-181917143D01*
X96388575Y-181726667D01*
X96579052Y-181631429D01*
X96864766Y-181631429D01*
X97055242Y-181726667D01*
X98769528Y-182869524D02*
X98579052Y-182964762D01*
X98198100Y-182964762D01*
X98007623Y-182869524D01*
X97912385Y-182679048D01*
X97912385Y-181917143D01*
X98007623Y-181726667D01*
X98198100Y-181631429D01*
X98579052Y-181631429D01*
X98769528Y-181726667D01*
X98864766Y-181917143D01*
X98864766Y-182107619D01*
X97912385Y-182298095D01*
X99721909Y-181631429D02*
X99721909Y-183631429D01*
X99721909Y-181726667D02*
X99912386Y-181631429D01*
X100293338Y-181631429D01*
X100483814Y-181726667D01*
X100579052Y-181821905D01*
X100674290Y-182012381D01*
X100674290Y-182583810D01*
X100579052Y-182774286D01*
X100483814Y-182869524D01*
X100293338Y-182964762D01*
X99912386Y-182964762D01*
X99721909Y-182869524D01*
X102388576Y-182964762D02*
X102388576Y-181917143D01*
X102293338Y-181726667D01*
X102102862Y-181631429D01*
X101721910Y-181631429D01*
X101531433Y-181726667D01*
X102388576Y-182869524D02*
X102198100Y-182964762D01*
X101721910Y-182964762D01*
X101531433Y-182869524D01*
X101436195Y-182679048D01*
X101436195Y-182488571D01*
X101531433Y-182298095D01*
X101721910Y-182202857D01*
X102198100Y-182202857D01*
X102388576Y-182107619D01*
X103340957Y-182964762D02*
X103340957Y-181631429D01*
X103340957Y-182012381D02*
X103436196Y-181821905D01*
X103531434Y-181726667D01*
X103721910Y-181631429D01*
X103912386Y-181631429D01*
X105436195Y-182964762D02*
X105436195Y-181917143D01*
X105340957Y-181726667D01*
X105150481Y-181631429D01*
X104769529Y-181631429D01*
X104579052Y-181726667D01*
X105436195Y-182869524D02*
X105245719Y-182964762D01*
X104769529Y-182964762D01*
X104579052Y-182869524D01*
X104483814Y-182679048D01*
X104483814Y-182488571D01*
X104579052Y-182298095D01*
X104769529Y-182202857D01*
X105245719Y-182202857D01*
X105436195Y-182107619D01*
X106102862Y-181631429D02*
X106864767Y-181631429D01*
X106388576Y-180964762D02*
X106388576Y-182679048D01*
X106483815Y-182869524D01*
X106674291Y-182964762D01*
X106864767Y-182964762D01*
X108293338Y-182869524D02*
X108102862Y-182964762D01*
X107721910Y-182964762D01*
X107531433Y-182869524D01*
X107436195Y-182679048D01*
X107436195Y-181917143D01*
X107531433Y-181726667D01*
X107721910Y-181631429D01*
X108102862Y-181631429D01*
X108293338Y-181726667D01*
X108388576Y-181917143D01*
X108388576Y-182107619D01*
X107436195Y-182298095D01*
X109531434Y-182964762D02*
X109340958Y-182869524D01*
X109245719Y-182679048D01*
X109245719Y-180964762D01*
X110102862Y-181631429D02*
X110579053Y-182964762D01*
X111055243Y-181631429D02*
X110579053Y-182964762D01*
X110388577Y-183440952D01*
X110293338Y-183536190D01*
X110102862Y-183631429D01*
X113245720Y-182869524D02*
X113436197Y-182964762D01*
X113817149Y-182964762D01*
X114007625Y-182869524D01*
X114102863Y-182679048D01*
X114102863Y-182583810D01*
X114007625Y-182393333D01*
X113817149Y-182298095D01*
X113531435Y-182298095D01*
X113340958Y-182202857D01*
X113245720Y-182012381D01*
X113245720Y-181917143D01*
X113340958Y-181726667D01*
X113531435Y-181631429D01*
X113817149Y-181631429D01*
X114007625Y-181726667D01*
X114960006Y-181631429D02*
X114960006Y-182964762D01*
X114960006Y-181821905D02*
X115055245Y-181726667D01*
X115245721Y-181631429D01*
X115531435Y-181631429D01*
X115721911Y-181726667D01*
X115817149Y-181917143D01*
X115817149Y-182964762D01*
X117626673Y-182964762D02*
X117626673Y-181917143D01*
X117531435Y-181726667D01*
X117340959Y-181631429D01*
X116960007Y-181631429D01*
X116769530Y-181726667D01*
X117626673Y-182869524D02*
X117436197Y-182964762D01*
X116960007Y-182964762D01*
X116769530Y-182869524D01*
X116674292Y-182679048D01*
X116674292Y-182488571D01*
X116769530Y-182298095D01*
X116960007Y-182202857D01*
X117436197Y-182202857D01*
X117626673Y-182107619D01*
X118579054Y-181631429D02*
X118579054Y-183631429D01*
X118579054Y-181726667D02*
X118769531Y-181631429D01*
X119150483Y-181631429D01*
X119340959Y-181726667D01*
X119436197Y-181821905D01*
X119531435Y-182012381D01*
X119531435Y-182583810D01*
X119436197Y-182774286D01*
X119340959Y-182869524D01*
X119150483Y-182964762D01*
X118769531Y-182964762D01*
X118579054Y-182869524D01*
X120388578Y-181631429D02*
X120388578Y-183631429D01*
X120388578Y-181726667D02*
X120579055Y-181631429D01*
X120960007Y-181631429D01*
X121150483Y-181726667D01*
X121245721Y-181821905D01*
X121340959Y-182012381D01*
X121340959Y-182583810D01*
X121245721Y-182774286D01*
X121150483Y-182869524D01*
X120960007Y-182964762D01*
X120579055Y-182964762D01*
X120388578Y-182869524D01*
X122960007Y-182869524D02*
X122769531Y-182964762D01*
X122388579Y-182964762D01*
X122198102Y-182869524D01*
X122102864Y-182679048D01*
X122102864Y-181917143D01*
X122198102Y-181726667D01*
X122388579Y-181631429D01*
X122769531Y-181631429D01*
X122960007Y-181726667D01*
X123055245Y-181917143D01*
X123055245Y-182107619D01*
X122102864Y-182298095D01*
X124769531Y-182964762D02*
X124769531Y-180964762D01*
X124769531Y-182869524D02*
X124579055Y-182964762D01*
X124198103Y-182964762D01*
X124007627Y-182869524D01*
X123912388Y-182774286D01*
X123817150Y-182583810D01*
X123817150Y-182012381D01*
X123912388Y-181821905D01*
X124007627Y-181726667D01*
X124198103Y-181631429D01*
X124579055Y-181631429D01*
X124769531Y-181726667D01*
X127531437Y-182964762D02*
X127340961Y-182869524D01*
X127245722Y-182774286D01*
X127150484Y-182583810D01*
X127150484Y-182012381D01*
X127245722Y-181821905D01*
X127340961Y-181726667D01*
X127531437Y-181631429D01*
X127817151Y-181631429D01*
X128007627Y-181726667D01*
X128102865Y-181821905D01*
X128198103Y-182012381D01*
X128198103Y-182583810D01*
X128102865Y-182774286D01*
X128007627Y-182869524D01*
X127817151Y-182964762D01*
X127531437Y-182964762D01*
X128769532Y-181631429D02*
X129531437Y-181631429D01*
X129055246Y-182964762D02*
X129055246Y-181250476D01*
X129150485Y-181060000D01*
X129340961Y-180964762D01*
X129531437Y-180964762D01*
X129912389Y-181631429D02*
X130674294Y-181631429D01*
X130198103Y-182964762D02*
X130198103Y-181250476D01*
X130293342Y-181060000D01*
X130483818Y-180964762D01*
X130674294Y-180964762D01*
X132864770Y-182964762D02*
X132864770Y-180964762D01*
X132864770Y-181726667D02*
X133055247Y-181631429D01*
X133436199Y-181631429D01*
X133626675Y-181726667D01*
X133721913Y-181821905D01*
X133817151Y-182012381D01*
X133817151Y-182583810D01*
X133721913Y-182774286D01*
X133626675Y-182869524D01*
X133436199Y-182964762D01*
X133055247Y-182964762D01*
X132864770Y-182869524D01*
X134483818Y-181631429D02*
X134960009Y-182964762D01*
X135436199Y-181631429D02*
X134960009Y-182964762D01*
X134769533Y-183440952D01*
X134674294Y-183536190D01*
X134483818Y-183631429D01*
X137721914Y-182964762D02*
X137721914Y-180964762D01*
X138579057Y-182964762D02*
X138579057Y-181917143D01*
X138483819Y-181726667D01*
X138293343Y-181631429D01*
X138007629Y-181631429D01*
X137817153Y-181726667D01*
X137721914Y-181821905D01*
X140388581Y-182964762D02*
X140388581Y-181917143D01*
X140293343Y-181726667D01*
X140102867Y-181631429D01*
X139721915Y-181631429D01*
X139531438Y-181726667D01*
X140388581Y-182869524D02*
X140198105Y-182964762D01*
X139721915Y-182964762D01*
X139531438Y-182869524D01*
X139436200Y-182679048D01*
X139436200Y-182488571D01*
X139531438Y-182298095D01*
X139721915Y-182202857D01*
X140198105Y-182202857D01*
X140388581Y-182107619D01*
X141340962Y-181631429D02*
X141340962Y-182964762D01*
X141340962Y-181821905D02*
X141436201Y-181726667D01*
X141626677Y-181631429D01*
X141912391Y-181631429D01*
X142102867Y-181726667D01*
X142198105Y-181917143D01*
X142198105Y-182964762D01*
X144007629Y-182964762D02*
X144007629Y-180964762D01*
X144007629Y-182869524D02*
X143817153Y-182964762D01*
X143436201Y-182964762D01*
X143245725Y-182869524D01*
X143150486Y-182774286D01*
X143055248Y-182583810D01*
X143055248Y-182012381D01*
X143150486Y-181821905D01*
X143245725Y-181726667D01*
X143436201Y-181631429D01*
X143817153Y-181631429D01*
X144007629Y-181726667D01*
X144960010Y-182774286D02*
X145055249Y-182869524D01*
X144960010Y-182964762D01*
X144864772Y-182869524D01*
X144960010Y-182774286D01*
X144960010Y-182964762D01*
D11*
X251460000Y-132080000D02*
X241300000Y-132080000D01*
X251460000Y-106680000D02*
X241300000Y-106680000D01*
X251460000Y-78740000D02*
X241300000Y-78740000D01*
X251460000Y-53340000D02*
X241300000Y-53340000D01*
X223520000Y-30480000D02*
X223520000Y-38100000D01*
X187960000Y-30480000D02*
X187960000Y-38100000D01*
X149860000Y-30480000D02*
X149860000Y-38100000D01*
X111760000Y-30480000D02*
X111760000Y-38100000D01*
X81280000Y-30480000D02*
X81280000Y-38100000D01*
D12*
X255127143Y-141154292D02*
X255222381Y-140868578D01*
X255317619Y-140773339D01*
X255508095Y-140678101D01*
X255793810Y-140678101D01*
X255984286Y-140773339D01*
X256079524Y-140868578D01*
X256174762Y-141059054D01*
X256174762Y-141820959D01*
X254174762Y-141820959D01*
X254174762Y-141154292D01*
X254270000Y-140963816D01*
X254365238Y-140868578D01*
X254555714Y-140773339D01*
X254746190Y-140773339D01*
X254936667Y-140868578D01*
X255031905Y-140963816D01*
X255127143Y-141154292D01*
X255127143Y-141820959D01*
X256174762Y-139820959D02*
X254841429Y-139820959D01*
X255222381Y-139820959D02*
X255031905Y-139725720D01*
X254936667Y-139630482D01*
X254841429Y-139440006D01*
X254841429Y-139249530D01*
X256079524Y-137820959D02*
X256174762Y-138011435D01*
X256174762Y-138392387D01*
X256079524Y-138582864D01*
X255889048Y-138678102D01*
X255127143Y-138678102D01*
X254936667Y-138582864D01*
X254841429Y-138392387D01*
X254841429Y-138011435D01*
X254936667Y-137820959D01*
X255127143Y-137725721D01*
X255317619Y-137725721D01*
X255508095Y-138678102D01*
X256174762Y-136011435D02*
X255127143Y-136011435D01*
X254936667Y-136106673D01*
X254841429Y-136297149D01*
X254841429Y-136678101D01*
X254936667Y-136868578D01*
X256079524Y-136011435D02*
X256174762Y-136201911D01*
X256174762Y-136678101D01*
X256079524Y-136868578D01*
X255889048Y-136963816D01*
X255698571Y-136963816D01*
X255508095Y-136868578D01*
X255412857Y-136678101D01*
X255412857Y-136201911D01*
X255317619Y-136011435D01*
X256174762Y-135059054D02*
X254174762Y-135059054D01*
X255412857Y-134868577D02*
X256174762Y-134297149D01*
X254841429Y-134297149D02*
X255603333Y-135059054D01*
X256174762Y-132582863D02*
X255127143Y-132582863D01*
X254936667Y-132678101D01*
X254841429Y-132868577D01*
X254841429Y-133249529D01*
X254936667Y-133440006D01*
X256079524Y-132582863D02*
X256174762Y-132773339D01*
X256174762Y-133249529D01*
X256079524Y-133440006D01*
X255889048Y-133535244D01*
X255698571Y-133535244D01*
X255508095Y-133440006D01*
X255412857Y-133249529D01*
X255412857Y-132773339D01*
X255317619Y-132582863D01*
X254841429Y-131820958D02*
X256174762Y-131440005D01*
X255222381Y-131059053D01*
X256174762Y-130678101D01*
X254841429Y-130297148D01*
X256174762Y-128678101D02*
X255127143Y-128678101D01*
X254936667Y-128773339D01*
X254841429Y-128963815D01*
X254841429Y-129344767D01*
X254936667Y-129535244D01*
X256079524Y-128678101D02*
X256174762Y-128868577D01*
X256174762Y-129344767D01*
X256079524Y-129535244D01*
X255889048Y-129630482D01*
X255698571Y-129630482D01*
X255508095Y-129535244D01*
X255412857Y-129344767D01*
X255412857Y-128868577D01*
X255317619Y-128678101D01*
X254841429Y-127916196D02*
X256174762Y-127440005D01*
X254841429Y-126963815D02*
X256174762Y-127440005D01*
X256650952Y-127630481D01*
X256746190Y-127725720D01*
X256841429Y-127916196D01*
X254841429Y-124963814D02*
X254841429Y-124201909D01*
X254174762Y-124678100D02*
X255889048Y-124678100D01*
X256079524Y-124582861D01*
X256174762Y-124392385D01*
X256174762Y-124201909D01*
X256174762Y-122678100D02*
X255127143Y-122678100D01*
X254936667Y-122773338D01*
X254841429Y-122963814D01*
X254841429Y-123344766D01*
X254936667Y-123535243D01*
X256079524Y-122678100D02*
X256174762Y-122868576D01*
X256174762Y-123344766D01*
X256079524Y-123535243D01*
X255889048Y-123630481D01*
X255698571Y-123630481D01*
X255508095Y-123535243D01*
X255412857Y-123344766D01*
X255412857Y-122868576D01*
X255317619Y-122678100D01*
X256174762Y-121725719D02*
X254174762Y-121725719D01*
X254936667Y-121725719D02*
X254841429Y-121535242D01*
X254841429Y-121154290D01*
X254936667Y-120963814D01*
X255031905Y-120868576D01*
X255222381Y-120773338D01*
X255793810Y-120773338D01*
X255984286Y-120868576D01*
X256079524Y-120963814D01*
X256174762Y-121154290D01*
X256174762Y-121535242D01*
X256079524Y-121725719D01*
X256079524Y-120011433D02*
X256174762Y-119820956D01*
X256174762Y-119440004D01*
X256079524Y-119249528D01*
X255889048Y-119154290D01*
X255793810Y-119154290D01*
X255603333Y-119249528D01*
X255508095Y-119440004D01*
X255508095Y-119725718D01*
X255412857Y-119916195D01*
X255222381Y-120011433D01*
X255127143Y-120011433D01*
X254936667Y-119916195D01*
X254841429Y-119725718D01*
X254841429Y-119440004D01*
X254936667Y-119249528D01*
X254841429Y-116963813D02*
X256174762Y-116582860D01*
X255222381Y-116201908D01*
X256174762Y-115820956D01*
X254841429Y-115440003D01*
X256174762Y-114678099D02*
X254841429Y-114678099D01*
X254174762Y-114678099D02*
X254270000Y-114773337D01*
X254365238Y-114678099D01*
X254270000Y-114582860D01*
X254174762Y-114678099D01*
X254365238Y-114678099D01*
X254841429Y-114011432D02*
X254841429Y-113249527D01*
X254174762Y-113725718D02*
X255889048Y-113725718D01*
X256079524Y-113630479D01*
X256174762Y-113440003D01*
X256174762Y-113249527D01*
X256174762Y-112582861D02*
X254174762Y-112582861D01*
X256174762Y-111725718D02*
X255127143Y-111725718D01*
X254936667Y-111820956D01*
X254841429Y-112011432D01*
X254841429Y-112297146D01*
X254936667Y-112487622D01*
X255031905Y-112582861D01*
X256174762Y-109249527D02*
X254841429Y-109249527D01*
X255031905Y-109249527D02*
X254936667Y-109154288D01*
X254841429Y-108963812D01*
X254841429Y-108678098D01*
X254936667Y-108487622D01*
X255127143Y-108392384D01*
X256174762Y-108392384D01*
X255127143Y-108392384D02*
X254936667Y-108297146D01*
X254841429Y-108106669D01*
X254841429Y-107820955D01*
X254936667Y-107630479D01*
X255127143Y-107535241D01*
X256174762Y-107535241D01*
X256174762Y-106297145D02*
X256079524Y-106487621D01*
X255984286Y-106582860D01*
X255793810Y-106678098D01*
X255222381Y-106678098D01*
X255031905Y-106582860D01*
X254936667Y-106487621D01*
X254841429Y-106297145D01*
X254841429Y-106011431D01*
X254936667Y-105820955D01*
X255031905Y-105725717D01*
X255222381Y-105630479D01*
X255793810Y-105630479D01*
X255984286Y-105725717D01*
X256079524Y-105820955D01*
X256174762Y-106011431D01*
X256174762Y-106297145D01*
X254841429Y-103916193D02*
X256174762Y-103916193D01*
X254841429Y-104773336D02*
X255889048Y-104773336D01*
X256079524Y-104678097D01*
X256174762Y-104487621D01*
X256174762Y-104201907D01*
X256079524Y-104011431D01*
X255984286Y-103916193D01*
X256079524Y-103059050D02*
X256174762Y-102868573D01*
X256174762Y-102487621D01*
X256079524Y-102297145D01*
X255889048Y-102201907D01*
X255793810Y-102201907D01*
X255603333Y-102297145D01*
X255508095Y-102487621D01*
X255508095Y-102773335D01*
X255412857Y-102963812D01*
X255222381Y-103059050D01*
X255127143Y-103059050D01*
X254936667Y-102963812D01*
X254841429Y-102773335D01*
X254841429Y-102487621D01*
X254936667Y-102297145D01*
X256079524Y-100582859D02*
X256174762Y-100773335D01*
X256174762Y-101154287D01*
X256079524Y-101344764D01*
X255889048Y-101440002D01*
X255127143Y-101440002D01*
X254936667Y-101344764D01*
X254841429Y-101154287D01*
X254841429Y-100773335D01*
X254936667Y-100582859D01*
X255127143Y-100487621D01*
X255317619Y-100487621D01*
X255508095Y-101440002D01*
X256174762Y-99630478D02*
X254174762Y-99630478D01*
X254936667Y-99630478D02*
X254841429Y-99440001D01*
X254841429Y-99059049D01*
X254936667Y-98868573D01*
X255031905Y-98773335D01*
X255222381Y-98678097D01*
X255793810Y-98678097D01*
X255984286Y-98773335D01*
X256079524Y-98868573D01*
X256174762Y-99059049D01*
X256174762Y-99440001D01*
X256079524Y-99630478D01*
X256174762Y-97820954D02*
X254841429Y-97820954D01*
X254174762Y-97820954D02*
X254270000Y-97916192D01*
X254365238Y-97820954D01*
X254270000Y-97725715D01*
X254174762Y-97820954D01*
X254365238Y-97820954D01*
X254841429Y-97154287D02*
X254841429Y-96392382D01*
X254174762Y-96868573D02*
X255889048Y-96868573D01*
X256079524Y-96773334D01*
X256174762Y-96582858D01*
X256174762Y-96392382D01*
X256079524Y-94963811D02*
X256174762Y-95154287D01*
X256174762Y-95535239D01*
X256079524Y-95725716D01*
X255889048Y-95820954D01*
X255127143Y-95820954D01*
X254936667Y-95725716D01*
X254841429Y-95535239D01*
X254841429Y-95154287D01*
X254936667Y-94963811D01*
X255127143Y-94868573D01*
X255317619Y-94868573D01*
X255508095Y-95820954D01*
X256079524Y-94106668D02*
X256174762Y-93916191D01*
X256174762Y-93535239D01*
X256079524Y-93344763D01*
X255889048Y-93249525D01*
X255793810Y-93249525D01*
X255603333Y-93344763D01*
X255508095Y-93535239D01*
X255508095Y-93820953D01*
X255412857Y-94011430D01*
X255222381Y-94106668D01*
X255127143Y-94106668D01*
X254936667Y-94011430D01*
X254841429Y-93820953D01*
X254841429Y-93535239D01*
X254936667Y-93344763D01*
X256174762Y-90868572D02*
X254841429Y-90868572D01*
X254174762Y-90868572D02*
X254270000Y-90963810D01*
X254365238Y-90868572D01*
X254270000Y-90773333D01*
X254174762Y-90868572D01*
X254365238Y-90868572D01*
X254841429Y-89916191D02*
X256174762Y-89916191D01*
X255031905Y-89916191D02*
X254936667Y-89820952D01*
X254841429Y-89630476D01*
X254841429Y-89344762D01*
X254936667Y-89154286D01*
X255127143Y-89059048D01*
X256174762Y-89059048D01*
X256079524Y-88201905D02*
X256174762Y-88011428D01*
X256174762Y-87630476D01*
X256079524Y-87440000D01*
X255889048Y-87344762D01*
X255793810Y-87344762D01*
X255603333Y-87440000D01*
X255508095Y-87630476D01*
X255508095Y-87916190D01*
X255412857Y-88106667D01*
X255222381Y-88201905D01*
X255127143Y-88201905D01*
X254936667Y-88106667D01*
X254841429Y-87916190D01*
X254841429Y-87630476D01*
X254936667Y-87440000D01*
X254841429Y-86773333D02*
X254841429Y-86011428D01*
X254174762Y-86487619D02*
X255889048Y-86487619D01*
X256079524Y-86392380D01*
X256174762Y-86201904D01*
X256174762Y-86011428D01*
X256079524Y-84582857D02*
X256174762Y-84773333D01*
X256174762Y-85154285D01*
X256079524Y-85344762D01*
X255889048Y-85440000D01*
X255127143Y-85440000D01*
X254936667Y-85344762D01*
X254841429Y-85154285D01*
X254841429Y-84773333D01*
X254936667Y-84582857D01*
X255127143Y-84487619D01*
X255317619Y-84487619D01*
X255508095Y-85440000D01*
X256174762Y-82773333D02*
X255127143Y-82773333D01*
X254936667Y-82868571D01*
X254841429Y-83059047D01*
X254841429Y-83439999D01*
X254936667Y-83630476D01*
X256079524Y-82773333D02*
X256174762Y-82963809D01*
X256174762Y-83439999D01*
X256079524Y-83630476D01*
X255889048Y-83725714D01*
X255698571Y-83725714D01*
X255508095Y-83630476D01*
X255412857Y-83439999D01*
X255412857Y-82963809D01*
X255317619Y-82773333D01*
X256174762Y-80963809D02*
X254174762Y-80963809D01*
X256079524Y-80963809D02*
X256174762Y-81154285D01*
X256174762Y-81535237D01*
X256079524Y-81725713D01*
X255984286Y-81820952D01*
X255793810Y-81916190D01*
X255222381Y-81916190D01*
X255031905Y-81820952D01*
X254936667Y-81725713D01*
X254841429Y-81535237D01*
X254841429Y-81154285D01*
X254936667Y-80963809D01*
X256174762Y-78201903D02*
X256079524Y-78392379D01*
X255984286Y-78487618D01*
X255793810Y-78582856D01*
X255222381Y-78582856D01*
X255031905Y-78487618D01*
X254936667Y-78392379D01*
X254841429Y-78201903D01*
X254841429Y-77916189D01*
X254936667Y-77725713D01*
X255031905Y-77630475D01*
X255222381Y-77535237D01*
X255793810Y-77535237D01*
X255984286Y-77630475D01*
X256079524Y-77725713D01*
X256174762Y-77916189D01*
X256174762Y-78201903D01*
X254841429Y-76963808D02*
X254841429Y-76201903D01*
X256174762Y-76678094D02*
X254460476Y-76678094D01*
X254270000Y-76582855D01*
X254174762Y-76392379D01*
X254174762Y-76201903D01*
X254841429Y-74201903D02*
X256174762Y-73725712D01*
X254841429Y-73249522D01*
X255412857Y-72487617D02*
X255412857Y-70963807D01*
X256079524Y-69154284D02*
X256174762Y-69344760D01*
X256174762Y-69725712D01*
X256079524Y-69916188D01*
X255984286Y-70011427D01*
X255793810Y-70106665D01*
X255222381Y-70106665D01*
X255031905Y-70011427D01*
X254936667Y-69916188D01*
X254841429Y-69725712D01*
X254841429Y-69344760D01*
X254936667Y-69154284D01*
X254841429Y-67439998D02*
X256174762Y-67439998D01*
X254841429Y-68297141D02*
X255889048Y-68297141D01*
X256079524Y-68201902D01*
X256174762Y-68011426D01*
X256174762Y-67725712D01*
X256079524Y-67535236D01*
X255984286Y-67439998D01*
X254841429Y-66773331D02*
X254841429Y-66011426D01*
X254174762Y-66487617D02*
X255889048Y-66487617D01*
X256079524Y-66392378D01*
X256174762Y-66201902D01*
X256174762Y-66011426D01*
X254841429Y-62963807D02*
X256460476Y-62963807D01*
X256650952Y-63059045D01*
X256746190Y-63154283D01*
X256841429Y-63344759D01*
X256841429Y-63630473D01*
X256746190Y-63820950D01*
X256079524Y-62963807D02*
X256174762Y-63154283D01*
X256174762Y-63535235D01*
X256079524Y-63725711D01*
X255984286Y-63820950D01*
X255793810Y-63916188D01*
X255222381Y-63916188D01*
X255031905Y-63820950D01*
X254936667Y-63725711D01*
X254841429Y-63535235D01*
X254841429Y-63154283D01*
X254936667Y-62963807D01*
X256174762Y-62011426D02*
X254841429Y-62011426D01*
X255222381Y-62011426D02*
X255031905Y-61916187D01*
X254936667Y-61820949D01*
X254841429Y-61630473D01*
X254841429Y-61439997D01*
X256174762Y-60487616D02*
X256079524Y-60678092D01*
X255984286Y-60773331D01*
X255793810Y-60868569D01*
X255222381Y-60868569D01*
X255031905Y-60773331D01*
X254936667Y-60678092D01*
X254841429Y-60487616D01*
X254841429Y-60201902D01*
X254936667Y-60011426D01*
X255031905Y-59916188D01*
X255222381Y-59820950D01*
X255793810Y-59820950D01*
X255984286Y-59916188D01*
X256079524Y-60011426D01*
X256174762Y-60201902D01*
X256174762Y-60487616D01*
X256174762Y-58678092D02*
X256079524Y-58868568D01*
X255984286Y-58963807D01*
X255793810Y-59059045D01*
X255222381Y-59059045D01*
X255031905Y-58963807D01*
X254936667Y-58868568D01*
X254841429Y-58678092D01*
X254841429Y-58392378D01*
X254936667Y-58201902D01*
X255031905Y-58106664D01*
X255222381Y-58011426D01*
X255793810Y-58011426D01*
X255984286Y-58106664D01*
X256079524Y-58201902D01*
X256174762Y-58392378D01*
X256174762Y-58678092D01*
X254841429Y-57344759D02*
X256174762Y-56868568D01*
X254841429Y-56392378D01*
X256079524Y-54868568D02*
X256174762Y-55059044D01*
X256174762Y-55439996D01*
X256079524Y-55630473D01*
X255889048Y-55725711D01*
X255127143Y-55725711D01*
X254936667Y-55630473D01*
X254841429Y-55439996D01*
X254841429Y-55059044D01*
X254936667Y-54868568D01*
X255127143Y-54773330D01*
X255317619Y-54773330D01*
X255508095Y-55725711D01*
X256079524Y-54011425D02*
X256174762Y-53820948D01*
X256174762Y-53439996D01*
X256079524Y-53249520D01*
X255889048Y-53154282D01*
X255793810Y-53154282D01*
X255603333Y-53249520D01*
X255508095Y-53439996D01*
X255508095Y-53725710D01*
X255412857Y-53916187D01*
X255222381Y-54011425D01*
X255127143Y-54011425D01*
X254936667Y-53916187D01*
X254841429Y-53725710D01*
X254841429Y-53439996D01*
X254936667Y-53249520D01*
X256079524Y-52201900D02*
X256174762Y-52201900D01*
X256365238Y-52297139D01*
X256460476Y-52392377D01*
X254841429Y-49820948D02*
X256841429Y-49820948D01*
X254936667Y-49820948D02*
X254841429Y-49630471D01*
X254841429Y-49249519D01*
X254936667Y-49059043D01*
X255031905Y-48963805D01*
X255222381Y-48868567D01*
X255793810Y-48868567D01*
X255984286Y-48963805D01*
X256079524Y-49059043D01*
X256174762Y-49249519D01*
X256174762Y-49630471D01*
X256079524Y-49820948D01*
X256174762Y-47725709D02*
X256079524Y-47916185D01*
X255889048Y-48011424D01*
X254174762Y-48011424D01*
X256079524Y-46201900D02*
X256174762Y-46392376D01*
X256174762Y-46773328D01*
X256079524Y-46963805D01*
X255889048Y-47059043D01*
X255127143Y-47059043D01*
X254936667Y-46963805D01*
X254841429Y-46773328D01*
X254841429Y-46392376D01*
X254936667Y-46201900D01*
X255127143Y-46106662D01*
X255317619Y-46106662D01*
X255508095Y-47059043D01*
X256174762Y-44392376D02*
X255127143Y-44392376D01*
X254936667Y-44487614D01*
X254841429Y-44678090D01*
X254841429Y-45059042D01*
X254936667Y-45249519D01*
X256079524Y-44392376D02*
X256174762Y-44582852D01*
X256174762Y-45059042D01*
X256079524Y-45249519D01*
X255889048Y-45344757D01*
X255698571Y-45344757D01*
X255508095Y-45249519D01*
X255412857Y-45059042D01*
X255412857Y-44582852D01*
X255317619Y-44392376D01*
X256079524Y-43535233D02*
X256174762Y-43344756D01*
X256174762Y-42963804D01*
X256079524Y-42773328D01*
X255889048Y-42678090D01*
X255793810Y-42678090D01*
X255603333Y-42773328D01*
X255508095Y-42963804D01*
X255508095Y-43249518D01*
X255412857Y-43439995D01*
X255222381Y-43535233D01*
X255127143Y-43535233D01*
X254936667Y-43439995D01*
X254841429Y-43249518D01*
X254841429Y-42963804D01*
X254936667Y-42773328D01*
X256079524Y-41059042D02*
X256174762Y-41249518D01*
X256174762Y-41630470D01*
X256079524Y-41820947D01*
X255889048Y-41916185D01*
X255127143Y-41916185D01*
X254936667Y-41820947D01*
X254841429Y-41630470D01*
X254841429Y-41249518D01*
X254936667Y-41059042D01*
X255127143Y-40963804D01*
X255317619Y-40963804D01*
X255508095Y-41916185D01*
D13*
X72748570Y-26455714D02*
X73177141Y-26598571D01*
X73319998Y-26741429D01*
X73462855Y-27027143D01*
X73462855Y-27455714D01*
X73319998Y-27741429D01*
X73177141Y-27884286D01*
X72891427Y-28027143D01*
X71748570Y-28027143D01*
X71748570Y-25027143D01*
X72748570Y-25027143D01*
X73034284Y-25170000D01*
X73177141Y-25312857D01*
X73319998Y-25598571D01*
X73319998Y-25884286D01*
X73177141Y-26170000D01*
X73034284Y-26312857D01*
X72748570Y-26455714D01*
X71748570Y-26455714D01*
X74748570Y-28027143D02*
X74748570Y-26027143D01*
X74748570Y-26598571D02*
X74891427Y-26312857D01*
X75034284Y-26170000D01*
X75319998Y-26027143D01*
X75605713Y-26027143D01*
X77748570Y-27884286D02*
X77462856Y-28027143D01*
X76891427Y-28027143D01*
X76605713Y-27884286D01*
X76462856Y-27598571D01*
X76462856Y-26455714D01*
X76605713Y-26170000D01*
X76891427Y-26027143D01*
X77462856Y-26027143D01*
X77748570Y-26170000D01*
X77891427Y-26455714D01*
X77891427Y-26741429D01*
X76462856Y-27027143D01*
X80462856Y-28027143D02*
X80462856Y-26455714D01*
X80319999Y-26170000D01*
X80034285Y-26027143D01*
X79462856Y-26027143D01*
X79177142Y-26170000D01*
X80462856Y-27884286D02*
X80177142Y-28027143D01*
X79462856Y-28027143D01*
X79177142Y-27884286D01*
X79034285Y-27598571D01*
X79034285Y-27312857D01*
X79177142Y-27027143D01*
X79462856Y-26884286D01*
X80177142Y-26884286D01*
X80462856Y-26741429D01*
X81891428Y-28027143D02*
X81891428Y-25027143D01*
X82177142Y-26884286D02*
X83034285Y-28027143D01*
X83034285Y-26027143D02*
X81891428Y-27170000D01*
X85605713Y-28027143D02*
X85605713Y-26455714D01*
X85462856Y-26170000D01*
X85177142Y-26027143D01*
X84605713Y-26027143D01*
X84319999Y-26170000D01*
X85605713Y-27884286D02*
X85319999Y-28027143D01*
X84605713Y-28027143D01*
X84319999Y-27884286D01*
X84177142Y-27598571D01*
X84177142Y-27312857D01*
X84319999Y-27027143D01*
X84605713Y-26884286D01*
X85319999Y-26884286D01*
X85605713Y-26741429D01*
X86748570Y-26027143D02*
X87319999Y-28027143D01*
X87891428Y-26598571D01*
X88462856Y-28027143D01*
X89034285Y-26027143D01*
X91462856Y-28027143D02*
X91462856Y-26455714D01*
X91319999Y-26170000D01*
X91034285Y-26027143D01*
X90462856Y-26027143D01*
X90177142Y-26170000D01*
X91462856Y-27884286D02*
X91177142Y-28027143D01*
X90462856Y-28027143D01*
X90177142Y-27884286D01*
X90034285Y-27598571D01*
X90034285Y-27312857D01*
X90177142Y-27027143D01*
X90462856Y-26884286D01*
X91177142Y-26884286D01*
X91462856Y-26741429D01*
X92605713Y-26027143D02*
X93319999Y-28027143D01*
X94034285Y-26027143D02*
X93319999Y-28027143D01*
X93034285Y-28741429D01*
X92891428Y-28884286D01*
X92605713Y-29027143D01*
X97034284Y-26027143D02*
X98177141Y-26027143D01*
X97462856Y-25027143D02*
X97462856Y-27598571D01*
X97605713Y-27884286D01*
X97891427Y-28027143D01*
X98177141Y-28027143D01*
X100462856Y-28027143D02*
X100462856Y-26455714D01*
X100319999Y-26170000D01*
X100034285Y-26027143D01*
X99462856Y-26027143D01*
X99177142Y-26170000D01*
X100462856Y-27884286D02*
X100177142Y-28027143D01*
X99462856Y-28027143D01*
X99177142Y-27884286D01*
X99034285Y-27598571D01*
X99034285Y-27312857D01*
X99177142Y-27027143D01*
X99462856Y-26884286D01*
X100177142Y-26884286D01*
X100462856Y-26741429D01*
X101891428Y-28027143D02*
X101891428Y-25027143D01*
X101891428Y-26170000D02*
X102177142Y-26027143D01*
X102748571Y-26027143D01*
X103034285Y-26170000D01*
X103177142Y-26312857D01*
X103319999Y-26598571D01*
X103319999Y-27455714D01*
X103177142Y-27741429D01*
X103034285Y-27884286D01*
X102748571Y-28027143D01*
X102177142Y-28027143D01*
X101891428Y-27884286D01*
X104462857Y-27884286D02*
X104748571Y-28027143D01*
X105319999Y-28027143D01*
X105605714Y-27884286D01*
X105748571Y-27598571D01*
X105748571Y-27455714D01*
X105605714Y-27170000D01*
X105319999Y-27027143D01*
X104891428Y-27027143D01*
X104605714Y-26884286D01*
X104462857Y-26598571D01*
X104462857Y-26455714D01*
X104605714Y-26170000D01*
X104891428Y-26027143D01*
X105319999Y-26027143D01*
X105605714Y-26170000D01*
X109034284Y-26027143D02*
X109605713Y-28027143D01*
X110177142Y-26598571D01*
X110748570Y-28027143D01*
X111319999Y-26027143D01*
X112462856Y-28027143D02*
X112462856Y-26027143D01*
X112462856Y-25027143D02*
X112319999Y-25170000D01*
X112462856Y-25312857D01*
X112605713Y-25170000D01*
X112462856Y-25027143D01*
X112462856Y-25312857D01*
X113462855Y-26027143D02*
X114605712Y-26027143D01*
X113891427Y-25027143D02*
X113891427Y-27598571D01*
X114034284Y-27884286D01*
X114319998Y-28027143D01*
X114605712Y-28027143D01*
X115605713Y-28027143D02*
X115605713Y-25027143D01*
X116891427Y-28027143D02*
X116891427Y-26455714D01*
X116748570Y-26170000D01*
X116462856Y-26027143D01*
X116034284Y-26027143D01*
X115748570Y-26170000D01*
X115605713Y-26312857D01*
X120605713Y-28027143D02*
X120605713Y-26027143D01*
X120605713Y-26312857D02*
X120748570Y-26170000D01*
X121034284Y-26027143D01*
X121462856Y-26027143D01*
X121748570Y-26170000D01*
X121891427Y-26455714D01*
X121891427Y-28027143D01*
X121891427Y-26455714D02*
X122034284Y-26170000D01*
X122319998Y-26027143D01*
X122748570Y-26027143D01*
X123034284Y-26170000D01*
X123177141Y-26455714D01*
X123177141Y-28027143D01*
X125034284Y-28027143D02*
X124748570Y-27884286D01*
X124605713Y-27741429D01*
X124462856Y-27455714D01*
X124462856Y-26598571D01*
X124605713Y-26312857D01*
X124748570Y-26170000D01*
X125034284Y-26027143D01*
X125462856Y-26027143D01*
X125748570Y-26170000D01*
X125891427Y-26312857D01*
X126034284Y-26598571D01*
X126034284Y-27455714D01*
X125891427Y-27741429D01*
X125748570Y-27884286D01*
X125462856Y-28027143D01*
X125034284Y-28027143D01*
X128605713Y-26027143D02*
X128605713Y-28027143D01*
X127319999Y-26027143D02*
X127319999Y-27598571D01*
X127462856Y-27884286D01*
X127748570Y-28027143D01*
X128177142Y-28027143D01*
X128462856Y-27884286D01*
X128605713Y-27741429D01*
X129891428Y-27884286D02*
X130177142Y-28027143D01*
X130748570Y-28027143D01*
X131034285Y-27884286D01*
X131177142Y-27598571D01*
X131177142Y-27455714D01*
X131034285Y-27170000D01*
X130748570Y-27027143D01*
X130319999Y-27027143D01*
X130034285Y-26884286D01*
X129891428Y-26598571D01*
X129891428Y-26455714D01*
X130034285Y-26170000D01*
X130319999Y-26027143D01*
X130748570Y-26027143D01*
X131034285Y-26170000D01*
X133605713Y-27884286D02*
X133319999Y-28027143D01*
X132748570Y-28027143D01*
X132462856Y-27884286D01*
X132319999Y-27598571D01*
X132319999Y-26455714D01*
X132462856Y-26170000D01*
X132748570Y-26027143D01*
X133319999Y-26027143D01*
X133605713Y-26170000D01*
X133748570Y-26455714D01*
X133748570Y-26741429D01*
X132319999Y-27027143D01*
X135034285Y-28027143D02*
X135034285Y-25027143D01*
X135034285Y-26170000D02*
X135319999Y-26027143D01*
X135891428Y-26027143D01*
X136177142Y-26170000D01*
X136319999Y-26312857D01*
X136462856Y-26598571D01*
X136462856Y-27455714D01*
X136319999Y-27741429D01*
X136177142Y-27884286D01*
X135891428Y-28027143D01*
X135319999Y-28027143D01*
X135034285Y-27884286D01*
X137748571Y-28027143D02*
X137748571Y-26027143D01*
X137748571Y-25027143D02*
X137605714Y-25170000D01*
X137748571Y-25312857D01*
X137891428Y-25170000D01*
X137748571Y-25027143D01*
X137748571Y-25312857D01*
X138748570Y-26027143D02*
X139891427Y-26027143D01*
X139177142Y-25027143D02*
X139177142Y-27598571D01*
X139319999Y-27884286D01*
X139605713Y-28027143D01*
X139891427Y-28027143D01*
X142034285Y-27884286D02*
X141748571Y-28027143D01*
X141177142Y-28027143D01*
X140891428Y-27884286D01*
X140748571Y-27598571D01*
X140748571Y-26455714D01*
X140891428Y-26170000D01*
X141177142Y-26027143D01*
X141748571Y-26027143D01*
X142034285Y-26170000D01*
X142177142Y-26455714D01*
X142177142Y-26741429D01*
X140748571Y-27027143D01*
X143320000Y-27884286D02*
X143605714Y-28027143D01*
X144177142Y-28027143D01*
X144462857Y-27884286D01*
X144605714Y-27598571D01*
X144605714Y-27455714D01*
X144462857Y-27170000D01*
X144177142Y-27027143D01*
X143748571Y-27027143D01*
X143462857Y-26884286D01*
X143320000Y-26598571D01*
X143320000Y-26455714D01*
X143462857Y-26170000D01*
X143748571Y-26027143D01*
X144177142Y-26027143D01*
X144462857Y-26170000D01*
X148177142Y-28027143D02*
X148177142Y-26027143D01*
X148177142Y-25027143D02*
X148034285Y-25170000D01*
X148177142Y-25312857D01*
X148319999Y-25170000D01*
X148177142Y-25027143D01*
X148177142Y-25312857D01*
X149605713Y-26027143D02*
X149605713Y-28027143D01*
X149605713Y-26312857D02*
X149748570Y-26170000D01*
X150034284Y-26027143D01*
X150462856Y-26027143D01*
X150748570Y-26170000D01*
X150891427Y-26455714D01*
X150891427Y-28027143D01*
X152177142Y-27884286D02*
X152462856Y-28027143D01*
X153034284Y-28027143D01*
X153319999Y-27884286D01*
X153462856Y-27598571D01*
X153462856Y-27455714D01*
X153319999Y-27170000D01*
X153034284Y-27027143D01*
X152605713Y-27027143D01*
X152319999Y-26884286D01*
X152177142Y-26598571D01*
X152177142Y-26455714D01*
X152319999Y-26170000D01*
X152605713Y-26027143D01*
X153034284Y-26027143D01*
X153319999Y-26170000D01*
X154319998Y-26027143D02*
X155462855Y-26027143D01*
X154748570Y-25027143D02*
X154748570Y-27598571D01*
X154891427Y-27884286D01*
X155177141Y-28027143D01*
X155462855Y-28027143D01*
X157605713Y-27884286D02*
X157319999Y-28027143D01*
X156748570Y-28027143D01*
X156462856Y-27884286D01*
X156319999Y-27598571D01*
X156319999Y-26455714D01*
X156462856Y-26170000D01*
X156748570Y-26027143D01*
X157319999Y-26027143D01*
X157605713Y-26170000D01*
X157748570Y-26455714D01*
X157748570Y-26741429D01*
X156319999Y-27027143D01*
X160319999Y-28027143D02*
X160319999Y-26455714D01*
X160177142Y-26170000D01*
X159891428Y-26027143D01*
X159319999Y-26027143D01*
X159034285Y-26170000D01*
X160319999Y-27884286D02*
X160034285Y-28027143D01*
X159319999Y-28027143D01*
X159034285Y-27884286D01*
X158891428Y-27598571D01*
X158891428Y-27312857D01*
X159034285Y-27027143D01*
X159319999Y-26884286D01*
X160034285Y-26884286D01*
X160319999Y-26741429D01*
X163034285Y-28027143D02*
X163034285Y-25027143D01*
X163034285Y-27884286D02*
X162748571Y-28027143D01*
X162177142Y-28027143D01*
X161891428Y-27884286D01*
X161748571Y-27741429D01*
X161605714Y-27455714D01*
X161605714Y-26598571D01*
X161748571Y-26312857D01*
X161891428Y-26170000D01*
X162177142Y-26027143D01*
X162748571Y-26027143D01*
X163034285Y-26170000D01*
X167177142Y-28027143D02*
X166891428Y-27884286D01*
X166748571Y-27741429D01*
X166605714Y-27455714D01*
X166605714Y-26598571D01*
X166748571Y-26312857D01*
X166891428Y-26170000D01*
X167177142Y-26027143D01*
X167605714Y-26027143D01*
X167891428Y-26170000D01*
X168034285Y-26312857D01*
X168177142Y-26598571D01*
X168177142Y-27455714D01*
X168034285Y-27741429D01*
X167891428Y-27884286D01*
X167605714Y-28027143D01*
X167177142Y-28027143D01*
X169034285Y-26027143D02*
X170177142Y-26027143D01*
X169462857Y-28027143D02*
X169462857Y-25455714D01*
X169605714Y-25170000D01*
X169891428Y-25027143D01*
X170177142Y-25027143D01*
X173177142Y-26027143D02*
X173891428Y-28027143D01*
X174605714Y-26027143D01*
X175748571Y-26884286D02*
X178034285Y-26884286D01*
X180748571Y-27884286D02*
X180462857Y-28027143D01*
X179891428Y-28027143D01*
X179605714Y-27884286D01*
X179462857Y-27741429D01*
X179320000Y-27455714D01*
X179320000Y-26598571D01*
X179462857Y-26312857D01*
X179605714Y-26170000D01*
X179891428Y-26027143D01*
X180462857Y-26027143D01*
X180748571Y-26170000D01*
X183320000Y-26027143D02*
X183320000Y-28027143D01*
X182034286Y-26027143D02*
X182034286Y-27598571D01*
X182177143Y-27884286D01*
X182462857Y-28027143D01*
X182891429Y-28027143D01*
X183177143Y-27884286D01*
X183320000Y-27741429D01*
X184320000Y-26027143D02*
X185462857Y-26027143D01*
X184748572Y-25027143D02*
X184748572Y-27598571D01*
X184891429Y-27884286D01*
X185177143Y-28027143D01*
X185462857Y-28027143D01*
X190034286Y-26027143D02*
X190034286Y-28455714D01*
X189891429Y-28741429D01*
X189748572Y-28884286D01*
X189462857Y-29027143D01*
X189034286Y-29027143D01*
X188748572Y-28884286D01*
X190034286Y-27884286D02*
X189748572Y-28027143D01*
X189177143Y-28027143D01*
X188891429Y-27884286D01*
X188748572Y-27741429D01*
X188605715Y-27455714D01*
X188605715Y-26598571D01*
X188748572Y-26312857D01*
X188891429Y-26170000D01*
X189177143Y-26027143D01*
X189748572Y-26027143D01*
X190034286Y-26170000D01*
X191462858Y-28027143D02*
X191462858Y-26027143D01*
X191462858Y-26598571D02*
X191605715Y-26312857D01*
X191748572Y-26170000D01*
X192034286Y-26027143D01*
X192320001Y-26027143D01*
X193748572Y-28027143D02*
X193462858Y-27884286D01*
X193320001Y-27741429D01*
X193177144Y-27455714D01*
X193177144Y-26598571D01*
X193320001Y-26312857D01*
X193462858Y-26170000D01*
X193748572Y-26027143D01*
X194177144Y-26027143D01*
X194462858Y-26170000D01*
X194605715Y-26312857D01*
X194748572Y-26598571D01*
X194748572Y-27455714D01*
X194605715Y-27741429D01*
X194462858Y-27884286D01*
X194177144Y-28027143D01*
X193748572Y-28027143D01*
X196462858Y-28027143D02*
X196177144Y-27884286D01*
X196034287Y-27741429D01*
X195891430Y-27455714D01*
X195891430Y-26598571D01*
X196034287Y-26312857D01*
X196177144Y-26170000D01*
X196462858Y-26027143D01*
X196891430Y-26027143D01*
X197177144Y-26170000D01*
X197320001Y-26312857D01*
X197462858Y-26598571D01*
X197462858Y-27455714D01*
X197320001Y-27741429D01*
X197177144Y-27884286D01*
X196891430Y-28027143D01*
X196462858Y-28027143D01*
X198462858Y-26027143D02*
X199177144Y-28027143D01*
X199891430Y-26027143D01*
X202177144Y-27884286D02*
X201891430Y-28027143D01*
X201320001Y-28027143D01*
X201034287Y-27884286D01*
X200891430Y-27598571D01*
X200891430Y-26455714D01*
X201034287Y-26170000D01*
X201320001Y-26027143D01*
X201891430Y-26027143D01*
X202177144Y-26170000D01*
X202320001Y-26455714D01*
X202320001Y-26741429D01*
X200891430Y-27027143D01*
X203462859Y-27884286D02*
X203748573Y-28027143D01*
X204320001Y-28027143D01*
X204605716Y-27884286D01*
X204748573Y-27598571D01*
X204748573Y-27455714D01*
X204605716Y-27170000D01*
X204320001Y-27027143D01*
X203891430Y-27027143D01*
X203605716Y-26884286D01*
X203462859Y-26598571D01*
X203462859Y-26455714D01*
X203605716Y-26170000D01*
X203891430Y-26027143D01*
X204320001Y-26027143D01*
X204605716Y-26170000D01*
X206177144Y-27884286D02*
X206177144Y-28027143D01*
X206034287Y-28312857D01*
X205891430Y-28455714D01*
X209748572Y-26027143D02*
X209748572Y-29027143D01*
X209748572Y-26170000D02*
X210034286Y-26027143D01*
X210605715Y-26027143D01*
X210891429Y-26170000D01*
X211034286Y-26312857D01*
X211177143Y-26598571D01*
X211177143Y-27455714D01*
X211034286Y-27741429D01*
X210891429Y-27884286D01*
X210605715Y-28027143D01*
X210034286Y-28027143D01*
X209748572Y-27884286D01*
X212891429Y-28027143D02*
X212605715Y-27884286D01*
X212462858Y-27598571D01*
X212462858Y-25027143D01*
X215177144Y-27884286D02*
X214891430Y-28027143D01*
X214320001Y-28027143D01*
X214034287Y-27884286D01*
X213891430Y-27598571D01*
X213891430Y-26455714D01*
X214034287Y-26170000D01*
X214320001Y-26027143D01*
X214891430Y-26027143D01*
X215177144Y-26170000D01*
X215320001Y-26455714D01*
X215320001Y-26741429D01*
X213891430Y-27027143D01*
X217891430Y-28027143D02*
X217891430Y-26455714D01*
X217748573Y-26170000D01*
X217462859Y-26027143D01*
X216891430Y-26027143D01*
X216605716Y-26170000D01*
X217891430Y-27884286D02*
X217605716Y-28027143D01*
X216891430Y-28027143D01*
X216605716Y-27884286D01*
X216462859Y-27598571D01*
X216462859Y-27312857D01*
X216605716Y-27027143D01*
X216891430Y-26884286D01*
X217605716Y-26884286D01*
X217891430Y-26741429D01*
X219177145Y-27884286D02*
X219462859Y-28027143D01*
X220034287Y-28027143D01*
X220320002Y-27884286D01*
X220462859Y-27598571D01*
X220462859Y-27455714D01*
X220320002Y-27170000D01*
X220034287Y-27027143D01*
X219605716Y-27027143D01*
X219320002Y-26884286D01*
X219177145Y-26598571D01*
X219177145Y-26455714D01*
X219320002Y-26170000D01*
X219605716Y-26027143D01*
X220034287Y-26027143D01*
X220320002Y-26170000D01*
X222891430Y-27884286D02*
X222605716Y-28027143D01*
X222034287Y-28027143D01*
X221748573Y-27884286D01*
X221605716Y-27598571D01*
X221605716Y-26455714D01*
X221748573Y-26170000D01*
X222034287Y-26027143D01*
X222605716Y-26027143D01*
X222891430Y-26170000D01*
X223034287Y-26455714D01*
X223034287Y-26741429D01*
X221605716Y-27027143D01*
M02*
