G04 #@! TF.FileFunction,Paste,Top*
%FSLAX46Y46*%
G04 Gerber Fmt 4.6, Leading zero omitted, Abs format (unit mm)*
G04 Created by KiCad (PCBNEW 4.0.7-e2-6376~58~ubuntu16.04.1) date Thu Nov 16 15:54:30 2017*
%MOMM*%
%LPD*%
G01*
G04 APERTURE LIST*
%ADD10C,0.100000*%
%ADD11R,1.000000X1.250000*%
%ADD12R,1.250000X1.000000*%
%ADD13R,0.700000X0.600000*%
%ADD14R,0.300000X0.700000*%
%ADD15R,2.750000X1.000000*%
%ADD16R,1.500000X0.300000*%
%ADD17R,0.300000X1.500000*%
%ADD18R,0.900000X0.800000*%
%ADD19R,2.000000X1.800000*%
%ADD20R,1.000000X1.524000*%
G04 APERTURE END LIST*
D10*
D11*
X226704400Y-87223600D03*
X224704400Y-87223600D03*
D12*
X222097600Y-99126800D03*
X222097600Y-101126800D03*
X219583000Y-99679000D03*
X219583000Y-97679000D03*
X217551000Y-83423000D03*
X217551000Y-81423000D03*
D11*
X210550000Y-83185000D03*
X208550000Y-83185000D03*
X204422500Y-84645500D03*
X206422500Y-84645500D03*
D12*
X205105000Y-95901000D03*
X205105000Y-97901000D03*
D11*
X205597000Y-93599000D03*
X203597000Y-93599000D03*
D12*
X208280000Y-107331000D03*
X208280000Y-109331000D03*
D11*
X212582000Y-105283000D03*
X210582000Y-105283000D03*
D13*
X206121000Y-109031000D03*
X206121000Y-107631000D03*
D11*
X206137000Y-105283000D03*
X208137000Y-105283000D03*
D14*
X213150000Y-111820000D03*
X213650000Y-111820000D03*
X214150000Y-111820000D03*
X214650000Y-111820000D03*
X215150000Y-111820000D03*
X215650000Y-111820000D03*
X216150000Y-111820000D03*
X218650000Y-111820000D03*
X217650000Y-111820000D03*
X217150000Y-111820000D03*
X216650000Y-111820000D03*
X218150000Y-111820000D03*
D11*
X206924400Y-102565200D03*
X208924400Y-102565200D03*
X205089000Y-88519000D03*
X203089000Y-88519000D03*
D12*
X202311000Y-86725000D03*
X202311000Y-84725000D03*
D11*
X209820000Y-100101400D03*
X211820000Y-100101400D03*
D12*
X214426800Y-102117400D03*
X214426800Y-100117400D03*
X216255600Y-100117400D03*
X216255600Y-102117400D03*
D11*
X205883000Y-100076000D03*
X207883000Y-100076000D03*
D12*
X203022200Y-80381600D03*
X203022200Y-82381600D03*
X226898200Y-78070200D03*
X226898200Y-80070200D03*
D15*
X207858000Y-112046000D03*
X202098000Y-112046000D03*
X202098000Y-116046000D03*
X207858000Y-116046000D03*
X229702000Y-112046000D03*
X223942000Y-112046000D03*
X223942000Y-116046000D03*
X229702000Y-116046000D03*
D16*
X219377500Y-94872500D03*
X219377500Y-94372500D03*
X219377500Y-93872500D03*
X219377500Y-93372500D03*
X219377500Y-92872500D03*
X219377500Y-92372500D03*
X219377500Y-91872500D03*
X219377500Y-91372500D03*
X219377500Y-90872500D03*
X219377500Y-90372500D03*
X219377500Y-89872500D03*
X219377500Y-89372500D03*
X219377500Y-88872500D03*
X219377500Y-88372500D03*
X219377500Y-87872500D03*
X219377500Y-87372500D03*
D17*
X217427500Y-85422500D03*
X216927500Y-85422500D03*
X216427500Y-85422500D03*
X215927500Y-85422500D03*
X215427500Y-85422500D03*
X214927500Y-85422500D03*
X214427500Y-85422500D03*
X213927500Y-85422500D03*
X213427500Y-85422500D03*
X212927500Y-85422500D03*
X212427500Y-85422500D03*
X211927500Y-85422500D03*
X211427500Y-85422500D03*
X210927500Y-85422500D03*
X210427500Y-85422500D03*
X209927500Y-85422500D03*
D16*
X207977500Y-87372500D03*
X207977500Y-87872500D03*
X207977500Y-88372500D03*
X207977500Y-88872500D03*
X207977500Y-89372500D03*
X207977500Y-89872500D03*
X207977500Y-90372500D03*
X207977500Y-90872500D03*
X207977500Y-91372500D03*
X207977500Y-91872500D03*
X207977500Y-92372500D03*
X207977500Y-92872500D03*
X207977500Y-93372500D03*
X207977500Y-93872500D03*
X207977500Y-94372500D03*
X207977500Y-94872500D03*
D17*
X209927500Y-96822500D03*
X210427500Y-96822500D03*
X210927500Y-96822500D03*
X211427500Y-96822500D03*
X211927500Y-96822500D03*
X212427500Y-96822500D03*
X212927500Y-96822500D03*
X213427500Y-96822500D03*
X213927500Y-96822500D03*
X214427500Y-96822500D03*
X214927500Y-96822500D03*
X215427500Y-96822500D03*
X215927500Y-96822500D03*
X216427500Y-96822500D03*
X216927500Y-96822500D03*
X217427500Y-96822500D03*
D18*
X212455000Y-109281000D03*
X212455000Y-107381000D03*
X210455000Y-108331000D03*
D11*
X224018600Y-98399600D03*
X226018600Y-98399600D03*
D19*
X227842500Y-95186500D03*
X227842500Y-90106500D03*
X223642500Y-90106500D03*
X223642500Y-95186500D03*
D20*
X230505000Y-104521000D03*
X230505000Y-102489000D03*
M02*
