G04 #@! TF.FileFunction,Legend,Bot*
%FSLAX46Y46*%
G04 Gerber Fmt 4.6, Leading zero omitted, Abs format (unit mm)*
G04 Created by KiCad (PCBNEW 4.0.7-e2-6376~58~ubuntu16.04.1) date Thu Nov 16 15:54:30 2017*
%MOMM*%
%LPD*%
G01*
G04 APERTURE LIST*
%ADD10C,0.100000*%
%ADD11C,0.120000*%
%ADD12C,0.150000*%
G04 APERTURE END LIST*
D10*
D11*
X208008600Y-90588200D02*
X209008600Y-90588200D01*
X209008600Y-88888200D02*
X208008600Y-88888200D01*
X221115000Y-80860000D02*
X222115000Y-80860000D01*
X222115000Y-79160000D02*
X221115000Y-79160000D01*
X227338000Y-91020000D02*
X228338000Y-91020000D01*
X228338000Y-89320000D02*
X227338000Y-89320000D01*
X205875000Y-80860000D02*
X206875000Y-80860000D01*
X206875000Y-79160000D02*
X205875000Y-79160000D01*
X202780000Y-98290000D02*
X202780000Y-97290000D01*
X201080000Y-97290000D02*
X201080000Y-98290000D01*
X204685000Y-98290000D02*
X204685000Y-97290000D01*
X202985000Y-97290000D02*
X202985000Y-98290000D01*
X218020000Y-98290000D02*
X218020000Y-97290000D01*
X216320000Y-97290000D02*
X216320000Y-98290000D01*
X219925000Y-98290000D02*
X219925000Y-97290000D01*
X218225000Y-97290000D02*
X218225000Y-98290000D01*
X218020000Y-88130000D02*
X218020000Y-87130000D01*
X216320000Y-87130000D02*
X216320000Y-88130000D01*
X219925000Y-88130000D02*
X219925000Y-87130000D01*
X218225000Y-87130000D02*
X218225000Y-88130000D01*
X202780000Y-88130000D02*
X202780000Y-87130000D01*
X201080000Y-87130000D02*
X201080000Y-88130000D01*
X204685000Y-88130000D02*
X204685000Y-87130000D01*
X202985000Y-87130000D02*
X202985000Y-88130000D01*
D12*
X211015400Y-91989200D02*
X211015400Y-92039200D01*
X206865400Y-91989200D02*
X206865400Y-92134200D01*
X206865400Y-97139200D02*
X206865400Y-96994200D01*
X211015400Y-97139200D02*
X211015400Y-96994200D01*
X211015400Y-91989200D02*
X206865400Y-91989200D01*
X211015400Y-97139200D02*
X206865400Y-97139200D01*
X211015400Y-92039200D02*
X212415400Y-92039200D01*
X226331600Y-81829200D02*
X226331600Y-81879200D01*
X222181600Y-81829200D02*
X222181600Y-81974200D01*
X222181600Y-86979200D02*
X222181600Y-86834200D01*
X226331600Y-86979200D02*
X226331600Y-86834200D01*
X226331600Y-81829200D02*
X222181600Y-81829200D01*
X226331600Y-86979200D02*
X222181600Y-86979200D01*
X226331600Y-81879200D02*
X227731600Y-81879200D01*
X225849000Y-92014600D02*
X225849000Y-92064600D01*
X221699000Y-92014600D02*
X221699000Y-92159600D01*
X221699000Y-97164600D02*
X221699000Y-97019600D01*
X225849000Y-97164600D02*
X225849000Y-97019600D01*
X225849000Y-92014600D02*
X221699000Y-92014600D01*
X225849000Y-97164600D02*
X221699000Y-97164600D01*
X225849000Y-92064600D02*
X227249000Y-92064600D01*
X211117000Y-81905400D02*
X211117000Y-81955400D01*
X206967000Y-81905400D02*
X206967000Y-82050400D01*
X206967000Y-87055400D02*
X206967000Y-86910400D01*
X211117000Y-87055400D02*
X211117000Y-86910400D01*
X211117000Y-81905400D02*
X206967000Y-81905400D01*
X211117000Y-87055400D02*
X206967000Y-87055400D01*
X211117000Y-81955400D02*
X212517000Y-81955400D01*
X208751466Y-88749143D02*
X208799085Y-88796762D01*
X208941942Y-88844381D01*
X209037180Y-88844381D01*
X209180038Y-88796762D01*
X209275276Y-88701524D01*
X209322895Y-88606286D01*
X209370514Y-88415810D01*
X209370514Y-88272952D01*
X209322895Y-88082476D01*
X209275276Y-87987238D01*
X209180038Y-87892000D01*
X209037180Y-87844381D01*
X208941942Y-87844381D01*
X208799085Y-87892000D01*
X208751466Y-87939619D01*
X207894323Y-88177714D02*
X207894323Y-88844381D01*
X208132419Y-87796762D02*
X208370514Y-88511048D01*
X207751466Y-88511048D01*
X220613266Y-81916543D02*
X220660885Y-81964162D01*
X220803742Y-82011781D01*
X220898980Y-82011781D01*
X221041838Y-81964162D01*
X221137076Y-81868924D01*
X221184695Y-81773686D01*
X221232314Y-81583210D01*
X221232314Y-81440352D01*
X221184695Y-81249876D01*
X221137076Y-81154638D01*
X221041838Y-81059400D01*
X220898980Y-81011781D01*
X220803742Y-81011781D01*
X220660885Y-81059400D01*
X220613266Y-81107019D01*
X219756123Y-81011781D02*
X219946600Y-81011781D01*
X220041838Y-81059400D01*
X220089457Y-81107019D01*
X220184695Y-81249876D01*
X220232314Y-81440352D01*
X220232314Y-81821305D01*
X220184695Y-81916543D01*
X220137076Y-81964162D01*
X220041838Y-82011781D01*
X219851361Y-82011781D01*
X219756123Y-81964162D01*
X219708504Y-81916543D01*
X219660885Y-81821305D01*
X219660885Y-81583210D01*
X219708504Y-81487971D01*
X219756123Y-81440352D01*
X219851361Y-81392733D01*
X220041838Y-81392733D01*
X220137076Y-81440352D01*
X220184695Y-81487971D01*
X220232314Y-81583210D01*
X229020666Y-92101943D02*
X229068285Y-92149562D01*
X229211142Y-92197181D01*
X229306380Y-92197181D01*
X229449238Y-92149562D01*
X229544476Y-92054324D01*
X229592095Y-91959086D01*
X229639714Y-91768610D01*
X229639714Y-91625752D01*
X229592095Y-91435276D01*
X229544476Y-91340038D01*
X229449238Y-91244800D01*
X229306380Y-91197181D01*
X229211142Y-91197181D01*
X229068285Y-91244800D01*
X229020666Y-91292419D01*
X228449238Y-91625752D02*
X228544476Y-91578133D01*
X228592095Y-91530514D01*
X228639714Y-91435276D01*
X228639714Y-91387657D01*
X228592095Y-91292419D01*
X228544476Y-91244800D01*
X228449238Y-91197181D01*
X228258761Y-91197181D01*
X228163523Y-91244800D01*
X228115904Y-91292419D01*
X228068285Y-91387657D01*
X228068285Y-91435276D01*
X228115904Y-91530514D01*
X228163523Y-91578133D01*
X228258761Y-91625752D01*
X228449238Y-91625752D01*
X228544476Y-91673371D01*
X228592095Y-91720990D01*
X228639714Y-91816229D01*
X228639714Y-92006705D01*
X228592095Y-92101943D01*
X228544476Y-92149562D01*
X228449238Y-92197181D01*
X228258761Y-92197181D01*
X228163523Y-92149562D01*
X228115904Y-92101943D01*
X228068285Y-92006705D01*
X228068285Y-91816229D01*
X228115904Y-91720990D01*
X228163523Y-91673371D01*
X228258761Y-91625752D01*
X205525666Y-81941943D02*
X205573285Y-81989562D01*
X205716142Y-82037181D01*
X205811380Y-82037181D01*
X205954238Y-81989562D01*
X206049476Y-81894324D01*
X206097095Y-81799086D01*
X206144714Y-81608610D01*
X206144714Y-81465752D01*
X206097095Y-81275276D01*
X206049476Y-81180038D01*
X205954238Y-81084800D01*
X205811380Y-81037181D01*
X205716142Y-81037181D01*
X205573285Y-81084800D01*
X205525666Y-81132419D01*
X205049476Y-82037181D02*
X204859000Y-82037181D01*
X204763761Y-81989562D01*
X204716142Y-81941943D01*
X204620904Y-81799086D01*
X204573285Y-81608610D01*
X204573285Y-81227657D01*
X204620904Y-81132419D01*
X204668523Y-81084800D01*
X204763761Y-81037181D01*
X204954238Y-81037181D01*
X205049476Y-81084800D01*
X205097095Y-81132419D01*
X205144714Y-81227657D01*
X205144714Y-81465752D01*
X205097095Y-81560990D01*
X205049476Y-81608610D01*
X204954238Y-81656229D01*
X204763761Y-81656229D01*
X204668523Y-81608610D01*
X204620904Y-81560990D01*
X204573285Y-81465752D01*
X202436362Y-99136343D02*
X202483981Y-99279200D01*
X202483981Y-99517296D01*
X202436362Y-99612534D01*
X202388743Y-99660153D01*
X202293505Y-99707772D01*
X202198267Y-99707772D01*
X202103029Y-99660153D01*
X202055410Y-99612534D01*
X202007790Y-99517296D01*
X201960171Y-99326819D01*
X201912552Y-99231581D01*
X201864933Y-99183962D01*
X201769695Y-99136343D01*
X201674457Y-99136343D01*
X201579219Y-99183962D01*
X201531600Y-99231581D01*
X201483981Y-99326819D01*
X201483981Y-99564915D01*
X201531600Y-99707772D01*
X201483981Y-100422058D02*
X202198267Y-100422058D01*
X202341124Y-100374438D01*
X202436362Y-100279200D01*
X202483981Y-100136343D01*
X202483981Y-100041105D01*
X202483981Y-101422058D02*
X202483981Y-100850629D01*
X202483981Y-101136343D02*
X201483981Y-101136343D01*
X201626838Y-101041105D01*
X201722076Y-100945867D01*
X201769695Y-100850629D01*
X204468362Y-99110943D02*
X204515981Y-99253800D01*
X204515981Y-99491896D01*
X204468362Y-99587134D01*
X204420743Y-99634753D01*
X204325505Y-99682372D01*
X204230267Y-99682372D01*
X204135029Y-99634753D01*
X204087410Y-99587134D01*
X204039790Y-99491896D01*
X203992171Y-99301419D01*
X203944552Y-99206181D01*
X203896933Y-99158562D01*
X203801695Y-99110943D01*
X203706457Y-99110943D01*
X203611219Y-99158562D01*
X203563600Y-99206181D01*
X203515981Y-99301419D01*
X203515981Y-99539515D01*
X203563600Y-99682372D01*
X203515981Y-100396658D02*
X204230267Y-100396658D01*
X204373124Y-100349038D01*
X204468362Y-100253800D01*
X204515981Y-100110943D01*
X204515981Y-100015705D01*
X203611219Y-100825229D02*
X203563600Y-100872848D01*
X203515981Y-100968086D01*
X203515981Y-101206182D01*
X203563600Y-101301420D01*
X203611219Y-101349039D01*
X203706457Y-101396658D01*
X203801695Y-101396658D01*
X203944552Y-101349039D01*
X204515981Y-100777610D01*
X204515981Y-101396658D01*
X217473162Y-99085543D02*
X217520781Y-99228400D01*
X217520781Y-99466496D01*
X217473162Y-99561734D01*
X217425543Y-99609353D01*
X217330305Y-99656972D01*
X217235067Y-99656972D01*
X217139829Y-99609353D01*
X217092210Y-99561734D01*
X217044590Y-99466496D01*
X216996971Y-99276019D01*
X216949352Y-99180781D01*
X216901733Y-99133162D01*
X216806495Y-99085543D01*
X216711257Y-99085543D01*
X216616019Y-99133162D01*
X216568400Y-99180781D01*
X216520781Y-99276019D01*
X216520781Y-99514115D01*
X216568400Y-99656972D01*
X216520781Y-100371258D02*
X217235067Y-100371258D01*
X217377924Y-100323638D01*
X217473162Y-100228400D01*
X217520781Y-100085543D01*
X217520781Y-99990305D01*
X216520781Y-100752210D02*
X216520781Y-101371258D01*
X216901733Y-101037924D01*
X216901733Y-101180782D01*
X216949352Y-101276020D01*
X216996971Y-101323639D01*
X217092210Y-101371258D01*
X217330305Y-101371258D01*
X217425543Y-101323639D01*
X217473162Y-101276020D01*
X217520781Y-101180782D01*
X217520781Y-100895067D01*
X217473162Y-100799829D01*
X217425543Y-100752210D01*
X220317962Y-99187143D02*
X220365581Y-99330000D01*
X220365581Y-99568096D01*
X220317962Y-99663334D01*
X220270343Y-99710953D01*
X220175105Y-99758572D01*
X220079867Y-99758572D01*
X219984629Y-99710953D01*
X219937010Y-99663334D01*
X219889390Y-99568096D01*
X219841771Y-99377619D01*
X219794152Y-99282381D01*
X219746533Y-99234762D01*
X219651295Y-99187143D01*
X219556057Y-99187143D01*
X219460819Y-99234762D01*
X219413200Y-99282381D01*
X219365581Y-99377619D01*
X219365581Y-99615715D01*
X219413200Y-99758572D01*
X219365581Y-100472858D02*
X220079867Y-100472858D01*
X220222724Y-100425238D01*
X220317962Y-100330000D01*
X220365581Y-100187143D01*
X220365581Y-100091905D01*
X219698914Y-101377620D02*
X220365581Y-101377620D01*
X219317962Y-101139524D02*
X220032248Y-100901429D01*
X220032248Y-101520477D01*
X217625562Y-89027143D02*
X217673181Y-89170000D01*
X217673181Y-89408096D01*
X217625562Y-89503334D01*
X217577943Y-89550953D01*
X217482705Y-89598572D01*
X217387467Y-89598572D01*
X217292229Y-89550953D01*
X217244610Y-89503334D01*
X217196990Y-89408096D01*
X217149371Y-89217619D01*
X217101752Y-89122381D01*
X217054133Y-89074762D01*
X216958895Y-89027143D01*
X216863657Y-89027143D01*
X216768419Y-89074762D01*
X216720800Y-89122381D01*
X216673181Y-89217619D01*
X216673181Y-89455715D01*
X216720800Y-89598572D01*
X216673181Y-90312858D02*
X217387467Y-90312858D01*
X217530324Y-90265238D01*
X217625562Y-90170000D01*
X217673181Y-90027143D01*
X217673181Y-89931905D01*
X216673181Y-91265239D02*
X216673181Y-90789048D01*
X217149371Y-90741429D01*
X217101752Y-90789048D01*
X217054133Y-90884286D01*
X217054133Y-91122382D01*
X217101752Y-91217620D01*
X217149371Y-91265239D01*
X217244610Y-91312858D01*
X217482705Y-91312858D01*
X217577943Y-91265239D01*
X217625562Y-91217620D01*
X217673181Y-91122382D01*
X217673181Y-90884286D01*
X217625562Y-90789048D01*
X217577943Y-90741429D01*
X219682962Y-89001743D02*
X219730581Y-89144600D01*
X219730581Y-89382696D01*
X219682962Y-89477934D01*
X219635343Y-89525553D01*
X219540105Y-89573172D01*
X219444867Y-89573172D01*
X219349629Y-89525553D01*
X219302010Y-89477934D01*
X219254390Y-89382696D01*
X219206771Y-89192219D01*
X219159152Y-89096981D01*
X219111533Y-89049362D01*
X219016295Y-89001743D01*
X218921057Y-89001743D01*
X218825819Y-89049362D01*
X218778200Y-89096981D01*
X218730581Y-89192219D01*
X218730581Y-89430315D01*
X218778200Y-89573172D01*
X218730581Y-90287458D02*
X219444867Y-90287458D01*
X219587724Y-90239838D01*
X219682962Y-90144600D01*
X219730581Y-90001743D01*
X219730581Y-89906505D01*
X218730581Y-91192220D02*
X218730581Y-91001743D01*
X218778200Y-90906505D01*
X218825819Y-90858886D01*
X218968676Y-90763648D01*
X219159152Y-90716029D01*
X219540105Y-90716029D01*
X219635343Y-90763648D01*
X219682962Y-90811267D01*
X219730581Y-90906505D01*
X219730581Y-91096982D01*
X219682962Y-91192220D01*
X219635343Y-91239839D01*
X219540105Y-91287458D01*
X219302010Y-91287458D01*
X219206771Y-91239839D01*
X219159152Y-91192220D01*
X219111533Y-91096982D01*
X219111533Y-90906505D01*
X219159152Y-90811267D01*
X219206771Y-90763648D01*
X219302010Y-90716029D01*
X202410962Y-89052543D02*
X202458581Y-89195400D01*
X202458581Y-89433496D01*
X202410962Y-89528734D01*
X202363343Y-89576353D01*
X202268105Y-89623972D01*
X202172867Y-89623972D01*
X202077629Y-89576353D01*
X202030010Y-89528734D01*
X201982390Y-89433496D01*
X201934771Y-89243019D01*
X201887152Y-89147781D01*
X201839533Y-89100162D01*
X201744295Y-89052543D01*
X201649057Y-89052543D01*
X201553819Y-89100162D01*
X201506200Y-89147781D01*
X201458581Y-89243019D01*
X201458581Y-89481115D01*
X201506200Y-89623972D01*
X201458581Y-90338258D02*
X202172867Y-90338258D01*
X202315724Y-90290638D01*
X202410962Y-90195400D01*
X202458581Y-90052543D01*
X202458581Y-89957305D01*
X201458581Y-90719210D02*
X201458581Y-91385877D01*
X202458581Y-90957305D01*
X204315962Y-89027143D02*
X204363581Y-89170000D01*
X204363581Y-89408096D01*
X204315962Y-89503334D01*
X204268343Y-89550953D01*
X204173105Y-89598572D01*
X204077867Y-89598572D01*
X203982629Y-89550953D01*
X203935010Y-89503334D01*
X203887390Y-89408096D01*
X203839771Y-89217619D01*
X203792152Y-89122381D01*
X203744533Y-89074762D01*
X203649295Y-89027143D01*
X203554057Y-89027143D01*
X203458819Y-89074762D01*
X203411200Y-89122381D01*
X203363581Y-89217619D01*
X203363581Y-89455715D01*
X203411200Y-89598572D01*
X203363581Y-90312858D02*
X204077867Y-90312858D01*
X204220724Y-90265238D01*
X204315962Y-90170000D01*
X204363581Y-90027143D01*
X204363581Y-89931905D01*
X203792152Y-90931905D02*
X203744533Y-90836667D01*
X203696914Y-90789048D01*
X203601676Y-90741429D01*
X203554057Y-90741429D01*
X203458819Y-90789048D01*
X203411200Y-90836667D01*
X203363581Y-90931905D01*
X203363581Y-91122382D01*
X203411200Y-91217620D01*
X203458819Y-91265239D01*
X203554057Y-91312858D01*
X203601676Y-91312858D01*
X203696914Y-91265239D01*
X203744533Y-91217620D01*
X203792152Y-91122382D01*
X203792152Y-90931905D01*
X203839771Y-90836667D01*
X203887390Y-90789048D01*
X203982629Y-90741429D01*
X204173105Y-90741429D01*
X204268343Y-90789048D01*
X204315962Y-90836667D01*
X204363581Y-90931905D01*
X204363581Y-91122382D01*
X204315962Y-91217620D01*
X204268343Y-91265239D01*
X204173105Y-91312858D01*
X203982629Y-91312858D01*
X203887390Y-91265239D01*
X203839771Y-91217620D01*
X203792152Y-91122382D01*
X211988305Y-90663781D02*
X211988305Y-91473305D01*
X211940686Y-91568543D01*
X211893067Y-91616162D01*
X211797829Y-91663781D01*
X211607352Y-91663781D01*
X211512114Y-91616162D01*
X211464495Y-91568543D01*
X211416876Y-91473305D01*
X211416876Y-90663781D01*
X210416876Y-91663781D02*
X210988305Y-91663781D01*
X210702591Y-91663781D02*
X210702591Y-90663781D01*
X210797829Y-90806638D01*
X210893067Y-90901876D01*
X210988305Y-90949495D01*
X225374105Y-80376781D02*
X225374105Y-81186305D01*
X225326486Y-81281543D01*
X225278867Y-81329162D01*
X225183629Y-81376781D01*
X224993152Y-81376781D01*
X224897914Y-81329162D01*
X224850295Y-81281543D01*
X224802676Y-81186305D01*
X224802676Y-80376781D01*
X224421724Y-80376781D02*
X223802676Y-80376781D01*
X224136010Y-80757733D01*
X223993152Y-80757733D01*
X223897914Y-80805352D01*
X223850295Y-80852971D01*
X223802676Y-80948210D01*
X223802676Y-81186305D01*
X223850295Y-81281543D01*
X223897914Y-81329162D01*
X223993152Y-81376781D01*
X224278867Y-81376781D01*
X224374105Y-81329162D01*
X224421724Y-81281543D01*
X224358105Y-90638381D02*
X224358105Y-91447905D01*
X224310486Y-91543143D01*
X224262867Y-91590762D01*
X224167629Y-91638381D01*
X223977152Y-91638381D01*
X223881914Y-91590762D01*
X223834295Y-91543143D01*
X223786676Y-91447905D01*
X223786676Y-90638381D01*
X222834295Y-90638381D02*
X223310486Y-90638381D01*
X223358105Y-91114571D01*
X223310486Y-91066952D01*
X223215248Y-91019333D01*
X222977152Y-91019333D01*
X222881914Y-91066952D01*
X222834295Y-91114571D01*
X222786676Y-91209810D01*
X222786676Y-91447905D01*
X222834295Y-91543143D01*
X222881914Y-91590762D01*
X222977152Y-91638381D01*
X223215248Y-91638381D01*
X223310486Y-91590762D01*
X223358105Y-91543143D01*
X211099305Y-80630781D02*
X211099305Y-81440305D01*
X211051686Y-81535543D01*
X211004067Y-81583162D01*
X210908829Y-81630781D01*
X210718352Y-81630781D01*
X210623114Y-81583162D01*
X210575495Y-81535543D01*
X210527876Y-81440305D01*
X210527876Y-80630781D01*
X209623114Y-80630781D02*
X209813591Y-80630781D01*
X209908829Y-80678400D01*
X209956448Y-80726019D01*
X210051686Y-80868876D01*
X210099305Y-81059352D01*
X210099305Y-81440305D01*
X210051686Y-81535543D01*
X210004067Y-81583162D01*
X209908829Y-81630781D01*
X209718352Y-81630781D01*
X209623114Y-81583162D01*
X209575495Y-81535543D01*
X209527876Y-81440305D01*
X209527876Y-81202210D01*
X209575495Y-81106971D01*
X209623114Y-81059352D01*
X209718352Y-81011733D01*
X209908829Y-81011733D01*
X210004067Y-81059352D01*
X210051686Y-81106971D01*
X210099305Y-81202210D01*
M02*
