G04 #@! TF.FileFunction,Soldermask,Bot*
%FSLAX46Y46*%
G04 Gerber Fmt 4.6, Leading zero omitted, Abs format (unit mm)*
G04 Created by KiCad (PCBNEW 4.0.7-e2-6376~58~ubuntu16.04.1) date Mon Nov 20 20:41:21 2017*
%MOMM*%
%LPD*%
G01*
G04 APERTURE LIST*
%ADD10C,0.100000*%
%ADD11C,0.200000*%
%ADD12C,0.150000*%
%ADD13R,1.400000X1.650000*%
%ADD14C,2.100000*%
%ADD15O,1.200000X1.800000*%
%ADD16O,1.350000X1.050000*%
%ADD17C,1.050000*%
%ADD18R,2.100000X2.100000*%
%ADD19O,2.100000X2.100000*%
%ADD20R,1.650000X1.400000*%
%ADD21R,1.250000X1.250000*%
%ADD22R,1.950000X1.000000*%
G04 APERTURE END LIST*
D10*
D11*
X210676666Y-117879762D02*
X210771904Y-117927381D01*
X210962381Y-117927381D01*
X211057619Y-117879762D01*
X211105238Y-117784524D01*
X211105238Y-117403571D01*
X211057619Y-117308333D01*
X210962381Y-117260714D01*
X210771904Y-117260714D01*
X210676666Y-117308333D01*
X210629047Y-117403571D01*
X210629047Y-117498810D01*
X211105238Y-117594048D01*
X209771904Y-117927381D02*
X209771904Y-116927381D01*
X209771904Y-117879762D02*
X209867142Y-117927381D01*
X210057619Y-117927381D01*
X210152857Y-117879762D01*
X210200476Y-117832143D01*
X210248095Y-117736905D01*
X210248095Y-117451190D01*
X210200476Y-117355952D01*
X210152857Y-117308333D01*
X210057619Y-117260714D01*
X209867142Y-117260714D01*
X209771904Y-117308333D01*
X209295714Y-117927381D02*
X209295714Y-117260714D01*
X209295714Y-116927381D02*
X209343333Y-116975000D01*
X209295714Y-117022619D01*
X209248095Y-116975000D01*
X209295714Y-116927381D01*
X209295714Y-117022619D01*
X208962381Y-117260714D02*
X208581429Y-117260714D01*
X208819524Y-116927381D02*
X208819524Y-117784524D01*
X208771905Y-117879762D01*
X208676667Y-117927381D01*
X208581429Y-117927381D01*
X208248095Y-117927381D02*
X208248095Y-117260714D01*
X208248095Y-116927381D02*
X208295714Y-116975000D01*
X208248095Y-117022619D01*
X208200476Y-116975000D01*
X208248095Y-116927381D01*
X208248095Y-117022619D01*
X207629048Y-117927381D02*
X207724286Y-117879762D01*
X207771905Y-117832143D01*
X207819524Y-117736905D01*
X207819524Y-117451190D01*
X207771905Y-117355952D01*
X207724286Y-117308333D01*
X207629048Y-117260714D01*
X207486190Y-117260714D01*
X207390952Y-117308333D01*
X207343333Y-117355952D01*
X207295714Y-117451190D01*
X207295714Y-117736905D01*
X207343333Y-117832143D01*
X207390952Y-117879762D01*
X207486190Y-117927381D01*
X207629048Y-117927381D01*
X206867143Y-117260714D02*
X206867143Y-117927381D01*
X206867143Y-117355952D02*
X206819524Y-117308333D01*
X206724286Y-117260714D01*
X206581428Y-117260714D01*
X206486190Y-117308333D01*
X206438571Y-117403571D01*
X206438571Y-117927381D01*
X204914761Y-116927381D02*
X204914761Y-117641667D01*
X204962381Y-117784524D01*
X205057619Y-117879762D01*
X205200476Y-117927381D01*
X205295714Y-117927381D01*
X203867142Y-117832143D02*
X203914761Y-117879762D01*
X204057618Y-117927381D01*
X204152856Y-117927381D01*
X204295714Y-117879762D01*
X204390952Y-117784524D01*
X204438571Y-117689286D01*
X204486190Y-117498810D01*
X204486190Y-117355952D01*
X204438571Y-117165476D01*
X204390952Y-117070238D01*
X204295714Y-116975000D01*
X204152856Y-116927381D01*
X204057618Y-116927381D01*
X203914761Y-116975000D01*
X203867142Y-117022619D01*
X203248095Y-116927381D02*
X203152856Y-116927381D01*
X203057618Y-116975000D01*
X203009999Y-117022619D01*
X202962380Y-117117857D01*
X202914761Y-117308333D01*
X202914761Y-117546429D01*
X202962380Y-117736905D01*
X203009999Y-117832143D01*
X203057618Y-117879762D01*
X203152856Y-117927381D01*
X203248095Y-117927381D01*
X203343333Y-117879762D01*
X203390952Y-117832143D01*
X203438571Y-117736905D01*
X203486190Y-117546429D01*
X203486190Y-117308333D01*
X203438571Y-117117857D01*
X203390952Y-117022619D01*
X203343333Y-116975000D01*
X203248095Y-116927381D01*
X210733733Y-115022381D02*
X210733733Y-115736667D01*
X210781353Y-115879524D01*
X210876591Y-115974762D01*
X211019448Y-116022381D01*
X211114686Y-116022381D01*
X209828971Y-115355714D02*
X209828971Y-116022381D01*
X210257543Y-115355714D02*
X210257543Y-115879524D01*
X210209924Y-115974762D01*
X210114686Y-116022381D01*
X209971828Y-116022381D01*
X209876590Y-115974762D01*
X209828971Y-115927143D01*
X209209924Y-116022381D02*
X209305162Y-115974762D01*
X209352781Y-115879524D01*
X209352781Y-115022381D01*
X208828971Y-116022381D02*
X208828971Y-115355714D01*
X208828971Y-115022381D02*
X208876590Y-115070000D01*
X208828971Y-115117619D01*
X208781352Y-115070000D01*
X208828971Y-115022381D01*
X208828971Y-115117619D01*
X207924209Y-116022381D02*
X207924209Y-115498571D01*
X207971828Y-115403333D01*
X208067066Y-115355714D01*
X208257543Y-115355714D01*
X208352781Y-115403333D01*
X207924209Y-115974762D02*
X208019447Y-116022381D01*
X208257543Y-116022381D01*
X208352781Y-115974762D01*
X208400400Y-115879524D01*
X208400400Y-115784286D01*
X208352781Y-115689048D01*
X208257543Y-115641429D01*
X208019447Y-115641429D01*
X207924209Y-115593810D01*
X207448019Y-115355714D02*
X207448019Y-116022381D01*
X207448019Y-115450952D02*
X207400400Y-115403333D01*
X207305162Y-115355714D01*
X207162304Y-115355714D01*
X207067066Y-115403333D01*
X207019447Y-115498571D01*
X207019447Y-116022381D01*
X205209923Y-115927143D02*
X205257542Y-115974762D01*
X205400399Y-116022381D01*
X205495637Y-116022381D01*
X205638495Y-115974762D01*
X205733733Y-115879524D01*
X205781352Y-115784286D01*
X205828971Y-115593810D01*
X205828971Y-115450952D01*
X205781352Y-115260476D01*
X205733733Y-115165238D01*
X205638495Y-115070000D01*
X205495637Y-115022381D01*
X205400399Y-115022381D01*
X205257542Y-115070000D01*
X205209923Y-115117619D01*
X204352780Y-116022381D02*
X204352780Y-115498571D01*
X204400399Y-115403333D01*
X204495637Y-115355714D01*
X204686114Y-115355714D01*
X204781352Y-115403333D01*
X204352780Y-115974762D02*
X204448018Y-116022381D01*
X204686114Y-116022381D01*
X204781352Y-115974762D01*
X204828971Y-115879524D01*
X204828971Y-115784286D01*
X204781352Y-115689048D01*
X204686114Y-115641429D01*
X204448018Y-115641429D01*
X204352780Y-115593810D01*
X203876590Y-115355714D02*
X203876590Y-116022381D01*
X203876590Y-115450952D02*
X203828971Y-115403333D01*
X203733733Y-115355714D01*
X203590875Y-115355714D01*
X203495637Y-115403333D01*
X203448018Y-115498571D01*
X203448018Y-116022381D01*
X202543256Y-116022381D02*
X202543256Y-115022381D01*
X202543256Y-115974762D02*
X202638494Y-116022381D01*
X202828971Y-116022381D01*
X202924209Y-115974762D01*
X202971828Y-115927143D01*
X203019447Y-115831905D01*
X203019447Y-115546190D01*
X202971828Y-115450952D01*
X202924209Y-115403333D01*
X202828971Y-115355714D01*
X202638494Y-115355714D01*
X202543256Y-115403333D01*
X202162304Y-115355714D02*
X201924209Y-116022381D01*
X201686113Y-115355714D02*
X201924209Y-116022381D01*
X202019447Y-116260476D01*
X202067066Y-116308095D01*
X202162304Y-116355714D01*
X229128152Y-117209914D02*
X228890057Y-117876581D01*
X228651961Y-117209914D01*
X228080533Y-116876581D02*
X227985294Y-116876581D01*
X227890056Y-116924200D01*
X227842437Y-116971819D01*
X227794818Y-117067057D01*
X227747199Y-117257533D01*
X227747199Y-117495629D01*
X227794818Y-117686105D01*
X227842437Y-117781343D01*
X227890056Y-117828962D01*
X227985294Y-117876581D01*
X228080533Y-117876581D01*
X228175771Y-117828962D01*
X228223390Y-117781343D01*
X228271009Y-117686105D01*
X228318628Y-117495629D01*
X228318628Y-117257533D01*
X228271009Y-117067057D01*
X228223390Y-116971819D01*
X228175771Y-116924200D01*
X228080533Y-116876581D01*
X227318628Y-117781343D02*
X227271009Y-117828962D01*
X227318628Y-117876581D01*
X227366247Y-117828962D01*
X227318628Y-117781343D01*
X227318628Y-117876581D01*
X226890057Y-116971819D02*
X226842438Y-116924200D01*
X226747200Y-116876581D01*
X226509104Y-116876581D01*
X226413866Y-116924200D01*
X226366247Y-116971819D01*
X226318628Y-117067057D01*
X226318628Y-117162295D01*
X226366247Y-117305152D01*
X226937676Y-117876581D01*
X226318628Y-117876581D01*
X225890057Y-117781343D02*
X225842438Y-117828962D01*
X225890057Y-117876581D01*
X225937676Y-117828962D01*
X225890057Y-117781343D01*
X225890057Y-117876581D01*
X225223391Y-116876581D02*
X225128152Y-116876581D01*
X225032914Y-116924200D01*
X224985295Y-116971819D01*
X224937676Y-117067057D01*
X224890057Y-117257533D01*
X224890057Y-117495629D01*
X224937676Y-117686105D01*
X224985295Y-117781343D01*
X225032914Y-117828962D01*
X225128152Y-117876581D01*
X225223391Y-117876581D01*
X225318629Y-117828962D01*
X225366248Y-117781343D01*
X225413867Y-117686105D01*
X225461486Y-117495629D01*
X225461486Y-117257533D01*
X225413867Y-117067057D01*
X225366248Y-116971819D01*
X225318629Y-116924200D01*
X225223391Y-116876581D01*
X223413866Y-118257533D02*
X223461486Y-118209914D01*
X223556724Y-118067057D01*
X223604343Y-117971819D01*
X223651962Y-117828962D01*
X223699581Y-117590867D01*
X223699581Y-117400390D01*
X223651962Y-117162295D01*
X223604343Y-117019438D01*
X223556724Y-116924200D01*
X223461486Y-116781343D01*
X223413866Y-116733724D01*
X223032914Y-117876581D02*
X223032914Y-117209914D01*
X223032914Y-116876581D02*
X223080533Y-116924200D01*
X223032914Y-116971819D01*
X222985295Y-116924200D01*
X223032914Y-116876581D01*
X223032914Y-116971819D01*
X222794819Y-117971819D02*
X222032914Y-117971819D01*
X221366247Y-117876581D02*
X221366247Y-117352771D01*
X221413866Y-117257533D01*
X221509104Y-117209914D01*
X221699581Y-117209914D01*
X221794819Y-117257533D01*
X221366247Y-117828962D02*
X221461485Y-117876581D01*
X221699581Y-117876581D01*
X221794819Y-117828962D01*
X221842438Y-117733724D01*
X221842438Y-117638486D01*
X221794819Y-117543248D01*
X221699581Y-117495629D01*
X221461485Y-117495629D01*
X221366247Y-117448010D01*
X220985295Y-118257533D02*
X220937676Y-118209914D01*
X220842438Y-118067057D01*
X220794819Y-117971819D01*
X220747200Y-117828962D01*
X220699581Y-117590867D01*
X220699581Y-117400390D01*
X220747200Y-117162295D01*
X220794819Y-117019438D01*
X220842438Y-116924200D01*
X220937676Y-116781343D01*
X220985295Y-116733724D01*
X227361333Y-115971581D02*
X227361333Y-114971581D01*
X227027999Y-115685867D01*
X226694666Y-114971581D01*
X226694666Y-115971581D01*
X226028000Y-114971581D02*
X225837523Y-114971581D01*
X225742285Y-115019200D01*
X225647047Y-115114438D01*
X225599428Y-115304914D01*
X225599428Y-115638248D01*
X225647047Y-115828724D01*
X225742285Y-115923962D01*
X225837523Y-115971581D01*
X226028000Y-115971581D01*
X226123238Y-115923962D01*
X226218476Y-115828724D01*
X226266095Y-115638248D01*
X226266095Y-115304914D01*
X226218476Y-115114438D01*
X226123238Y-115019200D01*
X226028000Y-114971581D01*
X225170857Y-115971581D02*
X225170857Y-114971581D01*
X224599428Y-115971581D01*
X224599428Y-114971581D01*
X224123238Y-115447771D02*
X223789904Y-115447771D01*
X223647047Y-115971581D02*
X224123238Y-115971581D01*
X224123238Y-114971581D01*
X223647047Y-114971581D01*
X223313714Y-114971581D02*
X222647047Y-114971581D01*
X223313714Y-115971581D01*
X222647047Y-115971581D01*
X222075619Y-114971581D02*
X221885142Y-114971581D01*
X221789904Y-115019200D01*
X221694666Y-115114438D01*
X221647047Y-115304914D01*
X221647047Y-115638248D01*
X221694666Y-115828724D01*
X221789904Y-115923962D01*
X221885142Y-115971581D01*
X222075619Y-115971581D01*
X222170857Y-115923962D01*
X222266095Y-115828724D01*
X222313714Y-115638248D01*
X222313714Y-115304914D01*
X222266095Y-115114438D01*
X222170857Y-115019200D01*
X222075619Y-114971581D01*
X220647047Y-115971581D02*
X220980381Y-115495390D01*
X221218476Y-115971581D02*
X221218476Y-114971581D01*
X220837523Y-114971581D01*
X220742285Y-115019200D01*
X220694666Y-115066819D01*
X220647047Y-115162057D01*
X220647047Y-115304914D01*
X220694666Y-115400152D01*
X220742285Y-115447771D01*
X220837523Y-115495390D01*
X221218476Y-115495390D01*
D12*
X216916000Y-119126000D02*
X217754200Y-119126000D01*
X214884000Y-119126000D02*
X214035640Y-119126000D01*
X214040720Y-119146320D02*
G75*
G03X217444320Y-119461280I1859280J1544320D01*
G01*
X218084400Y-118577360D02*
G75*
G03X216875360Y-115417600I-2184400J975360D01*
G01*
X218059000Y-116519960D02*
G75*
G03X214817960Y-115443000I-2159000J-1082040D01*
G01*
X214370920Y-119471440D02*
G75*
G03X217769440Y-119131080I1529080J1869440D01*
G01*
X214884000Y-115412520D02*
G75*
G03X213710520Y-118618000I1016000J-2189480D01*
G01*
X214884000Y-119126000D02*
X214884000Y-117602000D01*
X214884000Y-117602000D02*
X215900000Y-118491000D01*
X215900000Y-118491000D02*
X216916000Y-117602000D01*
X217424000Y-116459000D02*
X217424000Y-118618000D01*
X217424000Y-116459000D02*
X215900000Y-117856000D01*
X214376000Y-116459000D02*
X214376000Y-118618000D01*
X215900000Y-117856000D02*
X214376000Y-116459000D01*
X216916000Y-117602000D02*
X216916000Y-119126000D01*
X217424000Y-118618000D02*
X218059000Y-118618000D01*
X214376000Y-118618000D02*
X213741000Y-118618000D01*
D13*
X209508600Y-89738200D03*
X207508600Y-89738200D03*
X222615000Y-80010000D03*
X220615000Y-80010000D03*
X228838000Y-90170000D03*
X226838000Y-90170000D03*
X207375000Y-80010000D03*
X205375000Y-80010000D03*
D10*
G36*
X222210924Y-108458000D02*
X220726000Y-109942924D01*
X219241076Y-108458000D01*
X220726000Y-106973076D01*
X222210924Y-108458000D01*
X222210924Y-108458000D01*
G37*
D14*
X222522051Y-106661949D02*
X222522051Y-106661949D01*
X224318102Y-104865898D02*
X224318102Y-104865898D01*
X226114154Y-103069846D02*
X226114154Y-103069846D01*
X227910205Y-101273795D02*
X227910205Y-101273795D01*
X229706256Y-99477744D02*
X229706256Y-99477744D01*
D15*
X211770000Y-113730000D03*
X220030000Y-113730000D03*
X220390000Y-119680000D03*
X211410000Y-119680000D03*
D16*
X219500000Y-112480000D03*
D17*
X212300000Y-112480000D03*
X218700000Y-113130000D03*
X217100000Y-113130000D03*
X216300000Y-113130000D03*
X215500000Y-113130000D03*
X214700000Y-113130000D03*
X213100000Y-113130000D03*
X218300000Y-113830000D03*
X217500000Y-113830000D03*
X216700000Y-113830000D03*
X215100000Y-113830000D03*
X214300000Y-113830000D03*
X213500000Y-113830000D03*
D18*
X223520000Y-76200000D03*
D19*
X220980000Y-76200000D03*
X218440000Y-76200000D03*
X215900000Y-76200000D03*
X213360000Y-76200000D03*
X210820000Y-76200000D03*
X208280000Y-76200000D03*
D10*
G36*
X203127857Y-77745015D02*
X202010585Y-76178657D01*
X203576943Y-75061385D01*
X204694215Y-76627743D01*
X203127857Y-77745015D01*
X203127857Y-77745015D01*
G37*
G36*
X201069773Y-79213033D02*
X199952501Y-77646675D01*
X202150613Y-76078777D01*
X203267885Y-77645135D01*
X201069773Y-79213033D01*
X201069773Y-79213033D01*
G37*
G36*
X204554187Y-76727623D02*
X203436915Y-75161265D01*
X205635027Y-73593367D01*
X206752299Y-75159725D01*
X204554187Y-76727623D01*
X204554187Y-76727623D01*
G37*
G36*
X229764015Y-76153257D02*
X228646743Y-77719615D01*
X227080385Y-76602343D01*
X228197657Y-75035985D01*
X229764015Y-76153257D01*
X229764015Y-76153257D01*
G37*
G36*
X231822099Y-77621275D02*
X230704827Y-79187633D01*
X228506715Y-77619735D01*
X229623987Y-76053377D01*
X231822099Y-77621275D01*
X231822099Y-77621275D01*
G37*
G36*
X228337685Y-75135865D02*
X227220413Y-76702223D01*
X225022301Y-75134325D01*
X226139573Y-73567967D01*
X228337685Y-75135865D01*
X228337685Y-75135865D01*
G37*
D20*
X201930000Y-97218500D03*
X201930000Y-98361500D03*
X203835000Y-97218500D03*
X203835000Y-98361500D03*
X217170000Y-97218500D03*
X217170000Y-98361500D03*
X219075000Y-97218500D03*
X219075000Y-98361500D03*
X217170000Y-87058500D03*
X217170000Y-88201500D03*
X219075000Y-87058500D03*
X219075000Y-88201500D03*
X201930000Y-87058500D03*
X201930000Y-88201500D03*
X203835000Y-87058500D03*
X203835000Y-88201500D03*
D21*
X203835000Y-107315000D03*
X212242400Y-101854000D03*
X218389200Y-101854000D03*
X201676000Y-107315000D03*
X230124000Y-106934000D03*
X214376000Y-107569000D03*
D22*
X211640400Y-92659200D03*
X211640400Y-93929200D03*
X211640400Y-95199200D03*
X211640400Y-96469200D03*
X206240400Y-96469200D03*
X206240400Y-95199200D03*
X206240400Y-93929200D03*
X206240400Y-92659200D03*
X226956600Y-82499200D03*
X226956600Y-83769200D03*
X226956600Y-85039200D03*
X226956600Y-86309200D03*
X221556600Y-86309200D03*
X221556600Y-85039200D03*
X221556600Y-83769200D03*
X221556600Y-82499200D03*
X226474000Y-92684600D03*
X226474000Y-93954600D03*
X226474000Y-95224600D03*
X226474000Y-96494600D03*
X221074000Y-96494600D03*
X221074000Y-95224600D03*
X221074000Y-93954600D03*
X221074000Y-92684600D03*
X211742000Y-82575400D03*
X211742000Y-83845400D03*
X211742000Y-85115400D03*
X211742000Y-86385400D03*
X206342000Y-86385400D03*
X206342000Y-85115400D03*
X206342000Y-83845400D03*
X206342000Y-82575400D03*
M02*
